<svg xmlns="http://www.w3.org/2000/svg" width="2000" height="2000" viewBox="0 0 2000 2000" version="1.1">
	<rect x="0" y="0" width="100%" height="100%" fill="#ffffff" />
	<path d="M 423.460 785.169 C 418.026 789.941, 401.109 811.396, 392.222 824.787 C 363.434 868.169, 347.204 910.157, 339.483 961.220 L 338.921 964.940 333.210 962.355 C 300.310 947.463, 270.490 939.893, 238.827 938.397 C 219.603 937.489, 211.734 938.364, 207.885 941.839 C 205.136 944.319, 204.829 945.349, 203.369 957 C 197.036 1007.535, 214.551 1075.210, 246.334 1123 C 255.510 1136.798, 272.415 1156.491, 282.865 1165.557 C 308.730 1187.996, 334.912 1202.992, 365 1212.601 C 371.278 1214.607, 378.745 1216.419, 397.776 1220.556 C 399.027 1220.828, 406.565 1221.464, 414.526 1221.968 C 478.625 1226.031, 538.654 1202.793, 584.071 1156.336 C 590.436 1149.826, 598.580 1140.675, 602.170 1136 C 639.133 1087.867, 658.733 1023.403, 654.914 962.529 C 653.372 937.936, 653.425 937.995, 632.104 937.258 C 596.737 936.035, 563.078 943.270, 528.090 959.617 C 522.914 962.035, 518.590 963.898, 518.481 963.757 C 518.371 963.615, 517.291 957.202, 516.080 949.505 C 513.635 933.965, 509.944 919.053, 504.455 902.534 C 492.588 866.820, 471.017 827.895, 445.918 796.899 C 433.040 780.996, 430.013 779.415, 423.460 785.169 M 1057 840.877 C 1044.299 845.049, 1035.597 854.884, 1032.797 868.230 C 1030.579 878.808, 1035.986 892.454, 1045.339 899.876 C 1058.439 910.273, 1077.836 908.980, 1089.903 896.906 C 1103.153 883.648, 1102.792 862.737, 1089.083 849.375 C 1082.937 843.386, 1076.402 840.647, 1067.512 840.336 C 1063.106 840.182, 1058.375 840.426, 1057 840.877 M 786 995 L 786 1142 853.890 1142 C 928.261 1142, 930.041 1141.884, 946.243 1135.971 C 973.441 1126.045, 992.833 1105.363, 1000.132 1078.500 C 1003.021 1067.864, 1003.260 1046.754, 1000.600 1037 C 995.472 1018.195, 984.898 1002.928, 970.278 993.221 L 964.908 989.656 969.785 984.578 C 979.909 974.037, 986.101 963.294, 989.712 950 C 992.046 941.410, 992.011 921.334, 989.645 911.624 C 982.108 880.683, 958.981 858.537, 925.818 850.502 L 915.500 848.003 850.750 848.001 L 786 848 786 995 M 424.977 858.222 C 418.987 867.643, 417.024 871.255, 409.065 887.500 C 393.245 919.789, 384 955.260, 384 983.667 L 384 991.748 393.009 999.453 C 401.959 1007.108, 412.535 1018.353, 422.925 1031.260 C 425.908 1034.967, 428.657 1038, 429.033 1038 C 429.410 1038, 433.387 1033.516, 437.873 1028.035 C 447.270 1016.553, 456.377 1007.107, 466.885 997.941 L 474.270 991.500 473.652 978.444 C 473.312 971.263, 472.538 961.813, 471.933 957.444 C 469.064 936.739, 459.951 908.579, 449.001 886.578 C 441.387 871.280, 431.146 853.882, 429.417 853.306 C 428.821 853.107, 426.823 855.319, 424.977 858.222 M 845 934.500 L 845 966 876.750 966.005 C 913.817 966.011, 915.199 965.759, 923.596 957.469 C 930.625 950.530, 933.356 943.237, 932.757 933 C 932.174 923.013, 929.166 916.233, 922.767 910.480 C 914.853 903.365, 912.584 903, 876.318 903 L 845 903 845 934.500 M 1247.831 926.966 C 1231.945 929.841, 1217.274 937.076, 1206.195 947.499 L 1198.500 954.738 1198.500 943.619 L 1198.500 932.500 1171.250 932.234 L 1144 931.968 1144 1079 L 1144 1226.032 1171.250 1225.766 L 1198.500 1225.500 1198.658 1176 C 1198.745 1148.775, 1198.858 1124.859, 1198.908 1122.854 L 1199 1119.208 1205.110 1125.187 C 1215.665 1135.515, 1227.953 1142.058, 1243.500 1145.628 C 1255.541 1148.393, 1277.604 1148.197, 1289.377 1145.221 C 1340.021 1132.419, 1373.745 1081.136, 1368.107 1025.500 C 1365.226 997.073, 1353.912 972.944, 1334.743 954.342 C 1321.298 941.296, 1307.936 933.489, 1291.241 928.927 C 1282.647 926.578, 1256.500 925.397, 1247.831 926.966 M 1456.960 927.570 C 1426.082 934.211, 1405.950 951.351, 1399.488 976.500 C 1397.474 984.340, 1397.482 1000.735, 1399.505 1008.419 C 1403.908 1025.147, 1416.187 1038.348, 1435.308 1046.908 C 1442.049 1049.926, 1456.619 1054.787, 1475.650 1060.368 C 1496.120 1066.371, 1504.046 1071.397, 1505.532 1079.317 C 1508.024 1092.600, 1488.566 1101.280, 1465.921 1096.985 C 1454.624 1094.843, 1444.354 1087.216, 1439.390 1077.283 C 1437.800 1074.102, 1436.418 1071.343, 1436.318 1071.151 C 1436.127 1070.786, 1391.135 1095.769, 1389.642 1097.069 C 1388.322 1098.218, 1394.673 1109.301, 1400.939 1116.784 C 1422.457 1142.477, 1462.707 1153.597, 1503.518 1145.124 C 1540.987 1137.344, 1563.794 1110.795, 1561.611 1077.500 C 1560.455 1059.880, 1556.217 1050, 1545.089 1038.992 C 1533.377 1027.404, 1521 1021.793, 1484.500 1011.522 C 1468.087 1006.903, 1460.766 1003.636, 1456.863 999.191 C 1454.059 995.998, 1453.819 995.192, 1454.224 990.317 C 1454.777 983.645, 1458.027 979.882, 1465.722 977.003 C 1479.511 971.844, 1497.380 976.780, 1505.509 987.996 C 1512.068 997.045, 1508.632 997.577, 1534.401 983.522 C 1546.996 976.653, 1557.459 970.875, 1557.651 970.682 C 1558.328 970.005, 1549.749 958.437, 1544.655 953.160 C 1531.497 939.528, 1515.184 930.720, 1497 927.428 C 1487.344 925.679, 1465.387 925.757, 1456.960 927.570 M 1039 1037 L 1039 1142 1066.500 1142 L 1094 1142 1094 1037 L 1094 932 1066.500 932 L 1039 932 1039 1037 M 1566.273 933.750 C 1566.551 934.712, 1585.729 980.140, 1608.889 1034.699 C 1632.050 1089.258, 1651 1134.640, 1651 1135.547 C 1651 1136.453, 1649.127 1141.030, 1646.837 1145.717 C 1637.333 1165.169, 1624.477 1173.191, 1599.500 1175.252 L 1596.500 1175.500 1596.233 1200.750 L 1595.966 1226 1605.852 1226 C 1611.289 1226, 1619.509 1225.340, 1624.119 1224.532 C 1657.981 1218.602, 1681.700 1198.699, 1699.965 1160.887 C 1703.735 1153.082, 1781.079 943.399, 1783.753 933.735 C 1784.213 932.072, 1782.530 931.985, 1754.903 932.235 L 1725.564 932.500 1702.532 1002.267 L 1679.500 1072.035 1652.500 1002.029 L 1625.500 932.023 1595.633 932.012 C 1567.660 932.001, 1565.799 932.111, 1566.273 933.750 M 1243.072 979.484 C 1222.798 984.098, 1207.595 997.897, 1201.489 1017.223 C 1198.173 1027.722, 1197.988 1043.857, 1201.056 1055.020 C 1209.681 1086.402, 1243.293 1103.343, 1275.488 1092.536 C 1285.282 1089.248, 1292.087 1084.859, 1299.017 1077.360 C 1309.590 1065.918, 1314.856 1049.847, 1313.642 1032.731 C 1312.927 1022.668, 1309.358 1010.830, 1304.980 1004 C 1301.380 998.386, 1292.902 990.092, 1287.088 986.498 C 1275.621 979.409, 1256.670 976.389, 1243.072 979.484 M 597.500 985.478 C 558.349 990.983, 516.992 1011.991, 486.633 1041.795 C 476.354 1051.887, 468.356 1061.416, 461.285 1072 C 452.585 1085.022, 452.734 1084.454, 455.596 1093.587 C 461.916 1113.755, 467.346 1141.912, 468.645 1161.250 C 469.382 1172.207, 469.080 1171.923, 477.500 1169.593 C 495.276 1164.674, 519.052 1151.980, 535.500 1138.625 C 560.845 1118.046, 584.396 1084.732, 596.078 1052.930 C 602.497 1035.456, 607.504 1012.472, 609.516 991.250 C 610.309 982.884, 611.586 983.497, 597.500 985.478 M 248.008 987.107 C 248.042 996.846, 252.524 1023.076, 256.497 1036.781 C 276.371 1105.330, 326.575 1156.313, 389 1171.337 C 399.265 1173.807, 422.571 1176.763, 423.608 1175.726 C 423.895 1175.438, 423.648 1169.167, 423.059 1161.789 C 420.389 1128.346, 409.670 1092.939, 395.843 1071.887 C 387.583 1059.311, 386.187 1057.465, 378.859 1049.438 C 358.031 1026.621, 332.929 1008.921, 305.500 997.711 C 290.484 991.575, 269.942 986.369, 256.836 985.380 L 248 984.713 248.008 987.107 M 845 1052.945 L 845 1087 881.462 1087 C 915.676 1087, 918.260 1086.875, 923.360 1084.967 C 941.324 1078.245, 949.508 1056.501, 941.168 1037.648 C 938.379 1031.342, 932.991 1025.829, 926.308 1022.443 L 920.500 1019.500 882.750 1019.195 L 845 1018.890 845 1052.945" stroke="none" fill="#2f353a" fill-rule="evenodd"/>
</svg>