<svg xmlns="http://www.w3.org/2000/svg" width="2000" height="2000" viewBox="0 0 2000 2000" version="1.1">
	<path d="M 422.336 787.250 C 412.114 796.657, 391.959 824.743, 378.272 848.654 C 360.399 879.880, 345.968 921.009, 341.479 953.514 C 340.569 960.106, 339.751 965.551, 339.662 965.614 C 339.573 965.676, 334.325 963.486, 328 960.746 C 292.670 945.441, 258.743 938.318, 225.144 939.153 C 212.027 939.478, 211.001 939.648, 208.622 941.884 C 204.443 945.812, 203.512 952.732, 203.562 979.500 C 203.602 1000.887, 203.895 1005.133, 206.254 1018.500 C 224.593 1122.426, 291.819 1196.802, 386 1217.364 C 416.785 1224.085, 451.188 1223.272, 482.495 1215.085 C 505.100 1209.174, 529.084 1198.385, 548.500 1185.394 C 604.124 1148.174, 641.231 1086.772, 652.077 1014 C 655.871 988.542, 655.582 950.895, 651.533 943.064 C 650.588 941.236, 648.685 939.721, 646.376 938.959 C 641.676 937.408, 612.626 937.396, 600.500 938.940 C 578.562 941.735, 552.038 949.416, 530.135 959.318 C 516.430 965.514, 517.774 965.890, 516.492 955.500 C 515.217 945.170, 510.948 926.028, 506.902 912.500 C 495.670 874.950, 477.054 838.935, 451.335 805 C 437.154 786.288, 433.979 783, 430.093 783 C 427.793 783, 425.723 784.134, 422.336 787.250 M 1058.438 840.875 C 1056.754 841.312, 1052.994 842.967, 1050.083 844.552 C 1026.343 857.473, 1027.591 892.273, 1052.200 903.575 C 1057.356 905.944, 1059.865 906.472, 1066.021 906.484 C 1072.521 906.498, 1074.449 906.054, 1080.218 903.213 C 1093.018 896.912, 1099.552 885.895, 1098.774 871.929 C 1098.075 859.405, 1092.082 849.987, 1081.077 844.122 C 1074.591 840.664, 1064.704 839.247, 1058.438 840.875 M 786 994.942 L 786 1142 851.428 1142 C 891.971 1142, 919.830 1141.596, 924.678 1140.939 C 963.468 1135.678, 993.158 1109.750, 1000.581 1074.655 C 1002.387 1066.116, 1002.587 1049.753, 1000.993 1040.964 C 997.658 1022.573, 987.553 1006.592, 971.935 995.012 L 964.312 989.360 971.423 981.930 C 984.483 968.284, 991.071 951.586, 991.123 932 C 991.228 892.037, 966.953 861.360, 926.893 850.833 C 918.724 848.685, 916.735 848.617, 852.250 848.255 L 786 847.883 786 994.942 M 422.737 860.750 C 410.174 881.167, 402.064 898.564, 394.441 921.445 C 388.644 938.847, 385.230 956.122, 383.793 975.337 L 382.608 991.173 388.554 996.246 C 398.364 1004.616, 413.081 1019.883, 421.328 1030.248 L 429.085 1039.996 436.868 1030.248 C 445.628 1019.276, 457.103 1007.297, 467.500 998.270 L 474.500 992.193 474.362 980.807 C 474.105 959.490, 469.752 937.395, 460.907 912.500 C 454.171 893.540, 432.309 852, 429.067 852 C 428.547 852, 425.698 855.938, 422.737 860.750 M 844 934.520 L 844 967.164 877.250 966.825 L 910.500 966.486 915.717 963.743 C 925.366 958.670, 930.741 951.551, 932.888 941 C 935.241 929.434, 930.364 915.504, 921.656 908.923 C 913.538 902.787, 912.738 902.668, 876.750 902.254 L 844 901.876 844 934.520 M 1247.763 927.579 C 1230.552 930.691, 1215.739 938.224, 1204.262 949.701 L 1198 955.963 1198 943.981 L 1198 932 1171 932 L 1144 932 1144 1079 L 1144 1226 1171 1226 L 1198 1226 1198 1171.867 L 1198 1117.735 1205.803 1125.117 C 1222.210 1140.642, 1239.641 1147.124, 1265.500 1147.318 C 1281.669 1147.439, 1292.992 1144.945, 1307.500 1138.068 C 1345.145 1120.223, 1368.086 1082.005, 1368.064 1037.169 C 1368.041 987.408, 1339.392 945.170, 1296.069 931.021 C 1280.241 925.851, 1263.795 924.680, 1247.763 927.579 M 1461.476 927.116 C 1452.451 928.417, 1438.110 933.210, 1430.370 937.512 C 1421.338 942.531, 1409.224 954.595, 1405.275 962.500 C 1399.381 974.300, 1398.495 978.321, 1398.553 993 C 1398.602 1005.175, 1398.867 1007.163, 1401.263 1013.260 C 1409.079 1033.158, 1423.831 1043.992, 1457.222 1054.356 C 1465.075 1056.793, 1476 1060.179, 1481.500 1061.880 C 1499.957 1067.588, 1506.490 1073.104, 1505.697 1082.307 C 1505.167 1088.455, 1500.850 1093.160, 1493.051 1096.091 C 1488.298 1097.877, 1485.775 1098.127, 1475.500 1097.829 C 1464.372 1097.507, 1462.991 1097.242, 1456.500 1094.180 C 1448.381 1090.351, 1441.143 1083.298, 1438.343 1076.489 C 1437.329 1074.024, 1436.114 1072.006, 1435.642 1072.004 C 1434.536 1071.999, 1390.149 1096.950, 1389.555 1097.910 C 1388.631 1099.406, 1397.544 1112.566, 1404.292 1119.671 C 1419.893 1136.094, 1438.381 1144.316, 1465.912 1147.073 C 1490.815 1149.567, 1516.700 1144.001, 1534.148 1132.402 C 1546.448 1124.225, 1555.936 1111.009, 1559.654 1096.876 C 1561.848 1088.534, 1561.786 1072.677, 1559.525 1064 C 1555.747 1049.498, 1546.596 1037.910, 1532.330 1029.559 C 1522.248 1023.658, 1512.816 1020.102, 1489.500 1013.414 C 1468.650 1007.434, 1459.105 1003.361, 1456.122 999.171 C 1450.733 991.604, 1453.655 982.474, 1463 977.677 C 1468.161 975.028, 1469.117 974.877, 1478.500 975.228 C 1485.881 975.504, 1489.710 976.148, 1493.122 977.688 C 1499 980.341, 1505.387 986.098, 1508.673 991.704 C 1511.061 995.780, 1511.379 995.984, 1513.367 994.715 C 1514.540 993.967, 1524.838 988.270, 1536.250 982.055 C 1547.662 975.841, 1557 970.374, 1557 969.906 C 1557 967.784, 1543.710 951.942, 1537.671 946.865 C 1518.161 930.465, 1489.596 923.061, 1461.476 927.116 M 1039 1037 L 1039 1142 1066 1142 L 1093 1142 1093 1037 L 1093 932 1066 932 L 1039 932 1039 1037 M 1566.282 933.235 C 1566.562 933.931, 1585.954 979.661, 1609.377 1034.858 L 1651.963 1135.216 1649.775 1140.358 C 1646.033 1149.156, 1640.813 1157.307, 1635.779 1162.212 C 1627.730 1170.057, 1614.847 1175, 1602.451 1175 L 1597 1175 1597 1200.654 L 1597 1226.309 1609.250 1225.687 C 1650.520 1223.591, 1677.868 1204.278, 1698.788 1162.455 C 1701.798 1156.436, 1719.647 1108.944, 1743.323 1043.955 C 1765.054 984.305, 1783.144 934.712, 1783.524 933.750 C 1784.172 932.108, 1782.426 932, 1755.149 932 L 1726.084 932 1702.969 1002.094 C 1690.256 1040.645, 1679.623 1071.957, 1679.341 1071.675 C 1679.059 1071.393, 1666.765 1039.963, 1652.021 1001.831 L 1625.214 932.500 1595.494 932.235 C 1571.846 932.024, 1565.878 932.228, 1566.282 933.235 M 1241 979.576 C 1226.386 983.414, 1212.985 993.252, 1206.260 1005.078 C 1200.610 1015.015, 1198.490 1023.964, 1198.578 1037.500 C 1198.645 1047.793, 1199.039 1050.613, 1201.347 1057.328 C 1209.737 1081.734, 1229.973 1096.031, 1256.064 1095.985 C 1272.595 1095.956, 1286.860 1090.326, 1297.593 1079.593 C 1308.586 1068.599, 1313.958 1054.629, 1313.985 1036.960 C 1314.029 1008.693, 1297.751 986.458, 1272.235 979.932 C 1263.199 977.621, 1249.057 977.460, 1241 979.576 M 248 989.836 C 248 993.189, 248.704 1000.979, 249.564 1007.148 C 256.333 1055.675, 281.919 1104.202, 316.700 1134.478 C 342.560 1156.988, 377.239 1172.553, 408 1175.455 C 411.575 1175.792, 416.637 1176.320, 419.250 1176.628 L 424 1177.188 423.980 1168.844 C 423.941 1151.762, 419.561 1127.894, 412.541 1106.500 C 404.149 1080.927, 393.756 1064.044, 373.530 1043.128 C 341.881 1010.399, 297.726 988.489, 255.250 984.434 L 248 983.742 248 989.836 M 593 985.490 C 541.950 994.233, 490.694 1027.503, 461.262 1071 C 452.075 1084.578, 452.155 1084.199, 455.786 1096.719 C 462.543 1120.021, 465.764 1136.702, 467.998 1159.966 C 468.603 1166.272, 469.284 1171.618, 469.511 1171.844 C 470.237 1172.570, 479.228 1170.030, 488.500 1166.480 C 531.221 1150.122, 565.756 1117.339, 588.903 1071.171 C 599.714 1049.608, 608.034 1018.582, 609.660 993.769 L 610.301 984 605.400 984.103 C 602.705 984.159, 597.125 984.783, 593 985.490 M 844 1053.511 L 844 1088.110 881.774 1087.805 L 919.548 1087.500 926.248 1084.200 C 933.672 1080.544, 938.568 1075.396, 942.206 1067.420 C 944.025 1063.434, 944.454 1060.697, 944.465 1053 C 944.477 1044.811, 944.115 1042.721, 941.842 1037.852 C 938.631 1030.976, 933.079 1025.240, 926.458 1021.958 L 921.500 1019.500 882.750 1019.206 L 844 1018.912 844 1053.511" stroke="none" fill="#2f353a" fill-rule="evenodd"/>
</svg>