<svg xmlns="http://www.w3.org/2000/svg" width="2000" height="2000" viewBox="0 0 2000 2000" version="1.1">
	<rect x="0" y="0" width="100%" height="100%" fill="#2f343a" />
	<path d="M 1009.727 361.503 C 1004.835 364.016, 1003.433 365.244, 996.500 373.092 C 987.682 383.073, 970.954 404.469, 966.384 411.614 C 964.321 414.839, 961.928 418.240, 961.067 419.171 C 960.205 420.103, 958.604 422.583, 957.510 424.683 C 956.415 426.782, 955.239 428.725, 954.897 429 C 954.056 429.676, 945 443.887, 945 444.532 C 945 444.813, 943.903 446.721, 942.563 448.771 C 937.493 456.526, 913 504.754, 913 506.981 C 913 507.556, 912.587 508.809, 912.082 509.764 C 911.577 510.719, 910.183 513.750, 908.984 516.500 C 907.786 519.250, 906.212 522.850, 905.486 524.500 C 904.760 526.150, 903.616 529.300, 902.944 531.500 C 901.594 535.921, 900.840 538.042, 899.038 542.488 C 895.952 550.099, 889.165 572.712, 885.903 586.250 C 885.407 588.313, 884.575 591.688, 884.055 593.750 C 883.536 595.813, 882.181 602.450, 881.043 608.500 C 879.906 614.550, 878.531 621.419, 877.988 623.764 C 877.445 626.110, 877 630.302, 877 633.080 C 877 635.858, 876.555 638.963, 876.011 639.980 C 875.053 641.769, 874.883 641.764, 870.761 639.818 C 855.836 632.774, 847.329 629.081, 842.198 627.420 C 839.614 626.584, 836.600 625.528, 835.500 625.074 C 834.400 624.620, 832.150 623.689, 830.500 623.005 C 823.291 620.017, 814.368 617, 812.741 617 C 811.768 617, 810.191 616.589, 809.236 616.086 C 804.634 613.664, 783.677 608.565, 768 606.052 C 739.655 601.509, 719.939 600.348, 696.685 601.854 C 679.303 602.979, 677.159 603.320, 673.873 605.481 C 667.734 609.517, 665.908 613.651, 664.900 625.789 C 663.723 639.951, 663.780 689.285, 664.980 695 C 665.499 697.475, 666.446 704.450, 667.085 710.500 C 669.126 729.844, 672.412 749.201, 675.573 760.500 C 676.497 763.800, 677.621 768.300, 678.071 770.500 C 679.861 779.237, 680.839 782.895, 683.951 792.500 C 685.734 798, 687.537 803.400, 687.959 804.500 C 688.381 805.600, 689.532 808.975, 690.516 812 C 691.500 815.025, 693.182 819.525, 694.253 822 C 695.323 824.475, 696.559 827.400, 696.998 828.500 C 697.437 829.600, 698.449 832.075, 699.248 834 C 700.047 835.925, 701.316 839.075, 702.070 841 C 704.343 846.811, 717.638 872.531, 721.442 878.477 C 723.399 881.536, 725 884.265, 725 884.541 C 725 885.379, 730.446 893.476, 731.250 893.833 C 731.663 894.017, 732 894.543, 732 895.004 C 732 896.510, 748.166 918.823, 755.664 927.666 C 756.674 928.857, 758.359 930.882, 759.408 932.166 C 769.766 944.838, 787.832 963.061, 800.384 973.500 C 803.029 975.700, 805.713 977.975, 806.347 978.556 C 812.828 984.492, 849.429 1010, 851.465 1010 C 851.738 1010, 854.332 1011.494, 857.231 1013.320 C 862.109 1016.393, 869.697 1020.201, 879.500 1024.497 C 881.700 1025.461, 886.200 1027.479, 889.500 1028.982 C 892.800 1030.485, 897.975 1032.516, 901 1033.494 C 904.025 1034.473, 907.400 1035.653, 908.500 1036.118 C 913.050 1038.041, 929.222 1043.098, 933.692 1043.996 C 936.336 1044.527, 941.650 1045.662, 945.500 1046.518 C 949.350 1047.373, 954.750 1048.566, 957.500 1049.168 C 973.247 1052.613, 1005.417 1055.291, 1022 1054.537 C 1045.542 1053.466, 1062.807 1051.652, 1073.500 1049.123 C 1077.480 1048.183, 1088.870 1045.651, 1096.500 1044.011 C 1104.723 1042.243, 1117.077 1038.216, 1121.236 1035.947 C 1122.191 1035.426, 1123.576 1035, 1124.314 1035 C 1128.181 1035, 1159.919 1020.420, 1173.779 1012.277 C 1177.782 1009.925, 1181.292 1008, 1181.578 1008 C 1181.864 1008, 1184.663 1006.271, 1187.799 1004.159 C 1190.934 1002.046, 1196.650 998.220, 1200.500 995.655 C 1204.350 993.091, 1210.425 988.731, 1214 985.966 C 1217.575 983.201, 1222.953 979.071, 1225.951 976.789 C 1240.102 966.017, 1276.380 927.214, 1286.992 911.500 C 1288.849 908.750, 1290.657 906.275, 1291.009 906 C 1291.362 905.725, 1292.501 904.038, 1293.541 902.250 C 1294.581 900.463, 1295.784 899, 1296.216 899 C 1296.647 899, 1297 898.540, 1297 897.979 C 1297 896.923, 1301.954 888.895, 1303.166 887.987 C 1304.021 887.346, 1319.999 859.028, 1320.003 858.146 C 1320.005 857.791, 1322.474 852.550, 1325.490 846.500 C 1328.506 840.450, 1330.980 834.931, 1330.987 834.236 C 1330.994 833.541, 1331.427 832.191, 1331.949 831.236 C 1332.471 830.281, 1334.096 826.575, 1335.561 823 C 1338.075 816.862, 1338.755 815.169, 1340.884 809.750 C 1341.370 808.513, 1342.551 804.800, 1343.508 801.500 C 1344.466 798.200, 1345.643 794.719, 1346.124 793.764 C 1346.606 792.809, 1347 791.148, 1347 790.073 C 1347 788.998, 1347.398 787.872, 1347.885 787.571 C 1348.371 787.271, 1349.003 785.781, 1349.289 784.262 C 1349.575 782.743, 1350.545 779.025, 1351.444 776 C 1352.985 770.812, 1353.948 766.550, 1355.962 756 C 1356.434 753.525, 1357.481 748.575, 1358.288 745 C 1359.801 738.295, 1361.898 724.935, 1364.173 707.500 C 1366.005 693.471, 1365.714 616.585, 1363.816 612.989 C 1359.169 604.184, 1357.480 603.453, 1338.335 601.953 C 1305.340 599.369, 1262.788 603.606, 1232 612.542 C 1228.975 613.420, 1224.925 614.583, 1223 615.126 C 1218.854 616.295, 1214.963 617.418, 1209.500 619.023 C 1205.986 620.055, 1199.808 622.383, 1193.500 625.053 C 1192.400 625.518, 1189.318 626.607, 1186.651 627.471 C 1183.984 628.336, 1177.234 631.211, 1171.651 633.861 C 1159.194 639.772, 1155.086 641.419, 1154.433 640.766 C 1154.157 640.490, 1153.272 635.142, 1152.468 628.882 C 1150.043 610.008, 1149.125 605.005, 1145.699 592 C 1144.613 587.875, 1143.513 582.810, 1143.256 580.744 C 1142.999 578.678, 1142.386 576.739, 1141.894 576.435 C 1141.402 576.131, 1141 574.841, 1141 573.569 C 1141 571.052, 1136.612 556.573, 1134.998 553.764 C 1134.449 552.809, 1134 551.340, 1134 550.500 C 1134 549.660, 1133.605 548.191, 1133.123 547.236 C 1132.640 546.281, 1131.714 543.700, 1131.065 541.500 C 1129.769 537.109, 1125.834 526.893, 1122.885 520.261 C 1121.848 517.929, 1121 515.804, 1121 515.538 C 1121 514.844, 1113.815 499.034, 1107.122 485 C 1103.175 476.723, 1097.195 465.376, 1091.708 455.750 C 1090.219 453.137, 1087.811 448.863, 1086.357 446.250 C 1084.903 443.637, 1082.878 440.306, 1081.857 438.846 C 1080.836 437.386, 1080 435.853, 1080 435.440 C 1080 435.027, 1078.875 433.214, 1077.500 431.411 C 1076.125 429.608, 1075 427.831, 1075 427.462 C 1075 426.782, 1055.196 397.924, 1054.095 397 C 1053.768 396.725, 1050.585 392.675, 1047.021 388 C 1039.664 378.347, 1039.952 378.712, 1032.854 370.102 C 1028.967 365.387, 1026.180 363.085, 1022.261 361.352 C 1015.746 358.471, 1015.628 358.472, 1009.727 361.503 M 1009.980 484.247 C 1003.924 494.044, 1002.375 496.732, 999.746 502 C 998.511 504.475, 997.275 506.725, 997 507 C 996.428 507.572, 987.995 524.738, 985.701 530 C 984.862 531.925, 982.859 536.425, 981.251 540 C 979.644 543.575, 976.645 551, 974.588 556.500 C 972.532 562, 970.456 567.400, 969.975 568.500 C 968.152 572.671, 964.139 585.969, 961.903 595.250 C 955.825 620.479, 954.627 626.363, 952.991 639 C 951.094 653.657, 950.112 663.650, 949.452 675 L 948.783 686.500 952.276 690.250 C 954.198 692.313, 956.089 694, 956.479 694 C 957.951 694, 972.751 708.594, 986.879 723.975 C 992.170 729.736, 997.548 735.586, 998.828 736.975 C 1000.109 738.364, 1002.871 741.975, 1004.966 745 C 1007.061 748.025, 1010.135 752.197, 1011.795 754.271 C 1015.453 758.839, 1014.062 759.863, 1027.109 743 C 1029.449 739.975, 1031.620 737.275, 1031.932 737 C 1032.244 736.725, 1034.289 734.250, 1036.476 731.500 C 1041.678 724.958, 1068.366 698.255, 1073.497 694.458 C 1080.574 689.220, 1080.930 688.459, 1080.964 678.500 C 1080.996 668.885, 1078.705 642.532, 1076.970 632.548 C 1075.192 622.326, 1073.891 615.658, 1072.960 612 C 1072.470 610.075, 1070.893 603.550, 1069.456 597.500 C 1066.890 586.697, 1065.663 582.480, 1063.925 578.500 C 1063.444 577.400, 1061.679 572.298, 1060.002 567.163 C 1057.265 558.785, 1055.013 552.943, 1050.303 542 C 1049.474 540.075, 1048.332 537.375, 1047.764 536 C 1045.647 530.870, 1044.417 528.351, 1041.250 522.654 C 1039.463 519.439, 1038 516.459, 1038 516.033 C 1038 515.606, 1034.850 509.485, 1031 502.429 C 1027.150 495.374, 1024 489.441, 1024 489.246 C 1024 488.345, 1015.841 477, 1015.193 477 C 1014.790 477, 1012.444 480.261, 1009.980 484.247 M 1280 681.065 C 1256.627 684.595, 1239.001 689.043, 1218 696.710 C 1205.564 701.250, 1206.832 700.693, 1189 709.447 C 1171.006 718.281, 1167.501 720.237, 1156 727.862 C 1151.325 730.962, 1147.050 733.678, 1146.500 733.899 C 1145.950 734.119, 1145.275 734.570, 1145 734.900 C 1144.725 735.230, 1143.762 735.950, 1142.860 736.500 C 1135.708 740.860, 1119.626 754.554, 1107.585 766.536 C 1094.338 779.717, 1088.278 786.481, 1082.500 794.537 C 1080.184 797.766, 1075.484 803.951, 1074.012 805.708 C 1073.455 806.372, 1073 807.159, 1073 807.455 C 1073 807.752, 1071.473 810.134, 1069.606 812.748 C 1066.025 817.762, 1064.107 821.033, 1059.029 830.791 C 1055.909 836.785, 1055.739 838.948, 1057.953 844.500 C 1058.392 845.600, 1059.494 849.200, 1060.402 852.500 C 1061.970 858.199, 1062.469 860.107, 1064.848 869.500 C 1065.405 871.700, 1066.570 875.975, 1067.437 879 C 1069.531 886.302, 1071.885 897.105, 1072.996 904.500 C 1073.491 907.800, 1074.117 911.400, 1074.387 912.500 C 1074.814 914.240, 1076.660 928.454, 1078.543 944.500 C 1078.866 947.250, 1079.357 953.663, 1079.634 958.750 C 1080.120 967.690, 1080.217 968, 1082.522 968 C 1083.833 968, 1085.940 967.582, 1087.203 967.071 C 1088.466 966.560, 1092.875 964.949, 1097 963.491 C 1105.844 960.365, 1106.669 960.035, 1114.500 956.495 C 1117.800 955.003, 1122.525 952.886, 1125 951.791 C 1133.770 947.912, 1134.532 947.517, 1137.594 945.270 C 1139.296 944.022, 1140.979 943, 1141.334 943 C 1141.689 943, 1145.139 940.975, 1149 938.500 C 1152.861 936.025, 1156.428 934, 1156.927 934 C 1157.425 934, 1157.983 933.655, 1158.167 933.233 C 1158.350 932.811, 1160.975 930.688, 1164 928.516 C 1182.221 915.432, 1202.636 895.791, 1218.250 876.322 C 1223.612 869.636, 1228 863.678, 1228 863.082 C 1228 862.487, 1228.379 862, 1228.843 862 C 1229.306 862, 1230.533 860.425, 1231.570 858.500 C 1232.607 856.575, 1233.802 855, 1234.227 855 C 1234.652 855, 1235 854.555, 1235 854.010 C 1235 853.466, 1237.110 849.753, 1239.689 845.760 C 1246.322 835.487, 1256.794 814.690, 1262.981 799.500 C 1263.430 798.400, 1264.472 795.925, 1265.298 794 C 1266.124 792.075, 1267.741 787.575, 1268.893 784 C 1278.662 753.670, 1279.454 751.011, 1280.509 745 C 1280.847 743.075, 1282.279 735.425, 1283.692 728 C 1287.029 710.462, 1287.911 703.809, 1288.629 690.750 C 1289.300 678.570, 1290.156 679.530, 1280 681.065 M 741.053 685.681 C 741.114 691.167, 743.509 712.763, 744.971 721 C 745.507 724.025, 746.211 728.300, 746.535 730.500 C 746.859 732.700, 747.515 735.400, 747.994 736.500 C 748.472 737.600, 749.072 739.850, 749.326 741.500 C 749.580 743.150, 750.555 747.650, 751.493 751.500 C 752.431 755.350, 753.428 759.967, 753.710 761.759 C 753.991 763.552, 754.621 765.266, 755.110 765.568 C 755.600 765.871, 756 766.998, 756 768.073 C 756 769.148, 756.422 770.809, 756.938 771.764 C 758.610 774.860, 763 787.495, 763 789.212 C 763 790.131, 763.450 791.160, 764 791.500 C 764.550 791.840, 765 792.772, 765 793.571 C 765 795.796, 780.170 827.654, 787.108 840 C 790.555 846.134, 806.527 870.364, 808.382 872.274 C 809.037 872.949, 810.904 875.300, 812.531 877.500 C 814.157 879.700, 815.717 881.725, 815.996 882 C 816.275 882.275, 818.032 884.300, 819.900 886.500 C 826.755 894.572, 833.740 901.677, 842.020 909 C 846.684 913.125, 850.725 916.728, 851 917.006 C 851.275 917.284, 853.300 918.835, 855.500 920.453 C 857.700 922.071, 859.725 923.688, 860 924.046 C 861.941 926.577, 898.855 950, 900.903 950 C 901.361 950, 905.508 951.919, 910.118 954.264 C 914.728 956.610, 923.900 960.267, 930.500 962.392 C 937.100 964.517, 943.400 966.614, 944.500 967.052 C 945.600 967.491, 947.625 968.062, 949 968.322 C 950.375 968.582, 954.875 969.682, 959 970.767 C 963.125 971.851, 969.650 973.217, 973.500 973.802 C 991.208 976.493, 995.333 977, 999.519 977 L 1004 977 1004 968.365 C 1004 963.616, 1003.558 956.979, 1003.017 953.615 C 1002.476 950.252, 1001.521 943.900, 1000.894 939.500 C 997.822 917.922, 994.619 901.843, 989.940 884.500 C 989.346 882.300, 988.633 879.375, 988.355 878 C 988.077 876.625, 987.457 874.600, 986.977 873.500 C 986.497 872.400, 984.911 867.675, 983.451 863 C 981.992 858.325, 980.393 853.719, 979.899 852.764 C 979.404 851.809, 979 850.340, 979 849.500 C 979 848.660, 978.563 847.191, 978.029 846.236 C 977.495 845.281, 974.726 839.571, 971.876 833.547 C 961.315 811.228, 945.427 789.600, 923 767.014 C 919.975 763.967, 914.126 758.556, 910.002 754.987 C 905.878 751.419, 901.775 747.712, 900.884 746.750 C 899.994 745.788, 898.793 745, 898.216 745 C 897.639 745, 897.017 744.663, 896.833 744.250 C 896.650 743.837, 894.700 742.164, 892.500 740.530 C 890.300 738.897, 888.050 737.203, 887.500 736.767 C 884.930 734.728, 867.008 723.032, 863 720.778 C 860.525 719.386, 855.800 716.729, 852.500 714.873 C 849.200 713.018, 845.375 710.976, 844 710.336 C 842.625 709.696, 837.900 707.498, 833.500 705.450 C 829.100 703.403, 824.600 701.392, 823.500 700.981 C 822.400 700.570, 818.350 699.012, 814.500 697.520 C 803.796 693.369, 803.733 693.346, 800 692.236 C 798.075 691.664, 791.550 690.017, 785.500 688.578 C 779.450 687.139, 773.118 685.520, 771.429 684.980 C 769.740 684.441, 766.957 684, 765.244 684 C 763.531 684, 761.088 683.611, 759.815 683.136 C 758.542 682.661, 753.788 681.955, 749.250 681.568 L 741 680.863 741.053 685.681 M 782.324 1141.380 C 764.973 1147.054, 754.576 1165.709, 759.440 1182.441 C 762.525 1193.054, 768.538 1200.063, 778.500 1204.660 C 791.215 1210.528, 806.733 1207.338, 816.555 1196.838 C 823.473 1189.442, 825.503 1184.229, 825.450 1174 C 825.413 1166.855, 824.973 1164.603, 822.689 1159.874 C 819.461 1153.190, 811.794 1145.683, 805.217 1142.767 C 799.338 1140.160, 788.130 1139.481, 782.324 1141.380 M 509 1296.492 L 509 1445.087 580.250 1444.733 C 658.718 1444.342, 657.891 1444.403, 673.646 1437.865 C 699.013 1427.339, 716.255 1409.299, 724.145 1385.030 C 726.677 1377.243, 727.334 1373.305, 727.740 1363.500 C 728.701 1340.285, 722.646 1322.125, 708.737 1306.500 C 704.273 1301.487, 693.611 1292.726, 690.771 1291.739 C 689.999 1291.471, 692.041 1288.713, 695.971 1284.717 C 706.336 1274.177, 712.422 1262.693, 715.694 1247.500 C 717.737 1238.015, 716.911 1219.256, 714.001 1209.039 C 705.881 1180.528, 683.390 1159.437, 652 1150.895 C 643.577 1148.603, 642.887 1148.579, 576.250 1148.239 L 509 1147.896 509 1296.492 M 569 1235.500 L 569 1268.124 601.750 1267.812 L 634.500 1267.500 640.161 1264.719 C 646.681 1261.517, 652.295 1255.757, 655.363 1249.122 C 658.611 1242.098, 658.379 1228.480, 654.883 1221 C 651.654 1214.090, 647.044 1209.482, 640 1206.123 L 634.500 1203.500 601.750 1203.188 L 569 1202.876 569 1235.500 M 977.500 1227.705 C 971.313 1228.542, 959.399 1232.322, 952.243 1235.718 C 944.373 1239.454, 931.772 1248.840, 928.209 1253.621 L 926.063 1256.500 926.032 1244.750 L 926 1233 897.997 1233 L 869.993 1233 870.247 1381.250 L 870.500 1529.500 898.250 1529.766 L 926 1530.032 926 1475.797 L 926 1421.563 931.750 1427.114 C 939.456 1434.552, 944.325 1438.156, 951.500 1441.732 C 977.694 1454.784, 1013.386 1453.785, 1040 1439.255 C 1078.881 1418.027, 1101.265 1374.850, 1097.093 1329.128 C 1094.737 1303.310, 1086.596 1282.897, 1070.908 1263.471 C 1056.820 1246.024, 1035.595 1233.302, 1012.681 1228.569 C 1005.612 1227.109, 985.553 1226.617, 977.500 1227.705 M 1186.627 1228.637 C 1169.333 1232.346, 1153.642 1240.443, 1143.888 1250.691 C 1132.769 1262.374, 1128.015 1273.898, 1127.259 1291 C 1126.461 1309.069, 1130.306 1320.816, 1140.692 1332.034 C 1151.772 1344.001, 1165.936 1351.082, 1196.656 1360.012 C 1223.907 1367.933, 1231.071 1371.369, 1234.611 1378.214 C 1236.477 1381.824, 1236.022 1387.792, 1233.597 1391.492 C 1227.202 1401.252, 1200.809 1404.004, 1185.925 1396.462 C 1178.787 1392.845, 1171.897 1386.127, 1168.560 1379.531 C 1167.021 1376.489, 1165.507 1374, 1165.196 1374 C 1164.462 1374, 1121.719 1397.754, 1119.394 1399.454 C 1117.743 1400.661, 1117.915 1401.240, 1121.926 1407.992 C 1124.293 1411.976, 1129.399 1418.573, 1133.275 1422.652 C 1150.459 1440.743, 1171.926 1449.360, 1203 1450.641 C 1219.724 1451.331, 1230.628 1449.860, 1245.461 1444.913 C 1277.581 1434.200, 1295.761 1407.532, 1292.101 1376.498 C 1290.223 1360.568, 1285.640 1350.561, 1275.849 1341.011 C 1265.039 1330.466, 1250.924 1323.942, 1219.542 1314.984 C 1192.920 1307.385, 1186.083 1303.736, 1184.004 1296.016 C 1181.219 1285.674, 1189.825 1277.569, 1204.936 1276.302 C 1218.062 1275.202, 1230.583 1281.131, 1237.728 1291.831 L 1241.730 1297.823 1264.615 1285.282 C 1277.202 1278.384, 1287.701 1272.560, 1287.947 1272.339 C 1288.702 1271.664, 1284.969 1265.842, 1279.243 1258.763 C 1266.615 1243.150, 1248.395 1232.618, 1226.989 1228.557 C 1216.677 1226.601, 1195.929 1226.642, 1186.627 1228.637 M 764.245 1338.750 L 764.500 1444.500 792.250 1444.766 L 820 1445.032 820 1339.016 L 820 1233 791.995 1233 L 763.991 1233 764.245 1338.750 M 1296.844 1234.750 C 1297.347 1235.713, 1316.985 1281.887, 1340.483 1337.359 L 1383.207 1438.219 1380.427 1444.759 C 1376.891 1453.079, 1371.084 1461.788, 1366.023 1466.360 C 1358.273 1473.362, 1345.555 1478, 1334.106 1478 L 1328 1478 1328 1504 L 1328 1530 1336.869 1530 C 1354.220 1530, 1372.668 1525.314, 1386.991 1517.269 C 1393.074 1513.852, 1398.198 1509.807, 1405.065 1503 C 1417.605 1490.569, 1426.276 1477.569, 1434.494 1458.877 C 1437.453 1452.147, 1517 1234.825, 1517 1233.471 C 1517 1233.212, 1503.743 1233, 1487.540 1233 L 1458.079 1233 1434.763 1303.694 L 1411.447 1374.388 1384.781 1305.444 C 1370.114 1267.525, 1357.815 1235.713, 1357.450 1234.750 C 1356.838 1233.136, 1354.417 1233, 1326.358 1233 C 1297.697 1233, 1295.983 1233.102, 1296.844 1234.750 M 975.500 1279.952 C 957.212 1282.123, 940.182 1293.989, 932.284 1310.062 C 920.834 1333.364, 925.142 1363.917, 942.352 1381.457 C 952.346 1391.644, 964.097 1396.696, 980.088 1397.682 C 1001.513 1399.003, 1020.151 1390.632, 1031.344 1374.661 C 1039.753 1362.662, 1042.529 1352.186, 1041.784 1335.257 C 1041.426 1327.128, 1040.675 1322.697, 1038.710 1317.119 C 1029.584 1291.217, 1004.556 1276.501, 975.500 1279.952 M 569 1355.556 L 569 1390.112 606.250 1389.769 C 649.719 1389.369, 649.787 1389.357, 659.087 1380.067 C 673.993 1365.177, 672.386 1338.985, 655.833 1326.994 C 648.009 1321.327, 645.256 1321, 605.318 1321 L 569 1321 569 1355.556" stroke="none" fill="#bfeed3" fill-rule="evenodd"/>
</svg>