<svg xmlns="http://www.w3.org/2000/svg" width="2000" height="2000" viewBox="0 0 2000 2000" version="1.1">
	<rect x="0" y="0" width="100%" height="100%" fill="#2f343a" />
	<path d="M 435.500 796.844 C 431.900 799.048, 427.695 803.643, 418.886 815 C 392.755 848.687, 373.406 887.729, 362.141 929.500 C 359.344 939.871, 356 957.247, 356 961.407 C 356 963.200, 355.741 964.926, 355.423 965.243 C 355.106 965.560, 350.944 964.125, 346.173 962.055 C 318.734 950.142, 300.120 945.019, 275.050 942.479 C 258.270 940.780, 242.001 941.050, 235.267 943.140 C 233.489 943.692, 231.032 945.551, 229.807 947.271 C 227.710 950.215, 227.557 951.632, 227.171 971.539 C 226.921 984.408, 227.213 995.972, 227.916 1001.091 C 228.552 1005.716, 229.531 1013.100, 230.093 1017.500 C 233.119 1041.200, 245.350 1078.786, 257.264 1101 C 272.409 1129.237, 298.984 1160.230, 321.573 1176 C 342.105 1190.334, 356.088 1197.733, 375 1204.271 C 400.665 1213.144, 430.290 1217.227, 453.629 1215.109 C 501.617 1210.754, 545.395 1190.493, 579.880 1156.678 C 603.045 1133.963, 619.872 1108.955, 632.483 1078.500 C 637.341 1066.770, 644.026 1045.930, 645.475 1038 C 645.827 1036.075, 646.745 1031.800, 647.515 1028.500 C 650.167 1017.137, 652 994.367, 651.998 972.793 C 651.997 949.480, 651.247 945.794, 646 943.326 C 644.625 942.679, 637.200 941.850, 629.500 941.482 C 599.591 940.056, 563.334 947.797, 531.833 962.335 C 523.406 966.225, 523 966.093, 523 959.467 C 523 953.354, 517.535 929.177, 512.722 914 C 506.548 894.528, 495.327 869.399, 484.149 850.010 C 470.612 826.530, 449.290 797.994, 443.872 796.105 C 439.660 794.637, 439.012 794.694, 435.500 796.844 M 1069.763 841.455 C 1067.707 842.242, 1063.972 844.299, 1061.462 846.026 C 1043.707 858.242, 1042.054 883.974, 1058.099 898.399 C 1074.862 913.470, 1100.930 907.938, 1111.169 887.136 C 1114.416 880.540, 1114.441 867.592, 1111.221 860.580 C 1107.761 853.044, 1102.817 847.714, 1095.834 843.992 C 1090.414 841.103, 1088.345 840.573, 1081.500 840.319 C 1076.298 840.126, 1072.193 840.523, 1069.763 841.455 M 800 995.004 L 800 1142.075 871.250 1141.763 C 942.280 1141.451, 942.526 1141.443, 951 1139.121 C 978.404 1131.613, 998.333 1115.467, 1009.546 1091.691 C 1014.445 1081.303, 1016.109 1074.063, 1016.714 1060.500 C 1017.504 1042.813, 1014.326 1029.580, 1005.855 1015.280 C 1001.708 1008.281, 991.237 997.486, 984.284 993.041 L 979.068 989.707 986.352 981.964 C 998.990 968.529, 1004.851 954.319, 1005.721 935 C 1006.760 911.920, 1000.015 892.547, 985.113 875.812 C 975.823 865.378, 958.577 855.257, 942.500 850.803 C 934.667 848.633, 933.099 848.580, 867.250 848.260 L 800 847.933 800 995.004 M 434.206 874.250 C 415.932 905.195, 404.195 939.946, 401.022 972.500 C 400.433 978.550, 399.716 985.365, 399.430 987.645 L 398.909 991.790 413.204 1006.145 C 421.067 1014.040, 430.113 1023.987, 433.306 1028.250 C 436.499 1032.513, 439.424 1035.990, 439.806 1035.979 C 440.188 1035.967, 441.841 1034.054, 443.480 1031.729 C 450.430 1021.868, 460.128 1011.396, 474.381 998.362 C 480.852 992.445, 480.567 994.242, 478.481 972.464 C 477.036 957.379, 472.149 933.861, 468.618 925 C 467.851 923.075, 465.981 918.125, 464.463 914 C 459.141 899.541, 441.923 866, 439.823 866 C 439.413 866, 436.885 869.712, 434.206 874.250 M 859 934.500 L 859 966 891.750 965.990 C 924.118 965.981, 924.559 965.953, 929.602 963.605 C 946.820 955.588, 952.871 933.923, 942.667 916.827 C 939.226 911.061, 932.391 905.758, 926.177 904.033 C 924.032 903.437, 909.274 903.009, 890.750 903.006 L 859 903 859 934.500 M 1262.831 926.965 C 1256.004 928.202, 1247.553 930.781, 1241.380 933.511 C 1233.819 936.855, 1221.622 945.486, 1216.936 950.810 L 1213 955.282 1213 943.641 L 1213 932 1185.500 932 L 1158 932 1158 1079 L 1158 1226 1185.500 1226 L 1213 1226 1213 1172.396 L 1213 1118.792 1221.078 1126.391 C 1227.089 1132.047, 1231.501 1135.145, 1238.328 1138.505 C 1252.577 1145.519, 1260.525 1147.230, 1279.500 1147.369 C 1294.041 1147.476, 1296.384 1147.240, 1305.192 1144.783 C 1349.617 1132.387, 1380.692 1091.788, 1382.715 1043.500 C 1384.049 1011.645, 1375.977 986.313, 1356.950 962.647 C 1344.500 947.162, 1324.390 933.992, 1305.500 928.953 C 1296.625 926.585, 1271.412 925.411, 1262.831 926.965 M 1473.500 927.099 C 1463.791 929.039, 1454.409 932.246, 1446.500 936.326 C 1435.364 942.072, 1423.663 953.691, 1418.634 964 C 1406.764 988.327, 1411.006 1016.654, 1429.010 1033.291 C 1440.069 1043.509, 1454.173 1049.875, 1486 1059.010 C 1512.453 1066.603, 1520.665 1072.272, 1519.731 1082.297 C 1518.868 1091.569, 1510.584 1096.933, 1495.830 1097.774 C 1475.547 1098.930, 1461.402 1092.091, 1453.842 1077.471 C 1452.004 1073.916, 1450.244 1071.119, 1449.932 1071.254 C 1449.619 1071.389, 1438.972 1077.350, 1426.271 1084.500 L 1403.178 1097.500 1406.771 1104.360 C 1413.130 1116.503, 1427.666 1130.255, 1441.577 1137.291 C 1469.125 1151.223, 1511.613 1151.346, 1539.500 1137.576 C 1563.745 1125.603, 1576 1106.624, 1576 1081.047 C 1576 1070.517, 1574.409 1062.770, 1570.550 1054.500 C 1566.675 1046.197, 1562.697 1041.039, 1555.672 1035.208 C 1545.367 1026.656, 1531.799 1021.129, 1494.808 1010.414 C 1474.156 1004.431, 1467.405 999.261, 1468.335 990.136 C 1468.917 984.432, 1471.479 981.064, 1477.552 978.021 C 1487.652 972.960, 1503.611 974.543, 1513.252 981.562 C 1517.331 984.532, 1522.261 990.138, 1524.908 994.815 C 1525.462 995.794, 1531.381 993.012, 1548.076 983.926 C 1560.409 977.215, 1570.884 971.379, 1571.353 970.958 C 1572.612 969.830, 1564.528 958.397, 1557.564 951.457 C 1546.863 940.793, 1532.881 932.971, 1516.398 928.425 C 1509.299 926.468, 1481.030 925.593, 1473.500 927.099 M 1053 1037 L 1053 1142 1080.500 1142 L 1108 1142 1108 1037 L 1108 932 1080.500 932 L 1053 932 1053 1037 M 1580.909 934.250 C 1581.381 935.487, 1600.724 981.193, 1623.894 1035.818 L 1666.020 1135.135 1663.120 1142.036 C 1654.496 1162.561, 1640.277 1173.028, 1618.750 1174.696 L 1611 1175.296 1611 1200.797 L 1611 1226.297 1624.750 1225.703 C 1634.989 1225.261, 1640.798 1224.467, 1647.500 1222.591 C 1677.676 1214.147, 1700.343 1192.530, 1715.974 1157.288 C 1718.606 1151.355, 1737.879 1099.475, 1758.803 1042 C 1779.728 984.525, 1797.321 936.263, 1797.899 934.750 L 1798.950 932 1769.610 932 L 1740.269 932 1717.540 1000.750 C 1705.039 1038.563, 1694.511 1069.820, 1694.145 1070.211 C 1693.608 1070.783, 1676.923 1028.391, 1642.405 938.750 L 1639.806 932 1609.928 932 L 1580.050 932 1580.909 934.250 M 1257 979.560 C 1253.425 980.331, 1247.172 982.602, 1243.105 984.607 C 1202.933 1004.412, 1202.933 1069.617, 1243.105 1089.387 C 1277.500 1106.313, 1317.238 1089.128, 1326.423 1053.356 C 1328.433 1045.525, 1328.447 1029.521, 1326.451 1021.053 C 1319.320 990.800, 1288.971 972.669, 1257 979.560 M 273.510 989.984 C 272.260 992.007, 275.890 1016.406, 279.837 1032.500 C 286.854 1061.120, 303.296 1093.182, 322.087 1114.892 C 332.183 1126.556, 345.799 1137.623, 363.500 1148.553 C 379.509 1158.438, 401.959 1165.389, 427.750 1168.447 L 433 1169.069 432.976 1162.784 C 432.930 1150.277, 426.713 1118.520, 420.684 1099.990 C 409.877 1066.778, 387.792 1039.674, 352.839 1016.728 C 334.360 1004.596, 304.193 993.201, 283.500 990.535 C 280.750 990.181, 277.515 989.689, 276.311 989.442 C 275.107 989.195, 273.847 989.439, 273.510 989.984 M 598 989.719 C 593.498 990.231, 574.840 994.663, 569 996.607 C 525.691 1011.024, 487.876 1041.131, 467.649 1077.299 L 464.095 1083.656 467.968 1097.262 C 473.690 1117.362, 476.779 1134.493, 478.695 1156.750 C 479.074 1161.150, 479.643 1163, 480.618 1163 C 481.380 1163, 485.715 1161.698, 490.252 1160.107 C 522.530 1148.787, 551.544 1125.780, 571.728 1095.500 C 586.399 1073.490, 597.398 1046.064, 601.805 1020.500 C 605.226 1000.655, 606 995.419, 606 992.135 C 606 988.763, 606.107 988.796, 598 989.719 M 859 1052.955 L 859 1087 895.822 1087 C 936.924 1087, 937.625 1086.906, 946.500 1080.202 C 950.143 1077.450, 952.450 1074.562, 955 1069.560 C 958.286 1063.114, 958.499 1062.109, 958.482 1053.098 C 958.466 1044.875, 958.093 1042.712, 955.873 1038 C 952.526 1030.896, 947.039 1025.381, 940.067 1022.111 L 934.500 1019.500 896.750 1019.205 L 859 1018.910 859 1052.955" stroke="none" fill="#82d9a5" fill-rule="evenodd"/>
</svg>