<svg xmlns="http://www.w3.org/2000/svg" width="2000" height="2000" viewBox="0 0 2000 2000" version="1.1">
	<path d="M 997.500 361.698 C 993.785 362.693, 989.888 366.200, 981.027 376.523 C 961.995 398.694, 936.644 434.834, 921.772 461 C 890.602 515.838, 869.920 574.898, 861.891 632 C 860.692 640.525, 859.584 647.655, 859.428 647.844 C 859.273 648.033, 851.575 644.941, 842.323 640.971 C 802.665 623.958, 771.638 614.734, 738 609.956 C 705.283 605.308, 661.423 605.123, 655.251 609.606 C 650.714 612.901, 648.256 619.338, 647.083 631 C 641.684 684.656, 648.039 739.509, 665.951 793.861 C 694.446 880.325, 743.526 947.143, 812 992.695 C 854.978 1021.285, 905.161 1040.421, 955.987 1047.600 C 971.241 1049.755, 1009.586 1050.532, 1027.597 1049.052 C 1102.048 1042.933, 1173.518 1010.999, 1230.392 958.439 C 1279.994 912.599, 1317.008 850.281, 1337.302 778.437 C 1344.807 751.871, 1348.339 733.161, 1351.544 703 C 1354.062 679.301, 1353.077 629.084, 1349.848 616.592 C 1348.578 611.678, 1344.496 607.535, 1339.421 606.010 C 1333.438 604.211, 1296.410 603.540, 1280.865 604.949 C 1237.390 608.889, 1188.774 622.594, 1150.767 641.626 C 1144.863 644.581, 1139.661 647, 1139.205 647 C 1138.750 647, 1137.801 642.163, 1137.096 636.250 C 1133.397 605.198, 1122.317 562.458, 1109.101 528.260 C 1092.286 484.754, 1065.990 437.677, 1037.179 399.500 C 1024.508 382.710, 1010.126 365.312, 1007.490 363.585 C 1004.631 361.712, 1000.417 360.916, 997.500 361.698 M 992.594 478.750 C 973.444 508.107, 956.967 542.808, 945.500 577.933 C 933.588 614.424, 928 645.915, 928 676.561 L 928 689.775 939.364 699.364 C 956.911 714.169, 977.146 735.857, 993.480 757.365 L 999.453 765.229 1001.976 761.889 C 1020.489 737.387, 1039.403 716.826, 1058.121 700.856 C 1065.483 694.574, 1070.282 689.726, 1070.671 688.176 C 1071.599 684.476, 1070.273 656.355, 1068.502 642.205 C 1063.513 602.343, 1050.250 560.374, 1029.678 519.356 C 1019.995 500.048, 1001.549 469.043, 999.727 469.013 C 999.302 469.006, 996.093 473.387, 992.594 478.750 M 1264.500 677.999 C 1224.836 684.022, 1186.650 697.754, 1152.500 718.276 C 1126.843 733.695, 1106.131 749.720, 1086.400 769.422 C 1067.526 788.267, 1054.562 804.818, 1041.133 827.216 L 1035.907 835.931 1039.374 846.879 C 1050.068 880.650, 1057.811 920.302, 1060.489 955 C 1060.807 959.125, 1061.327 964.687, 1061.643 967.360 L 1062.218 972.221 1066.359 971.568 C 1080.836 969.284, 1118.440 953.118, 1138.165 940.698 C 1208.118 896.652, 1259.186 820.672, 1276.421 735 C 1280.342 715.512, 1281.966 703.608, 1282.664 689.250 L 1283.308 676 1279.904 676.089 C 1278.032 676.137, 1271.100 676.997, 1264.500 677.999 M 715.003 679.750 C 715.010 685.229, 717.141 705.801, 719.069 719 C 721.557 736.035, 728.371 762.528, 735.050 781.132 C 741.418 798.871, 756.371 829.657, 766.071 845 C 810.313 914.979, 873.679 960.185, 947.500 974.431 C 957.687 976.397, 979.914 978.979, 986.750 978.991 L 992 979 992 970.607 C 992 960.938, 989.717 937.837, 987.394 924 C 980.492 882.895, 967.309 844.984, 950.187 817 C 915.917 760.992, 854.213 712.993, 788.287 691.061 C 766.316 683.752, 733.505 677.023, 719.750 677.006 C 715.233 677, 715 677.135, 715.003 679.750 M 766.438 1115.875 C 761.054 1117.274, 752.887 1122.314, 749.396 1126.393 C 743.122 1133.722, 741.500 1138.366, 741.500 1149 C 741.500 1157.148, 741.854 1159.193, 743.987 1163.369 C 747.406 1170.064, 753.370 1175.763, 760.500 1179.149 C 765.373 1181.463, 767.855 1181.999, 773.712 1181.999 C 787.655 1182.001, 798.149 1175.538, 804.213 1163.216 C 807.071 1157.409, 807.493 1155.555, 807.449 1149.018 C 807.409 1142.973, 806.844 1140.279, 804.570 1135.266 C 801.294 1128.046, 794.230 1120.874, 787.435 1117.868 C 782.506 1115.688, 771.266 1114.621, 766.438 1115.875 M 492 1271.508 L 492 1420.133 561.750 1419.736 C 627.760 1419.360, 631.988 1419.228, 640.597 1417.279 C 673.159 1409.905, 698.497 1386.749, 707.177 1356.432 C 709.054 1349.877, 709.448 1346.070, 709.444 1334.500 C 709.440 1319.787, 708.345 1313.608, 703.701 1302.113 C 698.951 1290.351, 686.241 1275.156, 676.265 1269.309 C 673.919 1267.935, 672 1266.551, 672 1266.235 C 672 1265.919, 674.847 1262.699, 678.326 1259.080 C 693.070 1243.743, 700.118 1224.037, 698.611 1202.362 C 696.839 1176.881, 685.864 1156.047, 666.744 1141.871 C 658.550 1135.795, 649.359 1130.947, 641.268 1128.434 C 625.784 1123.624, 627.115 1123.706, 557.750 1123.283 L 492 1122.883 492 1271.508 M 550 1210.500 L 550 1243.099 583.750 1242.799 C 617.298 1242.502, 617.530 1242.485, 622.458 1240.042 C 635.433 1233.610, 642.307 1219.804, 639.918 1204.973 C 638.055 1193.403, 632.071 1185.242, 622.051 1180.606 C 617.755 1178.618, 615.610 1178.483, 583.750 1178.201 L 550 1177.901 550 1210.500 M 957.894 1203.486 C 940.187 1206.856, 923.674 1215.307, 913.239 1226.340 L 908 1231.880 908 1219.940 L 908 1208 880.500 1208 L 853 1208 853 1356.516 L 853 1505.032 880.250 1504.766 L 907.500 1504.500 908 1450.223 L 908.500 1395.946 912.702 1400.412 C 922.696 1411.033, 935.385 1418.642, 948.864 1422.098 C 980.072 1430.097, 1010.432 1424.145, 1035.756 1405.063 C 1060.269 1386.592, 1076.087 1357.003, 1078.926 1324.311 C 1083.867 1267.401, 1049.828 1217.005, 998 1204.501 C 988.615 1202.237, 967.294 1201.697, 957.894 1203.486 M 1173 1203.104 C 1164.509 1204.406, 1149.927 1209.312, 1143 1213.197 C 1120.890 1225.598, 1109.757 1244.031, 1109.599 1268.500 C 1109.493 1284.865, 1113.668 1296.501, 1123.346 1306.815 C 1134.383 1318.579, 1148.323 1325.505, 1179.024 1334.481 C 1205.621 1342.257, 1213.351 1345.910, 1216.631 1352.253 C 1218.812 1356.471, 1218.555 1362.366, 1216.010 1366.483 C 1209.735 1376.638, 1183.519 1379.212, 1167.294 1371.268 C 1160.901 1368.137, 1152.640 1359.700, 1149.897 1353.501 C 1148.802 1351.025, 1147.678 1349, 1147.398 1349 C 1145.954 1349, 1101.699 1374.621, 1101.287 1375.696 C 1100.650 1377.355, 1105.876 1385.823, 1112.745 1394.264 C 1123.161 1407.063, 1139.329 1416.916, 1157.464 1421.516 C 1204.950 1433.562, 1252.327 1418.556, 1268.020 1386.500 C 1272.413 1377.526, 1274.095 1369.781, 1274.102 1358.500 C 1274.117 1334.810, 1264.675 1317.894, 1245 1306.360 C 1235.111 1300.563, 1225.682 1297.006, 1202.605 1290.368 C 1192.097 1287.345, 1180.900 1283.709, 1177.723 1282.287 C 1171.558 1279.529, 1166.438 1274.593, 1165.383 1270.391 C 1164.453 1266.683, 1166.584 1260.570, 1169.999 1257.155 C 1177.984 1249.170, 1197.759 1248.857, 1210.006 1256.522 C 1213.887 1258.952, 1220.167 1265.540, 1222.053 1269.162 C 1222.723 1270.448, 1223.401 1271.653, 1223.559 1271.840 C 1223.824 1272.153, 1262.551 1251.558, 1267.787 1248.320 L 1270.075 1246.905 1267.787 1242.782 C 1264.316 1236.525, 1250.649 1222.585, 1243 1217.500 C 1228.286 1207.718, 1212.699 1203.085, 1192.500 1202.490 C 1185.350 1202.279, 1176.575 1202.555, 1173 1203.104 M 747 1314.016 L 747 1420.032 774.250 1419.766 L 801.500 1419.500 801.755 1313.750 L 802.009 1208 774.505 1208 L 747 1208 747 1314.016 M 1279.282 1209.250 C 1279.555 1209.938, 1298.796 1255.275, 1322.041 1310 C 1345.285 1364.725, 1364.500 1410.660, 1364.740 1412.077 C 1365.310 1415.442, 1360.335 1426.376, 1354.535 1434.503 C 1346.591 1445.636, 1334.364 1451.934, 1317.733 1453.461 L 1309.966 1454.174 1310.233 1479.337 L 1310.500 1504.500 1322.500 1504.296 C 1365.967 1503.555, 1398.194 1478.232, 1418.323 1429 C 1420.235 1424.325, 1438.911 1373.475, 1459.827 1316 C 1480.742 1258.525, 1498.161 1210.713, 1498.534 1209.750 C 1499.172 1208.107, 1497.417 1208.002, 1469.857 1208.038 L 1440.500 1208.076 1416.999 1279.082 L 1393.497 1350.088 1366.031 1279.044 L 1338.565 1208 1308.675 1208 C 1285.166 1208, 1278.892 1208.267, 1279.282 1209.250 M 952 1255.484 C 935.384 1259.227, 921.219 1270.375, 914.083 1285.325 C 909.261 1295.427, 907.996 1301.362, 908.015 1313.799 C 908.043 1332.196, 912.965 1344.955, 924.497 1356.526 C 936.208 1368.277, 948.001 1373.011, 965.497 1372.985 C 970.999 1372.977, 978.321 1372.305, 981.769 1371.492 C 1006.310 1365.706, 1022.928 1344.991, 1024.706 1317.965 C 1026.599 1289.213, 1010.116 1264.344, 984 1256.549 C 976.169 1254.212, 960.034 1253.675, 952 1255.484 M 550 1330.044 L 550 1365.088 588.750 1364.794 L 627.500 1364.500 633.587 1361.318 C 640.725 1357.586, 645.295 1352.730, 648.899 1345.046 C 651.135 1340.278, 651.497 1338.167, 651.482 1330 C 651.466 1321.882, 651.087 1319.700, 648.873 1315 C 644.138 1304.952, 635.224 1298.012, 624.566 1296.077 C 621.078 1295.444, 604.493 1295, 584.316 1295 L 550 1295 550 1330.044" stroke="none" fill="#2f353a" fill-rule="evenodd"/>
</svg>