<svg xmlns="http://www.w3.org/2000/svg" width="2000" height="2000" viewBox="0 0 2000 2000" version="1.1">
	<rect x="0" y="0" width="100%" height="100%" fill="#2f343a" />
	<path d="M 435.500 796.881 C 428.330 801.360, 410.109 825.090, 396.248 848 C 393.226 852.994, 377.445 884.110, 376.722 886.500 C 376.389 887.600, 375.068 890.975, 373.786 894 C 371.369 899.702, 364.228 921.392, 361.603 931 C 359.340 939.284, 356 956.489, 356 959.861 C 356 965.922, 355.469 966.127, 348.208 962.869 C 338.631 958.572, 322.532 952.380, 315 950.096 C 293.277 943.510, 265.812 940.172, 246.060 941.716 C 234.018 942.657, 233.594 942.770, 230.929 945.753 C 228.653 948.301, 228.065 950.122, 227.469 956.485 C 225.677 975.611, 228.693 1017.994, 232.977 1033.891 C 233.512 1035.876, 234.881 1041.325, 236.020 1046 C 241.872 1070.028, 254.167 1098.207, 267.872 1119 C 279.437 1136.544, 300.281 1159.517, 315 1170.940 C 318.575 1173.715, 321.990 1176.388, 322.589 1176.882 C 327.063 1180.565, 343.481 1190.402, 353 1195.102 C 370.877 1203.928, 386.381 1208.756, 412.500 1213.628 C 423.573 1215.693, 453.930 1215.962, 465 1214.092 C 484.052 1210.874, 509.292 1203.697, 517.672 1199.114 C 518.678 1198.565, 522.917 1196.506, 527.093 1194.540 C 558.699 1179.658, 590.424 1150.832, 612.702 1116.755 C 626.172 1096.151, 639.246 1065.363, 644.447 1042 C 645.365 1037.875, 646.566 1032.787, 647.115 1030.694 C 649.920 1020.004, 651.330 1004.074, 651.728 978.577 C 652.191 948.875, 651.668 945.538, 646.150 943.021 C 644.692 942.357, 637.640 941.567, 630.477 941.266 C 599.232 939.954, 560.005 948.427, 530.500 962.860 C 523.785 966.146, 523.217 965.851, 523.061 959 C 522.792 947.189, 513.374 912.543, 504.849 892 C 492.247 861.635, 475.826 833.593, 455.937 808.474 C 445.104 794.792, 441.823 792.932, 435.500 796.881 M 1069.763 841.465 C 1063.990 843.661, 1057.388 848.611, 1053.577 853.603 C 1043.265 867.108, 1045.258 886.854, 1058.099 898.399 C 1065.177 904.763, 1072.455 907.310, 1082.034 906.776 C 1091.289 906.260, 1097.536 903.444, 1104.313 896.735 C 1111.310 889.807, 1113.478 884.430, 1113.490 873.979 C 1113.499 866.353, 1113.154 864.755, 1110.208 858.771 C 1106.625 851.492, 1101.499 846.407, 1094.076 842.765 C 1088.387 839.974, 1075.494 839.285, 1069.763 841.465 M 800 995.004 L 800 1142.075 871.250 1141.763 C 942.280 1141.451, 942.526 1141.443, 951 1139.121 C 991.744 1127.958, 1017.050 1096.342, 1016.983 1056.685 C 1016.956 1040.866, 1013.607 1028.398, 1005.855 1015.255 C 1001.871 1008.501, 990.381 996.642, 983.835 992.529 L 979.171 989.598 986.570 981.732 C 999.320 968.179, 1006 951.056, 1006 931.928 C 1006 898.561, 989.974 872.494, 960.500 857.919 C 940.930 848.241, 944.153 848.576, 867.250 848.233 L 800 847.933 800 995.004 M 435.011 872.982 C 426.378 887.763, 418.317 904.932, 412.467 921 C 406.092 938.510, 400.034 970.897, 400.009 987.604 L 400 993.709 407.100 1000.019 C 415.220 1007.235, 431.519 1025.002, 435.688 1031.179 C 437.235 1033.471, 438.950 1035.483, 439.500 1035.650 C 440.050 1035.817, 441.828 1034.052, 443.450 1031.727 C 450.255 1021.977, 470.638 1000.259, 476.750 996.247 C 478.805 994.898, 479 993.996, 479 985.846 C 479 956.780, 470.884 925.438, 454.698 892 C 449.968 882.229, 441.431 867.385, 440.052 866.532 C 439.537 866.214, 437.268 869.116, 435.011 872.982 M 859 934.500 L 859 966 891.750 965.990 C 924.052 965.981, 924.568 965.948, 929.500 963.626 C 942.719 957.401, 949.482 943.975, 946.976 928.935 C 944.974 916.924, 938.709 908.977, 928.048 904.926 C 923.427 903.170, 920.150 903, 890.989 903 L 859 903 859 934.500 M 1262.164 927.070 C 1244.894 930.107, 1225.216 940.636, 1216.067 951.734 L 1213 955.456 1213 943.728 L 1213 932 1185.500 932 L 1158 932 1158 1079 L 1158 1226 1185.500 1226 L 1213 1226 1213 1172.396 L 1213 1118.792 1221.078 1126.391 C 1227.089 1132.047, 1231.501 1135.145, 1238.328 1138.505 C 1252.528 1145.495, 1260.514 1147.214, 1279.500 1147.369 C 1294.078 1147.488, 1296.362 1147.259, 1305.192 1144.789 C 1345.996 1133.376, 1375.561 1098.450, 1382.064 1053.976 C 1383.652 1043.118, 1382.686 1021.229, 1380.124 1010 C 1372.490 976.542, 1351.238 949.031, 1322.500 935.403 C 1308.161 928.604, 1299.987 926.769, 1282.500 926.426 C 1274.250 926.264, 1265.099 926.554, 1262.164 927.070 M 1473.500 927.161 C 1455.109 930.608, 1441.672 937.242, 1430.385 948.445 C 1418.619 960.124, 1413.304 971.605, 1412.303 987.502 C 1411.095 1006.683, 1416.581 1021.798, 1428.883 1033.183 C 1440.119 1043.580, 1455.059 1050.296, 1487.500 1059.534 C 1504.066 1064.251, 1514.648 1069.301, 1517.818 1074 C 1519.738 1076.848, 1520.093 1078.419, 1519.718 1082.435 C 1519.328 1086.619, 1518.649 1087.937, 1515.256 1091.103 C 1510.433 1095.601, 1506.148 1097.018, 1495.231 1097.720 C 1475.796 1098.972, 1461.523 1092.065, 1454 1077.768 C 1452.185 1074.321, 1450.614 1071.384, 1450.508 1071.241 C 1450.346 1071.023, 1404.232 1096.684, 1403.116 1097.614 C 1402.348 1098.255, 1410.978 1111.647, 1415.676 1117.104 C 1429.879 1133.601, 1447.545 1142.720, 1472.629 1146.500 C 1484.935 1148.355, 1495.482 1148.368, 1509 1146.545 C 1540.037 1142.358, 1562.638 1127.326, 1571.727 1104.823 C 1580.721 1082.557, 1575.662 1054.450, 1559.880 1039.001 C 1550.668 1029.983, 1535.722 1022.316, 1516.500 1016.746 C 1511.550 1015.312, 1501.724 1012.454, 1494.664 1010.395 C 1474.313 1004.459, 1467.237 998.896, 1468.358 989.713 C 1469.421 980.996, 1478.739 975, 1491.222 975 C 1505.765 975, 1517.651 981.992, 1524.908 994.815 C 1525.462 995.794, 1531.381 993.012, 1548.076 983.926 C 1560.409 977.215, 1570.884 971.379, 1571.353 970.958 C 1572.612 969.830, 1564.530 958.399, 1557.564 951.455 C 1545.443 939.372, 1529.011 930.859, 1511.162 927.416 C 1502.977 925.837, 1481.345 925.690, 1473.500 927.161 M 1053 1037 L 1053 1142 1080.500 1142 L 1108 1142 1108 1037 L 1108 932 1080.500 932 L 1053 932 1053 1037 M 1580.307 933.250 C 1580.593 933.938, 1599.986 979.639, 1623.402 1034.809 L 1665.976 1135.118 1663.383 1141.309 C 1659.415 1150.783, 1652.420 1160.618, 1646.438 1165.135 C 1639.637 1170.269, 1629.230 1173.891, 1619.012 1174.679 L 1611 1175.296 1611 1200.790 L 1611 1226.284 1624.250 1225.753 C 1665.305 1224.110, 1693.340 1204.035, 1713.983 1161.500 C 1717.659 1153.925, 1733.272 1112.441, 1756.325 1049 C 1776.411 993.725, 1794.218 944.788, 1795.897 940.250 L 1798.950 932 1769.590 932 L 1740.231 932 1717.524 1000.750 C 1705.035 1038.563, 1694.519 1069.817, 1694.155 1070.204 C 1693.790 1070.591, 1682.936 1043.591, 1670.035 1010.204 C 1657.134 976.817, 1645.049 945.563, 1643.180 940.750 L 1639.781 932 1609.783 932 C 1586.174 932, 1579.897 932.266, 1580.307 933.250 M 1257 979.560 C 1253.425 980.331, 1247.172 982.602, 1243.105 984.607 C 1202.933 1004.412, 1202.933 1069.617, 1243.105 1089.387 C 1277.677 1106.401, 1318.026 1088.675, 1326.496 1052.754 C 1328.386 1044.736, 1328.387 1029.269, 1326.498 1021.255 C 1319.321 990.818, 1289.044 972.653, 1257 979.560 M 596.500 990.098 C 579.476 992.523, 561.061 998.642, 542.379 1008.081 C 509.771 1024.556, 483.424 1049.138, 467.210 1078.215 C 464.464 1083.138, 464.171 1084.315, 465.094 1086.715 C 470.292 1100.233, 479.089 1146.379, 479.017 1159.750 C 478.996 1163.668, 479.757 1163.761, 488.246 1160.872 C 494.369 1158.788, 510.030 1151.926, 513 1150.026 C 513.825 1149.498, 516.975 1147.625, 520 1145.864 C 530.992 1139.464, 548.167 1124.801, 558.535 1112.965 C 577.972 1090.777, 594.710 1056.185, 600.909 1025.389 C 603.688 1011.583, 606.303 992.233, 605.628 990.472 C 605.010 988.862, 605.141 988.868, 596.500 990.098 M 273.521 995.750 C 276.547 1021.928, 282.882 1047.070, 290.689 1063.891 C 292.066 1066.855, 294.028 1071.130, 295.051 1073.391 C 298.598 1081.230, 304.460 1091.079, 312.675 1103 C 322.127 1116.716, 339.292 1132.902, 355.938 1143.794 C 365.891 1150.307, 383.454 1158.595, 393.331 1161.439 C 398.188 1162.838, 402.518 1164.202, 402.953 1164.471 C 404.314 1165.312, 423.766 1168, 428.493 1168 L 433 1168 433 1162.874 C 433 1150.112, 426.259 1117.021, 419.478 1096.500 C 417.827 1091.501, 411.821 1077.830, 410.033 1075 C 409.512 1074.175, 407.863 1071.475, 406.369 1069 C 396.781 1053.122, 375.339 1031.766, 356.261 1019.094 C 342.689 1010.079, 325.836 1001.886, 310 996.604 C 302.584 994.131, 282.161 990, 277.348 990 L 272.856 990 273.521 995.750 M 859 1052.989 L 859 1087.068 897.250 1086.784 C 935.433 1086.500, 935.509 1086.496, 940.423 1084.077 C 946.995 1080.843, 952.626 1075.029, 955.852 1068.148 C 958.140 1063.268, 958.498 1061.209, 958.482 1053 C 958.466 1044.877, 958.088 1042.703, 955.869 1038 C 952.573 1031.014, 947.007 1025.442, 940 1022.113 L 934.500 1019.500 896.750 1019.205 L 859 1018.910 859 1052.989" stroke="none" fill="#bfeed3" fill-rule="evenodd"/>
</svg>