<svg xmlns="http://www.w3.org/2000/svg" width="2000" height="2000" viewBox="0 0 2000 2000" version="1.1">
	<path d="M 435.741 797.577 C 431.693 799.773, 418.245 816.412, 407.106 833.009 C 381.411 871.291, 364.108 914.212, 357.536 955.973 C 356.629 961.733, 355.749 966.584, 355.580 966.754 C 355.411 966.923, 352.398 965.737, 348.886 964.119 C 345.374 962.501, 338.225 959.537, 333 957.532 C 327.775 955.527, 322.470 953.464, 321.212 952.948 C 316.336 950.945, 295.721 946.036, 285.367 944.411 C 272.859 942.448, 239.269 942.069, 234.802 943.841 C 233.319 944.429, 231.294 946.149, 230.302 947.661 C 228.677 950.141, 228.504 953.024, 228.542 976.956 C 228.577 999.508, 228.917 1005.530, 230.801 1017 C 240.214 1074.298, 263.673 1121.321, 300.648 1157.009 C 335.566 1190.712, 378.106 1210.117, 425.775 1214.088 C 458.495 1216.813, 494.404 1209.780, 524.660 1194.723 C 536.682 1188.740, 549.841 1180.728, 559.520 1173.498 C 572.942 1163.472, 594.739 1141.325, 603.316 1129 C 630.019 1090.626, 643.923 1054.720, 649.488 1009.770 C 651.033 997.291, 651.489 953.960, 650.127 949.090 C 649.756 947.765, 648.252 945.784, 646.785 944.689 C 644.339 942.862, 642.480 942.693, 624.309 942.642 C 602.948 942.582, 590.395 944.037, 573.500 948.533 C 556.869 952.959, 545.328 957.060, 531.618 963.416 C 527.283 965.425, 523.580 966.914, 523.390 966.723 C 523.199 966.532, 522.328 961.229, 521.454 954.938 C 517.155 923.987, 504.034 887.409, 485.110 853.619 C 476.064 837.468, 469.012 826.828, 457.278 811.625 C 445.238 796.026, 442.224 794.060, 435.741 797.577 M 1071.254 841.396 C 1061.618 844.552, 1054.009 851.393, 1049.685 860.788 C 1046.446 867.827, 1046.667 879.548, 1050.183 887.148 C 1059.742 907.811, 1085.705 913.176, 1102.382 897.934 C 1112.830 888.385, 1116.191 875.432, 1111.645 862.238 C 1109.294 855.417, 1101.544 846.902, 1094.586 843.498 C 1088.037 840.294, 1077.513 839.346, 1071.254 841.396 M 801 994.942 L 801 1142 866.250 1141.994 C 918.777 1141.989, 933.352 1141.701, 941 1140.513 C 980.082 1134.445, 1007.685 1109.507, 1015.103 1073.565 C 1021.608 1042.047, 1009.619 1010.756, 984.377 993.371 C 981.420 991.334, 979 989.488, 979 989.269 C 979 989.050, 980.329 987.753, 981.953 986.386 C 990.623 979.091, 1000.213 963.117, 1003.499 950.500 C 1007.210 936.252, 1006.295 918.519, 1001.061 903.239 C 997.311 892.292, 993.026 885.352, 984.180 875.896 C 972.707 863.632, 960.634 856.447, 942.902 851.329 L 933.500 848.615 867.250 848.249 L 801 847.883 801 994.942 M 435.304 870.750 C 413.882 905.540, 398.774 954.125, 399.063 987.301 L 399.125 994.500 406.155 1000.500 C 414.114 1007.293, 425.924 1019.950, 433.435 1029.735 C 436.221 1033.365, 439.009 1036.504, 439.631 1036.711 C 440.253 1036.918, 442.922 1034.030, 445.561 1030.294 C 448.200 1026.557, 457.320 1016.540, 465.827 1008.033 L 481.294 992.567 480.072 978.626 C 476.996 943.512, 469.299 917.962, 451.415 883.500 C 446.563 874.151, 440.456 864, 439.682 864 C 439.560 864, 437.590 867.038, 435.304 870.750 M 859 934.573 L 859 967.145 891.750 966.823 L 924.500 966.500 930.161 963.719 C 936.681 960.517, 942.295 954.757, 945.363 948.122 C 947.058 944.456, 947.492 941.640, 947.463 934.500 C 947.419 924.057, 945.547 918.825, 939.431 912.055 C 931.269 903.021, 926.092 902, 888.451 902 L 859 902 859 934.573 M 1264.500 927.039 C 1246.442 929.854, 1231.939 937.008, 1219.250 949.359 L 1213 955.442 1213 943.721 L 1213 932 1185.497 932 L 1157.993 932 1158.247 1078.750 L 1158.500 1225.500 1185.500 1225.500 L 1212.500 1225.500 1212.759 1171.914 L 1213.017 1118.328 1220.552 1125.646 C 1226.505 1131.428, 1230.231 1134.018, 1238.294 1137.980 C 1250.123 1143.792, 1256.653 1145.642, 1270.500 1147.102 C 1310.458 1151.316, 1348.785 1130.235, 1368.859 1093 C 1393.377 1047.524, 1384.843 988.916, 1348.662 954.297 C 1335.499 941.702, 1322.392 934.164, 1305.332 929.378 C 1295.314 926.568, 1274.993 925.404, 1264.500 927.039 M 1479 926.600 C 1460.775 929.955, 1450.175 933.736, 1439.970 940.520 C 1428.198 948.346, 1420.028 959.021, 1415.363 972.672 C 1413.093 979.314, 1412.680 982.242, 1412.633 992 C 1412.566 1006.052, 1414.807 1014.360, 1421.266 1024 C 1431.087 1038.659, 1446.579 1047.242, 1481.767 1057.518 C 1503.249 1063.791, 1510.015 1066.465, 1514.826 1070.583 C 1522.005 1076.728, 1522.206 1085.240, 1515.327 1091.728 C 1510.067 1096.689, 1503.033 1098.321, 1489.090 1097.814 C 1479.246 1097.457, 1476.639 1096.998, 1471.782 1094.767 C 1464.435 1091.392, 1456.964 1084.376, 1453.350 1077.459 C 1451.782 1074.459, 1450.211 1072.004, 1449.857 1072.002 C 1449.221 1072, 1404.904 1096.763, 1404.094 1097.573 C 1402.808 1098.859, 1411.156 1111.822, 1418.316 1119.655 C 1427.326 1129.514, 1442.172 1138.513, 1456.524 1142.815 C 1467.431 1146.084, 1486.888 1148.317, 1498.013 1147.575 C 1547.868 1144.252, 1577.963 1116.896, 1575.652 1077 C 1574.198 1051.890, 1561.841 1035.237, 1536.500 1024.238 C 1527.570 1020.362, 1524.115 1019.221, 1502.374 1012.964 C 1482.247 1007.172, 1475.756 1004.442, 1471.465 999.963 C 1468.866 997.250, 1468.500 996.144, 1468.500 990.990 C 1468.500 985.656, 1468.816 984.785, 1471.907 981.596 C 1476.365 976.997, 1482.498 975, 1492.167 975 C 1505.093 975, 1514.337 979.569, 1521.470 989.482 C 1523.653 992.517, 1525.850 995, 1526.352 995 C 1527.034 995, 1570.372 971.643, 1571.754 970.530 C 1571.894 970.417, 1569.813 967.215, 1567.131 963.413 C 1554.697 945.789, 1535.630 933.072, 1514.788 928.500 C 1507.675 926.940, 1483.985 925.682, 1479 926.600 M 1053.245 1036.750 L 1053.500 1141.500 1080.500 1141.500 L 1107.500 1141.500 1107.755 1036.750 L 1108.009 932 1080.500 932 L 1052.991 932 1053.245 1036.750 M 1580.390 932.822 C 1581.810 935.120, 1666 1134.485, 1666 1135.550 C 1666 1138.231, 1656.844 1154.896, 1652.925 1159.348 C 1644.633 1168.768, 1634.307 1173.611, 1619.989 1174.797 L 1611.500 1175.500 1611.233 1200.905 L 1610.965 1226.310 1623.764 1225.662 C 1665.728 1223.538, 1693.810 1203.180, 1714.353 1159.988 C 1718.629 1150.999, 1798 935.272, 1798 932.640 C 1798 932.288, 1785.063 932.004, 1769.250 932.009 L 1740.500 932.017 1717.534 1001.583 C 1704.902 1039.845, 1694.324 1071.300, 1694.027 1071.483 C 1693.730 1071.667, 1681.340 1040.360, 1666.494 1001.913 L 1639.500 932.009 1609.691 932.004 C 1593.296 932.002, 1580.111 932.370, 1580.390 932.822 M 1255 979.583 C 1235.060 984.843, 1219.639 1000.417, 1214.522 1020.460 C 1212.263 1029.308, 1212.517 1045.784, 1215.056 1055.020 C 1223.390 1085.344, 1254.297 1102.236, 1286.415 1094.022 C 1296.615 1091.413, 1303.014 1087.841, 1311.101 1080.242 C 1318.329 1073.449, 1323.512 1064.855, 1326.624 1054.500 C 1329.392 1045.290, 1329.155 1027.632, 1326.140 1018.500 C 1319.281 997.718, 1305.646 984.626, 1285.540 979.515 C 1278.067 977.615, 1262.324 977.650, 1255 979.583 M 273.284 998.250 C 274.023 1011.182, 278.074 1030.989, 283.153 1046.500 C 287.808 1060.715, 299.605 1085.215, 307.305 1096.661 C 323.978 1121.444, 345.716 1140.802, 371.309 1153.655 C 387.973 1162.025, 413.474 1169, 427.407 1169 L 434 1169 434 1165.744 C 434 1160.463, 431.166 1138.112, 429.467 1130 C 421.256 1090.784, 410.375 1068.359, 388.175 1044.902 C 366.178 1021.659, 334.237 1002.222, 304.740 994.130 C 298.877 992.521, 275.628 988, 273.220 988 C 272.933 988, 272.962 992.612, 273.284 998.250 M 589.906 990.463 C 544.011 999.765, 501.930 1026.560, 475.791 1063.126 C 469.640 1071.731, 462.803 1083.872, 463.486 1084.977 C 464.523 1086.655, 471.994 1115.416, 473.488 1123.485 C 475.596 1134.865, 478 1154.134, 478 1159.653 C 478 1161.979, 478.337 1164.089, 478.750 1164.341 C 479.807 1164.989, 494.080 1160.059, 503 1155.965 C 537.207 1140.266, 565.684 1112.205, 583.925 1076.221 C 590.647 1062.961, 592.253 1058.798, 599.560 1035.687 C 601.643 1029.098, 605.761 1004.054, 606.167 995.500 C 606.493 988.654, 606.445 988.496, 604 988.307 C 602.625 988.201, 596.283 989.171, 589.906 990.463 M 859 1053.501 L 859 1088.091 896.250 1087.796 L 933.500 1087.500 939.800 1084.591 C 947.592 1080.993, 954.072 1074.082, 957.041 1066.202 C 960.160 1057.926, 959.548 1044.685, 955.682 1036.783 C 952.668 1030.622, 947.405 1025.322, 940.795 1021.793 C 936.560 1019.532, 935.960 1019.496, 897.750 1019.206 L 859 1018.912 859 1053.501" stroke="none" fill="#bfeed3" fill-rule="evenodd"/>
</svg>