<svg xmlns="http://www.w3.org/2000/svg" width="2000" height="2000" viewBox="0 0 2000 2000" version="1.1">
	<rect x="0" y="0" width="100%" height="100%" fill="#ffffff" />
	<path d="M 993.475 362.852 C 990.728 364.527, 983.271 372.603, 972.447 385.625 C 965.330 394.187, 948.574 417.121, 940.676 429.109 C 907.109 480.062, 883.317 533.411, 869.594 588.500 C 864.108 610.522, 862.516 618.950, 860.859 634.750 C 859.935 643.558, 859.205 647, 858.259 647 C 857.535 647, 854.294 645.663, 851.056 644.028 C 833.479 635.155, 793.610 621.062, 770.248 615.463 C 739.392 608.067, 721.235 606, 687.137 606 C 661.294 606, 657.227 606.507, 653.245 610.226 C 649.147 614.053, 648.043 617.427, 646.542 630.714 C 641.279 677.296, 645.901 727.743, 659.951 777.063 C 684.668 863.826, 731.466 934.183, 797 983.104 C 854.813 1026.261, 928.138 1050.994, 998.278 1050.999 C 1088.458 1051.005, 1174.783 1015.140, 1238.983 950.995 C 1262.984 927.015, 1283.456 900.269, 1299.448 872 C 1303.451 864.924, 1319 833.474, 1319 832.453 C 1319 832.107, 1320.542 828.316, 1322.427 824.029 C 1330.541 805.576, 1341.938 767.378, 1346.904 742 C 1353.281 709.408, 1355.501 666.834, 1352.588 633 C 1350.749 611.634, 1348.935 608.003, 1338.763 605.331 C 1324.551 601.598, 1279.094 603.013, 1250.739 608.072 C 1217.740 613.959, 1177.139 627.395, 1147.647 642.187 C 1143.327 644.354, 1139.662 645.985, 1139.501 645.813 C 1139.341 645.641, 1138.230 638.975, 1137.034 631 C 1125.936 557.035, 1098.147 487.547, 1052.652 420 C 1038.364 398.786, 1012.478 366.077, 1007.585 363.053 C 1003.454 360.500, 997.472 360.415, 993.475 362.852 M 993.290 478.750 C 982.316 495.699, 968.488 521.789, 959.521 542.463 C 949.221 566.210, 938.503 600.326, 934.063 623.500 C 930.385 642.693, 927.051 680.404, 928.464 686.835 C 928.941 689.010, 931.983 692.228, 939.808 698.836 C 957.661 713.913, 977.995 735.576, 992.669 755.153 L 999.414 764.151 1001.452 761.354 C 1016.108 741.235, 1041.775 713.582, 1060.750 697.467 L 1070 689.612 1069.990 675.056 C 1069.956 622.543, 1051.829 559.492, 1020.956 504.500 C 1009.322 483.776, 1000.726 470, 999.429 470 C 999.169 470, 996.406 473.938, 993.290 478.750 M 716 681.885 C 716 689.283, 717.765 705.951, 720.088 720.500 C 731.057 789.182, 765.132 856.056, 812.480 901.824 C 857.259 945.107, 905.720 968.595, 966.458 976.453 C 973.036 977.304, 981.317 978, 984.861 978 L 991.306 978 990.700 963.750 C 988.438 910.571, 971.987 853.192, 948.088 815.126 C 914.189 761.131, 855.977 715.508, 792.464 693.155 C 772.107 685.991, 744.045 679.802, 721.750 677.561 L 716 676.983 716 681.885 M 1259.500 679.420 C 1217.315 686.772, 1176.921 702.647, 1142 725.595 C 1118.915 740.765, 1105.011 751.997, 1086.417 770.495 C 1067.444 789.370, 1056.155 803.721, 1042.897 825.817 L 1036.707 836.133 1040.819 849.317 C 1051.791 884.493, 1059.410 925.119, 1061.578 960 C 1061.903 965.225, 1062.327 970.025, 1062.521 970.667 C 1063.372 973.485, 1093.528 963.178, 1114 953.072 C 1171.544 924.665, 1216.896 878.088, 1247.956 815.500 C 1261.777 787.649, 1270.380 762.003, 1276.970 729 C 1279.604 715.809, 1281.978 694.885, 1281.990 684.750 L 1282 677 1277.250 677.077 C 1274.638 677.120, 1266.650 678.174, 1259.500 679.420 M 763.882 1116.332 C 748.978 1121.859, 738.709 1137.357, 740.403 1151.769 C 741.839 1163.989, 749.447 1174.648, 760.253 1179.581 C 765.492 1181.972, 767.791 1182.428, 774.500 1182.403 C 781.193 1182.378, 783.398 1181.923, 788 1179.621 C 794.922 1176.157, 801.392 1169.959, 804.829 1163.500 C 807.172 1159.099, 807.491 1157.362, 807.495 1149 C 807.500 1140.072, 807.294 1139.119, 804.070 1133.174 C 800.302 1126.223, 795.098 1121.210, 788.076 1117.765 C 782.479 1115.019, 769.496 1114.250, 763.882 1116.332 M 491 1271.443 L 491 1420 558.250 1419.980 C 639.722 1419.956, 641.936 1419.735, 662.500 1409.575 C 680.261 1400.800, 692.666 1388.982, 700.891 1373 C 707.822 1359.535, 710.073 1349.966, 710.101 1333.845 C 710.149 1307.068, 699.379 1285.538, 678.370 1270.410 L 672.241 1265.996 678.520 1259.592 C 686.125 1251.835, 691.967 1242.219, 695.584 1231.500 C 699.213 1220.747, 700.078 1202.435, 697.548 1189.927 C 693.571 1170.267, 683.393 1154.166, 667 1141.600 C 657.364 1134.214, 649.411 1130.414, 634 1125.831 C 626.622 1123.638, 625.394 1123.595, 558.750 1123.243 L 491 1122.885 491 1271.443 M 551 1210.562 L 551 1243.124 583.750 1242.812 L 616.500 1242.500 622.214 1239.694 C 632.946 1234.425, 640 1223.102, 640 1211.144 C 640 1199.999, 635.276 1189.855, 627.383 1184.050 C 620.073 1178.675, 614.934 1178, 581.290 1178 L 551 1178 551 1210.562 M 959.500 1202.705 C 952.804 1203.611, 941.068 1207.458, 934 1211.065 C 924.013 1216.162, 921.717 1217.800, 914.301 1225.120 L 908 1231.339 908 1219.670 L 908 1208 880.500 1208 L 853 1208 853 1356.500 L 853 1505 880.500 1505 L 908 1505 907.998 1450.750 L 907.995 1396.500 915.374 1403.500 C 927.552 1415.055, 938.734 1420.701, 956.106 1424.068 C 1007.438 1434.019, 1056.378 1403.757, 1073.996 1351.173 C 1083.730 1322.118, 1081.029 1287.055, 1066.934 1259.494 C 1051.738 1229.780, 1026.444 1210.114, 994.883 1203.475 C 988.365 1202.104, 967.331 1201.647, 959.500 1202.705 M 1173 1202.693 C 1153.763 1205.926, 1135.381 1215.246, 1124.458 1227.303 C 1104.486 1249.347, 1103.713 1285.893, 1122.770 1307.089 C 1132.840 1318.289, 1147.862 1325.723, 1178.466 1334.649 C 1209.008 1343.557, 1216.842 1348.157, 1217.731 1357.703 C 1218.092 1361.573, 1217.721 1363.173, 1215.810 1365.985 C 1209.417 1375.390, 1190.460 1378.509, 1172.901 1373.046 C 1162.586 1369.836, 1154.298 1362.448, 1149.927 1352.568 L 1147.896 1347.977 1143.698 1350.389 C 1141.389 1351.716, 1132.525 1356.716, 1124 1361.500 C 1115.475 1366.284, 1106.588 1371.297, 1104.251 1372.641 L 1100.002 1375.083 1102.123 1379.292 C 1110.559 1396.030, 1127.433 1411.165, 1145.374 1418.084 C 1160.563 1423.941, 1169.435 1425.398, 1190 1425.408 C 1207.042 1425.417, 1209.318 1425.200, 1218.887 1422.657 C 1237.227 1417.782, 1249.812 1410.617, 1259.971 1399.268 C 1276.140 1381.206, 1279.478 1351.745, 1267.946 1328.895 C 1261.095 1315.319, 1245.423 1303.652, 1224.503 1296.552 C 1221.755 1295.619, 1211.008 1292.408, 1200.622 1289.417 C 1172.857 1281.420, 1166.013 1277.066, 1166.004 1267.398 C 1165.996 1258.700, 1174.218 1252.368, 1186.904 1251.305 C 1199.965 1250.210, 1213.284 1256.486, 1220.045 1266.920 C 1221.856 1269.714, 1223.698 1272, 1224.139 1272 C 1225.939 1272, 1270 1247.553, 1270 1246.555 C 1270 1245.960, 1268.445 1243.164, 1266.543 1240.340 C 1253.960 1221.655, 1234.188 1208.795, 1210.500 1203.890 C 1202.045 1202.139, 1180.404 1201.448, 1173 1202.693 M 747 1314 L 747 1420 774.500 1420 L 802 1420 802 1314 L 802 1208 774.500 1208 L 747 1208 747 1314 M 1279.262 1209.735 C 1279.538 1210.706, 1298.942 1256.691, 1322.382 1311.924 C 1345.822 1367.157, 1365 1412.898, 1365 1413.572 C 1365 1416.516, 1355.680 1432.990, 1351.143 1438.066 C 1342.900 1447.288, 1329.569 1453, 1316.290 1453 L 1310 1453 1310 1479 L 1310 1505 1319.250 1504.992 C 1330.518 1504.983, 1338.816 1503.732, 1349.983 1500.357 C 1379.130 1491.549, 1400.202 1470.714, 1416.084 1435 C 1419.815 1426.611, 1497.026 1216.265, 1498.766 1209.750 C 1499.203 1208.112, 1497.342 1208, 1469.786 1208 L 1440.338 1208 1416.919 1278.555 L 1393.500 1349.110 1366.322 1278.805 L 1339.145 1208.500 1308.952 1208.235 C 1280.506 1207.986, 1278.788 1208.072, 1279.262 1209.735 M 958.500 1255.008 C 923.789 1258.897, 902.367 1290.384, 909.405 1327.170 C 914.976 1356.286, 939.198 1374.516, 969.912 1372.709 C 996.060 1371.170, 1015.860 1355.269, 1022.513 1330.465 C 1024.616 1322.627, 1024.633 1305.436, 1022.546 1297.661 C 1014.632 1268.175, 989.626 1251.521, 958.500 1255.008 M 551 1330.520 L 551 1365.130 588.750 1364.807 L 626.500 1364.483 632 1361.881 C 657.456 1349.837, 658.199 1311.575, 633.214 1299.306 L 627.500 1296.500 589.250 1296.205 L 551 1295.911 551 1330.520" stroke="none" fill="#2f353a" fill-rule="evenodd"/>
</svg>