<svg xmlns="http://www.w3.org/2000/svg" width="2000" height="2000" viewBox="0 0 2000 2000" version="1.1">
	<path d="M 1010.500 362.909 C 1004.735 365.598, 998.391 372.482, 978.164 398 C 971.549 406.345, 949.734 439.048, 944.567 448.365 C 942.695 451.739, 939.755 456.975, 938.033 460 C 927.256 478.930, 909.060 518.777, 901.501 540 C 894.700 559.095, 884.534 596.028, 882.095 610.500 C 881.539 613.800, 880.571 619.200, 879.945 622.500 C 879.318 625.800, 878.512 631.645, 878.153 635.490 C 877.632 641.068, 877.143 642.547, 875.731 642.817 C 874.758 643.002, 870.033 641.266, 865.231 638.960 C 852.298 632.747, 822.194 621.247, 808.500 617.288 C 770.048 606.171, 751.589 603.608, 710.460 603.674 C 683.468 603.717, 681.095 603.864, 676.811 605.759 C 669.553 608.970, 667.421 613.636, 666.421 628.500 C 665.376 644.040, 665.286 679.115, 666.264 690 C 670.056 732.220, 677.082 766.689, 689.373 803.376 C 715.816 882.309, 762.884 946.619, 828.508 993.478 C 858.406 1014.827, 897.403 1033.006, 932.500 1041.955 C 966.673 1050.669, 980.820 1052.477, 1014.500 1052.434 C 1045.333 1052.395, 1059.702 1051.033, 1080.500 1046.175 C 1082.700 1045.661, 1088.029 1044.485, 1092.341 1043.561 C 1105.745 1040.690, 1131.177 1031.733, 1147.500 1024.135 C 1187.129 1005.689, 1217.278 984.669, 1248.089 954.005 C 1269.674 932.523, 1279.166 920.989, 1296.535 895.137 C 1310.595 874.211, 1322.504 851.704, 1331.530 829 C 1333.607 823.775, 1335.632 819.050, 1336.031 818.500 C 1337.397 816.614, 1348.100 782.739, 1351.001 771.119 C 1356.569 748.820, 1359.355 733.825, 1361.430 715 C 1364.400 688.056, 1365.296 670.792, 1364.518 655.500 C 1364.099 647.250, 1363.614 635.325, 1363.441 629 C 1363.035 614.209, 1362.553 611.889, 1359.238 608.797 C 1353.712 603.644, 1353.634 603.634, 1319.500 603.582 C 1293.788 603.543, 1285.240 603.880, 1276 605.294 C 1236.278 611.375, 1199.674 622.305, 1166.629 637.952 C 1160.650 640.784, 1155.039 642.961, 1154.160 642.792 C 1152.911 642.552, 1152.303 640.189, 1151.377 631.992 C 1148.080 602.786, 1136.954 559.383, 1125.233 530 C 1118.845 513.988, 1106.580 486.215, 1103.152 480 C 1102.696 479.175, 1099.697 473.550, 1096.485 467.500 C 1082.717 441.561, 1066.157 415.404, 1051.026 395.696 C 1046.887 390.305, 1041.585 383.389, 1039.244 380.328 C 1030.637 369.074, 1027.091 365.400, 1022.735 363.225 C 1017.352 360.536, 1015.682 360.493, 1010.500 362.909 M 1009.268 482.750 C 987.439 517.106, 967.617 563.991, 958.457 602.931 C 957.608 606.544, 956.487 611.300, 955.967 613.500 C 952.067 630.006, 948.003 662.504, 948.001 677.195 L 948 688.890 953.750 693.539 C 968.237 705.251, 994.111 732.694, 1006.263 749.237 C 1010.611 755.156, 1014.584 760, 1015.090 760 C 1015.596 760, 1017.921 757.473, 1020.255 754.383 C 1036.194 733.294, 1054.730 712.798, 1068.327 701.230 C 1073.324 696.979, 1078.737 692.229, 1080.357 690.676 L 1083.301 687.853 1082.635 673.676 C 1080.946 637.740, 1074.414 603.590, 1062.708 569.500 C 1056.396 551.119, 1053.582 544.475, 1042.378 521.500 C 1028.855 493.769, 1018.009 475, 1015.507 475 C 1014.784 475, 1011.977 478.488, 1009.268 482.750 M 739.621 680.545 C 738.965 682.256, 740.320 700.525, 741.928 711.638 C 747.455 749.837, 758.449 785.660, 775.030 819.500 C 793.294 856.775, 811.292 881.899, 837.690 906.971 C 860.087 928.243, 883.477 943.719, 916.039 958.811 C 923.389 962.218, 944.665 968.997, 959 972.500 C 979.913 977.611, 1004.417 979.684, 1005.659 976.447 C 1005.986 975.593, 1005.722 968.506, 1005.071 960.697 C 1002.101 925.061, 994.970 891.934, 981.778 852.500 C 976.503 836.731, 963.172 812.740, 949.946 795.214 C 906.929 738.212, 834.944 694.357, 765 682.542 C 759.775 681.659, 753.062 680.501, 750.083 679.969 C 742.578 678.627, 740.309 678.752, 739.621 680.545 M 1274.500 680.177 C 1220.844 690.319, 1179.302 708.039, 1138 738.404 C 1105.866 762.028, 1075.631 796.278, 1058.605 828.343 L 1053.909 837.187 1055.960 843.114 C 1057.910 848.747, 1066.459 880.559, 1068.023 888 C 1068.428 889.925, 1069.472 894.875, 1070.344 899 C 1073.224 912.636, 1076 933.889, 1078.549 961.823 C 1079.002 966.786, 1079.680 969.324, 1080.653 969.697 C 1082.469 970.394, 1101.822 963.999, 1113 959.009 C 1131.103 950.927, 1133.837 949.551, 1144.500 943.161 C 1165.058 930.842, 1179.032 919.916, 1196.916 902.179 C 1215.476 883.771, 1226.881 869.330, 1241.892 845.225 C 1246.621 837.631, 1261 810.077, 1261 808.608 C 1261 808.262, 1261.952 805.846, 1263.116 803.239 C 1267.270 793.938, 1267.872 792.307, 1272.980 776.500 C 1279.070 757.656, 1280.664 752.381, 1281.290 749 C 1281.545 747.625, 1282.444 743.125, 1283.290 739 C 1284.135 734.875, 1285.576 726.325, 1286.491 720 C 1287.407 713.675, 1288.576 706.250, 1289.088 703.500 C 1289.600 700.750, 1290.128 694.225, 1290.260 689 L 1290.500 679.500 1285 679.366 C 1281.975 679.293, 1277.250 679.658, 1274.500 680.177 M 785.326 1141.003 C 772.842 1143.595, 762.871 1153.535, 759.481 1166.767 C 755.809 1181.100, 763.615 1197.225, 777.526 1204.042 C 781.270 1205.877, 784.563 1206.570, 790.842 1206.846 C 798.774 1207.195, 799.548 1207.033, 806.555 1203.570 C 825.253 1194.329, 831.107 1173.309, 819.863 1155.786 C 812.596 1144.462, 798.247 1138.320, 785.326 1141.003 M 510 1296.500 L 510 1445 573.250 1444.983 C 652.219 1444.961, 658.728 1444.370, 677.678 1435.494 C 688.731 1430.317, 694.583 1426.420, 702.367 1419.053 C 713.135 1408.862, 720.065 1397.430, 724.641 1382.307 C 726.914 1374.793, 727.315 1371.591, 727.371 1360.500 C 727.463 1342.222, 724.299 1329.844, 716.253 1317 C 711.962 1310.152, 701.046 1298.908, 694.750 1294.852 C 692.138 1293.169, 690 1291.566, 690 1291.290 C 690 1291.014, 693.090 1287.479, 696.867 1283.435 C 704.809 1274.931, 710.833 1264.135, 714.161 1252.443 C 717.067 1242.232, 717.253 1225.337, 714.590 1213.500 C 706.643 1178.171, 678.183 1153.972, 638.769 1149.030 C 633.946 1148.426, 605.656 1148, 570.276 1148 L 510 1148 510 1296.500 M 568 1235.500 L 568 1268.099 601.750 1267.799 L 635.500 1267.500 640.500 1264.850 C 646.837 1261.491, 652.331 1255.990, 655.233 1250.100 C 657.131 1246.249, 657.500 1243.872, 657.500 1235.500 C 657.500 1226.580, 657.199 1224.886, 654.710 1219.818 C 651.549 1213.381, 646.704 1208.684, 640.051 1205.606 C 635.755 1203.618, 633.610 1203.483, 601.750 1203.201 L 568 1202.901 568 1235.500 M 976 1228.453 C 957.169 1231.923, 942.439 1239.459, 931.193 1251.376 C 928.275 1254.469, 925.687 1257, 925.443 1257 C 925.200 1257, 925 1251.600, 925 1245 L 925 1233 898 1233 L 871 1233 871 1381.500 L 871 1530 898 1530 L 925 1530 925.011 1474.750 L 925.022 1419.500 929.761 1424.664 C 943.591 1439.732, 960.460 1447.624, 984.145 1450.104 C 1037.162 1455.655, 1085.864 1416.076, 1095.486 1359.619 C 1097.458 1348.049, 1097.414 1329.762, 1095.385 1317.953 C 1087.878 1274.250, 1058.017 1240.615, 1017.175 1229.859 C 1007.175 1227.225, 986.498 1226.519, 976 1228.453 M 1191.500 1228.030 C 1161.267 1232.698, 1138.701 1249.497, 1130.369 1273.538 C 1127.971 1280.455, 1127.602 1283.075, 1127.554 1293.500 C 1127.488 1308.075, 1129.784 1316.631, 1136.333 1326.210 C 1146.606 1341.238, 1162.230 1349.821, 1198 1360.088 C 1229.610 1369.160, 1237.033 1374.141, 1235.761 1385.427 C 1234.709 1394.764, 1226.683 1399.821, 1211.478 1400.728 C 1190.586 1401.975, 1176.501 1395.283, 1168.842 1380.471 C 1167.004 1376.916, 1165.243 1374.119, 1164.930 1374.254 C 1164.616 1374.389, 1153.917 1380.293, 1141.154 1387.373 L 1117.947 1400.245 1121.097 1405.873 C 1135.409 1431.449, 1160.430 1446.338, 1195.371 1450.071 C 1214.972 1452.166, 1240.932 1448.159, 1255.390 1440.808 C 1279.071 1428.768, 1291.975 1408.726, 1291.968 1384 C 1291.962 1366.032, 1286.944 1352.754, 1276.079 1341.968 C 1264.564 1330.534, 1252.640 1324.905, 1220.016 1315.497 C 1189.343 1306.652, 1183.500 1302.972, 1183.500 1292.500 C 1183.500 1282.706, 1191.287 1276.829, 1205.146 1276.164 C 1220.690 1275.419, 1232.639 1281.953, 1240.562 1295.531 C 1241.532 1297.193, 1243.478 1296.343, 1263.140 1285.661 C 1274.974 1279.232, 1285.431 1273.406, 1286.377 1272.713 C 1287.952 1271.562, 1287.680 1270.859, 1283.194 1264.477 C 1270.820 1246.877, 1253.528 1235.297, 1231.559 1229.898 C 1222.224 1227.604, 1200.748 1226.602, 1191.500 1228.030 M 765 1339 L 765 1445 792 1445 L 819 1445 819 1339 L 819 1233 792 1233 L 765 1233 765 1339 M 1297 1233.501 C 1297 1233.777, 1316.350 1279.650, 1340 1335.442 C 1363.650 1391.234, 1383 1437.611, 1383 1438.501 C 1383 1442.507, 1374.708 1457.239, 1369.047 1463.291 C 1360.035 1472.925, 1350.765 1477.106, 1335.250 1478.535 L 1328 1479.203 1328 1504.756 L 1328 1530.309 1340.250 1529.662 C 1362.215 1528.504, 1382.814 1521.382, 1397.219 1509.966 C 1410.916 1499.110, 1424.030 1481.215, 1433.100 1461 C 1436.548 1453.315, 1492.247 1301.858, 1515.568 1236.750 L 1516.911 1233 1487.656 1233 L 1458.400 1233 1434.925 1304.197 L 1411.449 1375.395 1383.975 1304.213 L 1356.500 1233.032 1326.750 1233.016 C 1310.388 1233.007, 1297 1233.225, 1297 1233.501 M 970 1280.560 C 949.336 1285.014, 932.893 1301.037, 927.346 1322.124 C 925.175 1330.375, 925.198 1346.305, 927.393 1355 C 932.554 1375.445, 948.141 1391.478, 967.580 1396.337 C 977.550 1398.829, 985.783 1399.201, 995 1397.576 C 1031.445 1391.149, 1051.520 1354.201, 1038.917 1316.747 C 1029.777 1289.584, 1000.196 1274.051, 970 1280.560 M 568 1354.979 L 568 1390.088 606.750 1389.794 L 645.500 1389.500 651.900 1386.031 C 663.494 1379.746, 669.459 1369.204, 669.459 1355 C 669.459 1343.881, 667.043 1337.863, 659.589 1330.421 C 649.734 1320.583, 650.137 1320.659, 605.750 1320.233 L 568 1319.870 568 1354.979" stroke="none" fill="#82d9a5" fill-rule="evenodd"/>
</svg>