<svg xmlns="http://www.w3.org/2000/svg" width="2000" height="2000" viewBox="0 0 2000 2000" version="1.1">
	<rect x="0" y="0" width="100%" height="100%" fill="#2f343a" />
	<path d="M 1013 359.943 C 1012.175 360.397, 1010.231 361.363, 1008.680 362.091 C 1004.054 364.260, 995.261 374.011, 977.500 396.669 C 973.401 401.899, 960.986 419.654, 958.023 424.525 C 956.694 426.711, 955.318 428.725, 954.967 429 C 953.797 429.916, 947 441.023, 947 442.019 C 947 442.559, 946.550 443, 946 443 C 945.450 443, 945 443.493, 945 444.096 C 945 444.698, 944.165 446.386, 943.144 447.846 C 937.936 455.293, 914.964 501.301, 911.860 510.500 C 911.118 512.700, 910.256 514.725, 909.944 515 C 909.632 515.275, 908.122 518.650, 906.589 522.500 C 905.055 526.350, 903.395 530.281, 902.900 531.236 C 902.405 532.191, 902 533.789, 902 534.786 C 902 535.784, 901.641 537.028, 901.202 537.550 C 900.763 538.073, 899.600 540.975, 898.617 544 C 897.634 547.025, 896.470 550.400, 896.029 551.500 C 895.588 552.600, 894.674 555.525, 893.998 558 C 893.322 560.475, 892.395 563.625, 891.939 565 C 891.483 566.375, 890.368 570.425, 889.461 574 C 888.554 577.575, 887.461 581.400, 887.031 582.500 C 885.873 585.461, 882.311 601.216, 880.474 611.500 C 879.590 616.450, 878.447 622.387, 877.933 624.693 C 877.420 626.999, 877 631.331, 877 634.320 C 877 642.022, 875.953 642.438, 867 638.298 C 849.505 630.209, 839.451 626, 837.622 626 C 836.936 626, 834.604 625.165, 832.438 624.143 C 828.277 622.182, 816.542 618.114, 809 616.018 C 806.525 615.331, 803.375 614.391, 802 613.931 C 779.953 606.547, 729.585 599.894, 706.962 601.377 C 677.109 603.334, 676.437 603.429, 672.754 606.238 C 667.603 610.167, 666.325 613.951, 665.099 628.893 C 661.921 667.622, 666.755 728.385, 675.488 759.500 C 676.414 762.800, 677.558 767.300, 678.031 769.500 C 680.488 780.936, 684.953 796.313, 687.902 803.500 C 688.354 804.600, 689.263 807.300, 689.922 809.500 C 690.582 811.700, 691.823 815.300, 692.681 817.500 C 693.538 819.700, 694.591 822.400, 695.020 823.500 C 695.449 824.600, 696.746 827.633, 697.900 830.239 C 699.055 832.846, 700 835.196, 700 835.462 C 700 835.882, 702.448 841.483, 706.353 850 C 706.984 851.375, 708.962 855.131, 710.750 858.346 C 712.537 861.561, 714 864.590, 714 865.077 C 714 865.563, 715.575 868.423, 717.500 871.433 C 719.425 874.442, 721 877.376, 721 877.952 C 721 878.528, 721.450 879, 722 879 C 722.550 879, 723 879.475, 723 880.056 C 723 882.447, 749.010 920.652, 752.917 924 C 753.237 924.275, 755.285 926.750, 757.466 929.500 C 768.374 943.252, 791.183 966.067, 805.471 977.516 C 813.342 983.824, 814.015 984.371, 816.834 986.749 C 818.300 987.986, 819.769 988.998, 820.097 988.999 C 820.425 988.999, 821.775 989.949, 823.097 991.109 C 826.249 993.875, 845.991 1006.930, 853 1010.884 C 866.825 1018.683, 891.040 1029.956, 900.679 1033.081 C 904.431 1034.298, 908.985 1035.934, 910.800 1036.717 C 917.247 1039.500, 929.383 1043.025, 939.500 1045.054 C 942.800 1045.716, 947.975 1046.817, 951 1047.500 C 974.721 1052.857, 1005.642 1055.885, 1023.735 1054.623 C 1053.423 1052.551, 1067.580 1050.774, 1080.500 1047.494 C 1083.250 1046.795, 1088.200 1045.670, 1091.500 1044.993 C 1099.425 1043.366, 1113.443 1039.237, 1118.476 1037.046 C 1120.689 1036.083, 1125.632 1034.278, 1129.461 1033.034 C 1133.289 1031.791, 1140.714 1028.754, 1145.961 1026.286 C 1151.207 1023.817, 1157.075 1021.078, 1159 1020.199 C 1160.925 1019.319, 1165.800 1016.664, 1169.833 1014.300 C 1173.866 1011.935, 1177.397 1010, 1177.679 1010 C 1177.962 1010, 1181.990 1007.525, 1186.631 1004.500 C 1191.272 1001.475, 1195.308 999, 1195.601 999 C 1196.199 999, 1202.783 994.179, 1204.828 992.243 C 1205.558 991.552, 1207.133 990.468, 1208.328 989.833 C 1218.545 984.405, 1257.594 948.223, 1270.758 931.985 C 1283.200 916.639, 1287.586 910.772, 1295.790 898.500 C 1300.570 891.350, 1304.743 885.275, 1305.063 885 C 1305.384 884.725, 1305.935 883.825, 1306.287 883 C 1306.640 882.175, 1308.522 878.800, 1310.469 875.500 C 1313.954 869.594, 1326.076 845.319, 1329.445 837.500 C 1330.393 835.300, 1331.580 832.719, 1332.084 831.764 C 1332.588 830.809, 1333 829.583, 1333 829.041 C 1333 828.498, 1334.172 825.455, 1335.603 822.277 C 1339.713 813.158, 1339.790 812.955, 1342.536 804 C 1345.391 794.692, 1346.767 790.555, 1348.026 787.500 C 1348.479 786.400, 1349.064 784.375, 1349.327 783 C 1349.590 781.625, 1350.684 777.350, 1351.759 773.500 C 1353.495 767.281, 1354.975 760.733, 1356.390 753 C 1356.642 751.625, 1357.502 747.575, 1358.301 744 C 1359.814 737.236, 1361.945 723.612, 1364.167 706.500 C 1365.075 699.506, 1365.411 684.475, 1365.285 656.496 C 1365.039 602.081, 1366.130 604.188, 1337.031 601.965 C 1312.833 600.117, 1291.558 601.302, 1262.500 606.116 C 1259.200 606.663, 1254.475 607.354, 1252 607.652 C 1249.525 607.950, 1247.072 608.600, 1246.550 609.097 C 1246.028 609.594, 1244.766 610, 1243.746 610 C 1242.135 610, 1233.528 612.179, 1219.500 616.139 C 1213.326 617.882, 1200.943 622.113, 1196.500 623.998 C 1194.300 624.931, 1190.025 626.500, 1187 627.485 C 1183.975 628.470, 1179.925 630.099, 1178 631.105 C 1176.075 632.111, 1171.350 634.334, 1167.500 636.045 C 1163.650 637.756, 1159.189 639.797, 1157.588 640.582 C 1155.986 641.367, 1154.474 641.808, 1154.229 641.562 C 1153.984 641.317, 1153.159 636.027, 1152.396 629.808 C 1150.162 611.593, 1149.415 607.467, 1145.099 589.500 C 1141.682 575.276, 1141.143 573.345, 1136.308 558 C 1131.202 541.794, 1128.578 534.174, 1126.322 529 C 1125.483 527.075, 1124.438 524.600, 1124 523.500 C 1123.562 522.400, 1122.483 519.857, 1121.602 517.849 C 1120.721 515.841, 1120 513.942, 1120 513.629 C 1120 512.725, 1108.513 487.627, 1104.837 480.500 C 1099.219 469.607, 1092.537 457.235, 1091.065 455 C 1090.160 453.625, 1088.113 450.025, 1086.518 447 C 1084.923 443.975, 1081.228 437.792, 1078.309 433.259 C 1075.389 428.727, 1073 424.737, 1073 424.393 C 1073 423.521, 1065.706 413.574, 1064.767 413.167 C 1064.345 412.983, 1064 412.389, 1064 411.847 C 1064 410.809, 1058.910 403.089, 1056.733 400.825 C 1056.032 400.096, 1053.683 397.025, 1051.512 394 C 1049.342 390.975, 1047.312 388.275, 1047.002 388 C 1046.691 387.725, 1043.109 383.248, 1039.040 378.052 C 1028.106 364.088, 1027.942 363.925, 1022.221 361.363 C 1016.579 358.837, 1015.353 358.648, 1013 359.943 M 1013.200 478.200 C 1012.540 478.860, 1012 479.751, 1012 480.181 C 1012 480.610, 1010.462 483.366, 1008.581 486.306 C 1002.220 496.250, 990.136 519.236, 984.559 532 C 976.315 550.868, 976.834 549.602, 973.500 559 C 972.037 563.125, 970.454 567.400, 969.982 568.500 C 966.843 575.818, 960.272 599.736, 956.868 616.231 C 956.270 619.129, 955.365 623.525, 954.858 626 C 952.912 635.483, 950.260 659.087, 949.384 674.721 L 948.699 686.942 952.672 690.721 C 954.858 692.799, 957.823 695.412, 959.262 696.526 C 963.785 700.030, 975.133 711.232, 985.134 722.064 C 993.438 731.061, 996.978 735.131, 1003.335 743 C 1004.002 743.825, 1006.713 747.538, 1009.361 751.250 C 1012.009 754.962, 1014.555 758, 1015.020 758 C 1015.484 758, 1016.885 756.538, 1018.134 754.750 C 1019.382 752.962, 1020.653 751.275, 1020.958 751 C 1021.262 750.725, 1022.827 748.700, 1024.436 746.500 C 1026.044 744.300, 1028.742 740.892, 1030.430 738.927 C 1032.119 736.962, 1035.525 732.919, 1038 729.942 C 1044.235 722.445, 1066.442 700.276, 1072.500 695.503 C 1081.452 688.451, 1081 689.498, 1081.001 675.792 C 1081.002 664.292, 1080.528 658.588, 1077.901 638.500 C 1076.701 629.322, 1074.334 616.119, 1072.972 611 C 1072.459 609.075, 1070.717 602.100, 1069.099 595.500 C 1066.124 583.358, 1065.486 581.109, 1063.990 577.500 C 1063.220 575.645, 1059.194 564.447, 1056.798 557.500 C 1056.229 555.850, 1054.888 552.531, 1053.818 550.125 C 1052.748 547.719, 1050.966 543.444, 1049.857 540.625 C 1043.154 523.578, 1017.967 477, 1015.452 477 C 1014.874 477, 1013.860 477.540, 1013.200 478.200 M 1279 681.065 C 1268.998 682.576, 1260.548 684.076, 1257 684.972 C 1245.255 687.936, 1227.060 692.981, 1224.500 693.983 C 1223.400 694.414, 1219.350 695.988, 1215.500 697.480 C 1211.650 698.973, 1207.600 700.549, 1206.500 700.982 C 1200.118 703.495, 1179.718 713.310, 1173.151 717.027 C 1160.792 724.022, 1133.392 742.438, 1130 746.029 C 1129.725 746.321, 1125.450 749.984, 1120.500 754.171 C 1096.272 774.662, 1073.271 803.088, 1059.755 829.244 C 1055.257 837.949, 1055.135 835.180, 1060.892 855 C 1062.569 860.775, 1063.955 866.486, 1063.971 867.691 C 1063.987 868.896, 1064.400 870.129, 1064.890 870.432 C 1065.379 870.734, 1066.008 872.448, 1066.287 874.241 C 1066.567 876.033, 1067.543 880.425, 1068.458 884 C 1072.904 901.384, 1078.697 940.368, 1079.714 959.750 C 1080.228 969.547, 1079.854 969.393, 1092.779 965.109 C 1104.433 961.247, 1109.010 959.449, 1118.500 955.004 C 1122.900 952.944, 1128.300 950.442, 1130.500 949.445 C 1132.700 948.447, 1136.975 946.061, 1140 944.143 C 1143.025 942.225, 1147.988 939.238, 1151.030 937.506 C 1154.071 935.775, 1157.446 933.636, 1158.530 932.754 C 1159.613 931.872, 1165.160 927.657, 1170.856 923.387 C 1183.785 913.696, 1205.329 892.703, 1216.500 878.911 C 1226.054 867.116, 1235 854.563, 1235 852.952 C 1235 852.428, 1235.450 852, 1236 852 C 1236.550 852, 1237 851.540, 1237 850.979 C 1237 850.069, 1241.686 842.272, 1242.997 841 C 1244.361 839.677, 1260 808.489, 1260 807.092 C 1260 806.476, 1260.450 805.191, 1261 804.236 C 1262.764 801.172, 1269 785.606, 1269 784.267 C 1269 783.555, 1269.404 782.191, 1269.898 781.236 C 1270.392 780.281, 1272.467 774.100, 1274.509 767.500 C 1276.552 760.900, 1278.462 754.825, 1278.754 754 C 1279.046 753.175, 1279.623 750.475, 1280.037 748 C 1280.721 743.910, 1282.198 736.142, 1285.170 721 C 1286.917 712.102, 1288.046 702.227, 1288.630 690.750 L 1289.177 680 1286.838 680.117 C 1285.552 680.181, 1282.025 680.608, 1279 681.065 M 740.601 681.836 C 740.237 682.426, 740.170 683.941, 740.453 685.204 C 740.736 686.467, 741.433 693.125, 742.003 700 C 742.572 706.875, 743.439 714.525, 743.929 717 C 744.419 719.475, 745.344 724.200, 745.985 727.500 C 746.625 730.800, 747.528 735.075, 747.990 737 C 748.453 738.925, 750.032 745.675, 751.500 752 C 752.968 758.325, 755.291 766.650, 756.663 770.500 C 758.034 774.350, 760.493 781.550, 762.128 786.500 C 763.763 791.450, 765.721 796.850, 766.478 798.500 C 767.235 800.150, 769.918 806, 772.441 811.500 C 774.963 817, 777.399 822.175, 777.855 823 C 778.310 823.825, 780.856 828.550, 783.512 833.500 C 803.237 870.261, 829.840 901.718, 860.500 924.536 C 864.900 927.810, 868.725 930.749, 869 931.067 C 869.777 931.964, 883.992 941, 884.627 941 C 884.937 941, 886.387 941.851, 887.847 942.891 C 891.578 945.548, 912.268 955.788, 922.500 960.041 C 924.185 960.742, 939.786 965.677, 950.500 968.899 C 962.144 972.400, 989.468 977, 998.621 977 L 1004.206 977 1003.625 964.750 C 1002.800 947.362, 1000.709 930.932, 997.915 919.884 C 997.412 917.895, 997 915.227, 997 913.955 C 997 912.683, 996.564 910.260, 996.032 908.571 C 995.499 906.882, 993.908 900.550, 992.497 894.500 C 989.540 881.824, 988.096 876.322, 986.984 873.500 C 986.551 872.400, 984.103 865.049, 981.545 857.165 C 978.848 848.855, 974.350 837.927, 970.843 831.165 C 967.516 824.749, 964.277 818.491, 963.647 817.258 C 963.016 816.025, 962.163 815.012, 961.750 815.008 C 961.337 815.004, 961 814.480, 961 813.844 C 961 813.209, 959.875 811.214, 958.500 809.411 C 957.125 807.608, 956 805.854, 956 805.512 C 956 805.171, 954.652 803.453, 953.005 801.696 C 951.357 799.938, 950.007 798.186, 950.005 797.802 C 950.002 797.418, 947.645 794.268, 944.766 790.802 C 941.887 787.336, 938.849 783.624, 938.016 782.553 C 935.044 778.735, 912.360 756.413, 906.482 751.522 C 903.192 748.785, 900.275 746.310, 900 746.022 C 898.795 744.763, 884.087 734.006, 880 731.394 C 877.525 729.813, 875.275 728.290, 875 728.009 C 874.459 727.458, 873.358 726.779, 865 721.840 C 854.858 715.847, 851.545 714.048, 843 709.894 C 819.181 698.316, 805.259 693.066, 786.500 688.587 C 780.450 687.143, 774.118 685.520, 772.429 684.980 C 770.740 684.441, 768.037 684, 766.422 684 C 764.808 684, 762.025 683.581, 760.238 683.068 C 754.705 681.481, 741.339 680.643, 740.601 681.836 M 782.500 1141.332 C 773.472 1144.305, 766.201 1150.807, 761.302 1160.287 C 759.058 1164.630, 758.599 1166.836, 758.554 1173.500 C 758.509 1180.145, 758.951 1182.461, 761.160 1187.175 C 771.711 1209.682, 799.936 1214.605, 816.555 1196.838 C 823.471 1189.444, 825.503 1184.229, 825.453 1174 C 825.418 1166.685, 825.010 1164.695, 822.530 1159.722 C 819.109 1152.862, 811.764 1145.670, 805.217 1142.767 C 799.414 1140.194, 788.120 1139.480, 782.500 1141.332 M 509 1296.492 L 509 1445.087 580.250 1444.733 C 658.729 1444.342, 657.889 1444.404, 673.664 1437.858 C 698.843 1427.410, 715.903 1409.588, 723.965 1385.311 C 726.680 1377.138, 727.309 1373.496, 727.735 1363.500 C 728.709 1340.637, 722.904 1322.884, 709.300 1307.113 C 705.593 1302.817, 695.675 1294.597, 691.126 1292.051 C 689.772 1291.293, 690.432 1290.205, 695.209 1285.323 C 702.508 1277.864, 704.029 1275.850, 708.310 1267.976 C 719.542 1247.315, 719.846 1218.748, 709.072 1196.295 C 698.091 1173.408, 679.295 1158.615, 651.175 1150.727 C 643.727 1148.638, 641.507 1148.564, 576.250 1148.235 L 509 1147.896 509 1296.492 M 568 1235.561 L 568 1268.122 601.250 1267.811 L 634.500 1267.500 640.161 1264.719 C 650.605 1259.590, 656.909 1250.004, 657.772 1237.941 C 658.604 1226.311, 653.883 1215.301, 645.383 1209.050 C 638.052 1203.659, 632.976 1203, 598.790 1203 L 568 1203 568 1235.561 M 975.500 1228.106 C 957.165 1231.762, 940.533 1240.484, 930.271 1251.826 L 926.041 1256.500 926.021 1244.750 L 926 1233 897.997 1233 L 869.993 1233 870.247 1381.250 L 870.500 1529.500 898.250 1529.766 L 926 1530.032 926 1475.758 L 926 1421.485 933.324 1428.492 C 945.287 1439.938, 956.694 1445.693, 974.106 1449.068 C 1025.135 1458.960, 1074.898 1428.132, 1091.901 1376.094 C 1099.418 1353.089, 1099.229 1323.871, 1091.412 1300.484 C 1079.878 1265.974, 1053.968 1240.370, 1020.500 1230.412 C 1012.763 1228.110, 1009.325 1227.690, 996 1227.422 C 987.475 1227.250, 978.250 1227.558, 975.500 1228.106 M 1191 1227.693 C 1189.625 1227.924, 1185.208 1228.994, 1181.184 1230.071 C 1154.785 1237.139, 1137.352 1251.997, 1129.790 1273.875 C 1127.807 1279.611, 1127.510 1282.379, 1127.577 1294.500 C 1127.641 1306.277, 1127.999 1309.440, 1129.831 1314.419 C 1132.869 1322.677, 1137.181 1329.026, 1144.101 1335.433 C 1155.191 1345.701, 1168.074 1351.654, 1198.500 1360.572 C 1225.454 1368.473, 1233.685 1372.911, 1235.610 1380.584 C 1236.490 1384.090, 1235.268 1389.389, 1232.879 1392.426 C 1225.663 1401.600, 1200.468 1403.698, 1185.504 1396.371 C 1178.895 1393.135, 1170.668 1384.765, 1167.864 1378.425 C 1166.379 1375.069, 1165.420 1374.009, 1164.268 1374.450 C 1161.904 1375.358, 1119.637 1399.036, 1118.600 1400.034 C 1116.884 1401.686, 1128.133 1417.835, 1136.577 1425.841 C 1150.444 1438.990, 1166.524 1446.267, 1189 1449.567 C 1217.184 1453.704, 1245.014 1448.494, 1264.701 1435.395 C 1284.763 1422.046, 1294.903 1400.251, 1292.101 1376.498 C 1290.272 1360.987, 1285.651 1350.904, 1275.938 1341.232 C 1264.633 1329.973, 1250.195 1323.463, 1214.500 1313.529 C 1193.436 1307.667, 1185.990 1303.391, 1184.004 1296.016 C 1180.200 1281.888, 1199.435 1271.834, 1218.760 1277.848 C 1227.069 1280.434, 1233.529 1285.205, 1237.917 1291.992 L 1241.643 1297.758 1264.813 1285.129 C 1277.556 1278.183, 1287.987 1272.138, 1287.991 1271.695 C 1288.013 1269.667, 1279.158 1258.211, 1272.520 1251.680 C 1255.712 1235.142, 1233.513 1226.894, 1206.500 1227.149 C 1199.350 1227.217, 1192.375 1227.461, 1191 1227.693 M 765 1339 L 765 1445 792.500 1445 L 820 1445 820 1339 L 820 1233 792.500 1233 L 765 1233 765 1339 M 1298.422 1238.250 C 1299.693 1241.138, 1319.295 1287.301, 1341.981 1340.835 L 1383.228 1438.169 1380.438 1444.735 C 1376.892 1453.077, 1371.089 1461.784, 1366.023 1466.360 C 1358.180 1473.446, 1345.765 1478, 1334.290 1478 L 1328 1478 1328 1504.144 L 1328 1530.287 1340.750 1529.724 C 1382.893 1527.861, 1411.023 1507.526, 1431.959 1463.787 C 1435.552 1456.280, 1453.238 1409.162, 1477.420 1342.671 C 1499.189 1282.815, 1517 1233.652, 1517 1233.421 C 1517 1233.189, 1503.747 1233, 1487.548 1233 L 1458.096 1233 1434.846 1303.515 C 1422.059 1342.299, 1411.293 1373.461, 1410.923 1372.765 C 1410.552 1372.069, 1398.203 1340.338, 1383.480 1302.250 L 1356.712 1233 1326.411 1233 L 1296.110 1233 1298.422 1238.250 M 974.992 1279.927 C 953.619 1282.868, 936.430 1296.856, 929.290 1317.119 C 925.800 1327.025, 925.014 1342.472, 927.445 1353.397 C 931.181 1370.191, 941.701 1384.304, 955.757 1391.379 C 966.342 1396.707, 974.320 1398.319, 987 1397.690 C 1003.526 1396.871, 1015.531 1391.769, 1026 1381.115 C 1033.397 1373.587, 1038.096 1364.982, 1040.569 1354.435 C 1042.785 1344.984, 1042.085 1327.079, 1039.143 1317.928 C 1033.574 1300.610, 1018.874 1286.627, 1001 1281.647 C 994.098 1279.724, 982.192 1278.936, 974.992 1279.927 M 568 1355.520 L 568 1390.128 606.250 1389.794 C 643.080 1389.472, 644.675 1389.379, 649.220 1387.278 C 659.618 1382.473, 667.066 1372.638, 668.845 1361.362 C 671.402 1345.161, 663.876 1329.997, 650.122 1323.637 C 645.692 1321.589, 643.891 1321.488, 606.750 1321.206 L 568 1320.912 568 1355.520" stroke="none" fill="#82d9a5" fill-rule="evenodd"/>
</svg>