<svg xmlns="http://www.w3.org/2000/svg" width="2000" height="2000" viewBox="0 0 2000 2000" version="1.1">
	<path d="M 287.599 850.514 C 240.042 858.249, 200.904 886.399, 180.071 927.854 C 162.316 963.184, 159.486 1003.306, 172.066 1041.320 C 180.559 1066.982, 194.294 1087.567, 214 1104.166 C 240.770 1126.715, 270.635 1138.109, 307.124 1139.695 C 376.884 1142.726, 432.164 1104.610, 447.359 1043 C 450.892 1028.677, 452 1018.359, 452 999.776 L 452 984 382 984 L 312 984 312 1008.500 L 312 1033 354 1033 C 389.310 1033, 396 1033.223, 396 1034.398 C 396 1035.167, 393.904 1039.984, 391.342 1045.101 C 385.633 1056.507, 374.275 1068.606, 363.871 1074.367 C 334.904 1090.405, 292.300 1089.781, 262.278 1072.879 C 252.255 1067.236, 237.879 1053.191, 232.149 1043.443 C 221.081 1024.612, 216.644 999.713, 220.468 977.881 C 226.749 942.014, 249.512 916.336, 284.231 905.953 C 295.278 902.649, 319.200 902.093, 331.672 904.850 C 353.543 909.684, 370.798 920.537, 384 937.762 L 386.500 941.023 408.500 928.395 C 420.600 921.450, 431.082 915.221, 431.794 914.554 C 432.840 913.573, 432.183 912.108, 428.372 906.920 C 407.315 878.257, 378.146 859.707, 341.782 851.852 C 329.330 849.162, 300.314 848.446, 287.599 850.514 M 1709 850.958 C 1698.087 853.374, 1692.172 855.407, 1683.500 859.720 C 1661.714 870.555, 1646.418 889.532, 1640.922 912.540 C 1637.903 925.183, 1638.538 944.800, 1642.345 956.500 C 1647.494 972.322, 1657.227 984.599, 1672.557 994.612 C 1685.837 1003.286, 1700.922 1009.388, 1727.813 1016.964 C 1768.852 1028.526, 1783.084 1038.620, 1783.186 1056.236 C 1783.302 1076.327, 1764.864 1087.413, 1734.191 1085.694 C 1707.488 1084.198, 1689.566 1073.508, 1678.966 1052.755 C 1676.510 1047.945, 1674.136 1044.007, 1673.691 1044.005 C 1673.041 1044.001, 1644.923 1060.240, 1636.418 1065.531 C 1634.350 1066.817, 1634.339 1066.758, 1634.792 1056.577 C 1635.712 1035.885, 1629.128 1017.458, 1615.803 1003.430 C 1611.892 999.312, 1606.511 994.530, 1603.846 992.803 C 1601.181 991.076, 1599.001 989.401, 1599.001 989.082 C 1599.002 988.762, 1601.303 986.250, 1604.114 983.500 C 1617.904 970.009, 1624.398 953.699, 1624.223 933 C 1623.893 894.236, 1600.124 866.276, 1559.006 856.286 C 1553.543 854.959, 1542.597 854.638, 1490.750 854.285 L 1429 853.864 1429 994.432 L 1429 1135 1486.250 1134.991 C 1517.737 1134.987, 1548.450 1134.544, 1554.500 1134.008 C 1579.915 1131.757, 1599.661 1122.855, 1614.290 1107.053 C 1620.073 1100.807, 1627.041 1090.051, 1629.063 1084.250 C 1630.348 1080.561, 1631.578 1080.095, 1632.485 1082.951 C 1633.845 1087.237, 1643.682 1100.913, 1650.391 1107.845 C 1672.034 1130.207, 1704.247 1141.211, 1743.500 1139.649 C 1793.346 1137.667, 1827.062 1114.364, 1836.692 1075.241 C 1838.988 1065.915, 1838.987 1044.769, 1836.691 1036 C 1832.218 1018.912, 1821.896 1004.715, 1806.493 994.466 C 1792.584 985.212, 1776.845 978.796, 1738 966.547 C 1712.947 958.647, 1700.989 951.467, 1696.374 941.556 C 1690.949 929.906, 1694.793 916.582, 1705.722 909.155 C 1718.550 900.439, 1745.300 900.919, 1760.626 910.142 C 1767.707 914.402, 1775.879 923.170, 1780.543 931.510 C 1782.539 935.080, 1784.422 938, 1784.727 938 C 1785.032 938, 1795.573 932.082, 1808.151 924.848 L 1831.020 911.697 1827.868 906.098 C 1821.817 895.348, 1816.601 888.437, 1808.082 879.880 C 1794.451 866.190, 1778.822 857.201, 1760.119 852.295 C 1746.793 848.800, 1721.712 848.144, 1709 850.958 M 466.462 855.250 C 466.200 855.938, 466.102 919.050, 466.243 995.500 L 466.500 1134.500 493.750 1134.766 L 521 1135.032 521 994.516 L 521 854 493.969 854 C 473.264 854, 466.826 854.293, 466.462 855.250 M 548.485 855.188 C 548.211 855.910, 548.102 919.050, 548.243 995.500 L 548.500 1134.500 575.740 1134.766 L 602.981 1135.032 603.240 1086.266 L 603.500 1037.500 624.500 1037.262 L 645.500 1037.023 673.658 1085.762 L 701.817 1134.500 752.658 1134.500 L 803.500 1134.500 811.997 1109.250 L 820.494 1084 876.164 1084 L 931.833 1084 940.250 1109.250 L 948.666 1134.500 978.333 1134.765 C 1006.134 1135.013, 1007.997 1134.919, 1007.944 1133.265 C 1007.914 1132.294, 985.937 1069.175, 959.106 993 L 910.323 854.500 876.261 854.237 L 842.199 853.974 839.236 862.237 C 837.606 866.782, 817.007 925.523, 793.459 992.772 C 769.911 1060.022, 750.300 1114.697, 749.879 1114.272 C 748.723 1113.107, 700 1029.996, 700.002 1029.195 C 700.004 1028.813, 702.590 1027.150, 705.749 1025.500 C 726.058 1014.895, 743.172 993.636, 750.123 970.380 C 753.258 959.892, 753.757 941.206, 751.227 928.990 C 743.604 892.178, 717.354 865.758, 679 856.295 C 673.492 854.936, 663.071 854.629, 610.742 854.284 C 560.414 853.952, 548.892 854.119, 548.485 855.188 M 1011 994.489 L 1011 1135.009 1116.250 1134.755 L 1221.500 1134.500 1230 1109.242 L 1238.499 1083.984 1294.416 1084.242 L 1350.334 1084.500 1358.750 1109.750 L 1367.167 1135 1396.524 1135 C 1412.671 1135, 1426.075 1134.662, 1426.312 1134.250 C 1426.673 1133.619, 1331.937 862.900, 1329.027 856.250 L 1328.043 854 1294.644 854 C 1269.104 854, 1261.019 854.294, 1260.284 855.250 C 1259.756 855.938, 1240.013 911.704, 1216.412 979.176 L 1173.500 1101.852 1173.215 1091.926 L 1172.930 1082 1119.469 1082 L 1066.009 1082 1065.754 968.250 L 1065.500 854.500 1038.250 854.234 L 1011 853.968 1011 994.489 M 603.239 947.189 L 603.500 988.500 636.024 988.500 L 668.548 988.500 675.129 985.259 C 683.333 981.218, 690.072 974.181, 694.315 965.223 C 697.294 958.934, 697.500 957.790, 697.500 947.500 C 697.500 937.133, 697.310 936.097, 694.197 929.500 C 690.170 920.963, 683.499 913.888, 675.500 909.666 L 669.500 906.500 636.239 906.189 L 602.978 905.877 603.239 947.189 M 1484 937.086 L 1484 968.171 1515.250 967.836 L 1546.500 967.500 1552.214 964.694 C 1564.062 958.876, 1569.574 948.880, 1568.792 934.633 C 1568.072 921.519, 1561.731 912.288, 1550.577 908.115 C 1545.277 906.132, 1543.028 906, 1514.462 906 L 1484 906 1484 937.086 M 875.520 920.107 C 875.230 920.873, 866.705 946.362, 856.576 976.750 L 838.160 1032 876.080 1032 C 896.936 1032, 914 1031.646, 914 1031.214 C 914 1030.068, 877.110 919.777, 876.534 919.201 C 876.266 918.933, 875.810 919.341, 875.520 920.107 M 1279.960 961.687 C 1272.124 985.234, 1263.542 1010.688, 1260.889 1018.250 L 1256.065 1032 1294.462 1032 L 1332.859 1032 1313.884 975.788 C 1303.448 944.871, 1294.751 919.418, 1294.558 919.225 C 1294.366 919.032, 1287.797 938.141, 1279.960 961.687 M 1484 1050.010 L 1484 1083.114 1520.250 1082.807 L 1556.500 1082.500 1562.214 1079.694 C 1569.278 1076.225, 1575.245 1069.619, 1578.064 1062.147 C 1580.839 1054.791, 1580.417 1042.986, 1577.108 1035.401 C 1574.355 1029.090, 1568.089 1022.826, 1561.500 1019.798 C 1556.620 1017.555, 1555.632 1017.493, 1520.250 1017.203 L 1484 1016.907 1484 1050.010" stroke="none" fill="#000000" fill-rule="evenodd"/>
</svg>