<svg xmlns="http://www.w3.org/2000/svg" width="2000" height="2000" viewBox="0 0 2000 2000" version="1.1">
	<rect x="0" y="0" width="100%" height="100%" fill="#f0efea" />
	<path d="M 297.948 848.982 C 277.780 850.922, 263.193 854.944, 245.247 863.512 C 230.874 870.374, 220.964 877.231, 209.208 888.450 C 185.885 910.706, 171.361 938.148, 165.831 970.410 C 162.155 991.853, 164.430 1020.515, 171.476 1041.536 C 185.956 1084.728, 219.897 1118.287, 263.435 1132.455 C 281.348 1138.285, 289.635 1139.422, 314.500 1139.462 C 335.010 1139.496, 338.624 1139.248, 347.881 1137.176 C 394.944 1126.638, 428.314 1098.543, 443.867 1056.361 C 449.778 1040.330, 452.867 1018.902, 452.965 993.250 L 453 984 382 984 L 311 984 311 1008.500 L 311 1033 353.567 1033 L 396.135 1033 395.450 1035.250 C 393.980 1040.077, 387.627 1051.761, 383.683 1056.891 C 358.522 1089.622, 296.133 1095.575, 256.974 1068.982 C 245.161 1060.960, 237.597 1052.613, 230.589 1039.864 C 223.123 1026.281, 219.968 1012.639, 219.905 993.668 C 219.869 982.682, 220.288 978.845, 222.434 970.509 C 228.360 947.499, 240.778 929.866, 259.660 917.651 C 268.691 911.809, 275.808 908.703, 286.699 905.849 C 299.155 902.585, 321.463 902.562, 334.377 905.798 C 355.030 910.974, 373.750 923.356, 383.441 938.250 C 384.425 939.763, 385.692 941, 386.256 941 C 388.159 941, 433 914.719, 433 913.604 C 433 911.284, 419.735 894.967, 411.554 887.223 C 382.652 859.865, 338.683 845.065, 297.948 848.982 M 1715.500 849.407 C 1691.054 853.508, 1673.386 862.281, 1659.346 877.289 C 1637.179 900.986, 1631.802 937.192, 1646.090 966.542 C 1656.991 988.936, 1680.090 1003.732, 1723.380 1016.052 C 1759.066 1026.208, 1773.610 1033.377, 1779.763 1043.845 C 1782.130 1047.870, 1782.500 1049.583, 1782.500 1056.500 C 1782.500 1063.472, 1782.138 1065.116, 1779.683 1069.292 C 1772.520 1081.479, 1755.070 1087.156, 1731.210 1085.062 C 1713.734 1083.528, 1701.790 1078.628, 1691.245 1068.665 C 1685.717 1063.442, 1679.112 1053.820, 1676.396 1047.032 C 1675.509 1044.814, 1674.598 1043, 1674.371 1043 C 1674.145 1043, 1665.232 1048.130, 1654.564 1054.399 L 1635.170 1065.798 1635.173 1054.649 C 1635.179 1036.218, 1630.650 1021.709, 1620.721 1008.349 C 1616.175 1002.232, 1605.744 992.752, 1601.364 990.756 C 1599.134 989.740, 1599.264 989.506, 1606.092 982.194 C 1619.365 967.981, 1625.873 949.537, 1624.677 929.518 C 1622.525 893.500, 1599.619 866.545, 1562.893 856.814 C 1554.719 854.648, 1552.866 854.581, 1491.750 854.253 L 1429 853.916 1429 994.521 L 1429 1135.127 1496.250 1134.750 L 1563.500 1134.373 1572.700 1131.719 C 1590.812 1126.495, 1601.867 1120.043, 1613.579 1107.862 C 1620.164 1101.014, 1627.929 1089.476, 1629.471 1084.250 C 1629.836 1083.013, 1630.442 1082.005, 1630.817 1082.012 C 1631.193 1082.018, 1632.967 1084.694, 1634.760 1087.958 C 1648.241 1112.504, 1673.242 1130.156, 1704.492 1137.193 C 1715.857 1139.753, 1746.101 1140.800, 1758.079 1139.049 C 1782.279 1135.510, 1800.508 1127.328, 1814.862 1113.561 C 1826.217 1102.671, 1831.768 1093.476, 1836.634 1077.500 C 1839.185 1069.122, 1839.253 1044.325, 1836.750 1035 C 1833.846 1024.179, 1827.549 1012.868, 1820.143 1005.167 C 1805.612 990.056, 1789.806 982.611, 1736 965.533 C 1714.142 958.595, 1701.636 951.087, 1697.087 942.170 C 1690.992 930.223, 1695.496 915.440, 1707.324 908.573 C 1721.092 900.579, 1745.181 901.469, 1760.667 910.545 C 1766.705 914.084, 1775.040 922.902, 1779.086 930.034 C 1780.964 933.343, 1782.950 936.702, 1783.500 937.499 C 1784.321 938.689, 1788.506 936.639, 1806.877 926.047 C 1819.185 918.951, 1829.713 912.687, 1830.273 912.127 C 1831.286 911.114, 1825.889 900.944, 1820.122 893 C 1803.961 870.738, 1782.073 856.479, 1755.632 850.988 C 1743.231 848.412, 1725.576 847.717, 1715.500 849.407 M 466 994.500 L 466 1135 494 1135 L 522 1135 522 994.500 L 522 854 494 854 L 466 854 466 994.500 M 548 994.500 L 548 1135 576 1135 L 604 1135 604 1086.500 L 604 1038 624.750 1038.007 L 645.500 1038.014 673.500 1086.480 L 701.500 1134.946 752.667 1134.973 L 803.833 1135 812.250 1109.750 L 820.666 1084.500 876.102 1084.242 L 931.539 1083.983 939.997 1109.492 L 948.456 1135 978.728 1135 C 995.378 1135, 1009 1134.733, 1009 1134.407 C 1009 1134.080, 986.855 1070.850, 959.788 993.894 L 910.576 853.975 876.041 854.237 L 841.505 854.500 796.047 984.259 C 760.916 1084.542, 750.325 1113.732, 749.425 1112.759 C 748.785 1112.067, 738 1093.950, 725.459 1072.500 C 712.918 1051.050, 702.050 1032.553, 701.309 1031.396 C 700.035 1029.407, 700.385 1029.044, 707.731 1024.736 C 743.923 1003.512, 760.883 963.344, 750.475 923.500 C 742.930 894.616, 720.066 869.814, 691.746 859.792 C 676.150 854.273, 672.168 854, 607.369 854 L 548 854 548 994.500 M 1010 994.500 L 1010 1135 1115.917 1135 L 1221.833 1135 1230.250 1109.750 L 1238.666 1084.500 1294.247 1084.242 L 1349.828 1083.983 1358.247 1109.242 L 1366.666 1134.500 1396.833 1134.765 C 1414.319 1134.918, 1427 1134.650, 1427 1134.126 C 1427 1133.455, 1350.655 915.735, 1331.310 861.237 L 1328.732 853.974 1294.230 854.237 L 1259.728 854.500 1216.614 977.556 L 1173.500 1100.612 1173.215 1090.806 L 1172.930 1081 1119.465 1081 L 1066 1081 1066 967.500 L 1066 854 1038 854 L 1010 854 1010 994.500 M 604 946.956 L 604 988.100 637.250 987.800 L 670.500 987.500 675.856 984.680 C 691.031 976.688, 699.976 958.191, 697.097 940.758 C 694.712 926.313, 687.587 916.377, 675.238 910.272 L 667.608 906.500 635.804 906.156 L 604 905.811 604 946.956 M 1485 936.413 L 1485 967 1514.962 967 C 1542.461 967, 1545.364 966.836, 1550.262 965.003 C 1556.574 962.642, 1563.012 956.638, 1566.224 950.120 C 1569.467 943.537, 1569.451 930.620, 1566.191 923.500 C 1563.196 916.959, 1557.940 911.674, 1551.607 908.832 C 1546.707 906.633, 1545.251 906.526, 1515.750 906.183 L 1485 905.826 1485 936.413 M 1276.096 974.254 C 1265.983 1004.639, 1257.501 1030.063, 1257.247 1030.750 C 1256.883 1031.736, 1264.728 1032, 1294.393 1032 C 1315.077 1032, 1332 1031.861, 1332 1031.692 C 1332 1031.522, 1323.559 1006.099, 1313.242 975.196 L 1294.484 919.007 1276.096 974.254 M 876.079 920.026 C 876.036 920.316, 867.675 945.212, 857.500 975.352 C 847.325 1005.491, 839 1030.567, 839 1031.075 C 839 1031.625, 854.205 1032, 876.500 1032 C 897.125 1032, 914 1031.810, 914 1031.578 C 914 1031.157, 877.839 923.846, 876.738 921 C 876.419 920.175, 876.122 919.737, 876.079 920.026 M 1485 1050 L 1485 1083 1515.750 1082.992 C 1556.280 1082.982, 1562.022 1081.963, 1570.584 1073.258 C 1576.785 1066.955, 1579.457 1059.951, 1579.457 1050 C 1579.457 1040.021, 1576.706 1032.773, 1570.604 1026.670 C 1561.974 1018.040, 1556.167 1017.017, 1515.750 1017.008 L 1485 1017 1485 1050" stroke="none" fill="#000000" fill-rule="evenodd"/>
</svg>