<svg xmlns="http://www.w3.org/2000/svg" width="2000" height="2000" viewBox="0 0 2000 2000" version="1.1">
	<rect x="0" y="0" width="100%" height="100%" fill="#000000" />
	<path d="M 289.890 849.016 C 262.001 851.498, 235.391 861.730, 213.042 878.566 C 184.268 900.241, 165.023 931.314, 158.089 967.292 C 151.836 999.733, 156.359 1033.831, 170.703 1062.402 C 176.154 1073.258, 178.628 1077.168, 186.662 1087.618 C 203.101 1109.003, 228.520 1126.528, 256.616 1135.848 C 279.916 1143.577, 310.231 1145.725, 335 1141.402 C 365.024 1136.162, 388.868 1124.236, 408.627 1104.576 C 435.387 1077.950, 447 1046.162, 447 999.539 L 447 985 375.500 985 L 304 985 304 1010 L 304 1035 346.956 1035 L 389.911 1035 388.472 1039.079 C 380.631 1061.303, 362.175 1077.543, 336.721 1084.616 C 324.344 1088.056, 301.009 1089.007, 287.350 1086.628 C 266.969 1083.079, 250.424 1074.673, 237 1061.046 C 219.830 1043.617, 212.053 1023.550, 211.854 996.162 C 211.751 981.937, 213.463 971.911, 217.992 960.216 C 232.591 922.518, 270.215 900.019, 311.996 904 C 325.900 905.324, 333.725 907.376, 344.967 912.643 C 359.228 919.325, 368.696 927.075, 376.863 938.750 C 378.113 940.538, 379.577 942, 380.116 942 C 380.655 942, 388.612 937.660, 397.798 932.355 C 406.984 927.050, 417.547 920.950, 421.271 918.799 L 428.042 914.887 422.771 907.262 C 395.359 867.604, 342.309 844.351, 289.890 849.016 M 1724.500 849.067 C 1683.390 854.556, 1653.731 880.015, 1646.421 916.091 C 1644.209 927.008, 1644.932 945.193, 1648.008 955.993 C 1653.876 976.601, 1668.780 992.663, 1692.500 1003.946 C 1704.343 1009.580, 1710.965 1011.953, 1737.261 1019.986 C 1778.227 1032.501, 1789.438 1040.135, 1790.744 1056.403 C 1791.433 1064.980, 1789.227 1071.383, 1783.733 1076.757 C 1775.619 1084.695, 1764.392 1087.978, 1745.315 1087.992 C 1716.600 1088.014, 1695.636 1075.567, 1684.693 1052 C 1683.033 1048.425, 1681.590 1045.380, 1681.487 1045.233 C 1681.383 1045.086, 1672.432 1050.148, 1661.594 1056.483 C 1650.756 1062.817, 1641.801 1068, 1641.694 1068.001 C 1641.587 1068.001, 1641.654 1064.050, 1641.841 1059.221 C 1642.451 1043.539, 1638.673 1028.439, 1630.855 1015.309 C 1626.816 1008.527, 1615.674 997.065, 1609.737 993.586 L 1605.437 991.066 1612.112 984.024 C 1624.707 970.736, 1631.069 954.260, 1631.102 934.845 C 1631.142 911.194, 1623.488 893.253, 1606.499 877.170 C 1599.789 870.819, 1596.031 868.208, 1587.801 864.180 C 1567.825 854.402, 1569.847 854.622, 1496.750 854.239 L 1433 853.904 1433 995.952 L 1433 1138 1497.750 1137.965 C 1567.498 1137.928, 1569.912 1137.779, 1585.500 1132.556 C 1607.188 1125.289, 1623.683 1111.281, 1633.462 1091.827 L 1637.821 1083.154 1639.097 1086.234 C 1641.737 1092.608, 1650.087 1104.055, 1657.514 1111.482 C 1678.737 1132.705, 1707.413 1143.071, 1745.500 1143.289 C 1768.403 1143.420, 1786.954 1139.328, 1803.849 1130.418 C 1820.679 1121.542, 1831.846 1110.284, 1839.473 1094.500 C 1845.967 1081.062, 1847.471 1074.056, 1847.313 1058 C 1847.077 1034.196, 1841.781 1020.609, 1827.044 1006 C 1812.968 992.047, 1799.146 985.019, 1762 972.928 C 1719.271 959.019, 1708.314 953.180, 1703.553 941.782 C 1701.378 936.574, 1701.557 925.549, 1703.900 920.500 C 1709.521 908.385, 1726.190 901.947, 1746.220 904.154 C 1765.105 906.236, 1779.531 916.343, 1789.183 934.256 L 1792.285 940.012 1796.392 937.695 C 1798.652 936.420, 1809.386 930.264, 1820.246 924.015 L 1839.993 912.653 1836.391 906.076 C 1820.362 876.810, 1794.770 857.418, 1763.797 851.068 C 1752.467 848.745, 1733.966 847.803, 1724.500 849.067 M 460 996 L 460 1138 488.500 1138 L 517 1138 517 996 L 517 854 488.500 854 L 460 854 460 996 M 543 995.952 L 543 1138 571.500 1138 L 600 1138 600 1089 L 600 1040 620.899 1040 L 641.799 1040 670.149 1088.981 L 698.500 1137.962 750.167 1137.981 L 801.833 1138 810.250 1112.750 L 818.666 1087.500 874.747 1087.242 L 930.828 1086.983 939.247 1112.242 L 947.666 1137.500 978.333 1137.764 C 995.200 1137.910, 1009 1137.701, 1009 1137.299 C 1009 1136.898, 986.649 1072.991, 959.331 995.285 L 909.662 854 874.938 854 C 842.794 854, 840.163 854.130, 839.532 855.750 C 839.157 856.712, 818.603 915.308, 793.856 985.962 C 769.109 1056.617, 748.534 1115.010, 748.134 1115.725 C 747.676 1116.544, 738.354 1101.603, 722.953 1075.367 C 709.504 1052.455, 698.162 1033.138, 697.749 1032.441 C 697.233 1031.571, 699.257 1029.871, 704.220 1027.010 C 728.049 1013.272, 744.942 989.397, 750.092 962.180 C 751.734 953.500, 750.692 934.646, 748.009 924.500 C 740.789 897.191, 720.403 873.304, 694.913 862.284 C 690.735 860.477, 683.758 858.001, 679.408 856.782 C 671.680 854.615, 670.036 854.557, 607.250 854.235 L 543 853.905 543 995.952 M 1010.462 855.250 C 1010.200 855.938, 1010.102 919.725, 1010.243 997 L 1010.500 1137.500 1117.372 1137.500 L 1224.244 1137.500 1232.829 1112.250 L 1241.414 1087 1297.479 1087 L 1353.544 1087 1362 1112.500 L 1370.456 1138 1401.228 1138 C 1418.153 1138, 1431.985 1137.888, 1431.966 1137.750 C 1431.947 1137.612, 1409.526 1073.825, 1382.141 996 L 1332.349 854.500 1297.425 854.247 L 1262.500 853.994 1219 978.375 L 1175.500 1102.756 1175.214 1093.378 L 1174.928 1084 1120.964 1084 L 1067 1084 1067 969 L 1067 854 1038.969 854 C 1017.464 854, 1010.826 854.291, 1010.462 855.250 M 600 948.427 L 600 990 629.790 990 C 663.273 990, 667.534 989.407, 676.410 983.516 C 685.530 977.463, 691.113 968.771, 693.627 956.714 C 697.477 938.247, 687.972 918.530, 671.265 910.330 L 665.500 907.500 632.750 907.177 L 600 906.855 600 948.427 M 1490 937.990 L 1490 969.129 1521.250 968.814 L 1552.500 968.500 1558.239 965.682 C 1568.978 960.408, 1574.508 950.815, 1574.487 937.495 C 1574.467 924.707, 1569.108 915.840, 1557.722 909.756 C 1553.637 907.573, 1552.469 907.489, 1521.750 907.176 L 1490 906.851 1490 937.990 M 1278.747 976.250 C 1268.436 1007.198, 1260 1032.853, 1260 1033.260 C 1260 1033.667, 1277.086 1034, 1297.968 1034 L 1335.936 1034 1317.118 978.250 C 1306.769 947.587, 1298.119 921.933, 1297.897 921.240 C 1297.675 920.547, 1289.057 945.301, 1278.747 976.250 M 874.242 923 C 873.014 926.082, 837 1033.033, 837 1033.595 C 837 1033.818, 854.130 1034, 875.067 1034 C 910.869 1034, 913.101 1033.896, 912.575 1032.250 C 912.266 1031.287, 903.739 1005.750, 893.626 975.500 C 877.857 928.335, 875.095 920.856, 874.242 923 M 1490 1052 L 1490 1085 1524.962 1085 C 1557.523 1085, 1560.294 1084.862, 1565.292 1082.992 C 1572.929 1080.135, 1578.335 1075.097, 1582.208 1067.228 C 1585.185 1061.181, 1585.492 1059.725, 1585.416 1052.020 C 1585.295 1039.832, 1580.963 1030.823, 1572.386 1024.922 C 1564.585 1019.554, 1559.988 1019, 1523.290 1019 L 1490 1019 1490 1052" stroke="none" fill="#f0efea" fill-rule="evenodd"/>
</svg>