<svg xmlns="http://www.w3.org/2000/svg" width="2000" height="2000" viewBox="0 0 2000 2000" version="1.1">
	<path d="M 280.698 850.499 C 267.985 852.570, 259.832 854.750, 248.492 859.112 C 208.540 874.479, 177.088 907.505, 163.497 948.361 C 157.499 966.393, 156.500 973.196, 156.500 996 C 156.500 1013.809, 156.805 1017.863, 158.824 1026.881 C 172.255 1086.866, 216.260 1129.051, 277.500 1140.647 C 290.331 1143.076, 317.387 1143.556, 330.731 1141.591 C 371.849 1135.534, 403.867 1116.096, 424.733 1084.521 C 439.578 1062.056, 446 1037.710, 446 1003.894 L 446 984.987 375.250 985.243 L 304.500 985.500 304.233 1010.250 L 303.965 1035 347.050 1035 L 390.135 1035 389.508 1037.250 C 389.163 1038.487, 387.031 1043.325, 384.770 1048 C 379.216 1059.482, 367.211 1071.656, 355.451 1077.733 C 341.580 1084.901, 332.010 1087.188, 313.512 1087.758 C 295.445 1088.315, 284.624 1087.108, 273 1083.241 C 257.314 1078.021, 246.010 1070.959, 235.309 1059.690 C 218.213 1041.688, 209.722 1016.805, 211.358 989.500 C 213.710 950.252, 237.435 919.078, 273.635 907.669 C 296.583 900.437, 323.508 902.050, 344.567 911.918 C 360.469 919.370, 369.470 927.056, 379.605 941.833 C 379.872 942.222, 425.072 916.299, 426.385 915.004 C 427.837 913.571, 418.389 901.256, 407.565 890.473 C 388.034 871.015, 362.986 857.685, 335 851.856 C 322.240 849.198, 293.152 848.471, 280.698 850.499 M 1716.785 850.916 C 1704.784 853.533, 1698.755 855.602, 1690 860.111 C 1673.181 868.772, 1661.460 880.485, 1653.586 896.500 C 1647.177 909.537, 1645.554 916.880, 1645.634 932.500 C 1645.713 947.947, 1647.408 956.043, 1652.976 967.560 C 1660.087 982.268, 1674.717 995.339, 1694.288 1004.470 C 1703.321 1008.684, 1711.874 1011.637, 1745 1021.976 C 1780.058 1032.918, 1791.193 1041.820, 1791.312 1059 C 1791.347 1064.113, 1790.796 1066.593, 1788.727 1070.620 C 1782.354 1083.030, 1770.202 1087.959, 1745.910 1087.985 C 1724.560 1088.008, 1711.343 1083.637, 1699.152 1072.519 C 1693.266 1067.151, 1684.879 1055.193, 1682.994 1049.481 C 1682.362 1047.566, 1681.579 1046, 1681.253 1046 C 1680.563 1046, 1675.835 1048.655, 1655.940 1060.217 L 1641.379 1068.679 1641.299 1056.090 C 1641.131 1029.957, 1631.672 1010.559, 1611.944 995.889 L 1605.004 990.728 1611.914 983.454 C 1640.497 953.363, 1636.388 901.810, 1603.225 874.456 C 1592.619 865.707, 1578.811 859.387, 1562.500 855.814 C 1557.906 854.808, 1542.090 854.500, 1495 854.500 L 1433.500 854.500 1433.500 996 L 1433.500 1137.500 1499 1137.500 C 1558.702 1137.500, 1565.252 1137.338, 1573 1135.670 C 1601.547 1129.526, 1623.017 1113.283, 1634.211 1089.364 L 1637.248 1082.872 1641.297 1089.686 C 1657.859 1117.566, 1681.885 1133.915, 1716 1140.522 C 1727.517 1142.752, 1753.444 1143.594, 1764.100 1142.083 C 1805.995 1136.145, 1833.749 1115.315, 1844.157 1082 C 1846.231 1075.360, 1846.499 1072.550, 1846.488 1057.500 C 1846.476 1041.103, 1846.367 1040.197, 1843.428 1031.956 C 1836.014 1011.170, 1820.386 996.303, 1793.890 984.828 C 1788.726 982.592, 1772.531 976.804, 1757.902 971.966 C 1720.384 959.560, 1710.185 954.291, 1704.322 944.286 C 1702.012 940.344, 1701.581 938.447, 1701.544 932.046 C 1701.508 925.833, 1701.959 923.577, 1704.055 919.495 C 1712.555 902.937, 1741.638 897.903, 1764.628 909.012 C 1771.054 912.117, 1774.107 914.398, 1779.203 919.902 C 1782.748 923.731, 1787.104 929.595, 1788.883 932.932 C 1790.662 936.270, 1792.383 939, 1792.708 939 C 1793.727 939, 1839 912.815, 1839 912.226 C 1839 910.682, 1831.192 897.777, 1826.427 891.446 C 1811.599 871.745, 1789.581 857.307, 1766.012 851.831 C 1753.220 848.860, 1728.337 848.397, 1716.785 850.916 M 461 996 L 461 1138 488.500 1138 L 516 1138 516 996 L 516 854 488.500 854 L 461 854 461 996 M 543.487 855.183 C 543.212 855.907, 543.102 919.725, 543.243 997 L 543.500 1137.500 571.250 1137.766 L 599 1138.032 599 1088.516 L 599 1039 620.331 1039 L 641.663 1039 670.209 1088.250 L 698.756 1137.500 750.128 1137.500 L 801.500 1137.500 810 1112.242 L 818.499 1086.984 874.864 1087.242 L 931.228 1087.500 939.424 1111.537 C 943.931 1124.757, 947.956 1136.120, 948.368 1136.787 C 948.928 1137.693, 956.528 1138, 978.392 1138 C 994.493 1138, 1007.895 1137.771, 1008.175 1137.492 C 1008.455 1137.212, 986.344 1073.424, 959.040 995.742 L 909.397 854.500 875.240 854.237 C 843.479 853.992, 841.019 854.097, 840.150 855.737 C 839.636 856.707, 818.845 915.775, 793.949 987 C 769.052 1058.225, 748.409 1116.823, 748.074 1117.217 C 747.530 1117.858, 697.885 1034.249, 697.232 1031.591 C 697.084 1030.991, 699.370 1029.247, 702.312 1027.716 C 709.479 1023.986, 722.865 1013.166, 728.285 1006.723 C 738.007 995.164, 744.457 983.071, 748.138 969.500 C 751.228 958.113, 751.204 939.072, 748.085 926.500 C 739.680 892.617, 713.883 866.612, 679.429 857.289 L 669.500 854.602 606.744 854.234 C 555.497 853.933, 543.897 854.107, 543.487 855.183 M 1011 995.984 L 1011 1138 1117.417 1138 L 1223.833 1138 1232.250 1112.750 L 1240.666 1087.500 1297.247 1087.242 L 1353.828 1086.984 1362.247 1112.242 L 1370.666 1137.500 1400.833 1137.765 C 1417.425 1137.910, 1431 1137.650, 1431 1137.186 C 1431 1136.723, 1411.635 1081.254, 1387.966 1013.922 C 1364.297 946.590, 1342.173 883.625, 1338.801 874 C 1335.430 864.375, 1332.236 855.932, 1331.703 855.237 C 1330.949 854.254, 1323.202 854.032, 1296.782 854.237 L 1262.831 854.500 1219.165 979.232 L 1175.500 1103.963 1175 1094.232 L 1174.500 1084.500 1120.754 1084.241 L 1067.008 1083.983 1066.754 969.241 L 1066.500 854.500 1038.750 854.234 L 1011 853.968 1011 995.984 M 599 948.500 L 599 990.099 632.750 989.799 L 666.500 989.500 672.516 986.354 C 693.033 975.624, 700.853 949.273, 689.894 927.793 C 686.712 921.555, 678.740 913.699, 672.266 910.420 L 666.500 907.500 632.750 907.201 L 599 906.901 599 948.500 M 1489 937.949 L 1489 969 1519.318 969 C 1555.977 969, 1557.484 968.714, 1565.924 960.161 C 1573.250 952.737, 1575.426 946.854, 1574.794 936.183 C 1574.059 923.763, 1568.782 915.170, 1558.500 909.648 C 1554.678 907.596, 1553.039 907.487, 1521.750 907.199 L 1489 906.899 1489 937.949 M 1278.500 975.669 C 1268.050 1006.739, 1259.350 1032.574, 1259.167 1033.080 C 1258.967 1033.630, 1274.361 1034, 1297.417 1034 C 1318.638 1034, 1336 1033.852, 1336 1033.672 C 1336 1033.177, 1297.959 919.625, 1297.713 919.385 C 1297.596 919.271, 1288.950 944.599, 1278.500 975.669 M 855.743 976.260 C 845.435 1007.203, 837 1032.853, 837 1033.260 C 837 1033.667, 854.100 1034, 875 1034 C 895.900 1034, 913 1033.667, 913 1033.260 C 913 1031.775, 875.498 920, 875 920 C 874.718 920, 866.052 945.317, 855.743 976.260 M 1489 1051.954 L 1489 1085 1524.822 1085 C 1566.864 1085, 1567.069 1084.964, 1576.081 1076.086 C 1583.775 1068.506, 1586.361 1061.679, 1585.773 1050.500 C 1585.087 1037.452, 1579.222 1027.798, 1568.563 1022.172 L 1563.500 1019.500 1526.250 1019.204 L 1489 1018.909 1489 1051.954" stroke="none" fill="#f0efea" fill-rule="evenodd"/>
</svg>