<svg xmlns="http://www.w3.org/2000/svg" width="2000" height="2000" viewBox="0 0 2000 2000" version="1.1">
	<path d="M 306.667 862.667 C 306.300 863.033, 306 922.883, 306 995.667 L 306 1128 347.993 1128 L 389.986 1128 390.243 1062.882 L 390.500 997.765 410.533 1062.632 L 430.566 1127.500 466.467 1127.500 L 502.368 1127.500 522.434 1062.428 L 542.500 997.356 542.757 1062.678 L 543.014 1128 584.507 1128 L 626 1128 626 995 L 626 862 575.151 862 L 524.302 862 495.913 941.462 C 480.299 985.166, 467.242 1020.603, 466.897 1020.212 C 466.552 1019.820, 453.276 984.063, 437.394 940.750 L 408.519 862 357.926 862 C 330.100 862, 307.033 862.300, 306.667 862.667 M 638 995.004 L 638 1128.008 764.176 1127.754 L 890.352 1127.500 896.910 1107.740 L 903.469 1087.980 947.777 1088.240 L 992.085 1088.500 998.606 1108.250 L 1005.127 1128 1127.564 1128 L 1250 1128 1250 1096.500 L 1250 1065 1210 1065 L 1170 1065 1170 963.489 L 1170 861.978 1128.250 862.239 L 1086.500 862.500 1086 984.900 L 1085.500 1107.299 1040.884 984.900 L 996.268 862.500 948.245 862.240 C 903.199 861.997, 900.178 862.090, 899.530 863.740 C 899.150 864.708, 880.389 915.893, 857.838 977.485 C 835.287 1039.076, 816.437 1090.151, 815.949 1090.985 C 815.403 1091.916, 815.049 1086.619, 815.030 1077.250 L 815 1062 768.500 1062 L 722 1062 722 1043 L 722 1024 763 1024 L 804 1024 804 992.500 L 804 961 763 961 L 722 961 722 945 L 722 929 768.500 929 L 815 929 815 895.500 L 815 862 726.500 862 L 638 862 638 995.004 M 1236 894.997 L 1236 928 1271 928 L 1306 928 1306 1028 L 1306 1128 1347.500 1128 L 1389 1128 1389 1028 L 1389 928 1424.467 928 L 1459.934 928 1460.217 917.004 L 1460.500 906.008 1496.750 976.364 L 1533 1046.720 1533 1087.360 L 1533 1128 1575 1128 L 1617 1128 1617 1087.460 L 1617 1046.920 1664.500 954.853 C 1690.625 904.217, 1712 862.610, 1712 862.393 C 1712 862.177, 1690.944 862, 1665.208 862 L 1618.417 862 1597.618 908.250 C 1586.178 933.688, 1576.522 954.809, 1576.159 955.186 C 1575.797 955.564, 1566.050 934.864, 1554.500 909.186 L 1533.500 862.500 1384.750 862.247 L 1236 861.993 1236 894.997 M 936.044 987.250 C 929.785 1006.638, 924.466 1023.063, 924.225 1023.750 C 923.882 1024.727, 928.940 1025, 947.393 1025 C 964.151 1025, 971 1024.675, 971 1023.880 C 971 1022.661, 948.062 952, 947.666 952 C 947.533 952, 942.303 967.862, 936.044 987.250" stroke="none" fill="#4b9782" fill-rule="evenodd"/>
</svg>