<svg xmlns="http://www.w3.org/2000/svg" width="2000" height="2000" viewBox="0 0 2000 2000" version="1.1">
	<rect x="0" y="0" width="100%" height="100%" fill="#ffffff" />
	<path d="M 306.246 995.250 L 306.500 1128.500 348.243 1128.761 L 389.985 1129.022 390.243 1064.261 C 390.445 1013.436, 390.750 1000.253, 391.662 1003 C 392.302 1004.925, 395.294 1014.600, 398.312 1024.500 C 401.329 1034.400, 405.154 1046.775, 406.811 1052 C 413.751 1073.880, 419.239 1091.582, 424.466 1108.947 C 427.520 1119.093, 430.577 1127.748, 431.260 1128.182 C 432.859 1129.197, 500.110 1129.217, 501.706 1128.203 C 502.687 1127.579, 539.082 1012.032, 540.753 1004.235 C 542.562 995.797, 543 1007.624, 543 1064.952 L 543 1129.022 584.750 1128.761 L 626.500 1128.500 626.754 995.250 L 627.007 862 575.576 862 L 524.145 862 521.168 869.750 C 519.530 874.013, 517.287 880.200, 516.182 883.500 C 513.207 892.388, 503.718 919.126, 499.680 930 C 497.740 935.225, 492.715 949.175, 488.514 961 C 481.738 980.072, 472.065 1007.212, 468.570 1016.954 L 467.331 1020.408 464.158 1012.100 C 462.414 1007.531, 460.702 1002.602, 460.355 1001.146 C 460.008 999.691, 459.379 998.050, 458.957 997.500 C 458.535 996.950, 456.620 992, 454.701 986.500 C 452.783 981, 450.521 974.700, 449.674 972.500 C 447.671 967.292, 428.864 916.183, 421.155 895 C 417.853 885.925, 413.728 874.788, 411.988 870.250 L 408.825 862 357.409 862 L 305.993 862 306.246 995.250 M 638.246 995.250 L 638.500 1128.500 762.500 1128.774 C 830.700 1128.925, 887.477 1128.813, 888.671 1128.525 C 890.499 1128.084, 891.747 1125.200, 896.576 1110.251 C 899.730 1100.488, 902.763 1091.487, 903.316 1090.250 L 904.321 1088 948.028 1088 L 991.734 1088 997.983 1107.250 C 1001.420 1117.838, 1004.686 1127.064, 1005.242 1127.754 C 1006.043 1128.749, 1031.429 1128.956, 1128.376 1128.754 L 1250.500 1128.500 1250.764 1096.761 L 1251.028 1065.023 1210.764 1064.761 L 1170.500 1064.500 1170.245 963.250 L 1169.990 862 1127.995 862 L 1086 862 1086 983 C 1086 1049.550, 1085.662 1103.991, 1085.250 1103.981 C 1084.838 1103.971, 1081.651 1095.983, 1078.169 1086.231 C 1067.390 1056.043, 1059.461 1034.084, 1054.073 1019.500 C 1051.229 1011.800, 1047.838 1002.575, 1046.538 999 C 1040.757 983.103, 1017.140 918.418, 1005.371 886.253 L 996.500 862.006 947.985 862.003 L 899.469 862 897.643 867.250 C 896.638 870.138, 893.347 879.250, 890.330 887.500 C 887.313 895.750, 882.887 907.900, 880.495 914.500 C 865.962 954.593, 856.989 979.096, 846.256 1008 C 841.048 1022.025, 834.624 1039.575, 831.980 1047 C 829.337 1054.425, 825.562 1064.775, 823.592 1070 C 821.622 1075.225, 820.008 1079.783, 820.005 1080.128 C 820.002 1080.473, 819.213 1082.498, 818.250 1084.628 L 816.500 1088.500 816 1075 L 815.500 1061.500 768.750 1061.240 L 722 1060.980 722 1042.490 L 722 1024 763.514 1024 L 805.028 1024 804.764 992.750 L 804.500 961.500 763.225 961.239 L 721.949 960.978 722.225 945.239 L 722.500 929.500 769.250 929.240 L 816 928.980 816 895.490 L 816 862 726.996 862 L 637.993 862 638.246 995.250 M 1236 895.487 L 1236 928.974 1270.519 929.237 L 1305.039 929.500 1305.010 1028.729 L 1304.981 1127.957 1307.241 1128.507 C 1308.483 1128.809, 1327.500 1128.931, 1349.500 1128.778 L 1389.500 1128.500 1389.755 1028.750 L 1390.010 929 1425.005 929 L 1460 929 1460 918.500 C 1460 907.982, 1460.591 906.068, 1462.546 910.258 C 1463.121 911.491, 1468.835 922.737, 1475.243 935.250 C 1481.652 947.763, 1486.581 958.007, 1486.197 958.015 C 1485.814 958.024, 1485.987 958.361, 1486.581 958.765 C 1487.176 959.169, 1489.258 962.650, 1491.208 966.500 C 1493.159 970.350, 1498.218 980.138, 1502.452 988.250 C 1506.685 996.362, 1509.778 1003.007, 1509.324 1003.015 C 1508.871 1003.024, 1509.013 1003.361, 1509.639 1003.765 C 1510.266 1004.169, 1514.257 1011.250, 1518.509 1019.500 C 1522.760 1027.750, 1527.647 1036.975, 1529.369 1040 L 1532.500 1045.500 1533 1087 L 1533.500 1128.500 1575.250 1128.761 L 1617 1129.022 1617 1088.457 L 1617 1047.892 1626.638 1029.196 C 1631.939 1018.913, 1638.405 1006.450, 1641.007 1001.500 C 1643.608 996.550, 1650.581 983.050, 1656.500 971.500 C 1662.420 959.950, 1669.619 946, 1672.499 940.500 C 1675.379 935, 1682.800 920.600, 1688.991 908.500 C 1695.181 896.400, 1702.297 882.675, 1704.802 878 C 1711.887 864.781, 1711.987 864.575, 1711.994 863.250 C 1711.999 862.267, 1701.837 862, 1664.500 862 C 1630.651 862, 1617 862.316, 1617 863.099 C 1617 863.703, 1616.346 865.616, 1615.547 867.349 C 1614.748 869.082, 1609.879 879.950, 1604.727 891.500 C 1584.662 936.481, 1576.599 954, 1575.960 954 C 1575.594 954, 1572.915 948.712, 1570.007 942.250 C 1567.099 935.788, 1561.367 923.075, 1557.270 914 C 1553.172 904.925, 1548.003 893.450, 1545.782 888.500 C 1543.560 883.550, 1540.451 876.736, 1538.871 873.357 C 1537.292 869.978, 1536 866.581, 1536 865.807 C 1536 865.033, 1535.460 863.860, 1534.800 863.200 C 1533.877 862.277, 1499.200 862, 1384.800 862 L 1236 862 1236 895.487 M 946.515 956.149 C 945.940 958.129, 933.742 995.858, 926.982 1016.570 C 925.892 1019.909, 925 1023.172, 925 1023.820 C 925 1024.692, 930.884 1025, 947.500 1025 C 969.402 1025, 970 1024.946, 970 1022.982 C 970 1021.024, 963.384 999.513, 962.163 997.500 C 961.829 996.950, 961.466 995.902, 961.355 995.171 C 960.956 992.538, 948.709 955.480, 947.963 954.649 C 947.543 954.181, 946.891 954.856, 946.515 956.149" stroke="none" fill="#4b9782" fill-rule="evenodd"/>
</svg>