<svg xmlns="http://www.w3.org/2000/svg" width="2000" height="2000" viewBox="0 0 2000 2000" version="1.1">
	<rect x="0" y="0" width="100%" height="100%" fill="#4e9680" />
	<path d="M 306 997.500 L 306 1131 348 1131 L 390 1131 390 1067.333 C 390 1032.317, 390.223 1003.889, 390.495 1004.161 C 390.995 1004.662, 394.788 1016.726, 408.995 1063 C 421.028 1102.195, 425.902 1117.927, 428.130 1124.762 L 430.171 1131.025 466.336 1130.762 L 502.500 1130.500 503.848 1126 C 507.060 1115.283, 513.579 1094.082, 534.135 1027.500 C 542.752 999.588, 541.831 994.888, 541.921 1067.250 L 542 1131 584 1131 L 626 1131 626 997.491 L 626 863.982 574.876 864.241 L 523.752 864.500 519.775 875.500 C 517.588 881.550, 514.259 890.775, 512.377 896 C 510.495 901.225, 508.573 906.190, 508.105 907.033 C 507.637 907.876, 506.915 910.111, 506.500 912 C 506.085 913.889, 505.381 916.124, 504.935 916.967 C 504.489 917.810, 503.466 920.525, 502.663 923 C 501.859 925.475, 499.333 932.675, 497.048 939 C 494.763 945.325, 488.898 961.750, 484.015 975.500 C 472.834 1006.977, 469.260 1016.625, 467.622 1019.752 C 466.193 1022.480, 467.262 1024.908, 454.964 991 C 452.869 985.225, 448.154 972.400, 444.485 962.500 C 440.816 952.600, 435.871 939.100, 433.496 932.500 C 431.120 925.900, 425.493 910.600, 420.990 898.500 C 416.488 886.400, 412.202 874.612, 411.466 872.304 C 410.730 869.996, 409.633 867.184, 409.029 866.054 C 407.942 864.023, 407.353 864, 356.965 864 L 306 864 306 997.500 M 638 997.498 L 638 1131.008 764.750 1130.754 C 834.462 1130.614, 891.419 1130.173, 891.319 1129.773 C 891.220 1129.373, 893.959 1120.598, 897.406 1110.273 L 903.673 1091.500 947.748 1091.240 L 991.823 1090.979 998.240 1110.740 L 1004.657 1130.500 1127.843 1130.754 L 1251.028 1131.008 1250.764 1099.254 L 1250.500 1067.500 1210.250 1067.239 L 1170 1066.977 1170 965.489 L 1170 864 1128.004 864 L 1086.008 864 1085.754 986.250 L 1085.500 1108.500 1082.647 1100.500 C 1081.078 1096.100, 1079.394 1091.600, 1078.905 1090.500 C 1078.417 1089.400, 1076.467 1084.170, 1074.573 1078.878 C 1072.678 1073.585, 1069.566 1065.035, 1067.657 1059.878 C 1065.748 1054.720, 1061.177 1042.190, 1057.499 1032.034 C 1053.821 1021.878, 1050.208 1011.978, 1049.470 1010.034 C 1048.277 1006.890, 1042.865 991.967, 1030.963 959 C 1028.878 953.225, 1024.943 942.425, 1022.217 935 C 1019.492 927.575, 1015.143 915.650, 1012.553 908.500 C 1009.963 901.350, 1005.268 888.525, 1002.119 880 L 996.395 864.500 948.094 864.500 L 899.792 864.500 896.448 873.500 C 894.608 878.450, 888.334 895.550, 882.504 911.500 C 868.593 949.561, 867.020 953.852, 865.463 958 C 864.740 959.925, 862.933 964.875, 861.445 969 C 859.958 973.125, 858.198 977.850, 857.533 979.500 C 856.868 981.150, 855.539 984.750, 854.579 987.500 C 851.617 995.984, 845.511 1012.782, 839.493 1029 C 836.330 1037.525, 832.049 1049.225, 829.979 1055 C 827.909 1060.775, 823.944 1071.575, 821.168 1079 L 816.122 1092.500 816.061 1078.250 L 816 1064 769 1064 L 722 1064 722 1045.500 L 722 1027 763 1027 L 804 1027 804 995.500 L 804 964 763 964 L 722 964 722 948.010 L 722 932.020 768.750 931.760 L 815.500 931.500 815.500 898 L 815.500 864.500 726.750 864.245 L 638 863.989 638 997.498 M 1236 897.484 L 1236 930.974 1270.750 931.237 L 1305.500 931.500 1305.755 1031.250 L 1306.010 1131 1348.005 1131 L 1390 1131 1390 1031.013 L 1390 931.026 1425.250 930.763 L 1460.500 930.500 1461 920.320 L 1461.500 910.140 1471.048 928.820 C 1505.917 997.041, 1525.244 1034.703, 1526.051 1036 C 1526.564 1036.825, 1528.425 1040.200, 1530.185 1043.500 L 1533.385 1049.500 1533.198 1088 C 1533.095 1109.175, 1533.286 1127.513, 1533.622 1128.750 L 1534.233 1131 1576.117 1131 L 1618 1131 1618 1090.354 L 1618 1049.707 1628.369 1029.604 C 1634.072 1018.547, 1641.135 1004.775, 1644.065 999 C 1646.995 993.225, 1649.754 988.350, 1650.196 988.167 C 1650.638 987.983, 1651 987.361, 1651 986.784 C 1651 986.207, 1660.067 968.132, 1671.148 946.617 C 1709.851 871.476, 1713 865.308, 1713 864.646 C 1713 864.280, 1691.786 864.097, 1665.857 864.240 L 1618.714 864.500 1612.767 877.500 C 1609.497 884.650, 1605.115 894.325, 1603.029 899 C 1600.944 903.675, 1594.421 918.300, 1588.534 931.500 C 1582.646 944.700, 1577.428 955.917, 1576.938 956.426 C 1576.081 957.317, 1569.836 944.915, 1564.387 931.500 C 1563.046 928.200, 1561.556 924.791, 1561.075 923.924 C 1560.594 923.058, 1556.274 913.608, 1551.474 902.924 C 1546.674 892.241, 1540.796 879.225, 1538.412 874 L 1534.078 864.500 1385.039 864.247 L 1236 863.993 1236 897.484 M 942.695 970.657 C 940.209 978.271, 935.243 993.500, 931.659 1004.500 C 928.076 1015.500, 924.838 1025.287, 924.465 1026.250 C 923.830 1027.886, 925.318 1028, 947.393 1028 C 960.377 1028, 971 1027.692, 971 1027.316 C 971 1025.848, 948.754 958.450, 948.008 957.657 C 947.572 957.194, 945.181 963.044, 942.695 970.657" stroke="none" fill="#fffae5" fill-rule="evenodd"/>
</svg>