<svg xmlns="http://www.w3.org/2000/svg" width="2000" height="2000" viewBox="0 0 2000 2000" version="1.1">
	<path d="M 306 997.991 L 306 1131 347.500 1131 L 389 1131 389.030 1065.250 C 389.047 1029.088, 389.438 1000.175, 389.900 1001 C 390.362 1001.825, 399.654 1031.412, 410.550 1066.750 L 430.360 1131 466.113 1131 C 499.294 1131, 501.903 1130.874, 502.396 1129.250 C 512.816 1094.899, 542.130 1000.537, 542.494 1000.173 C 542.772 999.894, 543 1029.217, 543 1065.333 L 543 1131 584.500 1131 L 626 1131 626 997.991 L 626 864.982 574.842 865.241 L 523.684 865.500 495.580 944.179 C 480.123 987.452, 467.257 1023.073, 466.988 1023.337 C 466.720 1023.601, 453.438 988.195, 437.473 944.658 L 408.446 865.500 357.223 865.241 L 306 864.982 306 997.991 M 638 998.004 L 638 1131.008 764.218 1130.754 L 890.436 1130.500 896.835 1110.740 L 903.233 1090.980 947.837 1091.240 L 992.442 1091.500 998.806 1111.250 L 1005.170 1131 1127.585 1131 L 1250 1131 1250 1099.500 L 1250 1068 1210 1068 L 1170 1068 1170 966.500 L 1170 865 1128.004 865 L 1086.008 865 1085.754 987.401 L 1085.500 1109.802 1053.554 1022.151 C 1035.984 973.943, 1015.941 918.975, 1009.015 900 L 996.422 865.500 948.068 865.500 L 899.714 865.500 858.381 978.500 C 835.648 1040.650, 816.618 1092.400, 816.092 1093.500 C 815.436 1094.871, 815.114 1090.546, 815.068 1079.750 L 815 1064 768 1064 L 721 1064 721 1045.500 L 721 1027 762.500 1027 L 804 1027 804 995.500 L 804 964 762.475 964 L 720.950 964 721.225 947.750 L 721.500 931.500 768.250 931.240 L 815 930.980 815 897.990 L 815 865 726.500 865 L 638 865 638 998.004 M 1236 897.997 L 1236 931 1271 931 L 1306 931 1306 1031 L 1306 1131 1348 1131 L 1390 1131 1390 1031 L 1390 931 1424.968 931 L 1459.937 931 1460.218 919.329 L 1460.500 907.658 1486.435 958.079 C 1500.699 985.811, 1517.237 1017.888, 1523.185 1029.363 L 1534 1050.226 1534 1090.613 L 1534 1131 1575.500 1131 L 1617 1131 1617 1090.934 L 1617 1050.868 1663.950 959.684 C 1689.772 909.533, 1711.197 867.708, 1711.560 866.740 C 1712.187 865.073, 1709.736 864.994, 1665.371 865.240 L 1618.521 865.500 1597.797 911.500 C 1586.400 936.800, 1576.922 957.907, 1576.735 958.405 C 1576.549 958.903, 1566.898 938.203, 1555.288 912.405 L 1534.179 865.500 1385.090 865.247 L 1236 864.993 1236 897.997 M 935.625 991.125 C 929.157 1010.966, 924.054 1027.387, 924.284 1027.618 C 924.515 1027.848, 935.255 1027.916, 948.152 1027.768 L 971.601 1027.500 959.953 991.736 C 953.547 972.066, 948.099 955.765, 947.845 955.512 C 947.592 955.259, 942.093 971.284, 935.625 991.125" stroke="none" fill="#fffae5" fill-rule="evenodd"/>
</svg>