<svg xmlns="http://www.w3.org/2000/svg" width="2000" height="2000" viewBox="0 0 2000 2000" version="1.1">
	<path d="M 693 772.433 C 669.656 778.939, 653.862 803.075, 657.825 826.185 C 661.810 849.422, 681.265 866, 704.550 866 C 723.083 866, 739.307 856.105, 747.444 839.839 C 754.133 826.470, 754.182 812.315, 747.588 798.500 C 743.430 789.789, 738.721 784.315, 730.883 779.081 C 719.841 771.707, 704.969 769.097, 693 772.433 M 304 992.475 L 304 1203.064 403.750 1202.768 C 502.298 1202.475, 503.616 1202.445, 513.158 1200.277 C 525.847 1197.395, 533.539 1194.773, 544.586 1189.565 C 597.929 1164.419, 624.332 1108.209, 609.907 1050.500 C 605.378 1032.384, 591.820 1010.760, 577.230 998.382 C 571.716 993.704, 568.457 991.355, 559.132 985.335 C 558.930 985.205, 562.370 981.527, 566.776 977.162 C 586.356 957.765, 596.488 934.786, 597.711 907 C 600.134 851.944, 568.583 806.866, 515.441 789.458 C 494.304 782.534, 496.482 782.664, 395.250 782.255 L 304 781.885 304 992.475 M 387 906 L 387 952 432.395 952 C 483.313 952, 484.945 951.808, 495.649 944.566 C 521.441 927.117, 521.441 884.883, 495.649 867.434 C 484.945 860.192, 483.313 860, 432.395 860 L 387 860 387 906 M 976.252 895.070 C 945.572 898.037, 921.824 908.956, 901.951 929.234 L 894 937.347 894 919.673 L 894 902 855.500 902 L 817 902 817 1113 L 817 1324 855.500 1324 L 894 1324 894 1246.146 L 894 1168.293 903.750 1177.954 C 918.019 1192.095, 930.254 1199.518, 949.102 1205.472 C 961.952 1209.532, 974.055 1211.270, 990 1211.345 C 1007.843 1211.430, 1016.766 1210.034, 1033.503 1204.541 C 1057.636 1196.622, 1072.903 1187.154, 1091.565 1168.536 C 1113.968 1146.187, 1128.490 1118.721, 1135.104 1086.188 C 1137.705 1073.393, 1138.712 1045.776, 1137.065 1032.388 C 1130.327 977.615, 1098.731 931.232, 1052.763 908.633 C 1036.112 900.446, 1024.156 897.054, 1004.755 895.010 C 994.296 893.908, 988.136 893.921, 976.252 895.070 M 1282.500 894.610 C 1228.938 900.181, 1193.891 925.473, 1182.886 966.500 C 1179.862 977.772, 1179.849 1000.021, 1182.860 1011.296 C 1189.205 1035.057, 1203.660 1051.263, 1230.328 1064.513 C 1244.095 1071.353, 1255.560 1075.391, 1288.324 1084.939 C 1312.230 1091.906, 1321.906 1096.029, 1328.402 1102.016 C 1338.465 1111.292, 1337.376 1125.616, 1326.009 1133.494 C 1318.899 1138.421, 1311.793 1140.223, 1297.408 1140.746 C 1282.758 1141.279, 1272.566 1139.429, 1262 1134.319 C 1253.790 1130.349, 1242.188 1118.254, 1238.458 1109.777 C 1236.831 1106.079, 1235.113 1103.042, 1234.640 1103.027 C 1233.882 1103.003, 1176.108 1134.957, 1170.195 1138.671 L 1167.890 1140.118 1171.941 1147.628 C 1192.533 1185.805, 1231.239 1207.905, 1282.724 1210.881 C 1323.708 1213.251, 1357.785 1204.259, 1382.808 1184.473 C 1406.359 1165.850, 1417.988 1135.912, 1414.067 1104 C 1408.825 1061.344, 1381.703 1038.078, 1317.286 1020.981 C 1270.391 1008.535, 1259.068 1001.560, 1260.206 985.823 C 1260.793 977.710, 1264.514 972.510, 1272.710 968.347 C 1285.917 961.639, 1303.462 961.673, 1317.697 968.433 C 1327.758 973.211, 1334.028 979.250, 1341.317 991.180 L 1342.955 993.860 1375.727 975.920 C 1393.752 966.053, 1408.362 957.460, 1408.194 956.823 C 1407.275 953.343, 1396.268 939.268, 1388 931 C 1364.806 907.806, 1335.107 895.649, 1299 894.568 C 1292.125 894.362, 1284.700 894.381, 1282.500 894.610 M 666.678 902.655 C 666.305 903.028, 666 970.758, 666 1053.167 L 666 1203 705.003 1203 L 744.006 1203 743.753 1052.750 L 743.500 902.500 705.428 902.238 C 684.489 902.094, 667.051 902.282, 666.678 902.655 M 1421.706 902.750 C 1421.480 903.163, 1447.541 965.375, 1479.621 1041 C 1511.700 1116.625, 1539.391 1181.987, 1541.155 1186.248 L 1544.363 1193.997 1541.014 1201.748 C 1526.852 1234.532, 1508.027 1248.678, 1475.706 1250.823 L 1465.500 1251.500 1465.500 1287.500 L 1465.500 1323.500 1473 1323.826 C 1489.095 1324.525, 1511.308 1321.284, 1527.096 1315.933 C 1537.892 1312.274, 1554.490 1303.090, 1564.233 1295.384 C 1586.816 1277.522, 1606.910 1247.953, 1620.897 1212 C 1627.720 1194.463, 1732.225 906.999, 1732.782 904.239 L 1733.237 901.978 1691.988 902.239 L 1650.739 902.500 1617.619 1002.749 C 1599.404 1057.885, 1584.244 1102.998, 1583.932 1102.999 C 1583.619 1102.999, 1566.112 1058.338, 1545.027 1003.750 C 1523.941 949.163, 1506.255 903.938, 1505.723 903.250 C 1504.976 902.286, 1495.309 902, 1463.437 902 C 1440.711 902, 1421.933 902.337, 1421.706 902.750 M 960.881 969.488 C 943.488 972.798, 930.127 979.696, 918.414 991.412 C 908.837 1000.992, 902.885 1010.590, 898.967 1022.772 C 891.260 1046.739, 892.859 1072.103, 903.424 1093.500 C 917.267 1121.534, 943.607 1137.228, 977 1137.340 C 1001.468 1137.423, 1020.432 1130.075, 1036.408 1114.324 C 1047.179 1103.705, 1053.565 1092.188, 1058.214 1075 C 1061.200 1063.959, 1061.168 1042.803, 1058.146 1030.500 C 1050.800 1000.591, 1029.223 978.419, 1000.125 970.878 C 989.897 968.228, 971.017 967.559, 960.881 969.488 M 387 1076.500 L 387 1126 435.912 1126 C 495.867 1126, 499.433 1125.534, 512.038 1116.064 C 524.628 1106.604, 531.068 1093.116, 531.105 1076.132 C 531.153 1053.562, 519.821 1036.768, 499.584 1029.423 L 492.909 1027 439.955 1027 L 387 1027 387 1076.500" stroke="none" fill="#2f353a" fill-rule="evenodd"/>
</svg>