<svg xmlns="http://www.w3.org/2000/svg" width="2000" height="2000" viewBox="0 0 2000 2000" version="1.1">
	<rect x="0" y="0" width="100%" height="100%" fill="#ffffff" />
	<path d="M 697 771.119 C 688.917 772.421, 677.771 778.272, 671.577 784.466 C 661.964 794.079, 656.990 805.677, 657.012 818.432 C 657.035 831.912, 661.669 842.854, 671.534 852.719 C 688.805 869.990, 715.590 871.480, 734.527 856.224 C 757.765 837.503, 759.138 804.390, 737.515 784.163 C 729.975 777.109, 721.067 772.541, 711.981 771.067 C 704.724 769.889, 704.639 769.889, 697 771.119 M 304 993 L 304 1204 395.750 1203.983 C 500.578 1203.963, 507.242 1203.582, 529 1196.357 C 570.312 1182.641, 599.848 1151.875, 610.539 1111.425 C 617.120 1086.524, 613.969 1052.760, 603.034 1031 C 595.522 1016.051, 580.579 999.056, 567 990.017 C 563.425 987.637, 560.309 985.532, 560.076 985.338 C 559.843 985.144, 563.470 981.051, 568.136 976.243 C 586.197 957.630, 595.755 936.784, 597.930 911.263 C 602.639 855.991, 570.449 807.539, 517.183 789.727 C 494.052 781.992, 494.172 782, 393.401 782 L 304 782 304 993 M 387 906.046 L 387 952.092 433.750 951.796 L 480.500 951.500 486.752 948.866 C 502.638 942.171, 511.636 930.252, 514.301 912.371 C 515.605 903.621, 513.700 892.346, 509.451 883.669 C 506.308 877.249, 497.571 868.352, 491.237 865.121 C 482.029 860.423, 477.377 860.031, 430.750 860.015 L 387 860 387 906.046 M 975 894.651 C 946.999 898.897, 931.668 904.717, 914.357 917.671 C 910.429 920.610, 904.478 925.942, 901.132 929.518 L 895.048 936.021 894.774 919.261 L 894.500 902.500 855.250 902.238 L 816 901.977 816 1113 L 816 1324.023 855.250 1323.762 L 894.500 1323.500 894.756 1246.846 L 895.012 1170.193 903.325 1178.412 C 933.744 1208.490, 979.984 1219.244, 1026.500 1207.059 C 1052.355 1200.286, 1073.134 1188.166, 1092.500 1168.562 C 1139.911 1120.568, 1152.134 1043.381, 1122.361 980 C 1100.567 933.604, 1058.440 901.870, 1009.633 895.082 C 1002.366 894.071, 980.610 893.801, 975 894.651 M 1275.500 894.988 C 1228.534 900.676, 1194.907 925.747, 1183.337 963.703 C 1180.925 971.614, 1180.648 974.112, 1180.587 988.500 C 1180.528 1002.329, 1180.830 1005.578, 1182.809 1012.443 C 1186.338 1024.679, 1192.389 1035.365, 1200.752 1044.127 C 1216.610 1060.744, 1235.963 1070.172, 1280.598 1083.025 C 1317.668 1093.700, 1328.296 1098.779, 1333.044 1108.086 C 1336.899 1115.643, 1334.663 1125.576, 1327.739 1131.656 C 1320.461 1138.046, 1305.543 1141.626, 1290.063 1140.696 C 1265.413 1139.216, 1248.828 1129.314, 1239.472 1110.490 C 1237.287 1106.096, 1235.422 1102.347, 1235.327 1102.160 C 1235.163 1101.838, 1168.997 1138.670, 1168.064 1139.602 C 1167.291 1140.376, 1172.001 1149.223, 1177.843 1157.967 C 1197.962 1188.083, 1232.596 1206.730, 1276.399 1211.031 C 1313.226 1214.647, 1349.612 1207.126, 1375.340 1190.579 C 1389.615 1181.399, 1403.121 1165.089, 1408.936 1150.009 C 1413.930 1137.061, 1415.359 1127.485, 1414.682 1111.515 C 1414.014 1095.736, 1412.542 1089.147, 1407.083 1077.500 C 1393.873 1049.314, 1369.434 1034.792, 1306 1017.439 C 1288.402 1012.625, 1275.068 1007.395, 1269.209 1003.009 C 1258.032 994.643, 1257.123 982.425, 1266.968 972.874 C 1273.888 966.160, 1279.445 964.500, 1295 964.500 C 1305.982 964.500, 1308.263 964.803, 1313.782 966.995 C 1323.616 970.902, 1331.927 977.601, 1337.519 986.130 C 1340.177 990.183, 1342.486 993.675, 1342.649 993.890 C 1343.041 994.404, 1407.886 958.993, 1408.566 957.894 C 1408.854 957.426, 1406.877 953.772, 1404.171 949.772 C 1385.392 922.012, 1358.681 904.262, 1324.500 896.826 C 1314.260 894.599, 1287.121 893.581, 1275.500 894.988 M 666 1053 L 666 1204 705 1204 L 744 1204 744 1053 L 744 902 705 902 L 666 902 666 1053 M 1421.262 903.739 C 1421.537 904.708, 1449.278 970.376, 1482.909 1049.669 L 1544.056 1193.838 1540.179 1202.830 C 1526.763 1233.950, 1506.792 1248.562, 1474.811 1250.658 L 1465 1251.301 1465 1287.787 L 1465 1324.273 1482.250 1323.705 C 1520.189 1322.456, 1548.144 1311.486, 1573.331 1287.965 C 1591.473 1271.022, 1609.331 1242.982, 1620.755 1213.500 C 1624.589 1203.607, 1734 903.035, 1734 902.397 C 1734 902.178, 1715.213 902, 1692.250 902 L 1650.500 902 1617.500 1001.993 C 1599.350 1056.989, 1584.244 1101.989, 1583.930 1101.993 C 1583.617 1101.997, 1566.007 1057.112, 1544.797 1002.250 L 1506.233 902.500 1463.497 902.239 C 1423.103 901.993, 1420.789 902.075, 1421.262 903.739 M 965.500 969.070 C 926.861 974.222, 899.439 1002.466, 895.047 1041.634 C 893.960 1051.327, 895.426 1069.648, 898.034 1078.961 C 902.574 1095.170, 913.981 1111.943, 926.930 1121.448 C 934.044 1126.671, 946.455 1132.499, 955 1134.630 C 965.403 1137.224, 989.517 1137.229, 999.500 1134.638 C 1008.807 1132.223, 1023.146 1125.187, 1030.222 1119.563 C 1045.291 1107.585, 1055.743 1089.093, 1059.058 1068.541 C 1060.951 1056.806, 1059.792 1037.611, 1056.519 1026.500 C 1047.921 997.307, 1025.646 976.559, 996.444 970.543 C 986.889 968.574, 973.866 967.954, 965.500 969.070 M 387 1076 L 387 1125 438.895 1125 C 488.687 1125, 491.067 1124.915, 497.645 1122.909 C 517.922 1116.726, 531 1098.373, 531 1076.102 C 531 1052.318, 515.077 1032.104, 493.114 1028.005 C 489.957 1027.416, 466.877 1027, 437.364 1027 L 387 1027 387 1076" stroke="none" fill="#2f353a" fill-rule="evenodd"/>
</svg>