<svg xmlns="http://www.w3.org/2000/svg" width="2000" height="2000" viewBox="0 0 2000 2000" version="1.1">
	<rect x="0" y="0" width="100%" height="100%" fill="#2f343a" />
	<path d="M 697.067 771.125 C 684.281 773.269, 669.755 783.640, 663.092 795.382 C 650.268 817.979, 658.238 846.747, 681.057 860.222 C 701.835 872.492, 728.883 866.749, 743.439 846.976 C 749.149 839.219, 752.061 831.384, 752.720 822 C 754.842 791.829, 726.747 766.147, 697.067 771.125 M 304 993 L 304 1204 395.750 1203.983 C 500.702 1203.963, 507.525 1203.570, 529 1196.315 C 575.460 1180.618, 606.517 1144.331, 613.086 1098.070 C 615.733 1079.429, 612.691 1054.418, 605.662 1037.014 C 598.925 1020.335, 582.324 1000.146, 567 989.996 C 563.425 987.628, 560.299 985.522, 560.053 985.315 C 559.808 985.109, 562.996 981.466, 567.138 977.220 C 575.734 968.409, 579.396 963.807, 584.024 956 C 598.119 932.221, 602.029 900.129, 594.471 870.264 C 591.131 857.067, 582.058 838.865, 573.567 828.326 C 554.221 804.316, 525.387 788.555, 491.638 783.543 C 482.873 782.242, 467.348 782, 392.622 782 L 304 782 304 993 M 387 906 L 387 952 430.951 952 C 459.271 952, 476.786 951.606, 480.201 950.891 C 503.789 945.956, 518.674 922.046, 513.742 897.012 C 510.020 878.119, 498.517 865.691, 480.913 861.541 C 475.709 860.314, 466.255 860.027, 430.750 860.015 L 387 860 387 906 M 972 895.022 C 943.954 898.906, 921.011 909.739, 903.273 927.471 L 895.047 935.696 894.773 919.098 L 894.500 902.500 855.250 902.238 L 816 901.977 816 1113 L 816 1324.023 855.250 1323.762 L 894.500 1323.500 894.756 1246.770 L 895.012 1170.041 903.279 1178.308 C 937.321 1212.350, 993.583 1221.571, 1044.035 1201.378 C 1104.214 1177.292, 1143.520 1110.321, 1138.019 1041.245 C 1135.489 1009.485, 1126.912 983.981, 1110.528 959.501 C 1088.524 926.624, 1058.248 905.670, 1020 896.846 C 1010.213 894.588, 982.686 893.542, 972 895.022 M 1275.500 894.987 C 1234.339 899.976, 1201.751 921.012, 1187.916 951.524 C 1181.997 964.580, 1180.535 972.001, 1180.535 989 C 1180.535 1002.153, 1180.881 1005.703, 1182.817 1012.443 C 1186.329 1024.663, 1192.383 1035.358, 1200.752 1044.127 C 1216.693 1060.831, 1237.183 1070.672, 1283.662 1083.949 C 1317.257 1093.545, 1328.406 1098.994, 1333.044 1108.086 C 1336.591 1115.038, 1335.003 1124.222, 1329.197 1130.343 C 1322.385 1137.525, 1307.059 1141.631, 1290.541 1140.700 C 1265.429 1139.285, 1248.813 1129.463, 1239.450 1110.500 C 1237.277 1106.100, 1235.425 1102.350, 1235.334 1102.167 C 1235.181 1101.860, 1169.045 1138.685, 1168.061 1139.625 C 1167.288 1140.364, 1172.022 1149.255, 1177.708 1157.740 C 1183.265 1166.032, 1195.595 1178.951, 1204.068 1185.359 C 1228.012 1203.466, 1265.521 1213.393, 1303.281 1211.617 C 1363.277 1208.794, 1404.246 1179.968, 1413.555 1134.028 C 1415.603 1123.920, 1415.080 1102.435, 1412.533 1092 C 1410.294 1082.829, 1402.952 1068.613, 1396.615 1061.181 C 1380.873 1042.716, 1358.360 1031.905, 1304.719 1017.048 C 1275.849 1009.053, 1265.632 1003.543, 1261.548 993.768 C 1259.719 989.391, 1259.629 986.898, 1261.105 981.500 C 1262.561 976.179, 1270.162 968.839, 1276.594 966.543 C 1282.844 964.313, 1299.876 963.379, 1306.886 964.882 C 1319.598 967.608, 1330.487 975.232, 1337.685 986.444 C 1341.022 991.640, 1342.961 993.779, 1344 993.408 C 1346.146 992.643, 1405.187 960.315, 1407.419 958.683 C 1409.180 957.396, 1408.996 956.904, 1403.984 949.476 C 1393.179 933.464, 1375.807 917.792, 1359.464 909.314 C 1349.546 904.169, 1333.662 898.601, 1322.781 896.456 C 1313.203 894.569, 1285.943 893.721, 1275.500 894.987 M 666 1053 L 666 1204 705 1204 L 744 1204 744 1053 L 744 902 705 902 L 666 902 666 1053 M 1421 902.707 C 1421 903.107, 1448.681 968.736, 1482.512 1048.550 L 1544.025 1193.664 1540.987 1201.032 C 1527.568 1233.574, 1507.657 1248.505, 1474.811 1250.658 L 1465 1251.301 1465 1287.787 L 1465 1324.273 1482.250 1323.705 C 1522.339 1322.385, 1550.939 1310.403, 1577.121 1283.959 C 1593.766 1267.148, 1610.324 1240.411, 1620.757 1213.500 C 1624.513 1203.811, 1734 903.010, 1734 902.379 C 1734 902.171, 1715.213 902.002, 1692.250 902.005 L 1650.500 902.011 1617.500 1002.004 C 1599.350 1057, 1584.238 1101.998, 1583.917 1101.999 C 1583.596 1101.999, 1565.981 1057.112, 1544.771 1002.250 L 1506.209 902.500 1463.605 902.239 C 1440.172 902.096, 1421 902.306, 1421 902.707 M 965.500 969.064 C 919.995 975.169, 891.091 1012.511, 895.023 1060.118 C 896.132 1073.552, 898.803 1083.865, 903.668 1093.500 C 914.165 1114.291, 931.829 1128.577, 954.500 1134.611 C 964.410 1137.249, 989.559 1137.253, 999.500 1134.619 C 1023.766 1128.190, 1042.352 1112.809, 1052.406 1090.840 C 1058.370 1077.806, 1059.510 1071.578, 1059.421 1052.500 C 1059.349 1036.977, 1059.105 1034.722, 1056.617 1026.549 C 1047.625 997.013, 1025.783 976.580, 996.799 970.594 C 986.777 968.523, 974.135 967.906, 965.500 969.064 M 387 1076 L 387 1125 438.750 1124.988 C 493.943 1124.975, 495.402 1124.865, 505.744 1119.902 C 511.953 1116.922, 522.046 1106.816, 525.378 1100.241 C 532.714 1085.764, 532.719 1066.246, 525.391 1051.785 C 519.758 1040.669, 505.777 1030.369, 493.114 1028.005 C 489.957 1027.416, 466.877 1027, 437.364 1027 L 387 1027 387 1076" stroke="none" fill="#bfeed3" fill-rule="evenodd"/>
</svg>