<svg xmlns="http://www.w3.org/2000/svg" width="2000" height="2000" viewBox="0 0 2000 2000" version="1.1">
	<path d="M 693 772.433 C 669.656 778.939, 653.862 803.075, 657.825 826.185 C 661.810 849.422, 681.265 866, 704.550 866 C 723.083 866, 739.307 856.105, 747.444 839.839 C 754.133 826.470, 754.182 812.315, 747.588 798.500 C 743.430 789.789, 738.721 784.315, 730.883 779.081 C 719.841 771.707, 704.969 769.097, 693 772.433 M 304 992.475 L 304 1203.064 403.750 1202.768 C 502.298 1202.475, 503.616 1202.445, 513.158 1200.277 C 566.038 1188.265, 601.207 1154.114, 611.727 1104.561 C 614.102 1093.372, 614.053 1069.473, 611.632 1058.204 C 605.427 1029.327, 591.068 1007.337, 567.702 990.927 C 563.936 988.282, 560.329 985.943, 559.687 985.729 C 559.045 985.515, 562.180 981.714, 566.653 977.283 C 586.362 957.759, 596.485 934.851, 597.711 907 C 600.134 851.944, 568.583 806.866, 515.441 789.458 C 494.304 782.534, 496.482 782.664, 395.250 782.255 L 304 781.885 304 992.475 M 387 906 L 387 952 432.395 952 C 483.313 952, 484.945 951.808, 495.649 944.566 C 521.441 927.117, 521.441 884.883, 495.649 867.434 C 484.945 860.192, 483.313 860, 432.395 860 L 387 860 387 906 M 976.252 895.001 C 945.030 898.281, 921.794 908.987, 901.951 929.234 L 894 937.347 894 919.673 L 894 902 855.500 902 L 817 902 817 1113 L 817 1324 855.500 1324 L 894 1324 894 1246.146 L 894 1168.293 903.750 1177.954 C 921.573 1195.616, 940.070 1204.984, 966.364 1209.666 C 978.767 1211.875, 1002.642 1211.896, 1014.628 1209.708 C 1074.937 1198.702, 1122.347 1150.120, 1135.060 1086.299 C 1137.724 1072.924, 1138.673 1049.416, 1137.122 1035.205 C 1132.486 992.724, 1113.734 955.151, 1084.500 929.768 C 1064.481 912.387, 1040.529 900.695, 1016.500 896.575 C 1004.992 894.601, 986.820 893.891, 976.252 895.001 M 1282.500 894.610 C 1228.938 900.181, 1193.894 925.472, 1182.885 966.500 C 1179.868 977.746, 1179.874 999.963, 1182.897 1011.378 C 1189.007 1034.447, 1203.092 1050.697, 1228 1063.414 C 1242.008 1070.566, 1252.659 1074.425, 1283.065 1083.363 C 1311.228 1091.641, 1321.620 1095.855, 1327.932 1101.557 C 1333.493 1106.582, 1335.270 1110.283, 1335.212 1116.724 C 1335.123 1126.548, 1328.586 1133.977, 1316.255 1138.268 C 1307.136 1141.441, 1286.842 1141.860, 1275.908 1139.101 C 1263.343 1135.930, 1257.520 1132.685, 1248.958 1124.080 C 1243.311 1118.405, 1240.673 1114.811, 1238.458 1109.777 C 1236.831 1106.079, 1235.113 1103.042, 1234.640 1103.027 C 1233.882 1103.003, 1176.108 1134.957, 1170.195 1138.671 L 1167.890 1140.118 1171.941 1147.628 C 1192.533 1185.805, 1231.239 1207.905, 1282.724 1210.881 C 1341.309 1214.269, 1387.688 1193.450, 1406.046 1155.524 C 1416.146 1134.656, 1417.696 1107.526, 1410.061 1085.239 C 1406.176 1073.898, 1401.812 1066.919, 1393 1057.956 C 1377.003 1041.683, 1359.372 1033.066, 1318.500 1021.544 C 1285.211 1012.160, 1275.461 1008.505, 1267.241 1002.332 C 1259.344 996.402, 1257.667 984.269, 1263.566 975.745 C 1272.369 963.022, 1298.789 959.454, 1317.697 968.433 C 1327.758 973.211, 1334.028 979.250, 1341.317 991.180 L 1342.955 993.860 1375.727 975.920 C 1393.752 966.053, 1408.362 957.460, 1408.194 956.823 C 1407.275 953.343, 1396.268 939.268, 1388 931 C 1364.806 907.806, 1335.107 895.649, 1299 894.568 C 1292.125 894.362, 1284.700 894.381, 1282.500 894.610 M 666.678 902.655 C 666.305 903.028, 666 970.758, 666 1053.167 L 666 1203 705.003 1203 L 744.006 1203 743.753 1052.750 L 743.500 902.500 705.428 902.238 C 684.489 902.094, 667.051 902.282, 666.678 902.655 M 1421.706 902.750 C 1421.480 903.163, 1447.541 965.375, 1479.621 1041 C 1511.700 1116.625, 1539.391 1181.987, 1541.155 1186.248 L 1544.363 1193.997 1541.014 1201.748 C 1526.852 1234.532, 1508.027 1248.678, 1475.706 1250.823 L 1465.500 1251.500 1465.500 1287.500 L 1465.500 1323.500 1473 1323.826 C 1489.095 1324.525, 1511.308 1321.284, 1527.096 1315.933 C 1537.892 1312.274, 1554.490 1303.090, 1564.233 1295.384 C 1586.816 1277.522, 1606.910 1247.953, 1620.897 1212 C 1627.720 1194.463, 1732.225 906.999, 1732.782 904.239 L 1733.237 901.978 1691.986 902.239 L 1650.735 902.500 1617.619 1002.750 C 1599.405 1057.888, 1584.243 1103, 1583.925 1103 C 1583.607 1103, 1566.100 1058.338, 1545.020 1003.750 C 1523.941 949.163, 1506.257 903.938, 1505.724 903.250 C 1504.977 902.286, 1495.308 902, 1463.437 902 C 1440.711 902, 1421.933 902.337, 1421.706 902.750 M 963 968.987 C 920.295 975.846, 891.938 1012.002, 894.363 1056.500 C 895.436 1076.188, 901.263 1093.331, 911.452 1106.776 C 939.860 1144.260, 1002.058 1148.288, 1036.160 1114.853 C 1057.665 1093.767, 1065.742 1060.543, 1057.396 1027.500 C 1055.113 1018.461, 1047.835 1004.322, 1041.592 996.795 C 1031.420 984.532, 1016.267 975.061, 1000.125 970.878 C 991.412 968.620, 971.573 967.609, 963 968.987 M 387 1076.500 L 387 1126 435.912 1126 C 495.867 1126, 499.433 1125.534, 512.038 1116.064 C 524.924 1106.381, 531.134 1093.022, 531.085 1075.091 C 531.026 1053.285, 519.571 1036.678, 499.584 1029.423 L 492.909 1027 439.955 1027 L 387 1027 387 1076.500" stroke="none" fill="#bfeed3" fill-rule="evenodd"/>
</svg>