<svg xmlns="http://www.w3.org/2000/svg" width="2000" height="2000" viewBox="0 0 2000 2000" version="1.1">
	<rect x="0" y="0" width="100%" height="100%" fill="#2f343a" />
	<path d="M 697.829 771.126 C 679.968 773.590, 662.217 790.059, 658.085 808 C 652.085 834.053, 669.619 860.557, 696.467 866.018 C 715.786 869.948, 737.449 859.289, 747.435 840.942 C 756.884 823.581, 753.733 801.114, 739.780 786.361 C 728.294 774.216, 713.740 768.931, 697.829 771.126 M 304 993 L 304 1204 395.750 1203.992 C 450.480 1203.987, 491.131 1203.578, 496.500 1202.979 C 531.018 1199.127, 558.181 1186.875, 579.528 1165.528 C 603.729 1141.326, 615.197 1111.314, 613.710 1076.070 C 612.842 1055.502, 608.344 1039.917, 598.324 1022.761 C 592.612 1012.979, 576.922 996.568, 567 989.996 C 563.425 987.628, 560.310 985.533, 560.078 985.340 C 559.846 985.147, 563.273 981.279, 567.694 976.745 C 590.497 953.357, 600.346 925.178, 597.787 890.649 C 596.136 868.369, 586.918 844.984, 572.988 827.734 C 554.026 804.255, 525.025 788.501, 491.638 783.543 C 482.873 782.242, 467.348 782, 392.622 782 L 304 782 304 993 M 387 906 L 387 952 430.951 952 C 478.366 952, 481.572 951.723, 491.405 946.782 C 521.091 931.865, 522.743 884.190, 494.172 866.944 C 483.279 860.370, 479.893 860, 430.553 860 L 387 860 387 906 M 972 895.088 C 944.167 898.660, 921.134 909.643, 902.750 928.107 L 894 936.895 894 919.447 L 894 902 855 902 L 816 902 816 1113 L 816 1324 855 1324 L 894 1324 894 1246.416 L 894 1168.831 902.846 1177.736 C 923.780 1198.811, 949.926 1209.946, 982.500 1211.660 C 1047.922 1215.103, 1106.963 1173.602, 1129.345 1108.439 C 1151.937 1042.667, 1131.429 967.118, 1079.667 925.431 C 1059.624 909.288, 1033.989 898.280, 1008.834 895.014 C 1000.113 893.882, 981.100 893.920, 972 895.088 M 1275.174 895.044 C 1215.734 902.487, 1177.829 941.628, 1180.313 993 C 1181.917 1026.190, 1197.233 1048.527, 1229.508 1064.752 C 1239.535 1069.792, 1258.589 1076.723, 1275.500 1081.482 C 1315.701 1092.793, 1328.187 1098.565, 1333.044 1108.086 C 1338.161 1118.117, 1333.215 1129.916, 1321.415 1135.826 C 1310.882 1141.102, 1288.701 1142.401, 1274.500 1138.574 C 1257.058 1133.873, 1243.341 1122.171, 1237.398 1106.922 C 1236.450 1104.490, 1235.569 1102.359, 1235.440 1102.186 C 1235.230 1101.904, 1169.115 1138.649, 1168.061 1139.634 C 1167.347 1140.301, 1171.857 1148.981, 1176.824 1156.500 C 1182.981 1165.820, 1197.452 1180.683, 1206.329 1186.804 C 1214.367 1192.346, 1226.809 1198.818, 1236.230 1202.358 C 1253.768 1208.948, 1281.130 1212.757, 1302.981 1211.651 C 1340.564 1209.749, 1369.472 1198.594, 1390.067 1178.047 C 1402.925 1165.218, 1409.877 1152.176, 1413.569 1133.957 C 1415.625 1123.808, 1415.112 1103.153, 1412.540 1092.523 C 1408.034 1073.905, 1396.638 1057.912, 1379.372 1045.977 C 1365.077 1036.094, 1349.747 1029.975, 1313.292 1019.599 C 1288.575 1012.563, 1278.952 1009.228, 1272.559 1005.482 C 1257.967 996.930, 1255.958 982.040, 1268.005 971.728 C 1274.745 965.959, 1280.342 964.494, 1295.500 964.535 C 1307.399 964.566, 1309.060 964.804, 1315.114 967.337 C 1323.846 970.990, 1332.387 978.017, 1337.649 985.877 C 1339.997 989.385, 1342.078 992.735, 1342.274 993.321 C 1342.572 994.216, 1402.281 962.440, 1407.576 958.568 C 1409.181 957.394, 1408.886 956.657, 1403.911 949.403 C 1396.937 939.236, 1384.474 926.163, 1375.150 919.235 C 1360.968 908.697, 1341.152 900.078, 1322.781 896.456 C 1312.989 894.527, 1285.758 893.719, 1275.174 895.044 M 666 1053 L 666 1204 705 1204 L 744 1204 744 1053 L 744 902 705 902 L 666 902 666 1053 M 1421 902.678 C 1421 903.062, 1448.690 968.697, 1482.532 1048.532 L 1544.065 1193.688 1540.573 1201.968 C 1527.170 1233.747, 1507.008 1248.672, 1474.750 1250.692 L 1465 1251.302 1465 1287.796 L 1465 1324.290 1482.250 1323.696 C 1493.864 1323.296, 1502.691 1322.424, 1509.266 1321.027 C 1546.331 1313.154, 1574.284 1293.455, 1597.283 1259 C 1612.285 1236.525, 1615.438 1228.633, 1676.926 1059.611 C 1708.317 973.322, 1734 902.559, 1734 902.361 C 1734 901.530, 1651.075 902.069, 1650.560 902.903 C 1650.253 903.400, 1635.376 948.062, 1617.501 1002.153 C 1599.625 1056.244, 1584.746 1101.174, 1584.436 1101.997 C 1584.127 1102.821, 1566.389 1058.271, 1545.019 1002.997 L 1506.165 902.500 1463.583 902.239 C 1440.162 902.096, 1421 902.293, 1421 902.678 M 963.466 969.384 C 929.815 974.879, 905.803 996.439, 897.321 1028.776 C 894.173 1040.778, 893.820 1059.641, 896.502 1072.500 C 903.036 1103.823, 924.272 1126.565, 954.500 1134.611 C 964.410 1137.249, 989.559 1137.253, 999.500 1134.619 C 1023.941 1128.143, 1042.416 1112.811, 1052.453 1090.675 C 1058.645 1077.018, 1059.508 1072.354, 1059.424 1053 C 1059.353 1036.922, 1059.126 1034.773, 1056.620 1026.549 C 1052.004 1011.399, 1046.899 1002.815, 1036.043 991.943 C 1027.895 983.784, 1025.111 981.704, 1017 977.719 C 1000.752 969.737, 980.559 966.592, 963.466 969.384 M 387 1076 L 387 1125 438.772 1125 C 486.001 1125, 491.126 1124.838, 497.189 1123.157 C 513.139 1118.734, 525.540 1105.533, 529.492 1088.769 C 532.364 1076.591, 530.795 1062.450, 525.391 1051.785 C 522.027 1045.147, 512.852 1035.972, 506.213 1032.608 C 495.394 1027.126, 493.872 1027, 438.290 1027 L 387 1027 387 1076" stroke="none" fill="#82d9a5" fill-rule="evenodd"/>
</svg>