<svg xmlns="http://www.w3.org/2000/svg" width="2000" height="2000" viewBox="0 0 2000 2000" version="1.1">
	<rect x="0" y="0" width="100%" height="100%" fill="#ffffff" />
	<path d="M 981.832 259.742 C 972.690 268.959, 961.939 280.100, 957.940 284.500 C 953.942 288.900, 950.182 292.950, 949.585 293.500 C 948.988 294.050, 945.159 298.325, 941.077 303 C 936.994 307.675, 932.269 312.910, 930.577 314.634 C 928.884 316.357, 925.925 319.730, 924 322.129 C 922.075 324.527, 918.920 328.292, 916.989 330.495 C 909.400 339.151, 897.582 353.550, 889.189 364.366 C 858.218 404.278, 837.517 433.790, 815.792 469 C 790.649 509.750, 765.343 559.736, 754.533 590 C 753.060 594.125, 750.795 600.200, 749.500 603.500 C 748.205 606.800, 745.485 614.225, 743.455 620 C 741.426 625.775, 738.948 632.750, 737.948 635.500 C 736.949 638.250, 734.723 645.225, 733.001 651 C 731.280 656.775, 729.457 662.625, 728.951 664 C 727.362 668.315, 716.896 710.232, 715.967 716 C 715.480 719.025, 714.151 726.450, 713.014 732.500 C 707.491 761.881, 706.159 776.886, 702.982 845.500 C 701.895 868.967, 700.188 883.381, 697.641 890.599 C 695.247 897.386, 690.984 905.108, 689.976 904.485 C 689.452 904.161, 689.263 904.523, 689.557 905.289 C 690.170 906.886, 681.496 917, 679.514 917 C 678.799 917, 677.969 917.639, 677.669 918.421 C 677.369 919.203, 673.192 921.790, 668.387 924.171 C 659.725 928.463, 659.561 928.500, 649.075 928.470 C 639.287 928.442, 637.987 928.200, 631.603 925.216 C 590.494 906.001, 572.877 832.034, 584.870 729 C 585.863 720.475, 586.575 713.365, 586.453 713.199 C 585.940 712.503, 572.663 737.434, 559.666 763.500 C 551.987 778.900, 545.433 791.725, 545.102 792 C 544.771 792.275, 544.366 793.175, 544.202 794 C 544.038 794.825, 542.601 798.200, 541.009 801.500 C 537.496 808.782, 526.517 833.383, 519.928 848.737 C 517.276 854.917, 514.453 861.442, 513.655 863.237 C 498.138 898.113, 475.932 961.912, 463.617 1007 C 448.417 1062.649, 441.063 1105.349, 437.351 1159.500 C 435.857 1181.293, 435.787 1188.156, 436.806 1213 C 438.273 1248.779, 440.033 1264.249, 447.635 1308.185 C 448.604 1313.782, 458.117 1350.699, 461.087 1360.385 C 469.884 1389.073, 480.106 1414.467, 494.947 1444.500 C 523.315 1501.906, 556.942 1548.216, 605.139 1596.250 C 616.038 1607.112, 625.360 1616, 625.855 1616 C 626.350 1616, 627.343 1616.709, 628.062 1617.575 C 631.071 1621.200, 654.707 1640.204, 670.492 1651.689 C 676.653 1656.172, 698.781 1671, 699.310 1671 C 699.926 1671, 699.853 1671.353, 707.477 1631.500 C 710.529 1615.550, 713.659 1599.575, 714.434 1596 C 715.209 1592.425, 716.308 1586.575, 716.875 1583 C 717.443 1579.425, 718.188 1574.739, 718.530 1572.586 C 719.690 1565.288, 719.109 1543.602, 717.532 1535.390 C 712.826 1510.866, 701.668 1490.825, 681.961 1471.500 C 660.207 1450.168, 651.593 1434.117, 647.906 1408.046 C 645.016 1387.613, 650.240 1346.965, 659.369 1318.847 C 660.145 1316.456, 661.079 1313.200, 661.444 1311.612 C 662.333 1307.744, 672.938 1279.505, 677.259 1269.500 C 684.932 1251.738, 699.125 1224.227, 701.371 1222.765 C 701.992 1222.361, 702.171 1222.024, 701.768 1222.015 C 699.756 1221.973, 718.662 1192.708, 730.849 1177 C 751.281 1150.666, 768.340 1133.810, 786.996 1121.520 C 808.571 1107.307, 820.036 1103.075, 839 1102.320 C 850.185 1101.875, 852.364 1102.078, 859.709 1104.250 C 875.749 1108.991, 891.898 1121.416, 905.033 1139.121 C 908.452 1143.730, 911.495 1148.175, 911.795 1149 C 912.094 1149.825, 913.836 1152.868, 915.666 1155.763 C 926.941 1173.604, 939.847 1210.196, 946.435 1243 C 952.820 1274.792, 955.308 1300.665, 955.328 1335.500 C 955.363 1395.267, 945.094 1443.079, 926.134 1471.428 C 917.859 1483.799, 906.581 1493.953, 893.500 1500.807 C 886.473 1504.489, 878.644 1508, 877.459 1508 C 874.986 1508, 856.840 1517.916, 849.054 1523.522 C 830.791 1536.672, 814.149 1558.995, 807.595 1579.136 C 806.276 1583.186, 803.332 1596.175, 801.052 1608 C 798.772 1619.825, 796.261 1632.650, 795.472 1636.500 C 794.684 1640.350, 791.979 1654.300, 789.461 1667.500 C 786.943 1680.700, 784.009 1695.936, 782.941 1701.358 C 780.715 1712.665, 780.569 1715, 782.088 1715 C 782.686 1715, 788.199 1716.975, 794.338 1719.390 C 858.329 1744.556, 931.263 1758.046, 1003 1757.982 C 1038.684 1757.950, 1086.305 1752.896, 1117 1745.882 C 1148.615 1738.658, 1175.843 1730.607, 1200.250 1721.266 C 1211.640 1716.906, 1215 1715.213, 1215 1713.834 C 1215 1712.851, 1213.629 1704.949, 1211.953 1696.274 C 1210.277 1687.598, 1206.438 1667.675, 1203.421 1652 C 1193.807 1602.038, 1192.694 1597.959, 1184.303 1581.906 C 1178.320 1570.461, 1171.815 1561.960, 1161.687 1552.349 C 1150.089 1541.344, 1137.941 1533.650, 1123.500 1528.163 C 1106.086 1521.547, 1094.876 1514.586, 1084.303 1503.825 C 1068.275 1487.513, 1058.871 1467.262, 1051.536 1433.265 C 1048.260 1418.083, 1046.456 1408.840, 1036.550 1356.500 C 1034.052 1343.300, 1031.134 1328.225, 1030.066 1323 C 1028.997 1317.775, 1026.720 1306.075, 1025.005 1297 C 1017.047 1254.884, 1011.855 1227.956, 1010.546 1222 C 1006.606 1204.074, 1002.581 1179.924, 1002.765 1175.321 C 1003.228 1163.793, 1011.050 1152.342, 1022 1147.161 C 1026.596 1144.987, 1028.897 1144.563, 1036 1144.578 C 1043.255 1144.593, 1045.262 1144.990, 1049.702 1147.290 C 1056.382 1150.750, 1062.620 1156.887, 1065.056 1162.393 C 1066.666 1166.034, 1072.023 1190.590, 1075.877 1212 C 1077.297 1219.885, 1087.711 1274.095, 1089.517 1283 C 1090.354 1287.125, 1092.359 1297.475, 1093.973 1306 C 1095.588 1314.525, 1098.519 1329.825, 1100.488 1340 C 1102.457 1350.175, 1104.984 1363.450, 1106.103 1369.500 C 1107.222 1375.550, 1108.986 1384.550, 1110.022 1389.500 C 1111.059 1394.450, 1112.620 1402.325, 1113.490 1407 C 1115.907 1419.981, 1115.913 1419.999, 1117.769 1420.017 C 1119.635 1420.035, 1162.265 1411.901, 1162.856 1411.415 C 1163.052 1411.253, 1162.066 1405.356, 1160.664 1398.310 C 1158.191 1385.879, 1153.221 1360.185, 1142.904 1306.500 C 1140.156 1292.200, 1136.381 1272.625, 1134.516 1263 C 1132.650 1253.375, 1129.266 1235.825, 1126.996 1224 C 1124.725 1212.175, 1121.317 1194.625, 1119.422 1185 C 1117.526 1175.375, 1115.700 1165.185, 1115.363 1162.356 C 1114.164 1152.295, 1118.617 1140.533, 1126.609 1132.654 C 1141.242 1118.228, 1164.363 1117.989, 1179.067 1132.113 C 1186.576 1139.325, 1188.357 1144.346, 1194.456 1175.500 C 1197.471 1190.900, 1200.613 1206.875, 1201.439 1211 C 1202.265 1215.125, 1204.771 1228.175, 1207.009 1240 C 1209.246 1251.825, 1211.721 1264.650, 1212.508 1268.500 C 1213.294 1272.350, 1215.045 1281.350, 1216.398 1288.500 C 1220.919 1312.388, 1226.100 1339.380, 1228.490 1351.500 C 1229.791 1358.100, 1232.288 1371.037, 1234.039 1380.250 C 1236.245 1391.862, 1237.627 1397, 1238.543 1397 C 1239.270 1397, 1247.709 1395.462, 1257.297 1393.582 C 1266.884 1391.701, 1276.815 1389.850, 1279.364 1389.468 C 1282.438 1389.007, 1284 1388.282, 1284 1387.317 C 1284 1386.516, 1282.638 1379.038, 1280.972 1370.700 C 1279.307 1362.361, 1276.383 1347.068, 1274.473 1336.715 C 1272.564 1326.362, 1270.584 1316.004, 1270.073 1313.696 C 1269.563 1311.388, 1268.460 1305.900, 1267.622 1301.500 C 1266.785 1297.100, 1263.631 1280.675, 1260.613 1265 C 1257.595 1249.325, 1253.051 1225.700, 1250.515 1212.500 C 1247.980 1199.300, 1244.336 1180.400, 1242.418 1170.500 C 1240.501 1160.600, 1238.272 1149.080, 1237.466 1144.900 C 1234.241 1128.183, 1236.066 1119.283, 1244.608 1110.057 C 1252.007 1102.065, 1257.819 1099.576, 1269 1099.609 C 1276.354 1099.631, 1278.298 1100.030, 1283.421 1102.564 C 1287.387 1104.525, 1290.627 1107.117, 1293.231 1110.412 C 1299.929 1118.885, 1299.388 1116.995, 1307.985 1162 C 1310.244 1173.825, 1313.853 1192.500, 1316.006 1203.500 C 1319.378 1220.726, 1323.441 1241.812, 1332 1286.500 C 1333.053 1292, 1335.490 1304.600, 1337.415 1314.500 C 1342.237 1339.306, 1348.687 1373.264, 1349.959 1380.549 C 1353.460 1400.601, 1353.070 1425.536, 1349.005 1441.533 C 1346.983 1449.486, 1340.563 1464.230, 1337.904 1467.024 C 1337.132 1467.836, 1335.150 1470.493, 1333.500 1472.928 C 1331.850 1475.363, 1325.534 1482.338, 1319.465 1488.428 C 1306.296 1501.640, 1301.365 1507.734, 1295.164 1518.456 C 1284.723 1536.510, 1280.065 1554.247, 1280.020 1576.120 C 1280 1585.918, 1281.322 1594.893, 1287.367 1626 C 1289.237 1635.625, 1292.036 1650.138, 1293.586 1658.250 C 1295.137 1666.362, 1296.699 1673, 1297.058 1673 C 1297.417 1673, 1304.184 1668.649, 1312.096 1663.331 C 1331.791 1650.093, 1353.758 1633.320, 1370 1619.119 C 1379.851 1610.505, 1416.666 1573.978, 1422.385 1567.143 C 1424.522 1564.589, 1428.245 1560.250, 1430.660 1557.500 C 1437.487 1549.723, 1456.580 1524.670, 1463.757 1514.070 C 1467.321 1508.807, 1470.553 1504.275, 1470.941 1504 C 1471.329 1503.725, 1471.930 1502.729, 1472.277 1501.787 C 1472.625 1500.845, 1474.897 1497.020, 1477.328 1493.287 C 1497.658 1462.060, 1520.749 1413.413, 1533.850 1374.208 C 1549.808 1326.449, 1558.788 1280.882, 1562.071 1231 C 1563.393 1210.912, 1562.796 1165.744, 1561.013 1151 C 1560.447 1146.325, 1559.516 1138.675, 1558.942 1134 C 1554.480 1097.608, 1541.577 1050.012, 1526.555 1014.529 C 1505.882 965.700, 1469.950 908.507, 1427.585 857 C 1415.232 841.980, 1401.822 826.436, 1390 813.430 C 1371.993 793.621, 1368.187 789.463, 1364.500 785.568 C 1362.300 783.244, 1356.499 777.103, 1351.608 771.921 C 1346.717 766.740, 1332.992 752.570, 1321.108 740.433 C 1274.969 693.314, 1224.174 640.751, 1213.897 629.491 C 1207.052 621.991, 1193.987 607.467, 1190.190 603.135 C 1188.919 601.686, 1186.660 599.150, 1185.170 597.500 C 1169.362 580, 1126 526.483, 1126 524.473 C 1126 524.107, 1124.183 521.743, 1121.963 519.221 C 1119.743 516.698, 1118.163 514.018, 1118.452 513.265 C 1118.741 512.512, 1118.565 512.151, 1118.062 512.461 C 1117.037 513.095, 1115.044 510.330, 1097.548 484 C 1075.610 450.986, 1057.556 417.915, 1040.498 379.500 C 1037.760 373.336, 1029.112 351.186, 1026.052 342.502 C 1018.948 322.343, 1007.675 282.610, 1005.623 270.500 C 1005.343 268.850, 1004.428 264.125, 1003.590 260 C 1002.751 255.875, 1001.706 250.510, 1001.267 248.078 C 1000.827 245.646, 1000.014 243.505, 999.461 243.320 C 998.907 243.136, 990.974 250.526, 981.832 259.742" stroke="none" fill="#4b9782" fill-rule="evenodd"/>
</svg>