<svg xmlns="http://www.w3.org/2000/svg" width="2000" height="2000" viewBox="0 0 2000 2000" version="1.1">
	<path d="M 994.421 532.074 C 987.396 534.114, 959.900 566.356, 933.507 603.500 C 875.873 684.611, 835.287 774.933, 816.002 865 C 813.523 876.579, 808.411 908.815, 807.478 918.750 C 807.027 923.554, 806.372 926, 805.537 926 C 804.413 926, 798.934 923.711, 786.478 918.037 C 761.194 906.518, 723.435 892.932, 695 885.122 C 651.605 873.203, 602.691 867.363, 556.500 868.587 C 528.846 869.320, 523.157 871.038, 518 880.213 C 515.733 884.247, 514.398 892.087, 511.989 915.500 C 510.675 928.268, 510.683 981.244, 512 995 C 518.567 1063.566, 533.265 1120.931, 560.054 1182.544 C 599.565 1273.416, 662.862 1350.168, 740.657 1401.540 C 793.577 1436.485, 851.991 1460.473, 914.625 1472.981 C 966.186 1483.277, 1029.099 1483.444, 1082 1473.424 C 1176.624 1455.502, 1261.720 1410.429, 1330.031 1342.049 C 1394.399 1277.616, 1438.137 1200.619, 1466.392 1102 C 1474.201 1074.743, 1481.146 1037.537, 1484.656 1004.158 C 1487.089 981.012, 1487.561 932.054, 1485.579 908.280 C 1483.682 885.514, 1482.875 881.279, 1479.450 876.105 C 1473.777 867.532, 1463.556 865.579, 1424.500 865.604 C 1396.038 865.622, 1377.288 866.972, 1355 870.606 C 1303.499 879.005, 1255.592 894.104, 1209.091 916.595 C 1199.516 921.226, 1191.498 924.831, 1191.273 924.606 C 1191.047 924.381, 1189.772 916.165, 1188.439 906.348 C 1175.260 809.310, 1136.912 710.749, 1077.223 620.500 C 1058.465 592.137, 1029.498 553.827, 1016.064 539.614 C 1008.310 531.410, 1003.036 529.573, 994.421 532.074 M 996.252 682.750 C 986.176 695.707, 956.445 749.008, 947.304 770.500 C 946.135 773.250, 943.825 778.650, 942.170 782.500 C 927.309 817.090, 914.935 857.143, 907.571 894.500 C 903.036 917.503, 899.605 953.946, 900.182 972.966 L 900.500 983.432 910 991.321 C 924.966 1003.749, 941.237 1019.270, 955.788 1035 C 968.460 1048.699, 987.819 1072.010, 995.087 1082.322 C 996.901 1084.895, 998.694 1087, 999.072 1087 C 999.450 1087, 1001.698 1084.412, 1004.067 1081.250 C 1025.399 1052.775, 1057.321 1018.215, 1080.069 998.970 C 1086.225 993.761, 1092.666 988.299, 1094.381 986.832 L 1097.500 984.164 1097.451 964.832 C 1097.388 939.375, 1094.573 911.789, 1089.513 887.022 C 1076.492 823.297, 1049.950 758.261, 1012.166 697.500 C 1006.460 688.324, 1000.071 679, 999.490 679 C 999.313 679, 997.856 680.688, 996.252 682.750 M 1376.500 965.696 C 1374.300 965.918, 1365.750 967.225, 1357.500 968.601 C 1294.046 979.185, 1237.361 1002.795, 1180.004 1042.533 C 1143.738 1067.658, 1107.447 1101.828, 1083.390 1133.500 C 1074.165 1145.645, 1063.008 1162.274, 1055.971 1174.365 C 1049.978 1184.662, 1049.702 1185.419, 1050.682 1188.865 C 1051.250 1190.864, 1053.784 1199.250, 1056.312 1207.500 C 1070.980 1255.366, 1079.225 1298.884, 1083.645 1351.761 C 1085.266 1371.158, 1085.581 1373, 1087.279 1373 C 1092.793 1373, 1115.542 1365.966, 1133.500 1358.708 C 1190.912 1335.505, 1243.221 1296.992, 1284.493 1247.538 C 1327.668 1195.804, 1359.283 1134.061, 1375.911 1069 C 1383.477 1039.397, 1389.532 1000.182, 1390.193 976.500 L 1390.500 965.500 1385.500 965.396 C 1382.750 965.339, 1378.700 965.474, 1376.500 965.696 M 607 969.063 C 607 977.348, 609.400 1003.295, 611.534 1018.096 C 619.468 1073.098, 638.113 1128.387, 664.952 1176.500 C 694.915 1230.212, 730.038 1271.926, 774.500 1306.604 C 833.146 1352.346, 900.791 1377.552, 978.412 1382.587 L 989.324 1383.295 988.701 1366.897 C 986.261 1302.682, 969.042 1232.029, 943.536 1181.573 C 908.124 1111.522, 843.416 1049.325, 763.500 1008.524 C 737.142 995.066, 714.890 986.558, 684 978.124 C 663.791 972.606, 625.368 966.027, 613.250 966.009 L 607 966 607 969.063" stroke="none" fill="#30353a" fill-rule="evenodd"/>
</svg>