<svg xmlns="http://www.w3.org/2000/svg" width="2000" height="2000" viewBox="0 0 2000 2000" version="1.1">
	<path d="M 447.884 662.750 C 404.224 707.441, 367.063 761.855, 348.873 807.733 C 333.516 846.465, 326.886 875.371, 324.957 912 C 323.114 946.984, 321.858 952.988, 314.934 959.912 C 310.447 964.399, 304.587 966.951, 298.710 966.978 C 285.511 967.039, 274.526 953.480, 269.736 931.214 C 267.993 923.114, 267.655 918.176, 267.704 901.500 C 267.736 890.500, 268.186 878.462, 268.703 874.750 C 269.220 871.038, 269.500 868, 269.325 868 C 269.151 868, 263.806 878.397, 257.448 891.105 C 202.035 1001.849, 187.855 1087.008, 211.673 1166 C 228.125 1220.559, 264.600 1270.827, 311.430 1303.477 C 316.775 1307.203, 321.509 1309.858, 321.951 1309.376 C 323.492 1307.694, 331.021 1264.552, 331.010 1257.460 C 330.989 1242.875, 325.913 1231.208, 314.162 1218.733 C 305.010 1209.017, 301.688 1203.743, 299.552 1195.540 C 291.103 1163.094, 317.519 1097.040, 351.798 1064.896 C 365.584 1051.969, 377.435 1046.452, 389.871 1047.172 C 405.387 1048.071, 417.578 1059.567, 427.526 1082.681 C 436.231 1102.905, 440.316 1125.336, 440.423 1153.500 C 440.507 1175.207, 439.313 1186.071, 435.316 1200 C 430.050 1218.350, 422.694 1226.850, 404.565 1235.532 C 387.948 1243.490, 378.158 1253.184, 372.984 1266.801 C 371.262 1271.331, 359.517 1329.851, 360.193 1330.526 C 361.018 1331.350, 372.670 1335.612, 382.500 1338.685 C 410.250 1347.362, 430.902 1350.399, 462 1350.377 C 487.574 1350.358, 503.449 1348.418, 526.643 1342.478 C 539.166 1339.272, 558.558 1332.672, 560.333 1331.013 C 560.791 1330.584, 558.881 1318.594, 556.089 1304.367 C 551.888 1282.960, 550.402 1277.258, 547.474 1271.295 C 541.201 1258.523, 531.876 1250.134, 517.239 1244.098 C 503.480 1238.425, 495.616 1230.782, 490.446 1218.060 C 486.780 1209.037, 486.161 1206.219, 473.956 1143 C 461.161 1076.727, 461.185 1077.016, 467.926 1070.728 C 472.089 1066.845, 472.270 1066.784, 478.548 1067.184 C 485.396 1067.620, 488.703 1069.642, 491.567 1075.146 C 492.324 1076.601, 497.964 1103.826, 504.100 1135.646 C 510.236 1167.466, 515.413 1193.677, 515.604 1193.892 C 515.795 1194.108, 520.706 1193.470, 526.518 1192.473 C 537.020 1190.673, 537.081 1190.646, 536.528 1188.081 C 532.532 1169.559, 515 1075.652, 515 1072.772 C 515 1067.907, 516.916 1064.159, 521.428 1060.198 C 528.966 1053.579, 540.757 1055.341, 547.205 1064.051 C 548.581 1065.910, 552.083 1082.189, 560.114 1124.051 C 566.175 1155.648, 571.292 1182.004, 571.485 1182.619 C 571.733 1183.408, 574.894 1183.140, 582.169 1181.715 C 587.851 1180.602, 592.635 1179.588, 592.801 1179.462 C 592.966 1179.335, 588.098 1153.417, 581.982 1121.866 C 569.935 1059.713, 569.547 1056.253, 574.083 1051.397 C 578.074 1047.125, 581.740 1045.731, 587.686 1046.224 C 593.517 1046.707, 597.856 1049.773, 599.922 1054.867 C 601.904 1059.754, 624.115 1177.425, 624.675 1186 C 625.794 1203.152, 621.588 1214.130, 608.874 1227.240 C 598.761 1237.670, 593.523 1247.598, 591.798 1259.613 C 590.690 1267.330, 590.816 1268.722, 594.389 1288.113 C 596.456 1299.326, 598.373 1309.301, 598.650 1310.279 C 599.078 1311.794, 600.371 1311.210, 607.327 1306.358 C 676.045 1258.421, 718.009 1184.355, 721.820 1104.278 C 724.091 1056.549, 714.205 1017.524, 689.092 975.086 C 673.251 948.316, 649.949 920.333, 606.999 876.500 C 553.721 822.127, 535.059 801.072, 513.693 771.231 C 488.447 735.970, 470.918 696.929, 463.414 659.250 C 462.400 654.163, 461.295 650, 460.956 650 C 460.618 650, 454.735 655.737, 447.884 662.750 M 876 1093.987 L 876 1182 903.989 1182 L 931.979 1182 932.239 1139.633 L 932.500 1097.265 945.500 1139.617 L 958.500 1181.969 982.212 1181.985 L 1005.924 1182 1009.284 1171.250 C 1011.132 1165.338, 1017.112 1146.005, 1022.572 1128.289 L 1032.500 1096.079 1032.761 1139.039 L 1033.021 1182 1060.511 1182 L 1088 1182 1088 1094 L 1088 1006 1054.250 1006.008 L 1020.500 1006.016 1002.586 1056.258 C 992.733 1083.891, 984.261 1107.625, 983.759 1109 C 982.987 1111.116, 979.883 1103.436, 963.544 1059 L 944.241 1006.500 910.121 1006.237 L 876 1005.974 876 1093.987 M 1096 1094.006 L 1096 1182.011 1179.667 1181.756 L 1263.333 1181.500 1267.750 1168.250 L 1272.167 1155 1301.375 1155 L 1330.583 1155 1335 1168.500 L 1339.417 1182 1420.709 1182 L 1502 1182 1502 1161 L 1502 1140 1475.500 1140 L 1449 1140 1449 1073 L 1449 1006 1421.006 1006 L 1393.012 1006 1392.756 1086.750 L 1392.500 1167.500 1363.080 1086.750 L 1333.660 1006 1301.580 1006.020 L 1269.500 1006.040 1242 1081.384 L 1214.500 1156.729 1214.214 1147.364 L 1213.928 1138 1182.464 1138 L 1151 1138 1151 1125.500 L 1151 1113 1178.500 1113 L 1206 1113 1206 1092 L 1206 1071 1178.500 1071 L 1151 1071 1151 1060.514 L 1151 1050.028 1182.250 1049.764 L 1213.500 1049.500 1213.770 1027.750 L 1214.039 1006 1155.020 1006 L 1096 1006 1096 1094.006 M 1492.230 1027.750 L 1492.500 1049.500 1515.750 1049.768 L 1539 1050.037 1539 1116.018 L 1539 1182 1566.500 1182 L 1594 1182 1594 1116.018 L 1594 1050.037 1617.250 1049.768 L 1640.500 1049.500 1641 1042.353 L 1641.500 1035.205 1665.250 1081.441 L 1689 1127.676 1689 1154.838 L 1689 1182 1717 1182 L 1745 1182 1745 1155.065 L 1745 1128.131 1768.089 1083.315 C 1780.787 1058.667, 1794.979 1031.188, 1799.626 1022.250 L 1808.075 1006 1776.787 1006.024 L 1745.500 1006.048 1731.607 1037.048 C 1723.966 1054.098, 1717.614 1067.925, 1717.490 1067.774 C 1717.366 1067.623, 1711.053 1053.662, 1703.461 1036.750 L 1689.657 1006 1590.809 1006 L 1491.961 1006 1492.230 1027.750 M 1293.550 1088.978 C 1289.397 1101.617, 1286 1112.417, 1286 1112.978 C 1286 1113.630, 1291.615 1114, 1301.500 1114 C 1310.025 1114, 1317 1113.733, 1317 1113.407 C 1317 1112.330, 1301.800 1066, 1301.446 1066 C 1301.256 1066, 1297.702 1076.340, 1293.550 1088.978" stroke="none" fill="#4b9782" fill-rule="evenodd"/>
</svg>