<svg xmlns="http://www.w3.org/2000/svg" width="2000" height="2000" viewBox="0 0 2000 2000" version="1.1">
	<rect x="0" y="0" width="100%" height="100%" fill="#4e9680" />
	<path d="M 451.791 657.750 C 442.378 667.471, 436.052 674.367, 424.962 687 C 420.858 691.675, 416.938 695.860, 416.250 696.300 C 415.563 696.740, 415 697.547, 415 698.093 C 415 698.640, 412.854 701.666, 410.231 704.818 C 407.608 707.970, 402.628 714.475, 399.163 719.274 C 395.698 724.073, 392.444 728, 391.932 728 C 391.419 728, 391.113 728.367, 391.250 728.815 C 391.388 729.264, 387.861 735.226, 383.414 742.065 C 366.656 767.834, 356.341 787.158, 348.462 807.544 C 331.314 851.912, 326.072 876.166, 323.978 920.822 C 323.359 934.017, 322.379 944.528, 321.472 947.684 C 317.069 963.006, 301.023 970.892, 288.810 963.734 C 280.497 958.863, 274.973 949.961, 270.979 935 C 269.082 927.895, 268.634 923.152, 268.250 906.104 C 267.964 893.456, 268.241 882.123, 268.978 876.270 C 269.631 871.079, 269.970 866.637, 269.731 866.397 C 268.766 865.433, 242.116 920.809, 235.031 938.500 C 233.269 942.900, 231.430 947.400, 230.945 948.500 C 224.061 964.116, 211.707 1004.182, 207.049 1026 C 198.478 1066.147, 197.948 1108.239, 205.569 1143.500 C 219.660 1208.690, 256.953 1265.305, 310.879 1303.378 C 316.038 1307.020, 320.820 1310, 321.505 1310 C 322.654 1310, 327.939 1285.361, 330.964 1265.903 C 332.826 1253.923, 329.726 1239.092, 323.145 1228.500 C 321.779 1226.300, 317.192 1220.878, 312.954 1216.452 C 304.567 1207.694, 301.789 1203.125, 299.495 1194.320 C 296.533 1182.947, 298.353 1165.057, 304.512 1145 C 316.509 1105.936, 343.272 1066.858, 367.500 1053.028 C 375.190 1048.638, 383.288 1046.644, 390.641 1047.331 C 400.569 1048.258, 407.429 1052.633, 417.560 1064.500 C 420.603 1068.064, 430 1087.154, 430 1089.772 C 430 1090.777, 430.418 1092.027, 430.930 1092.550 C 432.376 1094.028, 436.674 1112.273, 438.573 1125 C 442.061 1148.371, 440.415 1182.723, 434.955 1200.500 C 429.027 1219.800, 420.619 1228.432, 399.250 1237.161 C 397.462 1237.891, 396 1238.828, 396 1239.244 C 396 1239.660, 395.415 1240, 394.700 1240 C 392.431 1240, 381.793 1250.253, 378.045 1256.051 C 373.232 1263.498, 370.733 1271.797, 366.465 1294.500 C 364.501 1304.950, 362.243 1316.811, 361.447 1320.857 C 360.651 1324.903, 360 1328.808, 360 1329.534 C 360 1333.604, 404.728 1346.119, 430 1349.121 C 444.751 1350.873, 482.484 1350.901, 495 1349.169 C 511.448 1346.893, 544.378 1338.789, 552.500 1335.018 C 553.600 1334.507, 556.136 1333.439, 558.135 1332.644 L 561.770 1331.198 559.936 1321.849 C 558.928 1316.707, 556.701 1305.075, 554.989 1296 C 551.068 1275.227, 547.126 1266.307, 537.588 1256.626 C 532.194 1251.153, 529.192 1249.184, 517.676 1243.568 C 506.037 1237.892, 503.471 1236.199, 499.559 1231.621 C 493.775 1224.850, 488.784 1214.005, 486.157 1202.500 C 485.027 1197.550, 480.446 1174.375, 475.978 1151 C 471.509 1127.625, 466.726 1102.875, 465.349 1096 C 461.914 1078.854, 462.901 1073.470, 470.304 1068.956 C 477.704 1064.444, 488.832 1068.168, 491.876 1076.174 C 492.430 1077.630, 494.505 1087.299, 496.489 1097.661 C 498.472 1108.022, 501.852 1125.500, 504.001 1136.500 C 506.149 1147.500, 509.522 1164.822, 511.497 1174.994 C 513.472 1185.165, 515.405 1193.770, 515.794 1194.116 C 517.027 1195.213, 537 1190.783, 537 1189.412 C 537 1188.720, 535.407 1179.907, 533.460 1169.827 C 531.513 1159.747, 527.892 1140.925, 525.413 1128 C 522.934 1115.075, 519.509 1097.399, 517.803 1088.721 C 515.048 1074.705, 514.841 1072.475, 515.951 1068.770 C 520.244 1054.440, 539.779 1051.896, 547.253 1064.694 C 548.847 1067.422, 552.561 1084.828, 559.375 1121.500 C 561.987 1135.557, 571.363 1183.508, 571.556 1183.794 C 571.815 1184.177, 592.337 1179.997, 592.884 1179.450 C 593.382 1178.951, 592.206 1171.945, 588.022 1150.500 C 569.620 1056.173, 570.143 1059.423, 572.581 1054.444 C 578.018 1043.343, 593.898 1043.086, 599.188 1054.013 C 600.117 1055.931, 603.366 1070.775, 606.410 1087 C 609.453 1103.225, 612.618 1119.650, 613.442 1123.500 C 616.898 1139.651, 622.954 1172.138, 624.048 1180.393 C 625.876 1194.191, 623.834 1206.497, 618.242 1215.393 C 616.896 1217.534, 612.247 1223.051, 607.912 1227.654 C 599.813 1236.252, 597.624 1239.670, 593.793 1249.704 C 590.735 1257.713, 590.745 1272.550, 593.817 1287 C 595.045 1292.775, 596.533 1299.975, 597.122 1303 C 599.050 1312.885, 598.390 1312.753, 609 1305.361 C 614.225 1301.720, 619.899 1297.562, 621.609 1296.120 C 623.320 1294.679, 626.245 1292.223, 628.109 1290.663 C 636.237 1283.862, 648.818 1272.162, 652.500 1267.978 C 667.882 1250.503, 675.794 1240.079, 684.201 1226.214 C 719.498 1168.003, 730.917 1102.036, 716.524 1039.500 C 708.970 1006.681, 691.515 973.382, 663.293 937.949 C 645.788 915.972, 635.869 905.141, 593.559 861.804 C 563.620 831.137, 556.065 823.043, 541.469 806 C 528.443 790.789, 524.997 786.336, 525.705 785.628 C 526.051 785.283, 525.851 785, 525.261 785 C 524.672 785, 521.328 781.063, 517.830 776.250 C 489.075 736.683, 471.550 697.851, 462.999 654.750 C 462.372 651.587, 461.500 649, 461.062 649 C 460.623 649, 456.452 652.938, 451.791 657.750 M 872 1062.500 L 872 1151 900 1151 L 928 1151 928 1109.833 C 928 1087.192, 928.246 1068.913, 928.547 1069.214 C 929.009 1069.675, 954 1149.637, 954 1150.652 C 954 1151.456, 1001.930 1150.922, 1002.430 1150.113 C 1002.732 1149.625, 1005.037 1142.538, 1007.553 1134.363 C 1016.918 1103.935, 1019.962 1094.165, 1024.177 1081 L 1028.500 1067.500 1029 1109.312 L 1029.500 1151.124 1057.250 1151.312 L 1084.999 1151.500 1085 1064.332 C 1085 1016.389, 1084.727 976.452, 1084.393 975.582 C 1083.856 974.183, 1079.881 974, 1049.940 974 L 1016.094 974 1015.138 977.250 C 1014.611 979.038, 1010.289 991.300, 1005.532 1004.500 C 1000.775 1017.700, 994.675 1034.800, 991.978 1042.500 C 984.292 1064.438, 979.843 1076.434, 979.088 1077.254 C 978.705 1077.668, 976.110 1071.818, 973.320 1064.254 C 970.530 1056.689, 964.096 1039.250, 959.022 1025.500 C 953.949 1011.750, 947.868 995.025, 945.509 988.334 C 943.151 981.642, 940.920 975.680, 940.552 975.084 C 940.092 974.340, 929.237 974, 905.941 974 L 872 974 872 1062.500 M 1092 1062.750 L 1092 1151.500 1175.898 1151.239 L 1259.796 1150.978 1263.966 1137.989 L 1268.136 1125 1297.377 1125 L 1326.618 1125 1330.414 1136.861 C 1332.502 1143.385, 1334.524 1149.229, 1334.907 1149.850 C 1335.414 1150.671, 1357.601 1150.987, 1416.552 1151.012 L 1497.500 1151.048 1497.770 1130.024 L 1498.040 1109 1471.527 1109 L 1445.014 1109 1444.757 1041.750 L 1444.500 974.500 1416.750 974.234 L 1389 973.968 1388.936 1054.234 C 1388.880 1124.349, 1388.692 1134.121, 1387.452 1131.500 C 1386.671 1129.850, 1383.744 1122.200, 1380.948 1114.500 C 1378.152 1106.800, 1374.780 1097.575, 1373.456 1094 C 1372.131 1090.425, 1366.976 1076.250, 1362 1062.500 C 1357.024 1048.750, 1349.778 1028.871, 1345.899 1018.325 C 1342.019 1007.779, 1338.724 998.554, 1338.576 997.825 C 1338.312 996.522, 1337.351 993.935, 1334.555 987 C 1333.779 985.075, 1332.376 981.362, 1331.436 978.750 L 1329.728 974 1297.411 974 L 1265.094 974 1264.135 977.473 C 1263.608 979.384, 1261.590 985.121, 1259.653 990.223 C 1256.333 998.964, 1247.116 1024.191, 1236.534 1053.500 C 1233.952 1060.650, 1231.227 1068.075, 1230.478 1070 C 1229.003 1073.789, 1218.074 1103.529, 1213.389 1116.500 L 1210.500 1124.500 1210 1115 C 1209.725 1109.775, 1209.162 1105.612, 1208.750 1105.750 C 1208.338 1105.888, 1194.500 1106, 1178 1106 L 1148 1106 1148 1094 L 1148 1082 1175.500 1082 L 1203 1082 1203 1061 L 1203 1040 1175.500 1040 L 1148 1040 1148 1029.500 L 1148 1019 1179 1019 L 1210 1019 1210 996.500 L 1210 974 1151 974 L 1092 974 1092 1062.750 M 1488 996.500 L 1488 1019 1511 1019 L 1534 1019 1534 1085 L 1534 1151 1561.893 1151 C 1583.305 1151, 1589.889 1150.710, 1590.228 1149.750 C 1590.472 1149.063, 1590.545 1120.150, 1590.391 1085.500 C 1590.237 1050.850, 1590.341 1021.712, 1590.623 1020.750 C 1591.091 1019.149, 1593.089 1019, 1614.067 1019 L 1637 1019 1637.118 1013.250 C 1637.184 1010.087, 1637.151 1007.050, 1637.047 1006.500 C 1636.487 1003.552, 1640.403 1010.725, 1657.518 1044 C 1667.844 1064.075, 1678.252 1084.272, 1680.646 1088.882 L 1685 1097.264 1685 1124.073 C 1685 1138.818, 1685.338 1151.021, 1685.750 1151.191 C 1686.162 1151.361, 1698.763 1151.373, 1713.750 1151.219 L 1741 1150.937 1741 1124.326 L 1741 1097.716 1747.382 1085.608 C 1750.891 1078.949, 1758.818 1063.600, 1764.996 1051.500 C 1771.174 1039.400, 1778.823 1024.550, 1781.993 1018.500 C 1795.590 992.551, 1804 975.927, 1804 974.998 C 1804 974.355, 1792.857 974, 1772.726 974 L 1741.451 974 1734.062 990.750 C 1720.014 1022.593, 1714.057 1035.390, 1713.528 1034.861 C 1713.066 1034.399, 1698.443 1002.542, 1690.527 984.750 L 1685.743 974 1586.872 974 L 1488 974 1488 996.500 M 1294.578 1043.784 C 1293.057 1048.340, 1291.698 1052.615, 1291.558 1053.284 C 1291.417 1053.953, 1291.016 1055.175, 1290.667 1056 C 1290.317 1056.825, 1288.278 1063.013, 1286.134 1069.750 L 1282.237 1082 1297.119 1082 C 1308.371 1082, 1311.994 1081.695, 1311.974 1080.750 C 1311.960 1080.063, 1308.663 1069.600, 1304.646 1057.500 L 1297.343 1035.500 1294.578 1043.784" stroke="none" fill="#fffae5" fill-rule="evenodd"/>
</svg>