<svg xmlns="http://www.w3.org/2000/svg" width="2000" height="2000" viewBox="0 0 2000 2000" version="1.1">
	<rect x="0" y="0" width="100%" height="100%" fill="#4e9680" />
	<path d="M 985.792 423.753 C 946.045 463.886, 907.291 515.249, 883.748 559 C 881.528 563.125, 878.145 569.425, 876.230 573 C 871.340 582.128, 865.850 594.886, 858.801 613.500 C 842.758 655.864, 835.993 686.918, 833.967 727.500 C 832.403 758.819, 831.251 769.891, 828.921 776 C 825.793 784.201, 820.752 789.753, 813.242 793.268 C 807.709 795.857, 806.046 796.191, 800.992 795.733 C 793.153 795.022, 786.049 791.047, 781.077 784.590 C 765.664 764.575, 761.153 732.269, 766.540 680.500 L 767.165 674.500 764.463 679 C 760.687 685.287, 743.274 720.174, 737.011 734 C 709.271 795.233, 693.224 846.196, 686.064 895.797 C 678.034 951.426, 683.273 1003.984, 702.039 1056.056 C 706.863 1069.443, 721.735 1100.061, 728.921 1111.403 C 731.676 1115.749, 733.650 1119.757, 733.310 1120.307 C 732.970 1120.858, 733.113 1121.048, 733.628 1120.730 C 734.143 1120.412, 735.661 1121.804, 737.001 1123.825 C 751.393 1145.530, 775.392 1171.941, 796 1188.752 C 801.775 1193.463, 806.960 1197.808, 807.523 1198.409 C 808.086 1199.009, 809.268 1199.950, 810.150 1200.500 C 811.032 1201.050, 815.950 1204.320, 821.078 1207.767 C 828.228 1212.572, 830.581 1213.713, 831.171 1212.659 C 831.594 1211.903, 832.605 1207.508, 833.417 1202.892 C 834.230 1198.277, 836.493 1186.265, 838.447 1176.200 C 842.335 1156.175, 842.941 1144.631, 840.622 1134.779 C 839.882 1131.632, 839.514 1128.820, 839.805 1128.529 C 840.095 1128.238, 839.857 1128, 839.275 1128 C 838.693 1128, 837.916 1126.763, 837.547 1125.250 C 836.181 1119.637, 828.863 1109.224, 819.803 1100 C 805.748 1085.691, 801.632 1075.722, 801.752 1056.280 C 801.901 1032.050, 809.635 1004.791, 825.203 973.634 C 835.230 953.566, 850.762 930.117, 853.080 931.549 C 853.573 931.854, 853.753 931.518, 853.480 930.802 C 852.887 929.248, 867.717 913.874, 875.831 907.630 C 883.832 901.473, 894.693 896.165, 902.703 894.496 C 936.071 887.543, 962.655 923.461, 972.647 989 C 974.869 1003.577, 975.117 1039.386, 973.112 1056 C 971.684 1067.823, 967.577 1083.596, 963.781 1091.834 C 957.446 1105.583, 947.677 1115.477, 936 1119.969 C 915.081 1128.017, 902.001 1139.198, 894.434 1155.500 C 892.500 1159.667, 890.157 1167.560, 888.646 1175 C 882.021 1207.613, 876.910 1235.344, 877.191 1237.160 C 877.518 1239.283, 880.186 1240.462, 897.500 1246.136 C 921.261 1253.921, 936.416 1257.472, 959.500 1260.662 C 979.506 1263.426, 1023.421 1263.193, 1043 1260.219 C 1061.872 1257.352, 1077.962 1253.914, 1091 1249.961 C 1102.736 1246.404, 1120.073 1240.148, 1121.302 1239.027 C 1121.743 1238.625, 1121.646 1236.317, 1121.087 1233.898 C 1120.528 1231.479, 1118.214 1219.600, 1115.945 1207.500 C 1108.659 1168.650, 1106.008 1161.954, 1092.547 1148.394 C 1086.151 1141.951, 1082.858 1139.515, 1076.500 1136.524 C 1072.100 1134.453, 1065.274 1131.239, 1061.332 1129.381 C 1051.714 1124.849, 1043.197 1116.332, 1038.484 1106.534 C 1033.176 1095.498, 1031.422 1089.624, 1027.490 1069.726 C 1025.509 1059.702, 1023.256 1048.350, 1022.483 1044.500 C 1021.710 1040.650, 1019.235 1027.825, 1016.984 1016 C 1014.732 1004.175, 1012.205 990.900, 1011.367 986.500 C 1008.476 971.316, 1004.022 948.486, 1003.013 943.674 C 1000.847 933.354, 1002.281 927.595, 1008.338 922.276 C 1019.798 912.215, 1035.826 918.528, 1038.892 934.312 C 1039.863 939.316, 1043.014 955.617, 1056.032 1023 C 1059.379 1040.325, 1062.798 1058.307, 1063.629 1062.959 C 1064.460 1067.612, 1065.342 1071.745, 1065.589 1072.143 C 1065.835 1072.542, 1067.716 1072.617, 1069.768 1072.310 C 1077.099 1071.214, 1091.104 1068.229, 1091.696 1067.637 C 1092.254 1067.079, 1090.517 1057.418, 1081.514 1011 C 1079.647 1001.375, 1075.819 981.575, 1073.009 967 C 1070.198 952.425, 1067.246 937.258, 1066.450 933.296 C 1064.653 924.357, 1065.777 917.940, 1070.045 912.762 C 1078.142 902.938, 1094.322 902.463, 1102.194 911.818 C 1106.026 916.372, 1107.410 921.138, 1111.976 945.500 C 1114.244 957.600, 1117.196 973.125, 1118.538 980 C 1119.879 986.875, 1122.585 1000.825, 1124.551 1011 C 1131.204 1045.435, 1133.976 1059.310, 1134.260 1059.593 C 1134.415 1059.748, 1140.508 1058.723, 1147.799 1057.315 C 1158.883 1055.175, 1160.981 1054.488, 1160.593 1053.127 C 1160.337 1052.232, 1158.279 1041.825, 1156.019 1030 C 1153.759 1018.175, 1151.060 1004.225, 1150.022 999 C 1148.983 993.775, 1146.730 982.075, 1145.015 973 C 1141.877 956.392, 1139.998 946.752, 1135.952 926.500 C 1133.110 912.274, 1133.009 906.379, 1135.535 902.066 C 1143.012 889.303, 1159.820 888.751, 1166.837 901.038 C 1168.888 904.629, 1170.422 910.271, 1172.858 923.178 C 1174.656 932.705, 1176.535 942.300, 1177.034 944.500 C 1177.533 946.700, 1179.272 955.475, 1180.898 964 C 1182.524 972.525, 1186.346 992.325, 1189.390 1008 C 1197.522 1049.874, 1198.959 1058.878, 1198.963 1068 C 1198.966 1076.777, 1196.635 1087.236, 1193.057 1094.500 C 1189.476 1101.770, 1182.711 1109.558, 1180.933 1108.459 C 1180.109 1107.950, 1179.944 1108.101, 1180.443 1108.909 C 1180.916 1109.672, 1178.961 1112.454, 1175.196 1116.374 C 1167.877 1123.997, 1160.700 1138.080, 1158.954 1148.250 C 1156.987 1159.701, 1157.906 1168.089, 1165.036 1203.750 C 1166.273 1209.938, 1167.599 1215, 1167.984 1215 C 1168.368 1215, 1172.549 1212.412, 1177.275 1209.250 C 1208.331 1188.467, 1243.393 1153.554, 1263.055 1123.833 C 1266.451 1118.700, 1270 1113.375, 1270.942 1112 C 1271.883 1110.625, 1274.262 1106.575, 1276.228 1103 C 1298.175 1063.086, 1309.999 1027.828, 1315.664 985.405 C 1317.758 969.719, 1318.016 932.841, 1316.145 916.500 C 1311.245 873.701, 1296.500 834.572, 1270.172 794.500 C 1262.862 783.374, 1251.422 767.567, 1246.364 761.605 C 1244.547 759.463, 1243.305 757.315, 1243.605 756.831 C 1243.904 756.347, 1243.745 756.074, 1243.251 756.225 C 1242.757 756.376, 1239.699 753.350, 1236.456 749.500 C 1218.302 727.952, 1211.324 720.557, 1144.454 652.001 C 1134.528 641.826, 1125.753 632.713, 1124.954 631.751 C 1124.154 630.789, 1121.307 627.639, 1118.628 624.751 C 1115.948 621.863, 1109.683 614.775, 1104.706 609 C 1099.729 603.225, 1095.160 598.050, 1094.554 597.500 C 1090.367 593.704, 1066.896 562.813, 1057.325 548.500 C 1030.740 508.747, 1014.183 471.021, 1004.440 428 C 1002.384 418.925, 1000.411 411.164, 1000.055 410.753 C 999.698 410.343, 993.280 416.193, 985.792 423.753 M 1223.250 1317.757 L 1156 1318.014 1156 1340.507 L 1156 1363 1179 1363 L 1202 1363 1202 1428.969 L 1202 1494.938 1229.750 1495.219 C 1245.013 1495.374, 1257.586 1495.489, 1257.691 1495.475 C 1257.796 1495.462, 1257.965 1466.215, 1258.066 1430.483 C 1258.166 1394.751, 1258.466 1364.949, 1258.731 1364.258 C 1259.100 1363.298, 1264.640 1363, 1282.107 1363 L 1305 1363 1305 1356.441 C 1305 1352.728, 1305.397 1350.127, 1305.915 1350.448 C 1306.419 1350.759, 1310.976 1359.223, 1316.043 1369.257 C 1321.110 1379.290, 1325.581 1387.950, 1325.978 1388.500 C 1326.374 1389.050, 1332.617 1401.043, 1339.850 1415.150 L 1353 1440.800 1353 1467.900 L 1353 1495 1381.476 1495 L 1409.951 1495 1409.600 1468.750 L 1409.248 1442.500 1422.256 1417 C 1429.411 1402.975, 1438.296 1385.650, 1442.001 1378.500 C 1470.349 1323.797, 1472 1320.529, 1472 1319.105 C 1472 1317.918, 1412.612 1317.444, 1409.582 1318.607 C 1408.712 1318.941, 1408 1319.997, 1408 1320.953 C 1408 1321.910, 1407.350 1323.999, 1406.556 1325.596 C 1405.762 1327.193, 1400.173 1339.467, 1394.135 1352.871 C 1388.098 1366.275, 1382.747 1377.653, 1382.244 1378.156 C 1381.354 1379.046, 1379.262 1374.906, 1371.302 1356.500 C 1369.399 1352.100, 1367.118 1346.925, 1366.233 1345 C 1365.348 1343.075, 1362.274 1336.325, 1359.400 1330 L 1354.176 1318.500 1322.338 1318 C 1304.827 1317.725, 1260.237 1317.616, 1223.250 1317.757 M 540 1406.500 L 540 1495 567.989 1495 L 595.978 1495 596.239 1453.250 L 596.500 1411.500 599.658 1422 C 601.395 1427.775, 606.958 1445.775, 612.019 1462 C 617.080 1478.225, 621.449 1492.287, 621.727 1493.250 C 622.191 1494.854, 624.227 1495, 646.058 1495 C 660.263 1495, 670.122 1494.611, 670.478 1494.036 C 670.988 1493.210, 681.553 1459.511, 685.537 1446 C 691.208 1426.767, 695.445 1414, 696.156 1414 C 696.620 1414, 697 1432.232, 697 1454.516 L 697 1495.032 724.750 1494.766 L 752.500 1494.500 752.775 1408.500 C 752.926 1361.200, 752.805 1321.487, 752.506 1320.250 L 751.962 1318 718.048 1318 L 684.135 1318 683.478 1320.250 C 682.641 1323.119, 676.775 1339.703, 672.247 1352 C 668.829 1361.283, 664.420 1373.686, 653.424 1404.955 C 650.435 1413.456, 647.620 1420.780, 647.167 1421.233 C 646.715 1421.685, 643.496 1414.280, 640.013 1404.777 C 636.531 1395.275, 629.436 1376.025, 624.248 1362 C 619.059 1347.975, 613.995 1334.025, 612.995 1331 C 611.995 1327.975, 610.456 1323.813, 609.575 1321.750 L 607.973 1318 573.987 1318 L 540 1318 540 1406.500 M 760 1406.500 L 760 1495 843.779 1495 L 927.557 1495 931.924 1482 L 936.290 1469 965.439 1469 L 994.588 1469 997.373 1477.750 C 998.905 1482.563, 1000.859 1488.412, 1001.715 1490.750 L 1003.272 1495 1084.636 1495 L 1166 1495 1166 1474 L 1166 1453 1140.750 1452.985 C 1126.862 1452.976, 1114.941 1452.614, 1114.257 1452.180 C 1113.291 1451.567, 1112.957 1436.578, 1112.757 1384.945 L 1112.500 1318.500 1084.750 1318.234 L 1057 1317.968 1056.970 1398.234 C 1056.950 1448.639, 1056.591 1477.904, 1056.002 1476.897 C 1055.148 1475.436, 1048.814 1458.325, 1039.012 1431 C 1034.795 1419.243, 1021.992 1384.189, 1019.107 1376.500 C 1018.075 1373.750, 1014.197 1363.175, 1010.489 1353 C 1006.781 1342.825, 1002.728 1331.800, 1001.482 1328.500 C 1000.236 1325.200, 998.913 1321.487, 998.541 1320.250 L 997.865 1318 965.680 1318 L 933.495 1318 928.128 1332.750 C 925.176 1340.862, 920.622 1353.350, 918.008 1360.500 C 915.393 1367.650, 910.230 1381.825, 906.533 1392 C 902.837 1402.175, 898.319 1414.550, 896.494 1419.500 C 894.668 1424.450, 890.194 1436.600, 886.550 1446.500 C 877.605 1470.806, 878.146 1470.002, 878.068 1459.110 L 878 1449.720 847.250 1450.110 L 816.500 1450.500 816.219 1438.250 L 815.938 1426 843.469 1426 L 871 1426 871 1405 L 871 1384 843.500 1384 L 816 1384 816 1373.500 L 816 1363 847 1363 L 878 1363 878 1340.500 L 878 1318 819 1318 L 760 1318 760 1406.500 M 957.813 1402.500 L 950.393 1425.500 964.836 1425.778 C 972.779 1425.930, 979.520 1425.813, 979.816 1425.517 C 980.309 1425.024, 973.031 1401.628, 967.524 1386 L 965.233 1379.501 957.813 1402.500" stroke="none" fill="#fffae5" fill-rule="evenodd"/>
</svg>