<svg xmlns="http://www.w3.org/2000/svg" width="2000" height="2000" viewBox="0 0 2000 2000" version="1.1">
	<path d="M 986.207 439.474 C 907.202 521.284, 857.860 606.722, 840.570 691.649 C 836.117 713.527, 834.621 727.384, 832.978 762 C 832.443 773.275, 831.368 784.869, 830.589 787.764 C 826.613 802.551, 814.960 812.520, 801.914 812.296 C 782.766 811.967, 768.813 790.001, 764.886 754.006 C 763.663 742.802, 764.251 711.890, 765.921 699.515 C 766.440 695.674, 766.707 692.374, 766.515 692.182 C 765.902 691.568, 741.514 740.870, 733.707 758.505 C 707.368 818.003, 692.892 866.030, 685.436 918.650 C 682.993 935.893, 682.464 975.398, 684.428 994 C 692.197 1067.592, 723.749 1133.770, 775.980 1186.026 C 783.416 1193.465, 794.450 1203.507, 800.500 1208.341 C 810.874 1216.629, 830.068 1230.265, 830.605 1229.729 C 831.361 1228.972, 841.226 1175.359, 841.697 1169.443 C 842.509 1159.248, 839.941 1147.601, 834.394 1136.319 C 830.771 1128.952, 828.182 1125.396, 821.289 1118.319 C 811.026 1107.783, 806.858 1101.696, 803.986 1093.050 C 791.692 1056.031, 821.725 975.845, 863.390 934.448 C 877.762 920.168, 891.008 912.191, 903.985 910.002 C 932.013 905.275, 955.307 930.752, 967.526 979.500 C 973.151 1001.939, 974.434 1013.461, 974.433 1041.500 C 974.431 1067.787, 973.408 1077.475, 968.888 1094 C 963.489 1113.739, 952.687 1128.290, 938.500 1134.939 C 917.185 1144.928, 916.661 1145.254, 907.786 1154.035 C 900.637 1161.110, 898.340 1164.183, 894.996 1171.152 C 891.288 1178.879, 890.292 1182.888, 883.960 1215.562 C 880.132 1235.315, 877 1252.187, 877 1253.055 C 877 1256.063, 912.298 1267.534, 936.775 1272.481 C 958.613 1276.894, 974.807 1278.421, 1000 1278.442 C 1026.094 1278.463, 1039.492 1277.264, 1061 1272.985 C 1081.400 1268.926, 1117.273 1258.127, 1120.251 1255.149 C 1121.332 1254.068, 1110.839 1198.466, 1107.865 1189.518 C 1101.948 1171.715, 1084.534 1154.232, 1067.500 1148.992 C 1051.607 1144.104, 1039.494 1130.551, 1032.404 1109.723 C 1028.688 1098.810, 1000.768 952.751, 1001.575 948.451 C 1002.394 944.085, 1007.098 937.518, 1010.765 935.622 C 1021.012 930.323, 1033.614 934.900, 1037.401 945.297 C 1038.244 947.608, 1044.863 980.550, 1052.112 1018.500 C 1059.361 1056.450, 1065.564 1087.816, 1065.898 1088.202 C 1066.415 1088.801, 1090.881 1084.573, 1091.488 1083.780 C 1091.606 1083.626, 1085.703 1052.450, 1078.372 1014.500 C 1071.040 976.550, 1065.032 943.433, 1065.021 940.907 C 1064.992 934.454, 1068.485 928.264, 1074.420 924.250 C 1078.608 921.418, 1080.053 921, 1085.663 921 C 1095.005 921, 1101.186 924.582, 1105.136 932.285 C 1106.361 934.676, 1112.019 961.708, 1120.490 1005.654 C 1127.868 1043.925, 1134.038 1075.349, 1134.202 1075.484 C 1134.520 1075.748, 1159.323 1071.010, 1159.724 1070.610 C 1159.854 1070.479, 1153.896 1038.901, 1146.482 1000.436 C 1139.069 961.971, 1133.003 928.570, 1133.002 926.210 C 1132.998 916.516, 1140.545 908.916, 1150.840 908.246 C 1157.770 907.795, 1162.244 909.935, 1166.286 915.635 C 1168.823 919.213, 1170.316 926.018, 1183.040 992.031 C 1198.277 1071.084, 1199.535 1078.992, 1198.573 1089.691 C 1197.146 1105.579, 1193.312 1113.354, 1179.773 1127.818 C 1164.203 1144.451, 1158 1158.205, 1158 1176.094 C 1158 1183.017, 1165.977 1229.310, 1167.418 1230.752 C 1168.006 1231.339, 1184.784 1219.782, 1194.969 1211.776 C 1270.118 1152.698, 1314.184 1065.694, 1316.664 971.500 C 1318.669 895.397, 1294.503 835.182, 1232.787 762.500 C 1216.879 743.765, 1205.839 731.982, 1162.980 688 C 1145.562 670.125, 1126.331 650.100, 1120.245 643.500 C 1051.336 568.769, 1016.655 508.075, 1002.005 436.569 C 1000.886 431.106, 999.814 426.481, 999.623 426.290 C 999.432 426.098, 993.394 432.032, 986.207 439.474 M 540 1422.987 L 540 1511 567.989 1511 L 595.979 1511 596.239 1468.633 L 596.500 1426.265 609.500 1468.617 L 622.500 1510.969 646.212 1510.985 L 669.924 1511 673.284 1500.250 C 675.132 1494.338, 681.112 1475.005, 686.572 1457.289 L 696.500 1425.079 696.761 1468.039 L 697.021 1511 724.511 1511 L 752 1511 752 1423 L 752 1335 718.250 1335.008 L 684.500 1335.016 666.586 1385.258 C 656.733 1412.891, 648.261 1436.625, 647.759 1438 C 646.987 1440.116, 643.883 1432.436, 627.544 1388 L 608.241 1335.500 574.121 1335.237 L 540 1334.974 540 1422.987 M 760 1423.006 L 760 1511.011 843.667 1510.756 L 927.333 1510.500 931.750 1497.250 L 936.167 1484 965.375 1484 L 994.583 1484 999 1497.500 L 1003.417 1511 1084.709 1511 L 1166 1511 1166 1490 L 1166 1469 1139.500 1469 L 1113 1469 1113 1402 L 1113 1335 1085.006 1335 L 1057.012 1335 1056.756 1415.750 L 1056.500 1496.500 1027.080 1415.750 L 997.660 1335 965.580 1335.020 L 933.500 1335.040 906 1410.384 L 878.500 1485.729 878.214 1476.364 L 877.928 1467 846.964 1467 L 816 1467 816 1454.500 L 816 1442 843 1442 L 870 1442 870 1421 L 870 1400 843 1400 L 816 1400 816 1389.500 L 816 1379 847 1379 L 878 1379 878 1357 L 878 1335 819 1335 L 760 1335 760 1423.006 M 1156.230 1356.750 L 1156.500 1378.500 1179.750 1378.768 L 1203 1379.037 1203 1445.018 L 1203 1511 1230.500 1511 L 1258 1511 1258 1445.018 L 1258 1379.037 1281.250 1378.768 L 1304.500 1378.500 1305 1371.353 L 1305.500 1364.205 1329.250 1410.441 L 1353 1456.676 1353 1483.838 L 1353 1511 1381 1511 L 1409 1511 1409 1484.065 L 1409 1457.131 1432.089 1412.315 C 1444.787 1387.667, 1458.979 1360.188, 1463.626 1351.250 L 1472.075 1335 1440.787 1335.024 L 1409.500 1335.048 1395.607 1366.048 C 1387.966 1383.098, 1381.614 1396.925, 1381.490 1396.774 C 1381.366 1396.623, 1375.053 1382.662, 1367.461 1365.750 L 1353.657 1335 1254.809 1335 L 1155.961 1335 1156.230 1356.750 M 957.550 1417.978 C 953.397 1430.617, 950 1441.417, 950 1441.978 C 950 1442.630, 955.615 1443, 965.500 1443 C 974.025 1443, 981 1442.733, 981 1442.407 C 981 1441.330, 965.800 1395, 965.446 1395 C 965.256 1395, 961.702 1405.340, 957.550 1417.978" stroke="none" fill="#4b9782" fill-rule="evenodd"/>
</svg>