<svg xmlns="http://www.w3.org/2000/svg" width="2000" height="2000" viewBox="0 0 2000 2000" version="1.1">
	<path d="M 987.362 422.284 C 931.444 479.018, 886.363 544.804, 862.456 604.556 C 849.177 637.748, 840.548 669.305, 836.593 699.149 C 834.741 713.122, 834.215 719.931, 832.978 746 C 831.725 772.401, 830.161 778.378, 822.193 787.217 C 814.390 795.873, 801.080 798.608, 791.177 793.589 C 777.791 786.806, 768.146 766.847, 765.039 739.500 C 763.273 723.952, 763.949 696.336, 766.532 678.500 C 767.017 675.152, 766.015 676.536, 760.380 687 C 746.095 713.526, 725.679 758.910, 714.720 788.500 C 698.700 831.754, 687.337 878.969, 684.033 916 C 682.719 930.727, 682.711 960.345, 684.016 974.500 C 691.533 1055.974, 730.840 1132.367, 792.509 1185.356 C 804.753 1195.876, 829.779 1214.554, 830.571 1213.763 C 831.326 1213.007, 841.190 1159.464, 841.682 1153.443 C 842.515 1143.261, 839.956 1131.631, 834.394 1120.319 C 830.771 1112.952, 828.182 1109.396, 821.289 1102.319 C 811.120 1091.880, 806.940 1085.812, 803.846 1077 C 801.865 1071.356, 801.569 1068.589, 801.599 1056 C 801.630 1043.362, 802.038 1039.766, 804.772 1028 C 808.190 1013.290, 810.775 1005.206, 816.384 991.691 C 834.348 948.400, 862.593 912.311, 888.883 899.055 C 924.402 881.146, 954.162 906.563, 968.437 967 C 973.312 987.638, 974.442 998.663, 974.437 1025.500 C 974.431 1051.784, 973.406 1061.483, 968.888 1078 C 963.489 1097.739, 952.687 1112.290, 938.500 1118.939 C 917.185 1128.928, 916.661 1129.254, 907.786 1138.035 C 900.624 1145.122, 898.343 1148.178, 894.977 1155.192 C 891.244 1162.972, 890.268 1166.897, 883.941 1199.590 C 880.123 1219.315, 877 1236.169, 877 1237.043 C 877 1240.063, 912.238 1251.522, 936.775 1256.481 C 960.208 1261.217, 973.889 1262.253, 1005.993 1261.726 C 1036.983 1261.217, 1045.396 1260.351, 1068 1255.346 C 1084.669 1251.656, 1115.047 1242.142, 1119.857 1239.106 C 1120.968 1238.405, 1120.182 1232.914, 1115.530 1208.875 C 1109.185 1176.086, 1107.582 1170.416, 1101.964 1160.878 C 1094.525 1148.250, 1084.210 1140.291, 1062.680 1130.565 C 1047.676 1123.787, 1037.353 1110.602, 1031.654 1090.934 C 1030.304 1086.278, 1022.818 1049.363, 1015.016 1008.902 C 999.172 926.725, 999.574 930.798, 1006.552 923.074 C 1015.604 913.054, 1032.717 916.487, 1037.395 929.261 C 1038.249 931.592, 1044.836 964.325, 1052.033 1002 C 1059.230 1039.675, 1065.277 1070.995, 1065.471 1071.601 C 1065.713 1072.358, 1069.837 1071.939, 1078.661 1070.261 C 1085.723 1068.919, 1091.558 1067.749, 1091.629 1067.660 C 1091.700 1067.572, 1085.744 1036.450, 1078.393 998.500 C 1071.042 960.550, 1065.022 927.505, 1065.014 925.066 C 1064.985 916.003, 1071.941 907.439, 1081.399 904.893 C 1090.319 902.491, 1102.125 908.290, 1105.700 916.830 C 1106.467 918.662, 1113.126 951.453, 1120.499 989.699 C 1127.872 1027.945, 1134.038 1059.349, 1134.202 1059.484 C 1134.525 1059.752, 1159.326 1055.007, 1159.733 1054.601 C 1159.868 1054.465, 1153.869 1022.662, 1146.401 983.927 C 1136.366 931.884, 1132.930 912.148, 1133.237 908.322 C 1134.568 891.729, 1156.572 885.939, 1166.280 899.627 C 1168.794 903.171, 1170.207 909.477, 1181.042 965.523 C 1187.631 999.610, 1194.202 1033.575, 1195.643 1041 C 1199.226 1059.460, 1199.411 1077.535, 1196.114 1087 C 1192.699 1096.802, 1189.575 1101.478, 1179.038 1112.558 C 1168.112 1124.046, 1163.058 1132.542, 1159.972 1144.609 C 1156.947 1156.436, 1157.395 1164.564, 1162.529 1191.037 C 1165.019 1203.881, 1167.220 1214.553, 1167.419 1214.753 C 1168.064 1215.397, 1186.829 1202.237, 1196.932 1194.055 C 1219.839 1175.504, 1237.516 1157.227, 1254.241 1134.801 C 1299.519 1074.086, 1321.670 999.647, 1316.075 927 C 1311.120 862.654, 1285.906 808.339, 1231.590 745 C 1217.614 728.703, 1203.543 713.716, 1163.089 672.040 C 1111.784 619.186, 1093.239 598.482, 1073.031 571.500 C 1035.034 520.765, 1012.894 473.718, 1002.005 420.569 C 1000.886 415.106, 999.843 410.509, 999.686 410.353 C 999.530 410.196, 993.984 415.566, 987.362 422.284 M 1223.731 1318.683 L 1155.961 1319.014 1156.231 1340.757 L 1156.500 1362.500 1179.250 1362.769 L 1202 1363.038 1202 1429.019 L 1202 1495 1230 1495 L 1258 1495 1258 1429.018 L 1258 1363.037 1281.250 1362.768 L 1304.500 1362.500 1304.798 1355.035 L 1305.096 1347.571 1329.025 1394.035 L 1352.955 1440.500 1352.977 1467.750 L 1353 1495 1381 1495 L 1409 1495 1409 1468.103 L 1409 1441.207 1438.844 1383.353 C 1455.259 1351.534, 1469.445 1324.037, 1470.370 1322.250 L 1472.051 1319 1440.776 1319.024 L 1409.500 1319.049 1395.596 1350.037 C 1387.948 1367.080, 1381.601 1380.907, 1381.490 1380.762 C 1381.380 1380.618, 1375.085 1366.662, 1367.502 1349.750 L 1353.715 1319 1332.108 1318.995 C 1320.223 1318.992, 1306.225 1318.846, 1301 1318.671 C 1295.775 1318.496, 1261.004 1318.502, 1223.731 1318.683 M 540 1406.987 L 540 1495 568 1495 L 596 1495 596.051 1452.250 L 596.102 1409.500 609.301 1452.238 L 622.500 1494.977 646.215 1494.988 L 669.931 1495 673.796 1482.750 C 675.922 1476.013, 681.900 1456.660, 687.080 1439.745 L 696.500 1408.989 696.761 1451.995 L 697.021 1495 724.511 1495 L 752 1495 752 1407 L 752 1319 718.250 1319.001 L 684.500 1319.002 666.064 1370.557 C 655.924 1398.912, 647.329 1422.297, 646.964 1422.523 C 646.598 1422.748, 637.745 1399.661, 627.291 1371.217 L 608.283 1319.500 574.142 1319.237 L 540 1318.974 540 1406.987 M 760 1407 L 760 1495 843.750 1494.975 L 927.500 1494.950 931.799 1481.475 L 936.097 1468 965.340 1468 L 994.583 1468 999 1481.500 L 1003.417 1495 1084.709 1495 L 1166 1495 1166 1474 L 1166 1453 1139.500 1453 L 1113 1453 1113 1386 L 1113 1319 1085.006 1319 L 1057.012 1319 1056.756 1399.696 L 1056.500 1480.393 1027.102 1399.696 L 997.705 1319 965.602 1319.014 L 933.500 1319.029 906 1394.343 L 878.500 1469.657 878.214 1460.328 L 877.928 1451 846.964 1451 L 816 1451 816 1438.500 L 816 1426 843 1426 L 870 1426 870 1405 L 870 1384 843 1384 L 816 1384 816 1373.500 L 816 1363 847 1363 L 878 1363 878 1341 L 878 1319 819 1319 L 760 1319 760 1407 M 957.566 1402.059 C 953.405 1414.853, 950 1425.698, 950 1426.160 C 950 1426.622, 956.975 1427, 965.500 1427 C 974.025 1427, 981 1426.707, 981 1426.348 C 981 1425.462, 965.915 1379.591, 965.479 1379.149 C 965.288 1378.957, 961.728 1389.266, 957.566 1402.059" stroke="none" fill="#fffae5" fill-rule="evenodd"/>
</svg>