<svg xmlns="http://www.w3.org/2000/svg" width="2000" height="2000" viewBox="0 0 2000 2000" version="1.1">
	<rect x="0" y="0" width="100%" height="100%" fill="#ffffff" />
	<path d="M 448.901 660.823 C 389.595 722.323, 351.380 785.367, 334.070 850.264 C 327.725 874.048, 325.413 890.212, 323.978 920.822 C 322.848 944.924, 321.711 950.598, 316.695 957.184 C 311.960 963.399, 305.950 966.467, 298.500 966.472 C 293.352 966.475, 291.830 966.012, 287.780 963.210 C 279.619 957.565, 274.378 948.642, 270.766 934.243 C 268.840 926.565, 268.568 922.760, 268.536 903 C 268.516 890.625, 268.855 877.350, 269.290 873.500 C 270.007 867.142, 269.942 866.693, 268.587 868.601 C 266.917 870.953, 246 912.569, 246 913.540 C 246 913.881, 243.925 918.511, 241.389 923.830 C 238.853 929.148, 235.960 935.839, 234.961 938.697 C 233.962 941.555, 232.447 945.380, 231.594 947.197 C 224.891 961.477, 210.921 1006.887, 206.582 1028.500 C 196.799 1077.230, 198.143 1122.274, 210.626 1164 C 216.500 1183.635, 226.758 1207.326, 236.607 1224 C 247.396 1242.267, 268.164 1267.997, 282.928 1281.390 C 284.813 1283.101, 287.081 1285.193, 287.967 1286.039 C 293.701 1291.516, 320.288 1311, 322.028 1311 C 322.419 1311, 322.992 1309.537, 323.303 1307.750 C 323.613 1305.963, 325.451 1296.175, 327.387 1286 C 332.148 1260.974, 332.408 1258.389, 331.024 1249.878 C 329.138 1238.290, 323.388 1227.355, 314.508 1218.476 C 310.466 1214.433, 305.921 1209.015, 304.409 1206.436 C 300.747 1200.186, 297.999 1189.924, 298.005 1182.522 C 298.014 1172.764, 301.754 1153.383, 306.088 1140.633 C 312.297 1122.370, 324.747 1097.627, 331.821 1089.491 C 332.814 1088.348, 333.880 1086.756, 334.188 1085.953 C 334.979 1083.892, 343.643 1073.269, 348.456 1068.458 C 359.364 1057.556, 371.409 1050.178, 382.010 1047.904 C 402.212 1043.572, 420.616 1060.595, 431.306 1093.500 C 438.040 1114.228, 440.433 1130.530, 440.335 1155 C 440.191 1190.955, 433.892 1213.690, 420.800 1225.510 C 416.023 1229.822, 405.194 1235.997, 402.405 1235.999 C 400.675 1236, 389.589 1243.460, 385.833 1247.150 C 375.209 1257.587, 372.766 1263.339, 367.459 1290.414 C 364.970 1303.111, 362.215 1316.959, 361.336 1321.187 C 360.457 1325.415, 359.967 1329.465, 360.248 1330.187 C 361.084 1332.338, 394.231 1343.438, 406.500 1345.676 C 407.600 1345.877, 411.875 1346.675, 416 1347.451 C 438.728 1351.722, 480.846 1351.982, 504 1347.993 C 518.983 1345.412, 541.582 1339.355, 553.214 1334.804 L 561.658 1331.500 559.891 1322 C 552.788 1283.831, 551.750 1279.445, 547.896 1271.325 C 542.540 1260.042, 534.096 1251.511, 523.376 1246.554 C 508.727 1239.780, 505.512 1237.801, 500.471 1232.451 C 491.338 1222.759, 487.675 1212.893, 482.110 1182.998 C 480.523 1174.474, 478.037 1161.425, 476.585 1154 C 475.134 1146.575, 472.643 1133.750, 471.051 1125.500 C 469.458 1117.250, 466.970 1104.454, 465.521 1097.064 C 462.649 1082.414, 462.799 1077.542, 466.271 1072.637 C 471.517 1065.225, 484.505 1065.283, 489.816 1072.742 C 491.794 1075.520, 493.757 1083.266, 497.355 1102.500 C 498.179 1106.900, 500.457 1118.825, 502.419 1129 C 504.381 1139.175, 507.808 1156.950, 510.034 1168.500 C 512.260 1180.050, 514.333 1190.779, 514.640 1192.343 C 515.166 1195.016, 515.416 1195.143, 518.850 1194.478 C 520.857 1194.089, 525.621 1193.234, 529.435 1192.579 C 533.250 1191.924, 536.540 1190.880, 536.747 1190.260 C 536.953 1189.640, 535.284 1179.540, 533.036 1167.816 C 523.544 1118.298, 520.737 1103.831, 518.323 1092 C 515.438 1077.860, 514.808 1067.904, 516.756 1067.251 C 517.447 1067.019, 517.794 1066.477, 517.528 1066.045 C 516.581 1064.513, 524.056 1058.062, 528.014 1056.996 C 535.041 1055.104, 544.355 1058.918, 547.484 1064.968 C 548.986 1067.873, 549.699 1071.113, 554.979 1099 C 556.697 1108.075, 558.954 1119.775, 559.995 1125 C 562.142 1135.782, 569.550 1174.519, 570.580 1180.349 C 571.198 1183.847, 571.499 1184.152, 573.880 1183.690 C 575.321 1183.411, 580.039 1182.595, 584.364 1181.877 C 589.101 1181.091, 592.436 1180.027, 592.753 1179.201 C 593.042 1178.447, 592.568 1174.156, 591.699 1169.665 C 590.830 1165.174, 587.841 1149.575, 585.056 1135 C 582.272 1120.425, 579.094 1104, 577.996 1098.500 C 572.811 1072.540, 571 1062.672, 571 1060.382 C 571 1056.025, 575.142 1050.144, 579.819 1047.862 C 586.715 1044.498, 593.496 1046.254, 598.324 1052.655 C 600.047 1054.938, 602.257 1064.608, 608.002 1095 C 609.717 1104.075, 611.966 1115.775, 613 1121 C 614.034 1126.225, 616.286 1137.925, 618.005 1147 C 619.724 1156.075, 621.770 1166.712, 622.551 1170.638 C 624.693 1181.404, 625.361 1193.779, 624.149 1200.240 C 622.461 1209.235, 618.257 1216.598, 609.362 1226.137 C 590.880 1245.958, 588.063 1258.863, 594.875 1292.500 C 599.212 1313.917, 598.581 1312.270, 601.815 1310.587 C 606.531 1308.132, 628.238 1291.605, 636 1284.558 C 681.853 1242.932, 710.449 1189.874, 720.107 1128.500 C 722.660 1112.275, 723.186 1081.153, 721.180 1065 C 718.837 1046.142, 713.331 1024.783, 706.908 1009.645 C 705.309 1005.875, 704 1002.200, 704 1001.479 C 704 1000.757, 703.663 1000.017, 703.250 999.833 C 702.837 999.650, 700.536 995.573, 698.135 990.773 C 693.354 981.216, 683.534 965.041, 678.275 958.061 C 676.436 955.620, 675.155 953.038, 675.430 952.323 C 675.704 951.609, 675.518 951.131, 675.017 951.262 C 673.750 951.593, 662.932 937.919, 663.603 936.833 C 663.903 936.348, 663.720 936.074, 663.196 936.225 C 662.673 936.376, 659.671 933.350, 656.527 929.500 C 653.382 925.650, 648.676 920.250, 646.070 917.500 C 643.464 914.750, 639.173 910.025, 636.535 907 C 633.897 903.975, 626.285 895.861, 619.619 888.968 C 564.583 832.060, 551.772 818.589, 547.848 813.500 C 546.575 811.850, 544.477 809.375, 543.184 808 C 538.799 803.335, 524.390 785.525, 520.937 780.500 C 519.047 777.750, 517.223 775.275, 516.885 775 C 515.388 773.783, 502.617 754.318, 497.498 745.453 C 490.963 734.133, 481.738 716, 482.514 716 C 482.807 716, 482.385 714.987, 481.577 713.750 C 479.570 710.678, 473.388 694.494, 469.922 683.241 C 467.666 675.918, 462 651.773, 462 649.484 C 462 647.758, 458.972 650.379, 448.901 660.823 M 876 1093.487 L 876 1182 904 1182 L 932 1182 932 1140.833 C 932 1118.192, 932.262 1099.929, 932.582 1100.249 C 932.903 1100.569, 936.467 1111.557, 940.504 1124.666 C 944.540 1137.775, 949.727 1154.575, 952.030 1162 C 954.333 1169.425, 956.309 1175.950, 956.420 1176.500 C 956.531 1177.050, 956.963 1178.513, 957.378 1179.750 L 958.135 1182 982.317 1181.998 L 1006.500 1181.996 1008.082 1176.748 C 1019.117 1140.143, 1031.585 1101, 1032.210 1101 C 1032.644 1101, 1033 1119.225, 1033 1141.500 L 1033 1182 1061.005 1182 L 1089.011 1182 1088.755 1093.750 L 1088.500 1005.500 1054.783 1005.237 L 1021.065 1004.973 1019.659 1007.737 C 1018.886 1009.257, 1017.025 1014.100, 1015.524 1018.500 C 1014.023 1022.900, 1011.084 1031.225, 1008.993 1037 C 1006.903 1042.775, 1002.632 1054.700, 999.502 1063.500 C 987.246 1097.966, 983.732 1107.530, 983.048 1108.282 C 982.656 1108.712, 979.730 1101.962, 976.545 1093.282 C 968.906 1072.464, 961.379 1051.822, 958.939 1045 C 957.858 1041.975, 954.116 1031.850, 950.625 1022.500 L 944.278 1005.500 910.139 1005.237 L 876 1004.974 876 1093.487 M 1096 1093.489 L 1096 1181.977 1178.324 1182.239 C 1223.602 1182.382, 1261.326 1182.369, 1262.155 1182.209 C 1263.119 1182.023, 1265.203 1177.248, 1267.937 1168.959 L 1272.213 1156 1301.415 1156 L 1330.617 1156 1334.730 1168.750 L 1338.844 1181.500 1420.422 1181.756 L 1502 1182.012 1502 1161.006 L 1502 1140 1475.500 1140 L 1449 1140 1449 1072.500 L 1449 1005 1421 1005 L 1393 1005 1392.961 1085.750 C 1392.918 1175.121, 1393.402 1169.967, 1386.876 1150.518 C 1385.211 1145.558, 1383.445 1140.600, 1382.950 1139.500 C 1382.455 1138.400, 1379.106 1129.400, 1375.508 1119.500 C 1368.949 1101.453, 1367.340 1097.066, 1360.473 1078.500 C 1358.438 1073, 1354.633 1062.425, 1352.016 1055 C 1348.096 1043.874, 1342.952 1029.775, 1334.778 1007.750 L 1333.757 1005 1301.914 1005 C 1270.771 1005, 1270.046 1005.045, 1268.966 1007.063 C 1268.359 1008.197, 1266.135 1013.935, 1264.024 1019.813 C 1261.912 1025.691, 1258.619 1034.775, 1256.706 1040 C 1254.793 1045.225, 1250.204 1057.825, 1246.509 1068 C 1242.814 1078.175, 1235.815 1097.300, 1230.956 1110.500 C 1226.097 1123.700, 1220.407 1139.225, 1218.311 1145 L 1214.500 1155.500 1214.211 1146.764 L 1213.923 1138.029 1183.211 1137.764 L 1152.500 1137.500 1152.219 1125.250 L 1151.938 1113 1179.469 1113 L 1207 1113 1207 1092 L 1207 1071 1179.500 1071 L 1152 1071 1152 1060.500 L 1152 1050 1183 1050 L 1214 1050 1214 1027.500 L 1214 1005 1155 1005 L 1096 1005 1096 1093.489 M 1492 1027.481 L 1492 1049.962 1514.750 1050.231 L 1537.500 1050.500 1537.757 1116.250 L 1538.014 1182 1566.007 1182 L 1594 1182 1594 1116 L 1594 1050 1617.500 1050 L 1641 1050 1641.021 1042.750 L 1641.042 1035.500 1650.578 1054 C 1655.823 1064.175, 1665.219 1082.400, 1671.458 1094.500 C 1677.697 1106.600, 1684.196 1119.256, 1685.901 1122.624 L 1689 1128.747 1689 1155.374 L 1689 1182 1717 1182 L 1745 1182 1745 1155.415 L 1745 1128.830 1754.130 1111.165 C 1759.152 1101.449, 1766.070 1088.100, 1769.504 1081.500 C 1772.938 1074.900, 1780.139 1060.950, 1785.505 1050.500 C 1790.872 1040.050, 1798.129 1026.020, 1801.632 1019.322 C 1805.134 1012.623, 1808 1006.661, 1808 1006.072 C 1808 1004.416, 1746.553 1004.591, 1745.303 1006.250 C 1744.785 1006.938, 1743.084 1010.425, 1741.522 1014 C 1739.960 1017.575, 1737.121 1023.875, 1735.212 1028 C 1733.303 1032.125, 1730.258 1038.875, 1728.445 1043 C 1721.103 1059.710, 1718.204 1066.130, 1717.834 1066.500 C 1717.620 1066.714, 1715.248 1061.851, 1712.564 1055.694 C 1709.880 1049.538, 1706.014 1040.900, 1703.974 1036.500 C 1697.200 1021.893, 1696 1019.035, 1696 1017.511 C 1696 1016.680, 1695.602 1016, 1695.116 1016 C 1694.630 1016, 1693.228 1013.525, 1692 1010.500 L 1689.768 1005 1590.884 1005 L 1492 1005 1492 1027.481 M 1293.739 1089.663 L 1286.319 1112.500 1300.799 1112.778 C 1308.762 1112.930, 1315.486 1112.848, 1315.739 1112.595 C 1316.262 1112.071, 1316.293 1112.177, 1308.028 1086.541 C 1304.666 1076.113, 1301.745 1067.411, 1301.537 1067.204 C 1301.329 1066.996, 1297.820 1077.102, 1293.739 1089.663" stroke="none" fill="#4b9782" fill-rule="evenodd"/>
</svg>