<svg xmlns="http://www.w3.org/2000/svg" width="2000" height="2000" viewBox="0 0 2000 2000" version="1.1">
	<rect x="0" y="0" width="100%" height="100%" fill="#ffffff" />
	<path d="M 985.335 440.250 C 977.576 448.087, 969.490 456.520, 967.364 458.989 C 965.239 461.458, 963.050 463.986, 962.500 464.606 C 960.592 466.757, 952.175 476.518, 949.226 480 C 945.733 484.123, 930.275 503.628, 927.751 507.097 C 926.789 508.418, 924.314 511.799, 922.251 514.610 C 920.188 517.420, 916.498 522.679, 914.051 526.296 C 911.604 529.913, 909.317 532.696, 908.968 532.480 C 908.619 532.264, 908.333 532.631, 908.333 533.296 C 908.333 533.960, 905.411 539.003, 901.839 544.502 C 893.644 557.119, 885 571.763, 885 573.031 C 885 573.564, 884.100 574.900, 883 576 C 881.900 577.100, 881.247 578, 881.549 578 C 881.851 578, 880.527 580.813, 878.607 584.250 C 865.439 607.826, 843.957 667.498, 840.358 690.500 C 840.100 692.150, 839.232 696.774, 838.430 700.776 C 835.913 713.336, 834.040 732.676, 832.986 757.009 C 831.633 788.258, 829.860 795.226, 821.029 804 C 813.076 811.902, 801.982 814.090, 792.500 809.627 C 777.608 802.618, 767.856 781.508, 764.955 750 C 763.784 737.284, 764.179 721.250, 766.134 702.179 C 766.716 696.503, 766.971 691.638, 766.701 691.367 C 766.431 691.097, 760.585 702.042, 753.711 715.688 C 740.541 741.834, 725.375 775.395, 718.775 793 C 716.610 798.775, 714.267 804.850, 713.567 806.500 C 711.926 810.370, 703.809 835.019, 700.559 846 C 686.669 892.932, 680.366 940.768, 682.926 979.833 C 684.276 1000.434, 685.055 1006.271, 689.141 1026.399 C 694.287 1051.746, 701.550 1073.558, 712.567 1096.750 C 716.028 1104.037, 718.555 1110.007, 718.180 1110.015 C 717.806 1110.024, 718.002 1110.361, 718.615 1110.765 C 719.228 1111.169, 721.217 1114.200, 723.035 1117.500 C 740.289 1148.817, 768.944 1182.815, 798.500 1207.037 C 803.450 1211.094, 807.725 1214.658, 808 1214.956 C 808.275 1215.255, 813.386 1218.823, 819.358 1222.884 C 831.039 1230.827, 831.281 1230.849, 832.473 1224.065 C 832.818 1222.104, 834.990 1211.050, 837.300 1199.500 C 841.035 1180.824, 841.493 1177.006, 841.437 1165 C 841.384 1153.473, 841.033 1150.550, 839.038 1145 C 835.257 1134.484, 831.229 1128.330, 821.030 1117.483 C 810.987 1106.802, 805.768 1098.561, 803.390 1089.632 C 801.153 1081.229, 801.617 1061.480, 804.368 1048 C 807.334 1033.473, 811.943 1018.847, 813.293 1019.681 C 813.877 1020.042, 814.002 1019.813, 813.587 1019.142 C 812.638 1017.605, 815.808 1009.285, 823.032 994.357 C 833.740 972.228, 846.040 953.590, 859.345 939.333 C 865.401 932.843, 868.975 929.621, 879.697 920.985 C 880.355 920.455, 883.730 918.475, 887.197 916.586 C 906.620 906.002, 924.927 908.160, 939.471 922.748 C 946.661 929.959, 950.104 934.917, 955.517 945.851 C 977.183 989.613, 981.384 1060.575, 964.985 1105.749 C 964.336 1107.536, 963.492 1108.804, 963.110 1108.568 C 962.728 1108.332, 962.350 1109.001, 962.271 1110.055 C 962.044 1113.071, 955.290 1122.558, 950.038 1127.237 C 944.901 1131.814, 943.674 1132.514, 928.696 1139.404 C 912.130 1147.024, 901.141 1157.541, 894.040 1172.571 C 890.962 1179.086, 890.257 1182.143, 882.530 1222.500 C 876.857 1252.134, 876.751 1252.754, 877.166 1253.999 C 877.624 1255.373, 883.276 1257.526, 902.500 1263.651 C 925.595 1271.010, 937.464 1273.666, 963 1277.189 C 977.470 1279.186, 1026.319 1278.856, 1041 1276.663 C 1058.591 1274.034, 1076.250 1270.282, 1089.500 1266.358 C 1102.311 1262.563, 1119.978 1256.278, 1121.302 1255.044 C 1121.743 1254.633, 1121.648 1252.317, 1121.092 1249.898 C 1120.535 1247.479, 1118.683 1238.075, 1116.977 1229 C 1110.156 1192.734, 1109.719 1190.951, 1105.348 1181.500 C 1102.321 1174.957, 1097.579 1168.771, 1090.546 1162.192 C 1083.687 1155.776, 1078.072 1152.443, 1067.270 1148.377 C 1050.649 1142.121, 1040.105 1130.403, 1033.410 1110.745 C 1031.066 1103.864, 1028.149 1090.264, 1021.025 1053 C 1019.290 1043.925, 1016.124 1027.500, 1013.990 1016.500 C 1011.856 1005.500, 1008.744 989.300, 1007.074 980.500 C 1005.405 971.700, 1003.525 961.941, 1002.896 958.814 C 1001.266 950.699, 1002.367 945.100, 1006.554 940.208 C 1013.602 931.974, 1024.385 931.275, 1032.829 938.506 C 1037.384 942.407, 1037.451 942.668, 1048 998 C 1051.823 1018.053, 1053.846 1028.569, 1062.042 1071 C 1063.795 1080.075, 1065.560 1087.860, 1065.964 1088.300 C 1066.369 1088.740, 1072.392 1088.096, 1079.350 1086.870 C 1089.251 1085.124, 1091.996 1084.299, 1091.983 1083.070 C 1091.974 1082.206, 1089.707 1069.800, 1086.945 1055.500 C 1084.183 1041.200, 1081.284 1026.125, 1080.503 1022 C 1079.722 1017.875, 1077.725 1007.525, 1076.065 999 C 1064.557 939.889, 1064.386 938.408, 1068.275 931.542 C 1076.260 917.443, 1097.733 917.756, 1105.039 932.077 C 1106.113 934.182, 1108.572 944.362, 1110.504 954.702 C 1112.436 965.041, 1114.453 975.525, 1114.986 978 C 1115.519 980.475, 1118.216 994.425, 1120.980 1009 C 1123.744 1023.575, 1126.471 1037.750, 1127.039 1040.500 C 1127.608 1043.250, 1129.393 1052.199, 1131.006 1060.386 C 1132.619 1068.573, 1134.120 1075.453, 1134.342 1075.675 C 1134.831 1076.164, 1158.561 1071.890, 1159.876 1071.076 C 1160.418 1070.740, 1159.424 1063.408, 1157.492 1053.500 C 1155.670 1044.150, 1152.763 1029.075, 1151.033 1020 C 1149.302 1010.925, 1147.249 1000.350, 1146.469 996.500 C 1145.690 992.650, 1142.773 977.575, 1139.987 963 C 1137.202 948.425, 1134.464 934.168, 1133.904 931.318 C 1132.061 921.936, 1136.135 913.660, 1144.459 909.880 C 1149.790 907.458, 1154.399 907.531, 1159.750 910.121 C 1167.733 913.985, 1169.591 918.919, 1175.340 951.500 C 1176.117 955.900, 1177.913 965.350, 1179.333 972.500 C 1183.407 993.012, 1192.950 1042.649, 1194.617 1052 C 1195.451 1056.675, 1196.584 1062.509, 1197.135 1064.963 C 1199.077 1073.619, 1199.306 1089.014, 1197.613 1097 C 1195.123 1108.743, 1190.864 1116, 1179.230 1128.322 C 1171.194 1136.834, 1168.093 1140.971, 1164.970 1147.349 C 1156.587 1164.469, 1156.279 1175.855, 1163.254 1210.729 L 1167.500 1231.958 1176.534 1225.729 C 1189.428 1216.838, 1190.029 1216.387, 1201.305 1207.133 C 1225.197 1187.526, 1250.787 1159.280, 1266.202 1135.500 C 1285.234 1106.142, 1299.411 1074.001, 1307.887 1041 C 1315.486 1011.416, 1318.486 986.344, 1317.641 959.500 C 1317.016 939.667, 1316.063 929.593, 1313.382 914.500 C 1306.020 873.050, 1287.440 832.891, 1255.797 790.035 C 1251.213 783.826, 1233.840 762.216, 1230.129 758.106 C 1228.444 756.239, 1224.013 751.323, 1220.282 747.180 C 1216.552 743.037, 1212.449 738.490, 1211.165 737.074 C 1204.551 729.785, 1191.567 716.311, 1161.091 685.112 C 1142.616 666.198, 1127.035 650.223, 1126.468 649.612 C 1125.900 649, 1121.409 644, 1116.488 638.500 C 1111.567 633, 1105.881 626.700, 1103.852 624.500 C 1101.823 622.300, 1099.130 619.150, 1097.868 617.500 C 1096.605 615.850, 1094.857 613.825, 1093.984 613 C 1091.416 610.572, 1076.346 591.487, 1073.302 586.805 C 1071.762 584.437, 1070.013 582.050, 1069.416 581.500 C 1067.351 579.600, 1058.177 566.268, 1050.427 553.906 C 1038.644 535.111, 1020.896 499.947, 1019.778 493.180 C 1019.625 492.256, 1019.142 491.236, 1018.705 490.913 C 1016.427 489.231, 1005.608 452.216, 1002.436 435.250 C 1001.485 430.163, 1000.422 426, 1000.074 426 C 999.726 426, 993.094 432.413, 985.335 440.250 M 540.245 1422.555 L 540.500 1511.136 568 1511.136 L 595.500 1511.136 596 1469.421 L 596.500 1427.706 604.923 1455.103 C 612.909 1481.079, 614.610 1486.566, 620.003 1503.750 L 622.278 1511 646.389 1510.999 L 670.500 1510.998 677.333 1488.749 C 691.033 1444.139, 693.749 1435.416, 695.312 1431 C 696.816 1426.750, 696.907 1428.852, 696.952 1468.766 L 697 1511.032 724.750 1510.766 L 752.500 1510.500 752.775 1424.500 C 752.926 1377.200, 752.805 1337.487, 752.506 1336.250 L 751.962 1334 718.231 1334.002 L 684.500 1334.004 680.132 1346.252 C 677.730 1352.988, 674.191 1362.775, 672.268 1368 C 668.826 1377.352, 664.161 1390.451, 653.398 1420.979 C 650.397 1429.493, 647.593 1436.807, 647.167 1437.233 C 646.447 1437.953, 643.584 1430.670, 631.551 1397.500 C 624.790 1378.863, 615.943 1354.838, 614.980 1352.500 C 614.528 1351.400, 612.832 1346.900, 611.213 1342.500 L 608.269 1334.500 574.129 1334.237 L 539.989 1333.974 540.245 1422.555 M 760 1422.500 L 760 1511 843.882 1511 L 927.763 1511 931.962 1498 L 936.161 1485 965.390 1485 L 994.618 1485 998.414 1496.861 C 1000.502 1503.385, 1002.524 1509.229, 1002.907 1509.850 C 1003.414 1510.671, 1025.601 1510.987, 1084.552 1511.012 L 1165.500 1511.048 1165.770 1490.041 L 1166.040 1469.033 1139.770 1468.767 L 1113.500 1468.500 1113 1401.500 L 1112.500 1334.500 1084.750 1334.234 L 1057 1333.968 1056.970 1414.234 C 1056.950 1464.639, 1056.591 1493.904, 1056.002 1492.897 C 1055.487 1492.015, 1052.296 1483.690, 1048.911 1474.397 C 1045.526 1465.104, 1040.541 1451.425, 1037.832 1444 C 1035.124 1436.575, 1031.618 1426.900, 1030.041 1422.500 C 1028.464 1418.100, 1024.627 1407.525, 1021.514 1399 C 1007.122 1359.580, 1007.322 1360.123, 1001.653 1345 C 1000.313 1341.425, 998.913 1337.487, 998.541 1336.250 L 997.865 1334 965.677 1334 L 933.489 1334 930.658 1341.750 C 929.101 1346.013, 926.267 1353.775, 924.359 1359 C 922.451 1364.225, 919.604 1372.100, 918.032 1376.500 C 916.461 1380.900, 911.704 1393.950, 907.461 1405.500 C 903.218 1417.050, 897.518 1432.575, 894.793 1440 C 886.093 1463.709, 879.871 1480.441, 878.991 1482.500 C 878.428 1483.816, 878.112 1481.393, 878.068 1475.413 L 878 1466.326 847.250 1466.413 L 816.500 1466.500 816.219 1454.250 L 815.938 1442 843.469 1442 L 871 1442 871 1421 L 871 1400 843.500 1400 L 816 1400 816 1389.500 L 816 1379 847 1379 L 878 1379 878 1356.500 L 878 1334 819 1334 L 760 1334 760 1422.500 M 1156 1356.500 L 1156 1379 1179 1379 L 1202 1379 1202 1445.016 L 1202 1511.031 1230.250 1510.766 L 1258.500 1510.500 1258.757 1444.750 L 1259.014 1379 1281.963 1379 L 1304.912 1379 1305.206 1371.750 L 1305.500 1364.500 1320.623 1394 C 1328.940 1410.225, 1339.615 1430.943, 1344.344 1440.039 L 1352.943 1456.579 1353.031 1483.759 L 1353.120 1510.940 1381.061 1511.220 L 1409.001 1511.500 1409.001 1485.181 L 1409 1458.863 1422.114 1433.181 C 1429.327 1419.057, 1435.921 1406.713, 1436.769 1405.750 C 1437.617 1404.787, 1438.031 1404, 1437.689 1404 C 1437.118 1404, 1449.507 1379.337, 1457.783 1364 C 1459.712 1360.425, 1462.847 1354.350, 1464.750 1350.500 C 1466.654 1346.650, 1468.726 1343.169, 1469.355 1342.765 C 1469.985 1342.361, 1470.151 1342.024, 1469.724 1342.015 C 1469.298 1342.007, 1469.635 1340.672, 1470.474 1339.050 C 1471.313 1337.427, 1472 1335.627, 1472 1335.050 C 1472 1333.835, 1411.144 1333.558, 1409.500 1334.765 C 1408.950 1335.169, 1408.367 1336.175, 1408.204 1337 C 1408.041 1337.825, 1407.287 1339.850, 1406.527 1341.500 C 1401.652 1352.092, 1387.901 1382.620, 1385.470 1388.250 C 1383.867 1391.963, 1382.272 1395, 1381.926 1395 C 1381.312 1395, 1378.297 1388.628, 1371.281 1372.500 C 1369.367 1368.100, 1366.653 1362.025, 1365.250 1359 C 1363.847 1355.975, 1361.395 1350.599, 1359.803 1347.053 C 1358.210 1343.507, 1356.202 1339.120, 1355.340 1337.303 L 1353.772 1334 1254.886 1334 L 1156 1334 1156 1356.500 M 957.820 1418.546 L 950.375 1441.500 964.827 1441.778 C 972.775 1441.930, 979.520 1441.813, 979.816 1441.517 C 980.309 1441.025, 973.037 1417.647, 967.540 1402.046 L 965.266 1395.592 957.820 1418.546" stroke="none" fill="#4b9782" fill-rule="evenodd"/>
</svg>