<svg xmlns="http://www.w3.org/2000/svg" width="2000" height="2000" viewBox="0 0 2000 2000" version="1.1">
	<path d="M 447.470 663.167 C 410.246 701.396, 376.519 748.429, 356.903 789.467 C 346.008 812.262, 334.891 845.292, 329.967 869.500 C 327.091 883.637, 325.244 900.774, 324.471 920.500 C 323.637 941.783, 322.117 949.744, 317.587 956.567 C 313.382 962.901, 306.063 967.012, 299.054 966.978 C 277.102 966.872, 264.245 933.719, 267.868 886.566 C 268.526 878.002, 269.341 870.209, 269.680 869.247 C 271.469 864.161, 267.311 871.137, 260.290 885 C 216.907 970.659, 196.826 1045.101, 200.940 1105.015 C 204.485 1156.626, 220.239 1201.538, 248.817 1241.500 C 265.794 1265.240, 289.861 1288.992, 313.293 1305.134 C 317.178 1307.810, 320.854 1310, 321.463 1310 C 323.202 1310, 331.165 1266.310, 331.105 1257.103 C 331.009 1242.439, 325.319 1230.130, 312.567 1217 C 304.626 1208.824, 301.785 1204.112, 299.495 1195.320 C 291.071 1162.979, 317.959 1096.188, 352.152 1064.517 C 369.040 1048.874, 385.071 1043.698, 399.712 1049.159 C 415.872 1055.186, 430.226 1080.014, 436.909 1113.500 C 441.179 1134.896, 442.162 1160.072, 439.512 1180.199 C 435.657 1209.480, 426.978 1225.244, 410.500 1232.891 C 394.090 1240.506, 392.296 1241.619, 385.408 1248.458 C 374.433 1259.355, 372.981 1263.180, 365.932 1299.767 C 361.409 1323.245, 360.319 1330.583, 361.265 1331.182 C 363.873 1332.831, 380.036 1338.316, 392 1341.611 C 441.118 1355.142, 497.936 1353.618, 544.817 1337.512 C 561.684 1331.718, 561 1332.037, 561 1329.975 C 561 1328.980, 558.773 1316.912, 556.051 1303.159 C 550.149 1273.338, 547.790 1267.575, 537.120 1256.925 C 530.604 1250.421, 529.877 1249.987, 509.575 1240.450 C 499.819 1235.867, 491.064 1222.994, 487.046 1207.325 C 483.904 1195.072, 463 1085.458, 463.004 1081.258 C 463.012 1073.329, 469.812 1067.010, 478.346 1067.004 C 484.070 1066.999, 488.350 1069.227, 491.077 1073.631 C 492.423 1075.805, 496.386 1094.286, 504.049 1134.131 C 510.118 1165.684, 515.298 1192.220, 515.561 1193.099 C 515.994 1194.548, 517.005 1194.509, 526.270 1192.695 C 531.896 1191.593, 536.648 1190.576, 536.828 1190.434 C 537.009 1190.293, 532.171 1164.324, 526.078 1132.727 C 519.985 1101.129, 515 1074.071, 515 1072.598 C 515 1068.667, 518.492 1062.490, 522.398 1059.510 C 528.940 1054.520, 537.727 1054.951, 543.943 1060.567 C 546.046 1062.467, 548.269 1065.254, 548.884 1066.761 C 549.499 1068.267, 554.921 1095.082, 560.933 1126.349 C 566.946 1157.616, 572.050 1183.383, 572.276 1183.609 C 572.750 1184.084, 592.125 1180.208, 592.837 1179.496 C 593.098 1179.235, 588.237 1152.667, 582.034 1120.456 C 574.614 1081.926, 570.948 1060.708, 571.317 1058.436 C 572.534 1050.936, 578.917 1046, 587.398 1046 C 591.272 1046, 592.621 1046.567, 595.988 1049.608 C 598.380 1051.769, 600.366 1054.675, 600.941 1056.858 C 601.469 1058.861, 606.950 1086.600, 613.121 1118.500 C 622.023 1164.521, 624.430 1178.800, 624.775 1187.635 C 625.482 1205.781, 622.424 1213.364, 608.461 1228.098 C 591.382 1246.120, 588.939 1258.417, 595.588 1292.896 C 597.561 1303.128, 599.308 1311.634, 599.470 1311.799 C 600.002 1312.339, 613.281 1302.782, 625 1293.427 C 673.430 1254.763, 707.331 1198.219, 718.455 1137.553 C 730.176 1073.628, 718.911 1019.097, 682.704 964.500 C 664.087 936.426, 646.786 916.621, 590.933 859.445 C 546.668 814.132, 524.027 787.342, 504.773 757.500 C 484.956 726.783, 471.950 696.061, 464.556 662.500 C 463.102 655.900, 461.806 650.122, 461.676 649.660 C 461.546 649.198, 455.154 655.276, 447.470 663.167 M 1555.731 974.683 L 1487.961 975.014 1488.231 996.757 L 1488.500 1018.500 1511.250 1018.769 L 1534 1019.038 1534 1085.019 L 1534 1151 1562 1151 L 1590 1151 1590 1085.018 L 1590 1019.037 1613.250 1018.768 L 1636.500 1018.500 1636.798 1011.035 L 1637.096 1003.571 1661.025 1050.035 L 1684.955 1096.500 1684.977 1123.750 L 1685 1151 1713 1151 L 1741 1151 1741 1124.103 L 1741 1097.207 1770.844 1039.353 C 1787.259 1007.534, 1801.445 980.038, 1802.370 978.250 L 1804.051 975 1772.776 975.024 L 1741.500 975.049 1727.596 1006.037 C 1719.948 1023.080, 1713.601 1036.907, 1713.490 1036.762 C 1713.380 1036.618, 1707.085 1022.663, 1699.502 1005.750 L 1685.715 975 1664.108 974.995 C 1652.223 974.992, 1638.225 974.846, 1633 974.671 C 1627.775 974.496, 1593.004 974.502, 1555.731 974.683 M 872 1062.987 L 872 1151 900 1151 L 928 1151 928.051 1108.250 L 928.102 1065.500 941.301 1108.238 L 954.500 1150.977 978.215 1150.988 L 1001.931 1151 1005.796 1138.750 C 1007.922 1132.013, 1013.900 1112.660, 1019.080 1095.745 L 1028.500 1064.989 1028.761 1107.995 L 1029.021 1151 1056.511 1151 L 1084 1151 1084 1063 L 1084 975 1050.250 975.001 L 1016.500 975.002 998.064 1026.557 C 987.924 1054.912, 979.329 1078.297, 978.964 1078.523 C 978.598 1078.748, 969.745 1055.661, 959.291 1027.217 L 940.283 975.500 906.142 975.237 L 872 974.974 872 1062.987 M 1092 1063 L 1092 1151 1175.750 1150.975 L 1259.500 1150.950 1263.799 1137.475 L 1268.097 1124 1297.340 1124 L 1326.583 1124 1331 1137.500 L 1335.417 1151 1416.709 1151 L 1498 1151 1498 1130 L 1498 1109 1471.500 1109 L 1445 1109 1445 1042 L 1445 975 1417.006 975 L 1389.012 975 1388.756 1055.696 L 1388.500 1136.393 1359.102 1055.696 L 1329.705 975 1297.602 975.014 L 1265.500 975.029 1238 1050.343 L 1210.500 1125.657 1210.214 1116.328 L 1209.928 1107 1178.964 1107 L 1148 1107 1148 1094.500 L 1148 1082 1175 1082 L 1202 1082 1202 1061 L 1202 1040 1175 1040 L 1148 1040 1148 1029.500 L 1148 1019 1179 1019 L 1210 1019 1210 997 L 1210 975 1151 975 L 1092 975 1092 1063 M 1289.566 1058.059 C 1285.405 1070.853, 1282 1081.698, 1282 1082.160 C 1282 1082.622, 1288.975 1083, 1297.500 1083 C 1306.025 1083, 1313 1082.707, 1313 1082.348 C 1313 1081.462, 1297.915 1035.591, 1297.479 1035.149 C 1297.288 1034.957, 1293.728 1045.266, 1289.566 1058.059" stroke="none" fill="#fffae5" fill-rule="evenodd"/>
</svg>