<svg xmlns="http://www.w3.org/2000/svg" width="2000" height="2000" viewBox="0 0 2000 2000" version="1.1">
	<rect x="0" y="0" width="100%" height="100%" fill="#2f343a" />
	<path d="M 1007 493.912 C 1006.175 494.349, 1003.700 495.552, 1001.500 496.585 C 996.707 498.834, 984.558 510.246, 978.751 517.953 C 976.452 521.004, 973.796 524.278, 972.849 525.229 C 971.902 526.181, 966.752 532.706, 961.403 539.729 C 956.055 546.753, 951.186 552.950, 950.585 553.500 C 949.983 554.050, 947.693 557.192, 945.495 560.483 C 943.298 563.774, 941.156 566.924, 940.735 567.483 C 935.947 573.850, 932.742 578.563, 929.500 584 C 926.266 589.425, 922.198 595.395, 918.258 600.500 C 917.833 601.050, 916.922 602.625, 916.232 604 C 915.543 605.375, 914.090 607.850, 913.004 609.500 C 911.918 611.150, 910.566 613.400, 910 614.500 C 909.434 615.600, 908.103 617.850, 907.042 619.500 C 905.981 621.150, 903.851 624.971, 902.307 627.990 C 900.763 631.010, 899.129 633.935, 898.676 634.490 C 897.709 635.675, 894.699 641.466, 886.615 657.689 C 883.378 664.185, 880.373 670.175, 879.936 671 C 873.701 682.775, 865 701.338, 865 702.864 C 865 703.400, 864.363 705.112, 863.585 706.669 C 860.913 712.017, 856.311 722.507, 854.007 728.500 C 852.739 731.800, 851.094 735.918, 850.351 737.651 C 849.608 739.384, 848.986 741.634, 848.968 742.651 C 848.951 743.668, 848.276 745.374, 847.468 746.441 C 846.661 747.509, 846 749.335, 846 750.500 C 846 751.665, 845.339 753.491, 844.532 754.559 C 843.724 755.626, 843.049 757.332, 843.032 758.349 C 843.014 759.366, 842.367 761.616, 841.593 763.349 C 839.905 767.128, 836 779.839, 836 781.554 C 836 782.224, 835.328 784.060, 834.506 785.636 C 833.685 787.211, 832.994 789.850, 832.971 791.500 C 832.948 793.150, 832.286 795.625, 831.500 797 C 830.714 798.375, 830.055 800.767, 830.035 802.316 C 830.016 803.864, 829.472 806.114, 828.827 807.316 C 828.182 808.517, 827.057 812.087, 826.327 815.250 C 825.597 818.413, 824.287 823.813, 823.415 827.250 C 822.543 830.688, 821.378 836.200, 820.826 839.500 C 820.274 842.800, 819.188 848.005, 818.411 851.066 C 817.635 854.127, 816.995 858.177, 816.989 860.066 C 816.983 861.955, 816.308 865.709, 815.489 868.409 C 814.670 871.109, 813.995 875.834, 813.989 878.909 C 813.974 886.691, 812.951 892.081, 811.376 892.686 C 810.642 892.968, 807.894 892.194, 805.270 890.966 C 802.647 889.739, 796.900 887.038, 792.500 884.965 C 779.622 878.896, 775.194 877.002, 773.805 876.968 C 773.087 876.951, 771.626 876.276, 770.559 875.468 C 769.491 874.661, 767.691 873.986, 766.559 873.968 C 765.426 873.951, 763.626 873.276, 762.559 872.468 C 761.491 871.661, 759.861 871, 758.936 871 C 757.477 871, 752.406 869.099, 745.500 865.962 C 742.315 864.516, 734.727 861.886, 732 861.284 C 730.625 860.980, 729.002 860.340, 728.393 859.862 C 727.785 859.384, 725.310 858.588, 722.893 858.092 C 720.477 857.597, 717.150 856.735, 715.500 856.176 C 713.850 855.618, 710.475 854.656, 708 854.038 C 705.525 853.421, 701.250 852.218, 698.500 851.366 C 692.861 849.619, 683.183 847.349, 675 845.854 C 671.975 845.301, 667.311 844.208, 664.635 843.425 C 661.960 842.641, 657.974 842, 655.778 842 C 653.583 842, 647.897 841.357, 643.143 840.571 C 619.485 836.660, 579.783 835.450, 547.500 837.656 C 527.240 839.040, 523.338 840.761, 517.239 851 C 515.100 854.591, 514.873 856.196, 512.855 882 C 511.551 898.668, 512.214 966.321, 513.699 968.198 C 514.266 968.914, 514.989 974.935, 515.307 981.577 C 515.624 988.219, 516.360 995.644, 516.941 998.077 C 517.522 1000.510, 518.451 1006.550, 519.006 1011.500 C 520.608 1025.812, 523.595 1042.041, 526.566 1052.588 C 527.355 1055.386, 528 1058.678, 528 1059.904 C 528 1061.129, 528.524 1063.110, 529.164 1064.306 C 529.804 1065.502, 530.893 1069.410, 531.583 1072.990 C 532.949 1080.069, 535.431 1090.606, 536.296 1093 C 536.595 1093.825, 538.065 1098.550, 539.564 1103.500 C 541.063 1108.450, 542.675 1112.928, 543.145 1113.450 C 543.615 1113.973, 544 1115.254, 544 1116.299 C 544 1117.343, 544.603 1119.616, 545.341 1121.349 C 546.078 1123.082, 547.721 1127.875, 548.991 1132 C 551.198 1139.167, 551.970 1141.242, 555.600 1149.750 C 556.479 1151.813, 557.869 1155.075, 558.686 1157 C 559.504 1158.925, 560.810 1161.774, 561.587 1163.331 C 562.364 1164.888, 563 1166.600, 563 1167.136 C 563 1167.672, 563.933 1170.223, 565.072 1172.805 C 566.212 1175.387, 567.823 1179.075, 568.653 1181 C 569.483 1182.925, 571.212 1186.525, 572.495 1189 C 573.779 1191.475, 576.689 1197.325, 578.963 1202 C 581.238 1206.675, 583.527 1211.175, 584.051 1212 C 584.576 1212.825, 585.460 1214.400, 586.017 1215.500 C 586.574 1216.600, 587.916 1218.850, 589 1220.500 C 590.084 1222.150, 591.455 1224.616, 592.048 1225.980 C 592.640 1227.343, 593.434 1228.693, 593.813 1228.980 C 594.191 1229.266, 595.400 1231.274, 596.500 1233.443 C 597.600 1235.611, 602.212 1242.986, 606.750 1249.832 C 611.288 1256.678, 615 1262.476, 615 1262.716 C 615 1263.293, 624.002 1275.219, 625.405 1276.500 C 626.007 1277.050, 627.760 1279.357, 629.300 1281.626 C 630.840 1283.895, 633.471 1287.270, 635.146 1289.126 C 636.822 1290.982, 639.554 1294.461, 641.218 1296.857 C 642.882 1299.254, 645.651 1302.692, 647.372 1304.499 C 649.092 1306.305, 652.518 1310.194, 654.983 1313.141 C 658.905 1317.829, 671.475 1331.293, 679.056 1338.927 C 683.685 1343.588, 701.440 1359.778, 704.500 1362.127 C 706.150 1363.394, 707.725 1364.696, 708 1365.019 C 708.275 1365.343, 711.875 1368.267, 716 1371.517 C 720.125 1374.768, 724.126 1378.037, 724.890 1378.782 C 725.655 1379.528, 727.455 1380.883, 728.890 1381.794 C 730.326 1382.704, 736.070 1386.836, 741.656 1390.975 C 753.257 1399.570, 772.336 1412, 773.929 1412 C 774.518 1412, 775 1412.406, 775 1412.902 C 775 1413.398, 776.237 1414.279, 777.750 1414.859 C 779.262 1415.439, 783.200 1417.466, 786.500 1419.364 C 792.972 1423.086, 807.331 1430.362, 813 1432.793 C 814.925 1433.618, 817.175 1434.680, 818 1435.153 C 818.825 1435.626, 820.175 1436.264, 821 1436.570 C 821.825 1436.877, 823.850 1437.746, 825.500 1438.503 C 827.150 1439.260, 830.750 1440.830, 833.500 1441.994 C 836.250 1443.157, 839.400 1444.522, 840.500 1445.028 C 844.280 1446.763, 851.504 1449.191, 854.500 1449.732 C 856.150 1450.031, 858.388 1450.888, 859.473 1451.637 C 860.557 1452.387, 862.064 1453, 862.821 1453 C 863.578 1453, 865.616 1453.622, 867.349 1454.383 C 870.195 1455.632, 876.150 1457.562, 887.500 1460.915 C 889.700 1461.564, 893.750 1462.467, 896.500 1462.921 C 899.250 1463.374, 903.638 1464.253, 906.250 1464.873 C 908.862 1465.493, 913.138 1466.508, 915.750 1467.129 C 924.822 1469.285, 934.552 1471.144, 943.830 1472.492 C 948.961 1473.237, 953.911 1474.145, 954.830 1474.509 C 957.571 1475.595, 991.182 1477.354, 1010.500 1477.421 C 1029.186 1477.487, 1057.974 1475.789, 1067.824 1474.040 C 1070.946 1473.486, 1076.200 1472.599, 1079.500 1472.069 C 1085.038 1471.180, 1091.715 1469.829, 1104.500 1467.012 C 1107.250 1466.406, 1112.875 1465.210, 1117 1464.354 C 1121.125 1463.499, 1126.525 1462.213, 1129 1461.498 C 1131.475 1460.783, 1135.075 1459.876, 1137 1459.483 C 1138.925 1459.091, 1140.950 1458.423, 1141.500 1458 C 1142.050 1457.577, 1143.993 1456.912, 1145.817 1456.521 C 1147.642 1456.131, 1150.342 1455.182, 1151.817 1454.412 C 1153.293 1453.642, 1155.175 1452.995, 1156 1452.974 C 1156.825 1452.953, 1158.374 1452.276, 1159.441 1451.468 C 1160.509 1450.661, 1162.309 1449.997, 1163.441 1449.994 C 1164.574 1449.990, 1166.789 1449.315, 1168.364 1448.494 C 1169.940 1447.672, 1171.795 1447, 1172.487 1447 C 1173.924 1447, 1180.748 1444.204, 1189.500 1440.028 C 1192.800 1438.453, 1199.100 1435.523, 1203.500 1433.515 C 1216.068 1427.781, 1225.893 1422.703, 1233.500 1418.009 C 1235.150 1416.991, 1238.975 1414.901, 1242 1413.366 C 1245.025 1411.830, 1249.077 1409.432, 1251.004 1408.037 C 1252.931 1406.642, 1255.406 1404.961, 1256.504 1404.302 C 1267.920 1397.449, 1271.858 1394.877, 1272.954 1393.555 C 1273.664 1392.700, 1274.817 1392, 1275.515 1392 C 1276.214 1392, 1277.045 1391.325, 1277.362 1390.500 C 1277.678 1389.675, 1278.626 1389, 1279.469 1389 C 1280.311 1389, 1281 1388.536, 1281 1387.969 C 1281 1387.401, 1281.787 1386.652, 1282.750 1386.303 C 1284.511 1385.666, 1300.107 1374.003, 1303.116 1371.073 C 1304.005 1370.208, 1305.776 1368.825, 1307.051 1368 C 1308.327 1367.175, 1311.392 1364.700, 1313.862 1362.500 C 1316.331 1360.300, 1319.635 1357.375, 1321.204 1356 C 1338.407 1340.918, 1370.104 1307.172, 1382.990 1290.222 C 1386.009 1286.250, 1388.822 1283, 1389.240 1283 C 1389.658 1283, 1390 1282.498, 1390 1281.884 C 1390 1281.270, 1392.165 1278.007, 1394.810 1274.634 C 1397.456 1271.260, 1402.464 1264.225, 1405.939 1259 C 1409.414 1253.775, 1413.099 1248.281, 1414.129 1246.790 C 1415.158 1245.300, 1416 1243.661, 1416 1243.147 C 1416 1242.634, 1416.675 1241.955, 1417.500 1241.638 C 1418.325 1241.322, 1419 1240.411, 1419 1239.615 C 1419 1238.818, 1419.388 1238.017, 1419.861 1237.833 C 1420.335 1237.650, 1422.641 1233.900, 1424.987 1229.500 C 1427.332 1225.100, 1429.745 1220.883, 1430.349 1220.128 C 1431.568 1218.605, 1435.428 1211.389, 1439.511 1203 C 1449.004 1183.496, 1455.334 1170.227, 1455.971 1168.500 C 1456.376 1167.400, 1457.673 1164.350, 1458.854 1161.723 C 1460.034 1159.096, 1461 1156.396, 1461 1155.723 C 1460.999 1155.050, 1462.319 1151.800, 1463.933 1148.500 C 1465.547 1145.200, 1467.857 1139.800, 1469.067 1136.500 C 1470.277 1133.200, 1471.631 1129.600, 1472.076 1128.500 C 1472.520 1127.400, 1473.177 1125.007, 1473.536 1123.183 C 1473.895 1121.358, 1474.818 1118.658, 1475.588 1117.183 C 1476.358 1115.707, 1476.990 1113.503, 1476.994 1112.284 C 1476.997 1111.065, 1477.630 1108.590, 1478.399 1106.784 C 1480.763 1101.235, 1482.694 1095.708, 1483.913 1091 C 1484.554 1088.525, 1485.763 1084.025, 1486.600 1081 C 1488.330 1074.751, 1490.422 1065.300, 1492.024 1056.500 C 1492.625 1053.200, 1493.627 1048.925, 1494.250 1047 C 1494.874 1045.075, 1495.692 1041.250, 1496.070 1038.500 C 1496.447 1035.750, 1497.232 1031.025, 1497.815 1028 C 1504.744 992.013, 1506.313 967.125, 1505.556 905.221 L 1504.942 854.943 1502.134 849.721 C 1497.844 841.745, 1493.318 839.186, 1481.320 837.951 C 1464.501 836.221, 1419.808 835.635, 1406 836.964 C 1399.125 837.626, 1389.225 838.530, 1384 838.972 C 1378.775 839.415, 1373.233 840.277, 1371.685 840.889 C 1370.137 841.500, 1366.762 842.011, 1364.185 842.024 C 1361.608 842.037, 1357.700 842.524, 1355.500 843.106 C 1353.300 843.688, 1348.669 844.562, 1345.209 845.048 C 1341.749 845.535, 1338.374 846.285, 1337.709 846.716 C 1337.044 847.147, 1334.025 848.040, 1331 848.700 C 1325.894 849.815, 1320.216 851.202, 1309 854.077 C 1306.525 854.711, 1303.022 855.854, 1301.216 856.615 C 1299.410 857.377, 1296.935 858.016, 1295.716 858.035 C 1294.497 858.055, 1292.375 858.714, 1291 859.500 C 1289.625 860.286, 1287.668 860.945, 1286.651 860.965 C 1285.634 860.984, 1283.384 861.625, 1281.651 862.390 C 1278.441 863.805, 1266.732 868.169, 1259.500 870.645 C 1257.300 871.398, 1254.719 872.461, 1253.764 873.007 C 1252.809 873.553, 1251.303 874, 1250.418 874 C 1249.533 874, 1247.614 874.608, 1246.154 875.352 C 1244.694 876.095, 1239.900 878.402, 1235.500 880.477 C 1231.100 882.553, 1226.825 884.647, 1226 885.132 C 1225.175 885.616, 1223.825 886.264, 1223 886.570 C 1220.577 887.471, 1214.724 890.062, 1211.669 891.587 C 1210.112 892.364, 1208.246 893, 1207.522 893 C 1205.928 893, 1204.011 882.954, 1203.976 874.418 C 1203.962 871.163, 1203.472 866.475, 1202.886 864 C 1202.300 861.525, 1201.212 855.675, 1200.467 851 C 1199.722 846.325, 1198.424 839.575, 1197.583 836 C 1196.741 832.425, 1195.412 826.800, 1194.631 823.500 C 1193.849 820.200, 1192.681 815.250, 1192.035 812.500 C 1191.390 809.750, 1190.258 805.475, 1189.521 803 C 1188.784 800.525, 1187.877 796.590, 1187.504 794.255 C 1187.131 791.921, 1186.415 789.757, 1185.913 789.446 C 1185.411 789.136, 1185 788.035, 1185 787.001 C 1185 785.966, 1182.948 779.130, 1180.440 771.810 C 1177.931 764.489, 1175.431 756.700, 1174.882 754.500 C 1174.334 752.300, 1173.461 750.072, 1172.943 749.550 C 1172.424 749.028, 1172 747.805, 1172 746.834 C 1172 745.131, 1170.860 742.142, 1166.872 733.390 C 1165.843 731.130, 1165 728.804, 1165 728.222 C 1165 727.639, 1164.380 725.888, 1163.622 724.331 C 1162.865 722.774, 1161.475 719.700, 1160.535 717.500 C 1159.596 715.300, 1158.190 712.226, 1157.413 710.669 C 1156.636 709.112, 1156 707.347, 1156 706.748 C 1156 706.149, 1154.675 702.922, 1153.055 699.579 C 1151.435 696.236, 1149.636 692.375, 1149.057 691 C 1148.478 689.625, 1147.603 687.825, 1147.112 687 C 1146.622 686.175, 1145.536 683.925, 1144.700 682 C 1141.847 675.429, 1131.887 655.507, 1129.952 652.500 C 1128.891 650.850, 1127.763 648.825, 1127.447 648 C 1126.474 645.463, 1122.531 637.529, 1121.980 637 C 1121.693 636.725, 1120.901 635.375, 1120.219 634 C 1119.537 632.625, 1118.090 630.150, 1117.004 628.500 C 1115.918 626.850, 1114.545 624.384, 1113.952 623.020 C 1113.360 621.657, 1112.565 620.307, 1112.187 620.020 C 1111.808 619.734, 1110.416 617.250, 1109.092 614.500 C 1106.796 609.727, 1100.243 599.055, 1098.962 598 C 1098.627 597.725, 1098.044 596.825, 1097.666 596 C 1097.288 595.175, 1096.090 593.150, 1095.004 591.500 C 1093.918 589.850, 1092.570 587.449, 1092.007 586.165 C 1091.122 584.143, 1083.088 572.812, 1080.044 569.292 C 1079.470 568.628, 1079 567.707, 1079 567.246 C 1079 566.784, 1078.334 565.528, 1077.520 564.453 C 1067.799 551.627, 1059 539.576, 1059 539.089 C 1059 538.754, 1057.927 537.322, 1056.616 535.908 C 1055.304 534.494, 1050.037 527.983, 1044.911 521.441 C 1027.641 499.397, 1026.350 498.199, 1015.960 494.582 C 1011.026 492.864, 1009.231 492.730, 1007 493.912 M 1005.842 663.108 C 1000.557 671.156, 992.394 685.237, 986.483 696.500 C 974.522 719.292, 969.162 730.289, 961.867 747 C 960.786 749.475, 959.249 752.774, 958.451 754.331 C 957.653 755.888, 956.997 757.688, 956.994 758.331 C 956.990 758.974, 956.407 760.625, 955.697 762 C 954.987 763.375, 953.363 767.425, 952.089 771 C 950.815 774.575, 949.149 778.918, 948.386 780.651 C 947.624 782.384, 947 784.436, 947 785.210 C 947 785.984, 946.339 787.491, 945.532 788.559 C 944.724 789.626, 944.049 791.317, 944.032 792.316 C 944.014 793.314, 943.445 795.114, 942.766 796.316 C 942.087 797.517, 940.991 800.525, 940.329 803 C 939.668 805.475, 938.450 809.975, 937.622 813 C 933.196 829.177, 931.707 834.918, 930.889 838.948 C 930.393 841.394, 929.562 844.769, 929.042 846.448 C 928.523 848.126, 927.144 854.450, 925.978 860.500 C 924.812 866.550, 923.215 874.489, 922.429 878.143 C 921.643 881.797, 921 886.975, 921 889.650 C 921 892.325, 920.542 896.085, 919.983 898.007 C 918.275 903.875, 914.542 949.747, 915.401 954.322 C 916.067 957.872, 919.311 961.661, 927.542 968.500 C 931.967 972.177, 936.690 976.450, 947.610 986.658 C 951.467 990.263, 954.756 993.766, 975.888 1016.779 C 983.061 1024.590, 994.836 1039.333, 1000 1046.969 C 1000.825 1048.188, 1002.335 1050.157, 1003.355 1051.343 C 1004.375 1052.529, 1006.017 1054.516, 1007.004 1055.757 C 1009.306 1058.652, 1011.098 1057.931, 1014.666 1052.675 C 1016.225 1050.379, 1017.950 1047.993, 1018.500 1047.373 C 1019.050 1046.752, 1020.175 1045.248, 1021 1044.029 C 1024.483 1038.883, 1027.079 1035.565, 1030.678 1031.653 C 1032.780 1029.369, 1037.187 1024.125, 1040.471 1020 C 1048.219 1010.267, 1083.610 974.886, 1092 968.485 C 1103.555 959.669, 1103.016 960.877, 1102.894 944.104 C 1102.694 916.553, 1099.576 886.392, 1094.405 862 C 1092.921 855, 1092.036 851.155, 1088.993 838.500 C 1086.060 826.306, 1085.081 822.185, 1084.002 817.500 C 1083.369 814.750, 1082.209 811.082, 1081.425 809.349 C 1080.641 807.616, 1080 805.697, 1080 805.085 C 1080 804.473, 1079.553 803.191, 1079.007 802.236 C 1077.933 800.358, 1075.378 793.323, 1074.017 788.500 C 1072.983 784.836, 1067.381 769.260, 1066.105 766.500 C 1064.408 762.831, 1061.299 755.589, 1057.518 746.500 C 1055.458 741.550, 1052.181 734.350, 1050.235 730.500 C 1044.941 720.025, 1041.605 713.320, 1037.549 705 C 1035.539 700.875, 1033.048 696.077, 1032.016 694.337 C 1030.983 692.598, 1028.249 687.648, 1025.940 683.337 C 1023.631 679.027, 1020.450 673.565, 1018.871 671.200 C 1017.292 668.835, 1015.993 666.585, 1015.985 666.200 C 1015.977 665.815, 1014.488 663.748, 1012.677 661.608 L 1009.384 657.715 1005.842 663.108 M 1382.500 948.656 C 1377.550 949.408, 1371.025 950.502, 1368 951.088 C 1364.975 951.674, 1360.475 952.402, 1358 952.707 C 1355.525 953.012, 1352.961 953.688, 1352.302 954.210 C 1351.643 954.732, 1348.718 955.523, 1345.802 955.969 C 1342.886 956.415, 1339.150 957.253, 1337.500 957.831 C 1335.850 958.410, 1331.575 959.643, 1328 960.571 C 1319.732 962.719, 1309.572 965.789, 1304.750 967.595 C 1302.688 968.368, 1299.313 969.624, 1297.250 970.387 C 1280.639 976.532, 1275.673 978.668, 1258.347 987.120 C 1249.463 991.454, 1241.878 995, 1241.492 995 C 1241.106 995, 1238.790 996.350, 1236.345 998 C 1233.900 999.650, 1231.711 1001, 1231.481 1001 C 1230.525 1001, 1213.220 1011.526, 1209.856 1014.154 C 1207.852 1015.719, 1205.921 1017, 1205.566 1017 C 1204.674 1017, 1198.577 1021.326, 1198.167 1022.250 C 1197.983 1022.663, 1197.416 1023, 1196.906 1023 C 1196.043 1023, 1187.011 1029.034, 1184.285 1031.431 C 1182.681 1032.842, 1181.291 1033.916, 1176.499 1037.447 C 1174.300 1039.068, 1172.275 1040.644, 1172 1040.949 C 1171.725 1041.254, 1167.450 1044.865, 1162.500 1048.972 C 1150.908 1058.590, 1136.011 1072.850, 1126 1083.910 C 1118.102 1092.635, 1110.238 1102.014, 1104.541 1109.500 C 1100.775 1114.450, 1097.087 1119, 1096.347 1119.610 C 1095.606 1120.221, 1095 1121.201, 1095 1121.789 C 1095 1122.376, 1094.421 1123.452, 1093.713 1124.179 C 1093.004 1124.905, 1091.348 1127.300, 1090.033 1129.500 C 1088.717 1131.700, 1086.430 1135.075, 1084.951 1137 C 1081.987 1140.857, 1075.934 1151.538, 1070.334 1162.790 C 1066.351 1170.795, 1066.336 1169.191, 1070.515 1182.500 C 1071.206 1184.700, 1072.677 1189.650, 1073.784 1193.500 C 1074.892 1197.350, 1076.518 1202.914, 1077.399 1205.865 C 1078.279 1208.815, 1079 1212.023, 1079 1212.993 C 1079 1213.962, 1079.675 1216.371, 1080.500 1218.346 C 1081.325 1220.320, 1082 1223.210, 1082 1224.768 C 1082 1226.326, 1082.465 1228.065, 1083.034 1228.634 C 1083.603 1229.203, 1084.466 1231.880, 1084.952 1234.584 C 1085.438 1237.288, 1086.799 1243.775, 1087.976 1249 C 1089.153 1254.225, 1090.726 1262.325, 1091.473 1267 C 1092.219 1271.675, 1093.108 1276.625, 1093.449 1278 C 1093.790 1279.375, 1094.478 1284.325, 1094.978 1289 C 1095.478 1293.675, 1096.336 1299.750, 1096.884 1302.500 C 1097.432 1305.250, 1097.908 1311.383, 1097.940 1316.128 C 1097.975 1321.127, 1098.590 1326.174, 1099.403 1328.128 C 1100.243 1330.147, 1100.957 1336.313, 1101.182 1343.500 L 1101.558 1355.500 1105.299 1355.278 C 1107.357 1355.155, 1112.294 1353.883, 1116.270 1352.451 C 1120.247 1351.018, 1124.850 1349.489, 1126.500 1349.052 C 1128.150 1348.616, 1130.625 1347.793, 1132 1347.223 C 1133.375 1346.653, 1136.975 1345.218, 1140 1344.034 C 1145.697 1341.804, 1146.517 1341.441, 1159 1335.634 C 1178.831 1326.408, 1184.505 1323.538, 1186 1321.978 C 1186.275 1321.691, 1192.125 1318.128, 1199 1314.060 C 1205.875 1309.991, 1211.725 1306.389, 1212 1306.055 C 1212.275 1305.721, 1216.043 1302.984, 1220.373 1299.974 C 1224.703 1296.963, 1229.090 1293.713, 1230.123 1292.750 C 1231.155 1291.787, 1232.450 1291, 1233 1291 C 1233.550 1291, 1234 1290.642, 1234 1290.205 C 1234 1289.769, 1236.347 1287.631, 1239.215 1285.455 C 1252.095 1275.688, 1282.581 1245.160, 1294.118 1230.478 C 1298.728 1224.611, 1303.850 1218.107, 1305.500 1216.024 C 1307.150 1213.941, 1309.175 1211.232, 1310 1210.004 C 1310.825 1208.775, 1312.963 1205.824, 1314.750 1203.445 C 1316.537 1201.066, 1318 1198.850, 1318 1198.519 C 1318 1197.662, 1322.353 1191.565, 1323.250 1191.167 C 1323.662 1190.983, 1324 1190.293, 1324 1189.632 C 1324 1188.972, 1326.138 1185.268, 1328.750 1181.401 C 1335.059 1172.063, 1334.714 1172.671, 1343.475 1155.500 C 1347.684 1147.250, 1351.473 1139.825, 1351.895 1139 C 1355.036 1132.862, 1356 1130.707, 1356 1129.820 C 1356 1129.260, 1356.642 1127.384, 1357.428 1125.651 C 1358.213 1123.918, 1359.794 1120.250, 1360.941 1117.500 C 1362.088 1114.750, 1363.696 1111.226, 1364.513 1109.669 C 1365.331 1108.112, 1366 1106.156, 1366 1105.323 C 1366 1104.490, 1366.623 1102.614, 1367.385 1101.154 C 1368.147 1099.694, 1369.778 1095.125, 1371.009 1091 C 1372.240 1086.875, 1374.352 1080.350, 1375.701 1076.500 C 1377.050 1072.650, 1378.530 1068.150, 1378.989 1066.500 C 1379.449 1064.850, 1380.275 1062.150, 1380.826 1060.500 C 1382.557 1055.316, 1384.763 1046.728, 1385.964 1040.500 C 1387.798 1030.992, 1389.771 1020.085, 1391.030 1012.500 C 1391.669 1008.650, 1392.823 1002.995, 1393.596 999.934 C 1394.368 996.873, 1395 992.058, 1395 989.233 C 1395 986.409, 1395.675 981.506, 1396.500 978.339 C 1397.455 974.672, 1398 967.933, 1398 959.790 L 1398 947 1394.750 947.145 C 1392.963 947.225, 1387.450 947.905, 1382.500 948.656 M 620.750 948.572 C 619.679 949.659, 619.821 963.399, 620.933 966.325 C 621.447 967.675, 622.168 974.342, 622.537 981.140 C 622.906 987.938, 623.836 995.428, 624.604 997.785 C 625.372 1000.142, 626.016 1004.192, 626.035 1006.785 C 626.055 1009.378, 626.714 1012.625, 627.500 1014 C 628.286 1015.375, 628.945 1018.035, 628.965 1019.912 C 628.984 1021.789, 629.653 1025.614, 630.451 1028.412 C 631.250 1031.210, 632.865 1038, 634.041 1043.500 C 636.212 1053.660, 638.364 1062.081, 640.174 1067.500 C 640.725 1069.150, 641.514 1071.853, 641.928 1073.507 C 642.341 1075.161, 643.178 1077.411, 643.787 1078.507 C 644.395 1079.603, 646.552 1085.675, 648.579 1092 C 650.606 1098.325, 652.880 1104.694, 653.632 1106.154 C 654.385 1107.614, 655 1109.371, 655 1110.058 C 655 1110.745, 656.183 1113.825, 657.629 1116.904 C 661.180 1124.463, 667.744 1138.700, 669.660 1143 C 670.518 1144.925, 671.592 1147.175, 672.046 1148 C 672.500 1148.825, 674.945 1153.550, 677.480 1158.500 C 684.061 1171.351, 687.393 1177.311, 690.914 1182.528 C 692.611 1185.043, 694 1187.528, 694 1188.050 C 694 1188.573, 694.420 1189, 694.933 1189 C 695.446 1189, 696.160 1189.930, 696.521 1191.066 C 697.662 1194.662, 718.482 1224.015, 724.976 1231.183 C 725.814 1232.108, 728.525 1235.370, 731 1238.431 C 743.209 1253.531, 775.741 1284.138, 789.001 1293 C 790.235 1293.825, 791.752 1294.981, 792.373 1295.569 C 792.993 1296.157, 795.750 1298.216, 798.500 1300.146 C 813.876 1310.933, 817.114 1313.108, 819.202 1314.049 C 821.733 1315.191, 823.325 1316.135, 830 1320.450 C 834.055 1323.072, 850.534 1331.455, 866.500 1339.019 C 875.526 1343.295, 886.739 1347.504, 893.461 1349.141 C 895.639 1349.671, 897.889 1350.480, 898.461 1350.939 C 899.032 1351.398, 901.410 1352.089, 903.745 1352.474 C 906.079 1352.859, 908.243 1353.585, 908.554 1354.087 C 908.864 1354.589, 910.072 1355, 911.239 1355 C 912.405 1355, 916.091 1355.858, 919.430 1356.907 C 934.980 1361.792, 964.572 1366.852, 982.738 1367.731 C 991.832 1368.171, 993.051 1368.031, 993.646 1366.480 C 994.947 1363.090, 990.649 1311.310, 988.709 1307 C 988.338 1306.175, 987.601 1301.675, 987.072 1297 C 986.104 1288.454, 984.955 1282.174, 982.498 1272 C 981.767 1268.975, 980.194 1262, 979.002 1256.500 C 977.811 1251, 976.459 1245.546, 975.999 1244.380 C 975.538 1243.214, 974.843 1240.064, 974.455 1237.380 C 974.066 1234.696, 973.395 1232.050, 972.963 1231.500 C 972.532 1230.950, 971.855 1228.700, 971.459 1226.500 C 971.063 1224.300, 970.371 1222.032, 969.922 1221.461 C 969.472 1220.889, 968.666 1218.639, 968.130 1216.461 C 967.594 1214.282, 966.056 1209.350, 964.714 1205.500 C 963.371 1201.650, 961.281 1195.350, 960.069 1191.500 C 957.590 1183.625, 957.042 1182.305, 950.720 1169 C 948.237 1163.775, 945.147 1157.250, 943.854 1154.500 C 942.560 1151.750, 941.266 1149.275, 940.978 1149 C 940.434 1148.481, 937.279 1143.756, 935.512 1140.815 C 934.955 1139.888, 932.346 1135.545, 929.713 1131.163 C 927.079 1126.782, 923.254 1121.240, 921.213 1118.848 C 919.171 1116.457, 915.957 1112.250, 914.071 1109.500 C 912.185 1106.750, 909.035 1102.689, 907.071 1100.475 C 905.107 1098.261, 901.475 1094.020, 899 1091.051 C 893.333 1084.253, 870.253 1061.126, 862.523 1054.500 C 859.315 1051.750, 854.847 1047.901, 852.595 1045.947 C 850.343 1043.992, 844.450 1039.279, 839.500 1035.473 C 834.550 1031.666, 830.050 1028.182, 829.500 1027.729 C 828.950 1027.276, 826.250 1025.426, 823.500 1023.618 C 820.750 1021.810, 814 1017.317, 808.501 1013.634 C 803.001 1009.951, 796.701 1006.009, 794.501 1004.875 C 789.642 1002.371, 787.742 1001.260, 782.270 997.730 C 779.943 996.228, 777.836 995, 777.587 995 C 777.338 995, 770.466 991.819, 762.317 987.932 C 741.036 977.779, 738.977 976.860, 730 973.500 C 727.525 972.574, 724.150 971.215, 722.500 970.482 C 715.141 967.209, 694.849 961.048, 684.500 958.944 C 682.300 958.496, 678.475 957.607, 676 956.968 C 661.795 953.299, 655.202 952.038, 640 950.084 C 624.515 948.093, 621.458 947.853, 620.750 948.572" stroke="none" fill="#99a6b4" fill-rule="evenodd"/>
</svg>