<svg xmlns="http://www.w3.org/2000/svg" width="2000" height="2000" viewBox="0 0 2000 2000" version="1.1">
	<path d="M 581.500 111.625 C 579.300 111.801, 570.750 112.439, 562.500 113.042 C 548.163 114.090, 523.976 117.582, 510.037 120.617 C 506.441 121.399, 502.150 122.315, 500.500 122.650 C 493.425 124.091, 466.772 131.373, 458.500 134.127 C 402.875 152.642, 360.505 174.239, 317.500 205.999 C 301.747 217.633, 290.586 227.356, 275.627 242.477 C 248.327 270.073, 226.335 297.952, 210.357 325.223 C 204.264 335.622, 184.902 373.333, 180.114 384.128 C 169.293 408.523, 158.116 441.692, 153.535 463 C 147.048 493.170, 146.947 493.741, 143.495 519.784 C 139.435 550.425, 143.984 611.904, 153.499 654.983 C 162.287 694.766, 174.104 728.424, 191.477 763.149 C 215.948 812.063, 246.045 851.458, 327.500 941.191 C 345.411 960.922, 376.179 995.501, 386.500 1007.499 C 390.900 1012.614, 399.225 1022.053, 405 1028.476 C 410.775 1034.898, 419.964 1045.181, 425.420 1051.326 C 430.876 1057.472, 439.026 1066.550, 443.530 1071.500 C 456.444 1085.692, 463.989 1094.167, 481.328 1113.960 C 490.223 1124.114, 500.650 1135.829, 504.500 1139.995 C 508.350 1144.161, 515.100 1151.776, 519.500 1156.918 C 528.784 1167.768, 560.104 1201.794, 584.007 1227 C 600.561 1244.456, 610.400 1255.733, 621.589 1270.077 C 632.556 1284.135, 636.176 1288.451, 650.733 1304.825 C 677.515 1334.952, 684.449 1339.142, 710.232 1340.784 C 726.975 1341.849, 729.499 1342.814, 730.577 1348.559 C 730.946 1350.525, 730.680 1356.941, 729.987 1362.817 C 729.294 1368.692, 728.913 1376.650, 729.141 1380.500 C 730.093 1396.589, 740.437 1410.648, 786.906 1459.019 C 799.333 1471.955, 813.550 1487.304, 818.500 1493.129 C 826.483 1502.523, 845.850 1524.708, 875 1557.851 C 880.225 1563.791, 894.625 1579.851, 907 1593.539 C 928.871 1617.732, 941.754 1632.134, 954.362 1646.487 C 957.738 1650.330, 962.975 1656.198, 966 1659.525 C 969.025 1662.853, 975.370 1669.834, 980.100 1675.038 C 984.830 1680.242, 991.355 1687.506, 994.600 1691.180 C 1006.729 1704.913, 1048.459 1749.144, 1066.161 1767.030 C 1104.957 1806.231, 1153.564 1841.724, 1197.876 1863.207 C 1220.694 1874.270, 1230.083 1878.019, 1256 1886.417 C 1281.884 1894.804, 1280.635 1894.429, 1292.500 1897.375 C 1338.385 1908.768, 1374.187 1912.655, 1424.500 1911.706 C 1453.911 1911.151, 1461.686 1910.268, 1488.954 1904.387 C 1515.216 1898.722, 1549.851 1888.011, 1579 1876.539 C 1615.584 1862.142, 1659.852 1836.746, 1686.622 1814.798 C 1728.313 1780.618, 1763.904 1742.801, 1785.252 1710 C 1792.421 1698.985, 1803.037 1679.029, 1808.128 1667 C 1831.961 1610.679, 1836.648 1596.871, 1845.123 1558 C 1854.172 1516.497, 1854.221 1516.031, 1854.731 1467 C 1855.187 1423.205, 1854.892 1416.862, 1851.366 1394.500 C 1843.980 1347.663, 1819.640 1282.963, 1791.927 1236.500 C 1783.481 1222.340, 1754.489 1179.365, 1747.151 1170.129 C 1733.398 1152.819, 1718.416 1135.393, 1698.465 1113.500 C 1693.453 1108, 1686.685 1100.319, 1683.426 1096.431 C 1680.167 1092.543, 1672.775 1084.202, 1667 1077.894 C 1656.144 1066.037, 1614.935 1019.723, 1607 1010.460 C 1604.525 1007.571, 1598.221 1000.521, 1592.990 994.795 C 1587.760 989.068, 1579.001 979.009, 1573.527 972.441 C 1568.053 965.874, 1563.323 960.275, 1563.016 960 C 1562.709 959.725, 1555.950 951.625, 1547.995 942 C 1540.040 932.375, 1529.924 920.433, 1525.516 915.462 C 1521.107 910.492, 1513.675 901.973, 1509 896.533 C 1497.055 882.632, 1482.100 865.982, 1472.595 856 C 1468.143 851.325, 1458.713 840.975, 1451.640 833 C 1444.567 825.025, 1429.868 809.470, 1418.974 798.434 C 1398.176 777.363, 1393.755 774.028, 1382.068 770.595 C 1379.081 769.718, 1373.681 768.999, 1370.068 768.998 C 1360.386 768.996, 1356.941 766.960, 1354.839 760 C 1353.926 756.975, 1352.481 749.924, 1351.629 744.332 C 1348.821 725.905, 1345.126 717.367, 1333.500 702.435 C 1320.134 685.268, 1314.673 678.820, 1300.901 663.948 C 1261.751 621.670, 1240.904 598.694, 1217.625 572.170 C 1210.544 564.101, 1199.519 551.881, 1193.125 545.014 C 1173.898 524.362, 1161.929 511.335, 1154.057 502.491 C 1151.613 499.746, 1144.805 492.325, 1138.927 486 C 1133.049 479.675, 1122.224 467.487, 1114.870 458.916 C 1098.456 439.784, 1076.836 415.481, 1054.964 391.574 C 1038.995 374.119, 1021.428 354.355, 1010 340.987 C 1004.170 334.167, 996.856 325.834, 995.967 325 C 995.675 324.725, 991.427 320, 986.528 314.500 C 981.630 309, 973.769 300.245, 969.061 295.045 C 964.352 289.845, 958.250 283.028, 955.500 279.897 C 952.750 276.765, 940.823 264.595, 928.996 252.852 C 888.132 212.277, 869.787 198.340, 823.565 172.755 C 808.761 164.561, 779.289 150, 777.508 150 C 777.261 150, 774.683 148.919, 771.780 147.597 C 744.292 135.087, 705.301 123.881, 671 118.632 C 638.618 113.677, 596.787 110.402, 581.500 111.625" stroke="none" fill="#e0e1db" fill-rule="evenodd"/>
</svg>