<svg xmlns="http://www.w3.org/2000/svg" width="2000" height="2000" viewBox="0 0 2000 2000" version="1.1">
	<path d="M 993.485 367.100 C 987.577 370.214, 984.129 373.802, 969.302 392.272 C 956.368 408.384, 939.650 432.208, 930.196 448 C 915.690 472.231, 894.894 514.726, 888.111 534 C 887.046 537.025, 884.767 543.325, 883.046 548 C 876.152 566.725, 869.983 589.392, 865.082 614 C 863.384 622.525, 861.546 631.672, 860.997 634.326 C 860.449 636.981, 860 640.881, 860 642.995 C 860 648.860, 859.309 649.952, 856.178 649.035 C 854.705 648.603, 849.900 646.484, 845.500 644.324 C 841.100 642.164, 833 638.697, 827.500 636.618 C 822 634.539, 815.461 632.005, 812.969 630.986 C 804.297 627.439, 784.001 621.046, 775 619.025 C 773.075 618.593, 767.338 617.284, 762.251 616.117 C 741.298 611.311, 722.582 609.619, 691 609.676 C 657.741 609.735, 656.517 609.967, 650.622 617.301 C 647.677 620.966, 647.532 621.615, 646.608 635.301 C 644.415 667.764, 645.780 698.761, 650.911 733 C 653.262 748.692, 654.268 754.076, 656.519 763 C 657.420 766.575, 658.399 770.625, 658.695 772 C 662.428 789.391, 672.772 821.812, 678.954 835.500 C 679.947 837.700, 682.343 843.325, 684.277 848 C 688.267 857.642, 696.957 874.648, 703.964 886.525 C 727.491 926.405, 757.361 961.141, 791.500 988.320 C 801.469 996.256, 826.335 1014, 827.489 1014 C 827.749 1014, 830.332 1015.493, 833.231 1017.318 C 856.352 1031.874, 893.997 1046.684, 926.500 1054.011 C 928.700 1054.507, 933.425 1055.586, 937 1056.408 C 974.062 1064.939, 1025.870 1064.555, 1065 1055.458 C 1066.375 1055.138, 1069.300 1054.474, 1071.500 1053.982 C 1085.268 1050.903, 1091.127 1049.206, 1104.931 1044.298 C 1166.982 1022.236, 1219.791 983.968, 1263.878 929.119 C 1270.988 920.273, 1290.752 891.037, 1296.069 881.500 C 1316.645 844.594, 1333.764 798.714, 1342.011 758.373 C 1349.018 724.098, 1350.484 707.128, 1350.322 662.217 C 1350.123 607.175, 1352.265 610.418, 1315.474 609.439 C 1289.364 608.743, 1272.262 609.686, 1251.500 612.964 C 1218.763 618.133, 1182.972 629.166, 1152.670 643.431 C 1146.163 646.494, 1140.032 649, 1139.045 649 C 1137.096 649, 1136.012 645.502, 1135.984 639.125 C 1135.944 629.676, 1125.714 582.774, 1119.599 564 C 1102.830 512.516, 1076.691 459.739, 1046.067 415.536 C 1037.552 403.244, 1014.611 373.773, 1010.854 370.298 C 1008.183 367.828, 1001.999 365, 999.267 365 C 998.279 365, 995.677 365.945, 993.485 367.100 M 996.080 482.105 C 992.033 487.580, 980.809 507.419, 973.448 522.109 C 958.170 552.602, 947.044 583.244, 940.084 614 C 938.902 619.225, 937.520 625.300, 937.013 627.500 C 933.981 640.654, 931.020 668.090, 931.009 683.115 L 931 695.731 938.250 701.745 C 953.664 714.531, 976.688 739.040, 989.704 756.514 C 993.992 762.271, 998.007 766.986, 998.627 766.991 C 999.247 766.996, 1002.087 763.803, 1004.938 759.895 C 1018.385 741.466, 1044.003 713.992, 1059.777 701.087 C 1062.679 698.712, 1065.438 696.034, 1065.909 695.135 C 1067.038 692.979, 1065.528 661.577, 1063.594 647 C 1059.643 617.218, 1050.554 583.598, 1038.314 553.500 C 1028.610 529.636, 1003.042 481.121, 999.378 479.621 C 998.762 479.368, 997.277 480.486, 996.080 482.105 M 1268.500 685.679 C 1264.618 686.170, 1249.888 688.727, 1243.618 689.999 C 1229.107 692.942, 1200.259 702.087, 1188.500 707.473 C 1162.684 719.297, 1149.527 726.600, 1131 739.388 C 1093.424 765.326, 1060.271 801.438, 1042.613 835.666 L 1037.884 844.832 1040.410 853.166 C 1046.888 874.547, 1053.901 904.531, 1056.862 923.500 C 1058.479 933.864, 1061.169 956.510, 1062.541 971.315 C 1062.902 975.203, 1063.694 978.329, 1064.387 978.595 C 1066.470 979.394, 1089.862 971.133, 1104.253 964.515 C 1124.384 955.258, 1141.530 944.878, 1158.500 931.674 C 1169.609 923.031, 1196.226 896.308, 1205.050 884.939 C 1222.896 861.948, 1239.366 833.801, 1249.487 809 C 1254.519 796.669, 1254.921 795.528, 1260.401 778 C 1262.379 771.675, 1264.422 765.150, 1264.943 763.500 C 1265.868 760.566, 1270.105 739.925, 1272.025 729 C 1275.170 711.099, 1277.085 688.558, 1275.656 686.250 C 1274.886 685.007, 1274.230 684.954, 1268.500 685.679 M 720.575 686.879 C 719.224 689.065, 722.461 718.371, 726.042 736.378 C 728.040 746.426, 728.392 748.027, 731.557 761.500 C 734.084 772.257, 744.360 801.879, 749.521 813.282 C 772.764 864.635, 800.221 901.522, 836.492 930.122 C 865.415 952.927, 892.874 967.244, 927 977.311 C 941.136 981.481, 951.896 983.830, 964.301 985.455 C 979.908 987.498, 987.872 987.497, 988.658 985.450 C 990.030 981.875, 986.163 945.127, 982.402 926 C 979.259 910.016, 974.240 889.877, 970.315 877.500 C 964.086 857.859, 962.886 854.661, 957.459 843.240 C 932.359 790.416, 881.354 741.726, 821.500 713.451 C 791.628 699.339, 770.862 692.959, 737.087 687.517 C 726.407 685.796, 721.364 685.601, 720.575 686.879 M 766.438 1115.875 C 761.054 1117.274, 752.887 1122.314, 749.396 1126.393 C 743.122 1133.722, 741.500 1138.366, 741.500 1149 C 741.500 1157.148, 741.854 1159.193, 743.987 1163.369 C 747.406 1170.064, 753.370 1175.763, 760.500 1179.149 C 765.373 1181.463, 767.855 1181.999, 773.712 1181.999 C 787.655 1182.001, 798.149 1175.538, 804.213 1163.216 C 807.071 1157.409, 807.493 1155.555, 807.449 1149.018 C 807.409 1142.973, 806.844 1140.279, 804.570 1135.266 C 801.294 1128.046, 794.230 1120.874, 787.435 1117.868 C 782.506 1115.688, 771.266 1114.621, 766.438 1115.875 M 492 1271.508 L 492 1420.133 561.750 1419.736 C 627.760 1419.360, 631.988 1419.228, 640.597 1417.279 C 673.159 1409.905, 698.497 1386.749, 707.177 1356.432 C 709.054 1349.877, 709.448 1346.070, 709.444 1334.500 C 709.440 1319.787, 708.345 1313.608, 703.701 1302.113 C 698.951 1290.351, 686.241 1275.156, 676.265 1269.309 C 673.919 1267.935, 672 1266.551, 672 1266.235 C 672 1265.919, 674.847 1262.699, 678.326 1259.080 C 693.070 1243.743, 700.118 1224.037, 698.611 1202.362 C 696.839 1176.881, 685.864 1156.047, 666.744 1141.871 C 658.550 1135.795, 649.359 1130.947, 641.268 1128.434 C 625.784 1123.624, 627.115 1123.706, 557.750 1123.283 L 492 1122.883 492 1271.508 M 550 1210.500 L 550 1243.099 583.750 1242.799 C 617.298 1242.502, 617.530 1242.485, 622.458 1240.042 C 635.433 1233.610, 642.307 1219.804, 639.918 1204.973 C 638.055 1193.403, 632.071 1185.242, 622.051 1180.606 C 617.755 1178.618, 615.610 1178.483, 583.750 1178.201 L 550 1177.901 550 1210.500 M 957.894 1203.486 C 940.187 1206.856, 923.674 1215.307, 913.239 1226.340 L 908 1231.880 908 1219.940 L 908 1208 880.500 1208 L 853 1208 853 1356.516 L 853 1505.032 880.250 1504.766 L 907.500 1504.500 908 1450.223 L 908.500 1395.946 912.702 1400.412 C 922.696 1411.033, 935.385 1418.642, 948.864 1422.098 C 980.072 1430.097, 1010.432 1424.145, 1035.756 1405.063 C 1060.269 1386.592, 1076.087 1357.003, 1078.926 1324.311 C 1083.867 1267.401, 1049.828 1217.005, 998 1204.501 C 988.615 1202.237, 967.294 1201.697, 957.894 1203.486 M 1173 1203.104 C 1164.509 1204.406, 1149.927 1209.312, 1143 1213.197 C 1120.890 1225.598, 1109.757 1244.031, 1109.599 1268.500 C 1109.493 1284.865, 1113.668 1296.501, 1123.346 1306.815 C 1134.383 1318.579, 1148.323 1325.505, 1179.024 1334.481 C 1205.621 1342.257, 1213.351 1345.910, 1216.631 1352.253 C 1218.812 1356.471, 1218.555 1362.366, 1216.010 1366.483 C 1209.735 1376.638, 1183.519 1379.212, 1167.294 1371.268 C 1160.901 1368.137, 1152.640 1359.700, 1149.897 1353.501 C 1148.802 1351.025, 1147.678 1349, 1147.398 1349 C 1145.954 1349, 1101.699 1374.621, 1101.287 1375.696 C 1100.650 1377.355, 1105.876 1385.823, 1112.745 1394.264 C 1123.161 1407.063, 1139.329 1416.916, 1157.464 1421.516 C 1204.950 1433.562, 1252.327 1418.556, 1268.020 1386.500 C 1272.413 1377.526, 1274.095 1369.781, 1274.102 1358.500 C 1274.117 1334.810, 1264.675 1317.894, 1245 1306.360 C 1235.111 1300.563, 1225.682 1297.006, 1202.605 1290.368 C 1192.097 1287.345, 1180.900 1283.709, 1177.723 1282.287 C 1171.558 1279.529, 1166.438 1274.593, 1165.383 1270.391 C 1164.453 1266.683, 1166.584 1260.570, 1169.999 1257.155 C 1177.984 1249.170, 1197.759 1248.857, 1210.006 1256.522 C 1213.887 1258.952, 1220.167 1265.540, 1222.053 1269.162 C 1222.723 1270.448, 1223.401 1271.653, 1223.559 1271.840 C 1223.824 1272.153, 1262.551 1251.558, 1267.787 1248.320 L 1270.075 1246.905 1267.787 1242.782 C 1264.316 1236.525, 1250.649 1222.585, 1243 1217.500 C 1228.286 1207.718, 1212.699 1203.085, 1192.500 1202.490 C 1185.350 1202.279, 1176.575 1202.555, 1173 1203.104 M 747 1314.016 L 747 1420.032 774.250 1419.766 L 801.500 1419.500 801.755 1313.750 L 802.009 1208 774.505 1208 L 747 1208 747 1314.016 M 1279.282 1209.250 C 1279.555 1209.938, 1298.796 1255.275, 1322.041 1310 C 1345.285 1364.725, 1364.500 1410.660, 1364.740 1412.077 C 1365.310 1415.442, 1360.335 1426.376, 1354.535 1434.503 C 1346.591 1445.636, 1334.364 1451.934, 1317.733 1453.461 L 1309.966 1454.174 1310.233 1479.337 L 1310.500 1504.500 1322.500 1504.296 C 1365.967 1503.555, 1398.194 1478.232, 1418.323 1429 C 1420.235 1424.325, 1438.911 1373.475, 1459.827 1316 C 1480.742 1258.525, 1498.161 1210.713, 1498.534 1209.750 C 1499.172 1208.107, 1497.417 1208.002, 1469.857 1208.038 L 1440.500 1208.076 1416.999 1279.082 L 1393.497 1350.088 1366.031 1279.044 L 1338.565 1208 1308.675 1208 C 1285.166 1208, 1278.892 1208.267, 1279.282 1209.250 M 952 1255.484 C 935.384 1259.227, 921.219 1270.375, 914.083 1285.325 C 909.261 1295.427, 907.996 1301.362, 908.015 1313.799 C 908.043 1332.196, 912.965 1344.955, 924.497 1356.526 C 936.208 1368.277, 948.001 1373.011, 965.497 1372.985 C 970.999 1372.977, 978.321 1372.305, 981.769 1371.492 C 1006.310 1365.706, 1022.928 1344.991, 1024.706 1317.965 C 1026.599 1289.213, 1010.116 1264.344, 984 1256.549 C 976.169 1254.212, 960.034 1253.675, 952 1255.484 M 550 1330.044 L 550 1365.088 588.750 1364.794 L 627.500 1364.500 633.587 1361.318 C 640.725 1357.586, 645.295 1352.730, 648.899 1345.046 C 651.135 1340.278, 651.497 1338.167, 651.482 1330 C 651.466 1321.882, 651.087 1319.700, 648.873 1315 C 644.138 1304.952, 635.224 1298.012, 624.566 1296.077 C 621.078 1295.444, 604.493 1295, 584.316 1295 L 550 1295 550 1330.044 M 1183.372 1497.589 C 1179.065 1499.713, 1176.528 1504.672, 1177.393 1509.280 C 1179.169 1518.748, 1192.475 1521.238, 1197.335 1513.010 C 1200.684 1507.341, 1198.354 1499.882, 1192.466 1497.421 C 1188.226 1495.650, 1187.266 1495.668, 1183.372 1497.589 M 950 1547.577 L 950 1596.154 974.750 1595.827 C 1002.312 1595.463, 1004.331 1595.039, 1012.459 1587.902 C 1023.820 1577.926, 1023.820 1557.066, 1012.458 1548.400 L 1009.123 1545.856 1012.484 1541.453 C 1021.336 1529.856, 1018.339 1512.536, 1006.046 1504.252 C 999.438 1499.799, 994.155 1499, 971.318 1499 L 950 1499 950 1547.577 M 969 1527.500 L 969 1538 980.277 1538 C 992.935 1538, 995.209 1537.137, 997.593 1531.431 C 999.450 1526.987, 998.403 1522.517, 994.794 1519.480 C 992.033 1517.157, 991.125 1517, 980.423 1517 L 969 1517 969 1527.500 M 1129.994 1525.934 C 1116.421 1530.063, 1109.629 1542.980, 1114.913 1554.616 C 1117.531 1560.381, 1122.388 1563.680, 1133.717 1567.390 C 1145.506 1571.251, 1147.666 1572.371, 1148.522 1575.071 C 1149.406 1577.856, 1146.757 1580.635, 1142.449 1581.444 C 1137.175 1582.433, 1131.513 1580.445, 1128.217 1576.447 L 1125.329 1572.944 1117.660 1577.315 L 1109.990 1581.686 1112.849 1585.593 C 1116.730 1590.899, 1118.728 1592.538, 1124.537 1595.187 C 1131.737 1598.471, 1146.273 1598.422, 1153.757 1595.089 C 1163.247 1590.862, 1167.725 1583.313, 1166.690 1573.286 C 1165.691 1563.606, 1160.443 1558.797, 1146 1554.326 C 1133.673 1550.509, 1132 1549.515, 1132 1546.010 C 1132 1540.152, 1141.542 1538.903, 1147.347 1544 C 1149.226 1545.650, 1151.155 1546.981, 1151.632 1546.958 C 1152.109 1546.934, 1155.644 1545.150, 1159.486 1542.993 L 1166.472 1539.070 1160.824 1533.600 C 1156.676 1529.582, 1153.778 1527.715, 1149.907 1526.565 C 1144.424 1524.937, 1134.325 1524.617, 1129.994 1525.934 M 1243.764 1525.996 C 1239.990 1527.132, 1234.213 1530.811, 1233.037 1532.828 C 1232.276 1534.131, 1232.054 1533.672, 1232.030 1530.750 L 1232 1527 1223 1527 L 1214 1527 1214 1561.500 L 1214 1596 1223 1596 L 1232 1596 1232.022 1574.750 C 1232.047 1550.602, 1232.942 1546.632, 1239.082 1543.458 C 1243.810 1541.012, 1253.128 1541.832, 1256.488 1544.989 C 1260.359 1548.625, 1260.988 1552.852, 1260.994 1575.250 L 1261 1596 1270.100 1596 L 1279.200 1596 1278.811 1570.750 C 1278.444 1546.858, 1278.297 1545.216, 1276.072 1540.212 C 1273.307 1533.992, 1266.803 1527.857, 1261.193 1526.176 C 1256.765 1524.849, 1247.877 1524.757, 1243.764 1525.996 M 1314.419 1526.822 C 1304.297 1530.321, 1295.845 1538.930, 1292.426 1549.222 C 1290.056 1556.360, 1290.825 1570.777, 1293.921 1577.216 C 1302.371 1594.791, 1323.601 1602.359, 1343.534 1594.902 C 1348.864 1592.907, 1358.008 1585.800, 1357.991 1583.665 C 1357.986 1583.024, 1354.995 1580.802, 1351.345 1578.727 C 1345.553 1575.433, 1344.505 1575.132, 1343.104 1576.356 C 1335.023 1583.421, 1321.015 1583.243, 1313.750 1575.983 C 1306.807 1569.044, 1306.736 1569.068, 1335.750 1568.767 L 1361.500 1568.500 1361.454 1560 C 1361.415 1552.843, 1360.956 1550.506, 1358.549 1545.209 C 1354.962 1537.315, 1347.246 1529.984, 1339.459 1527.071 C 1332.484 1524.461, 1321.563 1524.352, 1314.419 1526.822 M 1385.591 1526.573 C 1376 1530.087, 1371 1537.005, 1371 1546.760 C 1371 1551.390, 1371.552 1553.451, 1373.664 1556.708 C 1376.955 1561.783, 1381.322 1564.294, 1393.454 1568.087 C 1403.735 1571.300, 1406 1572.841, 1406 1576.622 C 1406 1582.480, 1392.421 1583.575, 1387.001 1578.155 C 1385.530 1576.684, 1384.120 1574.861, 1383.868 1574.103 C 1383.524 1573.071, 1381.473 1573.787, 1375.704 1576.953 C 1371.467 1579.278, 1368 1581.501, 1368 1581.893 C 1368 1583.281, 1374.042 1590.797, 1376.398 1592.341 C 1380.470 1595.009, 1390.702 1598, 1395.758 1598 C 1401.836 1598, 1411.377 1595.548, 1415.701 1592.876 C 1419.187 1590.722, 1423.304 1584.476, 1424.429 1579.637 C 1424.795 1578.062, 1424.583 1574.310, 1423.958 1571.297 C 1422.162 1562.645, 1417.883 1559.073, 1403.850 1554.508 C 1397.607 1552.477, 1391.713 1550.113, 1390.750 1549.253 C 1384.838 1543.973, 1395.024 1538.376, 1403.020 1542.510 C 1404.626 1543.341, 1406.392 1544.864, 1406.943 1545.894 C 1407.888 1547.659, 1408.383 1547.539, 1415.473 1543.824 C 1419.613 1541.654, 1423 1539.465, 1423 1538.957 C 1423 1536.479, 1414.121 1529.132, 1408.712 1527.136 C 1401.923 1524.630, 1391.581 1524.379, 1385.591 1526.573 M 1446.144 1526.698 C 1440.047 1528.853, 1433.480 1535.436, 1432.035 1540.842 C 1430.652 1546.013, 1431.967 1553.740, 1434.941 1557.917 C 1437.500 1561.511, 1444.663 1565.230, 1455.076 1568.371 C 1464.648 1571.259, 1467.578 1573.559, 1466.608 1577.424 C 1466.139 1579.296, 1464.969 1580.200, 1461.975 1581.007 C 1455.948 1582.630, 1451.083 1581.328, 1446.897 1576.973 L 1443.294 1573.225 1436.147 1577.189 C 1432.216 1579.369, 1429 1581.533, 1429 1581.999 C 1429 1584.634, 1436.191 1591.792, 1441.548 1594.489 C 1446.924 1597.195, 1448.420 1597.483, 1457 1597.468 C 1464.734 1597.454, 1467.429 1597.028, 1471.500 1595.172 C 1480.926 1590.875, 1485 1585.119, 1485 1576.097 C 1485 1564.440, 1479.493 1558.902, 1462.988 1553.960 C 1452.508 1550.822, 1450 1549.406, 1450 1546.629 C 1450 1539.486, 1462.298 1539.017, 1467.705 1545.954 C 1468.766 1547.316, 1469.805 1547.034, 1476.416 1543.588 L 1483.922 1539.677 1482.211 1536.770 C 1476.514 1527.093, 1458.924 1522.180, 1446.144 1526.698 M 1034.188 1552.750 C 1034.561 1581.215, 1034.943 1583.205, 1041.301 1589.838 C 1046.899 1595.678, 1051.459 1597.484, 1060.500 1597.440 C 1069.106 1597.399, 1073.138 1595.981, 1078.250 1591.199 L 1081 1588.626 1081 1592.313 L 1081 1596 1090 1596 L 1099 1596 1099 1561.500 L 1099 1527 1090 1527 L 1081 1527 1080.978 1547.750 C 1080.953 1571.248, 1080.053 1575.168, 1073.808 1578.976 C 1069.175 1581.800, 1061.198 1581.730, 1057.514 1578.832 C 1052.529 1574.911, 1052 1572.006, 1052 1548.532 L 1052 1527 1042.925 1527 L 1033.851 1527 1034.188 1552.750 M 1179 1561.500 L 1179 1596 1188 1596 L 1197 1596 1197 1561.500 L 1197 1527 1188 1527 L 1179 1527 1179 1561.500 M 1318.401 1542.905 C 1314.274 1544.780, 1310.856 1548.587, 1309.564 1552.750 L 1308.865 1555 1326.433 1555 C 1345.839 1555, 1345.826 1555.005, 1341.726 1548.922 C 1336.516 1541.190, 1327.371 1538.832, 1318.401 1542.905 M 969 1566.577 L 969 1578.155 982.585 1577.827 L 996.169 1577.500 999.085 1574.234 C 1001.338 1571.710, 1002 1570.001, 1002 1566.707 C 1002 1557.630, 997.178 1555, 980.532 1555 L 969 1555 969 1566.577" stroke="none" fill="#6d7174" fill-rule="evenodd"/>
</svg>