<svg xmlns="http://www.w3.org/2000/svg" width="2000" height="2000" viewBox="0 0 2000 2000" version="1.1">
	<rect x="0" y="0" width="100%" height="100%" fill="#ffffff" />
	<path d="M 426 779.958 C 414.794 785.945, 386.100 827.266, 369.722 861 C 360.844 879.287, 350.140 907.698, 348.435 917.500 C 348.052 919.700, 347.389 921.950, 346.962 922.500 C 346.070 923.647, 344.634 930.396, 341.620 947.598 C 340.454 954.251, 339.050 959.710, 338.500 959.728 C 337.308 959.767, 335.452 959.051, 327.500 955.488 C 320.187 952.211, 303.608 945.956, 299.500 944.923 C 297.850 944.508, 293.125 943.196, 289 942.006 C 271.036 936.824, 260.968 935.615, 235.270 935.556 L 211.040 935.500 207.848 938.691 C 203.735 942.803, 203.167 946.769, 203.075 972 C 203.010 989.890, 205.465 1018.330, 207.694 1025.500 C 208.036 1026.600, 208.890 1030.200, 209.592 1033.500 C 224.339 1102.876, 261.463 1158.327, 317.558 1194.766 C 321.990 1197.645, 325.908 1200, 326.264 1200 C 326.620 1200, 329.069 1201.259, 331.706 1202.799 C 340.628 1208.007, 362.187 1216.483, 375 1219.819 C 389.135 1223.500, 397.518 1225, 413 1226.622 C 432.777 1228.693, 447.150 1227.641, 476.500 1221.976 C 490.819 1219.212, 517.149 1208.680, 534.681 1198.704 C 559.040 1184.843, 583.601 1163.089, 602.090 1139 C 628.532 1104.548, 646.501 1061.355, 653.051 1016.500 C 655.666 998.593, 656 993.331, 656 969.993 C 656 942.799, 655.450 939.650, 650.209 936.844 C 646.078 934.632, 603.285 934.988, 590.500 937.340 C 566.889 941.683, 537.093 951.516, 521.796 960.013 C 519.490 961.294, 519.259 960.702, 518.049 950.426 C 517.470 945.517, 516.554 939.700, 516.013 937.500 C 515.471 935.300, 513.920 928.764, 512.565 922.976 C 506.362 896.468, 491.905 862.090, 474.831 833.242 C 466.579 819.300, 462.444 813.177, 451.366 798.500 C 440.645 784.295, 438.184 781.571, 434.300 779.613 C 430.387 777.641, 430.333 777.643, 426 779.958 M 1055.882 841.321 C 1045.285 845.282, 1037.002 853.892, 1033.870 864.202 C 1031.555 871.824, 1031.732 876.612, 1034.656 885.451 C 1037.020 892.595, 1046.574 902.050, 1054.288 904.878 C 1067.247 909.630, 1079.593 906.711, 1089.668 896.512 C 1094.865 891.252, 1096.174 889.183, 1097.976 883.384 C 1099.622 878.086, 1099.965 875.190, 1099.466 870.811 C 1098.154 859.303, 1090.479 848.382, 1079.849 842.898 C 1074.442 840.109, 1061.420 839.252, 1055.882 841.321 M 786 995 L 786 1142 853.912 1142 C 927.257 1142, 928.405 1141.930, 944.588 1136.506 C 987.560 1122.103, 1011.159 1079.133, 1000.019 1035.575 C 995.482 1017.837, 983.635 1001.809, 966.984 990.886 L 964.524 989.272 967.715 986.586 C 969.471 985.109, 973.120 981.110, 975.825 977.700 C 988.380 961.872, 993.656 942.256, 991.064 921.039 C 988.816 902.645, 982.207 888.488, 969.739 875.362 C 957.649 862.634, 943.966 854.899, 925.724 850.480 L 915.500 848.003 850.750 848.001 L 786 848 786 995 M 426.293 858.832 C 419.731 868.891, 408.323 892.571, 401.575 910.141 C 395.170 926.814, 388.688 958.229, 387.438 978.650 L 386.756 989.799 393.128 995.650 C 406.705 1008.115, 417.807 1020.069, 424.434 1029.355 C 427.042 1033.010, 429.315 1036, 429.486 1036 C 429.656 1036, 433.640 1031.117, 438.339 1025.148 C 443.037 1019.180, 452.600 1008.830, 459.589 1002.149 L 472.297 990.002 471.685 976.251 C 470.629 952.524, 464.139 924.249, 454.300 900.500 C 451.981 894.903, 442.663 875.933, 436.618 864.500 C 435.164 861.750, 432.968 858.244, 431.737 856.708 L 429.500 853.916 426.293 858.832 M 845 934.500 L 845 966 876.822 966 C 912.849 966, 914.629 965.719, 922.492 958.798 C 925.023 956.570, 928.309 952.441, 929.793 949.623 C 932.176 945.097, 932.490 943.393, 932.484 935 C 932.476 923.311, 930.129 917.265, 923.016 910.612 C 915.314 903.407, 912.817 903, 876.318 903 L 845 903 845 934.500 M 1246 927.445 C 1228.926 931.048, 1216.710 937.458, 1204.250 949.351 L 1198 955.317 1198 943.659 L 1198 932 1171 932 L 1144 932 1144 1079 L 1144 1226 1171 1226 L 1198 1226 1198 1172.019 L 1198 1118.037 1204.250 1124.269 C 1214.993 1134.980, 1227.227 1141.626, 1243.637 1145.666 C 1254.507 1148.342, 1277.989 1148.118, 1289.377 1145.229 C 1328.756 1135.240, 1359.366 1100.890, 1367.110 1058 C 1368.955 1047.779, 1368.706 1025.636, 1366.623 1014.790 C 1358.419 972.065, 1329.931 939.876, 1290.500 928.779 C 1281.309 926.192, 1255.589 925.421, 1246 927.445 M 1456.627 927.575 C 1425.892 934.443, 1405.831 951.615, 1399.515 976.460 C 1397.542 984.224, 1397.550 1000.852, 1399.531 1008.458 C 1403.035 1021.909, 1411.636 1032.894, 1425.353 1041.438 C 1434.146 1046.915, 1446.048 1051.570, 1466.660 1057.594 C 1475.343 1060.132, 1485.572 1063.367, 1489.392 1064.782 C 1510.610 1072.647, 1511.256 1090.561, 1490.537 1096.544 C 1482.498 1098.865, 1466.940 1098.125, 1458.753 1095.031 C 1451.236 1092.190, 1443.120 1084.748, 1439.384 1077.272 C 1437.798 1074.098, 1436.425 1071.350, 1436.334 1071.167 C 1436.194 1070.888, 1394.308 1094.204, 1390.129 1096.887 C 1388.313 1098.054, 1393.130 1107.218, 1400.066 1115.789 C 1413.323 1132.174, 1433.946 1143.025, 1458.500 1146.534 C 1482.731 1149.997, 1506.430 1146.773, 1525.879 1137.366 C 1533.560 1133.651, 1536.748 1131.351, 1543.483 1124.665 C 1557.030 1111.216, 1562.802 1096.190, 1561.638 1077.404 C 1560.571 1060.190, 1554.916 1047.626, 1543.630 1037.392 C 1532.601 1027.392, 1521.064 1022.169, 1490.534 1013.353 C 1459.960 1004.525, 1454 1000.885, 1454 991.042 C 1454 981.924, 1461.887 976.004, 1475.085 975.215 C 1488.753 974.399, 1499.844 979.530, 1507.169 990.058 C 1509.251 993.051, 1511.523 995.352, 1512.216 995.170 C 1513.418 994.856, 1549.486 975.407, 1555.248 971.966 L 1557.995 970.325 1553.903 964.412 C 1541.985 947.193, 1524.819 935.011, 1503.933 928.952 C 1493.921 926.047, 1466.974 925.263, 1456.627 927.575 M 1039 1037.016 L 1039 1142.032 1066.250 1141.766 L 1093.500 1141.500 1093.755 1036.750 L 1094.009 932 1066.505 932 L 1039 932 1039 1037.016 M 1566 932.636 C 1566 932.986, 1585.125 978.378, 1608.500 1033.506 C 1631.875 1088.634, 1651 1134.568, 1651 1135.582 C 1651 1136.596, 1649.148 1141.164, 1646.885 1145.733 C 1637.738 1164.197, 1625.141 1172.822, 1604.500 1174.752 L 1596.500 1175.500 1596.500 1200.500 L 1596.500 1225.500 1605 1225.811 C 1620.068 1226.363, 1638.048 1222.524, 1651 1215.990 C 1673.074 1204.855, 1692.557 1180.820, 1705.097 1149.258 C 1708.619 1140.392, 1784 933.312, 1784 932.501 C 1784 932.209, 1770.857 932.089, 1754.794 932.235 L 1725.587 932.500 1702.544 1002.306 L 1679.500 1072.113 1652.500 1002.071 L 1625.500 932.029 1595.750 932.015 C 1579.388 932.007, 1566 932.286, 1566 932.636 M 1243.072 979.484 C 1232.121 981.977, 1222.608 987.175, 1215.133 994.750 C 1203.448 1006.593, 1198.922 1018.244, 1198.915 1036.500 C 1198.912 1043.278, 1199.512 1049.803, 1200.477 1053.500 C 1205.591 1073.091, 1218.668 1086.698, 1239 1093.584 C 1246.507 1096.127, 1264.988 1096.134, 1273.500 1093.598 C 1289.426 1088.852, 1303.418 1076.245, 1309.488 1061.172 C 1316.183 1044.545, 1314.785 1020.847, 1306.232 1006 C 1299.926 995.053, 1286.830 984.618, 1274.687 980.867 C 1266.281 978.270, 1251.287 977.614, 1243.072 979.484 M 252.521 986.965 C 250.794 989.760, 259.172 1035.869, 262.976 1044.500 C 263.460 1045.600, 264.814 1049.425, 265.983 1053 C 272.328 1072.402, 285.987 1096.909, 300.670 1115.239 C 310.985 1128.115, 331.977 1146.476, 344.761 1153.803 C 367.295 1166.717, 391.826 1174.859, 413.412 1176.588 L 422.324 1177.301 421.662 1165.003 C 421.027 1153.192, 419.558 1143.348, 416.515 1130.500 C 415.733 1127.200, 414.787 1122.925, 414.412 1121 C 413.064 1114.068, 404.684 1090.343, 400.989 1083 C 398.914 1078.875, 395.676 1073.250, 393.794 1070.500 C 391.911 1067.750, 388.930 1063.399, 387.170 1060.832 C 385.409 1058.264, 379.668 1051.640, 374.412 1046.112 C 344.576 1014.734, 305.400 993.909, 264.087 987.468 C 252.931 985.728, 253.277 985.743, 252.521 986.965 M 594 987.111 C 571.367 990.719, 541.624 1002.589, 520.500 1016.444 C 493.393 1034.223, 470.043 1058.822, 458.553 1081.706 L 455.939 1086.912 458.489 1096.206 C 459.891 1101.318, 461.456 1106.850, 461.965 1108.500 C 465.254 1119.141, 469.440 1143.266, 470.530 1157.855 C 470.914 1162.999, 471.515 1168.277, 471.864 1169.583 L 472.500 1171.958 482 1168.622 C 507.692 1159.601, 528.397 1146.483, 547.197 1127.315 C 573.581 1100.414, 586.861 1076.352, 600.075 1031.500 C 602.027 1024.874, 606.965 993.643, 606.992 987.750 C 607.001 985.763, 603.525 985.592, 594 987.111 M 845 1052.989 L 845 1087.089 883.250 1086.795 C 921.212 1086.502, 921.534 1086.482, 926 1084.144 C 950.595 1071.267, 950.723 1034.341, 926.214 1022.306 L 920.500 1019.500 882.750 1019.195 L 845 1018.890 845 1052.989 M 1478.314 1240.894 C 1474.425 1243.334, 1472.999 1245.829, 1473.004 1250.184 C 1473.013 1257.977, 1480.257 1263.390, 1487.484 1261.005 C 1492.380 1259.389, 1495 1255.686, 1495 1250.381 C 1495 1241.566, 1485.685 1236.269, 1478.314 1240.894 M 1246 1290.436 L 1246 1339 1269.962 1339 C 1291.647 1339, 1294.444 1338.806, 1299.387 1336.956 C 1318.045 1329.975, 1323.767 1306.481, 1310.130 1292.844 L 1305.456 1288.170 1308.668 1284.665 C 1312.586 1280.390, 1314.343 1274.335, 1313.790 1267.011 C 1313.077 1257.571, 1307.612 1249.508, 1298.694 1244.742 C 1294.736 1242.626, 1293.135 1242.482, 1270.250 1242.186 L 1246 1241.871 1246 1290.436 M 1266 1270.500 L 1266 1281 1276.050 1281 C 1290.103 1281, 1294 1278.721, 1294 1270.500 C 1294 1262.279, 1290.103 1260, 1276.050 1260 L 1266 1260 1266 1270.500 M 1429.610 1268.034 C 1418.403 1269.960, 1410.289 1277.256, 1409.267 1286.325 C 1408.515 1292.994, 1409.701 1297.590, 1413.205 1301.580 C 1416.977 1305.876, 1420.933 1307.960, 1431.836 1311.396 C 1443.081 1314.938, 1444 1315.513, 1444 1319 C 1444 1322.644, 1441.699 1324, 1435.516 1324 C 1430.099 1324, 1425.974 1322.107, 1423.254 1318.375 L 1421.301 1315.694 1413.651 1319.917 C 1409.443 1322.240, 1406 1324.357, 1406 1324.623 C 1406 1326.202, 1411.382 1332.570, 1414.908 1335.163 C 1420.308 1339.135, 1426.728 1341, 1435 1341 C 1452.270 1341, 1463.200 1332.509, 1463.200 1319.092 C 1463.200 1307.448, 1458.040 1302.177, 1441.500 1296.923 C 1436 1295.176, 1430.713 1293.058, 1429.750 1292.218 C 1424.334 1287.489, 1433.184 1281.522, 1440.316 1285.094 C 1441.517 1285.696, 1443.435 1287.294, 1444.578 1288.645 L 1446.657 1291.102 1454.328 1286.964 C 1458.548 1284.688, 1462 1282.597, 1462 1282.318 C 1462 1280.792, 1457.320 1275.631, 1453.684 1273.147 C 1446.686 1268.367, 1438.181 1266.560, 1429.610 1268.034 M 1542.297 1268.039 C 1537.136 1269.071, 1534.322 1270.477, 1530.750 1273.809 L 1528 1276.374 1528 1272.687 L 1528 1269 1519 1269 L 1510 1269 1510 1304 L 1510 1339 1519 1339 L 1528 1339 1528.006 1318.750 C 1528.009 1307.612, 1528.456 1296.899, 1528.999 1294.943 C 1530.587 1289.227, 1534.995 1285.748, 1541.314 1285.224 C 1545.038 1284.915, 1547.633 1285.276, 1549.820 1286.407 C 1555.573 1289.382, 1556 1291.459, 1556 1316.450 L 1556 1339 1565.500 1339 L 1575 1339 1575 1315.182 C 1575 1288.894, 1574.313 1284.493, 1569.083 1277.273 C 1563.954 1270.193, 1552.046 1266.088, 1542.297 1268.039 M 1615 1268.341 C 1607.123 1270.142, 1602.146 1272.798, 1596.957 1277.971 C 1588.471 1286.431, 1584.693 1298.782, 1586.910 1310.812 C 1589.233 1323.420, 1595.700 1331.975, 1607 1337.387 C 1613.058 1340.288, 1614.248 1340.500, 1624.500 1340.500 C 1634.309 1340.500, 1636.112 1340.213, 1641.148 1337.852 C 1647.936 1334.669, 1655.633 1327.453, 1654.126 1325.683 C 1653.572 1325.032, 1650.237 1322.961, 1646.715 1321.080 L 1640.312 1317.660 1636.516 1320.555 C 1628.568 1326.618, 1612.671 1324.428, 1607.906 1316.613 C 1606.862 1314.901, 1606.006 1313.162, 1606.004 1312.750 C 1606.002 1312.338, 1617.642 1312, 1631.872 1312 L 1657.744 1312 1658.350 1308.210 C 1659.976 1298.046, 1654.366 1283.132, 1646.220 1275.962 C 1638.321 1269.009, 1625.630 1265.911, 1615 1268.341 M 1686.920 1268.011 C 1670.706 1270.754, 1661.883 1285.865, 1668.670 1299.270 C 1670.923 1303.721, 1677.619 1307.796, 1687.908 1310.978 C 1698.615 1314.289, 1702 1316.216, 1702 1319 C 1702 1322.027, 1698.117 1324, 1692.160 1324 C 1687.177 1324, 1686.451 1323.687, 1682.665 1319.900 L 1678.565 1315.801 1672.033 1319.343 C 1663.433 1324.005, 1662.934 1324.914, 1666.443 1329.515 C 1672.644 1337.644, 1682.846 1341.555, 1695.883 1340.801 C 1705.472 1340.246, 1712.975 1336.584, 1717.356 1330.320 C 1722.464 1323.018, 1722.014 1312.735, 1716.288 1305.931 C 1713.053 1302.086, 1708.698 1299.886, 1697.663 1296.521 C 1689.670 1294.083, 1685 1291.380, 1685 1289.191 C 1685 1288.746, 1685.639 1287.509, 1686.419 1286.441 C 1687.507 1284.954, 1689.045 1284.500, 1693.001 1284.500 C 1697.585 1284.500, 1698.496 1284.872, 1701.128 1287.817 L 1704.092 1291.135 1711.253 1287.198 C 1715.191 1285.033, 1718.575 1282.775, 1718.773 1282.181 C 1719.422 1280.233, 1711.058 1272.270, 1706.227 1270.237 C 1700.492 1267.824, 1693.079 1266.969, 1686.920 1268.011 M 1748 1268.022 C 1741.536 1269.152, 1738.716 1270.432, 1734.454 1274.174 C 1727.611 1280.183, 1725.305 1289.006, 1728.548 1296.768 C 1731.648 1304.189, 1735.946 1307.091, 1750.337 1311.479 C 1758.571 1313.990, 1763 1316.621, 1763 1319 C 1763 1319.550, 1762.100 1320.900, 1761 1322 C 1756.722 1326.278, 1743.266 1323.563, 1741.522 1318.069 C 1741.161 1316.931, 1740.424 1316, 1739.886 1316 C 1739.347 1316, 1735.559 1317.837, 1731.469 1320.081 L 1724.033 1324.163 1725.452 1326.907 C 1727.765 1331.380, 1734.331 1336.605, 1740.619 1338.975 C 1752.758 1343.551, 1771.120 1339.991, 1777.265 1331.871 C 1782.184 1325.371, 1783.076 1315.915, 1779.436 1308.875 C 1777.014 1304.193, 1770.431 1300.218, 1759.592 1296.892 C 1749.018 1293.649, 1746 1291.874, 1746 1288.902 C 1746 1286.529, 1749.752 1284, 1753.272 1284 C 1756.797 1284, 1761.416 1286.328, 1763.340 1289.075 C 1764.793 1291.150, 1764.841 1291.139, 1772.401 1286.990 C 1776.580 1284.696, 1780 1282.426, 1780 1281.944 C 1780 1280.235, 1773.663 1273.887, 1769.613 1271.539 C 1766.245 1269.586, 1755.283 1266.657, 1753.066 1267.118 C 1752.755 1267.182, 1750.475 1267.589, 1748 1268.022 M 1330.190 1295.750 L 1330.500 1322.500 1333.411 1327.754 C 1338.365 1336.696, 1345.764 1340.912, 1356.500 1340.912 C 1363.484 1340.912, 1368.604 1339.302, 1373.502 1335.566 L 1377 1332.898 1377 1335.949 L 1377 1339 1386 1339 L 1395 1339 1395 1304 L 1395 1269 1386.109 1269 L 1377.217 1269 1376.854 1291.250 C 1376.511 1312.282, 1376.367 1313.700, 1374.230 1317.144 C 1370.367 1323.368, 1362.738 1325.589, 1355.546 1322.584 C 1348.905 1319.809, 1348.538 1318.304, 1348.169 1292.297 L 1347.839 1269 1338.860 1269 L 1329.881 1269 1330.190 1295.750 M 1475 1304 L 1475 1339 1484 1339 L 1493 1339 1493 1304 L 1493 1269 1484 1269 L 1475 1269 1475 1304 M 1616.231 1285.252 C 1612.682 1286.390, 1606 1293.085, 1606 1295.503 C 1606 1296.774, 1608.578 1297, 1623.075 1297 L 1640.150 1297 1637.825 1292.750 C 1633.870 1285.520, 1625 1282.441, 1616.231 1285.252 M 1266 1310 L 1266 1321 1277.852 1321 C 1288.536 1321, 1290.039 1320.775, 1293.102 1318.716 C 1298.890 1314.827, 1299.567 1306.476, 1294.505 1301.414 C 1292.200 1299.109, 1291.503 1299, 1279.045 1299 L 1266 1299 1266 1310" stroke="none" fill="#6d7074" fill-rule="evenodd"/>
</svg>