<svg xmlns="http://www.w3.org/2000/svg" width="2000" height="2000" viewBox="0 0 2000 2000" version="1.1">
	<rect x="0" y="0" width="100%" height="100%" fill="#ffffff" />
	<path d="M 996 363.943 C 995.175 364.397, 993.229 365.365, 991.675 366.093 C 987.240 368.173, 976.827 379.719, 960.502 400.655 C 955.369 407.239, 941.292 427.534, 939.630 430.749 C 938.759 432.433, 937.473 434.416, 936.772 435.155 C 935.245 436.765, 930 444.746, 930 445.459 C 930 445.735, 928.425 448.423, 926.500 451.433 C 924.575 454.442, 923 457.376, 923 457.952 C 923 458.528, 922.550 459, 922 459 C 921.450 459, 921 459.684, 921 460.520 C 921 461.356, 919.875 463.822, 918.500 466 C 917.125 468.178, 916 470.382, 916 470.897 C 916 471.412, 915.629 471.983, 915.176 472.167 C 914.723 472.350, 910.964 479.475, 906.822 488 C 898.722 504.671, 897.400 507.576, 892.034 520.500 C 891.578 521.600, 890.404 524.300, 889.427 526.500 C 888.449 528.700, 886.655 533.336, 885.438 536.803 C 884.222 540.270, 882.951 543.382, 882.614 543.720 C 882.276 544.057, 882 545.308, 882 546.500 C 882 547.692, 881.701 548.965, 881.336 549.330 C 880.971 549.695, 879.826 552.358, 878.790 555.247 C 877.119 559.909, 875.947 563.807, 873 574.500 C 872.545 576.150, 871.418 580.200, 870.495 583.500 C 869.572 586.800, 868.165 592.200, 867.368 595.500 C 866.572 598.800, 865.507 603.075, 865.003 605 C 864.500 606.925, 863.376 612.550, 862.506 617.500 C 861.636 622.450, 860.492 628.387, 859.962 630.693 C 859.433 632.999, 859 637.331, 859 640.320 C 859 648.097, 857.941 648.522, 848.993 644.337 C 831.974 636.376, 821.485 632, 819.421 632 C 818.624 632, 817.191 631.588, 816.236 631.084 C 811.647 628.663, 800.746 624.728, 791.500 622.154 C 789.300 621.542, 784.350 620.104, 780.500 618.959 C 764.045 614.065, 744.503 610.655, 720.500 608.486 C 701.058 606.730, 690.877 606.654, 672.534 608.127 C 651.811 609.791, 647.824 612.500, 645.971 626.181 C 644.256 638.840, 643.639 680.276, 644.962 694 C 649.019 736.091, 650.152 743.560, 656.106 767.500 C 656.654 769.700, 657.504 773.525, 657.997 776 C 660.921 790.695, 676.866 837.818, 680.143 841.450 C 680.614 841.973, 681 843.126, 681 844.013 C 681 846.051, 696.160 876.737, 700.642 883.769 C 702.489 886.668, 704 889.306, 704 889.633 C 704 890.478, 720.179 915.195, 721.912 916.997 C 722.703 917.820, 725.859 921.818, 728.925 925.882 C 731.991 929.946, 735.390 934.447, 736.477 935.885 C 742.417 943.742, 762.994 965.417, 774.085 975.500 C 779.749 980.649, 780.986 981.693, 789.500 988.502 C 792.250 990.701, 794.725 992.740, 795 993.033 C 795.275 993.326, 797.975 995.336, 801 997.500 C 804.025 999.664, 806.725 1001.676, 807 1001.973 C 808.154 1003.216, 814.920 1008, 815.524 1008 C 815.886 1008, 818.729 1009.745, 821.841 1011.878 C 828.146 1016.198, 842.104 1024.336, 849 1027.712 C 859.346 1032.778, 875.290 1040, 876.126 1040 C 876.622 1040, 877.809 1040.428, 878.764 1040.952 C 880.672 1041.998, 897.309 1047.917, 900.500 1048.686 C 901.600 1048.950, 903.400 1049.528, 904.500 1049.969 C 907.303 1051.094, 913.238 1052.633, 922 1054.507 C 926.125 1055.389, 931.300 1056.514, 933.500 1057.008 C 935.700 1057.501, 939.075 1058.165, 941 1058.485 C 942.925 1058.804, 946.750 1059.483, 949.500 1059.993 C 962.510 1062.406, 969.059 1062.998, 989.500 1063.605 C 1016.591 1064.409, 1037.286 1062.737, 1059.500 1057.949 C 1061.700 1057.475, 1065.775 1056.658, 1068.555 1056.135 C 1075.962 1054.739, 1088.209 1051.618, 1092.500 1050.033 C 1093.600 1049.627, 1096.525 1048.586, 1099 1047.721 C 1101.475 1046.856, 1105.075 1045.598, 1107 1044.925 C 1108.925 1044.252, 1111.400 1043.360, 1112.500 1042.943 C 1113.600 1042.527, 1116.300 1041.510, 1118.500 1040.683 C 1122.130 1039.318, 1131.037 1035.285, 1146 1028.231 C 1149.025 1026.805, 1152.625 1024.880, 1154 1023.953 C 1155.375 1023.026, 1159.650 1020.549, 1163.500 1018.447 C 1167.350 1016.346, 1172.579 1013.135, 1175.119 1011.313 C 1177.660 1009.491, 1180.053 1008, 1180.436 1008 C 1181.122 1008, 1188.024 1003.088, 1189 1001.905 C 1189.275 1001.572, 1191.525 1000.039, 1194 998.500 C 1196.475 996.961, 1198.725 995.431, 1199 995.101 C 1199.453 994.557, 1208.072 987.581, 1210.500 985.793 C 1221.014 978.052, 1248.173 950.718, 1259.651 936.325 C 1263.960 930.921, 1267.743 926.275, 1268.057 926 C 1270.527 923.837, 1289.653 895.030, 1298.272 880.490 C 1300.092 877.421, 1314.294 848.483, 1316.181 844 C 1316.760 842.625, 1317.631 840.719, 1318.117 839.764 C 1318.603 838.809, 1319 837.583, 1319 837.041 C 1319 836.498, 1320.172 833.455, 1321.603 830.277 C 1323.035 827.100, 1324.582 823.600, 1325.041 822.500 C 1325.836 820.596, 1329.795 808.482, 1332.069 801 C 1332.654 799.075, 1333.540 796.600, 1334.039 795.500 C 1335.070 793.225, 1338.808 779.503, 1340.032 773.500 C 1340.481 771.300, 1342.044 763.875, 1343.505 757 C 1350.422 724.469, 1352.384 698.667, 1351.451 652.525 C 1350.746 617.687, 1350.446 615.853, 1344.756 611.647 C 1340.568 608.551, 1330.141 607.545, 1302.500 607.573 C 1278.433 607.597, 1270.663 608.194, 1250.500 611.567 C 1245.550 612.396, 1239.353 613.340, 1236.729 613.666 C 1234.105 613.992, 1231.716 614.650, 1231.420 615.129 C 1231.124 615.608, 1229.736 616, 1228.336 616 C 1226.935 616, 1221.899 617.139, 1217.145 618.530 C 1212.390 619.922, 1206.700 621.549, 1204.500 622.146 C 1198.264 623.839, 1183.691 628.807, 1178.500 631.009 C 1177.400 631.476, 1173.800 632.822, 1170.500 634 C 1167.200 635.179, 1160.450 638.089, 1155.500 640.468 C 1150.550 642.847, 1144.826 645.486, 1142.780 646.333 L 1139.059 647.873 1138.035 644.187 C 1137.472 642.159, 1136.995 638.475, 1136.974 636 C 1136.954 633.525, 1136.009 626.550, 1134.875 620.500 C 1133.741 614.450, 1132.583 607.810, 1132.301 605.744 C 1132.019 603.678, 1131.386 601.739, 1130.894 601.435 C 1130.402 601.131, 1130 599.778, 1130 598.429 C 1130 597.080, 1128.658 590.919, 1127.017 584.738 C 1125.376 578.557, 1123.764 572.375, 1123.434 571 C 1123.103 569.625, 1122.483 567.600, 1122.054 566.500 C 1120.568 562.685, 1116.786 551.490, 1116.311 549.500 C 1116.048 548.400, 1115.464 546.600, 1115.014 545.500 C 1114.564 544.400, 1113.182 540.800, 1111.943 537.500 C 1110.705 534.200, 1108.884 529.664, 1107.898 527.419 C 1106.911 525.175, 1105.190 521.019, 1104.072 518.183 C 1102.954 515.347, 1100.504 509.759, 1098.627 505.764 C 1091.429 490.446, 1086.048 479.357, 1084.063 475.750 C 1082.929 473.688, 1081.071 470.313, 1079.936 468.250 C 1078.800 466.188, 1077.623 463.712, 1077.319 462.750 C 1077.015 461.788, 1076.369 461, 1075.883 461 C 1075.398 461, 1075 460.593, 1075 460.096 C 1075 459.599, 1073.370 456.336, 1071.378 452.846 C 1069.385 449.356, 1066.865 444.925, 1065.778 443 C 1064.690 441.075, 1062.720 438.068, 1061.400 436.317 C 1060.080 434.566, 1059 432.885, 1059 432.581 C 1059 432.277, 1057.415 429.659, 1055.478 426.764 C 1053.540 423.869, 1049.878 418.350, 1047.340 414.500 C 1044.802 410.650, 1042.435 407.275, 1042.080 407 C 1041.725 406.725, 1039.650 404.025, 1037.469 401 C 1035.289 397.975, 1032.952 394.825, 1032.275 394 C 1031.599 393.175, 1026.963 387.351, 1021.973 381.058 C 1013.247 370.054, 1007.783 365, 1004.612 365 C 1003.790 365, 1002.840 364.550, 1002.500 364 C 1001.766 362.812, 998.113 362.780, 996 363.943 M 996.760 483.750 C 992.899 488.111, 973.932 522.741, 968.691 535 C 967.868 536.925, 966.206 540.750, 964.998 543.500 C 963.789 546.250, 962.456 549.400, 962.034 550.500 C 961.613 551.600, 960.767 553.625, 960.154 555 C 958.996 557.602, 958.707 558.352, 953.794 571.500 C 949.398 583.267, 946.937 591.751, 942.482 610.500 C 938.621 626.752, 937.763 631.110, 935.985 643.500 C 934.065 656.886, 932.059 678.547, 932.030 686.226 C 932 693.894, 932.027 693.976, 935.704 697.226 C 951.952 711.590, 957.635 717.209, 972.893 734 C 981.960 743.978, 984.857 747.456, 989.546 754 C 994.986 761.591, 998.134 765.035, 999.092 764.443 C 999.538 764.167, 1003.135 759.643, 1007.084 754.389 C 1011.033 749.135, 1014.879 744.600, 1015.632 744.311 C 1016.384 744.022, 1017 743.388, 1017 742.901 C 1017 739.786, 1045.290 710.874, 1060.423 698.523 L 1065.295 694.546 1064.657 679.023 C 1063.615 653.665, 1060.629 632.867, 1054.460 608 C 1053.027 602.225, 1051.497 595.925, 1051.060 594 C 1050.623 592.075, 1049.512 588.475, 1048.592 586 C 1047.672 583.525, 1045.627 577.643, 1044.047 572.928 C 1040.947 563.674, 1037.261 554.515, 1030.998 540.500 C 1028.745 535.459, 1017.550 512.911, 1013.621 505.500 C 1012.454 503.300, 1011.163 501.350, 1010.750 501.167 C 1010.337 500.983, 1010 500.290, 1010 499.625 C 1010 498, 1000.108 482, 999.104 482 C 998.667 482, 997.613 482.788, 996.760 483.750 M 1267.500 687.237 C 1249.160 689.737, 1231.343 693.815, 1213 699.713 C 1205.779 702.034, 1204.499 702.496, 1199 704.763 C 1197.625 705.330, 1194.025 706.787, 1191 708.001 C 1184.469 710.621, 1161.788 721.695, 1154 726.065 C 1144.714 731.275, 1115.675 751.285, 1112 755.006 C 1111.725 755.285, 1108.603 757.985, 1105.062 761.006 C 1092.216 771.968, 1076.085 789.010, 1066.626 801.611 C 1064.103 804.973, 1061.355 808.290, 1060.519 808.984 C 1059.684 809.677, 1059 810.671, 1059 811.192 C 1059 812.184, 1053.916 819.890, 1051.754 822.175 C 1051.064 822.904, 1049.433 825.525, 1048.128 828 C 1038.746 845.797, 1039.176 844.326, 1041.356 851.215 C 1042.102 853.572, 1043.927 860, 1045.411 865.500 C 1046.895 871, 1048.535 876.882, 1049.055 878.571 C 1049.575 880.260, 1050 882.596, 1050 883.762 C 1050 884.928, 1050.400 886.129, 1050.890 886.432 C 1051.379 886.734, 1051.993 888.448, 1052.254 890.241 C 1052.515 892.033, 1053.498 896.875, 1054.440 901 C 1057.261 913.363, 1059.232 926.586, 1060.981 944.872 C 1061.527 950.576, 1062.427 956.876, 1062.981 958.872 C 1063.535 960.867, 1063.991 965.763, 1063.994 969.750 C 1063.999 975.716, 1064.282 977, 1065.595 977 C 1067.012 977, 1085.335 971.166, 1090.500 969.070 C 1098.318 965.898, 1123.323 953.900, 1124 952.997 C 1124.275 952.629, 1127.875 950.385, 1132 948.009 C 1136.125 945.633, 1141.140 942.409, 1143.144 940.844 C 1145.148 939.280, 1147.286 938, 1147.894 938 C 1148.502 938, 1149 937.647, 1149 937.216 C 1149 936.784, 1150.237 935.694, 1151.750 934.793 C 1153.263 933.891, 1155.415 932.332, 1156.534 931.327 C 1157.652 930.322, 1161.477 927.058, 1165.034 924.073 C 1175.086 915.637, 1193.113 897.266, 1201.500 886.911 C 1210.057 876.346, 1220 862.719, 1220 861.555 C 1220 860.947, 1227.081 849.882, 1228.035 849 C 1228.332 848.725, 1229.908 845.800, 1231.538 842.500 C 1233.167 839.200, 1234.737 836.275, 1235.026 836 C 1235.918 835.151, 1243.763 818.791, 1245.874 813.375 C 1246.973 810.556, 1248.768 806.281, 1249.863 803.875 C 1250.957 801.469, 1253.507 794.325, 1255.530 788 C 1257.552 781.675, 1259.559 775.600, 1259.989 774.500 C 1260.420 773.400, 1261.326 770.475, 1262.002 768 C 1262.678 765.525, 1263.610 762.375, 1264.073 761 C 1265.565 756.563, 1270.352 730.293, 1272 717.500 C 1272.496 713.650, 1273.373 708.076, 1273.951 705.114 C 1275.163 698.890, 1275.352 687.282, 1274.250 686.768 C 1273.838 686.576, 1270.800 686.787, 1267.500 687.237 M 722.021 692.250 C 722.047 697.615, 724.702 721.715, 726.069 729 C 726.637 732.025, 727.350 736.300, 727.653 738.500 C 727.957 740.700, 728.609 742.928, 729.102 743.450 C 729.596 743.972, 730 745.593, 730 747.051 C 730 748.509, 730.412 751.006, 730.915 752.601 C 731.418 754.195, 732.612 759.100, 733.568 763.500 C 734.525 767.900, 735.688 771.928, 736.154 772.450 C 736.619 772.973, 737 774.216, 737 775.214 C 737 776.211, 737.395 777.809, 737.878 778.764 C 740.200 783.356, 742 788.252, 742 789.975 C 742 791.024, 742.450 792.160, 743 792.500 C 743.550 792.840, 744 794.190, 744 795.500 C 744 796.810, 744.450 798.160, 745 798.500 C 745.550 798.840, 746 799.772, 746 800.571 C 746 801.370, 747.520 805.281, 749.378 809.262 C 751.236 813.243, 754.274 819.851, 756.128 823.948 C 757.983 828.044, 760.289 832.769, 761.254 834.448 C 762.219 836.126, 764.019 839.525, 765.254 842 C 766.489 844.475, 767.837 846.650, 768.250 846.833 C 768.663 847.017, 769 847.575, 769 848.073 C 769 848.572, 771.025 852.139, 773.500 856 C 775.975 859.861, 778 863.271, 778 863.577 C 778 864.108, 782.900 870.955, 784.028 872 C 784.325 872.275, 786.793 875.650, 789.512 879.500 C 796.204 888.977, 806.505 900.780, 816.887 910.870 C 825.946 919.673, 845.373 935.662, 853 940.591 C 855.475 942.191, 858.372 944.288, 859.439 945.250 C 860.505 946.212, 861.764 947, 862.237 947 C 862.709 947, 865.580 948.589, 868.616 950.531 C 873.472 953.638, 894.164 963.996, 904 968.245 C 905.925 969.077, 911.550 970.974, 916.500 972.462 C 921.450 973.950, 927.075 975.642, 929 976.222 C 930.925 976.802, 933.400 977.634, 934.500 978.070 C 935.600 978.507, 937.850 979.102, 939.500 979.393 C 941.150 979.684, 947 980.768, 952.500 981.802 C 965.203 984.190, 978.520 986, 983.383 986 L 987.163 986 986.613 973.750 C 985.774 955.052, 984.497 945.145, 980.005 922.500 C 979.350 919.200, 978.459 914.700, 978.024 912.500 C 976.459 904.594, 970.925 883.464, 969.972 881.764 C 969.438 880.809, 969 879.340, 969 878.500 C 969 877.660, 968.575 876.191, 968.056 875.236 C 967.537 874.281, 965.549 868.547, 963.637 862.494 C 960.171 851.514, 948.191 826.142, 944.991 823 C 944.052 822.079, 939 814.050, 939 813.480 C 939 813.170, 938.052 811.923, 936.892 810.708 C 935.733 809.494, 933.641 806.700, 932.243 804.500 C 930.845 802.300, 929.428 800.275, 929.094 800 C 928.761 799.725, 926.033 796.575, 923.033 793 C 912.378 780.302, 888.882 757.873, 877.500 749.536 C 875.300 747.924, 873.275 746.337, 873 746.009 C 871.885 744.680, 858.836 736, 857.952 736 C 857.428 736, 857 735.550, 857 735 C 857 734.450, 856.520 734, 855.933 734 C 855.347 734, 853.392 732.875, 851.589 731.500 C 849.786 730.125, 847.791 729, 847.156 729 C 846.520 729, 845.993 728.663, 845.984 728.250 C 845.974 727.837, 843.274 726.165, 839.984 724.534 C 836.693 722.903, 834 721.216, 834 720.784 C 834 720.353, 833.398 720, 832.662 720 C 831.926 720, 827.314 718.037, 822.412 715.637 C 811.656 710.372, 804.238 707, 803.412 707 C 803.077 707, 801.159 706.279, 799.151 705.398 C 787.368 700.228, 778.632 697.359, 767.500 695.004 C 765.300 694.539, 760.350 693.481, 756.500 692.655 C 740.375 689.192, 732.986 688, 727.650 688 L 722 688 722.021 692.250 M 764.994 1115.876 C 755.945 1118.838, 747.436 1126.474, 743.389 1135.266 C 741.022 1140.407, 740.522 1142.828, 740.535 1149.073 C 740.549 1155.570, 741.011 1157.580, 743.785 1163.215 C 752.096 1180.097, 771.087 1187.146, 787.791 1179.551 C 805.686 1171.413, 812.866 1151.358, 804.191 1133.737 C 800.686 1126.617, 795.952 1122, 788 1117.948 C 783.151 1115.477, 769.869 1114.281, 764.994 1115.876 M 491.484 1124.192 C 491.210 1124.912, 491.102 1191.650, 491.243 1272.500 L 491.500 1419.500 558 1419.779 C 613.687 1420.012, 626.089 1419.809, 634.274 1418.531 C 664.654 1413.788, 689.148 1396.665, 701.552 1371.500 C 707.550 1359.331, 709.150 1352.756, 709.734 1337.868 C 710.880 1308.644, 700.389 1286.115, 678.276 1270.310 L 672.052 1265.862 677.429 1260.613 C 683.924 1254.271, 690.801 1243.814, 694.273 1235 C 703.245 1212.223, 699.360 1180.642, 685.086 1160.317 C 673.376 1143.642, 657.217 1132.734, 634 1125.832 C 626.626 1123.640, 625.371 1123.596, 559.241 1123.243 C 504.519 1122.952, 491.889 1123.128, 491.484 1124.192 M 551 1210.562 L 551 1243.124 583.750 1242.812 C 615.467 1242.510, 616.658 1242.427, 621.500 1240.201 C 632.271 1235.247, 638.991 1225.401, 639.777 1213.421 C 640.593 1200.975, 635.891 1189.773, 627.397 1183.929 C 619.706 1178.638, 614.748 1178, 581.290 1178 L 551 1178 551 1210.562 M 956 1203.464 C 939.600 1206.975, 926.524 1213.606, 915.750 1223.877 L 908 1231.265 908 1219.633 L 908 1208 880.500 1208 L 853 1208 853 1356.500 L 853 1505 880.500 1505 L 908 1505 908 1450.707 L 908 1396.414 914.417 1402.675 C 926.360 1414.328, 938.064 1420.345, 955.832 1423.966 C 979.757 1428.841, 1005.413 1424.324, 1027.242 1411.392 C 1038.477 1404.736, 1055.691 1387.554, 1062.292 1376.407 C 1075.280 1354.474, 1081.017 1331.993, 1079.602 1308.569 C 1077.726 1277.486, 1066.600 1251.509, 1046.561 1231.423 C 1034.235 1219.069, 1019.858 1210.582, 1002.500 1205.414 C 994.781 1203.116, 991.294 1202.687, 978 1202.404 C 967.382 1202.177, 960.453 1202.511, 956 1203.464 M 1169.113 1203.545 C 1143.267 1209.152, 1124.687 1221.973, 1115.519 1240.527 C 1104.260 1263.314, 1107.745 1291.621, 1123.800 1307.792 C 1135.293 1319.369, 1147.861 1325.719, 1174.598 1333.458 C 1200.916 1341.077, 1207.790 1343.854, 1213.232 1349.066 C 1217.551 1353.202, 1218 1354.060, 1218 1358.168 C 1218 1370.638, 1203.314 1377.769, 1182.856 1375.231 C 1167.607 1373.340, 1156.712 1366.254, 1150.901 1354.450 L 1147.728 1348.005 1144.614 1349.887 C 1142.901 1350.922, 1132.500 1356.822, 1121.500 1362.998 C 1110.500 1369.174, 1101.166 1374.425, 1100.757 1374.668 C 1099.730 1375.278, 1103.408 1382.322, 1108.501 1389.500 C 1117.406 1402.050, 1132.546 1413.475, 1147.386 1418.845 C 1161.630 1423.999, 1171.344 1425.471, 1191 1425.452 C 1206.940 1425.436, 1209.379 1425.192, 1218.366 1422.710 C 1231.854 1418.985, 1238.454 1416.182, 1246.813 1410.625 C 1266.081 1397.815, 1276.332 1376.844, 1274.592 1353.795 C 1272.980 1332.434, 1263.835 1317.343, 1245.951 1306.532 C 1236.067 1300.557, 1225.821 1296.675, 1201.271 1289.604 C 1171.183 1280.938, 1165.473 1277.126, 1166.277 1266.242 C 1166.921 1257.527, 1173.986 1252.388, 1186.800 1251.314 C 1200.152 1250.194, 1213.191 1256.342, 1220.109 1267.019 C 1221.910 1269.799, 1223.926 1271.944, 1224.589 1271.786 C 1227.533 1271.087, 1270 1247.459, 1270 1246.521 C 1270 1244.227, 1262.215 1234.094, 1255.002 1227 C 1242.662 1214.864, 1227.280 1207.027, 1208.989 1203.557 C 1198.869 1201.638, 1177.934 1201.631, 1169.113 1203.545 M 747 1314 L 747 1420 774.500 1420 L 802 1420 802 1314 L 802 1208 774.500 1208 L 747 1208 747 1314 M 1279.278 1209.750 C 1279.559 1210.713, 1298.962 1256.660, 1322.395 1311.856 C 1345.828 1367.053, 1365 1412.794, 1365 1413.505 C 1365 1416.559, 1355.519 1433.365, 1351.017 1438.291 C 1342.745 1447.342, 1329.387 1453, 1316.290 1453 L 1310 1453 1310 1479.150 L 1310 1505.300 1323.250 1504.696 C 1354.667 1503.265, 1377.816 1491.561, 1397.107 1467.356 C 1404.047 1458.648, 1412.194 1444.479, 1417.373 1432.110 C 1421.101 1423.206, 1497.287 1215.026, 1498.749 1209.750 C 1499.202 1208.112, 1497.352 1208, 1469.848 1208 L 1440.462 1208 1416.975 1278.547 L 1393.487 1349.093 1372.114 1293.797 C 1360.359 1263.383, 1348.066 1231.638, 1344.796 1223.250 L 1338.851 1208 1308.809 1208 C 1280.669 1208, 1278.799 1208.111, 1279.278 1209.750 M 959.500 1254.660 C 946.626 1255.813, 934.104 1261.689, 924.897 1270.897 C 910.773 1285.020, 905.226 1305.325, 909.454 1327.422 C 913.924 1350.788, 931.133 1367.704, 955 1372.194 C 961.748 1373.464, 977.877 1372.603, 984.086 1370.643 C 1003.581 1364.486, 1017.631 1349.665, 1022.613 1330 C 1024.575 1322.259, 1024.790 1307.861, 1023.069 1299.500 C 1017.146 1270.717, 990.451 1251.888, 959.500 1254.660 M 551 1330.521 L 551 1365.130 588.750 1364.815 L 626.500 1364.500 632.155 1361.849 C 657.825 1349.814, 658.205 1312.361, 632.795 1298.793 C 628.560 1296.532, 627.960 1296.496, 589.750 1296.206 L 551 1295.912 551 1330.521 M 1182.314 1497.894 C 1178.425 1500.334, 1176.999 1502.829, 1177.004 1507.184 C 1177.013 1514.977, 1184.257 1520.390, 1191.484 1518.005 C 1196.380 1516.389, 1199 1512.686, 1199 1507.381 C 1199 1498.566, 1189.685 1493.269, 1182.314 1497.894 M 950 1547.561 L 950 1596.123 975.750 1595.811 C 1000.245 1595.515, 1001.706 1595.390, 1005.722 1593.244 C 1015.321 1588.115, 1020.675 1580.548, 1021.695 1570.670 C 1022.524 1562.639, 1020.042 1555.351, 1014.678 1550.065 L 1010.302 1545.753 1013.614 1540.830 C 1017.471 1535.099, 1018.397 1531.172, 1017.810 1523.043 C 1017.064 1512.742, 1008.719 1502.960, 998.177 1500.033 C 996.155 1499.471, 984.487 1499.009, 972.250 1499.006 L 950 1499 950 1547.561 M 970 1527.500 L 970 1538.172 981.398 1537.836 C 990.932 1537.555, 993.142 1537.186, 994.913 1535.581 C 999.227 1531.671, 999.262 1523.820, 994.983 1519.536 C 993.221 1517.772, 991.419 1517.455, 981.475 1517.164 L 970 1516.828 970 1527.500 M 1133.610 1525.034 C 1122.403 1526.960, 1114.289 1534.256, 1113.267 1543.325 C 1112.515 1549.994, 1113.701 1554.590, 1117.205 1558.580 C 1120.977 1562.876, 1124.933 1564.960, 1135.836 1568.396 C 1147.081 1571.938, 1148 1572.513, 1148 1576 C 1148 1579.644, 1145.699 1581, 1139.516 1581 C 1134.099 1581, 1129.974 1579.107, 1127.254 1575.375 L 1125.301 1572.694 1117.651 1576.917 C 1113.443 1579.240, 1110 1581.357, 1110 1581.623 C 1110 1583.202, 1115.382 1589.570, 1118.908 1592.163 C 1124.308 1596.135, 1130.728 1598, 1139 1598 C 1156.270 1598, 1167.200 1589.509, 1167.200 1576.092 C 1167.200 1564.448, 1162.040 1559.177, 1145.500 1553.923 C 1140 1552.176, 1134.713 1550.058, 1133.750 1549.218 C 1128.334 1544.489, 1137.184 1538.522, 1144.316 1542.094 C 1145.517 1542.696, 1147.435 1544.294, 1148.578 1545.645 L 1150.657 1548.102 1158.328 1543.964 C 1162.548 1541.688, 1166 1539.597, 1166 1539.318 C 1166 1537.792, 1161.320 1532.631, 1157.684 1530.147 C 1150.686 1525.367, 1142.181 1523.560, 1133.610 1525.034 M 1246.297 1525.039 C 1241.136 1526.071, 1238.322 1527.477, 1234.750 1530.809 L 1232 1533.374 1232 1529.687 L 1232 1526 1223 1526 L 1214 1526 1214 1561 L 1214 1596 1223 1596 L 1232 1596 1232.006 1575.750 C 1232.009 1564.612, 1232.456 1553.899, 1232.999 1551.943 C 1234.587 1546.227, 1238.995 1542.748, 1245.314 1542.224 C 1249.038 1541.915, 1251.633 1542.276, 1253.820 1543.407 C 1259.573 1546.382, 1260 1548.459, 1260 1573.450 L 1260 1596 1269.500 1596 L 1279 1596 1279 1572.182 C 1279 1545.894, 1278.313 1541.493, 1273.083 1534.273 C 1267.954 1527.193, 1256.046 1523.088, 1246.297 1525.039 M 1319 1525.341 C 1311.123 1527.142, 1306.146 1529.798, 1300.957 1534.971 C 1292.471 1543.431, 1288.693 1555.782, 1290.910 1567.812 C 1293.233 1580.420, 1299.700 1588.975, 1311 1594.387 C 1317.058 1597.288, 1318.248 1597.500, 1328.500 1597.500 C 1338.309 1597.500, 1340.112 1597.213, 1345.148 1594.852 C 1351.936 1591.669, 1359.633 1584.453, 1358.126 1582.683 C 1357.572 1582.032, 1354.237 1579.961, 1350.715 1578.080 L 1344.312 1574.660 1340.516 1577.555 C 1332.568 1583.618, 1316.671 1581.428, 1311.906 1573.613 C 1310.862 1571.901, 1310.006 1570.162, 1310.004 1569.750 C 1310.002 1569.338, 1321.642 1569, 1335.872 1569 L 1361.744 1569 1362.350 1565.210 C 1363.976 1555.046, 1358.366 1540.132, 1350.220 1532.962 C 1342.321 1526.009, 1329.630 1522.911, 1319 1525.341 M 1390.920 1525.011 C 1374.706 1527.754, 1365.883 1542.865, 1372.670 1556.270 C 1374.923 1560.721, 1381.619 1564.796, 1391.908 1567.978 C 1402.615 1571.289, 1406 1573.216, 1406 1576 C 1406 1579.027, 1402.117 1581, 1396.160 1581 C 1391.177 1581, 1390.451 1580.687, 1386.665 1576.900 L 1382.565 1572.801 1376.033 1576.343 C 1367.433 1581.005, 1366.934 1581.914, 1370.443 1586.515 C 1376.644 1594.644, 1386.846 1598.555, 1399.883 1597.801 C 1409.472 1597.246, 1416.975 1593.584, 1421.356 1587.320 C 1426.464 1580.018, 1426.014 1569.735, 1420.288 1562.931 C 1417.053 1559.086, 1412.698 1556.886, 1401.663 1553.521 C 1393.670 1551.083, 1389 1548.380, 1389 1546.191 C 1389 1545.746, 1389.639 1544.509, 1390.419 1543.441 C 1391.507 1541.954, 1393.045 1541.500, 1397.001 1541.500 C 1401.585 1541.500, 1402.496 1541.872, 1405.128 1544.817 L 1408.092 1548.135 1415.253 1544.198 C 1419.191 1542.033, 1422.575 1539.775, 1422.773 1539.181 C 1423.422 1537.233, 1415.058 1529.270, 1410.227 1527.237 C 1404.492 1524.824, 1397.079 1523.969, 1390.920 1525.011 M 1452 1525.022 C 1445.536 1526.152, 1442.716 1527.432, 1438.454 1531.174 C 1431.611 1537.183, 1429.305 1546.006, 1432.548 1553.768 C 1435.648 1561.189, 1439.946 1564.091, 1454.337 1568.479 C 1462.571 1570.990, 1467 1573.621, 1467 1576 C 1467 1576.550, 1466.100 1577.900, 1465 1579 C 1460.722 1583.278, 1447.266 1580.563, 1445.522 1575.069 C 1445.161 1573.931, 1444.424 1573, 1443.886 1573 C 1443.347 1573, 1439.559 1574.837, 1435.469 1577.081 L 1428.033 1581.163 1429.452 1583.907 C 1431.765 1588.380, 1438.331 1593.605, 1444.619 1595.975 C 1456.758 1600.551, 1475.120 1596.991, 1481.265 1588.871 C 1486.184 1582.371, 1487.076 1572.915, 1483.436 1565.875 C 1481.014 1561.193, 1474.431 1557.218, 1463.592 1553.892 C 1453.018 1550.649, 1450 1548.874, 1450 1545.902 C 1450 1543.529, 1453.752 1541, 1457.272 1541 C 1460.797 1541, 1465.416 1543.328, 1467.340 1546.075 C 1468.793 1548.150, 1468.841 1548.139, 1476.401 1543.990 C 1480.580 1541.696, 1484 1539.426, 1484 1538.944 C 1484 1537.235, 1477.663 1530.887, 1473.613 1528.539 C 1470.245 1526.586, 1459.283 1523.657, 1457.066 1524.118 C 1456.755 1524.182, 1454.475 1524.589, 1452 1525.022 M 1034.190 1552.750 L 1034.500 1579.500 1037.411 1584.754 C 1042.365 1593.696, 1049.764 1597.912, 1060.500 1597.912 C 1067.484 1597.912, 1072.604 1596.302, 1077.502 1592.566 L 1081 1589.898 1081 1592.949 L 1081 1596 1090 1596 L 1099 1596 1099 1561 L 1099 1526 1090.109 1526 L 1081.217 1526 1080.854 1548.250 C 1080.511 1569.282, 1080.367 1570.700, 1078.230 1574.144 C 1074.367 1580.368, 1066.738 1582.589, 1059.546 1579.584 C 1052.905 1576.809, 1052.538 1575.304, 1052.169 1549.297 L 1051.839 1526 1042.860 1526 L 1033.881 1526 1034.190 1552.750 M 1179 1561 L 1179 1596 1188 1596 L 1197 1596 1197 1561 L 1197 1526 1188 1526 L 1179 1526 1179 1561 M 1320.231 1542.252 C 1316.682 1543.390, 1310 1550.085, 1310 1552.503 C 1310 1553.774, 1312.578 1554, 1327.075 1554 L 1344.150 1554 1341.825 1549.750 C 1337.870 1542.520, 1329 1539.441, 1320.231 1542.252 M 970 1567.079 L 970 1578.159 983.085 1577.829 L 996.169 1577.500 999.085 1574.234 C 1003.227 1569.594, 1003.224 1563.070, 999.077 1558.923 L 996.154 1556 983.077 1556 L 970 1556 970 1567.079" stroke="none" fill="#6d7174" fill-rule="evenodd"/>
</svg>