<svg xmlns="http://www.w3.org/2000/svg" width="2000" height="2000" viewBox="0 0 2000 2000" version="1.1">
	<path d="M 424.306 782.250 C 416.884 787.571, 394.498 817.653, 382.712 838.144 C 379.113 844.400, 366.615 869.282, 363.949 875.500 C 359.316 886.303, 352.012 907.289, 349.055 918.295 C 345.645 930.986, 341.014 953.939, 341.005 958.191 C 340.998 961.993, 339.669 962.382, 334.933 959.966 C 328.181 956.521, 309.194 949.076, 299 945.876 C 276.492 938.809, 257.132 935.971, 232.030 936.056 C 213.808 936.119, 209.845 936.938, 206.599 941.317 C 204.599 944.013, 204.510 945.312, 204.505 971.817 C 204.501 995.947, 204.798 1001.361, 206.818 1014 C 216.377 1073.784, 238.985 1121.129, 276.469 1159.866 C 295.123 1179.143, 314.668 1193.354, 338.500 1204.970 C 355.409 1213.211, 369.219 1217.897, 389.357 1222.227 C 404.155 1225.409, 405.069 1225.483, 429.500 1225.491 C 455.338 1225.500, 457.783 1225.248, 478.546 1220.426 C 513.372 1212.338, 549.740 1191.967, 577.363 1165.075 C 618.569 1124.961, 642.647 1076.768, 652.591 1014.500 C 654.448 1002.875, 655.753 949.532, 654.315 944.075 C 653.818 942.191, 652.164 939.719, 650.640 938.580 C 648.119 936.698, 646.189 936.477, 629.339 936.144 C 618.629 935.932, 606.736 936.279, 601.155 936.968 C 576.827 939.968, 551.413 947.290, 528.636 957.862 C 523.760 960.125, 519.373 961.730, 518.886 961.429 C 518.398 961.128, 517.999 959.446, 517.997 957.691 C 517.988 948.889, 510.749 917.281, 504.669 899.500 C 495.525 872.755, 479.424 840.548, 462.677 815.500 C 455.961 805.455, 440.307 785.436, 436.981 782.637 C 433.077 779.353, 428.540 779.214, 424.306 782.250 M 1058.438 840.875 C 1056.754 841.312, 1052.994 842.967, 1050.083 844.552 C 1026.343 857.473, 1027.591 892.273, 1052.200 903.575 C 1057.356 905.944, 1059.865 906.472, 1066.021 906.484 C 1072.521 906.498, 1074.449 906.054, 1080.218 903.213 C 1093.018 896.912, 1099.552 885.895, 1098.774 871.929 C 1098.075 859.405, 1092.082 849.987, 1081.077 844.122 C 1074.591 840.664, 1064.704 839.247, 1058.438 840.875 M 786 994.942 L 786 1142 851.428 1142 C 891.971 1142, 919.830 1141.596, 924.678 1140.939 C 963.468 1135.678, 993.158 1109.750, 1000.581 1074.655 C 1002.387 1066.116, 1002.587 1049.753, 1000.993 1040.964 C 997.658 1022.573, 987.553 1006.592, 971.935 995.012 L 964.312 989.360 971.423 981.930 C 984.483 968.284, 991.071 951.586, 991.123 932 C 991.228 892.037, 966.953 861.360, 926.893 850.833 C 918.724 848.685, 916.735 848.617, 852.250 848.255 L 786 847.883 786 994.942 M 425.716 858.250 C 416.880 872.116, 405.471 896.288, 399.167 914.500 C 392.634 933.370, 386 968.419, 386 984.058 L 386 989.899 401.340 1005.200 C 409.777 1013.615, 419.472 1024.213, 422.885 1028.750 C 426.298 1033.287, 429.454 1037, 429.900 1037 C 430.346 1037, 432.556 1034.412, 434.813 1031.250 C 441.857 1021.377, 454.214 1007.829, 463.772 999.500 L 472.952 991.500 472.956 982 C 472.972 950.262, 462.135 911.132, 443.338 875.057 C 436.157 861.275, 431.101 853, 429.862 853 C 429.422 853, 427.556 855.362, 425.716 858.250 M 844 934.520 L 844 967.164 877.250 966.825 L 910.500 966.486 915.717 963.743 C 925.366 958.670, 930.741 951.551, 932.888 941 C 935.241 929.434, 930.364 915.504, 921.656 908.923 C 913.538 902.787, 912.738 902.668, 876.750 902.254 L 844 901.876 844 934.520 M 1247.763 927.579 C 1230.552 930.691, 1215.739 938.224, 1204.262 949.701 L 1198 955.963 1198 943.981 L 1198 932 1171 932 L 1144 932 1144 1079 L 1144 1226 1171 1226 L 1198 1226 1198 1171.867 L 1198 1117.735 1205.803 1125.117 C 1222.210 1140.642, 1239.641 1147.124, 1265.500 1147.318 C 1281.669 1147.439, 1292.992 1144.945, 1307.500 1138.068 C 1345.145 1120.223, 1368.086 1082.005, 1368.064 1037.169 C 1368.041 987.408, 1339.392 945.170, 1296.069 931.021 C 1280.241 925.851, 1263.795 924.680, 1247.763 927.579 M 1461.476 927.116 C 1452.451 928.417, 1438.110 933.210, 1430.370 937.512 C 1421.338 942.531, 1409.224 954.595, 1405.275 962.500 C 1399.381 974.300, 1398.495 978.321, 1398.553 993 C 1398.602 1005.175, 1398.867 1007.163, 1401.263 1013.260 C 1409.079 1033.158, 1423.831 1043.992, 1457.222 1054.356 C 1465.075 1056.793, 1476 1060.179, 1481.500 1061.880 C 1499.957 1067.588, 1506.490 1073.104, 1505.697 1082.307 C 1505.167 1088.455, 1500.850 1093.160, 1493.051 1096.091 C 1488.298 1097.877, 1485.775 1098.127, 1475.500 1097.829 C 1464.372 1097.507, 1462.991 1097.242, 1456.500 1094.180 C 1448.381 1090.351, 1441.143 1083.298, 1438.343 1076.489 C 1437.329 1074.024, 1436.114 1072.006, 1435.642 1072.004 C 1434.536 1071.999, 1390.149 1096.950, 1389.555 1097.910 C 1388.631 1099.406, 1397.544 1112.566, 1404.292 1119.671 C 1419.893 1136.094, 1438.381 1144.316, 1465.912 1147.073 C 1490.815 1149.567, 1516.700 1144.001, 1534.148 1132.402 C 1546.448 1124.225, 1555.936 1111.009, 1559.654 1096.876 C 1561.848 1088.534, 1561.786 1072.677, 1559.525 1064 C 1555.747 1049.498, 1546.596 1037.910, 1532.330 1029.559 C 1522.248 1023.658, 1512.816 1020.102, 1489.500 1013.414 C 1468.650 1007.434, 1459.105 1003.361, 1456.122 999.171 C 1450.733 991.604, 1453.655 982.474, 1463 977.677 C 1468.161 975.028, 1469.117 974.877, 1478.500 975.228 C 1485.881 975.504, 1489.710 976.148, 1493.122 977.688 C 1499 980.341, 1505.387 986.098, 1508.673 991.704 C 1511.061 995.780, 1511.379 995.984, 1513.367 994.715 C 1514.540 993.967, 1524.838 988.270, 1536.250 982.055 C 1547.662 975.841, 1557 970.374, 1557 969.906 C 1557 967.784, 1543.710 951.942, 1537.671 946.865 C 1518.161 930.465, 1489.596 923.061, 1461.476 927.116 M 1039 1037 L 1039 1142 1066 1142 L 1093 1142 1093 1037 L 1093 932 1066 932 L 1039 932 1039 1037 M 1566.282 933.235 C 1566.562 933.931, 1585.954 979.661, 1609.377 1034.858 L 1651.963 1135.216 1649.775 1140.358 C 1646.033 1149.156, 1640.813 1157.307, 1635.779 1162.212 C 1627.730 1170.057, 1614.847 1175, 1602.451 1175 L 1597 1175 1597 1200.654 L 1597 1226.309 1609.250 1225.687 C 1650.520 1223.591, 1677.868 1204.278, 1698.788 1162.455 C 1701.798 1156.436, 1719.647 1108.944, 1743.323 1043.955 C 1765.054 984.305, 1783.144 934.712, 1783.524 933.750 C 1784.172 932.108, 1782.426 932, 1755.149 932 L 1726.084 932 1702.969 1002.094 C 1690.256 1040.645, 1679.623 1071.957, 1679.341 1071.675 C 1679.059 1071.393, 1666.765 1039.963, 1652.021 1001.831 L 1625.214 932.500 1595.494 932.235 C 1571.846 932.024, 1565.878 932.228, 1566.282 933.235 M 1241 979.576 C 1226.386 983.414, 1212.985 993.252, 1206.260 1005.078 C 1200.610 1015.015, 1198.490 1023.964, 1198.578 1037.500 C 1198.645 1047.793, 1199.039 1050.613, 1201.347 1057.328 C 1209.737 1081.734, 1229.973 1096.031, 1256.064 1095.985 C 1272.595 1095.956, 1286.860 1090.326, 1297.593 1079.593 C 1308.586 1068.599, 1313.958 1054.629, 1313.985 1036.960 C 1314.029 1008.693, 1297.751 986.458, 1272.235 979.932 C 1263.199 977.621, 1249.057 977.460, 1241 979.576 M 252.337 995.750 C 253.282 1011.539, 257.610 1031.846, 263.948 1050.227 C 285.991 1114.155, 331.486 1158.663, 389.982 1173.528 C 405.748 1177.534, 422.127 1179.222, 423.511 1176.982 C 424.284 1175.731, 422.439 1156.611, 420.403 1144.774 C 418.377 1132.997, 413.686 1114.016, 409.882 1102.202 C 397.105 1062.523, 361.737 1024.733, 317.510 1003.506 C 296.798 993.566, 286.886 990.385, 264.619 986.535 C 250.447 984.085, 251.588 983.228, 252.337 995.750 M 596.500 985.705 C 589.693 986.624, 567.899 992.504, 559.621 995.654 C 547.227 1000.370, 528.971 1009.615, 519.494 1015.973 C 492.245 1034.254, 470.719 1056.926, 458.117 1080.617 L 454.864 1086.733 457.904 1097.170 C 464.238 1118.913, 467.016 1133.254, 469.506 1157.057 C 470.392 1165.523, 471.300 1172.633, 471.524 1172.858 C 471.749 1173.082, 476.786 1171.592, 482.716 1169.545 C 527.256 1154.174, 564.833 1119.029, 586.653 1072.336 C 591.218 1062.566, 598.620 1041.481, 601.340 1030.500 C 604.509 1017.707, 608.614 987.802, 607.458 985.933 C 606.889 985.011, 602.334 984.917, 596.500 985.705 M 844 1053.511 L 844 1088.110 881.774 1087.805 L 919.548 1087.500 926.248 1084.200 C 933.672 1080.544, 938.568 1075.396, 942.206 1067.420 C 944.025 1063.434, 944.454 1060.697, 944.465 1053 C 944.477 1044.811, 944.115 1042.721, 941.842 1037.852 C 938.631 1030.976, 933.079 1025.240, 926.458 1021.958 L 921.500 1019.500 882.750 1019.206 L 844 1018.912 844 1053.511 M 1479.372 1240.589 C 1475.065 1242.713, 1472.528 1247.672, 1473.393 1252.280 C 1475.169 1261.748, 1488.475 1264.238, 1493.335 1256.010 C 1496.684 1250.341, 1494.354 1242.882, 1488.466 1240.421 C 1484.226 1238.650, 1483.266 1238.668, 1479.372 1240.589 M 1246 1290.577 L 1246 1339.154 1270.750 1338.827 C 1298.312 1338.463, 1300.331 1338.039, 1308.459 1330.902 C 1319.820 1320.926, 1319.820 1300.066, 1308.458 1291.400 L 1305.123 1288.856 1308.484 1284.453 C 1317.336 1272.856, 1314.339 1255.536, 1302.046 1247.252 C 1295.438 1242.799, 1290.155 1242, 1267.318 1242 L 1246 1242 1246 1290.577 M 1265 1270.500 L 1265 1281 1276.277 1281 C 1288.935 1281, 1291.209 1280.137, 1293.593 1274.431 C 1295.450 1269.987, 1294.403 1265.517, 1290.794 1262.480 C 1288.033 1260.157, 1287.125 1260, 1276.423 1260 L 1265 1260 1265 1270.500 M 1425.994 1268.934 C 1412.421 1273.063, 1405.629 1285.980, 1410.913 1297.616 C 1413.531 1303.381, 1418.388 1306.680, 1429.717 1310.390 C 1441.506 1314.251, 1443.666 1315.371, 1444.522 1318.071 C 1445.406 1320.856, 1442.757 1323.635, 1438.449 1324.444 C 1433.175 1325.433, 1427.513 1323.445, 1424.217 1319.447 L 1421.329 1315.944 1413.660 1320.315 L 1405.990 1324.686 1408.849 1328.593 C 1412.730 1333.899, 1414.728 1335.538, 1420.537 1338.187 C 1427.737 1341.471, 1442.273 1341.422, 1449.757 1338.089 C 1459.247 1333.862, 1463.725 1326.313, 1462.690 1316.286 C 1461.691 1306.606, 1456.443 1301.797, 1442 1297.326 C 1429.673 1293.509, 1428 1292.515, 1428 1289.010 C 1428 1283.152, 1437.542 1281.903, 1443.347 1287 C 1445.226 1288.650, 1447.155 1289.981, 1447.632 1289.958 C 1448.109 1289.934, 1451.644 1288.150, 1455.486 1285.993 L 1462.472 1282.070 1456.824 1276.600 C 1452.676 1272.582, 1449.778 1270.715, 1445.907 1269.565 C 1440.424 1267.937, 1430.325 1267.617, 1425.994 1268.934 M 1539.764 1268.996 C 1535.990 1270.132, 1530.213 1273.811, 1529.037 1275.828 C 1528.276 1277.131, 1528.054 1276.672, 1528.030 1273.750 L 1528 1270 1519 1270 L 1510 1270 1510 1304.500 L 1510 1339 1519 1339 L 1528 1339 1528.022 1317.750 C 1528.047 1293.602, 1528.942 1289.632, 1535.082 1286.458 C 1539.810 1284.012, 1549.128 1284.832, 1552.488 1287.989 C 1556.359 1291.625, 1556.988 1295.852, 1556.994 1318.250 L 1557 1339 1566.100 1339 L 1575.200 1339 1574.811 1313.750 C 1574.444 1289.858, 1574.297 1288.216, 1572.072 1283.212 C 1569.307 1276.992, 1562.803 1270.857, 1557.193 1269.176 C 1552.765 1267.849, 1543.877 1267.757, 1539.764 1268.996 M 1610.419 1269.822 C 1600.297 1273.321, 1591.845 1281.930, 1588.426 1292.222 C 1586.056 1299.360, 1586.825 1313.777, 1589.921 1320.216 C 1598.371 1337.791, 1619.601 1345.359, 1639.534 1337.902 C 1644.864 1335.907, 1654.008 1328.800, 1653.991 1326.665 C 1653.986 1326.024, 1650.995 1323.802, 1647.345 1321.727 C 1641.553 1318.433, 1640.505 1318.132, 1639.104 1319.356 C 1631.023 1326.421, 1617.015 1326.243, 1609.750 1318.983 C 1602.807 1312.044, 1602.736 1312.068, 1631.750 1311.767 L 1657.500 1311.500 1657.454 1303 C 1657.415 1295.843, 1656.956 1293.506, 1654.549 1288.209 C 1650.962 1280.315, 1643.246 1272.984, 1635.459 1270.071 C 1628.484 1267.461, 1617.563 1267.352, 1610.419 1269.822 M 1681.591 1269.573 C 1672 1273.087, 1667 1280.005, 1667 1289.760 C 1667 1294.390, 1667.552 1296.451, 1669.664 1299.708 C 1672.955 1304.783, 1677.322 1307.294, 1689.454 1311.087 C 1699.735 1314.300, 1702 1315.841, 1702 1319.622 C 1702 1325.480, 1688.421 1326.575, 1683.001 1321.155 C 1681.530 1319.684, 1680.120 1317.861, 1679.868 1317.103 C 1679.524 1316.071, 1677.473 1316.787, 1671.704 1319.953 C 1667.467 1322.278, 1664 1324.501, 1664 1324.893 C 1664 1326.281, 1670.042 1333.797, 1672.398 1335.341 C 1676.470 1338.009, 1686.702 1341, 1691.758 1341 C 1697.836 1341, 1707.377 1338.548, 1711.701 1335.876 C 1715.187 1333.722, 1719.304 1327.476, 1720.429 1322.637 C 1720.795 1321.062, 1720.583 1317.310, 1719.958 1314.297 C 1718.162 1305.645, 1713.883 1302.073, 1699.850 1297.508 C 1693.607 1295.477, 1687.713 1293.113, 1686.750 1292.253 C 1680.838 1286.973, 1691.024 1281.376, 1699.020 1285.510 C 1700.626 1286.341, 1702.392 1287.864, 1702.943 1288.894 C 1703.888 1290.659, 1704.383 1290.539, 1711.473 1286.824 C 1715.613 1284.654, 1719 1282.465, 1719 1281.957 C 1719 1279.479, 1710.121 1272.132, 1704.712 1270.136 C 1697.923 1267.630, 1687.581 1267.379, 1681.591 1269.573 M 1743.994 1268.934 C 1730.421 1273.063, 1723.629 1285.980, 1728.913 1297.616 C 1731.531 1303.381, 1736.388 1306.680, 1747.717 1310.390 C 1759.506 1314.251, 1761.666 1315.371, 1762.522 1318.071 C 1763.406 1320.856, 1760.757 1323.635, 1756.449 1324.444 C 1751.175 1325.433, 1745.513 1323.445, 1742.217 1319.447 L 1739.329 1315.944 1731.660 1320.315 L 1723.990 1324.686 1726.849 1328.593 C 1730.730 1333.899, 1732.728 1335.538, 1738.537 1338.187 C 1745.737 1341.471, 1760.273 1341.422, 1767.757 1338.089 C 1777.247 1333.862, 1781.725 1326.313, 1780.690 1316.286 C 1779.691 1306.606, 1774.443 1301.797, 1760 1297.326 C 1747.673 1293.509, 1746 1292.515, 1746 1289.010 C 1746 1283.152, 1755.542 1281.903, 1761.347 1287 C 1763.226 1288.650, 1765.155 1289.981, 1765.632 1289.958 C 1766.109 1289.934, 1769.644 1288.150, 1773.486 1285.993 L 1780.472 1282.070 1774.824 1276.600 C 1770.676 1272.582, 1767.778 1270.715, 1763.907 1269.565 C 1758.424 1267.937, 1748.325 1267.617, 1743.994 1268.934 M 1330.188 1295.750 C 1330.561 1324.215, 1330.943 1326.205, 1337.301 1332.838 C 1342.899 1338.678, 1347.459 1340.484, 1356.500 1340.440 C 1365.106 1340.399, 1369.138 1338.981, 1374.250 1334.199 L 1377 1331.626 1377 1335.313 L 1377 1339 1386 1339 L 1395 1339 1395 1304.500 L 1395 1270 1386 1270 L 1377 1270 1376.978 1290.750 C 1376.953 1314.248, 1376.053 1318.168, 1369.808 1321.976 C 1365.175 1324.800, 1357.198 1324.730, 1353.514 1321.832 C 1348.529 1317.911, 1348 1315.006, 1348 1291.532 L 1348 1270 1338.925 1270 L 1329.851 1270 1330.188 1295.750 M 1475 1304.500 L 1475 1339 1484 1339 L 1493 1339 1493 1304.500 L 1493 1270 1484 1270 L 1475 1270 1475 1304.500 M 1614.401 1285.905 C 1610.274 1287.780, 1606.856 1291.587, 1605.564 1295.750 L 1604.865 1298 1622.433 1298 C 1641.839 1298, 1641.826 1298.005, 1637.726 1291.922 C 1632.516 1284.190, 1623.371 1281.832, 1614.401 1285.905 M 1265 1309.577 L 1265 1321.155 1278.585 1320.827 L 1292.169 1320.500 1295.085 1317.234 C 1297.338 1314.710, 1298 1313.001, 1298 1309.707 C 1298 1300.630, 1293.178 1298, 1276.532 1298 L 1265 1298 1265 1309.577" stroke="none" fill="#6d7074" fill-rule="evenodd"/>
</svg>