<svg xmlns="http://www.w3.org/2000/svg" width="2000" height="2000" viewBox="0 0 2000 2000" version="1.1">
	<path d="M 435.741 797.577 C 431.693 799.773, 418.245 816.412, 407.106 833.009 C 381.411 871.291, 364.108 914.212, 357.536 955.973 C 356.629 961.733, 355.749 966.584, 355.580 966.754 C 355.411 966.923, 352.398 965.737, 348.886 964.119 C 345.374 962.501, 338.225 959.537, 333 957.532 C 327.775 955.527, 322.470 953.464, 321.212 952.948 C 316.336 950.945, 295.721 946.036, 285.367 944.411 C 272.859 942.448, 239.269 942.069, 234.802 943.841 C 233.319 944.429, 231.294 946.149, 230.302 947.661 C 228.677 950.141, 228.504 953.024, 228.542 976.956 C 228.577 999.508, 228.917 1005.530, 230.801 1017 C 240.214 1074.298, 263.673 1121.321, 300.648 1157.009 C 335.566 1190.712, 378.106 1210.117, 425.775 1214.088 C 458.495 1216.813, 494.404 1209.780, 524.660 1194.723 C 536.682 1188.740, 549.841 1180.728, 559.520 1173.498 C 572.942 1163.472, 594.739 1141.325, 603.316 1129 C 630.019 1090.626, 643.923 1054.720, 649.488 1009.770 C 651.033 997.291, 651.489 953.960, 650.127 949.090 C 649.756 947.765, 648.252 945.784, 646.785 944.689 C 644.339 942.862, 642.480 942.693, 624.309 942.642 C 602.948 942.582, 590.395 944.037, 573.500 948.533 C 556.869 952.959, 545.328 957.060, 531.618 963.416 C 527.283 965.425, 523.580 966.914, 523.390 966.723 C 523.199 966.532, 522.328 961.229, 521.454 954.938 C 517.155 923.987, 504.034 887.409, 485.110 853.619 C 476.064 837.468, 469.012 826.828, 457.278 811.625 C 445.238 796.026, 442.224 794.060, 435.741 797.577 M 1071.254 841.396 C 1061.618 844.552, 1054.009 851.393, 1049.685 860.788 C 1046.446 867.827, 1046.667 879.548, 1050.183 887.148 C 1059.742 907.811, 1085.705 913.176, 1102.382 897.934 C 1112.830 888.385, 1116.191 875.432, 1111.645 862.238 C 1109.294 855.417, 1101.544 846.902, 1094.586 843.498 C 1088.037 840.294, 1077.513 839.346, 1071.254 841.396 M 801 994.942 L 801 1142 866.250 1141.994 C 936.731 1141.988, 943.142 1141.611, 957.700 1136.621 C 986.640 1126.701, 1006.131 1106.640, 1014.168 1078.500 C 1017.138 1068.101, 1017.353 1047.147, 1014.595 1037 C 1009.588 1018.584, 999.488 1003.990, 984.750 993.873 C 981.587 991.702, 979 989.688, 979 989.398 C 979 989.108, 980.329 987.753, 981.953 986.386 C 990.623 979.091, 1000.213 963.117, 1003.499 950.500 C 1007.210 936.252, 1006.295 918.519, 1001.061 903.239 C 997.311 892.292, 993.026 885.352, 984.180 875.896 C 972.707 863.632, 960.634 856.447, 942.902 851.329 L 933.500 848.615 867.250 848.249 L 801 847.883 801 994.942 M 435.304 870.750 C 413.882 905.540, 398.774 954.125, 399.063 987.301 L 399.125 994.500 406.155 1000.500 C 414.114 1007.293, 425.924 1019.950, 433.435 1029.735 C 436.221 1033.365, 439.009 1036.504, 439.631 1036.711 C 440.253 1036.918, 442.922 1034.030, 445.561 1030.294 C 448.200 1026.557, 457.320 1016.540, 465.827 1008.033 L 481.294 992.567 480.072 978.626 C 476.996 943.512, 469.299 917.962, 451.415 883.500 C 446.563 874.151, 440.456 864, 439.682 864 C 439.560 864, 437.590 867.038, 435.304 870.750 M 859 934.573 L 859 967.145 891.750 966.823 L 924.500 966.500 930.161 963.719 C 936.681 960.517, 942.295 954.757, 945.363 948.122 C 947.058 944.456, 947.492 941.640, 947.463 934.500 C 947.419 924.057, 945.547 918.825, 939.431 912.055 C 931.269 903.021, 926.092 902, 888.451 902 L 859 902 859 934.573 M 1262.828 927.434 C 1244.696 930.633, 1231.847 937.098, 1219.250 949.359 L 1213 955.442 1213 943.721 L 1213 932 1185.497 932 L 1157.993 932 1158.247 1078.750 L 1158.500 1225.500 1185.500 1225.500 L 1212.500 1225.500 1212.759 1171.914 L 1213.017 1118.328 1220.552 1125.646 C 1226.505 1131.428, 1230.231 1134.018, 1238.294 1137.980 C 1250.104 1143.783, 1256.687 1145.651, 1270.312 1147.067 C 1293.285 1149.454, 1316.111 1143.496, 1336.187 1129.871 C 1368.193 1108.149, 1386.310 1066.972, 1382.107 1025.500 C 1379.304 997.842, 1368.989 975.159, 1350.578 956.167 C 1337.748 942.931, 1322.258 933.784, 1305.070 929.293 C 1293.263 926.208, 1274.465 925.381, 1262.828 927.434 M 1479 926.600 C 1460.775 929.955, 1450.175 933.736, 1439.970 940.520 C 1419.963 953.821, 1409.551 977.154, 1412.894 1001.196 C 1415.677 1021.205, 1425.972 1034.408, 1447.077 1045.033 C 1455.348 1049.198, 1468.487 1053.800, 1488.230 1059.450 C 1503.558 1063.836, 1510.615 1066.845, 1515.377 1071.026 C 1524.842 1079.337, 1520.133 1092.580, 1506.280 1096.607 C 1502.049 1097.837, 1497.845 1098.132, 1489.090 1097.814 C 1479.246 1097.457, 1476.639 1096.998, 1471.782 1094.767 C 1464.435 1091.392, 1456.964 1084.376, 1453.350 1077.459 C 1451.782 1074.459, 1450.211 1072.004, 1449.857 1072.002 C 1449.221 1072, 1404.904 1096.763, 1404.094 1097.573 C 1402.808 1098.859, 1411.156 1111.822, 1418.316 1119.655 C 1427.326 1129.514, 1442.172 1138.513, 1456.524 1142.815 C 1467.431 1146.084, 1486.888 1148.317, 1498.013 1147.575 C 1525.211 1145.762, 1546.053 1137.250, 1560.123 1122.209 C 1580.820 1100.084, 1581.375 1062.641, 1561.327 1040.986 C 1550.763 1029.576, 1537.187 1023.056, 1504.306 1013.604 C 1484.215 1007.828, 1475.188 1004.010, 1471 999.520 C 1468.922 997.292, 1468.500 995.848, 1468.500 990.975 C 1468.500 985.658, 1468.818 984.783, 1471.907 981.596 C 1476.365 976.997, 1482.498 975, 1492.167 975 C 1505.093 975, 1514.337 979.569, 1521.470 989.482 C 1523.653 992.517, 1525.850 995, 1526.352 995 C 1527.034 995, 1570.372 971.643, 1571.754 970.530 C 1571.894 970.417, 1569.813 967.215, 1567.131 963.413 C 1554.697 945.789, 1535.630 933.072, 1514.788 928.500 C 1507.675 926.940, 1483.985 925.682, 1479 926.600 M 1053.245 1036.750 L 1053.500 1141.500 1080.500 1141.500 L 1107.500 1141.500 1107.755 1036.750 L 1108.009 932 1080.500 932 L 1052.991 932 1053.245 1036.750 M 1580.390 932.822 C 1581.810 935.120, 1666 1134.485, 1666 1135.550 C 1666 1138.231, 1656.844 1154.896, 1652.925 1159.348 C 1644.633 1168.768, 1634.307 1173.611, 1619.989 1174.797 L 1611.500 1175.500 1611.233 1200.905 L 1610.965 1226.310 1623.764 1225.662 C 1665.728 1223.538, 1693.810 1203.180, 1714.353 1159.988 C 1718.629 1150.999, 1798 935.272, 1798 932.640 C 1798 932.288, 1785.063 932.005, 1769.250 932.011 L 1740.500 932.022 1717.530 1001.588 C 1704.897 1039.849, 1694.319 1071.303, 1694.024 1071.485 C 1693.729 1071.667, 1681.340 1040.360, 1666.494 1001.913 L 1639.500 932.009 1609.691 932.004 C 1593.296 932.002, 1580.111 932.370, 1580.390 932.822 M 1253 980.329 C 1234.685 985.754, 1221.252 998.986, 1215.465 1017.302 C 1212.444 1026.863, 1212.037 1043.468, 1214.581 1053.356 C 1219.947 1074.209, 1235.510 1089.608, 1256.133 1094.469 C 1287.353 1101.829, 1317.471 1084.730, 1326.628 1054.448 C 1329.022 1046.528, 1329.002 1029.034, 1326.588 1020.080 C 1322.830 1006.142, 1313.239 993.135, 1301.512 986.074 C 1288.211 978.065, 1268.516 975.733, 1253 980.329 M 273.284 998.250 C 274.023 1011.182, 278.074 1030.989, 283.153 1046.500 C 287.808 1060.715, 299.605 1085.215, 307.305 1096.661 C 323.978 1121.444, 345.716 1140.802, 371.309 1153.655 C 387.973 1162.025, 413.474 1169, 427.407 1169 L 434 1169 434 1165.744 C 434 1160.463, 431.166 1138.112, 429.467 1130 C 421.256 1090.784, 410.375 1068.359, 388.175 1044.902 C 366.178 1021.659, 334.237 1002.222, 304.740 994.130 C 298.877 992.521, 275.628 988, 273.220 988 C 272.933 988, 272.962 992.612, 273.284 998.250 M 589.906 990.463 C 544.011 999.765, 501.930 1026.560, 475.791 1063.126 C 469.640 1071.731, 462.803 1083.872, 463.486 1084.977 C 464.523 1086.655, 471.994 1115.416, 473.488 1123.485 C 475.596 1134.865, 478 1154.134, 478 1159.653 C 478 1161.979, 478.337 1164.089, 478.750 1164.341 C 479.807 1164.989, 494.080 1160.059, 503 1155.965 C 537.207 1140.266, 565.684 1112.205, 583.925 1076.221 C 590.647 1062.961, 592.253 1058.798, 599.560 1035.687 C 601.643 1029.098, 605.761 1004.054, 606.167 995.500 C 606.493 988.654, 606.445 988.496, 604 988.307 C 602.625 988.201, 596.283 989.171, 589.906 990.463 M 859 1053.575 L 859 1088.150 896.250 1087.825 L 933.500 1087.500 939.120 1084.865 C 946.738 1081.293, 952.386 1075.949, 955.720 1069.161 C 958.226 1064.057, 958.499 1062.466, 958.492 1053 C 958.485 1043.876, 958.162 1041.845, 956.024 1037.500 C 952.459 1030.254, 945.506 1023.707, 938.653 1021.143 C 933.177 1019.094, 931.300 1019, 895.962 1019 L 859 1019 859 1053.575 M 1479.152 1240.695 C 1472.233 1244.104, 1471.160 1253.432, 1477.111 1258.440 C 1482.209 1262.729, 1490.060 1261.554, 1493.335 1256.010 C 1496.684 1250.341, 1494.354 1242.882, 1488.466 1240.421 C 1484.191 1238.635, 1483.279 1238.662, 1479.152 1240.695 M 1246 1290.577 L 1246 1339.154 1270.750 1338.827 C 1298.312 1338.463, 1300.331 1338.039, 1308.459 1330.902 C 1319.820 1320.926, 1319.820 1300.066, 1308.458 1291.400 L 1305.123 1288.856 1308.484 1284.453 C 1317.336 1272.856, 1314.339 1255.536, 1302.046 1247.252 C 1295.438 1242.799, 1290.155 1242, 1267.318 1242 L 1246 1242 1246 1290.577 M 1265 1270.500 L 1265 1281 1276.277 1281 C 1288.935 1281, 1291.209 1280.137, 1293.593 1274.431 C 1295.450 1269.987, 1294.403 1265.517, 1290.794 1262.480 C 1288.033 1260.157, 1287.125 1260, 1276.423 1260 L 1265 1260 1265 1270.500 M 1425.994 1268.934 C 1412.421 1273.063, 1405.629 1285.980, 1410.913 1297.616 C 1413.531 1303.381, 1418.388 1306.680, 1429.717 1310.390 C 1441.506 1314.251, 1443.666 1315.371, 1444.522 1318.071 C 1445.406 1320.856, 1442.757 1323.635, 1438.449 1324.444 C 1433.175 1325.433, 1427.513 1323.445, 1424.217 1319.447 L 1421.329 1315.944 1413.660 1320.315 L 1405.990 1324.686 1408.849 1328.593 C 1412.730 1333.899, 1414.728 1335.538, 1420.537 1338.187 C 1427.737 1341.471, 1442.273 1341.422, 1449.757 1338.089 C 1459.247 1333.862, 1463.725 1326.313, 1462.690 1316.286 C 1461.691 1306.606, 1456.443 1301.797, 1442 1297.326 C 1429.673 1293.509, 1428 1292.515, 1428 1289.010 C 1428 1283.152, 1437.542 1281.903, 1443.347 1287 C 1445.226 1288.650, 1447.155 1289.981, 1447.632 1289.958 C 1448.109 1289.934, 1451.644 1288.150, 1455.486 1285.993 L 1462.472 1282.070 1456.824 1276.600 C 1452.676 1272.582, 1449.778 1270.715, 1445.907 1269.565 C 1440.424 1267.937, 1430.325 1267.617, 1425.994 1268.934 M 1539.764 1268.996 C 1535.990 1270.132, 1530.213 1273.811, 1529.037 1275.828 C 1528.276 1277.131, 1528.054 1276.672, 1528.030 1273.750 L 1528 1270 1519 1270 L 1510 1270 1510 1304.500 L 1510 1339 1519 1339 L 1528 1339 1528.022 1317.750 C 1528.047 1293.602, 1528.942 1289.632, 1535.082 1286.458 C 1539.810 1284.012, 1549.128 1284.832, 1552.488 1287.989 C 1556.359 1291.625, 1556.988 1295.852, 1556.994 1318.250 L 1557 1339 1566.100 1339 L 1575.200 1339 1574.811 1313.750 C 1574.444 1289.858, 1574.297 1288.216, 1572.072 1283.212 C 1569.307 1276.992, 1562.803 1270.857, 1557.193 1269.176 C 1552.765 1267.849, 1543.877 1267.757, 1539.764 1268.996 M 1610.419 1269.822 C 1600.297 1273.321, 1591.845 1281.930, 1588.426 1292.222 C 1585.840 1300.007, 1586.775 1313.854, 1590.369 1321 C 1593.970 1328.160, 1598.872 1333.123, 1605.596 1336.415 C 1616.115 1341.566, 1628.311 1342.100, 1639.534 1337.902 C 1644.864 1335.907, 1654.008 1328.800, 1653.991 1326.665 C 1653.986 1326.024, 1650.995 1323.802, 1647.345 1321.727 C 1641.553 1318.433, 1640.505 1318.132, 1639.104 1319.356 C 1631.023 1326.421, 1617.015 1326.243, 1609.750 1318.983 C 1602.807 1312.044, 1602.736 1312.068, 1631.750 1311.767 L 1657.500 1311.500 1657.800 1305.177 C 1658.786 1284.351, 1643.284 1267.940, 1622.712 1268.033 C 1618.512 1268.052, 1613.378 1268.799, 1610.419 1269.822 M 1681.591 1269.573 C 1672 1273.087, 1667 1280.005, 1667 1289.760 C 1667 1294.390, 1667.552 1296.451, 1669.664 1299.708 C 1672.955 1304.783, 1677.322 1307.294, 1689.454 1311.087 C 1699.735 1314.300, 1702 1315.841, 1702 1319.622 C 1702 1325.428, 1688.329 1326.483, 1682.939 1321.093 C 1681.503 1319.656, 1680.120 1317.861, 1679.868 1317.103 C 1679.524 1316.071, 1677.473 1316.787, 1671.704 1319.953 C 1667.467 1322.278, 1664 1324.501, 1664 1324.893 C 1664 1326.281, 1670.042 1333.797, 1672.398 1335.341 C 1676.470 1338.009, 1686.702 1341, 1691.758 1341 C 1697.836 1341, 1707.377 1338.548, 1711.701 1335.876 C 1715.187 1333.722, 1719.304 1327.476, 1720.429 1322.637 C 1720.795 1321.062, 1720.583 1317.310, 1719.958 1314.297 C 1718.162 1305.645, 1713.883 1302.073, 1699.850 1297.508 C 1693.607 1295.477, 1687.713 1293.113, 1686.750 1292.253 C 1680.838 1286.973, 1691.024 1281.376, 1699.020 1285.510 C 1700.626 1286.341, 1702.392 1287.864, 1702.943 1288.894 C 1703.888 1290.659, 1704.383 1290.539, 1711.473 1286.824 C 1715.613 1284.654, 1719 1282.465, 1719 1281.957 C 1719 1279.479, 1710.121 1272.132, 1704.712 1270.136 C 1697.923 1267.630, 1687.581 1267.379, 1681.591 1269.573 M 1743.994 1268.934 C 1730.421 1273.063, 1723.629 1285.980, 1728.913 1297.616 C 1731.531 1303.381, 1736.388 1306.680, 1747.717 1310.390 C 1759.506 1314.251, 1761.666 1315.371, 1762.522 1318.071 C 1763.406 1320.856, 1760.757 1323.635, 1756.449 1324.444 C 1751.175 1325.433, 1745.513 1323.445, 1742.217 1319.447 L 1739.329 1315.944 1731.660 1320.315 L 1723.990 1324.686 1726.849 1328.593 C 1730.730 1333.899, 1732.728 1335.538, 1738.537 1338.187 C 1745.737 1341.471, 1760.273 1341.422, 1767.757 1338.089 C 1777.247 1333.862, 1781.725 1326.313, 1780.690 1316.286 C 1779.691 1306.606, 1774.443 1301.797, 1760 1297.326 C 1747.673 1293.509, 1746 1292.515, 1746 1289.010 C 1746 1283.152, 1755.542 1281.903, 1761.347 1287 C 1763.226 1288.650, 1765.155 1289.981, 1765.632 1289.958 C 1766.109 1289.934, 1769.644 1288.150, 1773.486 1285.993 L 1780.472 1282.070 1774.824 1276.600 C 1770.676 1272.582, 1767.778 1270.715, 1763.907 1269.565 C 1758.424 1267.937, 1748.325 1267.617, 1743.994 1268.934 M 1330.188 1295.750 C 1330.561 1324.215, 1330.943 1326.205, 1337.301 1332.838 C 1342.899 1338.678, 1347.459 1340.484, 1356.500 1340.440 C 1365.106 1340.399, 1369.138 1338.981, 1374.250 1334.199 L 1377 1331.626 1377 1335.313 L 1377 1339 1386 1339 L 1395 1339 1395 1304.500 L 1395 1270 1386 1270 L 1377 1270 1376.978 1290.750 C 1376.953 1314.248, 1376.053 1318.168, 1369.808 1321.976 C 1365.175 1324.800, 1357.198 1324.730, 1353.514 1321.832 C 1348.529 1317.911, 1348 1315.006, 1348 1291.532 L 1348 1270 1338.925 1270 L 1329.851 1270 1330.188 1295.750 M 1475 1304.500 L 1475 1339 1484 1339 L 1493 1339 1493 1304.500 L 1493 1270 1484 1270 L 1475 1270 1475 1304.500 M 1614.401 1285.905 C 1610.274 1287.780, 1606.856 1291.587, 1605.564 1295.750 L 1604.865 1298 1622.433 1298 C 1641.839 1298, 1641.826 1298.005, 1637.726 1291.922 C 1632.516 1284.190, 1623.371 1281.832, 1614.401 1285.905 M 1265 1309.577 L 1265 1321.155 1278.585 1320.827 L 1292.169 1320.500 1295.085 1317.234 C 1297.338 1314.710, 1298 1313.001, 1298 1309.707 C 1298 1300.630, 1293.178 1298, 1276.532 1298 L 1265 1298 1265 1309.577" stroke="none" fill="#8696a8" fill-rule="evenodd"/>
</svg>