<svg xmlns="http://www.w3.org/2000/svg" width="2000" height="2000" viewBox="0 0 2000 2000" version="1.1">
	<rect x="0" y="0" width="100%" height="100%" fill="#2f343a" />
	<path d="M 1011 361.129 C 1005.354 363.622, 1002.073 366.739, 990.611 380.500 C 978.768 394.717, 970.958 405.184, 961.328 419.741 C 957.049 426.208, 953.299 431.725, 952.994 432 C 951.924 432.964, 945 445.153, 945 446.072 C 945 446.582, 944.657 447, 944.237 447 C 943.405 447, 942.939 447.784, 938.550 456.585 C 936.927 459.838, 935.294 462.725, 934.921 463 C 934.033 463.653, 913.669 505.450, 912.021 510 C 911.324 511.925, 909.447 516.310, 907.849 519.744 C 906.252 523.178, 903.638 529.928, 902.042 534.744 C 900.445 539.560, 897.924 546.875, 896.440 551 C 894.956 555.125, 893.390 559.850, 892.959 561.500 C 892.529 563.150, 890.979 568.775, 889.516 574 C 888.053 579.225, 886.417 585.300, 885.882 587.500 C 885.347 589.700, 884.457 593.300, 883.904 595.500 C 881.136 606.527, 877.946 624.515, 877.135 633.668 C 876.786 637.610, 876.180 641.155, 875.788 641.546 C 875.397 641.937, 872.922 641.238, 870.288 639.993 C 854.090 632.336, 847.575 629.529, 841 627.374 C 838.525 626.563, 835.600 625.518, 834.500 625.052 C 833.400 624.585, 830.925 623.535, 829 622.716 C 825.053 621.039, 815.504 617.826, 809.500 616.154 C 807.300 615.542, 802.350 614.164, 798.500 613.092 C 792.182 611.332, 783.708 609.271, 775.500 607.498 C 763.573 604.920, 728.311 601.527, 714 601.579 C 696.387 601.644, 681.229 602.880, 676.233 604.659 C 669.744 606.970, 666.999 611.294, 665.709 621.238 C 663.875 635.376, 664.279 687.221, 666.354 704 C 670.383 736.573, 672.393 748.285, 676.393 762.500 C 677.167 765.250, 678.323 769.975, 678.961 773 C 680.132 778.550, 686.436 799.798, 688.010 803.500 C 688.478 804.600, 689.395 807.300, 690.047 809.500 C 694.223 823.580, 714.556 867.950, 720.941 876.917 C 722.073 878.508, 723 880.102, 723 880.461 C 723 882.011, 738.014 904.375, 745.415 913.850 C 749.862 919.543, 754.400 925.428, 755.500 926.929 C 761.522 935.145, 783.674 958.478, 794.545 968.055 C 803.586 976.021, 805.506 977.593, 816.071 985.669 C 829.603 996.013, 836.733 1001, 837.990 1001 C 838.545 1001, 839.003 1001.337, 839.006 1001.750 C 839.010 1002.163, 840.472 1003.345, 842.256 1004.377 C 862.718 1016.220, 862.879 1016.305, 883.500 1026.030 C 891.640 1029.869, 905.098 1035, 907.027 1035 C 907.892 1035, 909.027 1035.381, 909.550 1035.848 C 910.917 1037.067, 929.509 1043.015, 935.460 1044.137 C 942.104 1045.389, 947.014 1046.449, 955.500 1048.462 C 971.344 1052.221, 1006.004 1055.400, 1022 1054.562 C 1045.356 1053.339, 1063.697 1051.246, 1075.500 1048.456 C 1079.350 1047.546, 1084.412 1046.396, 1086.750 1045.901 C 1096.271 1043.883, 1099.665 1043.105, 1103 1042.176 C 1107.460 1040.933, 1112.801 1039.129, 1116 1037.784 C 1119.441 1036.337, 1121.617 1035.559, 1128 1033.494 C 1133.408 1031.745, 1137.797 1029.861, 1153.303 1022.636 C 1157.595 1020.636, 1161.298 1019, 1161.534 1019 C 1161.769 1019, 1164.332 1017.524, 1167.231 1015.720 C 1170.129 1013.916, 1173.850 1011.792, 1175.500 1011 C 1179.499 1009.080, 1201.378 995.215, 1205 992.304 C 1205.825 991.641, 1210.385 988.192, 1215.134 984.639 C 1230.566 973.093, 1234.152 969.929, 1250.500 953.439 C 1265.295 938.515, 1270.816 932.251, 1280.413 919.500 C 1284.139 914.550, 1288.095 909.375, 1289.205 908 C 1296.134 899.413, 1311.622 874.065, 1318.840 859.500 C 1320.748 855.650, 1323.552 850.025, 1325.072 847 C 1326.592 843.975, 1329.205 838.045, 1330.879 833.822 C 1332.553 829.599, 1334.788 824.199, 1335.846 821.822 C 1338.506 815.847, 1341.166 808.399, 1345.246 795.500 C 1351.642 775.279, 1353.452 768.488, 1356.044 755 C 1356.519 752.525, 1357.322 748.475, 1357.828 746 C 1359.186 739.358, 1362.685 716.959, 1364.155 705.500 C 1365.842 692.344, 1365.664 619.595, 1363.931 614.180 C 1362.590 609.988, 1359.645 606.401, 1356 604.519 C 1352.332 602.625, 1319.848 600.597, 1305.069 601.340 C 1293.966 601.897, 1280.793 603.380, 1263 606.076 C 1252.464 607.672, 1242.039 609.919, 1233 612.542 C 1229.975 613.420, 1225.925 614.583, 1224 615.126 C 1215.992 617.384, 1214.247 617.893, 1209 619.501 C 1205.975 620.429, 1201.925 621.866, 1200 622.696 C 1193.213 625.620, 1192.457 625.913, 1187.748 627.438 C 1185.134 628.285, 1178.834 630.927, 1173.748 633.310 C 1168.662 635.692, 1162.925 638.248, 1161 638.988 C 1159.075 639.729, 1156.903 640.793, 1156.174 641.353 C 1154.131 642.921, 1153.317 640.727, 1152.567 631.633 C 1151.647 620.484, 1147.794 599.909, 1144.023 586 C 1143.500 584.075, 1142.342 579.350, 1141.448 575.500 C 1139.805 568.423, 1129.019 535.244, 1126.413 529.250 C 1123.435 522.401, 1122.135 519.320, 1119.978 514 C 1118.751 510.975, 1116.283 505.350, 1114.492 501.500 C 1112.702 497.650, 1110.236 492.250, 1109.012 489.500 C 1107.789 486.750, 1105.618 482.250, 1104.188 479.500 C 1102.759 476.750, 1101.119 473.491, 1100.545 472.258 C 1099.970 471.025, 1099.162 470.012, 1098.750 470.008 C 1098.338 470.004, 1098 469.368, 1098 468.596 C 1098 467.824, 1096.370 464.336, 1094.378 460.846 C 1092.385 457.356, 1089.984 453.150, 1089.042 451.500 C 1088.100 449.850, 1086.196 446.475, 1084.810 444 C 1080.264 435.878, 1067.789 416.507, 1066.885 416.167 C 1066.398 415.983, 1066 415.233, 1066 414.500 C 1066 413.767, 1065.662 413.017, 1065.250 412.833 C 1064.838 412.650, 1062.807 409.912, 1060.738 406.748 C 1058.669 403.584, 1056.339 400.209, 1055.560 399.248 C 1052.680 395.695, 1041.399 381.302, 1036.594 375.049 C 1029.284 365.537, 1028.772 364.991, 1025.500 363.208 C 1023.191 361.950, 1015.500 358.779, 1015.500 359.086 C 1015.500 359.116, 1013.475 360.036, 1011 361.129 M 1010.684 482.096 C 1008.658 485.337, 1007 488.260, 1007 488.590 C 1007 488.921, 1006.146 490.391, 1005.102 491.857 C 1002.746 495.165, 987.608 524.851, 983.101 535 C 977.284 548.100, 976.306 550.563, 969.016 570.500 C 967.185 575.506, 964.769 583.430, 963.070 590 C 962.572 591.925, 961.694 595.300, 961.119 597.500 C 957.309 612.073, 953.691 630.669, 952.073 644 C 949.571 664.615, 949 671.161, 949 679.216 L 949 687.796 954.742 692.648 C 961.515 698.371, 982.875 719.540, 991.925 729.500 C 995.424 733.350, 1001.871 741.337, 1006.252 747.250 C 1010.632 753.163, 1014.615 758, 1015.101 758 C 1015.588 758, 1018.547 754.513, 1021.679 750.250 C 1024.810 745.987, 1027.645 742.275, 1027.979 742 C 1028.313 741.725, 1031.771 737.675, 1035.662 733 C 1046.773 719.651, 1064.691 701.871, 1076.824 692.157 L 1081 688.813 1081 674.849 C 1081 667.169, 1080.578 657.874, 1080.061 654.193 C 1079.545 650.512, 1078.619 643.450, 1078.004 638.500 C 1075.847 621.145, 1067.894 586.615, 1063.954 577.500 C 1063.479 576.400, 1061.917 571.900, 1060.483 567.500 C 1057.882 559.520, 1057.543 558.611, 1054.697 552 C 1053.869 550.075, 1051.991 545.575, 1050.526 542 C 1047.611 534.890, 1031.672 502.493, 1027.157 494.500 C 1019.055 480.159, 1017.236 477.389, 1015.434 476.644 C 1014.847 476.402, 1012.709 478.855, 1010.684 482.096 M 1275 681.594 C 1270.325 682.326, 1264.349 683.231, 1261.721 683.605 C 1259.092 683.979, 1256.703 684.671, 1256.412 685.143 C 1256.120 685.614, 1254.756 686, 1253.379 686 C 1252.002 686, 1248.766 686.649, 1246.188 687.442 C 1243.610 688.235, 1238.125 689.866, 1234 691.067 C 1217.993 695.725, 1186.956 708.923, 1173.500 716.794 C 1171.850 717.759, 1167.125 720.524, 1163 722.939 C 1158.875 725.353, 1155.275 727.638, 1155 728.015 C 1154.725 728.392, 1152.475 729.955, 1150 731.487 C 1129.963 743.895, 1099.553 771.770, 1084.213 791.789 C 1072.334 807.293, 1067.339 814.783, 1060.730 827 C 1059.094 830.025, 1057.166 833.449, 1056.446 834.610 C 1055.355 836.370, 1055.392 837.448, 1056.670 841.110 C 1057.512 843.524, 1058.880 847.975, 1059.708 851 C 1060.537 854.025, 1061.647 858.075, 1062.174 860 C 1063.169 863.631, 1064.352 868.312, 1065.903 874.750 C 1066.400 876.813, 1067.473 880.975, 1068.286 884 C 1070.210 891.151, 1072.517 902.592, 1073.932 912 C 1074.553 916.125, 1075.497 922.002, 1076.030 925.060 C 1076.564 928.118, 1077 932.433, 1077 934.647 C 1077 936.862, 1077.672 943.135, 1078.494 948.587 C 1079.316 954.039, 1079.991 960.638, 1079.994 963.250 C 1080 967.843, 1080.098 968, 1082.953 968 C 1084.577 968, 1086.940 967.582, 1088.203 967.071 C 1089.466 966.560, 1093.875 964.949, 1098 963.491 C 1106.933 960.333, 1107.892 959.949, 1115 956.681 C 1118.025 955.290, 1123.585 952.751, 1127.356 951.039 C 1131.127 949.327, 1136.648 946.368, 1139.625 944.463 C 1142.603 942.558, 1145.292 941, 1145.601 941 C 1146.674 941, 1165.541 928.055, 1172.500 922.543 C 1180.901 915.890, 1195.641 902.384, 1201.941 895.567 C 1204.448 892.854, 1207.633 889.479, 1209.017 888.067 C 1210.402 886.655, 1212.874 883.700, 1214.512 881.500 C 1216.149 879.300, 1217.716 877.275, 1217.994 877 C 1221.066 873.963, 1237 851.718, 1237 850.467 C 1237 850.067, 1238.471 847.660, 1240.269 845.119 C 1242.067 842.579, 1244.947 837.800, 1246.669 834.500 C 1248.391 831.200, 1251.466 825.350, 1253.502 821.500 C 1255.537 817.650, 1258.092 812.250, 1259.179 809.500 C 1260.267 806.750, 1261.742 803.150, 1262.458 801.500 C 1265.392 794.743, 1267.984 788.101, 1269.318 783.926 C 1279.375 752.441, 1279.298 752.716, 1282.036 738.500 C 1287.080 712.306, 1287.958 706.032, 1288.648 691.250 L 1289.172 680 1286.336 680.131 C 1284.776 680.204, 1279.675 680.862, 1275 681.594 M 740.474 682.208 C 740.162 683.022, 740.374 686.570, 740.945 690.094 C 741.517 693.617, 742.010 698.750, 742.042 701.500 C 742.106 707.166, 745.058 724.425, 748.884 741.500 C 749.377 743.700, 750.501 748.772, 751.381 752.770 C 752.261 756.769, 755.045 765.994, 757.567 773.270 C 760.089 780.547, 762.381 787.400, 762.660 788.500 C 763.195 790.612, 763.851 792.317, 766.312 798 C 773.829 815.360, 780.230 828.511, 785.698 837.833 C 788.064 841.866, 790 845.423, 790 845.738 C 790 846.053, 791.037 847.704, 792.305 849.406 C 793.573 851.108, 795.779 854.525, 797.208 857 C 798.636 859.475, 801.193 863.300, 802.890 865.500 C 804.588 867.700, 806.322 869.950, 806.744 870.500 C 825.436 894.847, 838.533 907.911, 863.501 927.114 C 869.702 931.883, 883.427 941, 884.406 941 C 884.711 941, 887.332 942.482, 890.231 944.292 C 903.756 952.743, 932.382 964.732, 947 968.070 C 948.925 968.509, 954.100 969.762, 958.500 970.855 C 973.284 974.525, 989.243 977, 998.119 977 L 1004.201 977 1003.620 964.250 C 1002.980 950.219, 1001.891 939.668, 1000.135 930.500 C 999.503 927.200, 998.509 921.800, 997.926 918.500 C 997.343 915.200, 996.465 910.700, 995.975 908.500 C 994.009 899.678, 989.796 882.351, 989.046 880 C 988.608 878.625, 986.110 870.750, 983.495 862.500 C 980.881 854.250, 978.060 845.925, 977.226 844 C 974.076 836.726, 966.964 822.758, 965.021 820.030 C 963.909 818.468, 963 816.698, 963 816.096 C 963 815.493, 962.550 815, 962 815 C 961.450 815, 961 814.540, 961 813.979 C 961 813.044, 956.248 805.172, 954.976 804 C 954.678 803.725, 952.664 801.025, 950.500 798 C 948.336 794.975, 946.316 792.275, 946.011 792 C 945.705 791.725, 943.244 788.800, 940.542 785.500 C 931.252 774.156, 906.349 750.393, 895.548 742.566 C 893.322 740.953, 890.997 739.132, 890.382 738.520 C 889.767 737.908, 886.167 735.413, 882.382 732.975 C 878.597 730.538, 875.264 728.221, 874.975 727.828 C 873.959 726.440, 851.396 713.693, 843 709.762 C 826.520 702.048, 823.823 700.867, 814.705 697.370 C 801.665 692.369, 798.574 691.358, 788.994 688.959 C 771.467 684.570, 759.948 682.410, 748.771 681.416 C 742.425 680.851, 740.940 680.993, 740.474 682.208 M 763.882 1116.321 C 754.760 1119.730, 747.496 1126.578, 743.136 1135.880 C 741.004 1140.427, 740.506 1142.946, 740.526 1149.073 C 740.548 1155.559, 741.015 1157.589, 743.785 1163.215 C 752.096 1180.097, 771.087 1187.146, 787.791 1179.551 C 795.762 1175.926, 803.003 1168.262, 806.028 1160.247 C 811.894 1144.706, 804.216 1126.268, 788.534 1118.237 C 782.430 1115.110, 769.757 1114.126, 763.882 1116.321 M 492 1271.448 L 492 1420 558.750 1419.996 C 613.564 1419.993, 627.169 1419.721, 634.835 1418.478 C 672.049 1412.443, 700.191 1387.514, 708.016 1353.653 C 710.949 1340.961, 710.498 1321.499, 707.016 1310.500 C 703.740 1300.151, 697.608 1289.013, 691.424 1282.179 C 686.334 1276.555, 675.680 1267.740, 672.771 1266.747 C 671.999 1266.483, 673.716 1264.124, 677.146 1260.737 C 691.691 1246.375, 699 1228.578, 699 1207.523 C 699 1167.665, 674.516 1136.919, 634 1125.895 C 625.582 1123.605, 624.859 1123.579, 558.750 1123.239 L 492 1122.896 492 1271.448 M 551 1210.562 L 551 1243.124 583.750 1242.812 C 615.467 1242.510, 616.658 1242.427, 621.500 1240.201 C 632.546 1235.121, 639.034 1225.396, 639.790 1212.785 C 640.808 1195.810, 632.476 1183.443, 617.373 1179.509 C 612.825 1178.324, 605.067 1178, 581.290 1178 L 551 1178 551 1210.562 M 956.500 1203.503 C 940.544 1206.518, 927.116 1213.225, 915.890 1223.786 L 908 1231.208 908 1219.604 L 908 1208 880.500 1208 L 853 1208 853 1356.500 L 853 1505 880.500 1505 L 908 1505 908 1450.320 L 908 1395.640 911.540 1399.775 C 916.965 1406.113, 929.890 1415.351, 938.136 1418.784 C 973.041 1433.315, 1015.440 1425.220, 1043.663 1398.635 C 1063.264 1380.173, 1074.665 1357.949, 1078.618 1330.500 C 1081.917 1307.600, 1078.007 1283.063, 1067.623 1261.500 C 1052.867 1230.857, 1026.883 1210.221, 994.681 1203.569 C 985.476 1201.668, 966.387 1201.635, 956.500 1203.503 M 1169.633 1203.553 C 1152.543 1206.948, 1138.038 1214.138, 1127.580 1224.398 C 1115.929 1235.827, 1110.341 1248.105, 1109.301 1264.561 C 1108.565 1276.205, 1110.204 1285.601, 1114.522 1294.500 C 1119.134 1304.007, 1124.471 1309.850, 1134.934 1316.848 C 1145.184 1323.704, 1155.864 1328.038, 1179.500 1334.934 C 1210.890 1344.092, 1217.977 1348.449, 1217.993 1358.602 C 1218.013 1370.705, 1202.963 1377.788, 1182.668 1375.226 C 1166.899 1373.236, 1156.056 1365.918, 1150.324 1353.397 L 1147.828 1347.943 1144.664 1349.862 C 1142.924 1350.917, 1134.525 1355.703, 1126 1360.498 C 1117.475 1365.293, 1108.145 1370.546, 1105.266 1372.172 L 1100.032 1375.129 1102.413 1379.829 C 1110.245 1395.284, 1126.609 1410.188, 1143.584 1417.327 C 1174.296 1430.243, 1217.372 1428.294, 1243.435 1412.811 C 1251.440 1408.055, 1262.312 1397.599, 1266.229 1390.890 C 1267.709 1388.355, 1270.143 1382.730, 1271.638 1378.390 C 1273.979 1371.596, 1274.357 1368.903, 1274.361 1359 C 1274.377 1323.164, 1256.457 1305.105, 1207.302 1291.417 C 1188.627 1286.217, 1182.178 1284.059, 1175.840 1280.891 C 1168.434 1277.189, 1166 1273.739, 1166 1266.941 C 1166 1262.116, 1166.324 1261.382, 1170.002 1257.883 C 1182.888 1245.625, 1209.363 1250.435, 1220.086 1266.983 C 1221.874 1269.742, 1223.680 1272, 1224.099 1272 C 1224.810 1272, 1268.958 1248.260, 1269.956 1247.341 C 1270.869 1246.500, 1266.450 1239.661, 1260.473 1232.663 C 1247.425 1217.388, 1230.016 1207.546, 1208.989 1203.557 C 1198.976 1201.658, 1179.179 1201.656, 1169.633 1203.553 M 747 1314 L 747 1420 774.500 1420 L 802 1420 802 1314 L 802 1208 774.500 1208 L 747 1208 747 1314 M 1279.482 1209.942 C 1279.821 1211.010, 1299.201 1256.946, 1322.549 1312.021 C 1345.897 1367.097, 1365 1412.719, 1365 1413.402 C 1365 1414.086, 1362.965 1418.827, 1360.477 1423.938 C 1351.226 1442.945, 1335.938 1453, 1316.290 1453 L 1310 1453 1310 1479 L 1310 1505 1318.869 1505 C 1336.200 1505, 1354.633 1500.323, 1369 1492.280 C 1379.530 1486.386, 1395.178 1471.233, 1402.854 1459.500 C 1413.075 1443.874, 1418.605 1430.071, 1458.538 1320.500 C 1480.387 1260.550, 1498.481 1210.713, 1498.748 1209.750 C 1499.202 1208.112, 1497.352 1208, 1469.840 1208 L 1440.447 1208 1417.030 1278.473 C 1404.151 1317.234, 1393.525 1348.846, 1393.417 1348.723 C 1393.309 1348.601, 1381.647 1318.575, 1367.501 1282 C 1353.355 1245.425, 1341.106 1213.813, 1340.282 1211.750 L 1338.783 1208 1308.824 1208 C 1279.619 1208, 1278.881 1208.049, 1279.482 1209.942 M 956.992 1254.933 C 944.439 1256.647, 933.865 1261.928, 924.762 1271.031 C 913.714 1282.079, 908.091 1296.372, 908.052 1313.500 C 907.975 1348.284, 932.046 1373, 966 1373 C 992.467 1373, 1013.793 1357.908, 1021.596 1333.657 C 1026.431 1318.632, 1024.976 1298.798, 1018.033 1285.080 C 1007.143 1263.563, 982.593 1251.438, 956.992 1254.933 M 551 1330.511 L 551 1365.110 588.750 1364.805 C 622.510 1364.532, 626.923 1364.310, 630.500 1362.704 C 641.285 1357.861, 647.864 1349.999, 650.664 1338.607 C 654.562 1322.747, 647.264 1306.324, 633 1298.856 C 628.530 1296.516, 628.238 1296.498, 589.750 1296.206 L 551 1295.912 551 1330.511 M 1182.763 1497.511 C 1174.865 1501.953, 1175.352 1513.566, 1183.600 1517.480 C 1194.392 1522.602, 1204.265 1508.923, 1196.250 1499.954 C 1192.910 1496.216, 1186.977 1495.141, 1182.763 1497.511 M 950 1547.500 L 950 1596 973.962 1596 C 1000.880 1596, 1004.854 1595.241, 1012.588 1588.621 C 1018.762 1583.336, 1021.499 1576.985, 1021.474 1568 C 1021.451 1559.433, 1019.387 1554.414, 1013.673 1549.024 L 1010.264 1545.809 1013.595 1540.858 C 1017.471 1535.099, 1018.398 1531.180, 1017.810 1523.043 C 1017.064 1512.742, 1008.719 1502.960, 998.177 1500.033 C 996.155 1499.471, 984.487 1499.009, 972.250 1499.006 L 950 1499 950 1547.500 M 970 1527.414 L 970 1538 980.250 1537.985 C 992.129 1537.968, 994.753 1537.010, 997.330 1531.748 C 998.847 1528.649, 998.969 1527.435, 998.042 1524.627 C 995.979 1518.376, 994.113 1517.539, 981.398 1517.164 L 970 1516.828 970 1527.414 M 1133.610 1525.083 C 1122.489 1526.883, 1114.292 1534.234, 1113.267 1543.325 C 1112.515 1549.994, 1113.701 1554.590, 1117.205 1558.580 C 1120.967 1562.865, 1125.149 1565.087, 1135.012 1568.040 C 1146.131 1571.369, 1148 1572.513, 1148 1575.990 C 1148 1579.645, 1145.705 1581, 1139.516 1581 C 1134.099 1581, 1129.974 1579.107, 1127.254 1575.375 L 1125.301 1572.694 1117.651 1576.917 C 1113.443 1579.240, 1110 1581.595, 1110 1582.150 C 1110 1582.706, 1112.588 1585.729, 1115.750 1588.870 C 1122.630 1595.701, 1128.640 1598.016, 1139.365 1597.967 C 1156.429 1597.889, 1167.200 1589.389, 1167.200 1576 C 1167.200 1564.862, 1161.684 1559.037, 1146.733 1554.390 C 1133.909 1550.404, 1133.029 1549.965, 1132.337 1547.205 C 1131.131 1542.401, 1138.583 1539.222, 1144.316 1542.094 C 1145.517 1542.696, 1147.446 1544.308, 1148.603 1545.676 L 1150.706 1548.164 1158.353 1543.887 C 1162.559 1541.535, 1166 1539.351, 1166 1539.033 C 1166 1536.875, 1158.962 1530.630, 1153.714 1528.132 C 1146.739 1524.812, 1140.824 1523.915, 1133.610 1525.083 M 1246.297 1525.039 C 1241.136 1526.071, 1238.322 1527.477, 1234.750 1530.809 L 1232 1533.374 1232 1529.687 L 1232 1526 1223 1526 L 1214 1526 1214 1561 L 1214 1596 1223 1596 L 1232 1596 1232.006 1575.750 C 1232.009 1564.612, 1232.456 1553.899, 1232.999 1551.943 C 1234.587 1546.227, 1238.995 1542.748, 1245.314 1542.224 C 1249.038 1541.915, 1251.633 1542.276, 1253.820 1543.407 C 1259.573 1546.382, 1260 1548.459, 1260 1573.450 L 1260 1596 1269.500 1596 L 1279 1596 1279 1572.182 C 1279 1545.894, 1278.313 1541.493, 1273.083 1534.273 C 1267.954 1527.193, 1256.046 1523.088, 1246.297 1525.039 M 1320.120 1525.128 C 1308.945 1526.983, 1298.733 1534.655, 1293.980 1544.766 C 1285.006 1563.858, 1292.758 1585.951, 1311.500 1594.699 C 1316.929 1597.234, 1318.547 1597.500, 1328.500 1597.500 C 1338.309 1597.500, 1340.112 1597.213, 1345.148 1594.852 C 1351.936 1591.669, 1359.633 1584.453, 1358.126 1582.683 C 1357.572 1582.032, 1354.192 1579.936, 1350.613 1578.025 L 1344.108 1574.550 1341.804 1576.709 C 1338.499 1579.804, 1334.675 1581.003, 1328.185 1580.978 C 1320.935 1580.950, 1314.689 1578.179, 1312.024 1573.808 C 1310.915 1571.989, 1310.006 1570.162, 1310.004 1569.750 C 1310.002 1569.338, 1321.641 1569, 1335.868 1569 L 1361.737 1569 1362.292 1564.856 C 1363.689 1554.445, 1358.287 1540.064, 1350.360 1533.086 C 1342.681 1526.327, 1331.161 1523.295, 1320.120 1525.128 M 1390.920 1525.011 C 1377.149 1527.340, 1368.167 1538.887, 1370.847 1550.816 C 1372.805 1559.528, 1377.375 1563.244, 1391.892 1567.927 C 1397.058 1569.593, 1402.346 1571.652, 1403.642 1572.501 C 1408.964 1575.988, 1404.859 1581, 1396.682 1581 C 1391.231 1581, 1386.802 1578.867, 1384.909 1575.331 C 1384.223 1574.049, 1383.254 1573, 1382.755 1573 C 1381.389 1573, 1367.999 1580.982, 1368.004 1581.794 C 1368.014 1583.774, 1372.425 1589.295, 1376.153 1591.996 C 1385.778 1598.968, 1402.519 1600.080, 1412.976 1594.442 C 1425.420 1587.732, 1428.822 1573.073, 1420.288 1562.931 C 1417.053 1559.086, 1412.698 1556.886, 1401.663 1553.521 C 1393.670 1551.083, 1389 1548.380, 1389 1546.191 C 1389 1545.746, 1389.639 1544.509, 1390.419 1543.441 C 1391.498 1541.965, 1393.044 1541.500, 1396.864 1541.500 C 1401.167 1541.500, 1402.365 1541.962, 1405.205 1544.714 L 1408.521 1547.928 1415.760 1543.930 C 1419.742 1541.731, 1423 1539.499, 1423 1538.969 C 1423 1538.439, 1421.385 1536.218, 1419.411 1534.033 C 1412.854 1526.775, 1401.585 1523.207, 1390.920 1525.011 M 1452 1525.001 C 1445.506 1526.166, 1442.703 1527.444, 1438.454 1531.174 C 1431.611 1537.183, 1429.305 1546.006, 1432.548 1553.768 C 1435.629 1561.143, 1439.969 1564.098, 1454.009 1568.379 C 1466.779 1572.274, 1469.295 1574.705, 1465 1579 C 1460.722 1583.278, 1447.266 1580.563, 1445.522 1575.069 C 1445.161 1573.931, 1444.424 1573, 1443.886 1573 C 1443.347 1573, 1439.559 1574.837, 1435.469 1577.081 C 1428.035 1581.161, 1428.033 1581.164, 1429.431 1583.831 C 1431.598 1587.968, 1437.004 1592.669, 1442.500 1595.199 C 1446.661 1597.114, 1449.179 1597.500, 1457.500 1597.500 C 1466.209 1597.500, 1468.224 1597.161, 1473.107 1594.871 C 1482.118 1590.645, 1486.985 1581.878, 1485.451 1572.637 C 1483.846 1562.976, 1478.635 1558.507, 1463.592 1553.892 C 1458.041 1552.190, 1452.713 1550.098, 1451.750 1549.243 C 1447.326 1545.317, 1452.044 1540.340, 1459.271 1541.309 C 1462.298 1541.715, 1464.284 1542.753, 1466.256 1544.961 L 1469.012 1548.045 1476.506 1543.932 C 1480.628 1541.670, 1484 1539.327, 1484 1538.726 C 1484 1538.124, 1481.810 1535.521, 1479.132 1532.940 C 1472.241 1526.298, 1461.799 1523.242, 1452 1525.001 M 1034.190 1552.750 L 1034.500 1579.500 1037.436 1584.801 C 1042.756 1594.403, 1051.107 1598.604, 1063.175 1597.750 C 1070.150 1597.257, 1077.851 1593.801, 1079.931 1590.231 C 1080.739 1588.843, 1080.945 1589.244, 1080.970 1592.250 L 1081 1596 1090 1596 L 1099 1596 1099 1561 L 1099 1526 1090.109 1526 L 1081.217 1526 1080.855 1548.250 C 1080.447 1573.254, 1079.817 1575.737, 1072.966 1579.305 C 1068.598 1581.580, 1060.946 1581.091, 1057.176 1578.296 C 1052.732 1575.002, 1052.118 1571.339, 1052.056 1547.750 L 1052 1526 1042.940 1526 L 1033.881 1526 1034.190 1552.750 M 1179 1561 L 1179 1596 1188 1596 L 1197 1596 1197 1561 L 1197 1526 1188 1526 L 1179 1526 1179 1561 M 1320.231 1542.252 C 1316.682 1543.390, 1310 1550.085, 1310 1552.503 C 1310 1553.774, 1312.567 1554, 1326.969 1554 C 1342.703 1554, 1343.891 1553.873, 1343.306 1552.250 C 1340.137 1543.467, 1330.060 1539.101, 1320.231 1542.252 M 970 1567.079 L 970 1578.159 983.085 1577.829 L 996.169 1577.500 999.085 1574.234 C 1003.227 1569.594, 1003.224 1563.070, 999.077 1558.923 L 996.154 1556 983.077 1556 L 970 1556 970 1567.079" stroke="none" fill="#98a5b4" fill-rule="evenodd"/>
</svg>