<svg xmlns="http://www.w3.org/2000/svg" width="2000" height="2000" viewBox="0 0 2000 2000" version="1.1">
	<path d="M 1010.500 362.909 C 1004.735 365.598, 998.391 372.482, 978.164 398 C 971.549 406.345, 949.734 439.048, 944.567 448.365 C 942.695 451.739, 939.755 456.975, 938.033 460 C 927.256 478.930, 909.060 518.777, 901.501 540 C 894.700 559.095, 884.534 596.028, 882.095 610.500 C 881.539 613.800, 880.571 619.200, 879.945 622.500 C 879.318 625.800, 878.512 631.645, 878.153 635.490 C 877.632 641.068, 877.143 642.547, 875.731 642.817 C 874.758 643.002, 870.033 641.266, 865.231 638.960 C 852.298 632.747, 822.194 621.247, 808.500 617.288 C 770.048 606.171, 751.589 603.608, 710.460 603.674 C 683.468 603.717, 681.095 603.864, 676.811 605.759 C 669.553 608.970, 667.421 613.636, 666.421 628.500 C 665.376 644.040, 665.286 679.115, 666.264 690 C 670.056 732.220, 677.082 766.689, 689.373 803.376 C 715.816 882.309, 762.884 946.619, 828.508 993.478 C 858.406 1014.827, 897.403 1033.006, 932.500 1041.955 C 966.673 1050.669, 980.820 1052.477, 1014.500 1052.434 C 1045.333 1052.395, 1059.702 1051.033, 1080.500 1046.175 C 1082.700 1045.661, 1088.029 1044.485, 1092.341 1043.561 C 1105.745 1040.690, 1131.177 1031.733, 1147.500 1024.135 C 1187.129 1005.689, 1217.278 984.669, 1248.089 954.005 C 1269.674 932.523, 1279.166 920.989, 1296.535 895.137 C 1310.595 874.211, 1322.504 851.704, 1331.530 829 C 1333.607 823.775, 1335.632 819.050, 1336.031 818.500 C 1337.397 816.614, 1348.100 782.739, 1351.001 771.119 C 1356.569 748.820, 1359.355 733.825, 1361.430 715 C 1364.400 688.056, 1365.296 670.792, 1364.518 655.500 C 1364.099 647.250, 1363.614 635.325, 1363.441 629 C 1363.035 614.209, 1362.553 611.889, 1359.238 608.797 C 1353.712 603.644, 1353.634 603.634, 1319.500 603.582 C 1293.788 603.543, 1285.240 603.880, 1276 605.294 C 1236.278 611.375, 1199.674 622.305, 1166.629 637.952 C 1160.650 640.784, 1155.039 642.961, 1154.160 642.792 C 1152.911 642.552, 1152.303 640.189, 1151.377 631.992 C 1148.080 602.786, 1136.954 559.383, 1125.233 530 C 1118.845 513.988, 1106.580 486.215, 1103.152 480 C 1102.696 479.175, 1099.697 473.550, 1096.485 467.500 C 1082.717 441.561, 1066.157 415.404, 1051.026 395.696 C 1046.887 390.305, 1041.585 383.389, 1039.244 380.328 C 1030.637 369.074, 1027.091 365.400, 1022.735 363.225 C 1017.352 360.536, 1015.682 360.493, 1010.500 362.909 M 1009.268 482.750 C 987.439 517.106, 967.617 563.991, 958.457 602.931 C 957.608 606.544, 956.487 611.300, 955.967 613.500 C 952.067 630.006, 948.003 662.504, 948.001 677.195 L 948 688.890 953.750 693.539 C 968.237 705.251, 994.111 732.694, 1006.263 749.237 C 1010.611 755.156, 1014.584 760, 1015.090 760 C 1015.596 760, 1017.921 757.473, 1020.255 754.383 C 1036.194 733.294, 1054.730 712.798, 1068.327 701.230 C 1073.324 696.979, 1078.737 692.229, 1080.357 690.676 L 1083.301 687.853 1082.635 673.676 C 1080.946 637.740, 1074.414 603.590, 1062.708 569.500 C 1056.396 551.119, 1053.582 544.475, 1042.378 521.500 C 1028.855 493.769, 1018.009 475, 1015.507 475 C 1014.784 475, 1011.977 478.488, 1009.268 482.750 M 739.621 680.545 C 738.965 682.256, 740.320 700.525, 741.928 711.638 C 747.455 749.837, 758.449 785.660, 775.030 819.500 C 793.294 856.775, 811.292 881.899, 837.690 906.971 C 860.087 928.243, 883.477 943.719, 916.039 958.811 C 923.389 962.218, 944.665 968.997, 959 972.500 C 979.913 977.611, 1004.417 979.684, 1005.659 976.447 C 1005.986 975.593, 1005.722 968.506, 1005.071 960.697 C 1002.101 925.061, 994.970 891.934, 981.778 852.500 C 976.503 836.731, 963.172 812.740, 949.946 795.214 C 906.929 738.212, 834.944 694.357, 765 682.542 C 759.775 681.659, 753.062 680.501, 750.083 679.969 C 742.578 678.627, 740.309 678.752, 739.621 680.545 M 1274.500 680.177 C 1220.844 690.319, 1179.302 708.039, 1138 738.404 C 1105.866 762.028, 1075.631 796.278, 1058.605 828.343 L 1053.909 837.187 1055.960 843.114 C 1057.910 848.747, 1066.459 880.559, 1068.023 888 C 1068.428 889.925, 1069.472 894.875, 1070.344 899 C 1073.224 912.636, 1076 933.889, 1078.549 961.823 C 1079.002 966.786, 1079.680 969.324, 1080.653 969.697 C 1082.469 970.394, 1101.822 963.999, 1113 959.009 C 1131.103 950.927, 1133.837 949.551, 1144.500 943.161 C 1165.058 930.842, 1179.032 919.916, 1196.916 902.179 C 1215.476 883.771, 1226.881 869.330, 1241.892 845.225 C 1246.621 837.631, 1261 810.077, 1261 808.608 C 1261 808.262, 1261.952 805.846, 1263.116 803.239 C 1267.270 793.938, 1267.872 792.307, 1272.980 776.500 C 1279.070 757.656, 1280.664 752.381, 1281.290 749 C 1281.545 747.625, 1282.444 743.125, 1283.290 739 C 1284.135 734.875, 1285.576 726.325, 1286.491 720 C 1287.407 713.675, 1288.576 706.250, 1289.088 703.500 C 1289.600 700.750, 1290.128 694.225, 1290.260 689 L 1290.500 679.500 1285 679.366 C 1281.975 679.293, 1277.250 679.658, 1274.500 680.177 M 766.438 1115.875 C 761.054 1117.274, 752.887 1122.314, 749.396 1126.393 C 743.122 1133.722, 741.500 1138.366, 741.500 1149 C 741.500 1157.148, 741.854 1159.193, 743.987 1163.369 C 747.406 1170.064, 753.370 1175.763, 760.500 1179.149 C 765.373 1181.463, 767.855 1181.999, 773.712 1181.999 C 787.655 1182.001, 798.149 1175.538, 804.213 1163.216 C 807.071 1157.409, 807.493 1155.555, 807.449 1149.018 C 807.409 1142.973, 806.844 1140.279, 804.570 1135.266 C 801.294 1128.046, 794.230 1120.874, 787.435 1117.868 C 782.506 1115.688, 771.266 1114.621, 766.438 1115.875 M 492 1271.508 L 492 1420.133 561.750 1419.736 C 627.760 1419.360, 631.988 1419.228, 640.597 1417.279 C 673.159 1409.905, 698.497 1386.749, 707.177 1356.432 C 709.054 1349.877, 709.448 1346.070, 709.444 1334.500 C 709.440 1319.787, 708.345 1313.608, 703.701 1302.113 C 698.951 1290.351, 686.241 1275.156, 676.265 1269.309 C 673.919 1267.935, 672 1266.551, 672 1266.235 C 672 1265.919, 674.847 1262.699, 678.326 1259.080 C 693.070 1243.743, 700.118 1224.037, 698.611 1202.362 C 696.839 1176.881, 685.864 1156.047, 666.744 1141.871 C 658.550 1135.795, 649.359 1130.947, 641.268 1128.434 C 625.784 1123.624, 627.115 1123.706, 557.750 1123.283 L 492 1122.883 492 1271.508 M 550 1210.500 L 550 1243.099 583.750 1242.799 C 617.298 1242.502, 617.530 1242.485, 622.458 1240.042 C 635.433 1233.610, 642.307 1219.804, 639.918 1204.973 C 638.055 1193.403, 632.071 1185.242, 622.051 1180.606 C 617.755 1178.618, 615.610 1178.483, 583.750 1178.201 L 550 1177.901 550 1210.500 M 957.894 1203.486 C 940.187 1206.856, 923.674 1215.307, 913.239 1226.340 L 908 1231.880 908 1219.940 L 908 1208 880.500 1208 L 853 1208 853 1356.516 L 853 1505.032 880.250 1504.766 L 907.500 1504.500 908 1450.223 L 908.500 1395.946 912.702 1400.412 C 922.696 1411.033, 935.385 1418.642, 948.864 1422.098 C 980.072 1430.097, 1010.432 1424.145, 1035.756 1405.063 C 1060.269 1386.592, 1076.087 1357.003, 1078.926 1324.311 C 1083.867 1267.401, 1049.828 1217.005, 998 1204.501 C 988.615 1202.237, 967.294 1201.697, 957.894 1203.486 M 1173 1203.104 C 1164.509 1204.406, 1149.927 1209.312, 1143 1213.197 C 1120.890 1225.598, 1109.757 1244.031, 1109.599 1268.500 C 1109.493 1284.865, 1113.668 1296.501, 1123.346 1306.815 C 1134.383 1318.579, 1148.323 1325.505, 1179.024 1334.481 C 1205.621 1342.257, 1213.351 1345.910, 1216.631 1352.253 C 1218.812 1356.471, 1218.555 1362.366, 1216.010 1366.483 C 1209.735 1376.638, 1183.519 1379.212, 1167.294 1371.268 C 1160.901 1368.137, 1152.640 1359.700, 1149.897 1353.501 C 1148.802 1351.025, 1147.678 1349, 1147.398 1349 C 1145.954 1349, 1101.699 1374.621, 1101.287 1375.696 C 1100.650 1377.355, 1105.876 1385.823, 1112.745 1394.264 C 1123.161 1407.063, 1139.329 1416.916, 1157.464 1421.516 C 1204.950 1433.562, 1252.327 1418.556, 1268.020 1386.500 C 1272.413 1377.526, 1274.095 1369.781, 1274.102 1358.500 C 1274.117 1334.810, 1264.675 1317.894, 1245 1306.360 C 1235.111 1300.563, 1225.682 1297.006, 1202.605 1290.368 C 1192.097 1287.345, 1180.900 1283.709, 1177.723 1282.287 C 1171.558 1279.529, 1166.438 1274.593, 1165.383 1270.391 C 1164.453 1266.683, 1166.584 1260.570, 1169.999 1257.155 C 1177.984 1249.170, 1197.759 1248.857, 1210.006 1256.522 C 1213.887 1258.952, 1220.167 1265.540, 1222.053 1269.162 C 1222.723 1270.448, 1223.401 1271.653, 1223.559 1271.840 C 1223.824 1272.153, 1262.551 1251.558, 1267.787 1248.320 L 1270.075 1246.905 1267.787 1242.782 C 1264.316 1236.525, 1250.649 1222.585, 1243 1217.500 C 1228.286 1207.718, 1212.699 1203.085, 1192.500 1202.490 C 1185.350 1202.279, 1176.575 1202.555, 1173 1203.104 M 747 1314.016 L 747 1420.032 774.250 1419.766 L 801.500 1419.500 801.755 1313.750 L 802.009 1208 774.505 1208 L 747 1208 747 1314.016 M 1279.282 1209.250 C 1279.555 1209.938, 1298.796 1255.275, 1322.041 1310 C 1345.285 1364.725, 1364.500 1410.660, 1364.740 1412.077 C 1365.310 1415.442, 1360.335 1426.376, 1354.535 1434.503 C 1346.591 1445.636, 1334.364 1451.934, 1317.733 1453.461 L 1309.966 1454.174 1310.233 1479.337 L 1310.500 1504.500 1322.500 1504.296 C 1365.967 1503.555, 1398.194 1478.232, 1418.323 1429 C 1420.235 1424.325, 1438.911 1373.475, 1459.827 1316 C 1480.742 1258.525, 1498.161 1210.713, 1498.534 1209.750 C 1499.172 1208.107, 1497.417 1208.002, 1469.857 1208.038 L 1440.500 1208.076 1416.999 1279.082 L 1393.497 1350.088 1366.031 1279.044 L 1338.565 1208 1308.675 1208 C 1285.166 1208, 1278.892 1208.267, 1279.282 1209.250 M 952 1255.484 C 935.384 1259.227, 921.219 1270.375, 914.083 1285.325 C 909.261 1295.427, 907.996 1301.362, 908.015 1313.799 C 908.043 1332.196, 912.965 1344.955, 924.497 1356.526 C 936.208 1368.277, 948.001 1373.011, 965.497 1372.985 C 970.999 1372.977, 978.321 1372.305, 981.769 1371.492 C 1006.310 1365.706, 1022.928 1344.991, 1024.706 1317.965 C 1026.599 1289.213, 1010.116 1264.344, 984 1256.549 C 976.169 1254.212, 960.034 1253.675, 952 1255.484 M 550 1330.044 L 550 1365.088 588.750 1364.794 L 627.500 1364.500 633.587 1361.318 C 640.725 1357.586, 645.295 1352.730, 648.899 1345.046 C 651.135 1340.278, 651.497 1338.167, 651.482 1330 C 651.466 1321.882, 651.087 1319.700, 648.873 1315 C 644.138 1304.952, 635.224 1298.012, 624.566 1296.077 C 621.078 1295.444, 604.493 1295, 584.316 1295 L 550 1295 550 1330.044 M 1183.152 1497.695 C 1176.233 1501.104, 1175.160 1510.432, 1181.111 1515.440 C 1186.209 1519.729, 1194.060 1518.554, 1197.335 1513.010 C 1200.684 1507.341, 1198.354 1499.882, 1192.466 1497.421 C 1188.191 1495.635, 1187.279 1495.662, 1183.152 1497.695 M 950 1547.510 L 950 1596.154 974.750 1595.827 C 1002.312 1595.463, 1004.331 1595.039, 1012.459 1587.902 C 1023.851 1577.899, 1023.819 1557.065, 1012.397 1548.354 L 1009.001 1545.763 1011.974 1542.377 C 1013.609 1540.515, 1015.678 1536.475, 1016.572 1533.399 C 1020.280 1520.645, 1014.070 1507.443, 1001.742 1501.870 C 996.792 1499.632, 995.206 1499.482, 973.250 1499.184 L 950 1498.867 950 1547.510 M 969 1527.500 L 969 1538 980.277 1538 C 992.935 1538, 995.209 1537.137, 997.593 1531.431 C 999.450 1526.987, 998.403 1522.517, 994.794 1519.480 C 992.033 1517.157, 991.125 1517, 980.423 1517 L 969 1517 969 1527.500 M 1129.994 1525.934 C 1116.421 1530.063, 1109.629 1542.980, 1114.913 1554.616 C 1117.531 1560.381, 1122.388 1563.680, 1133.717 1567.390 C 1145.506 1571.251, 1147.666 1572.371, 1148.522 1575.071 C 1149.406 1577.856, 1146.757 1580.635, 1142.449 1581.444 C 1137.179 1582.432, 1131.513 1580.445, 1128.223 1576.454 L 1125.340 1572.957 1117.746 1577.187 C 1109.221 1581.937, 1109.223 1581.921, 1115.591 1588.969 C 1121.143 1595.114, 1127.725 1597.500, 1139 1597.454 C 1146.728 1597.422, 1149.481 1596.980, 1153.757 1595.081 C 1163.243 1590.870, 1167.725 1583.316, 1166.690 1573.286 C 1165.691 1563.606, 1160.443 1558.797, 1146 1554.326 C 1133.673 1550.509, 1132 1549.515, 1132 1546.010 C 1132 1540.152, 1141.542 1538.903, 1147.347 1544 C 1149.226 1545.650, 1151.155 1546.981, 1151.632 1546.958 C 1152.109 1546.934, 1155.644 1545.150, 1159.486 1542.993 L 1166.472 1539.070 1160.824 1533.600 C 1156.676 1529.582, 1153.778 1527.715, 1149.907 1526.565 C 1144.424 1524.937, 1134.325 1524.617, 1129.994 1525.934 M 1243.764 1525.996 C 1239.990 1527.132, 1234.213 1530.811, 1233.037 1532.828 C 1232.276 1534.131, 1232.054 1533.672, 1232.030 1530.750 L 1232 1527 1223 1527 L 1214 1527 1214 1561.500 L 1214 1596 1223 1596 L 1232 1596 1232.022 1574.750 C 1232.047 1550.602, 1232.942 1546.632, 1239.082 1543.458 C 1243.810 1541.012, 1253.128 1541.832, 1256.488 1544.989 C 1260.359 1548.625, 1260.988 1552.852, 1260.994 1575.250 L 1261 1596 1270.100 1596 L 1279.200 1596 1278.811 1570.750 C 1278.444 1546.858, 1278.297 1545.216, 1276.072 1540.212 C 1273.307 1533.992, 1266.803 1527.857, 1261.193 1526.176 C 1256.765 1524.849, 1247.877 1524.757, 1243.764 1525.996 M 1314.419 1526.822 C 1304.297 1530.321, 1295.845 1538.930, 1292.426 1549.222 C 1289.840 1557.007, 1290.775 1570.854, 1294.369 1578 C 1297.970 1585.160, 1302.872 1590.123, 1309.596 1593.415 C 1320.182 1598.599, 1332.153 1599.160, 1343.288 1594.993 C 1348.816 1592.925, 1358.008 1585.843, 1357.991 1583.665 C 1357.986 1583.024, 1354.995 1580.802, 1351.345 1578.727 C 1345.553 1575.433, 1344.505 1575.132, 1343.104 1576.356 C 1335.023 1583.421, 1321.015 1583.243, 1313.750 1575.983 C 1306.807 1569.044, 1306.736 1569.068, 1335.750 1568.767 L 1361.500 1568.500 1361.800 1562.177 C 1362.786 1541.351, 1347.284 1524.940, 1326.712 1525.033 C 1322.512 1525.052, 1317.378 1525.799, 1314.419 1526.822 M 1385.591 1526.573 C 1376 1530.087, 1371 1537.005, 1371 1546.760 C 1371 1551.390, 1371.552 1553.451, 1373.664 1556.708 C 1376.955 1561.783, 1381.322 1564.294, 1393.454 1568.087 C 1403.735 1571.300, 1406 1572.841, 1406 1576.622 C 1406 1582.428, 1392.329 1583.483, 1386.939 1578.093 C 1385.503 1576.656, 1384.120 1574.861, 1383.868 1574.103 C 1383.524 1573.071, 1381.473 1573.787, 1375.704 1576.953 C 1371.467 1579.278, 1368 1581.501, 1368 1581.893 C 1368 1583.281, 1374.042 1590.797, 1376.398 1592.341 C 1380.624 1595.110, 1390.781 1598, 1396.287 1598 C 1402.430 1598, 1411.020 1595.714, 1415.759 1592.818 C 1419.190 1590.721, 1423.307 1584.461, 1424.429 1579.637 C 1425.661 1574.340, 1423.195 1566.195, 1419.130 1562.130 C 1415.420 1558.420, 1412.410 1557.021, 1399.500 1553.006 C 1389.179 1549.796, 1386.220 1546.061, 1391.223 1542.557 C 1395.529 1539.540, 1404.570 1541.460, 1406.943 1545.894 C 1407.888 1547.659, 1408.383 1547.539, 1415.473 1543.824 C 1419.613 1541.654, 1423 1539.465, 1423 1538.957 C 1423 1536.479, 1414.121 1529.132, 1408.712 1527.136 C 1401.923 1524.630, 1391.581 1524.379, 1385.591 1526.573 M 1446.144 1526.698 C 1440.047 1528.853, 1433.480 1535.436, 1432.035 1540.842 C 1430.708 1545.802, 1431.886 1553.370, 1434.637 1557.569 C 1437.014 1561.197, 1443.737 1564.810, 1454.113 1568.035 C 1466.341 1571.836, 1469.750 1575.264, 1465.250 1579.234 C 1460.494 1583.429, 1450.840 1582.056, 1446.291 1576.537 L 1443.477 1573.123 1436.239 1577.138 C 1432.257 1579.346, 1429 1581.533, 1429 1581.999 C 1429 1584.587, 1436.191 1591.789, 1441.472 1594.490 C 1446.821 1597.225, 1448.232 1597.498, 1456.929 1597.476 C 1464.727 1597.456, 1467.426 1597.029, 1471.500 1595.172 C 1480.926 1590.875, 1485 1585.119, 1485 1576.097 C 1485 1564.440, 1479.493 1558.902, 1462.988 1553.960 C 1452.508 1550.822, 1450 1549.406, 1450 1546.629 C 1450 1539.486, 1462.298 1539.017, 1467.705 1545.954 C 1468.766 1547.316, 1469.805 1547.034, 1476.416 1543.588 L 1483.922 1539.677 1482.211 1536.770 C 1476.514 1527.093, 1458.924 1522.180, 1446.144 1526.698 M 1034.188 1552.750 C 1034.561 1581.215, 1034.943 1583.205, 1041.301 1589.838 C 1050.532 1599.468, 1067.198 1600.658, 1076.872 1592.378 L 1081 1588.844 1081 1592.422 L 1081 1596 1090 1596 L 1099 1596 1099 1561.500 L 1099 1527 1090 1527 L 1081 1527 1080.978 1547.750 C 1080.953 1571.248, 1080.053 1575.168, 1073.808 1578.976 C 1069.175 1581.800, 1061.198 1581.730, 1057.514 1578.832 C 1052.529 1574.911, 1052 1572.006, 1052 1548.532 L 1052 1527 1042.925 1527 L 1033.851 1527 1034.188 1552.750 M 1179 1561.500 L 1179 1596 1188 1596 L 1197 1596 1197 1561.500 L 1197 1527 1188 1527 L 1179 1527 1179 1561.500 M 1318.401 1542.850 C 1314.265 1544.784, 1310.849 1548.611, 1309.564 1552.750 L 1308.865 1555 1326.433 1555 C 1340.527 1555, 1344 1554.733, 1344 1553.648 C 1344 1551.645, 1339.894 1545.976, 1336.763 1543.657 C 1332.835 1540.747, 1323.752 1540.347, 1318.401 1542.850 M 969 1566.577 L 969 1578.155 982.585 1577.827 L 996.169 1577.500 999.085 1574.234 C 1001.338 1571.710, 1002 1570.001, 1002 1566.707 C 1002 1557.630, 997.178 1555, 980.532 1555 L 969 1555 969 1566.577" stroke="none" fill="#98a5b4" fill-rule="evenodd"/>
</svg>