<svg xmlns="http://www.w3.org/2000/svg" width="2000" height="2000" viewBox="0 0 2000 2000" version="1.1">
	<rect x="0" y="0" width="100%" height="100%" fill="#2f343a" />
	<path d="M 435.026 797.200 C 430.847 800.021, 421.491 810.998, 412.055 824.152 C 395.021 847.898, 378.278 880.085, 369.217 906.500 C 362.802 925.202, 356 953.515, 356 961.514 C 356 963.367, 355.594 965.133, 355.099 965.439 C 354.603 965.745, 351.538 964.677, 348.287 963.064 C 341.348 959.621, 324.442 953.198, 314.500 950.227 C 293.525 943.960, 266.880 940.412, 249 941.506 C 235.975 942.302, 232.630 943.306, 229.813 947.263 C 227.729 950.190, 227.566 951.653, 227.182 970.941 C 226.844 987.930, 227.151 994.452, 228.950 1008.500 C 237.394 1074.441, 265.634 1129.125, 311 1167.386 C 320.131 1175.088, 320.389 1175.279, 332.606 1183.456 C 362.318 1203.342, 402.393 1215.288, 439.500 1215.321 C 470.698 1215.349, 500.791 1207.926, 528.991 1193.247 C 552.145 1181.194, 562.552 1173.498, 582.025 1154.025 C 601.197 1134.853, 613.023 1118.576, 624.179 1096 C 630.896 1082.406, 638 1066.118, 638 1064.309 C 638 1063.773, 639.330 1059.195, 640.956 1054.136 C 648.095 1031.924, 652.017 1003.790, 651.917 975.500 C 651.841 953.809, 651.098 947.653, 648.206 944.762 C 646.344 942.899, 644.295 942.499, 632.409 941.673 C 602.162 939.571, 564.568 947.298, 531.847 962.342 C 527.638 964.278, 523.926 965.592, 523.597 965.264 C 523.269 964.935, 523 963.053, 523 961.081 C 523 953.235, 517.022 927.145, 511.181 909.500 C 500.294 876.611, 480.209 839.633, 457.274 810.252 C 445.366 794.997, 441.580 792.776, 435.026 797.200 M 1071.094 841.101 C 1065.375 842.843, 1057.261 848.672, 1053.535 853.715 C 1048.745 860.198, 1046.634 867.638, 1047.228 875.941 C 1048.085 887.921, 1054.857 898.067, 1065.644 903.533 C 1070.771 906.130, 1072.559 906.500, 1080 906.500 C 1087.067 906.500, 1089.435 906.061, 1094.046 903.899 C 1101.685 900.316, 1106.089 896.168, 1110.092 888.785 C 1113.213 883.029, 1113.499 881.784, 1113.490 874 C 1113.483 867.308, 1113 864.454, 1111.221 860.580 C 1107.765 853.053, 1102.816 847.714, 1095.859 844.006 C 1090.581 841.192, 1088.322 840.596, 1082.025 840.353 C 1077.886 840.194, 1072.967 840.530, 1071.094 841.101 M 800.247 994.750 L 800.500 1141.500 866.500 1141.793 C 911.712 1141.993, 935.012 1141.729, 940.476 1140.955 C 971.748 1136.523, 996.803 1118.706, 1009.441 1091.911 C 1014.389 1081.422, 1016.090 1074.180, 1016.703 1061 C 1018.037 1032.334, 1006.445 1007.841, 984.771 993.528 L 979.041 989.744 985.771 982.519 C 993.966 973.720, 999.183 965.098, 1002.725 954.500 C 1005.140 947.273, 1005.402 945.051, 1005.429 931.500 C 1005.455 918.894, 1005.103 915.257, 1003.222 908.709 C 994.847 879.554, 972.669 858.830, 941.391 850.931 L 929.787 848 864.890 848 L 799.993 848 800.247 994.750 M 435.563 871.738 C 429.924 880.425, 417.761 906.063, 413.139 919 C 406.945 936.342, 403.292 952.487, 400.882 973.185 L 398.706 991.870 412.630 1005.685 C 420.289 1013.283, 429.376 1023.212, 432.823 1027.750 C 436.270 1032.287, 439.407 1035.990, 439.795 1035.979 C 440.183 1035.967, 441.846 1034.054, 443.491 1031.729 C 449.891 1022.681, 462.257 1009.301, 474.330 998.362 C 480.927 992.384, 480.720 993.699, 478.512 971.762 C 476.532 952.091, 473.145 937.590, 465.839 917.500 C 459.972 901.368, 442.199 866, 439.959 866 C 439.589 866, 437.611 868.582, 435.563 871.738 M 859 934.451 L 859 966 891.750 965.978 C 922.198 965.958, 924.806 965.817, 928.852 963.981 C 936.273 960.614, 940.696 956.362, 944.215 949.214 C 947.128 943.298, 947.493 941.632, 947.441 934.521 C 947.345 921.606, 942.074 912.127, 931.833 906.454 L 926.500 903.500 892.750 903.201 L 859 902.901 859 934.451 M 1262.047 927.080 C 1246.678 929.791, 1229.745 938.406, 1218.870 949.048 L 1213 954.792 1213 943.396 L 1213 932 1185.500 932 L 1158 932 1158 1079 L 1158 1226 1185.500 1226 L 1213 1226 1213 1172.373 L 1213 1118.746 1220.311 1125.623 C 1237.035 1141.355, 1253.378 1147.250, 1280.500 1147.336 C 1293.597 1147.377, 1296.714 1147.055, 1305.070 1144.795 C 1322.730 1140.019, 1338.020 1130.882, 1351.081 1117.300 C 1365.472 1102.336, 1374.239 1086.722, 1379.721 1066.294 C 1382.122 1057.346, 1382.349 1054.858, 1382.352 1037.500 C 1382.354 1019.462, 1382.199 1017.918, 1379.289 1007 C 1377.603 1000.675, 1374.589 991.937, 1372.592 987.582 C 1359.305 958.610, 1334.398 936.860, 1305.500 928.996 C 1296.346 926.504, 1271.515 925.410, 1262.047 927.080 M 1476 926.696 C 1474.625 926.928, 1469.290 928.219, 1464.144 929.564 C 1437.686 936.478, 1418.475 955.104, 1413.479 978.685 C 1408.260 1003.313, 1416.794 1025.958, 1436.280 1039.190 C 1447.189 1046.598, 1452.559 1048.665, 1495.500 1061.989 C 1513.429 1067.552, 1520 1072.763, 1520 1081.416 C 1520 1087.299, 1516.414 1092.118, 1509.817 1095.098 C 1505.076 1097.240, 1503.086 1097.500, 1491.447 1097.500 C 1478.418 1097.500, 1478.381 1097.493, 1470.947 1093.814 C 1462.176 1089.473, 1458.194 1085.643, 1453.693 1077.218 L 1450.389 1071.034 1427.195 1084.105 C 1414.438 1091.293, 1404 1097.709, 1404 1098.360 C 1404 1101.613, 1412.417 1113.417, 1420.500 1121.500 C 1438.990 1139.990, 1459.996 1147.596, 1492 1147.390 C 1509.896 1147.275, 1521.870 1145.193, 1534.230 1140.048 C 1560.454 1129.131, 1574.526 1110.456, 1575.709 1085 C 1577.027 1056.634, 1565.175 1037.331, 1538.943 1025.121 C 1530.667 1021.270, 1520.213 1017.787, 1494.808 1010.418 C 1474.150 1004.427, 1467.405 999.259, 1468.335 990.136 C 1468.916 984.438, 1471.473 981.071, 1477.552 978 C 1481.847 975.830, 1483.819 975.500, 1492.500 975.500 C 1501.501 975.500, 1503.049 975.782, 1508 978.319 C 1514.422 981.611, 1519.057 985.813, 1522.812 991.748 C 1524.290 994.084, 1525.751 995.884, 1526.057 995.748 C 1530.305 993.857, 1571.998 970.624, 1571.992 970.150 C 1571.987 969.793, 1569.074 965.573, 1565.518 960.774 C 1552.486 943.182, 1531.348 930.567, 1509 927.041 C 1502.733 926.052, 1481.136 925.826, 1476 926.696 M 1053 1037 L 1053 1142 1080.500 1142 L 1108 1142 1108 1037 L 1108 932 1080.500 932 L 1053 932 1053 1037 M 1580.921 934.250 C 1581.400 935.487, 1600.742 981.163, 1623.903 1035.752 L 1666.014 1135.004 1663.499 1141.195 C 1657.970 1154.803, 1648.629 1165.622, 1638.570 1170.072 C 1632.777 1172.634, 1621.971 1174.960, 1615.750 1174.983 L 1611 1175 1611 1200.500 L 1611 1226 1619.428 1226 C 1663.351 1226, 1695.720 1202.962, 1715.973 1157.288 C 1718.604 1151.355, 1737.287 1101.050, 1757.491 1045.500 C 1777.695 989.950, 1795.280 941.688, 1796.568 938.250 L 1798.910 932 1769.659 932 L 1740.407 932 1717.593 1000.750 C 1705.045 1038.563, 1694.482 1069.824, 1694.120 1070.219 C 1693.758 1070.615, 1685.421 1050.140, 1675.594 1024.719 C 1665.767 999.299, 1653.677 968.038, 1648.727 955.250 L 1639.728 932 1609.889 932 L 1580.050 932 1580.921 934.250 M 1257 979.560 C 1248.790 981.330, 1237.908 986.716, 1231.713 992.077 C 1212.623 1008.595, 1207.350 1040.906, 1219.648 1066 C 1235.758 1098.874, 1285.035 1106.265, 1311.390 1079.760 C 1322.800 1068.284, 1328.012 1055.267, 1328.109 1038 C 1328.210 1019.860, 1323.077 1006.167, 1311.903 994.774 C 1298.410 981.014, 1277.340 975.176, 1257 979.560 M 273.468 990.051 C 272.204 992.097, 274.487 1008.425, 278.695 1027.428 C 286.678 1063.476, 307.474 1102.156, 330.638 1124.038 C 356.179 1148.166, 385.499 1162.550, 419.128 1167.451 C 434.151 1169.640, 433 1170.027, 433 1162.794 C 433 1144.192, 422.833 1101.156, 414.150 1083 C 396.654 1046.418, 359.139 1014.268, 315.531 998.485 C 299.734 992.768, 274.870 987.783, 273.468 990.051 M 593.500 990.475 C 565.141 995.720, 538.723 1007.169, 514.921 1024.533 C 506.353 1030.783, 504.125 1032.757, 493.500 1043.507 C 483.082 1054.047, 475.044 1064.516, 468.079 1076.616 L 463.982 1083.731 465.911 1090.116 C 472.626 1112.339, 476.597 1133.296, 478.728 1157.750 C 479.281 1164.099, 479.685 1164.179, 490.682 1160.101 C 524.758 1147.465, 551.987 1125.605, 572.561 1094.365 C 591.115 1066.193, 602.113 1033.285, 605.687 995.250 L 606.274 989 603.387 989.090 C 601.799 989.140, 597.350 989.763, 593.500 990.475 M 859 1052.945 L 859 1087 895.962 1087 C 930.526 1087, 933.273 1086.870, 938.292 1084.992 C 945.928 1082.135, 951.335 1077.097, 955.208 1069.229 C 958.232 1063.086, 958.500 1061.768, 958.499 1053.021 C 958.499 1045.288, 958.080 1042.593, 956.270 1038.670 C 952.804 1031.158, 948.640 1026.625, 941.796 1022.914 L 935.500 1019.500 897.250 1019.195 L 859 1018.891 859 1052.945 M 1478.763 1240.565 C 1470.863 1244.852, 1471.355 1256.568, 1479.600 1260.480 C 1486.962 1263.974, 1495 1258.810, 1495 1250.588 C 1495 1241.793, 1486.345 1236.451, 1478.763 1240.565 M 1246 1290.562 L 1246 1339.125 1271.250 1338.812 C 1294.469 1338.525, 1296.868 1338.330, 1301.070 1336.386 C 1318.500 1328.322, 1323.159 1306.063, 1310.140 1293.045 L 1305.399 1288.303 1308.533 1284.677 C 1319.549 1271.934, 1313.038 1250.274, 1296.311 1244.015 C 1291.499 1242.215, 1288.533 1242, 1268.462 1242 L 1246 1242 1246 1290.562 M 1265 1270.500 L 1265 1281 1275.550 1281 C 1290.147 1281, 1294 1278.807, 1294 1270.500 C 1294 1262.193, 1290.147 1260, 1275.550 1260 L 1265 1260 1265 1270.500 M 1432 1267.677 C 1417.883 1269.645, 1409 1278.044, 1409 1289.424 C 1409 1295.004, 1410.381 1298.711, 1413.814 1302.342 C 1417.369 1306.103, 1421.681 1308.229, 1432.337 1311.479 C 1440.571 1313.990, 1445 1316.621, 1445 1319 C 1445 1321.726, 1440.884 1324, 1435.950 1324 C 1430.124 1324, 1426.031 1322.187, 1423.254 1318.375 L 1421.301 1315.694 1413.651 1319.917 C 1409.443 1322.240, 1406 1324.510, 1406 1324.962 C 1406 1325.414, 1408.020 1328.030, 1410.489 1330.777 C 1416.482 1337.442, 1422.399 1340.118, 1432.552 1340.753 C 1443.008 1341.408, 1450.522 1339.328, 1456.194 1334.210 C 1461.304 1329.599, 1463 1325.664, 1463 1318.418 C 1463 1307.995, 1457.547 1302.029, 1444.331 1297.993 C 1430.965 1293.911, 1428.527 1292.676, 1428.193 1289.819 C 1427.642 1285.106, 1434.783 1282.323, 1440.316 1285.094 C 1441.517 1285.696, 1443.427 1287.284, 1444.560 1288.622 L 1446.620 1291.057 1454.011 1286.994 C 1458.076 1284.759, 1461.591 1282.742, 1461.822 1282.512 C 1462.052 1282.281, 1460.811 1280.287, 1459.064 1278.081 C 1453.778 1271.407, 1440.862 1266.441, 1432 1267.677 M 1542.872 1268.083 C 1537.426 1268.926, 1534.508 1270.305, 1530.750 1273.809 L 1528 1276.374 1528 1272.687 L 1528 1269 1519 1269 L 1510 1269 1510 1304 L 1510 1339 1519 1339 L 1528 1339 1528.006 1318.750 C 1528.009 1307.612, 1528.456 1296.899, 1528.999 1294.943 C 1529.543 1292.987, 1531.340 1290.091, 1532.993 1288.507 C 1539.057 1282.697, 1552.355 1284.544, 1555.025 1291.566 C 1555.561 1292.976, 1556 1304.226, 1556 1316.565 L 1556 1339 1565.500 1339 L 1575 1339 1575 1315.182 C 1575 1297.160, 1574.643 1290.161, 1573.533 1286.424 C 1569.569 1273.076, 1557.449 1265.826, 1542.872 1268.083 M 1616.694 1268.121 C 1605.289 1269.734, 1594.846 1277.414, 1589.980 1287.766 C 1581.006 1306.858, 1588.758 1328.951, 1607.500 1337.699 C 1612.941 1340.239, 1614.525 1340.498, 1624.500 1340.481 C 1633.623 1340.466, 1636.305 1340.094, 1640.217 1338.302 C 1646.219 1335.553, 1655.382 1327.153, 1654.065 1325.608 C 1653.545 1324.999, 1650.192 1322.936, 1646.613 1321.025 L 1640.108 1317.550 1637.804 1319.709 C 1634.499 1322.804, 1630.675 1324.003, 1624.185 1323.978 C 1616.935 1323.950, 1610.689 1321.179, 1608.024 1316.808 C 1606.915 1314.989, 1606.006 1313.162, 1606.004 1312.750 C 1606.002 1312.338, 1617.641 1312, 1631.868 1312 L 1657.737 1312 1658.237 1308.250 C 1659.660 1297.590, 1654.859 1284.294, 1646.881 1276.799 C 1639.034 1269.427, 1628.621 1266.434, 1616.694 1268.121 M 1687.217 1268.138 C 1676.729 1269.835, 1669.251 1275.975, 1667.056 1284.691 C 1665.668 1290.205, 1666.502 1295.395, 1669.538 1300.127 C 1672.651 1304.979, 1676.687 1307.305, 1688.547 1311.083 C 1694.021 1312.827, 1699.287 1314.942, 1700.250 1315.782 C 1704.587 1319.569, 1700.506 1324, 1692.682 1324 C 1687.231 1324, 1682.802 1321.867, 1680.909 1318.331 C 1680.223 1317.049, 1679.254 1316, 1678.755 1316 C 1677.389 1316, 1663.999 1323.982, 1664.004 1324.794 C 1664.014 1326.774, 1668.425 1332.295, 1672.153 1334.996 C 1681.759 1341.954, 1698.606 1343.035, 1709.116 1337.367 C 1721.416 1330.734, 1724.774 1316.016, 1716.288 1305.931 C 1713.038 1302.068, 1708.685 1299.897, 1697.500 1296.563 C 1689.313 1294.121, 1685 1291.474, 1685 1288.889 C 1685 1286.563, 1689.192 1284, 1692.997 1284 C 1696.144 1284, 1697.801 1284.729, 1700.784 1287.424 L 1704.574 1290.848 1711.787 1286.848 C 1715.754 1284.647, 1719 1282.447, 1719 1281.958 C 1719 1280.239, 1712.679 1273.897, 1708.613 1271.536 C 1704.979 1269.427, 1702.910 1268.848, 1694.500 1267.584 C 1693.400 1267.419, 1690.123 1267.668, 1687.217 1268.138 M 1748.479 1268.041 C 1732.333 1270.244, 1722.950 1284.484, 1728.945 1297.688 C 1731.581 1303.493, 1737.547 1307.465, 1748.908 1310.978 C 1759.615 1314.289, 1763 1316.216, 1763 1319 C 1763 1326.147, 1743.822 1325.316, 1741.522 1318.069 C 1741.161 1316.931, 1740.392 1316, 1739.813 1316 C 1739.234 1316, 1735.466 1317.874, 1731.440 1320.165 C 1724.205 1324.281, 1724.135 1324.360, 1725.474 1326.915 C 1727.602 1330.973, 1733.044 1335.688, 1738.500 1338.199 C 1742.668 1340.117, 1745.176 1340.500, 1753.571 1340.500 C 1762.802 1340.500, 1764.133 1340.249, 1769.537 1337.485 C 1777.471 1333.427, 1781.480 1327.234, 1781.436 1319.105 C 1781.373 1307.482, 1775.870 1301.886, 1759.592 1296.892 C 1754.041 1295.190, 1748.713 1293.098, 1747.750 1292.243 C 1743.326 1288.317, 1748.044 1283.340, 1755.271 1284.309 C 1758.298 1284.715, 1760.284 1285.753, 1762.256 1287.961 L 1765.012 1291.045 1772.506 1286.932 C 1776.628 1284.670, 1780 1282.388, 1780 1281.862 C 1780 1281.336, 1777.836 1278.741, 1775.192 1276.096 C 1768.472 1269.377, 1759.194 1266.579, 1748.479 1268.041 M 1330 1293.962 C 1330 1322.216, 1330.804 1326.403, 1337.570 1333.369 C 1343.405 1339.377, 1346.365 1340.492, 1356.500 1340.496 C 1364.536 1340.500, 1366.004 1340.204, 1370.211 1337.731 C 1372.802 1336.207, 1375.376 1334.182, 1375.931 1333.231 C 1376.739 1331.843, 1376.945 1332.244, 1376.970 1335.250 L 1377 1339 1386 1339 L 1395 1339 1395 1304 L 1395 1269 1386.096 1269 L 1377.193 1269 1376.846 1291.250 C 1376.457 1316.257, 1375.829 1318.730, 1368.966 1322.305 C 1364.598 1324.580, 1356.946 1324.091, 1353.176 1321.296 C 1348.732 1318.002, 1348.118 1314.339, 1348.056 1290.750 L 1348 1269 1339 1269 L 1330 1269 1330 1293.962 M 1475 1304 L 1475 1339 1484 1339 L 1493 1339 1493 1304 L 1493 1269 1484 1269 L 1475 1269 1475 1304 M 1616.231 1285.252 C 1612.352 1286.496, 1606 1293.170, 1606 1296.003 C 1606 1297.921, 1606.675 1298, 1623.067 1298 L 1640.135 1298 1639.485 1295.750 C 1636.939 1286.933, 1626.163 1282.068, 1616.231 1285.252 M 1265 1310.077 L 1265 1321.155 1278.423 1320.827 C 1291.002 1320.521, 1292.006 1320.349, 1294.407 1318.090 C 1299.014 1313.757, 1299.059 1305.968, 1294.505 1301.414 C 1292.191 1299.100, 1291.532 1299, 1278.545 1299 L 1265 1299 1265 1310.077" stroke="none" fill="#8696a8" fill-rule="evenodd"/>
</svg>