<svg xmlns="http://www.w3.org/2000/svg" width="2000" height="2000" viewBox="0 0 2000 2000" version="1.1">
	<rect x="0" y="0" width="100%" height="100%" fill="#4e9680" />
	<path d="M 974.286 322.626 C 960.809 336.307, 949.865 347.642, 949.964 347.815 C 950.063 347.988, 945.272 353.613, 939.317 360.315 C 933.362 367.017, 926.020 375.425, 923.001 379 C 919.982 382.575, 917.285 385.725, 917.006 386 C 915.700 387.290, 907.484 397.482, 897.458 410.250 C 893.246 415.613, 889.321 420, 888.734 420 C 888.147 420, 887.949 420.282, 888.294 420.627 C 889.203 421.536, 880.034 433.139, 878.941 432.464 C 878.436 432.151, 878.250 432.488, 878.528 433.211 C 878.805 433.935, 875.988 438.590, 872.266 443.557 C 852.547 469.875, 825.579 511.795, 809.257 541.500 C 801.129 556.292, 786.335 586.082, 780.701 599 C 773.467 615.589, 757.641 659.065, 751.035 680.500 C 747.423 692.222, 736.953 734.736, 734.659 747 C 730.128 771.225, 727.304 797.969, 725.999 829 C 723.881 879.370, 722.949 888.522, 718.733 900.370 C 711.887 919.610, 693.227 933.940, 674.960 933.988 C 642.773 934.072, 618.985 896.642, 612.949 836.415 C 610.813 815.098, 613.093 751.148, 616.520 736.250 C 617.188 733.348, 615.815 733.353, 614.436 736.258 C 613.850 737.491, 609.137 746.600, 603.962 756.500 C 566.655 827.869, 537.002 897.008, 516.041 961.500 C 510.846 977.484, 505.409 995.230, 503.631 1002 C 502.837 1005.025, 501.042 1011.775, 499.643 1017 C 491.752 1046.452, 484.262 1086.327, 480.576 1118.500 C 473.809 1177.568, 477.513 1241.419, 491.016 1298.500 C 492.187 1303.450, 493.253 1308.419, 493.385 1309.542 C 493.517 1310.666, 493.885 1312.016, 494.202 1312.542 C 494.520 1313.069, 495.513 1316.425, 496.409 1320 C 498.719 1329.208, 506.458 1352.463, 511.719 1366 C 514.177 1372.325, 516.304 1377.950, 516.447 1378.500 C 517.509 1382.594, 533.342 1415.891, 539.747 1427.500 C 561.229 1466.437, 580.761 1494.126, 611.696 1529.500 C 616.340 1534.810, 640.506 1559.327, 646.643 1564.954 C 658.628 1575.944, 673.617 1588.233, 690.729 1601.100 C 698.817 1607.181, 719.728 1621, 720.844 1621 C 721.392 1621, 722.086 1619.763, 722.384 1618.250 C 722.683 1616.738, 725.173 1603.800, 727.917 1589.500 C 730.661 1575.200, 734.297 1556.300, 735.996 1547.500 C 739.821 1527.702, 740.664 1515.312, 739.056 1502.535 C 735.786 1476.556, 725.514 1456.632, 704.619 1435.735 C 687.399 1418.515, 681.022 1408.676, 676.274 1392 C 673.254 1381.393, 672.092 1357.422, 673.923 1343.500 C 677.334 1317.559, 685.948 1285.060, 695.330 1262.732 C 696.201 1260.659, 696.946 1258.753, 696.987 1258.495 C 697.195 1257.165, 704.519 1241.034, 711.059 1227.500 C 715.729 1217.835, 723.789 1203.219, 728.428 1196 C 729.666 1194.075, 732.656 1189.350, 735.073 1185.500 C 751.928 1158.655, 782.080 1125.650, 801.556 1112.725 C 819.752 1100.651, 833.089 1095.494, 849.109 1094.340 C 871.759 1092.709, 892.283 1103.226, 908.944 1125 C 918.706 1137.758, 931.589 1160.189, 930.337 1162.250 C 930.087 1162.662, 930.286 1163, 930.781 1163 C 931.275 1163, 932.283 1164.912, 933.020 1167.250 C 933.757 1169.588, 934.671 1171.950, 935.050 1172.500 C 935.602 1173.301, 937.972 1179.751, 938.541 1182 C 938.611 1182.275, 939.160 1183.681, 939.761 1185.124 C 941.339 1188.910, 947.693 1212.205, 949.547 1221 C 955.820 1250.763, 958.245 1275.059, 958.378 1309.500 C 958.483 1336.844, 958.114 1342.357, 954.394 1369 C 952.596 1381.878, 947.876 1401.847, 945.059 1408.500 C 944.593 1409.600, 943.423 1412.750, 942.460 1415.500 C 939.917 1422.760, 934.342 1432.786, 928.561 1440.500 C 923.154 1447.713, 918.615 1452.083, 910.734 1457.663 C 903.145 1463.035, 885.150 1471.952, 881.833 1471.984 C 880.917 1471.993, 880.017 1472.339, 879.833 1472.754 C 879.650 1473.169, 876.575 1474.980, 873 1476.778 C 860.566 1483.031, 846.474 1495.085, 836.761 1507.774 C 831.562 1514.566, 827.486 1521.861, 822.947 1532.500 C 821.332 1536.287, 818.121 1548.513, 817.038 1555 C 816.441 1558.575, 815.078 1565.550, 814.008 1570.500 C 812.939 1575.450, 811.342 1583.550, 810.459 1588.500 C 808.804 1597.776, 803.337 1626.253, 799.995 1643 C 796.816 1658.933, 796.543 1662, 798.303 1662 C 799.145 1662, 799.983 1662.338, 800.167 1662.750 C 800.547 1663.605, 805.780 1665.535, 832.500 1674.674 C 921.532 1705.124, 1019.919 1710.344, 1114 1689.608 C 1143.195 1683.174, 1195.161 1666.513, 1198.956 1662.371 C 1199.395 1661.892, 1198.668 1655.875, 1197.342 1649 C 1193.684 1630.046, 1190.476 1613.238, 1187.035 1595 C 1179.659 1555.908, 1175.818 1544.676, 1163.894 1527.345 C 1162.302 1525.032, 1161 1522.929, 1161 1522.673 C 1161 1522.416, 1157.165 1518.447, 1152.477 1513.853 C 1142.771 1504.342, 1129.925 1495.422, 1120.166 1491.419 C 1093.033 1480.290, 1086.445 1476.044, 1072.342 1460.596 C 1070.152 1458.197, 1064.262 1448.488, 1060.757 1441.500 C 1053.569 1427.167, 1049.663 1412.440, 1041 1367 C 1038.221 1352.425, 1035.523 1338.475, 1035.003 1336 C 1034.484 1333.525, 1032.226 1321.825, 1029.985 1310 C 1027.744 1298.175, 1024.376 1280.625, 1022.501 1271 C 1020.626 1261.375, 1018.877 1252.150, 1018.613 1250.500 C 1018.349 1248.850, 1016.058 1236.925, 1013.521 1224 C 1000.197 1156.102, 1000.679 1160.578, 1005.586 1150.339 C 1008.351 1144.571, 1013.760 1139.209, 1020.205 1135.846 C 1026.882 1132.362, 1038.605 1132.569, 1046.214 1136.306 C 1053.115 1139.695, 1059.337 1146.458, 1061.416 1152.829 C 1062.837 1157.187, 1066.754 1176.595, 1075.474 1222.500 C 1077.459 1232.950, 1079.725 1244.650, 1080.509 1248.500 C 1081.294 1252.350, 1084.223 1267.425, 1087.019 1282 C 1089.815 1296.575, 1094.074 1318.625, 1096.484 1331 C 1098.893 1343.375, 1102.285 1361.150, 1104.021 1370.500 C 1105.757 1379.850, 1107.554 1387.894, 1108.015 1388.376 C 1108.699 1389.092, 1142.423 1383.351, 1149.343 1381.341 C 1151.499 1380.715, 1151.981 1384.275, 1144.489 1345.500 C 1141.513 1330.100, 1136.789 1305.575, 1133.991 1291 C 1124.962 1243.978, 1117.219 1204.071, 1112.358 1179.500 C 1106.213 1148.448, 1106.004 1141.358, 1110.942 1131.619 C 1117.438 1118.811, 1127.830 1112.625, 1142.747 1112.688 C 1149.953 1112.718, 1151.808 1113.123, 1157.455 1115.903 C 1164.222 1119.235, 1169.682 1124.604, 1173.155 1131.344 C 1175.008 1134.939, 1177.487 1146.508, 1186.476 1193.500 C 1188.474 1203.950, 1190.748 1215.650, 1191.529 1219.500 C 1192.309 1223.350, 1195.231 1238.425, 1198.023 1253 C 1200.814 1267.575, 1204.617 1287.375, 1206.475 1297 C 1208.333 1306.625, 1211.256 1321.925, 1212.970 1331 C 1216.725 1350.868, 1220.094 1367.393, 1220.472 1367.791 C 1220.624 1367.950, 1223.842 1367.411, 1227.624 1366.592 C 1231.406 1365.773, 1240.912 1363.873, 1248.750 1362.370 C 1262.048 1359.820, 1263 1359.487, 1263 1357.389 C 1263 1356.152, 1260.995 1344.871, 1258.545 1332.320 C 1256.094 1319.769, 1252.021 1298.700, 1249.494 1285.500 C 1244.637 1260.137, 1239.607 1234.030, 1235.429 1212.500 C 1234.041 1205.350, 1231.827 1193.875, 1230.508 1187 C 1229.190 1180.125, 1226.487 1166.175, 1224.503 1156 C 1218.329 1124.340, 1218.024 1122.148, 1219.043 1116.775 C 1220.320 1110.037, 1222.363 1106.065, 1227.071 1101.166 C 1234.930 1092.987, 1246.613 1089.583, 1256.728 1092.523 C 1266.857 1095.468, 1272.726 1100.570, 1276.893 1110.055 C 1277.967 1112.500, 1280.249 1121.925, 1281.963 1131 C 1283.678 1140.075, 1285.502 1149.525, 1286.016 1152 C 1286.531 1154.475, 1288.561 1165.050, 1290.527 1175.500 C 1292.494 1185.950, 1295.185 1199.900, 1296.507 1206.500 C 1297.829 1213.100, 1300.029 1224.350, 1301.395 1231.500 C 1302.761 1238.650, 1306.154 1256.425, 1308.936 1271 C 1311.717 1285.575, 1314.456 1299.750, 1315.021 1302.500 C 1319.852 1325.984, 1324.297 1350.686, 1325.638 1361.500 C 1328.520 1384.731, 1326.033 1406.700, 1318.847 1421.500 C 1312.389 1434.800, 1310.242 1437.724, 1296.904 1451.389 C 1281.425 1467.247, 1276.867 1473.087, 1271.451 1484 C 1259.120 1508.843, 1257.035 1529.950, 1263.544 1564 C 1265.490 1574.175, 1267.723 1586.100, 1268.508 1590.500 C 1271.141 1605.269, 1274.672 1622.006, 1275.284 1622.617 C 1276.046 1623.380, 1304.525 1605.049, 1311.271 1599.452 C 1312.246 1598.644, 1319.221 1592.999, 1326.771 1586.907 C 1344.476 1572.623, 1356.389 1561.843, 1372.500 1545.529 C 1388.154 1529.677, 1391.491 1525.912, 1408.076 1505.397 C 1425.342 1484.038, 1442.623 1458.582, 1454.988 1436.291 C 1456.272 1433.976, 1457.770 1432.358, 1458.316 1432.695 C 1458.862 1433.033, 1459.036 1432.868, 1458.703 1432.328 C 1458.369 1431.789, 1461.574 1424.406, 1465.825 1415.924 C 1479.419 1388.795, 1486.807 1371.100, 1496.481 1342.500 C 1520.189 1272.408, 1527.909 1189.076, 1517.419 1116.500 C 1509.453 1061.391, 1489.286 1006.100, 1457.967 953.500 C 1449.671 939.568, 1436.987 920.032, 1430.047 910.500 C 1420.075 896.803, 1408.282 881.117, 1405.555 877.922 C 1403.875 875.953, 1398.675 869.683, 1394 863.987 C 1389.325 858.291, 1382.702 850.498, 1379.282 846.668 C 1375.863 842.838, 1373.302 839.321, 1373.591 838.852 C 1373.881 838.383, 1373.439 838, 1372.609 838 C 1371.779 838, 1370.726 837.333, 1370.269 836.517 C 1367.574 831.701, 1319.931 781.294, 1272.901 733.500 C 1247.748 707.938, 1223.640 683.022, 1215.913 674.601 C 1212.936 671.357, 1208.925 667.065, 1207 665.064 C 1205.075 663.063, 1199.225 656.740, 1194 651.013 C 1188.775 645.286, 1181.766 637.653, 1178.425 634.050 C 1171.843 626.953, 1149.890 601.370, 1146.204 596.500 C 1144.955 594.850, 1142.187 591.475, 1140.053 589 C 1137.920 586.525, 1132.097 579.100, 1127.113 572.500 C 1122.130 565.900, 1117.537 559.900, 1116.908 559.166 C 1114.479 556.334, 1098.261 533.371, 1097.015 531 C 1096.292 529.625, 1095.397 528.275, 1095.025 528 C 1094.095 527.311, 1087.359 517.208, 1081.025 507 C 1058.590 470.845, 1036.672 425.700, 1024.221 390 C 1014.353 361.704, 1005.470 328.461, 1001.969 306.721 C 1001.280 302.443, 1000.283 298.675, 999.753 298.347 C 999.222 298.019, 987.762 308.945, 974.286 322.626" stroke="none" fill="#fffae5" fill-rule="evenodd"/>
</svg>