<svg xmlns="http://www.w3.org/2000/svg" width="2000" height="2000" viewBox="0 0 2000 2000" version="1.1">
	<path d="M 980.916 316.753 C 889.953 409.316, 819.039 510.921, 777.994 607.500 C 762.730 643.415, 747.419 690.542, 739.514 725.938 C 730.519 766.213, 727.815 790.538, 724.998 856.500 C 723.404 893.814, 720.096 905.500, 707.284 919.081 C 702.417 924.241, 698.799 926.979, 693.171 929.760 C 685.810 933.398, 685.302 933.500, 674.552 933.500 C 665.182 933.500, 662.753 933.155, 658.590 931.235 C 620.371 913.609, 603.798 845.171, 614.624 749.679 C 615.486 742.077, 615.990 735.657, 615.745 735.412 C 615.118 734.785, 579.956 804.702, 569.685 827 C 516.160 943.201, 485.931 1048.410, 479.034 1142.500 C 477.718 1160.460, 477.716 1199.490, 479.030 1217.500 C 485.974 1312.650, 518.402 1403.226, 573.370 1481 C 602.539 1522.272, 639.512 1560.918, 680 1592.455 C 692.968 1602.556, 720.718 1621.670, 721.334 1620.925 C 722.118 1619.978, 738.939 1529.989, 739.555 1523.448 C 740.430 1514.159, 738.518 1497.011, 735.413 1486.296 C 729.846 1467.084, 721.245 1453.222, 704.229 1436.034 C 697.949 1429.690, 690.818 1421.728, 688.382 1418.340 C 672.669 1396.487, 668.829 1368.148, 676.096 1327.678 C 685.758 1273.871, 714.222 1210.826, 750.347 1163.222 C 776.826 1128.328, 806.360 1104.584, 833.500 1096.371 C 842.655 1093.600, 862.224 1093.779, 871.500 1096.718 C 914.453 1110.328, 946.974 1175.153, 957.174 1267.500 C 959.250 1286.291, 958.961 1340.060, 956.693 1357 C 951.237 1397.747, 942.118 1424.430, 927.330 1442.912 C 917.369 1455.362, 904.484 1464.125, 884.569 1471.990 C 850.182 1485.573, 825.460 1515.175, 818.103 1551.577 C 812.690 1578.361, 796.914 1661.238, 797.188 1661.449 C 797.914 1662.008, 813.154 1668, 821 1670.812 C 857.748 1683.978, 899.443 1693.837, 938.500 1698.595 C 970.611 1702.507, 1030.857 1702.272, 1064.081 1698.105 C 1108.010 1692.596, 1153.894 1680.924, 1192.250 1665.501 C 1197.400 1663.431, 1199 1662.318, 1199 1660.805 C 1199 1655.649, 1180.495 1563.454, 1177.864 1555.500 C 1168.138 1526.103, 1145.906 1502.597, 1116.209 1490.315 C 1101.432 1484.203, 1091.402 1478.762, 1084.275 1472.991 C 1068.950 1460.581, 1057.822 1441.078, 1050.475 1413.753 C 1049.107 1408.664, 1037.598 1350.725, 1024.901 1285 C 1007.211 1193.432, 1001.941 1164.404, 1002.353 1160.812 C 1004.589 1141.328, 1024.910 1128.321, 1043.316 1134.592 C 1049.276 1136.623, 1057.423 1143.929, 1060.501 1150.003 C 1062.340 1153.630, 1068.098 1181.712, 1085.416 1271.497 C 1097.804 1335.724, 1108.134 1388.468, 1108.372 1388.705 C 1108.809 1389.142, 1149.946 1381.387, 1150.586 1380.747 C 1150.776 1380.557, 1141.047 1329.158, 1128.966 1266.528 C 1114.744 1192.798, 1107 1150.437, 1107 1146.364 C 1107 1133.642, 1114.726 1121.498, 1126.663 1115.455 C 1131.865 1112.821, 1133.479 1112.504, 1141.500 1112.532 C 1149.225 1112.560, 1151.383 1112.968, 1156.734 1115.412 C 1163.974 1118.718, 1171.136 1125.792, 1174.156 1132.619 C 1175.368 1135.360, 1184.908 1182.631, 1198.115 1251.336 C 1210.185 1314.126, 1220.230 1365.991, 1220.438 1366.592 C 1220.980 1368.158, 1263 1360.032, 1263 1358.361 C 1263 1357.676, 1252.852 1304.553, 1240.449 1240.308 C 1216.853 1118.084, 1216.996 1119.011, 1220.444 1110.808 C 1225.797 1098.071, 1240.392 1089.482, 1253.376 1091.429 C 1263.447 1092.939, 1273.019 1100.267, 1277.165 1109.641 C 1279.256 1114.367, 1323.993 1344.691, 1326.049 1361.316 C 1327.595 1373.809, 1326.759 1399.232, 1324.530 1407.500 C 1319.620 1425.720, 1314.093 1434.567, 1295.500 1453.965 C 1274.444 1475.932, 1266.867 1489.285, 1261.958 1513.077 C 1258.382 1530.408, 1259.336 1541.966, 1267.974 1585.984 C 1271.912 1606.050, 1275.314 1622.647, 1275.533 1622.867 C 1276.080 1623.413, 1287.193 1616.371, 1299.045 1607.968 C 1353.138 1569.615, 1398.512 1523.104, 1434.713 1468.901 C 1481.788 1398.414, 1509.974 1320.183, 1519.706 1233 C 1522.229 1210.399, 1522.201 1152.383, 1519.657 1131.500 C 1514.746 1091.187, 1504.431 1051.210, 1490.500 1018.500 C 1460.141 947.215, 1416.475 884.935, 1339.058 802.500 C 1328.212 790.950, 1298.674 760.322, 1273.418 734.438 C 1184.906 643.720, 1156.252 611.787, 1119.583 563 C 1057.666 480.621, 1020.367 400.965, 1003.010 314.045 C 1001.312 305.545, 999.792 298.459, 999.631 298.298 C 999.471 298.137, 991.049 306.442, 980.916 316.753" stroke="none" fill="#fffae5" fill-rule="evenodd"/>
</svg>