<svg xmlns="http://www.w3.org/2000/svg" width="2000" height="2000" viewBox="0 0 2000 2000" version="1.1">
	<path d="M 977.901 264.758 C 891.077 353.152, 815.515 457.771, 773.832 547.299 C 750.775 596.821, 734.227 642.969, 722.482 690.500 C 711.756 733.911, 706.999 767.251, 705.005 813 C 702.302 875.038, 701.018 885.503, 694.495 898.705 C 687.892 912.068, 675.260 923.041, 661.756 927.143 C 651.586 930.232, 639.371 929.451, 630.723 925.160 C 603.455 911.629, 586.678 875.184, 581.937 819.179 C 580.246 799.204, 581.252 756.795, 583.978 733.131 C 585.142 723.028, 585.920 714.586, 585.706 714.372 C 585.094 713.761, 547.207 789.242, 536.703 812 C 480.450 933.873, 448.822 1040.829, 438.821 1143 C 437.074 1160.854, 437.058 1226.879, 438.796 1244.500 C 443.296 1290.095, 452.001 1331.288, 465.954 1373 C 502.329 1481.751, 570.523 1575.765, 663.500 1645.340 C 680.540 1658.091, 698.782 1670.583, 699.378 1669.908 C 699.576 1669.684, 703.960 1647.900, 709.119 1621.500 L 718.500 1573.500 718.423 1555.500 C 718.354 1539.212, 718.089 1536.549, 715.643 1527.500 C 712.388 1515.460, 703.044 1496.054, 696.111 1486.937 C 693.366 1483.327, 686.340 1475.677, 680.496 1469.937 C 667.577 1457.245, 661.231 1448.904, 655.998 1437.736 C 648.953 1422.703, 647.494 1414.642, 647.539 1391 C 647.571 1374.178, 647.990 1368.168, 649.876 1357.500 C 666.207 1265.097, 727.266 1160.032, 788 1119.830 C 840.184 1085.287, 885.184 1098.824, 918.207 1159 C 949.167 1215.419, 963.465 1315.260, 951.932 1394.500 C 945.253 1440.387, 931.510 1471.558, 909.930 1489.771 C 902.153 1496.335, 887.896 1504.166, 873 1510.056 C 855.126 1517.124, 833.562 1534.608, 822.165 1551.273 C 816.317 1559.823, 810.305 1572.034, 807.109 1581.853 C 805.971 1585.347, 799.827 1615.272, 793.454 1648.353 C 787.081 1681.434, 781.624 1709.508, 781.328 1710.740 C 780.871 1712.635, 781.481 1713.277, 785.278 1714.905 C 811.011 1725.935, 859.367 1740.406, 890.547 1746.407 C 924.801 1753, 951.709 1755.835, 988 1756.673 C 1039.763 1757.870, 1087.192 1752.660, 1136 1740.415 C 1167.610 1732.485, 1215 1716.453, 1215 1713.689 C 1215 1709.680, 1194.405 1606.848, 1192.331 1600.500 C 1186.662 1583.149, 1178.108 1569.076, 1165.081 1555.668 C 1151.662 1541.856, 1141.674 1535.360, 1121 1527 C 1105.655 1520.795, 1095.664 1514.611, 1085.877 1505.260 C 1070.810 1490.865, 1060.637 1471.314, 1053.557 1443.143 C 1052.224 1437.839, 1044.328 1398.175, 1036.010 1355 C 1027.692 1311.825, 1016.588 1254.225, 1011.335 1227 C 1002.328 1180.325, 1001.844 1177.165, 1002.853 1171.630 C 1004.821 1160.833, 1011.120 1152.068, 1020.279 1147.382 C 1037.020 1138.817, 1056.984 1145.026, 1064.952 1161.276 C 1067.633 1166.744, 1070.936 1182.753, 1092.124 1293 C 1105.390 1362.025, 1116.527 1418.803, 1116.872 1419.174 C 1117.411 1419.753, 1161.732 1411.621, 1162.523 1410.798 C 1162.681 1410.634, 1152.028 1354.700, 1138.850 1286.500 C 1112.103 1148.076, 1113 1154.536, 1118.858 1142.636 C 1129.208 1121.613, 1155.484 1114.612, 1174.813 1127.726 C 1181.025 1131.941, 1187.476 1140.458, 1189.362 1146.936 C 1190.092 1149.446, 1201.189 1206.175, 1214.022 1273 C 1226.854 1339.825, 1237.692 1394.895, 1238.105 1395.379 C 1238.697 1396.071, 1282.580 1388.486, 1283.799 1387.482 C 1283.964 1387.346, 1273.237 1331.045, 1259.962 1262.368 C 1245.272 1186.374, 1235.782 1134.956, 1235.715 1131 C 1235.387 1111.635, 1254.513 1095.679, 1274.158 1098.929 C 1284.990 1100.721, 1294.098 1107.598, 1298.558 1117.352 C 1300.254 1121.061, 1307.749 1157.990, 1325.381 1249.500 C 1338.840 1319.350, 1350.444 1380.325, 1351.169 1385 C 1353.207 1398.141, 1352.916 1426.705, 1350.645 1436.500 C 1345.753 1457.601, 1338.885 1469.061, 1318.666 1489.863 C 1300.562 1508.488, 1293.205 1519.484, 1286.669 1537.688 C 1282.251 1549.991, 1280.575 1560.989, 1280.754 1576.500 C 1280.905 1589.553, 1281.447 1593.221, 1288.774 1630.732 C 1293.096 1652.860, 1296.943 1671.277, 1297.325 1671.658 C 1298.332 1672.665, 1324.075 1655.102, 1342.226 1641.022 C 1365.348 1623.087, 1378.542 1611.511, 1397.500 1592.525 C 1495.313 1494.569, 1551.820 1370.728, 1562.004 1232 C 1563.293 1214.448, 1563.277 1176.035, 1561.975 1158.950 C 1559.104 1121.296, 1552.282 1087.061, 1540.562 1051.500 C 1520.265 989.914, 1486.754 930.988, 1435.636 867 C 1401.458 824.217, 1369.274 789.263, 1286.207 704.714 C 1225.039 642.453, 1186.864 600.931, 1154.538 561.500 C 1071.863 460.650, 1024.118 365.303, 1002.958 258.788 C 1001.299 250.440, 999.798 243.465, 999.623 243.289 C 999.447 243.113, 989.672 252.774, 977.901 264.758" stroke="none" fill="#4b9782" fill-rule="evenodd"/>
</svg>