<svg xmlns="http://www.w3.org/2000/svg" width="2000" height="2000" viewBox="0 0 2000 2000" version="1.1">
	<rect x="0" y="0" width="100%" height="100%" fill="#ffffff" />
	<path d="M 1006 493.979 C 1005.175 494.453, 1002.475 495.827, 1000 497.033 C 994.713 499.609, 984.782 509.643, 975.500 521.788 C 974.950 522.507, 973.797 523.862, 972.938 524.798 C 972.079 525.734, 969.604 528.750, 967.438 531.500 C 965.272 534.250, 963.245 536.725, 962.934 537 C 961.110 538.610, 942.310 564.094, 939.500 568.765 C 938.950 569.680, 936.362 573.324, 933.750 576.863 C 931.138 580.402, 929 583.906, 929 584.649 C 929 585.392, 928.559 586, 928.019 586 C 927.480 586, 926.764 587.092, 926.429 588.428 C 926.094 589.763, 925.185 591.099, 924.410 591.396 C 923.634 591.694, 923 592.626, 923 593.469 C 923 594.311, 922.601 595, 922.114 595 C 921.138 595, 913 608.253, 913 609.841 C 913 610.387, 912.658 610.983, 912.240 611.167 C 911.350 611.557, 901.321 628.464, 898.103 635 C 896.884 637.475, 894.357 642.200, 892.487 645.500 C 890.617 648.800, 887.232 655.325, 884.964 660 C 882.695 664.675, 880.423 669.175, 879.914 670 C 879.404 670.825, 878.733 672.175, 878.421 673 C 878.110 673.825, 877.445 675.175, 876.943 676 C 876.441 676.825, 875.418 678.850, 874.669 680.500 C 873.921 682.150, 872.054 686.200, 870.520 689.500 C 867.319 696.388, 865.227 701.118, 863.330 705.750 C 862.599 707.538, 861.352 710.462, 860.561 712.250 C 859.769 714.038, 858.162 717.750, 856.988 720.500 C 855.815 723.250, 854.213 726.918, 853.428 728.651 C 852.642 730.384, 852 732.245, 852 732.787 C 852 733.328, 851.328 735.060, 850.506 736.636 C 849.685 738.211, 849.010 740.412, 849.006 741.527 C 849.003 742.643, 848.390 744.443, 847.646 745.527 C 846.901 746.612, 846.040 748.625, 845.732 750 C 845.425 751.375, 843.110 758.350, 840.588 765.500 C 838.065 772.650, 836.001 779.236, 836.001 780.136 C 836 781.035, 835.328 783.060, 834.506 784.636 C 833.685 786.211, 832.994 788.850, 832.971 790.500 C 832.948 792.150, 832.286 794.625, 831.500 796 C 830.714 797.375, 830.055 799.782, 830.035 801.349 C 830.016 802.916, 829.359 805.616, 828.575 807.349 C 827.791 809.082, 826.631 812.750, 825.998 815.500 C 825.365 818.250, 824.161 823.200, 823.324 826.500 C 822.486 829.800, 821.365 835.200, 820.832 838.500 C 820.299 841.800, 819.425 845.933, 818.890 847.685 C 818.355 849.437, 817.519 854.162, 817.031 858.185 C 816.544 862.208, 815.662 867.072, 815.072 868.993 C 814.483 870.915, 813.980 874.740, 813.956 877.493 C 813.903 883.599, 812.581 890.819, 811.276 892.124 C 810.659 892.741, 809.270 892.551, 807.407 891.595 C 804.873 890.295, 800.524 888.287, 785 881.248 C 783.075 880.375, 779.925 878.994, 778 878.179 C 776.075 877.363, 773.306 876.090, 771.846 875.348 C 770.386 874.607, 768.334 874, 767.287 874 C 766.239 874, 764.509 873.339, 763.441 872.532 C 762.374 871.724, 760.668 871.049, 759.651 871.032 C 758.634 871.014, 756.384 870.358, 754.651 869.572 C 745.126 865.257, 741.965 864, 740.636 864 C 739.825 864, 737.888 863.375, 736.331 862.611 C 732.559 860.760, 727.287 858.967, 723 858.077 C 721.075 857.677, 718.600 856.883, 717.500 856.312 C 716.400 855.741, 713.568 854.979, 711.206 854.618 C 708.845 854.258, 706.145 853.552, 705.206 853.049 C 703.320 852.040, 697.160 850.366, 689.500 848.781 C 686.750 848.212, 682.803 847.128, 680.730 846.373 C 678.656 845.618, 675.034 845, 672.680 845 C 670.326 845, 667.921 844.521, 667.335 843.935 C 666.749 843.349, 662.175 842.485, 657.171 842.016 C 652.166 841.547, 647.608 840.876, 647.040 840.525 C 646.473 840.174, 640.494 839.490, 633.754 839.005 C 627.014 838.520, 615.875 837.594, 609 836.948 C 593.799 835.520, 555.975 836.297, 535.303 838.461 C 527.475 839.280, 521.913 842.963, 517.038 850.557 C 513.539 856.006, 512 878.758, 512 925.018 C 512 958.967, 512.250 966.354, 513.500 969.346 C 514.429 971.570, 515 976.131, 515 981.331 C 515 985.949, 515.489 992.151, 516.087 995.114 C 516.685 998.076, 517.793 1005.225, 518.548 1011 C 520.690 1027.364, 525.447 1053.296, 526.671 1055.277 C 527.062 1055.909, 527.698 1058.243, 528.084 1060.463 C 528.470 1062.684, 529.252 1065.850, 529.822 1067.500 C 530.392 1069.150, 531.362 1072.975, 531.977 1076 C 534.294 1087.399, 535.520 1092.531, 536.159 1093.508 C 536.522 1094.062, 537.148 1096.270, 537.550 1098.415 C 537.952 1100.559, 538.890 1103.481, 539.635 1104.907 C 540.379 1106.333, 540.990 1108.426, 540.994 1109.559 C 540.997 1110.691, 541.661 1112.491, 542.468 1113.559 C 543.276 1114.626, 543.953 1116.400, 543.974 1117.500 C 543.995 1118.600, 544.621 1120.667, 545.365 1122.093 C 546.110 1123.519, 547.038 1126.387, 547.428 1128.466 C 547.818 1130.545, 548.503 1132.978, 548.951 1133.873 C 549.399 1134.768, 550.760 1138.200, 551.976 1141.500 C 553.192 1144.800, 554.881 1149.075, 555.728 1151 C 556.576 1152.925, 557.923 1156.075, 558.721 1158 C 559.520 1159.925, 560.810 1162.774, 561.587 1164.331 C 562.364 1165.888, 563 1167.600, 563 1168.136 C 563 1169.313, 569.085 1183.393, 571.153 1187 C 571.626 1187.825, 572.267 1189.175, 572.579 1190 C 572.890 1190.825, 573.522 1192.175, 573.984 1193 C 574.446 1193.825, 577.639 1200.013, 581.079 1206.750 C 584.520 1213.487, 587.709 1219, 588.167 1219 C 588.625 1219, 589 1219.810, 589 1220.800 C 589 1221.790, 589.502 1223.102, 590.116 1223.716 C 591.275 1224.875, 593.014 1227.715, 595.190 1232 C 595.888 1233.375, 596.703 1234.725, 597 1235 C 597.297 1235.275, 598.091 1236.625, 598.763 1238 C 600.089 1240.712, 602.201 1244.201, 603 1245 C 603.954 1245.954, 608 1251.921, 608 1252.374 C 608 1253.307, 619.229 1269.513, 620.097 1269.833 C 620.594 1270.017, 621 1270.782, 621 1271.534 C 621 1272.285, 621.563 1273.260, 622.250 1273.700 C 623.843 1274.720, 631 1283.600, 631 1284.558 C 631 1284.955, 631.606 1285.779, 632.347 1286.390 C 633.087 1287, 636.800 1291.550, 640.597 1296.500 C 644.394 1301.450, 648.446 1306.400, 649.603 1307.500 C 650.760 1308.600, 653.947 1312.200, 656.685 1315.500 C 667.220 1328.198, 698.269 1358.087, 711.500 1368.268 C 712.050 1368.691, 713.625 1369.979, 715 1371.130 C 716.375 1372.281, 719.525 1374.861, 722 1376.862 C 724.475 1378.863, 726.725 1380.725, 727 1381 C 728.271 1382.271, 734.004 1386.002, 734.710 1386.017 C 735.144 1386.027, 736.527 1387.117, 737.781 1388.441 C 740.451 1391.256, 752.335 1399.415, 757 1401.635 C 757.825 1402.028, 758.860 1402.946, 759.300 1403.675 C 759.740 1404.404, 760.488 1405, 760.962 1405 C 761.437 1405, 764.227 1406.586, 767.163 1408.524 C 770.098 1410.462, 774.300 1412.967, 776.500 1414.090 C 778.700 1415.212, 781.850 1416.995, 783.500 1418.051 C 785.150 1419.106, 787.616 1420.455, 788.980 1421.048 C 790.343 1421.640, 791.693 1422.435, 791.980 1422.813 C 792.736 1423.814, 801.517 1428, 802.860 1428 C 803.487 1428, 804 1428.450, 804 1429 C 804 1429.550, 804.513 1430, 805.140 1430 C 805.768 1430, 808.130 1430.858, 810.390 1431.906 C 812.651 1432.954, 817.425 1435.170, 821 1436.831 C 832.492 1442.170, 836.861 1443.999, 838.195 1444.032 C 838.913 1444.049, 840.374 1444.724, 841.441 1445.532 C 842.509 1446.339, 844.309 1447.014, 845.441 1447.032 C 846.574 1447.049, 848.374 1447.724, 849.441 1448.532 C 850.509 1449.339, 852.241 1450, 853.290 1450 C 854.339 1450, 856.616 1450.637, 858.349 1451.416 C 864.209 1454.048, 882.485 1460.006, 884.691 1460.003 C 885.896 1460.001, 887.136 1460.411, 887.446 1460.913 C 887.757 1461.415, 889.921 1462.107, 892.255 1462.451 C 896.579 1463.087, 906.884 1465.242, 915 1467.207 C 922.340 1468.984, 933.053 1471.086, 940 1472.111 C 943.575 1472.639, 948.525 1473.534, 951 1474.100 C 963.383 1476.935, 1013.497 1478.730, 1035.343 1477.122 C 1058.592 1475.411, 1081.949 1472.795, 1086.189 1471.429 C 1088.872 1470.564, 1099.080 1468.337, 1107 1466.888 C 1110.025 1466.334, 1114.790 1465.233, 1117.588 1464.441 C 1120.386 1463.648, 1123.640 1463, 1124.818 1463 C 1125.996 1463, 1128.656 1462.384, 1130.730 1461.631 C 1132.803 1460.878, 1137.875 1459.263, 1142 1458.043 C 1146.125 1456.822, 1150.400 1455.437, 1151.500 1454.965 C 1157.992 1452.180, 1169.549 1448.060, 1173.872 1446.990 C 1175.727 1446.531, 1177.730 1445.670, 1178.322 1445.078 C 1178.915 1444.485, 1179.978 1444, 1180.685 1444 C 1182.764 1444, 1222.025 1425.113, 1228.500 1420.997 C 1230.150 1419.949, 1234.088 1417.852, 1237.250 1416.337 C 1240.412 1414.823, 1243 1413.227, 1243 1412.792 C 1243 1412.356, 1243.578 1412, 1244.284 1412 C 1244.991 1412, 1248.703 1409.838, 1252.534 1407.196 C 1256.365 1404.553, 1260.175 1402.073, 1261 1401.685 C 1264.921 1399.838, 1278 1390.718, 1278 1389.832 C 1278 1389.374, 1278.492 1389, 1279.092 1389 C 1279.693 1389, 1281.216 1388.213, 1282.477 1387.250 C 1283.737 1386.287, 1285.776 1384.825, 1287.007 1384 C 1288.238 1383.175, 1289.752 1382.035, 1290.373 1381.467 C 1290.993 1380.899, 1293.075 1379.367, 1295 1378.062 C 1296.925 1376.757, 1298.950 1375.192, 1299.500 1374.583 C 1300.050 1373.975, 1303.650 1371.037, 1307.500 1368.055 C 1315.660 1361.735, 1320.322 1357.560, 1331.849 1346.250 C 1336.473 1341.713, 1340.437 1338, 1340.657 1338 C 1340.877 1338, 1343.406 1335.468, 1346.278 1332.372 C 1349.150 1329.277, 1353.750 1324.405, 1356.500 1321.547 C 1361.556 1316.291, 1370.306 1306.420, 1375.601 1300 C 1377.188 1298.075, 1379.053 1295.905, 1379.744 1295.179 C 1380.435 1294.452, 1381.006 1293.552, 1381.014 1293.179 C 1381.022 1292.805, 1382.785 1290.552, 1384.933 1288.171 C 1387.080 1285.790, 1390.104 1281.965, 1391.652 1279.671 C 1393.200 1277.377, 1397.737 1271.134, 1401.733 1265.798 C 1405.730 1260.462, 1409 1255.716, 1409 1255.252 C 1409 1254.787, 1409.683 1253.528, 1410.518 1252.453 C 1414.019 1247.946, 1421.048 1237.318, 1422.047 1235.020 C 1422.640 1233.657, 1423.444 1232.307, 1423.833 1232.020 C 1424.222 1231.734, 1425.086 1230.375, 1425.753 1229 C 1426.419 1227.625, 1428.520 1223.800, 1430.422 1220.500 C 1438.510 1206.461, 1445 1193.728, 1445 1191.898 C 1445 1191.325, 1445.675 1190.182, 1446.500 1189.357 C 1447.325 1188.532, 1448 1187.016, 1448 1185.988 C 1448 1184.959, 1448.422 1183.857, 1448.937 1183.539 C 1450.027 1182.865, 1453.921 1174.690, 1456.576 1167.500 C 1457.592 1164.750, 1459 1161.375, 1459.705 1160 C 1460.411 1158.625, 1460.990 1156.929, 1460.994 1156.231 C 1460.997 1155.533, 1462.313 1152.502, 1463.918 1149.495 C 1465.522 1146.488, 1467.132 1142.677, 1467.494 1141.025 C 1467.857 1139.374, 1468.569 1137.766, 1469.077 1137.452 C 1469.585 1137.139, 1470.003 1136.121, 1470.006 1135.191 C 1470.010 1134.261, 1470.621 1132.333, 1471.365 1130.907 C 1472.110 1129.481, 1473.024 1126.687, 1473.397 1124.699 C 1473.770 1122.711, 1474.730 1119.828, 1475.531 1118.292 C 1476.332 1116.757, 1476.990 1114.503, 1476.994 1113.284 C 1476.997 1112.065, 1477.630 1109.590, 1478.399 1107.784 C 1480.763 1102.235, 1482.694 1096.708, 1483.913 1092 C 1484.554 1089.525, 1485.772 1085.025, 1486.619 1082 C 1488.115 1076.664, 1489.777 1069.338, 1492.064 1058 C 1492.674 1054.975, 1493.771 1050.025, 1494.500 1047 C 1496.634 1038.150, 1497.951 1031.046, 1499.042 1022.500 C 1499.603 1018.100, 1500.471 1012.925, 1500.971 1011 C 1501.470 1009.075, 1502.172 1003.675, 1502.531 999 C 1502.890 994.325, 1503.559 988.925, 1504.017 987 C 1506.035 978.528, 1507.160 930.150, 1506.214 892.500 C 1505.138 849.643, 1505.150 849.708, 1496.980 842.715 C 1492.609 838.974, 1489.504 838, 1481.940 838 C 1479.295 838, 1475.915 837.538, 1474.429 836.973 C 1469.903 835.252, 1406.217 835.645, 1396 837.456 C 1391.325 838.285, 1385.025 838.976, 1382 838.992 C 1378.975 839.008, 1374.291 839.692, 1371.591 840.511 C 1368.891 841.330, 1364.288 842, 1361.361 842 C 1358.435 842, 1354.344 842.636, 1352.270 843.414 C 1350.197 844.191, 1346.090 845.076, 1343.144 845.379 C 1340.198 845.683, 1337.273 846.337, 1336.644 846.832 C 1336.015 847.328, 1333.098 848.039, 1330.163 848.413 C 1327.227 848.786, 1324.077 849.503, 1323.163 850.006 C 1322.248 850.508, 1319.475 851.364, 1317 851.907 C 1309.165 853.627, 1303.603 855.187, 1300.216 856.615 C 1298.410 857.377, 1295.908 858, 1294.657 858 C 1293.406 858, 1291.509 858.661, 1290.441 859.468 C 1289.374 860.276, 1287.375 860.953, 1286 860.974 C 1284.625 860.995, 1282.293 861.642, 1280.817 862.412 C 1279.342 863.182, 1276.760 864.114, 1275.079 864.483 C 1273.398 864.852, 1271.766 865.569, 1271.452 866.077 C 1271.139 866.585, 1270.189 867, 1269.342 867 C 1268.495 867, 1266.384 867.655, 1264.651 868.455 C 1260.683 870.288, 1253.419 872.901, 1249.493 873.908 C 1247.839 874.333, 1245.589 875.141, 1244.493 875.704 C 1239.700 878.167, 1220.185 887.449, 1217 888.781 C 1215.075 889.586, 1212.202 890.879, 1210.615 891.654 C 1209.028 892.428, 1207.526 892.859, 1207.277 892.610 C 1206.317 891.650, 1205.055 884.137, 1204.488 876 C 1204.162 871.325, 1203.264 864.350, 1202.493 860.500 C 1201.722 856.650, 1200.652 850.800, 1200.115 847.500 C 1199.578 844.200, 1198.460 838.575, 1197.631 835 C 1196.803 831.425, 1195.618 826.250, 1194.999 823.500 C 1194.379 820.750, 1193.372 816.925, 1192.760 815 C 1192.147 813.075, 1191.331 809.700, 1190.945 807.500 C 1189.854 801.283, 1187.039 790.687, 1185.968 788.764 C 1185.435 787.809, 1185 786.234, 1184.999 785.264 C 1184.999 784.294, 1182.940 777.650, 1180.426 770.500 C 1177.911 763.350, 1175.410 755.700, 1174.869 753.500 C 1174.328 751.300, 1173.461 749.072, 1172.943 748.550 C 1172.424 748.028, 1172 746.765, 1172 745.745 C 1172 744.073, 1170.869 741.151, 1166.428 731.349 C 1165.642 729.616, 1165 727.740, 1165 727.180 C 1165 726.620, 1164.364 724.888, 1163.587 723.331 C 1162.810 721.774, 1161.520 718.925, 1160.721 717 C 1159.923 715.075, 1158.489 711.700, 1157.535 709.500 C 1156.581 707.300, 1155.235 704.150, 1154.543 702.500 C 1153.851 700.850, 1152.320 697.426, 1151.142 694.890 C 1149.964 692.355, 1149 689.768, 1149 689.140 C 1149 688.513, 1148.550 688, 1148 688 C 1147.450 688, 1147 687.487, 1147 686.860 C 1147 684.864, 1136.982 663.965, 1131.488 654.500 C 1129.572 651.200, 1127.756 647.825, 1127.451 647 C 1126.474 644.352, 1119.613 631.587, 1116.970 627.500 C 1115.903 625.850, 1114.574 623.600, 1114.017 622.500 C 1113.460 621.400, 1112.579 619.825, 1112.059 619 C 1111.180 617.607, 1101.134 600.728, 1098.202 595.718 C 1097.488 594.498, 1096.138 592.302, 1095.202 590.838 C 1094.266 589.374, 1092.184 585.999, 1090.577 583.338 C 1088.969 580.677, 1085.594 575.722, 1083.077 572.326 C 1080.559 568.931, 1076.958 563.656, 1075.073 560.605 C 1073.188 557.554, 1070.440 553.738, 1068.966 552.124 C 1067.493 550.511, 1066.012 548.473, 1065.675 547.596 C 1065.338 546.718, 1064.599 546, 1064.031 546 C 1063.464 546, 1063 545.552, 1063 545.005 C 1063 544.083, 1054.372 532.432, 1048.556 525.500 C 1047.172 523.850, 1045.690 522.050, 1045.262 521.500 C 1037.369 511.341, 1033.090 505.979, 1031.027 503.661 C 1024.425 496.244, 1011.059 491.073, 1006 493.979 M 1006.390 663.244 C 1004.801 665.585, 1003.163 667.650, 1002.750 667.833 C 1002.337 668.017, 1002 668.702, 1002 669.356 C 1002 670.010, 1000.538 672.801, 998.750 675.558 C 996.962 678.315, 994.409 682.580, 993.075 685.035 C 991.741 687.491, 990.391 689.725, 990.075 690 C 989.759 690.275, 986.201 697.025, 982.170 705 C 978.138 712.975, 974.492 720.175, 974.066 721 C 973.641 721.825, 972.590 724.075, 971.730 726 C 970.870 727.925, 968.824 732.425, 967.182 736 C 965.540 739.575, 963.225 744.750, 962.036 747.500 C 960.848 750.250, 959.288 753.850, 958.569 755.500 C 955.362 762.859, 954.525 764.939, 951.925 772 C 950.407 776.125, 948.191 781.975, 947.003 785 C 945.814 788.025, 944.385 792.075, 943.828 794 C 943.270 795.925, 942.406 797.928, 941.907 798.450 C 941.408 798.973, 941 800.479, 941 801.799 C 941 803.118, 940.359 805.616, 939.575 807.349 C 938.791 809.082, 937.698 812.525, 937.147 815 C 936.596 817.475, 935.162 823.100, 933.961 827.500 C 932.760 831.900, 931.405 837.636, 930.949 840.247 C 930.494 842.858, 929.847 845.438, 929.512 845.980 C 929.177 846.523, 928.223 850.461, 927.393 854.733 C 926.563 859.005, 925.220 865.875, 924.408 870 C 923.597 874.125, 922.468 881.325, 921.900 886 C 921.332 890.675, 920.430 896.750, 919.897 899.500 C 918.511 906.641, 917.033 924.075, 916.329 941.603 L 915.723 956.707 920.611 961.635 C 923.300 964.346, 926.821 967.579, 928.435 968.821 C 930.049 970.063, 934.355 973.873, 938.004 977.289 C 941.653 980.705, 945.958 984.678, 947.570 986.118 C 949.181 987.558, 954.775 993.384, 960 999.064 C 965.225 1004.745, 970.288 1010.204, 971.250 1011.196 C 972.212 1012.188, 973 1013.161, 973 1013.357 C 973 1013.554, 975.138 1015.916, 977.750 1018.607 C 985.330 1026.415, 989.617 1031.766, 1003.274 1050.464 C 1005.899 1054.059, 1008.676 1057, 1009.444 1057 C 1010.212 1057, 1012.988 1054.075, 1015.613 1050.500 C 1018.238 1046.925, 1020.749 1044, 1021.193 1044 C 1021.637 1044, 1022 1043.513, 1022 1042.918 C 1022 1041.716, 1027.992 1034.053, 1032.250 1029.808 C 1033.763 1028.301, 1035 1026.625, 1035 1026.083 C 1035 1025.542, 1035.602 1024.740, 1036.339 1024.300 C 1037.075 1023.860, 1038.140 1022.650, 1038.706 1021.612 C 1041.980 1015.601, 1084.858 972.823, 1093.336 967.109 C 1094.526 966.307, 1097.188 963.965, 1099.250 961.904 L 1103 958.157 1102.916 945.829 C 1102.793 927.691, 1100.028 893.164, 1097.965 884 C 1097.408 881.525, 1096.528 876.575, 1096.009 873 C 1094.860 865.081, 1092.663 853.902, 1091.195 848.500 C 1090.596 846.300, 1089.352 841.125, 1088.430 837 C 1087.508 832.875, 1085.909 826.612, 1084.877 823.082 C 1083.844 819.551, 1083 815.704, 1083 814.532 C 1083 813.359, 1082.592 811.973, 1082.093 811.450 C 1081.594 810.928, 1080.730 808.925, 1080.172 807 C 1079.615 805.075, 1078.184 801.025, 1076.992 798 C 1075.801 794.975, 1074.392 790.718, 1073.861 788.539 C 1073.330 786.361, 1072.521 784.111, 1072.063 783.539 C 1071.605 782.968, 1070.912 781.007, 1070.521 779.183 C 1070.131 777.358, 1069.182 774.658, 1068.412 773.183 C 1067.642 771.707, 1067.010 769.974, 1067.006 769.331 C 1067.003 768.688, 1066.364 766.888, 1065.587 765.331 C 1064.810 763.774, 1063.460 760.813, 1062.587 758.750 C 1061.714 756.688, 1060.352 753.538, 1059.561 751.750 C 1058.769 749.962, 1057.146 746.250, 1055.954 743.500 C 1053.087 736.883, 1034.460 699.460, 1031.814 695 C 1030.672 693.075, 1027.737 687.675, 1025.291 683 C 1020.498 673.836, 1018.786 670.784, 1017.997 670 C 1017.721 669.725, 1016.204 667.598, 1014.627 665.273 C 1010.065 658.547, 1009.649 658.445, 1006.390 663.244 M 1393.865 947.469 C 1393.569 947.764, 1387.966 948.668, 1381.413 949.477 C 1365.804 951.404, 1357.414 952.890, 1352.467 954.603 C 1350.248 955.371, 1347.098 956.003, 1345.467 956.006 C 1343.835 956.010, 1341.211 956.685, 1339.636 957.506 C 1338.060 958.328, 1336.138 959, 1335.365 959 C 1333.507 959, 1318.977 962.991, 1316.784 964.104 C 1315.840 964.583, 1313.365 965.391, 1311.284 965.899 C 1305.871 967.222, 1301.263 968.900, 1290.716 973.389 C 1288.635 974.275, 1286.473 975, 1285.911 975 C 1284.704 975, 1278.994 977.499, 1266 983.714 C 1244.045 994.217, 1235.424 998.559, 1234.179 999.743 C 1233.452 1000.435, 1232.362 1001, 1231.757 1001 C 1231.152 1001, 1229.947 1001.617, 1229.079 1002.370 C 1228.210 1003.124, 1225.440 1004.872, 1222.921 1006.255 C 1215.476 1010.343, 1213.528 1011.472, 1213 1012.003 C 1211.553 1013.458, 1202.120 1019.730, 1194.338 1024.410 C 1191.677 1026.011, 1189.140 1027.923, 1188.700 1028.660 C 1188.260 1029.397, 1187.248 1030, 1186.450 1030 C 1185.653 1030, 1185 1030.371, 1185 1030.825 C 1185 1031.279, 1182.509 1033.416, 1179.465 1035.575 C 1174.281 1039.252, 1172.237 1040.890, 1166 1046.372 C 1164.625 1047.581, 1161.273 1050.354, 1158.550 1052.535 C 1151.679 1058.039, 1129.969 1079.676, 1120.458 1090.500 C 1116.108 1095.450, 1111.983 1100.087, 1111.292 1100.803 C 1110.601 1101.520, 1108.470 1104.445, 1106.555 1107.303 C 1104.641 1110.162, 1101.491 1114.260, 1099.555 1116.411 C 1097.620 1118.562, 1094.253 1123.324, 1092.074 1126.993 C 1089.894 1130.661, 1087.411 1134.244, 1086.555 1134.954 C 1085.700 1135.664, 1085 1136.817, 1085 1137.515 C 1085 1138.214, 1084.325 1139.045, 1083.500 1139.362 C 1082.675 1139.678, 1082 1140.594, 1082 1141.397 C 1082 1142.200, 1081.431 1143.452, 1080.735 1144.179 C 1080.040 1144.905, 1077.524 1149.325, 1075.146 1154 C 1072.767 1158.675, 1069.968 1163.967, 1068.925 1165.759 C 1067.178 1168.765, 1067.141 1169.426, 1068.450 1174.259 C 1069.230 1177.142, 1070.339 1180.850, 1070.914 1182.500 C 1071.488 1184.150, 1072.888 1188.875, 1074.024 1193 C 1075.161 1197.125, 1076.745 1202.689, 1077.545 1205.365 C 1078.345 1208.040, 1079 1211.023, 1079 1211.993 C 1079 1212.962, 1079.675 1215.371, 1080.500 1217.346 C 1081.325 1219.320, 1082 1222.210, 1082 1223.768 C 1082 1225.326, 1082.425 1227.028, 1082.944 1227.550 C 1084.196 1228.809, 1088.548 1247.987, 1091.443 1265 C 1092.238 1269.675, 1093.364 1275.924, 1093.945 1278.886 C 1094.525 1281.849, 1095.005 1286.349, 1095.011 1288.886 C 1095.017 1291.424, 1095.692 1295.709, 1096.511 1298.409 C 1097.398 1301.332, 1098 1307.311, 1098 1313.191 C 1098 1319.705, 1098.510 1324.286, 1099.500 1326.654 C 1100.395 1328.796, 1101 1333.366, 1101 1337.983 C 1101 1342.239, 1101.292 1347.849, 1101.648 1350.449 L 1102.296 1355.178 1106.398 1354.732 C 1108.654 1354.487, 1112.075 1353.708, 1114 1353.001 C 1117.268 1351.802, 1118.903 1351.226, 1128 1348.069 C 1140.962 1343.572, 1146.543 1341.403, 1146.833 1340.750 C 1147.017 1340.338, 1147.636 1340, 1148.210 1340 C 1150.207 1340, 1185.329 1322.924, 1185.855 1321.698 C 1186.050 1321.243, 1187.175 1320.443, 1188.355 1319.921 C 1189.535 1319.398, 1191.850 1318.082, 1193.500 1316.996 C 1195.150 1315.910, 1197.625 1314.463, 1199 1313.781 C 1200.375 1313.099, 1201.725 1312.297, 1202 1312 C 1202.275 1311.703, 1203.625 1310.909, 1205 1310.237 C 1208.338 1308.605, 1210.950 1306.856, 1213.095 1304.817 C 1214.069 1303.891, 1216.134 1302.343, 1217.683 1301.377 C 1222.842 1298.159, 1234 1289.531, 1234 1288.760 C 1234 1288.342, 1234.675 1288, 1235.500 1288 C 1236.325 1288, 1237 1287.622, 1237 1287.160 C 1237 1286.698, 1238.523 1285.235, 1240.385 1283.910 C 1246.609 1279.479, 1279 1248.995, 1279 1247.569 C 1279 1247.324, 1280.388 1245.633, 1282.084 1243.812 C 1283.780 1241.990, 1286.803 1238.475, 1288.802 1236 C 1290.801 1233.525, 1293.131 1230.795, 1293.980 1229.933 C 1294.829 1229.071, 1297.988 1225.134, 1301.001 1221.183 C 1304.014 1217.232, 1306.822 1214, 1307.240 1214 C 1307.658 1214, 1308 1213.508, 1308 1212.908 C 1308 1212.307, 1308.787 1210.784, 1309.750 1209.523 C 1310.713 1208.263, 1312.175 1206.224, 1313 1204.993 C 1313.825 1203.762, 1314.950 1202.235, 1315.500 1201.600 C 1317.110 1199.741, 1320.576 1194.627, 1321.329 1193 C 1321.710 1192.175, 1322.805 1190.311, 1323.761 1188.858 C 1324.717 1187.404, 1327.075 1183.643, 1329 1180.500 C 1330.925 1177.357, 1333.247 1173.596, 1334.161 1172.142 C 1335.780 1169.566, 1345.728 1150.506, 1350.676 1140.500 C 1352.036 1137.750, 1353.790 1134.226, 1354.574 1132.669 C 1355.358 1131.112, 1356 1129.361, 1356 1128.778 C 1356 1128.196, 1356.964 1125.645, 1358.142 1123.110 C 1359.320 1120.574, 1360.964 1116.925, 1361.794 1115 C 1362.624 1113.075, 1363.910 1110.306, 1364.652 1108.846 C 1365.393 1107.386, 1366 1105.510, 1366 1104.677 C 1366 1103.844, 1366.636 1101.888, 1367.413 1100.331 C 1368.189 1098.774, 1369.796 1094.125, 1370.983 1090 C 1372.170 1085.875, 1373.503 1081.810, 1373.944 1080.967 C 1374.385 1080.124, 1375.070 1077.956, 1375.467 1076.150 C 1375.864 1074.343, 1376.818 1071.658, 1377.588 1070.183 C 1378.358 1068.707, 1379.005 1066.375, 1379.026 1065 C 1379.047 1063.625, 1379.724 1061.626, 1380.532 1060.559 C 1381.339 1059.491, 1382 1057.369, 1382 1055.843 C 1382 1054.317, 1382.628 1051.590, 1383.396 1049.784 C 1384.164 1047.978, 1385.333 1043.350, 1385.993 1039.500 C 1386.653 1035.650, 1387.820 1029.125, 1388.586 1025 C 1389.352 1020.875, 1390.624 1013.612, 1391.412 1008.859 C 1392.201 1004.106, 1393.328 998.481, 1393.917 996.359 C 1394.507 994.237, 1394.991 990.165, 1394.994 987.312 C 1394.997 984.459, 1395.690 979.149, 1396.533 975.513 C 1398.607 966.573, 1398.217 947.661, 1395.951 947.227 C 1395.099 947.064, 1394.160 947.173, 1393.865 947.469 M 620.336 950.568 C 620.005 951.430, 620.044 954.692, 620.423 957.818 C 622.568 975.527, 622.897 979.107, 622.946 985.282 C 622.976 989.012, 623.675 993.680, 624.500 995.654 C 625.325 997.629, 626 1001.163, 626 1003.507 C 626 1005.852, 626.633 1009.960, 627.407 1012.635 C 628.180 1015.311, 629.322 1019.975, 629.943 1023 C 630.564 1026.025, 631.715 1031.425, 632.500 1035 C 633.285 1038.575, 634.435 1043.975, 635.055 1047 C 636.265 1052.904, 638.554 1061.637, 640.167 1066.500 C 640.714 1068.150, 641.622 1071.075, 642.185 1073 C 642.747 1074.925, 643.559 1076.950, 643.988 1077.500 C 644.418 1078.050, 645.088 1079.993, 645.479 1081.817 C 645.869 1083.642, 646.818 1086.342, 647.588 1087.817 C 648.358 1089.293, 648.990 1091.236, 648.994 1092.136 C 648.997 1093.035, 649.672 1095.060, 650.494 1096.636 C 651.315 1098.211, 652.005 1100.400, 652.026 1101.500 C 652.047 1102.600, 652.724 1104.374, 653.532 1105.441 C 654.339 1106.509, 655 1108.239, 655 1109.287 C 655 1110.334, 655.642 1112.386, 656.426 1113.846 C 657.816 1116.431, 661.498 1124.263, 668.016 1138.500 C 672.430 1148.140, 683.941 1170.555, 686.834 1175.142 C 687.750 1176.596, 690.075 1180.357, 692 1183.500 C 693.925 1186.643, 696.283 1190.404, 697.239 1191.858 C 698.195 1193.311, 699.285 1195.175, 699.659 1196 C 700.034 1196.825, 701.051 1198.460, 701.920 1199.634 C 702.789 1200.808, 704.175 1202.763, 705 1203.978 C 705.825 1205.192, 707.175 1207.003, 708 1208 C 708.825 1208.997, 710.175 1210.817, 711 1212.044 C 717.330 1221.455, 733.506 1241.359, 742.850 1251.232 C 753.181 1262.149, 755.534 1264.445, 764.134 1272 C 776.762 1283.094, 777.546 1283.734, 789.500 1292.709 C 795.550 1297.252, 801.213 1301.650, 802.084 1302.484 C 802.955 1303.318, 804.155 1304, 804.751 1304 C 805.346 1304, 805.983 1304.346, 806.167 1304.770 C 806.556 1305.668, 815.310 1311.446, 822.500 1315.550 C 825.250 1317.120, 827.725 1318.651, 828 1318.952 C 828.946 1319.989, 832.505 1322.031, 835.250 1323.112 C 836.763 1323.708, 838 1324.566, 838 1325.018 C 838 1325.471, 839.350 1326.138, 841 1326.500 C 842.650 1326.862, 844 1327.573, 844 1328.079 C 844 1328.586, 844.507 1329, 845.127 1329 C 846.233 1329, 860.053 1335.248, 863 1337.080 C 863.825 1337.593, 865.175 1338.289, 866 1338.627 C 866.825 1338.965, 869.525 1340.127, 872 1341.211 C 874.475 1342.294, 877.400 1343.548, 878.500 1343.998 C 882.496 1345.633, 897.349 1350.274, 904.284 1352.054 C 906.365 1352.588, 908.840 1353.417, 909.784 1353.895 C 911.657 1354.844, 917.180 1356.372, 926.500 1358.518 C 929.800 1359.278, 934.300 1360.344, 936.500 1360.888 C 943.609 1362.644, 952.314 1364.145, 960.500 1365.026 C 964.900 1365.500, 971.875 1366.349, 976 1366.913 C 980.125 1367.477, 985.617 1367.952, 988.205 1367.969 C 992.733 1367.999, 992.932 1367.878, 993.522 1364.736 C 994.564 1359.180, 990.434 1313.101, 988.123 1304.500 C 987.531 1302.300, 987.037 1298.417, 987.024 1295.872 C 987.011 1293.327, 986.325 1289.629, 985.500 1287.654 C 984.675 1285.680, 984 1282.504, 984 1280.597 C 984 1278.690, 983.519 1275.866, 982.931 1274.320 C 981.896 1271.596, 980.121 1263.882, 977.681 1251.500 C 977.031 1248.200, 976.158 1244.975, 975.742 1244.333 C 975.325 1243.691, 974.689 1241.013, 974.329 1238.382 C 973.968 1235.751, 973.074 1232.451, 972.343 1231.049 C 971.611 1229.647, 971.010 1227.458, 971.006 1226.184 C 971.003 1224.911, 970.480 1222.896, 969.844 1221.708 C 969.208 1220.519, 968.333 1218.186, 967.900 1216.524 C 966.989 1213.025, 964.187 1204.418, 963.010 1201.500 C 961.282 1197.219, 958 1186.280, 958 1184.802 C 958 1183.946, 957.325 1182.685, 956.500 1182 C 955.675 1181.315, 955 1179.712, 955 1178.437 C 955 1177.161, 954.608 1175.876, 954.130 1175.580 C 953.338 1175.091, 951.444 1171.412, 943.535 1155 C 942.077 1151.975, 940.123 1148.311, 939.192 1146.858 C 938.261 1145.404, 936.023 1141.804, 934.217 1138.858 C 928.848 1130.096, 928.550 1129.640, 927.316 1128.286 C 926.664 1127.572, 925.846 1126.091, 925.498 1124.994 C 925.150 1123.897, 924.446 1123, 923.933 1123 C 923.420 1123, 923 1122.325, 923 1121.500 C 923 1120.675, 922.629 1120, 922.175 1120 C 921.721 1120, 919.584 1117.509, 917.425 1114.465 C 909.356 1103.087, 889.885 1080.752, 879.158 1070.571 C 876.220 1067.782, 871.436 1063.250, 868.528 1060.500 C 852.440 1045.286, 820.934 1020.885, 809.018 1014.411 C 807.916 1013.812, 806.188 1012.575, 805.178 1011.661 C 804.169 1010.748, 802.815 1010, 802.171 1010 C 801.527 1010, 801 1009.594, 801 1009.098 C 801 1008.602, 799.763 1007.700, 798.250 1007.095 C 796.737 1006.489, 794.150 1005.117, 792.500 1004.045 C 787.378 1000.718, 785.450 999.675, 773.298 993.661 C 766.809 990.450, 760.825 987.435, 760 986.961 C 755.662 984.467, 737.581 976.629, 728.500 973.305 C 726.300 972.500, 723.226 971.202, 721.669 970.420 C 720.112 969.639, 718.156 969, 717.323 969 C 716.490 969, 714.614 968.351, 713.154 967.558 C 711.694 966.765, 707.125 965.177, 703 964.030 C 698.875 962.882, 693.210 961.281, 690.412 960.471 C 687.614 959.662, 684.479 959, 683.446 959 C 682.412 959, 679.752 958.375, 677.533 957.611 C 668.244 954.412, 636.676 949.203, 625.719 949.062 C 622.259 949.017, 620.771 949.433, 620.336 950.568" stroke="none" fill="#6e7275" fill-rule="evenodd"/>
</svg>