<svg xmlns="http://www.w3.org/2000/svg" width="2000" height="2000" viewBox="0 0 2000 2000" version="1.1">
	<rect x="0" y="0" width="100%" height="100%" fill="#ffffff" />
	<path d="M 697.655 771.109 C 679.769 773.688, 662.220 790.049, 658.085 808 C 652.215 833.490, 669.030 859.866, 694.808 865.601 C 722.400 871.739, 750.389 851.140, 752.690 823.001 C 755.189 792.437, 727.938 766.743, 697.655 771.109 M 304 993 L 304 1204 395.539 1204 C 453.656 1204, 490.624 1203.610, 496.789 1202.933 C 531.038 1199.170, 558.136 1186.920, 579.528 1165.528 C 603.768 1141.288, 615.200 1111.370, 613.710 1076.070 C 612.838 1055.413, 608.203 1039.319, 598.324 1022.652 C 592.589 1012.976, 576.726 996.438, 567 989.996 C 563.425 987.628, 560.310 985.533, 560.078 985.340 C 559.846 985.147, 563.273 981.279, 567.694 976.745 C 590.516 953.337, 600.415 925.088, 597.800 890.831 C 596.651 875.784, 593.026 862.717, 586.058 848.500 C 568.851 813.397, 534.765 789.947, 491.638 783.543 C 482.873 782.242, 467.348 782, 392.622 782 L 304 782 304 993 M 387 906 L 387 952 430.951 952 C 459.271 952, 476.786 951.606, 480.201 950.891 C 492.428 948.333, 504.445 938.948, 510.015 927.606 C 518.544 910.241, 515.109 886.497, 502.169 873.371 C 499.528 870.692, 495.108 867.274, 492.347 865.777 C 482.439 860.401, 478.479 860.031, 430.750 860.015 L 387 860 387 906 M 972 895.088 C 944.167 898.660, 921.134 909.643, 902.750 928.107 L 894 936.895 894 919.447 L 894 902 855 902 L 816 902 816 1113 L 816 1324 855 1324 L 894 1324 894 1246.416 L 894 1168.831 902.846 1177.736 C 923.963 1198.995, 949.935 1209.991, 983 1211.674 C 1035.457 1214.344, 1085.029 1187.739, 1113.752 1141.500 C 1140.125 1099.045, 1145.734 1045.153, 1128.871 996.247 C 1123.915 981.876, 1119.020 972.115, 1110.141 958.898 C 1086.481 923.681, 1050.707 900.985, 1009.500 895.048 C 1001.321 893.870, 981.325 893.891, 972 895.088 M 1275.500 894.987 C 1235.393 899.848, 1203.405 920.011, 1189.015 949.500 C 1183.152 961.514, 1180.948 970.520, 1180.329 985 C 1179.618 1001.609, 1181.966 1013.545, 1188.564 1026.868 C 1200.927 1051.829, 1226.095 1067.595, 1276 1081.641 C 1306.407 1090.199, 1321.084 1095.834, 1327.895 1101.565 C 1339.443 1111.282, 1336.479 1128.094, 1321.905 1135.531 C 1311.017 1141.088, 1289.059 1142.498, 1274.500 1138.574 C 1257.058 1133.873, 1243.341 1122.171, 1237.398 1106.922 C 1236.450 1104.490, 1235.561 1102.350, 1235.421 1102.167 C 1235.194 1101.869, 1169.124 1138.610, 1168.061 1139.625 C 1167.348 1140.307, 1171.855 1148.979, 1176.832 1156.500 C 1182.208 1164.624, 1195.068 1178.378, 1203.015 1184.504 C 1227.214 1203.157, 1264.860 1213.429, 1302.509 1211.652 C 1340.326 1209.867, 1369.330 1198.735, 1390.067 1178.047 C 1408.279 1159.876, 1415.856 1139.569, 1414.692 1112.043 C 1413.996 1095.580, 1412.304 1088.245, 1406.493 1076.500 C 1392.933 1049.093, 1369.242 1034.910, 1309.660 1018.529 C 1276.124 1009.309, 1265.826 1004.012, 1261.553 993.782 C 1258.338 986.085, 1260.712 977.970, 1268.005 971.728 C 1274.741 965.962, 1280.343 964.495, 1295.500 964.528 C 1307.362 964.554, 1309.060 964.793, 1314.894 967.266 C 1324 971.127, 1331.228 976.975, 1336.934 985.100 C 1339.655 988.975, 1342.049 992.647, 1342.253 993.260 C 1342.571 994.213, 1401.868 962.758, 1407.389 958.709 C 1409.190 957.388, 1409.031 956.956, 1403.984 949.476 C 1393.179 933.464, 1375.807 917.792, 1359.464 909.314 C 1349.546 904.169, 1333.662 898.601, 1322.781 896.456 C 1313.203 894.569, 1285.943 893.721, 1275.500 894.987 M 666 1053 L 666 1204 705 1204 L 744 1204 744 1053 L 744 902 705 902 L 666 902 666 1053 M 1421 902.678 C 1421 903.062, 1448.690 968.697, 1482.532 1048.532 L 1544.065 1193.688 1540.573 1201.968 C 1527.185 1233.711, 1506.971 1248.674, 1474.750 1250.692 L 1465 1251.302 1465 1287.788 L 1465 1324.273 1482.250 1323.705 C 1513.083 1322.690, 1534.452 1316.194, 1556.990 1300.987 C 1582.686 1283.647, 1604.917 1253.278, 1620.300 1214.500 C 1623.842 1205.573, 1734 903.207, 1734 902.413 C 1734 902.186, 1715.213 902.002, 1692.250 902.005 L 1650.500 902.011 1617.500 1002.004 C 1599.350 1057, 1584.238 1101.998, 1583.917 1101.999 C 1583.596 1101.999, 1565.981 1057.112, 1544.771 1002.250 L 1506.209 902.500 1463.605 902.239 C 1440.172 902.096, 1421 902.293, 1421 902.678 M 965.500 969.128 C 920.334 974.774, 891.092 1012.526, 895.023 1060.118 C 896.132 1073.552, 898.803 1083.865, 903.668 1093.500 C 914.212 1114.385, 931.726 1128.549, 954.500 1134.611 C 964.410 1137.249, 989.559 1137.253, 999.500 1134.619 C 1023.766 1128.190, 1042.352 1112.809, 1052.406 1090.840 C 1058.370 1077.806, 1059.510 1071.578, 1059.421 1052.500 C 1059.349 1036.977, 1059.105 1034.722, 1056.617 1026.549 C 1052.112 1011.752, 1046.844 1002.794, 1036.530 992.397 C 1023.081 978.839, 1010.294 972.503, 990.301 969.489 C 979.562 967.870, 975.978 967.818, 965.500 969.128 M 387 1076 L 387 1125 438.772 1125 C 486.001 1125, 491.126 1124.838, 497.189 1123.157 C 513.139 1118.734, 525.540 1105.533, 529.492 1088.769 C 532.364 1076.591, 530.795 1062.450, 525.391 1051.785 C 522.027 1045.147, 512.852 1035.972, 506.213 1032.608 C 495.394 1027.126, 493.872 1027, 438.290 1027 L 387 1027 387 1076 M 1329.077 1355.773 C 1325.593 1357.689, 1322 1363.015, 1322 1366.267 C 1322 1372.388, 1328.378 1378.988, 1334.300 1378.996 C 1340.330 1379.004, 1346.987 1372.829, 1346.996 1367.218 C 1347.012 1357.869, 1336.953 1351.445, 1329.077 1355.773 M 1076 1409.969 L 1076 1463.090 1103.250 1462.795 C 1130.199 1462.503, 1130.561 1462.471, 1136 1459.909 C 1150.102 1453.265, 1156.876 1438.405, 1152.564 1423.572 C 1151.275 1419.138, 1149.711 1416.616, 1145.869 1412.774 L 1140.856 1407.760 1143.314 1405.130 C 1148.178 1399.926, 1149.483 1396.088, 1149.479 1387 C 1149.477 1380.239, 1149.039 1377.682, 1147.340 1374.500 C 1144.158 1368.542, 1138.324 1363.046, 1132.067 1360.111 C 1126.598 1357.546, 1126.054 1357.494, 1101.250 1357.174 L 1076 1356.848 1076 1409.969 M 1097 1388.397 L 1097 1400 1108.099 1400 C 1124.807 1400, 1128.686 1397.339, 1128.115 1386.266 C 1128.052 1385.037, 1126.687 1382.562, 1125.082 1380.766 L 1122.165 1377.500 1109.582 1377.147 L 1097 1376.794 1097 1388.397 M 1272.140 1386.510 C 1260.396 1389.808, 1252.976 1398.678, 1253.022 1409.364 C 1253.072 1421.156, 1259.694 1427.465, 1277.812 1432.983 C 1287.400 1435.904, 1292 1438.518, 1292 1441.045 C 1292 1441.620, 1290.895 1443.195, 1289.545 1444.545 C 1284.885 1449.206, 1272.674 1447.103, 1269.227 1441.048 C 1268.277 1439.379, 1267.050 1438.014, 1266.500 1438.016 C 1264.884 1438.022, 1250.687 1446.399, 1250.303 1447.574 C 1249.532 1449.925, 1256.921 1457.680, 1263.148 1461.056 C 1269.384 1464.437, 1269.719 1464.500, 1281.500 1464.500 C 1292.567 1464.500, 1293.889 1464.294, 1298.500 1461.843 C 1307.767 1456.919, 1312 1450.303, 1312 1440.744 C 1312 1429.620, 1304.892 1422.043, 1290.660 1417.994 C 1277.454 1414.238, 1274.537 1412.763, 1274.178 1409.662 C 1273.762 1406.069, 1275.247 1404.364, 1279.483 1403.569 C 1283.731 1402.772, 1288.927 1404.821, 1291.746 1408.404 L 1293.828 1411.051 1302.367 1406.372 C 1311.924 1401.136, 1311.897 1401.243, 1305.343 1394.613 C 1297.416 1386.594, 1283.732 1383.254, 1272.140 1386.510 M 1398.500 1385.623 C 1392.180 1387.227, 1389.340 1388.602, 1385.869 1391.737 L 1382 1395.233 1382 1391.080 L 1382 1386.928 1372.250 1387.214 L 1362.500 1387.500 1362.238 1425.250 L 1361.976 1463 1371.894 1463 L 1381.813 1463 1382.156 1439.750 C 1382.465 1418.888, 1382.705 1416.096, 1384.500 1412.565 C 1387.275 1407.105, 1390.891 1404.747, 1397.209 1404.280 C 1403.892 1403.786, 1408.824 1406.147, 1411.248 1411 C 1412.769 1414.043, 1412.997 1417.666, 1412.998 1438.750 L 1413 1463 1423.056 1463 L 1433.113 1463 1432.806 1434.250 C 1432.512 1406.630, 1432.411 1405.334, 1430.244 1401.278 C 1426.693 1394.632, 1422.444 1390.437, 1416.810 1388.014 C 1411.714 1385.821, 1402.472 1384.615, 1398.500 1385.623 M 1477.176 1386.070 C 1462.920 1388.875, 1452.095 1398.646, 1447.501 1412.854 C 1444.860 1421.024, 1445.734 1434.559, 1449.431 1442.722 C 1452.880 1450.341, 1460.638 1458.004, 1468.747 1461.804 C 1474.033 1464.281, 1475.514 1464.500, 1487 1464.500 C 1498.408 1464.500, 1499.990 1464.270, 1505.106 1461.871 C 1510.509 1459.338, 1520 1451.372, 1520 1449.370 C 1520 1448.348, 1505.962 1440, 1504.242 1440 C 1503.694 1440, 1502.627 1440.746, 1501.872 1441.658 C 1497.243 1447.253, 1484.635 1448.616, 1476.234 1444.429 C 1471.841 1442.240, 1467 1437.112, 1467 1434.648 C 1467 1434.309, 1479.713 1433.912, 1495.250 1433.766 L 1523.500 1433.500 1523.484 1424 C 1523.470 1415.484, 1523.149 1413.822, 1520.382 1407.953 C 1518.684 1404.352, 1515.866 1399.778, 1514.120 1397.789 C 1505.366 1387.819, 1491.170 1383.316, 1477.176 1386.070 M 1552 1386.543 C 1544.828 1388.544, 1539.672 1392.027, 1536.270 1397.168 C 1534.051 1400.522, 1533.461 1402.682, 1533.203 1408.410 C 1532.629 1421.167, 1537.993 1426.735, 1556.468 1432.554 C 1568.350 1436.296, 1571.378 1438.318, 1570.830 1442.143 C 1570.403 1445.124, 1566.659 1446.968, 1561 1446.982 C 1555.905 1446.994, 1551.014 1444.477, 1548.410 1440.502 C 1547.475 1439.076, 1546.213 1438.042, 1545.605 1438.205 C 1542.720 1438.976, 1530.013 1446.630, 1530.007 1447.600 C 1529.993 1449.909, 1536.276 1457.219, 1540.669 1460.005 C 1546.800 1463.893, 1553.989 1465.362, 1564.128 1464.798 C 1582.820 1463.759, 1593.264 1453.689, 1591.680 1438.232 C 1590.604 1427.721, 1584.986 1422.664, 1568.615 1417.468 C 1562.851 1415.639, 1557.235 1413.661, 1556.135 1413.072 C 1553.238 1411.522, 1552.484 1408.227, 1554.514 1405.985 C 1558.362 1401.732, 1566.926 1402.747, 1571.328 1407.978 L 1573.721 1410.822 1581.561 1406.559 C 1585.873 1404.215, 1589.586 1401.742, 1589.812 1401.063 C 1590.541 1398.877, 1579.760 1389.448, 1574.432 1387.613 C 1567.286 1385.150, 1558.494 1384.730, 1552 1386.543 M 1618 1386.543 C 1610.828 1388.544, 1605.672 1392.027, 1602.270 1397.168 C 1600.051 1400.522, 1599.461 1402.682, 1599.203 1408.410 C 1598.629 1421.167, 1603.993 1426.735, 1622.468 1432.554 C 1634.350 1436.296, 1637.378 1438.318, 1636.830 1442.143 C 1636.403 1445.124, 1632.659 1446.968, 1627 1446.982 C 1621.905 1446.994, 1617.014 1444.477, 1614.410 1440.502 C 1613.475 1439.076, 1612.213 1438.042, 1611.605 1438.205 C 1608.720 1438.976, 1596.013 1446.630, 1596.007 1447.600 C 1595.993 1449.909, 1602.276 1457.219, 1606.669 1460.005 C 1612.800 1463.893, 1619.989 1465.362, 1630.128 1464.798 C 1648.820 1463.759, 1659.264 1453.689, 1657.680 1438.232 C 1656.604 1427.721, 1650.986 1422.664, 1634.615 1417.468 C 1628.851 1415.639, 1623.235 1413.661, 1622.135 1413.072 C 1619.238 1411.522, 1618.484 1408.227, 1620.514 1405.985 C 1624.362 1401.732, 1632.926 1402.747, 1637.328 1407.978 L 1639.721 1410.822 1647.561 1406.559 C 1651.873 1404.215, 1655.586 1401.742, 1655.812 1401.063 C 1656.541 1398.877, 1645.760 1389.448, 1640.432 1387.613 C 1633.286 1385.150, 1624.494 1384.730, 1618 1386.543 M 1167.194 1415.750 L 1167.500 1444.500 1170.144 1449.508 C 1171.598 1452.262, 1174.073 1455.814, 1175.644 1457.401 C 1185.420 1467.280, 1205.356 1467.709, 1215.250 1458.254 L 1218 1455.626 1218 1459.313 L 1218 1463 1228 1463 L 1238 1463 1238 1425 L 1238 1387 1228.078 1387 L 1218.156 1387 1217.828 1411.250 C 1217.527 1433.499, 1217.332 1435.786, 1215.465 1438.965 C 1212.590 1443.858, 1207.717 1446.429, 1201.316 1446.429 C 1195.168 1446.429, 1191.442 1444.204, 1188.752 1438.929 C 1187.229 1435.944, 1187.003 1432.361, 1187.002 1411.250 L 1187 1387 1176.944 1387 L 1166.887 1387 1167.194 1415.750 M 1325 1424.964 L 1325 1463 1335.012 1463 L 1345.024 1463 1344.762 1425.250 L 1344.500 1387.500 1334.750 1387.214 L 1325 1386.928 1325 1424.964 M 1480.685 1403.968 C 1476.097 1404.856, 1472.286 1407.529, 1469.250 1411.990 C 1465.148 1418.017, 1465.101 1418, 1485.500 1418 C 1495.675 1418, 1504 1417.757, 1504 1417.460 C 1504 1415.540, 1499.567 1408.828, 1497.173 1407.123 C 1494.787 1405.424, 1486.806 1402.812, 1485 1403.139 C 1484.725 1403.189, 1482.783 1403.562, 1480.685 1403.968 M 1097 1430.926 L 1097 1443 1110.596 1443 C 1126.525 1443, 1129.037 1442.087, 1131.604 1435.367 C 1133.529 1430.326, 1132.424 1425.688, 1128.393 1421.897 C 1125.987 1419.633, 1125.042 1419.482, 1111.422 1419.176 L 1097 1418.852 1097 1430.926" stroke="none" fill="#6d7074" fill-rule="evenodd"/>
</svg>