<svg xmlns="http://www.w3.org/2000/svg" width="2000" height="2000" viewBox="0 0 2000 2000" version="1.1">
	<path d="M 693 772.433 C 669.656 778.939, 653.862 803.075, 657.825 826.185 C 661.810 849.422, 681.265 866, 704.550 866 C 723.083 866, 739.307 856.105, 747.444 839.839 C 754.133 826.470, 754.182 812.315, 747.588 798.500 C 743.430 789.789, 738.721 784.315, 730.883 779.081 C 719.841 771.707, 704.969 769.097, 693 772.433 M 304 992.475 L 304 1203.064 403.750 1202.768 C 502.298 1202.475, 503.616 1202.445, 513.158 1200.277 C 525.847 1197.395, 533.539 1194.773, 544.586 1189.565 C 597.929 1164.419, 624.332 1108.209, 609.907 1050.500 C 605.378 1032.384, 591.820 1010.760, 577.230 998.382 C 571.716 993.704, 568.457 991.355, 559.132 985.335 C 558.930 985.205, 562.370 981.527, 566.776 977.162 C 586.356 957.765, 596.488 934.786, 597.711 907 C 600.134 851.944, 568.583 806.866, 515.441 789.458 C 494.304 782.534, 496.482 782.664, 395.250 782.255 L 304 781.885 304 992.475 M 387 906 L 387 952 432.395 952 C 483.313 952, 484.945 951.808, 495.649 944.566 C 521.441 927.117, 521.441 884.883, 495.649 867.434 C 484.945 860.192, 483.313 860, 432.395 860 L 387 860 387 906 M 976.252 895.070 C 945.572 898.037, 921.824 908.956, 901.951 929.234 L 894 937.347 894 919.673 L 894 902 855.500 902 L 817 902 817 1113 L 817 1324 855.500 1324 L 894 1324 894 1246.146 L 894 1168.293 903.750 1177.954 C 918.019 1192.095, 930.254 1199.518, 949.102 1205.472 C 961.952 1209.532, 974.055 1211.270, 990 1211.345 C 1007.843 1211.430, 1016.766 1210.034, 1033.503 1204.541 C 1057.636 1196.622, 1072.903 1187.154, 1091.565 1168.536 C 1113.968 1146.187, 1128.490 1118.721, 1135.104 1086.188 C 1137.705 1073.393, 1138.712 1045.776, 1137.065 1032.388 C 1130.327 977.615, 1098.731 931.232, 1052.763 908.633 C 1036.112 900.446, 1024.156 897.054, 1004.755 895.010 C 994.296 893.908, 988.136 893.921, 976.252 895.070 M 1282.500 894.610 C 1228.938 900.181, 1193.891 925.473, 1182.886 966.500 C 1179.862 977.772, 1179.849 1000.021, 1182.860 1011.296 C 1189.205 1035.057, 1203.660 1051.263, 1230.328 1064.513 C 1244.095 1071.353, 1255.560 1075.391, 1288.324 1084.939 C 1312.230 1091.906, 1321.906 1096.029, 1328.402 1102.016 C 1338.465 1111.292, 1337.376 1125.616, 1326.009 1133.494 C 1318.899 1138.421, 1311.793 1140.223, 1297.408 1140.746 C 1282.758 1141.279, 1272.566 1139.429, 1262 1134.319 C 1253.790 1130.349, 1242.188 1118.254, 1238.458 1109.777 C 1236.831 1106.079, 1235.113 1103.042, 1234.640 1103.027 C 1233.882 1103.003, 1176.108 1134.957, 1170.195 1138.671 L 1167.890 1140.118 1171.941 1147.628 C 1192.533 1185.805, 1231.239 1207.905, 1282.724 1210.881 C 1323.708 1213.251, 1357.785 1204.259, 1382.808 1184.473 C 1406.359 1165.850, 1417.988 1135.912, 1414.067 1104 C 1408.825 1061.344, 1381.703 1038.078, 1317.286 1020.981 C 1270.391 1008.535, 1259.068 1001.560, 1260.206 985.823 C 1260.793 977.710, 1264.514 972.510, 1272.710 968.347 C 1285.917 961.639, 1303.462 961.673, 1317.697 968.433 C 1327.758 973.211, 1334.028 979.250, 1341.317 991.180 L 1342.955 993.860 1375.727 975.920 C 1393.752 966.053, 1408.362 957.460, 1408.194 956.823 C 1407.275 953.343, 1396.268 939.268, 1388 931 C 1364.806 907.806, 1335.107 895.649, 1299 894.568 C 1292.125 894.362, 1284.700 894.381, 1282.500 894.610 M 666.678 902.655 C 666.305 903.028, 666 970.758, 666 1053.167 L 666 1203 705.003 1203 L 744.006 1203 743.753 1052.750 L 743.500 902.500 705.428 902.238 C 684.489 902.094, 667.051 902.282, 666.678 902.655 M 1421.706 902.750 C 1421.480 903.163, 1447.541 965.375, 1479.621 1041 C 1511.700 1116.625, 1539.391 1181.987, 1541.155 1186.248 L 1544.363 1193.997 1541.014 1201.748 C 1526.852 1234.532, 1508.027 1248.678, 1475.706 1250.823 L 1465.500 1251.500 1465.500 1287.500 L 1465.500 1323.500 1473 1323.826 C 1489.095 1324.525, 1511.308 1321.284, 1527.096 1315.933 C 1537.892 1312.274, 1554.490 1303.090, 1564.233 1295.384 C 1586.816 1277.522, 1606.910 1247.953, 1620.897 1212 C 1627.720 1194.463, 1732.225 906.999, 1732.782 904.239 L 1733.237 901.978 1691.988 902.239 L 1650.739 902.500 1617.619 1002.749 C 1599.404 1057.885, 1584.244 1102.998, 1583.932 1102.999 C 1583.619 1102.999, 1566.112 1058.338, 1545.027 1003.750 C 1523.941 949.163, 1506.255 903.938, 1505.723 903.250 C 1504.976 902.286, 1495.309 902, 1463.437 902 C 1440.711 902, 1421.933 902.337, 1421.706 902.750 M 960.881 969.488 C 943.488 972.798, 930.127 979.696, 918.414 991.412 C 908.837 1000.992, 902.885 1010.590, 898.967 1022.772 C 891.260 1046.739, 892.859 1072.103, 903.424 1093.500 C 917.267 1121.534, 943.607 1137.228, 977 1137.340 C 1001.468 1137.423, 1020.432 1130.075, 1036.408 1114.324 C 1047.179 1103.705, 1053.565 1092.188, 1058.214 1075 C 1061.200 1063.959, 1061.168 1042.803, 1058.146 1030.500 C 1050.800 1000.591, 1029.223 978.419, 1000.125 970.878 C 989.897 968.228, 971.017 967.559, 960.881 969.488 M 387 1076.500 L 387 1126 435.912 1126 C 495.867 1126, 499.433 1125.534, 512.038 1116.064 C 524.628 1106.604, 531.068 1093.116, 531.105 1076.132 C 531.153 1053.562, 519.821 1036.768, 499.584 1029.423 L 492.909 1027 439.955 1027 L 387 1027 387 1076.500 M 1329.388 1355.980 C 1320.855 1359.428, 1320.997 1373.398, 1329.607 1377.484 C 1333.682 1379.418, 1335.375 1379.391, 1339.734 1377.322 C 1344.542 1375.041, 1347.357 1368.878, 1345.939 1363.742 C 1344.009 1356.751, 1336.358 1353.164, 1329.388 1355.980 M 1076.750 1357.565 C 1076.338 1357.988, 1076 1381.883, 1076 1410.667 L 1076 1463 1100.895 1463 C 1122.943 1463, 1126.528 1462.772, 1132.248 1461.005 C 1144.994 1457.068, 1153.412 1445.931, 1153.412 1433.002 C 1153.412 1424.026, 1151.039 1418.246, 1145.059 1412.652 C 1140.507 1408.394, 1140.318 1408.022, 1141.959 1406.537 C 1142.920 1405.667, 1144.993 1402.603, 1146.565 1399.728 C 1152.351 1389.148, 1149.551 1374.176, 1140.258 1365.996 C 1131.935 1358.670, 1127.753 1357.736, 1101 1357.236 C 1088.075 1356.995, 1077.162 1357.143, 1076.750 1357.565 M 1097 1388.579 L 1097 1400.159 1110.089 1399.829 C 1123.006 1399.504, 1123.210 1399.463, 1125.582 1396.703 C 1128.800 1392.958, 1129.503 1389.621, 1128.077 1384.862 C 1126.132 1378.372, 1122.778 1377.008, 1108.750 1377.004 L 1097 1377 1097 1388.579 M 1274 1386.437 C 1266.806 1387.967, 1263.145 1389.991, 1258.729 1394.879 C 1254.476 1399.585, 1252.554 1405.728, 1253.400 1411.903 C 1254.771 1421.904, 1260.901 1427.207, 1277.232 1432.519 C 1289.032 1436.357, 1292 1438.093, 1292 1441.155 C 1292 1445.064, 1288.466 1447, 1281.329 1447 C 1274.752 1447, 1274.597 1446.937, 1270.452 1442.612 L 1266.247 1438.223 1258.127 1442.668 L 1250.007 1447.114 1251.439 1449.882 C 1253.478 1453.826, 1260.470 1459.864, 1265.878 1462.352 C 1269.705 1464.113, 1272.393 1464.478, 1281.500 1464.475 C 1291.511 1464.472, 1293.015 1464.220, 1298.229 1461.673 C 1313.424 1454.251, 1316.697 1437.192, 1305.087 1425.927 C 1301.167 1422.124, 1298.870 1420.891, 1291.437 1418.599 C 1279.109 1414.798, 1276.765 1413.896, 1274.750 1412.180 C 1269.186 1407.442, 1278.028 1401.204, 1286.395 1403.965 C 1288.360 1404.614, 1290.892 1406.318, 1292.020 1407.752 L 1294.071 1410.360 1301.765 1406.242 C 1305.996 1403.977, 1309.610 1401.669, 1309.796 1401.112 C 1309.981 1400.556, 1308.302 1398.113, 1306.064 1395.685 C 1298.660 1387.653, 1285.769 1383.935, 1274 1386.437 M 1399.461 1386.089 C 1393.691 1386.823, 1388.711 1389.095, 1384.750 1392.801 L 1382 1395.374 1382 1391.687 L 1382 1388 1372.500 1388 L 1363 1388 1363 1425.500 L 1363 1463 1372.500 1463 L 1382 1463 1382 1440.649 C 1382 1417.334, 1382.545 1413.424, 1386.389 1409.155 C 1391.282 1403.720, 1400.620 1402.251, 1406.701 1405.960 C 1412.989 1409.793, 1413.432 1411.831, 1413.826 1438.750 L 1414.182 1463 1423.591 1463 L 1433 1463 1433 1437.710 C 1433 1410.031, 1432.209 1404.295, 1427.386 1397.007 C 1424.927 1393.292, 1417.018 1387.075, 1414.579 1386.940 C 1413.985 1386.908, 1411.475 1386.558, 1409 1386.164 C 1406.525 1385.770, 1402.233 1385.737, 1399.461 1386.089 M 1479.328 1386.165 C 1456.333 1388.761, 1441.314 1412.196, 1447.411 1435.967 C 1452.669 1456.466, 1473.558 1468.495, 1496.172 1464.046 C 1504.198 1462.467, 1509.065 1459.954, 1515.182 1454.233 C 1520.837 1448.944, 1520.913 1449.134, 1510.882 1443.616 C 1504.793 1440.267, 1504.154 1440.109, 1502.882 1441.646 C 1498.343 1447.131, 1483.966 1448.789, 1475.970 1444.750 C 1471.680 1442.583, 1467 1437.158, 1467 1434.352 C 1467 1433.248, 1472.136 1433, 1494.981 1433 L 1522.962 1433 1523.650 1430.260 C 1524.028 1428.753, 1523.830 1424.037, 1523.209 1419.780 C 1519.842 1396.680, 1502.675 1383.529, 1479.328 1386.165 M 1553.972 1386.386 C 1542.274 1388.848, 1534.373 1396.515, 1533.248 1406.496 C 1532.482 1413.285, 1533.758 1417.727, 1537.738 1422.132 C 1542.096 1426.955, 1545.432 1428.710, 1558.374 1432.985 C 1571.851 1437.438, 1574.806 1440.648, 1569.365 1444.927 C 1563.802 1449.303, 1551.079 1446.856, 1547.928 1440.804 C 1547.269 1439.537, 1546.605 1438.352, 1546.453 1438.172 C 1546.101 1437.753, 1530 1447.018, 1530 1447.641 C 1530 1448.855, 1534.839 1455.001, 1537.668 1457.378 C 1544.200 1462.867, 1549.550 1464.500, 1561 1464.500 C 1567.860 1464.500, 1572.713 1464, 1575 1463.058 C 1587.738 1457.811, 1593.586 1448.039, 1590.971 1436.372 C 1589.731 1430.836, 1586.168 1425.694, 1581.634 1422.895 C 1579.910 1421.830, 1573.503 1419.389, 1567.396 1417.470 C 1555.442 1413.713, 1552.387 1411.578, 1553.369 1407.667 C 1554.783 1402.034, 1564.992 1401.661, 1570.541 1407.039 L 1573.751 1410.151 1580.625 1406.617 C 1591.162 1401.202, 1590.778 1401.709, 1587.549 1397.475 C 1580.559 1388.310, 1566.653 1383.718, 1553.972 1386.386 M 1619.972 1386.386 C 1608.274 1388.848, 1600.373 1396.515, 1599.248 1406.496 C 1598.482 1413.285, 1599.758 1417.727, 1603.738 1422.132 C 1608.096 1426.955, 1611.432 1428.710, 1624.374 1432.985 C 1637.851 1437.438, 1640.806 1440.648, 1635.365 1444.927 C 1629.802 1449.303, 1617.079 1446.856, 1613.928 1440.804 C 1613.269 1439.537, 1612.605 1438.352, 1612.453 1438.172 C 1612.101 1437.753, 1596 1447.018, 1596 1447.641 C 1596 1448.855, 1600.839 1455.001, 1603.668 1457.378 C 1610.200 1462.867, 1615.550 1464.500, 1627 1464.500 C 1633.860 1464.500, 1638.713 1464, 1641 1463.058 C 1653.738 1457.811, 1659.586 1448.039, 1656.971 1436.372 C 1655.731 1430.836, 1652.168 1425.694, 1647.634 1422.895 C 1645.910 1421.830, 1639.503 1419.389, 1633.396 1417.470 C 1621.442 1413.713, 1618.387 1411.578, 1619.369 1407.667 C 1620.783 1402.034, 1630.992 1401.661, 1636.541 1407.039 L 1639.751 1410.151 1646.625 1406.617 C 1657.162 1401.202, 1656.778 1401.709, 1653.549 1397.475 C 1646.559 1388.310, 1632.653 1383.718, 1619.972 1386.386 M 1167 1412.451 C 1167 1444.053, 1168.395 1450.750, 1176.455 1457.826 C 1183 1463.573, 1185.672 1464.504, 1195.500 1464.460 C 1205.172 1464.417, 1210.542 1462.549, 1215.634 1457.457 L 1218 1455.091 1218 1459.045 L 1218 1463 1228 1463 L 1238 1463 1238 1425.500 L 1238 1388 1228 1388 L 1218 1388 1218 1410.351 C 1218 1433.658, 1217.459 1437.544, 1213.611 1441.879 C 1206.930 1449.406, 1193.049 1448.310, 1188.752 1439.915 C 1187.229 1436.941, 1187.003 1433.366, 1187.002 1412.250 L 1187 1388 1177 1388 L 1167 1388 1167 1412.451 M 1325 1425.500 L 1325 1463 1334.500 1463 L 1344 1463 1344 1425.500 L 1344 1388 1334.500 1388 L 1325 1388 1325 1425.500 M 1478.256 1404.117 C 1474.255 1405.273, 1468.631 1410.750, 1467.184 1414.901 L 1466.104 1418 1485.052 1418 C 1497.615 1418, 1504 1417.646, 1504 1416.950 C 1504 1415.134, 1501.285 1410.589, 1498.831 1408.298 C 1493.743 1403.547, 1485.812 1401.935, 1478.256 1404.117 M 1097 1431 L 1097 1443 1111.365 1443 C 1124.341 1443, 1125.983 1442.801, 1128.341 1440.946 C 1134.431 1436.156, 1134.066 1424.840, 1127.696 1420.956 C 1124.938 1419.275, 1122.615 1419.007, 1110.750 1419.004 L 1097 1419 1097 1431" stroke="none" fill="#6d7074" fill-rule="evenodd"/>
</svg>