<svg xmlns="http://www.w3.org/2000/svg" width="2000" height="2000" viewBox="0 0 2000 2000" version="1.1">
	<rect x="0" y="0" width="100%" height="100%" fill="#2f343a" />
	<path d="M 697.655 771.148 C 688.213 772.447, 678.352 777.824, 670.874 785.751 C 661.180 796.027, 657.073 805.929, 657.024 819.145 C 656.941 841.945, 674.526 862.181, 697.908 866.191 C 712.001 868.608, 727.666 863.318, 738.490 852.487 C 750.982 839.988, 755.419 824.886, 751.492 808.231 C 749.533 799.919, 746.193 793.543, 740.457 787.164 C 729.141 774.577, 713.975 768.902, 697.655 771.148 M 304 993 L 304 1204 395.250 1203.983 C 485.939 1203.965, 497.486 1203.614, 513.460 1200.390 C 558.726 1191.251, 595.496 1159.622, 608.359 1118.758 C 617.336 1090.240, 615.477 1057.422, 603.466 1032.382 C 595.697 1016.184, 581.642 999.877, 566.963 990.027 C 563.408 987.642, 560.319 985.542, 560.098 985.360 C 559.877 985.178, 563.374 981.198, 567.870 976.515 C 590.763 952.670, 600.345 925.167, 597.787 890.649 C 596.136 868.369, 586.918 844.984, 572.988 827.734 C 554.026 804.255, 525.025 788.501, 491.638 783.543 C 482.873 782.242, 467.348 782, 392.622 782 L 304 782 304 993 M 387 905.946 L 387 952 430.951 952 C 459.707 952, 476.734 951.611, 480.201 950.875 C 507.047 945.174, 521.624 916.095, 511.549 888.340 C 507.249 876.493, 498.676 867.951, 485.781 862.668 C 480.667 860.572, 479.020 860.494, 433.750 860.197 L 387 859.891 387 905.946 M 969.132 895.509 C 941.802 899.693, 921.067 909.880, 902.750 928.123 L 894 936.838 894 919.419 L 894 902 855 902 L 816 902 816 1113 L 816 1324 855 1324 L 894 1324 894 1246.419 L 894 1168.838 903.053 1177.890 C 920.170 1195.008, 939.177 1204.727, 966.143 1210.152 C 976.787 1212.293, 1005.521 1211.747, 1017.604 1209.174 C 1057.145 1200.752, 1088.502 1179.341, 1111.333 1145.174 C 1143.083 1097.661, 1147.168 1033.232, 1121.869 979.015 C 1109.930 953.429, 1086.721 927.751, 1062.804 913.664 C 1051.737 907.146, 1037.041 901.231, 1023.596 897.883 C 1013.219 895.299, 1009.156 894.815, 995 894.473 C 983.805 894.203, 975.488 894.536, 969.132 895.509 M 1275.174 895.044 C 1215.742 902.486, 1177.829 941.636, 1180.313 993 C 1181.347 1014.396, 1187.694 1030.402, 1200.491 1043.885 C 1216.835 1061.104, 1233.812 1069.073, 1290.008 1085.903 C 1317.217 1094.052, 1325.458 1097.911, 1331.355 1105.265 C 1337.235 1112.599, 1335.893 1124.124, 1328.342 1131.140 C 1318.607 1140.184, 1293.392 1143.665, 1274.500 1138.574 C 1257.058 1133.873, 1243.341 1122.171, 1237.398 1106.922 C 1236.450 1104.490, 1235.574 1102.363, 1235.450 1102.196 C 1235.249 1101.924, 1169.132 1138.665, 1168.061 1139.643 C 1167.354 1140.289, 1171.646 1148.525, 1176.741 1156.298 C 1182.945 1165.762, 1197.347 1180.611, 1206.329 1186.803 C 1226.091 1200.426, 1249.585 1208.453, 1277.383 1211.078 C 1336.245 1216.636, 1387.822 1194.439, 1406.521 1155.500 C 1412.855 1142.311, 1414.454 1134.474, 1414.478 1116.500 C 1414.500 1100.183, 1413.743 1094.875, 1409.839 1084 C 1402.752 1064.255, 1386.036 1047.417, 1362.712 1036.527 C 1350.217 1030.693, 1340.124 1027.236, 1313.292 1019.599 C 1279.023 1009.844, 1271.127 1006.471, 1264.535 998.770 C 1257.797 990.898, 1258.740 980.854, 1266.967 972.874 C 1273.972 966.079, 1279.404 964.492, 1295.500 964.535 C 1307.399 964.566, 1309.060 964.804, 1315.114 967.337 C 1323.846 970.990, 1332.387 978.017, 1337.649 985.877 C 1339.997 989.385, 1342.078 992.735, 1342.274 993.321 C 1342.572 994.216, 1402.281 962.440, 1407.576 958.568 C 1409.181 957.395, 1408.885 956.660, 1403.911 949.455 C 1396.929 939.343, 1384.738 926.484, 1375.663 919.660 C 1361.388 908.925, 1341.283 900.103, 1322.781 896.456 C 1312.989 894.527, 1285.758 893.719, 1275.174 895.044 M 666 1053 L 666 1204 705 1204 L 744 1204 744 1053 L 744 902 705 902 L 666 902 666 1053 M 1421 902.624 C 1421 902.979, 1448.691 968.609, 1482.537 1048.469 L 1544.073 1193.668 1540.577 1201.958 C 1527.104 1233.903, 1507.169 1248.662, 1474.750 1250.692 L 1465 1251.302 1465 1287.781 L 1465 1324.260 1481.250 1323.734 C 1500.314 1323.117, 1511.569 1321.259, 1526 1316.345 C 1538.416 1312.118, 1545.921 1308.461, 1555.647 1301.899 C 1579.023 1286.129, 1596.367 1264.797, 1612.071 1232.500 C 1618.433 1219.417, 1630.257 1187.897, 1676.926 1059.611 C 1708.317 973.322, 1734 902.559, 1734 902.361 C 1734 901.553, 1651.077 902.067, 1650.575 902.878 C 1650.277 903.361, 1635.401 948.024, 1617.518 1002.128 C 1599.635 1056.233, 1584.749 1101.174, 1584.438 1101.997 C 1584.127 1102.821, 1566.389 1058.271, 1545.019 1002.997 L 1506.165 902.500 1463.583 902.239 C 1440.162 902.096, 1421 902.269, 1421 902.624 M 963 969.461 C 929.689 974.920, 905.794 996.499, 897.318 1028.776 C 892.751 1046.169, 894.080 1069.539, 900.624 1086.925 C 909.352 1110.114, 929.516 1127.961, 954.500 1134.611 C 964.410 1137.249, 989.559 1137.253, 999.500 1134.619 C 1023.941 1128.143, 1042.416 1112.811, 1052.453 1090.675 C 1058.645 1077.018, 1059.508 1072.354, 1059.424 1053 C 1059.353 1036.922, 1059.126 1034.773, 1056.620 1026.549 C 1052.004 1011.399, 1046.899 1002.815, 1036.043 991.943 C 1027.895 983.784, 1025.111 981.704, 1017 977.719 C 1000.555 969.640, 980.562 966.582, 963 969.461 M 387 1076 L 387 1125 438.772 1125 C 486.001 1125, 491.126 1124.838, 497.189 1123.157 C 513.230 1118.709, 525.517 1105.629, 529.492 1088.769 C 532.364 1076.591, 530.795 1062.450, 525.391 1051.785 C 522.027 1045.147, 512.852 1035.972, 506.213 1032.608 C 495.394 1027.126, 493.872 1027, 438.290 1027 L 387 1027 387 1076 M 1330.500 1355.391 C 1318.848 1360.580, 1320.345 1376.286, 1332.713 1378.606 C 1337.305 1379.467, 1342.389 1377.050, 1345.003 1372.763 C 1347.409 1368.817, 1347.516 1365.889, 1345.414 1361.460 C 1342.664 1355.665, 1335.985 1352.947, 1330.500 1355.391 M 1076 1409.923 L 1076 1463 1101.962 1463 C 1126.127 1463, 1128.325 1462.850, 1133.705 1460.837 C 1142.101 1457.696, 1150.277 1449.296, 1152.551 1441.474 C 1155.784 1430.351, 1152.317 1417.704, 1144.200 1411.013 L 1140.832 1408.237 1144.376 1403.595 C 1150.154 1396.025, 1151.395 1388.126, 1148.409 1377.932 C 1147.166 1373.692, 1145.566 1371.275, 1141.114 1366.914 C 1132.221 1358.203, 1130.112 1357.698, 1100.750 1357.236 L 1076 1356.846 1076 1409.923 M 1097 1388.500 L 1097 1400 1107.851 1400 C 1120.123 1400, 1124.124 1398.986, 1126.567 1395.258 C 1128.668 1392.051, 1128.914 1386.076, 1127.085 1382.659 C 1124.746 1378.288, 1120.425 1377, 1108.099 1377 L 1097 1377 1097 1388.500 M 1274.344 1386.041 C 1257.706 1389.333, 1248.469 1405.009, 1255.099 1418.704 C 1257.993 1424.682, 1263.837 1428.389, 1277.118 1432.670 C 1291.859 1437.422, 1294.960 1440.526, 1289.365 1444.927 C 1283.811 1449.296, 1271.630 1446.672, 1268.819 1440.502 C 1268.192 1439.126, 1267.280 1438, 1266.792 1438 C 1265.537 1438, 1251.122 1445.993, 1250.467 1447.053 C 1249.477 1448.655, 1255.183 1455.933, 1259.856 1459.028 C 1266.802 1463.629, 1273.792 1465.306, 1283.902 1464.798 C 1301.685 1463.904, 1311.956 1455.191, 1311.956 1441 C 1311.956 1429.515, 1306.232 1423.161, 1291.682 1418.495 C 1277.471 1413.939, 1275.004 1412.876, 1273.918 1410.846 C 1272.352 1407.920, 1275.115 1404.257, 1279.509 1403.432 C 1283.782 1402.631, 1288.143 1404.271, 1291.669 1408.008 L 1294.241 1410.732 1302.370 1406.254 C 1306.842 1403.791, 1310.618 1401.671, 1310.762 1401.543 C 1310.906 1401.414, 1309.174 1399.207, 1306.913 1396.639 C 1298.590 1387.183, 1287.240 1383.490, 1274.344 1386.041 M 1398.500 1385.623 C 1392.180 1387.227, 1389.340 1388.602, 1385.869 1391.737 L 1382 1395.233 1382 1391.080 L 1382 1386.928 1372.250 1387.214 L 1362.500 1387.500 1362.238 1425.250 L 1361.976 1463 1371.884 1463 L 1381.792 1463 1382.146 1439.250 C 1382.468 1417.672, 1382.683 1415.190, 1384.500 1412.105 C 1387.513 1406.989, 1391.190 1404.725, 1397.209 1404.280 C 1403.892 1403.786, 1408.824 1406.147, 1411.248 1411 C 1412.769 1414.043, 1412.997 1417.666, 1412.998 1438.750 L 1413 1463 1423 1463 L 1433 1463 1433 1436.038 C 1433 1406.092, 1432.403 1402.576, 1426 1394.814 C 1420.513 1388.162, 1406.694 1383.543, 1398.500 1385.623 M 1477.270 1385.994 C 1462.829 1389.050, 1452.703 1398.065, 1447.965 1412.083 C 1446.197 1417.314, 1445.868 1420.182, 1446.188 1427.602 C 1446.691 1439.299, 1450.349 1447.377, 1458.527 1454.851 C 1465.928 1461.615, 1472.835 1464.188, 1485.153 1464.769 C 1496.137 1465.288, 1502.222 1463.830, 1510.306 1458.744 C 1514.638 1456.018, 1520.867 1449.437, 1519.889 1448.620 C 1519.675 1448.441, 1516.264 1446.424, 1512.309 1444.137 L 1505.118 1439.980 1501.510 1442.429 C 1496.220 1446.019, 1491.501 1447.279, 1485.144 1446.799 C 1477.868 1446.251, 1472.498 1443.626, 1469.439 1439.125 C 1468.098 1437.151, 1467 1435.197, 1467 1434.783 C 1467 1434.370, 1479.713 1433.912, 1495.250 1433.766 L 1523.500 1433.500 1523.500 1423.948 C 1523.500 1414.928, 1523.291 1413.974, 1519.755 1406.819 C 1515.377 1397.961, 1510.343 1392.989, 1501.623 1388.915 C 1494.785 1385.719, 1484.433 1384.478, 1477.270 1385.994 M 1554.132 1386.020 C 1540.558 1388.868, 1533 1397.268, 1533 1409.508 C 1533 1421.120, 1538.928 1427.006, 1556.101 1432.444 C 1570.054 1436.862, 1571 1437.404, 1571 1440.978 C 1571 1444.911, 1567.783 1447, 1561.728 1447 C 1555.968 1447, 1552.054 1445.162, 1548.707 1440.884 L 1546.237 1437.729 1538.369 1442.023 C 1534.041 1444.385, 1530.295 1446.489, 1530.044 1446.698 C 1528.982 1447.584, 1533.756 1454.486, 1537.622 1457.653 C 1544.406 1463.213, 1551.762 1465.280, 1563 1464.786 C 1570.080 1464.474, 1573.848 1463.775, 1577.794 1462.042 C 1590.240 1456.574, 1595.342 1443.098, 1589.445 1431.265 C 1586.162 1424.678, 1580.723 1421.172, 1567.500 1417.120 C 1562 1415.435, 1556.487 1413.343, 1555.250 1412.471 C 1549.018 1408.082, 1557.183 1401.255, 1565.414 1403.972 C 1567.350 1404.611, 1570.008 1406.409, 1571.320 1407.968 L 1573.705 1410.803 1581.853 1406.343 C 1586.334 1403.890, 1590 1401.372, 1590 1400.748 C 1590 1398.304, 1579.314 1389.295, 1574.432 1387.623 C 1568.225 1385.497, 1559.797 1384.831, 1554.132 1386.020 M 1620.132 1386.020 C 1606.558 1388.868, 1599 1397.268, 1599 1409.508 C 1599 1421.120, 1604.928 1427.006, 1622.101 1432.444 C 1636.054 1436.862, 1637 1437.404, 1637 1440.978 C 1637 1444.911, 1633.783 1447, 1627.728 1447 C 1621.968 1447, 1618.054 1445.162, 1614.707 1440.884 L 1612.237 1437.729 1604.369 1442.023 C 1600.041 1444.385, 1596.295 1446.489, 1596.044 1446.698 C 1594.982 1447.584, 1599.756 1454.486, 1603.622 1457.653 C 1610.406 1463.213, 1617.762 1465.280, 1629 1464.786 C 1636.080 1464.474, 1639.848 1463.775, 1643.794 1462.042 C 1656.240 1456.574, 1661.342 1443.098, 1655.445 1431.265 C 1652.162 1424.678, 1646.723 1421.172, 1633.500 1417.120 C 1628 1415.435, 1622.487 1413.343, 1621.250 1412.471 C 1615.018 1408.082, 1623.183 1401.255, 1631.414 1403.972 C 1633.350 1404.611, 1636.008 1406.409, 1637.320 1407.968 L 1639.705 1410.803 1647.853 1406.343 C 1652.334 1403.890, 1656 1401.372, 1656 1400.748 C 1656 1398.304, 1645.314 1389.295, 1640.432 1387.623 C 1634.225 1385.497, 1625.797 1384.831, 1620.132 1386.020 M 1167.193 1415.250 C 1167.487 1442.277, 1167.600 1443.716, 1169.801 1448.500 C 1174.857 1459.485, 1183.613 1464.988, 1196 1464.968 C 1204.328 1464.955, 1210.486 1462.807, 1215.250 1458.254 L 1218 1455.626 1218 1459.313 L 1218 1463 1228 1463 L 1238 1463 1238 1425 L 1238 1387 1228.064 1387 L 1218.129 1387 1217.814 1411.250 C 1217.526 1433.514, 1217.333 1435.784, 1215.465 1438.965 C 1212.590 1443.858, 1207.717 1446.429, 1201.316 1446.429 C 1195.168 1446.429, 1191.442 1444.204, 1188.752 1438.929 C 1187.229 1435.944, 1187.003 1432.361, 1187.002 1411.250 L 1187 1387 1176.943 1387 L 1166.886 1387 1167.193 1415.250 M 1325 1424.964 L 1325 1463 1335.012 1463 L 1345.024 1463 1344.762 1425.250 L 1344.500 1387.500 1334.750 1387.214 L 1325 1386.928 1325 1424.964 M 1480.123 1403.965 C 1475.846 1405.022, 1472.122 1407.770, 1469.250 1411.990 C 1465.148 1418.017, 1465.101 1418, 1485.500 1418 C 1495.675 1418, 1504 1417.753, 1504 1417.450 C 1504 1416.377, 1500.734 1410.472, 1499.132 1408.648 C 1495.484 1404.495, 1486.718 1402.335, 1480.123 1403.965 M 1097 1431 L 1097 1443 1110.550 1443 C 1125.407 1443, 1128.504 1442.164, 1131.013 1437.476 C 1134.244 1431.439, 1131.831 1423.311, 1125.904 1420.265 C 1124.357 1419.470, 1118.774 1419.024, 1110.250 1419.015 L 1097 1419 1097 1431" stroke="none" fill="#98a5b4" fill-rule="evenodd"/>
</svg>