<svg xmlns="http://www.w3.org/2000/svg" width="2000" height="2000" viewBox="0 0 2000 2000" version="1.1">
	<path d="M 693 772.433 C 669.656 778.939, 653.862 803.075, 657.825 826.185 C 661.810 849.422, 681.265 866, 704.550 866 C 723.083 866, 739.307 856.105, 747.444 839.839 C 754.133 826.470, 754.182 812.315, 747.588 798.500 C 743.430 789.789, 738.721 784.315, 730.883 779.081 C 719.841 771.707, 704.969 769.097, 693 772.433 M 304 992.475 L 304 1203.064 403.750 1202.768 C 502.298 1202.475, 503.616 1202.445, 513.158 1200.277 C 566.038 1188.265, 601.207 1154.114, 611.727 1104.561 C 614.102 1093.372, 614.053 1069.473, 611.632 1058.204 C 605.427 1029.327, 591.068 1007.337, 567.702 990.927 C 563.936 988.282, 560.329 985.943, 559.687 985.729 C 559.045 985.515, 562.180 981.714, 566.653 977.283 C 586.362 957.759, 596.485 934.851, 597.711 907 C 600.134 851.944, 568.583 806.866, 515.441 789.458 C 494.304 782.534, 496.482 782.664, 395.250 782.255 L 304 781.885 304 992.475 M 387 906 L 387 952 432.395 952 C 483.313 952, 484.945 951.808, 495.649 944.566 C 521.441 927.117, 521.441 884.883, 495.649 867.434 C 484.945 860.192, 483.313 860, 432.395 860 L 387 860 387 906 M 976.252 895.001 C 945.030 898.281, 921.794 908.987, 901.951 929.234 L 894 937.347 894 919.673 L 894 902 855.500 902 L 817 902 817 1113 L 817 1324 855.500 1324 L 894 1324 894 1246.146 L 894 1168.293 903.750 1177.954 C 921.573 1195.616, 940.070 1204.984, 966.364 1209.666 C 978.767 1211.875, 1002.642 1211.896, 1014.628 1209.708 C 1074.937 1198.702, 1122.347 1150.120, 1135.060 1086.299 C 1137.724 1072.924, 1138.673 1049.416, 1137.122 1035.205 C 1132.486 992.724, 1113.734 955.151, 1084.500 929.768 C 1064.481 912.387, 1040.529 900.695, 1016.500 896.575 C 1004.992 894.601, 986.820 893.891, 976.252 895.001 M 1282.500 894.610 C 1228.938 900.181, 1193.894 925.472, 1182.885 966.500 C 1179.868 977.746, 1179.874 999.963, 1182.897 1011.378 C 1189.007 1034.447, 1203.092 1050.697, 1228 1063.414 C 1242.008 1070.566, 1252.659 1074.425, 1283.065 1083.363 C 1311.228 1091.641, 1321.620 1095.855, 1327.932 1101.557 C 1333.493 1106.582, 1335.270 1110.283, 1335.212 1116.724 C 1335.123 1126.548, 1328.586 1133.977, 1316.255 1138.268 C 1307.136 1141.441, 1286.842 1141.860, 1275.908 1139.101 C 1263.343 1135.930, 1257.520 1132.685, 1248.958 1124.080 C 1243.311 1118.405, 1240.673 1114.811, 1238.458 1109.777 C 1236.831 1106.079, 1235.113 1103.042, 1234.640 1103.027 C 1233.882 1103.003, 1176.108 1134.957, 1170.195 1138.671 L 1167.890 1140.118 1171.941 1147.628 C 1192.533 1185.805, 1231.239 1207.905, 1282.724 1210.881 C 1341.309 1214.269, 1387.688 1193.450, 1406.046 1155.524 C 1416.146 1134.656, 1417.696 1107.526, 1410.061 1085.239 C 1406.176 1073.898, 1401.812 1066.919, 1393 1057.956 C 1377.003 1041.683, 1359.372 1033.066, 1318.500 1021.544 C 1285.211 1012.160, 1275.461 1008.505, 1267.241 1002.332 C 1259.344 996.402, 1257.667 984.269, 1263.566 975.745 C 1272.369 963.022, 1298.789 959.454, 1317.697 968.433 C 1327.758 973.211, 1334.028 979.250, 1341.317 991.180 L 1342.955 993.860 1375.727 975.920 C 1393.752 966.053, 1408.362 957.460, 1408.194 956.823 C 1407.275 953.343, 1396.268 939.268, 1388 931 C 1364.806 907.806, 1335.107 895.649, 1299 894.568 C 1292.125 894.362, 1284.700 894.381, 1282.500 894.610 M 666.678 902.655 C 666.305 903.028, 666 970.758, 666 1053.167 L 666 1203 705.003 1203 L 744.006 1203 743.753 1052.750 L 743.500 902.500 705.428 902.238 C 684.489 902.094, 667.051 902.282, 666.678 902.655 M 1421.706 902.750 C 1421.480 903.163, 1447.541 965.375, 1479.621 1041 C 1511.700 1116.625, 1539.391 1181.987, 1541.155 1186.248 L 1544.363 1193.997 1541.014 1201.748 C 1526.852 1234.532, 1508.027 1248.678, 1475.706 1250.823 L 1465.500 1251.500 1465.500 1287.500 L 1465.500 1323.500 1473 1323.826 C 1489.095 1324.525, 1511.308 1321.284, 1527.096 1315.933 C 1537.892 1312.274, 1554.490 1303.090, 1564.233 1295.384 C 1586.816 1277.522, 1606.910 1247.953, 1620.897 1212 C 1627.720 1194.463, 1732.225 906.999, 1732.782 904.239 L 1733.237 901.978 1691.986 902.239 L 1650.735 902.500 1617.619 1002.750 C 1599.405 1057.888, 1584.243 1103, 1583.925 1103 C 1583.607 1103, 1566.100 1058.338, 1545.020 1003.750 C 1523.941 949.163, 1506.257 903.938, 1505.724 903.250 C 1504.977 902.286, 1495.308 902, 1463.437 902 C 1440.711 902, 1421.933 902.337, 1421.706 902.750 M 963 968.987 C 920.295 975.846, 891.938 1012.002, 894.363 1056.500 C 895.436 1076.188, 901.263 1093.331, 911.452 1106.776 C 939.860 1144.260, 1002.058 1148.288, 1036.160 1114.853 C 1057.665 1093.767, 1065.742 1060.543, 1057.396 1027.500 C 1055.113 1018.461, 1047.835 1004.322, 1041.592 996.795 C 1031.420 984.532, 1016.267 975.061, 1000.125 970.878 C 991.412 968.620, 971.573 967.609, 963 968.987 M 387 1076.500 L 387 1126 435.912 1126 C 495.867 1126, 499.433 1125.534, 512.038 1116.064 C 524.924 1106.381, 531.134 1093.022, 531.085 1075.091 C 531.026 1053.285, 519.571 1036.678, 499.584 1029.423 L 492.909 1027 439.955 1027 L 387 1027 387 1076.500 M 1329.388 1355.980 C 1320.855 1359.428, 1320.997 1373.398, 1329.607 1377.484 C 1333.682 1379.418, 1335.375 1379.391, 1339.734 1377.322 C 1344.542 1375.041, 1347.357 1368.878, 1345.939 1363.742 C 1344.009 1356.751, 1336.358 1353.164, 1329.388 1355.980 M 1076 1409.887 L 1076 1463 1100.895 1463 C 1130.065 1463, 1135.301 1462.008, 1143.297 1454.970 C 1156.034 1443.758, 1157.042 1424.164, 1145.469 1412.750 C 1143.378 1410.688, 1141.252 1409, 1140.744 1409 C 1140.237 1409, 1141.009 1407.590, 1142.459 1405.866 C 1147.591 1399.768, 1149.379 1395.016, 1149.372 1387.500 C 1149.359 1374.512, 1142.522 1364.685, 1130.147 1359.869 C 1125.031 1357.878, 1122.219 1357.629, 1100.250 1357.222 L 1076 1356.773 1076 1409.887 M 1097 1388.500 L 1097 1400 1108.550 1400 C 1121.494 1400, 1124.963 1398.907, 1127.483 1394.033 C 1129.372 1390.379, 1129.395 1387.881, 1127.579 1383.534 C 1125.345 1378.189, 1121.883 1377, 1108.550 1377 L 1097 1377 1097 1388.500 M 1274 1386.437 C 1266.806 1387.967, 1263.145 1389.991, 1258.729 1394.879 C 1254.476 1399.585, 1252.554 1405.728, 1253.400 1411.903 C 1254.771 1421.904, 1260.901 1427.207, 1277.232 1432.519 C 1289.032 1436.357, 1292 1438.093, 1292 1441.155 C 1292 1445.064, 1288.466 1447, 1281.329 1447 C 1274.752 1447, 1274.597 1446.937, 1270.452 1442.612 L 1266.247 1438.223 1258.127 1442.668 L 1250.007 1447.114 1251.439 1449.882 C 1253.475 1453.819, 1260.462 1459.859, 1265.878 1462.363 C 1269.726 1464.142, 1272.342 1464.496, 1281.500 1464.478 C 1291.478 1464.457, 1293.032 1464.196, 1298.229 1461.665 C 1313.421 1454.266, 1316.698 1437.193, 1305.087 1425.927 C 1301.167 1422.124, 1298.870 1420.891, 1291.437 1418.599 C 1279.109 1414.798, 1276.765 1413.896, 1274.750 1412.180 C 1269.731 1407.906, 1276.586 1401.949, 1284.758 1403.482 C 1286.860 1403.877, 1289.536 1405.433, 1291.229 1407.245 L 1294.116 1410.336 1301.787 1406.230 C 1306.006 1403.972, 1309.610 1401.669, 1309.796 1401.112 C 1309.981 1400.556, 1308.302 1398.113, 1306.064 1395.685 C 1298.660 1387.653, 1285.769 1383.935, 1274 1386.437 M 1399.461 1386.089 C 1393.691 1386.823, 1388.711 1389.095, 1384.750 1392.801 L 1382 1395.374 1382 1391.687 L 1382 1388 1372.500 1388 L 1363 1388 1363 1425.500 L 1363 1463 1372.500 1463 L 1382 1463 1382 1440.649 C 1382 1417.334, 1382.545 1413.424, 1386.389 1409.155 C 1391.282 1403.720, 1400.620 1402.251, 1406.701 1405.960 C 1412.989 1409.793, 1413.432 1411.831, 1413.826 1438.750 L 1414.182 1463 1423.591 1463 L 1433 1463 1433 1437.710 C 1433 1410.031, 1432.209 1404.295, 1427.386 1397.007 C 1424.927 1393.292, 1417.018 1387.075, 1414.579 1386.940 C 1413.985 1386.908, 1411.475 1386.558, 1409 1386.164 C 1406.525 1385.770, 1402.233 1385.737, 1399.461 1386.089 M 1479.328 1386.165 C 1456.333 1388.761, 1441.314 1412.196, 1447.411 1435.967 C 1452.669 1456.466, 1473.558 1468.495, 1496.172 1464.046 C 1504.198 1462.467, 1509.065 1459.954, 1515.182 1454.233 C 1520.837 1448.944, 1520.913 1449.134, 1510.882 1443.616 C 1504.793 1440.267, 1504.154 1440.109, 1502.882 1441.646 C 1498.343 1447.131, 1483.966 1448.789, 1475.970 1444.750 C 1471.680 1442.583, 1467 1437.158, 1467 1434.352 C 1467 1433.248, 1472.136 1433, 1494.981 1433 L 1522.962 1433 1523.650 1430.260 C 1524.028 1428.753, 1523.830 1424.037, 1523.209 1419.780 C 1519.842 1396.680, 1502.675 1383.529, 1479.328 1386.165 M 1553.838 1386.413 C 1540.452 1389.226, 1532.462 1398.603, 1533.202 1410.631 C 1533.887 1421.763, 1539.130 1426.545, 1557.273 1432.591 C 1571.884 1437.459, 1574.920 1440.558, 1569.365 1444.927 C 1563.802 1449.303, 1551.079 1446.856, 1547.928 1440.804 C 1547.269 1439.537, 1546.605 1438.352, 1546.453 1438.172 C 1546.101 1437.753, 1530 1447.018, 1530 1447.641 C 1530 1448.855, 1534.839 1455.001, 1537.668 1457.378 C 1544.200 1462.867, 1549.550 1464.500, 1561 1464.500 C 1567.860 1464.500, 1572.713 1464, 1575 1463.058 C 1587.738 1457.811, 1593.586 1448.039, 1590.971 1436.372 C 1589.731 1430.836, 1586.168 1425.694, 1581.634 1422.895 C 1579.910 1421.830, 1573.503 1419.389, 1567.396 1417.470 C 1555.442 1413.713, 1552.387 1411.578, 1553.369 1407.667 C 1554.792 1401.996, 1564.994 1401.663, 1570.607 1407.103 L 1573.883 1410.279 1580.422 1406.889 C 1590.922 1401.447, 1590.752 1401.674, 1587.514 1397.429 C 1580.528 1388.270, 1566.631 1383.724, 1553.838 1386.413 M 1619.838 1386.413 C 1606.452 1389.226, 1598.462 1398.603, 1599.202 1410.631 C 1599.887 1421.763, 1605.130 1426.545, 1623.273 1432.591 C 1637.884 1437.459, 1640.920 1440.558, 1635.365 1444.927 C 1629.802 1449.303, 1617.079 1446.856, 1613.928 1440.804 C 1613.269 1439.537, 1612.605 1438.352, 1612.453 1438.172 C 1612.101 1437.753, 1596 1447.018, 1596 1447.641 C 1596 1448.855, 1600.839 1455.001, 1603.668 1457.378 C 1610.200 1462.867, 1615.550 1464.500, 1627 1464.500 C 1633.860 1464.500, 1638.713 1464, 1641 1463.058 C 1653.738 1457.811, 1659.586 1448.039, 1656.971 1436.372 C 1655.731 1430.836, 1652.168 1425.694, 1647.634 1422.895 C 1645.910 1421.830, 1639.503 1419.389, 1633.396 1417.470 C 1621.442 1413.713, 1618.387 1411.578, 1619.369 1407.667 C 1620.792 1401.996, 1630.994 1401.663, 1636.607 1407.103 L 1639.883 1410.279 1646.422 1406.889 C 1656.922 1401.447, 1656.752 1401.674, 1653.514 1397.429 C 1646.528 1388.270, 1632.631 1383.724, 1619.838 1386.413 M 1167 1412.451 C 1167 1444.053, 1168.395 1450.750, 1176.455 1457.826 C 1183 1463.573, 1185.672 1464.504, 1195.500 1464.460 C 1205.172 1464.417, 1210.542 1462.549, 1215.634 1457.457 L 1218 1455.091 1218 1459.045 L 1218 1463 1228 1463 L 1238 1463 1238 1425.500 L 1238 1388 1228 1388 L 1218 1388 1218 1410.351 C 1218 1434.183, 1217.484 1437.606, 1213.199 1442.227 C 1208.433 1447.366, 1198.528 1448.358, 1192.356 1444.314 C 1187.498 1441.131, 1187 1438.128, 1187 1412.032 L 1187 1388 1177 1388 L 1167 1388 1167 1412.451 M 1325 1425.500 L 1325 1463 1334.500 1463 L 1344 1463 1344 1425.500 L 1344 1388 1334.500 1388 L 1325 1388 1325 1425.500 M 1478.256 1404.117 C 1474.255 1405.273, 1468.631 1410.750, 1467.184 1414.901 L 1466.104 1418 1485.052 1418 C 1497.615 1418, 1504 1417.646, 1504 1416.950 C 1504 1415.134, 1501.285 1410.589, 1498.831 1408.298 C 1493.743 1403.547, 1485.812 1401.935, 1478.256 1404.117 M 1097 1431 L 1097 1443 1111.365 1443 C 1124.341 1443, 1125.983 1442.801, 1128.341 1440.946 C 1134.431 1436.156, 1134.066 1424.840, 1127.696 1420.956 C 1124.938 1419.275, 1122.615 1419.007, 1110.750 1419.004 L 1097 1419 1097 1431" stroke="none" fill="#98a5b4" fill-rule="evenodd"/>
</svg>