<svg xmlns="http://www.w3.org/2000/svg" width="2000" height="2000" viewBox="0 0 2000 2000" version="1.1">
	<path d="M 1001.593 498.646 C 995.346 501.895, 987.838 509.679, 972.797 528.500 C 966.203 536.750, 959.165 545.518, 957.155 547.985 C 949.658 557.185, 924.741 593.586, 916.455 607.442 C 914.830 610.160, 912.516 613.985, 911.314 615.942 C 909.089 619.564, 907.823 621.842, 900.817 634.837 C 898.642 638.873, 896.021 643.598, 894.994 645.337 C 889.762 654.198, 866 703.168, 866 705.091 C 866 705.588, 864.687 708.808, 863.083 712.247 C 854.393 730.871, 844.308 759.284, 835.485 790 C 825.249 825.635, 824.656 828.211, 816.586 872.132 C 815.714 876.879, 815 882.561, 815 884.757 C 815 892.053, 813.990 895, 811.488 895 C 810.244 895, 803.662 892.348, 796.863 889.107 C 781.716 881.887, 779.563 880.973, 764.500 875.376 C 757.900 872.924, 751.150 870.319, 749.500 869.588 C 740.506 865.602, 724.490 860.305, 708 855.862 C 703.875 854.751, 698.025 853.162, 695 852.332 C 654.349 841.175, 601.820 836.488, 549.209 839.324 C 532.490 840.225, 527.624 841.586, 522.876 846.688 C 516.983 853.020, 516.578 854.396, 515.145 872.954 C 513.317 896.632, 512.570 941.795, 513.870 950 C 514.437 953.575, 515.373 962.853, 515.951 970.617 C 516.934 983.829, 523.433 1032.274, 524.442 1033.906 C 524.693 1034.313, 525.350 1037.313, 525.901 1040.573 C 528.737 1057.346, 541.771 1107.121, 546.176 1118 C 546.733 1119.375, 548.433 1124.325, 549.954 1129 C 554.786 1143.855, 568.198 1176.620, 574.922 1190 C 604.680 1249.208, 636.524 1293.787, 679.939 1337.015 C 697.133 1354.135, 712.898 1367.601, 737.500 1386.182 C 743.004 1390.339, 764.787 1404.910, 769.500 1407.588 C 770.600 1408.213, 775.775 1411.276, 781 1414.395 C 797.528 1424.261, 824.293 1436.906, 844 1444.159 C 872.715 1454.728, 882.954 1458.067, 894 1460.463 C 898.125 1461.358, 904.200 1462.710, 907.500 1463.468 C 929.355 1468.487, 930.293 1468.664, 953 1472.033 C 979.996 1476.038, 1019.843 1476.834, 1049 1473.952 C 1076.813 1471.202, 1083.427 1470.249, 1095.500 1467.248 C 1098.800 1466.428, 1103.300 1465.425, 1105.500 1465.020 C 1122.944 1461.806, 1141.178 1456.785, 1156.500 1450.976 C 1159.250 1449.934, 1165.550 1447.657, 1170.500 1445.916 C 1180.347 1442.454, 1184.460 1440.727, 1196.500 1435 C 1200.900 1432.907, 1208.100 1429.533, 1212.500 1427.503 C 1216.900 1425.473, 1222.975 1422.336, 1226 1420.531 C 1229.025 1418.727, 1234.200 1415.780, 1237.500 1413.983 C 1240.800 1412.186, 1245.750 1409.265, 1248.500 1407.491 C 1251.250 1405.718, 1256.875 1402.137, 1261 1399.532 C 1269.079 1394.431, 1269.784 1393.949, 1283.438 1384.176 C 1321.165 1357.171, 1362.117 1316.586, 1388.896 1279.664 C 1391.314 1276.330, 1394.159 1272.680, 1395.220 1271.552 C 1396.280 1270.423, 1400.987 1263.650, 1405.680 1256.500 C 1410.372 1249.350, 1415.026 1242.332, 1416.021 1240.905 C 1425.203 1227.738, 1444.455 1190.704, 1454.441 1167 C 1457.570 1159.575, 1460.748 1152.150, 1461.504 1150.500 C 1465.593 1141.577, 1467.315 1137.145, 1470.139 1128.276 C 1471.852 1122.899, 1475.027 1113.100, 1477.196 1106.500 C 1482.952 1088.980, 1489.474 1063.494, 1492.141 1048.092 C 1492.656 1045.118, 1493.324 1042.284, 1493.626 1041.796 C 1494.217 1040.840, 1496.103 1029.824, 1498.555 1013 C 1503.244 980.839, 1505.381 946.466, 1504.587 916 C 1504.236 902.525, 1503.752 883.448, 1503.511 873.607 C 1503.013 853.221, 1501.846 849.259, 1494.657 843.551 C 1490.052 839.895, 1486.864 839.547, 1448 838.467 C 1418.731 837.653, 1398.867 838.726, 1373.500 842.490 C 1346.322 846.522, 1336.712 848.532, 1313 855.142 C 1289.488 861.696, 1283.834 863.496, 1271 868.510 C 1266.325 870.337, 1258.450 873.286, 1253.500 875.064 C 1248.550 876.843, 1239.100 880.874, 1232.500 884.024 C 1208.651 895.404, 1205.956 896.355, 1204.450 893.920 C 1204.083 893.325, 1203.415 888.263, 1202.966 882.670 C 1199.973 845.408, 1180.946 771.240, 1163.855 730.216 C 1161.629 724.872, 1157.880 715.775, 1155.524 710 C 1151.010 698.936, 1141.863 679.255, 1134.609 665 C 1126.609 649.279, 1119.013 634.980, 1116.666 631.227 C 1115.385 629.177, 1112.987 625.024, 1111.338 621.997 C 1103.302 607.251, 1087.964 582.427, 1081.103 573.062 C 1078.458 569.453, 1074.310 563.575, 1071.883 560 C 1064.809 549.578, 1033.902 509.582, 1028.797 504.245 C 1024.463 499.714, 1016.290 495.987, 1010.814 496.047 C 1008.215 496.075, 1004.550 497.108, 1001.593 498.646 M 1006.717 658.724 C 985.870 691.288, 956.472 750.494, 946.997 779 C 945.809 782.575, 943.814 788.200, 942.565 791.500 C 938.641 801.868, 934.266 816.943, 930.520 833 C 928.532 841.525, 926.451 849.953, 925.896 851.728 C 923.842 858.297, 919.501 884.965, 916.979 906.500 C 914.777 925.307, 913.336 953.216, 914.357 957.285 C 914.763 958.906, 918.723 963.096, 924.757 968.293 C 949.323 989.448, 981.234 1023.496, 996.460 1044.799 C 999.723 1049.363, 1003.932 1054.897, 1005.815 1057.097 C 1009.151 1060.994, 1009.288 1061.050, 1011.248 1059.298 C 1012.353 1058.309, 1015.742 1054.125, 1018.779 1050 C 1021.815 1045.875, 1027.420 1038.769, 1031.234 1034.209 C 1035.049 1029.649, 1040.768 1022.674, 1043.945 1018.709 C 1052.313 1008.264, 1075.385 985.338, 1091.261 971.691 C 1098.818 965.196, 1105.026 959.121, 1105.058 958.191 C 1106.028 930.123, 1102.047 888.752, 1095.369 857.500 C 1092.608 844.578, 1086.825 820.754, 1084.688 813.500 C 1082.450 805.899, 1070.470 772.166, 1067.997 766.500 C 1066.797 763.750, 1063.876 756.775, 1061.507 751 C 1048.389 719.020, 1014.743 657.152, 1009.970 656.233 C 1009.158 656.076, 1007.695 657.198, 1006.717 658.724 M 619.163 948.111 C 617.929 951.415, 621.597 997.046, 623.514 1002.220 C 623.775 1002.924, 624.700 1007.325, 625.569 1012 C 627.833 1024.169, 629.763 1033.604, 631.400 1040.500 C 632.183 1043.800, 633.491 1049.499, 634.306 1053.165 C 635.977 1060.676, 637.490 1065.871, 639.502 1071 C 640.256 1072.925, 643.848 1083.198, 647.484 1093.828 C 656.421 1119.964, 672.245 1154.344, 685.608 1176.659 C 686.649 1178.397, 689.723 1183.572, 692.441 1188.159 C 705.336 1209.927, 725.194 1235.537, 746.500 1257.874 C 764.809 1277.070, 800.841 1305.728, 821 1317.127 C 823.475 1318.527, 829.325 1321.883, 834 1324.586 C 842.466 1329.480, 848.941 1332.761, 867 1341.304 C 874.958 1345.069, 891.251 1350.678, 914 1357.484 C 942.370 1365.972, 991.601 1372.596, 995.088 1368.395 C 996.128 1367.141, 996.142 1362.927, 995.161 1346.174 C 994.495 1334.803, 993.530 1323.025, 993.017 1320 C 992.503 1316.975, 991.360 1310, 990.477 1304.500 C 986.932 1282.432, 982.713 1262.429, 976.031 1236 C 974.073 1228.257, 967.233 1206.283, 961.867 1190.500 C 957.937 1178.939, 943.889 1150.376, 935.791 1137.483 C 929.447 1127.382, 917.357 1110.304, 911.128 1102.646 C 901.651 1090.994, 897.221 1086.170, 882.025 1070.955 C 872.936 1061.856, 863.041 1052.406, 860.036 1049.955 C 857.031 1047.505, 852.981 1044.128, 851.036 1042.452 C 838.341 1031.509, 811.142 1012.462, 792.982 1001.797 C 766.668 986.344, 722.915 967.276, 698.500 960.621 C 687.575 957.643, 667.585 952.940, 662 952.033 C 658.975 951.542, 650.875 950.213, 644 949.079 C 637.125 947.945, 628.925 946.726, 625.778 946.369 C 620.386 945.758, 620.005 945.859, 619.163 948.111 M 1376.500 947.724 C 1371.550 948.514, 1365.025 949.759, 1362 950.491 C 1353.788 952.478, 1335.255 956.952, 1329 958.458 C 1322.496 960.023, 1306.567 965.077, 1299.500 967.817 C 1296.750 968.883, 1290.900 971.118, 1286.500 972.783 C 1237.084 991.483, 1180.278 1027.904, 1142.145 1065.335 C 1130.161 1077.098, 1115.731 1092.514, 1110.632 1099 C 1094.344 1119.720, 1078.190 1143.642, 1070.454 1158.500 C 1065.144 1168.698, 1064.802 1169.755, 1065.766 1173 C 1070.260 1188.123, 1074.461 1203.024, 1077.467 1214.500 C 1078.188 1217.250, 1080.122 1224.450, 1081.767 1230.500 C 1087.518 1251.662, 1092.413 1279.185, 1095.461 1307.500 C 1096.290 1315.200, 1097.411 1324.875, 1097.953 1329 C 1098.495 1333.125, 1099.213 1340.807, 1099.549 1346.070 C 1099.885 1351.334, 1100.524 1356.231, 1100.970 1356.952 C 1102.080 1358.748, 1106.556 1357.804, 1121.934 1352.533 C 1140.709 1346.097, 1146.169 1343.895, 1161.364 1336.629 C 1168.989 1332.983, 1175.388 1330, 1175.584 1330 C 1175.779 1330, 1183.225 1325.662, 1192.130 1320.361 C 1209.969 1309.741, 1221.882 1301.694, 1232.441 1293.130 C 1236.259 1290.033, 1240.366 1286.825, 1241.567 1286 C 1243.992 1284.335, 1264.103 1265.813, 1270.446 1259.404 C 1283.770 1245.940, 1298.960 1227.911, 1312.067 1210 C 1332.645 1181.882, 1353.967 1142.239, 1367.197 1107.500 C 1368.915 1102.990, 1371.362 1095.605, 1379.955 1069 C 1385.521 1051.764, 1390.676 1029.440, 1392.538 1014.500 C 1392.881 1011.750, 1393.588 1008.106, 1394.108 1006.402 C 1395.395 1002.189, 1397.861 983.096, 1399.003 968.500 C 1399.520 961.900, 1400.123 955.150, 1400.343 953.500 C 1400.563 951.850, 1400.362 949.487, 1399.896 948.250 C 1399.125 946.200, 1398.448 946.013, 1392.275 946.144 C 1388.549 946.223, 1381.450 946.934, 1376.500 947.724" stroke="none" fill="#6d7174" fill-rule="evenodd"/>
</svg>