<svg xmlns="http://www.w3.org/2000/svg" width="2000" height="2000" viewBox="0 0 2000 2000" version="1.1">
	<path d="M 660 263.960 C 619.534 267.830, 604.389 270.840, 573.500 281.149 C 554.951 287.340, 518.567 303.824, 506.709 311.410 C 503.622 313.384, 500.810 315, 500.461 315 C 499.514 315, 485.843 324.449, 474.500 332.945 C 462.532 341.908, 441.346 362.321, 428.256 377.500 C 411.079 397.418, 392.469 424.111, 383.565 441.600 C 379.413 449.755, 370.928 468.182, 368.875 473.500 C 367.813 476.250, 366.553 479.400, 366.073 480.500 C 361.175 491.740, 351.567 534.802, 348.451 559.481 C 344.997 586.835, 345.647 623.827, 350.005 647.880 C 357.149 687.309, 364.756 712.934, 376.907 738.500 C 391.633 769.482, 409.677 797.553, 433.250 826.149 L 443 837.977 443 942.488 L 443 1047 472 1047 L 501 1047 501 975.560 L 501 904.120 505.838 909.310 C 508.499 912.164, 514.799 919.135, 519.838 924.799 L 529 935.098 529 991.049 L 529 1047 557.500 1047 L 586 1047 586 1023.500 C 586 1009.386, 586.378 1000, 586.946 1000 C 587.467 1000, 593.279 1006.188, 599.863 1013.750 C 606.446 1021.313, 616.708 1032.996, 622.666 1039.714 C 628.625 1046.432, 644.503 1064.432, 657.951 1079.714 C 671.399 1094.996, 688.095 1113.575, 695.052 1121 C 702.009 1128.425, 710.862 1138.100, 714.724 1142.500 C 726.576 1156.002, 738.068 1167.023, 742.386 1169.027 C 749.227 1172.203, 757.972 1174, 766.588 1174 C 772.955 1174, 775.058 1174.364, 776.128 1175.649 C 777.114 1176.835, 777.654 1181.966, 778.046 1193.899 C 778.477 1206.971, 778.972 1211.282, 780.377 1214.180 C 782.679 1218.927, 796.241 1234.647, 832.016 1274.036 C 836.280 1278.731, 841.039 1284.131, 842.591 1286.036 C 846.215 1290.484, 860.521 1306.481, 868.953 1315.512 C 872.554 1319.369, 878.425 1325.891, 882 1330.006 C 885.575 1334.121, 891.200 1340.436, 894.500 1344.041 C 906.497 1357.143, 924.734 1377.729, 933 1387.500 C 937.653 1393, 943.775 1399.975, 946.605 1403 C 949.436 1406.025, 956.631 1414.125, 962.596 1421 C 968.561 1427.875, 973.905 1433.989, 974.471 1434.586 C 975.037 1435.184, 981.774 1442.609, 989.442 1451.086 C 1008.689 1472.365, 1039.494 1502.905, 1051.500 1512.609 C 1096.264 1548.793, 1155.460 1576.954, 1212 1588.965 C 1250 1597.037, 1295.538 1598.441, 1326.966 1592.510 C 1381.417 1582.234, 1434.668 1560.496, 1469 1534.527 C 1474.225 1530.575, 1481.211 1525.285, 1484.524 1522.772 C 1500.280 1510.817, 1527.292 1483.184, 1542.583 1463.379 C 1570.776 1426.863, 1590.291 1388.720, 1599.824 1351.500 C 1611.544 1305.746, 1614.533 1282.826, 1612.869 1251.500 C 1609.007 1178.791, 1585.461 1117.753, 1536.339 1053.106 C 1534.502 1050.690, 1533 1048.327, 1533 1047.856 C 1533 1047.385, 1543.912 1046.984, 1557.250 1046.965 C 1573.318 1046.942, 1584.112 1046.464, 1589.242 1045.550 C 1618.556 1040.323, 1642.087 1023.346, 1654.007 998.823 L 1657.739 991.145 1663.546 1000.532 C 1680.059 1027.225, 1705.384 1043.975, 1739.074 1050.484 C 1750.895 1052.768, 1774.474 1053.565, 1786.280 1052.079 C 1806.907 1049.483, 1828.207 1041.853, 1841 1032.479 C 1846.691 1028.310, 1857.175 1017.694, 1860.622 1012.613 C 1864.973 1006.198, 1870.676 992.983, 1872.538 985 C 1874.773 975.423, 1874.816 956.382, 1872.627 946 C 1870.138 934.195, 1863.298 921.456, 1854.724 912.658 C 1839.952 897.499, 1824.001 889.699, 1775.500 873.916 C 1734.530 860.584, 1723.966 852.506, 1724.022 834.554 C 1724.050 825.513, 1726.151 820.848, 1732.945 814.739 C 1741.311 807.218, 1755.606 803.915, 1771.094 805.926 C 1790.285 808.417, 1804.275 818.231, 1814.304 836.238 C 1816.062 839.394, 1817.906 841.982, 1818.401 841.988 C 1819.290 842, 1861.319 817.950, 1864.592 815.557 C 1866.129 814.433, 1865.901 813.670, 1862.011 806.912 C 1843.427 774.622, 1815.488 755.633, 1779.094 750.557 C 1761.589 748.115, 1749.679 748.776, 1732.500 753.141 C 1721.232 756.004, 1704.003 764.731, 1695.266 772.001 C 1682.468 782.650, 1672.768 797.980, 1668.373 814.500 C 1665.559 825.080, 1665.806 847.691, 1668.854 858.455 C 1674.081 876.914, 1684.086 889.916, 1702 901.530 C 1715.313 910.162, 1729.418 915.965, 1756.784 924.071 C 1798.086 936.305, 1811.622 944.012, 1815.553 957.535 C 1820.496 974.537, 1811.369 988.782, 1792.311 993.808 C 1776.217 998.053, 1755.909 997.290, 1741.430 991.898 C 1725.546 985.983, 1711.993 972.815, 1705.002 956.504 L 1703.094 952.053 1683.560 963.553 C 1672.816 969.878, 1663.458 975.271, 1662.763 975.539 C 1661.781 975.917, 1661.575 973.592, 1661.837 965.078 C 1662.349 948.410, 1658.968 934.935, 1650.855 921.309 C 1646.809 914.515, 1636.094 903.500, 1629.159 899.006 L 1624.107 895.733 1629.922 889.918 C 1644.281 875.559, 1650.945 859.038, 1650.983 837.708 C 1651.050 799.715, 1627.727 769.524, 1589.946 758.695 C 1578.564 755.433, 1568.961 755, 1507.933 755 L 1447.010 755 1446.755 852.374 L 1446.500 949.748 1430.500 931.693 C 1421.700 921.762, 1412.446 911.356, 1409.934 908.568 C 1407.423 905.781, 1401.398 898.843, 1396.544 893.151 C 1386.265 881.096, 1389.696 889.323, 1361.970 810.250 L 1342.596 755 1307.357 755 C 1286.928 755, 1271.879 754.612, 1271.548 754.078 C 1270.393 752.209, 1258.217 749.070, 1248.634 748.170 C 1242.204 747.567, 1238.470 746.767, 1237.909 745.872 C 1237.436 745.117, 1237.067 739.750, 1237.088 733.945 C 1237.139 720.084, 1235.803 715.297, 1229.167 705.570 C 1221.528 694.372, 1198.538 667.437, 1177.895 645.500 C 1174.790 642.200, 1167.837 634.325, 1162.445 628 C 1149.653 612.994, 1133.278 594.467, 1119.532 579.444 C 1098.607 556.578, 1082.202 538.480, 1076.360 531.819 C 1061.270 514.613, 1042.536 493.451, 1041.995 493 C 1041.665 492.725, 1036.138 486.347, 1029.712 478.826 C 1023.287 471.305, 1014.986 461.830, 1011.265 457.771 C 1002.892 448.636, 985.511 429.002, 977.500 419.630 C 949.376 386.725, 917.369 354.994, 895 337.841 C 848.057 301.843, 800.140 279.696, 748 269.898 C 719.329 264.511, 681.166 261.935, 660 263.960 M 266.050 750.086 C 240.678 752.530, 215.902 761.321, 194.295 775.546 C 183.392 782.725, 163.583 802.296, 155.561 813.815 C 144.577 829.587, 135.814 850.019, 131.464 870 C 129.275 880.053, 128.394 909.831, 129.939 921.558 C 137.268 977.197, 172.928 1022.057, 226.172 1042.620 C 260.406 1055.841, 305.641 1056.167, 341 1043.447 C 384.957 1027.634, 415.738 991.609, 425.444 944.616 C 427.561 934.370, 429.183 913.062, 428.803 900.500 L 428.500 890.500 355.250 890.244 L 282 889.987 282 915.494 L 282 941 326 941 C 366.784 941, 370 941.125, 370 942.704 C 370 943.641, 367.932 948.658, 365.406 953.852 C 361.550 961.779, 359.420 964.680, 352.156 971.898 C 342.388 981.606, 335.508 986.037, 323.665 990.253 C 302.924 997.637, 277.553 998.640, 255.326 992.955 C 226.795 985.659, 203.417 965.674, 193.011 939.687 C 187.584 926.134, 186.584 920.152, 186.540 901 C 186.505 885.757, 186.797 882.412, 188.804 875.067 C 193.139 859.203, 200.421 845.969, 211.089 834.564 C 234.813 809.203, 273.297 799.206, 309.133 809.096 C 327.035 814.036, 345.289 825.800, 354.624 838.412 C 357.306 842.035, 359.853 845, 360.285 845 C 360.880 845, 407.134 818.719, 408.843 817.409 C 409.032 817.265, 406.596 813.626, 403.428 809.323 C 372.455 767.247, 320.498 744.843, 266.050 750.086 M 1505 840.999 L 1505 873.100 1538.250 872.800 L 1571.500 872.500 1576.563 869.828 C 1582.653 866.614, 1588.474 860.413, 1591.307 854.122 C 1594.033 848.069, 1594.198 836.602, 1591.665 829.280 C 1589.270 822.356, 1582.468 814.908, 1575.779 811.886 C 1570.612 809.551, 1569.803 809.494, 1537.750 809.199 L 1505 808.899 1505 840.999 M 1505 959 L 1505 993.089 1543.250 992.795 C 1580.781 992.506, 1581.586 992.457, 1586.086 990.217 C 1592.434 987.057, 1598.795 980.530, 1601.892 974 C 1604.134 969.272, 1604.500 967.166, 1604.500 959 C 1604.500 950.814, 1604.134 948.719, 1601.852 943.852 C 1598.626 936.971, 1592.995 931.157, 1586.423 927.923 C 1581.510 925.505, 1581.423 925.499, 1543.250 925.205 L 1505 924.911 1505 959" stroke="none" fill="#f0efea" fill-rule="evenodd"/>
</svg>