<svg xmlns="http://www.w3.org/2000/svg" width="2000" height="813" viewBox="0 0 2000 813" version="1.1">
	<path d="M 264.342 224.479 C 233.418 230.091, 208.937 248.859, 195.432 277.309 C 187.343 294.349, 185.181 320.064, 190.241 339.059 C 195.164 357.539, 203.757 371.263, 225.581 395.500 C 232.019 402.650, 247.890 420.425, 260.850 435 C 295.890 474.406, 296.334 474.843, 302.150 475.614 C 306.988 476.256, 307 476.267, 307 480.064 C 307 482.157, 307.399 484.912, 307.886 486.185 C 308.373 487.458, 315.011 495.490, 322.636 504.033 C 382.295 570.876, 379.089 567.570, 392.930 576.523 C 401.993 582.386, 412.861 587.153, 424 590.150 C 436.268 593.451, 457.168 593.475, 468.216 590.201 C 492.248 583.080, 508.911 571.491, 522.499 552.450 C 539.789 528.220, 543.799 496.079, 533.008 468.216 C 527.400 453.735, 520.438 444.101, 494.850 415.411 C 486.957 406.562, 474.650 392.613, 467.500 384.413 C 446.109 359.881, 444.932 358.759, 439.892 358.086 C 435.526 357.503, 435.497 357.473, 434.972 352.914 C 434.682 350.391, 433.727 347.241, 432.850 345.914 C 431.060 343.203, 410.476 319.712, 396.561 304.500 C 391.530 299, 382.708 289.113, 376.957 282.530 C 348.465 249.914, 339.631 241.727, 324.411 233.832 C 306.139 224.353, 284.017 220.909, 264.342 224.479 M 700.500 288.711 C 682.848 291.129, 661.362 300.284, 647.434 311.322 C 608.579 342.114, 595.999 397.258, 617.467 442.678 C 619.853 447.726, 623.273 454.026, 625.067 456.678 C 637.403 474.914, 656.187 489.536, 676.914 497.037 C 689.049 501.428, 696.677 503.016, 709.936 503.909 C 763.396 507.512, 805.379 479.676, 817.637 432.500 C 819.778 424.260, 820.324 419.464, 820.743 405.250 L 821.252 388 769.126 388 L 717 388 717 406.486 L 717 424.972 748.568 425.236 L 780.135 425.500 776.059 433.644 C 768.554 448.635, 754.390 458.878, 736.073 462.559 C 725.072 464.770, 705.582 464.102, 695.817 461.180 C 666.906 452.527, 649.654 429.961, 648.262 398.975 C 647.641 385.157, 649.766 374.919, 655.729 363 C 660.939 352.586, 672.783 340.606, 682.864 335.552 C 703.062 325.426, 729.273 325.311, 748.880 335.262 C 755.626 338.686, 767.572 348.964, 769.933 353.375 C 770.706 354.819, 771.708 356, 772.160 356 C 772.832 356, 805.566 337.506, 806.901 336.372 C 807.699 335.694, 795.651 320.871, 790.638 316.364 C 774.684 302.019, 756.388 293.095, 735.619 289.526 C 727.491 288.129, 708.039 287.678, 700.500 288.711 M 1756.197 289.466 C 1737.453 293.718, 1723.331 302.717, 1714.459 316.061 C 1702.308 334.339, 1700.911 357.206, 1710.779 376.291 C 1717.902 390.066, 1733.181 400.682, 1757 408.403 C 1763.325 410.453, 1773.450 413.738, 1779.500 415.703 C 1800.911 422.656, 1810.169 429.273, 1811.571 438.625 C 1814.117 455.605, 1800.845 464.857, 1775.519 463.754 C 1759.741 463.067, 1751.840 459.986, 1742.985 451.064 C 1739.300 447.352, 1735.218 441.980, 1733.589 438.699 C 1732.006 435.508, 1730.212 433.090, 1729.605 433.326 C 1728.997 433.561, 1722.361 437.352, 1714.859 441.749 L 1701.217 449.744 1701.170 440.122 C 1701.116 429.317, 1699.294 421.189, 1695.217 413.575 C 1692.485 408.472, 1681.639 396.702, 1677.020 393.827 L 1674.541 392.283 1679.928 386.392 C 1693.503 371.545, 1697.249 350.883, 1690.068 330.454 C 1685.034 316.129, 1672.030 302.924, 1657.204 297.080 C 1645.455 292.449, 1639.735 292, 1592.542 292 L 1548 292 1548 396.042 L 1548 500.084 1599.750 499.792 L 1651.500 499.500 1659.490 496.676 C 1675.762 490.927, 1687.654 481.119, 1694.514 467.792 L 1698.433 460.180 1702.237 466.532 C 1712.369 483.450, 1728.196 495.019, 1749.711 501.235 C 1756.621 503.231, 1759.701 503.482, 1777 503.458 C 1793.839 503.435, 1797.540 503.138, 1804.125 501.288 C 1834.460 492.764, 1851.289 473.259, 1852.690 445 C 1853.667 425.293, 1847.968 411.231, 1834.490 400.093 C 1824.858 392.134, 1814.482 387.322, 1788.706 378.864 C 1761.601 369.969, 1753.412 365.954, 1748.613 359.208 C 1746.278 355.926, 1745.704 354.034, 1745.615 349.324 C 1745.468 341.604, 1747.982 336.602, 1753.893 332.853 C 1760.050 328.948, 1763.975 328.012, 1774.212 328.006 C 1784.647 327.999, 1791.613 330.255, 1798.872 335.993 C 1802.929 339.200, 1811.107 349.822, 1812.320 353.460 C 1812.651 354.453, 1847 335.301, 1847 334.123 C 1847 333.780, 1844.744 329.980, 1841.987 325.677 C 1830.520 307.779, 1816.108 296.796, 1796.266 290.835 C 1787.313 288.145, 1765.330 287.394, 1756.197 289.466 M 832 396 L 832 500 852.500 500 L 873 500 873 396 L 873 292 852.500 292 L 832 292 832 396 M 893 395.947 L 893 500 913.500 500 L 934 500 934 463.975 L 934 427.949 949.698 428.225 L 965.395 428.500 986.001 464 L 1006.607 499.500 1044.716 499.762 L 1082.826 500.024 1088.996 481.512 L 1095.166 463 1136.853 463 L 1178.541 463 1184.593 481.250 L 1190.646 499.500 1212.823 499.769 C 1225.020 499.917, 1234.986 499.692, 1234.969 499.269 C 1234.952 498.846, 1218.610 452.150, 1198.654 395.500 L 1162.371 292.500 1136.843 292.233 L 1111.315 291.967 1077.488 388.483 C 1058.883 441.568, 1043.392 485, 1043.064 485 C 1042.310 485, 1006 423.365, 1006 422.083 C 1006 421.562, 1006.922 420.842, 1008.048 420.485 C 1011.983 419.236, 1025.539 408.166, 1030.247 402.357 C 1035.926 395.350, 1041.284 384.784, 1043.433 376.356 C 1045.412 368.595, 1045.434 353.465, 1043.478 345.168 C 1037.856 321.323, 1018.769 301.536, 994.500 294.394 C 989.222 292.841, 982.750 292.584, 940.750 292.261 L 893 291.893 893 395.947 M 1237 396.006 L 1237 500.012 1315.677 499.756 L 1394.353 499.500 1400.406 481.250 L 1406.459 463 1448 463 L 1489.541 463 1495.593 481.250 L 1501.646 499.500 1523.823 499.769 C 1536.020 499.917, 1546.009 499.692, 1546.020 499.269 C 1546.031 498.846, 1529.718 452.042, 1509.770 395.260 L 1473.500 292.019 1448 292.011 L 1422.500 292.002 1390.500 383.386 L 1358.500 474.769 1358.206 467.885 L 1357.912 461 1317.956 461 L 1278 461 1278 376.500 L 1278 292 1257.500 292 L 1237 292 1237 396.006 M 934 360.922 L 934 392 956.318 392 C 982.544 392, 986.660 391.198, 993.684 384.723 C 996.156 382.445, 999.374 378.312, 1000.835 375.540 C 1003.169 371.110, 1003.490 369.350, 1003.490 361 C 1003.490 352.640, 1003.170 350.893, 1000.823 346.437 C 999.356 343.652, 996.271 339.670, 993.967 337.589 C 986.480 330.825, 985.270 330.574, 958.250 330.189 L 934 329.844 934 360.922 M 1589 352.935 L 1589 376 1612.032 376 C 1630.592 376, 1635.786 375.698, 1638.782 374.447 C 1646.974 371.025, 1652.389 362.891, 1652.394 354 C 1652.400 343.942, 1648.525 336.933, 1640.624 332.706 C 1636.761 330.640, 1634.998 330.480, 1612.750 330.185 L 1589 329.869 1589 352.935 M 1122.731 381.294 C 1115.179 403.972, 1109 422.858, 1109 423.263 C 1109 423.668, 1121.648 424, 1137.107 424 C 1159.171 424, 1165.115 423.731, 1164.754 422.750 C 1164.501 422.063, 1158.322 403.500, 1151.022 381.500 C 1143.723 359.500, 1137.460 341.176, 1137.106 340.781 C 1136.751 340.385, 1130.283 358.616, 1122.731 381.294 M 1447.613 341 C 1446.907 342.711, 1420 423.332, 1420 423.736 C 1420 423.881, 1432.600 424, 1448 424 C 1463.400 424, 1476 423.658, 1476 423.241 C 1476 420.586, 1448.112 339.790, 1447.613 341 M 1589 437.500 L 1589 462 1615.250 461.978 C 1639.492 461.958, 1641.844 461.800, 1646 459.919 C 1657.250 454.827, 1662.606 444.054, 1660.038 431.685 C 1658.545 424.490, 1654.192 418.773, 1647.771 415.573 C 1642.610 413.001, 1642.593 413, 1615.804 413 L 1589 413 1589 437.500" stroke="none" fill="#f0efea" fill-rule="evenodd"/>
</svg>