<svg xmlns="http://www.w3.org/2000/svg" width="2000" height="2000" viewBox="0 0 2000 2000" version="1.1">
	<rect x="0" y="0" width="100%" height="100%" fill="#000000" />
	<path d="M 270.679 824.009 C 262.782 824.981, 251.675 828.121, 244.500 831.411 C 241.750 832.672, 236.800 834.940, 233.500 836.451 C 222.490 841.492, 218.003 845.701, 203.174 864.900 C 182.649 891.472, 181.145 932.817, 199.559 964.236 C 204.798 973.174, 209.528 979.114, 226.450 998 C 235.074 1007.625, 249.863 1024.272, 259.315 1034.994 C 283.209 1062.099, 287.038 1066.077, 290.750 1067.650 C 292.833 1068.532, 294 1069.726, 294 1070.974 C 294 1074.322, 297.895 1077, 302.765 1077 C 307.086 1077, 307.150 1077.050, 306.975 1080.250 C 306.877 1082.037, 306.880 1083.725, 306.982 1084 C 307.084 1084.275, 307.280 1085.528, 307.419 1086.785 C 307.824 1090.455, 309.512 1091.543, 312.610 1090.132 C 314.906 1089.086, 315.523 1089.184, 317.066 1090.841 C 318.052 1091.899, 319.003 1093.605, 319.179 1094.632 C 319.428 1096.081, 318.978 1096.427, 317.174 1096.174 C 315.060 1095.878, 314.956 1096.050, 316.032 1098.060 C 316.683 1099.276, 320.678 1103.923, 324.910 1108.386 C 329.143 1112.849, 341.397 1126.400, 352.143 1138.500 C 376.397 1165.811, 381.470 1170.510, 396.676 1179.746 C 414.236 1190.413, 439.919 1196.376, 457.692 1193.914 C 473.603 1191.710, 500.895 1179.396, 499.514 1175.045 C 499.072 1173.653, 500.199 1172.742, 504.856 1170.722 C 510.819 1168.136, 510.947 1168.007, 523.045 1152.500 C 532.064 1140.941, 536.974 1129.018, 537.509 1117.380 C 537.664 1114.013, 538.288 1110.330, 538.896 1109.195 C 541.765 1103.833, 538.830 1083.196, 533.088 1068.356 C 527.901 1054.951, 520.784 1044.993, 498.525 1019.996 C 491.911 1012.569, 480.650 999.762, 473.500 991.536 C 453.165 968.141, 443.875 959.003, 440.404 958.985 C 435.962 958.961, 434.615 957.677, 435.322 954.140 C 435.689 952.303, 435.447 950.545, 434.717 949.746 C 434.048 949.014, 433.050 947.706, 432.500 946.840 C 430.769 944.111, 423.090 934.754, 417.039 928 C 413.837 924.425, 406.555 916.325, 400.858 910 C 395.160 903.675, 382.493 889.407, 372.709 878.294 C 353.477 856.450, 341.387 844.638, 339.142 845.499 C 337.554 846.109, 334.770 844.181, 335.510 842.983 C 336.288 841.725, 325.412 834.989, 316.588 831.264 C 301.697 824.977, 284.673 822.287, 270.679 824.009 M 244.459 835.067 C 244.096 835.653, 244.050 836.384, 244.357 836.690 C 245.179 837.513, 248 836.229, 248 835.031 C 248 833.674, 245.303 833.701, 244.459 835.067 M 262.750 837.662 C 263.438 837.940, 264.563 837.940, 265.250 837.662 C 265.938 837.385, 265.375 837.158, 264 837.158 C 262.625 837.158, 262.063 837.385, 262.750 837.662 M 247.690 841.079 C 247.281 842.640, 247.522 843.014, 248.655 842.579 C 249.485 842.261, 250.338 842, 250.550 842 C 250.763 842, 250.678 841.325, 250.362 840.500 C 249.547 838.377, 248.327 838.641, 247.690 841.079 M 284 839.393 C 284 840.342, 286.993 840.820, 287.527 839.956 C 287.852 839.430, 287.191 839, 286.059 839 C 284.927 839, 284 839.177, 284 839.393 M 304.460 843.935 C 305.207 845.144, 316.102 849.232, 316.777 848.556 C 317.384 847.950, 307.096 843.024, 305.191 843.010 C 304.471 843.004, 304.142 843.421, 304.460 843.935 M 249.500 847.001 C 247.300 848.077, 243.778 850.120, 241.673 851.542 C 237.933 854.068, 237.834 854.080, 237.313 852.087 C 236.858 850.350, 236.462 850.215, 234.640 851.174 C 233.463 851.793, 232.275 852.572, 232 852.905 C 231.725 853.239, 229.854 854.738, 227.842 856.236 C 225.119 858.265, 223.202 858.903, 220.342 858.731 L 216.500 858.500 216.753 863.359 C 216.997 868.027, 216.913 868.195, 214.624 867.620 C 212.411 867.065, 212.128 867.467, 210.676 873.233 C 209.815 876.650, 209.332 879.665, 209.601 879.934 C 209.871 880.204, 210.959 879.882, 212.019 879.220 C 213.807 878.103, 213.901 878.247, 213.307 881.214 C 212.955 882.973, 212.070 885.557, 211.340 886.956 C 209.772 889.961, 209.665 891, 210.922 891 C 211.430 891, 212.331 889.538, 212.925 887.750 C 213.519 885.962, 215.135 883.150, 216.517 881.500 L 219.029 878.500 217.356 883 C 216.436 885.475, 215.351 887.950, 214.944 888.500 C 212.466 891.849, 209.641 909, 211.567 909 C 211.878 909, 213.678 907.822, 215.567 906.381 L 219 903.763 219 906.274 C 219 907.656, 219.693 909.052, 220.540 909.377 C 221.398 909.706, 221.994 910.973, 221.885 912.234 C 221.486 916.844, 221.978 917.865, 224.750 918.184 C 226.904 918.431, 227.437 918.961, 227.208 920.627 C 226.922 922.711, 228.790 924.194, 231.965 924.403 C 234.197 924.551, 239.846 938.626, 239.929 944.250 C 239.968 946.862, 239.580 949, 239.067 949 C 238.554 949, 237.849 949.900, 237.500 951 C 237.151 952.100, 236.221 953, 235.433 953 C 233.517 953, 233.634 953.927, 236 957.500 C 238.689 961.560, 238.548 962, 234.552 962 C 231.155 962, 231.120 962.045, 232.150 965 C 232.725 966.650, 233.519 968, 233.914 968 C 234.309 968, 235.689 969.913, 236.980 972.250 C 238.272 974.587, 240.718 978.147, 242.415 980.160 C 244.112 982.174, 246.625 985.198, 248 986.881 C 249.375 988.563, 251.063 989.954, 251.750 989.970 C 252.438 989.987, 253 990.645, 253 991.433 C 253 992.221, 253.787 993.132, 254.750 993.457 C 255.713 993.783, 258.037 996.092, 259.916 998.589 C 261.795 1001.086, 266.682 1006.588, 270.777 1010.815 C 274.871 1015.042, 279.633 1020.208, 281.360 1022.296 C 283.087 1024.384, 285.625 1026.817, 287 1027.701 L 289.500 1029.310 287.507 1026.905 C 286.411 1025.582, 282.191 1020.770, 278.129 1016.212 C 274.066 1011.653, 271.066 1007.603, 271.461 1007.212 C 271.856 1006.820, 274.051 1008.739, 276.339 1011.475 C 278.628 1014.211, 281.738 1017.766, 283.250 1019.373 C 284.762 1020.981, 286 1022.680, 286 1023.148 C 286 1023.617, 286.744 1024, 287.653 1024 C 288.562 1024, 291.939 1026.700, 295.158 1030 C 301.058 1036.049, 303 1037.184, 303 1034.584 C 303 1033.805, 304.350 1032.570, 306 1031.840 C 307.650 1031.109, 309 1029.936, 309 1029.233 C 309 1028.290, 309.657 1028.384, 311.500 1029.592 C 313.842 1031.127, 314 1031.118, 314 1029.459 C 314 1028.486, 312.762 1026.101, 311.250 1024.161 C 309.738 1022.221, 306.700 1018.317, 304.500 1015.486 C 287.105 993.102, 283.558 988.826, 283.222 989.834 C 282.782 991.153, 283.542 991.879, 272.929 979.985 C 264.798 970.872, 262.730 968.114, 265.095 969.534 C 265.868 969.998, 267.088 971.193, 267.807 972.189 C 268.525 973.185, 269.576 974, 270.142 974 C 273.121 974, 253.706 954.548, 248.986 952.804 C 246.288 951.806, 240.406 929.540, 239.793 918 L 239.500 912.500 246.750 912.206 C 253.949 911.914, 254 911.930, 254 914.488 C 254 917.723, 257.389 927.878, 260.483 933.912 C 264.638 942.018, 271.194 950.514, 284.603 965.174 C 291.810 973.053, 304.350 987.150, 312.470 996.500 C 330.399 1017.146, 330.110 1016.848, 330.691 1015.288 C 331.374 1013.450, 338.112 1009.585, 338.852 1010.606 C 340.205 1012.473, 342.293 1011.951, 345.836 1008.860 C 353.881 1001.842, 375.288 980.776, 372.192 982.924 C 367.881 985.915, 367.255 985.142, 370.938 981.375 L 373.853 978.393 366.176 969.345 C 361.954 964.369, 353.775 954.985, 348 948.492 C 323.503 920.952, 313.654 909.172, 309.962 903 C 305.776 896.001, 303.086 893, 300.999 893 C 299.726 893, 299.449 893.700, 299.793 896.046 L 300.241 899.092 292.870 898.796 L 285.500 898.500 285.500 894.532 C 285.500 890.759, 285.696 890.508, 289.500 889.428 C 293.249 888.363, 292.975 888.298, 285.128 888.396 C 278.121 888.483, 276.572 888.210, 275.628 886.722 C 273.683 883.655, 276.574 882.834, 287.474 883.357 C 296.162 883.774, 297.674 884.115, 299.198 885.996 L 300.948 888.157 304.923 884.828 L 308.899 881.500 303.792 880.840 C 295.897 879.820, 277.065 879.595, 271.469 880.454 C 266.079 881.282, 261.403 884.226, 262.545 886.073 C 262.947 886.724, 264.452 886.960, 266.102 886.630 C 268.300 886.190, 269.208 886.520, 270.030 888.055 C 270.880 889.645, 270.644 890.691, 268.872 893.179 L 266.646 896.306 269.323 895.634 C 270.914 895.234, 272 895.375, 272 895.981 C 272 896.541, 271.212 897.050, 270.250 897.112 C 269.288 897.173, 266.952 897.400, 265.061 897.615 C 263.004 897.849, 261.302 897.503, 260.826 896.753 C 260.262 895.865, 260.026 896.026, 260.015 897.306 C 260 899.151, 254.345 905, 252.577 905 C 252.040 905, 252.140 904.460, 252.800 903.800 C 254.589 902.011, 254.254 900.300, 252 899.710 C 250.794 899.395, 250 898.346, 250 897.069 C 250 894.085, 245.656 892.527, 242.704 894.451 C 241.492 895.242, 238.554 896.323, 236.176 896.854 C 231.979 897.792, 231.902 897.765, 233.558 895.936 C 234.496 894.899, 236.217 893.763, 237.382 893.412 C 242.168 891.966, 245.813 889, 245.284 886.980 C 245 885.891, 244.133 885, 243.359 885 C 240.354 885, 237.992 874.458, 240.573 872.570 C 242.010 871.520, 241.963 870.828, 240.080 865.237 C 238.936 861.841, 238 858.674, 238 858.198 C 238 857.006, 247.672 850.450, 252.250 848.539 C 254.313 847.678, 256 846.529, 256 845.987 C 256 844.505, 253.948 844.825, 249.500 847.001 M 310.650 851.449 C 312.382 852.202, 314.182 853.445, 314.650 854.211 C 315.117 854.976, 318.200 856.575, 321.500 857.764 C 327.351 859.872, 327.438 859.875, 325 857.897 C 321.816 855.315, 310.972 849.990, 309 850.040 C 308.175 850.061, 308.917 850.695, 310.650 851.449 M 322.500 852 C 322.840 852.550, 323.568 853, 324.118 853 C 324.668 853, 324.840 852.550, 324.500 852 C 324.160 851.450, 323.432 851, 322.882 851 C 322.332 851, 322.160 851.450, 322.500 852 M 209.386 858.835 C 205.690 863.186, 202.829 868.495, 203.707 869.373 C 204.840 870.506, 208 870.027, 208 868.723 C 208 868.020, 209.350 866.261, 211 864.813 C 213.287 862.806, 214 861.328, 214 858.590 C 214 856.616, 213.662 855.038, 213.250 855.085 C 212.838 855.131, 211.099 856.819, 209.386 858.835 M 335 859.312 C 335 859.484, 336.462 860.680, 338.250 861.970 L 341.500 864.317 339.076 861.658 C 337.005 859.388, 335 858.233, 335 859.312 M 231 862.059 C 231 862.641, 231.450 862.840, 232 862.500 C 232.550 862.160, 233 861.684, 233 861.441 C 233 861.198, 232.550 861, 232 861 C 231.450 861, 231 861.477, 231 862.059 M 325.134 865.505 C 324.463 867.361, 321.867 871.156, 319.364 873.940 C 316.862 876.723, 315.103 879, 315.456 879 C 315.808 879, 317.959 878.100, 320.236 877 C 322.513 875.900, 324.495 875, 324.641 875 C 325.227 875, 326.993 882.693, 327.051 885.500 C 327.200 892.717, 328.201 894.052, 361.500 931.459 C 378.163 950.178, 387.641 960, 389.040 960 C 389.492 960, 390.005 958.987, 390.180 957.750 C 390.412 956.117, 391.666 955.097, 394.750 954.031 C 398.715 952.660, 399 952.315, 399 948.876 C 399 945.669, 397.812 943.815, 389.849 934.595 C 384.816 928.768, 380.388 924, 380.009 924 C 379.629 924, 376.346 920.448, 372.712 916.107 C 369.078 911.766, 364.714 907.604, 363.013 906.857 C 361.313 906.111, 359.666 904.491, 359.354 903.257 C 359.042 902.023, 358.435 901.231, 358.006 901.496 C 357.577 901.761, 357.288 901.196, 357.363 900.239 C 357.438 899.283, 356.997 898.593, 356.383 898.706 C 353.869 899.169, 330.887 874.538, 333.135 873.788 C 334.001 873.500, 334.003 872.875, 333.143 871.268 C 332.515 870.093, 332 868.213, 332 867.091 C 332 865.865, 330.875 864.469, 329.177 863.592 C 326.405 862.158, 326.332 862.192, 325.134 865.505 M 343.525 864.960 C 342.697 866.299, 349.365 876.590, 351.961 877.979 C 353.099 878.588, 355.094 880.754, 356.396 882.793 C 357.697 884.832, 361.966 889.836, 365.881 893.913 C 369.797 897.991, 373 901.715, 373 902.190 C 373 903.045, 379.746 910.478, 393.699 925 C 403.645 935.352, 408.973 941.363, 408.988 942.250 C 408.994 942.663, 409.627 943, 410.393 943 C 412.427 943, 413.115 940.341, 411.441 938.951 C 410.648 938.293, 410 937.286, 410 936.712 C 410 936.139, 407.413 932.899, 404.250 929.513 C 401.087 926.127, 396.250 920.546, 393.500 917.112 C 383.591 904.737, 380.548 901.266, 366.226 886 C 349.817 868.511, 344.421 863.510, 343.525 864.960 M 217.353 870.160 C 214.743 873.519, 214.773 874.095, 217.527 873.404 C 219.941 872.798, 220.151 872.950, 219.543 874.864 C 218.690 877.551, 220.552 877.706, 221.965 875.066 C 223.289 872.592, 223.268 872, 221.860 872 C 221.233 872, 220.197 871.284, 219.558 870.410 C 218.599 869.099, 218.212 869.055, 217.353 870.160 M 704.324 889.064 C 693.748 890.088, 678.875 894.073, 669.556 898.379 C 645.630 909.433, 624.974 930.695, 615.086 954.447 C 608.749 969.671, 607.498 976.698, 607.516 997 C 607.531 1014.075, 607.744 1016.260, 610.275 1025.370 C 615.501 1044.185, 623.364 1058.146, 636.414 1071.784 C 649.333 1085.285, 662.319 1093.488, 680.291 1099.500 C 708.164 1108.824, 738.306 1107.817, 764.715 1096.679 C 787.378 1087.121, 806.844 1066.380, 815.132 1042.961 C 819.341 1031.066, 821.063 1020.943, 821.714 1004.255 L 822.310 989 769.155 989 L 716 989 716 1007.500 L 716 1026 747.567 1026 L 779.135 1026 778.454 1028.250 C 776.737 1033.923, 771.004 1042.971, 765.858 1048.129 C 759.524 1054.477, 749.357 1059.980, 739 1062.664 C 730.427 1064.887, 710.240 1064.895, 700.152 1062.680 C 675.877 1057.351, 657.516 1040.272, 651.076 1017.032 C 638.829 972.836, 667.180 931.748, 711.623 929.286 C 728.313 928.362, 742.150 931.958, 755.143 940.595 C 758.950 943.126, 763.600 947.065, 765.477 949.348 C 767.353 951.632, 769.701 954.485, 770.694 955.689 L 772.500 957.877 789.224 948.131 C 798.423 942.770, 806.260 938.073, 806.641 937.693 C 807.835 936.499, 800.310 926.646, 792.243 918.841 C 774.334 901.513, 752.872 891.645, 727.547 889.096 C 715.732 887.907, 716.263 887.908, 704.324 889.064 M 1762.193 889.035 C 1753.384 890.231, 1745.990 892.525, 1737.115 896.817 C 1726.987 901.715, 1714.887 913.567, 1710.248 923.133 C 1699.442 945.415, 1702.913 973.043, 1718.473 988.603 C 1729.297 999.428, 1740.974 1005.177, 1770.875 1014.407 C 1800.538 1023.563, 1808.667 1028.556, 1810.906 1038.996 C 1812.456 1046.227, 1810.932 1051.331, 1805.641 1056.622 C 1800.604 1061.660, 1794.086 1063.873, 1782 1064.651 C 1760.429 1066.040, 1742.777 1056.861, 1734.118 1039.752 L 1730.736 1033.070 1726.118 1035.754 C 1723.578 1037.230, 1717.076 1041.039, 1711.669 1044.219 C 1706.261 1047.398, 1701.761 1050.001, 1701.669 1050.002 C 1701.576 1050.003, 1701.644 1046.966, 1701.819 1043.252 C 1702.232 1034.505, 1699.830 1023.160, 1695.851 1015.059 C 1692.526 1008.291, 1681.145 995.815, 1677.134 994.542 C 1675.096 993.896, 1675.266 993.523, 1680.044 988.178 C 1686.007 981.506, 1691.595 970.696, 1693.001 963.114 C 1698.790 931.897, 1680.646 903.837, 1649.004 895.068 C 1641.948 893.113, 1638.982 893, 1594.770 893 L 1548 893 1548 997.500 L 1548 1102 1595.250 1101.987 C 1637.640 1101.975, 1643.441 1101.779, 1651.651 1100.085 C 1670.690 1096.156, 1686.869 1084.475, 1695.005 1068.783 L 1698.451 1062.136 1700.976 1066.455 C 1710.798 1083.259, 1725.027 1094.482, 1744.619 1100.879 C 1771.926 1109.793, 1806.723 1106.247, 1827.542 1092.428 C 1839.214 1084.681, 1848.885 1070.725, 1852.028 1057.095 C 1853.863 1049.134, 1853.452 1033.782, 1851.189 1025.787 C 1844.677 1002.781, 1829.208 992.171, 1778.669 976.046 C 1753.744 968.093, 1746 961.801, 1746 949.500 C 1746 943.561, 1747.945 939.066, 1751.985 935.666 C 1757.940 930.656, 1761.576 929.623, 1773.500 929.559 C 1783.365 929.506, 1785.080 929.772, 1790.120 932.135 C 1797.264 935.485, 1803.321 940.930, 1808.104 948.304 C 1810.175 951.496, 1812.019 954.557, 1812.202 955.106 C 1812.579 956.237, 1845.005 937.795, 1846.414 935.648 C 1847.047 934.685, 1846.310 932.598, 1844.025 928.878 C 1831.871 909.097, 1815.158 896.254, 1794.878 891.114 C 1785.908 888.840, 1770.740 887.876, 1762.193 889.035 M 252.974 891.567 C 251.658 895.030, 251.606 894.975, 255 893.694 C 256.650 893.071, 258 892.210, 258 891.781 C 258 891.351, 258.113 890.707, 258.250 890.350 C 258.387 889.992, 257.476 889.543, 256.224 889.352 C 254.534 889.094, 253.698 889.664, 252.974 891.567 M 226.286 892.668 C 223.120 894.720, 222.082 896.107, 221.632 898.881 C 220.771 904.184, 222.416 904.958, 226.381 901.116 C 228.515 899.047, 229.982 896.500, 230.352 894.220 C 230.674 892.232, 230.808 890.475, 230.649 890.316 C 230.490 890.157, 228.526 891.215, 226.286 892.668 M 831 997.500 L 831 1102 852 1102 L 873 1102 873 997.500 L 873 893 852 893 L 831 893 831 997.500 M 892.245 997.250 L 892.500 1101.500 913.250 1101.770 L 934 1102.041 934 1065.520 L 934 1029 949.330 1029 L 964.660 1029 985.705 1065.250 L 1006.750 1101.500 1044.797 1101.762 L 1082.845 1102.024 1089.153 1083.012 L 1095.461 1064 1136.632 1064 L 1177.803 1064 1184.152 1082.750 L 1190.500 1101.500 1213.364 1101.769 C 1231.508 1101.983, 1236.131 1101.776, 1235.755 1100.769 C 1235.494 1100.071, 1218.936 1053.030, 1198.958 996.234 L 1162.635 892.968 1136.676 893.234 L 1110.718 893.500 1077.141 989.250 C 1058.674 1041.912, 1043.275 1085, 1042.920 1085 C 1042.565 1085, 1034.706 1072.063, 1025.454 1056.250 C 1016.203 1040.438, 1008.019 1026.533, 1007.268 1025.352 C 1005.978 1023.322, 1006.243 1022.997, 1012.068 1019.459 C 1035.419 1005.273, 1048.616 979.019, 1045.099 953.747 C 1041.065 924.772, 1021.072 902.052, 993.377 894.968 C 986.259 893.148, 982.157 893, 938.835 893 L 891.991 893 892.245 997.250 M 1237 997.506 L 1237 1102.012 1315.666 1101.756 L 1394.333 1101.500 1400.500 1083 L 1406.667 1064.500 1448 1064.500 L 1489.333 1064.500 1495.499 1083 L 1501.666 1101.500 1524.333 1101.769 C 1536.800 1101.917, 1547 1101.767, 1547 1101.437 C 1547 1101.007, 1487.483 931.496, 1474.782 895.750 L 1473.804 893 1447.997 893 L 1422.189 893 1419.230 901.250 C 1417.603 905.788, 1403.273 946.625, 1387.386 992 C 1358.771 1073.727, 1358.497 1074.441, 1358.202 1068.250 L 1357.905 1062 1317.952 1062 L 1278 1062 1278 977.500 L 1278 893 1257.500 893 L 1237 893 1237 997.506 M 215 896 C 215 896.550, 215.450 897, 216 897 C 216.550 897, 217 896.550, 217 896 C 217 895.450, 216.550 895, 216 895 C 215.450 895, 215 895.450, 215 896 M 244 903.969 C 244 904.501, 244.675 904.678, 245.500 904.362 C 246.325 904.045, 247 903.609, 247 903.393 C 247 903.177, 246.325 903, 245.500 903 C 244.675 903, 244 903.436, 244 903.969 M 229.750 906.662 C 230.438 906.940, 231.563 906.940, 232.250 906.662 C 232.938 906.385, 232.375 906.158, 231 906.158 C 229.625 906.158, 229.063 906.385, 229.750 906.662 M 934 962.544 L 934 993.184 957.750 992.842 L 981.500 992.500 987.307 989.649 C 993.710 986.504, 999.918 979.653, 1002.152 973.264 C 1002.876 971.194, 1003.463 966.056, 1003.458 961.847 C 1003.448 955.097, 1003.037 953.388, 999.968 947.360 C 997.133 941.791, 995.407 939.782, 990.653 936.513 L 984.818 932.500 959.409 932.202 L 934 931.904 934 962.544 M 1590 954.500 L 1590 977 1610.750 976.976 C 1622.162 976.963, 1633.267 976.543, 1635.426 976.042 C 1645.326 973.746, 1651.939 965.124, 1651.950 954.500 C 1651.960 945.032, 1647.880 937.895, 1640.290 934.103 C 1636.376 932.148, 1634.456 932, 1613.040 932 L 1590 932 1590 954.500 M 1123.081 982.757 C 1115.701 1004.616, 1109.465 1023.063, 1109.224 1023.750 C 1108.880 1024.731, 1114.824 1025, 1136.808 1025 L 1164.830 1025 1151.173 984 C 1143.661 961.450, 1137.287 943.003, 1137.008 943.007 C 1136.728 943.011, 1130.461 960.899, 1123.081 982.757 M 1433.827 984 L 1420.170 1025 1448.192 1025 C 1470.175 1025, 1476.120 1024.731, 1475.778 1023.750 C 1475.538 1023.063, 1469.323 1004.612, 1461.966 982.750 C 1454.609 960.888, 1448.341 943, 1448.037 943 C 1447.733 943, 1441.339 961.450, 1433.827 984 M 215.031 956 C 215.031 956.825, 215.467 958.175, 216 959 C 216.862 960.333, 216.969 960.333, 216.969 959 C 216.969 958.175, 216.533 956.825, 216 956 C 215.138 954.667, 215.031 954.667, 215.031 956 M 414.139 962.086 C 412.841 963.139, 412.192 964, 412.698 964 C 414.037 964, 417.585 961.251, 416.998 960.668 C 416.724 960.395, 415.438 961.033, 414.139 962.086 M 405.592 968.343 C 403.252 970.211, 402.989 970.782, 404.248 971.265 C 405.136 971.606, 406.545 971.056, 407.509 969.990 C 410.208 967.008, 408.791 965.790, 405.592 968.343 M 223.500 971 C 223.840 971.550, 224.568 972, 225.118 972 C 225.668 972, 225.840 971.550, 225.500 971 C 225.160 970.450, 224.432 970, 223.882 970 C 223.332 970, 223.160 970.450, 223.500 971 M 398.118 972.906 C 397.031 973.594, 397.190 973.926, 398.859 974.455 C 401.255 975.216, 403.327 974.338, 402.457 972.931 C 401.740 971.770, 399.928 971.760, 398.118 972.906 M 433 976.059 C 433 977.191, 433.450 977.840, 434 977.500 C 434.550 977.160, 435 976.234, 435 975.441 C 435 974.648, 434.550 974, 434 974 C 433.450 974, 433 974.927, 433 976.059 M 271.934 976.500 C 273.404 979.292, 282.983 989.721, 282.956 988.500 C 282.943 987.950, 280.222 984.575, 276.907 981 C 273.592 977.425, 271.354 975.400, 271.934 976.500 M 232 980.381 C 232 981.141, 233.277 983.054, 234.839 984.631 C 236.400 986.209, 240.562 991.287, 244.089 995.915 C 247.615 1000.544, 252.525 1006.913, 255 1010.069 C 259.660 1016.011, 279.439 1039.555, 281.606 1041.740 C 282.283 1042.422, 283.150 1044.447, 283.534 1046.240 C 283.917 1048.033, 284.684 1050.063, 285.238 1050.750 C 286.616 1052.461, 291.936 1052.331, 292.612 1050.570 C 293.189 1049.064, 290.272 1042, 289.073 1042 C 288.412 1042, 282.529 1035.355, 266.500 1016.505 C 253.887 1001.671, 247.649 994.584, 242.292 989 C 239.390 985.975, 236.311 982.487, 235.451 981.250 C 233.694 978.722, 232 978.296, 232 980.381 M 248 981.378 C 248 981.585, 248.787 982.373, 249.750 983.128 C 251.336 984.371, 251.371 984.336, 250.128 982.750 C 248.821 981.084, 248 980.555, 248 981.378 M 451.465 985.057 C 451.106 985.638, 451.069 987.101, 451.383 988.307 C 452.145 991.233, 464.194 1005.086, 467.712 1007.081 C 469.245 1007.951, 470.510 1009.301, 470.522 1010.081 C 470.536 1010.910, 471.320 1011.365, 472.408 1011.175 C 473.806 1010.931, 474.109 1011.275, 473.619 1012.551 C 472.759 1014.791, 479.638 1023.353, 481.670 1022.573 C 482.458 1022.271, 482.852 1022.430, 482.545 1022.927 C 481.904 1023.964, 484.967 1027.922, 493.087 1036.549 C 496.218 1039.876, 500.825 1045.759, 503.324 1049.622 C 505.823 1053.484, 508.605 1057.257, 509.507 1058.006 C 510.408 1058.754, 512.022 1061.084, 513.093 1063.183 C 514.164 1065.282, 515.287 1067, 515.588 1067 C 516.637 1067, 514.750 1062.477, 512.384 1059.317 C 511.073 1057.566, 510 1055.533, 510 1054.799 C 510 1053.207, 505.948 1047.031, 501.300 1041.539 C 499.456 1039.361, 498.169 1037.001, 498.440 1036.296 C 498.711 1035.590, 495.685 1031.472, 491.716 1027.144 C 487.747 1022.817, 479.919 1014.151, 474.319 1007.888 C 468.720 1001.625, 462.475 994.700, 460.440 992.500 C 458.406 990.300, 456.073 987.487, 455.256 986.250 C 453.631 983.790, 452.473 983.425, 451.465 985.057 M 252 986 C 252 986.550, 252.477 987, 253.059 987 C 253.641 987, 253.840 986.550, 253.500 986 C 253.160 985.450, 252.684 985, 252.441 985 C 252.198 985, 252 985.450, 252 986 M 377.191 989.107 C 374.271 991.348, 371.498 994.191, 371.029 995.424 C 370.560 996.657, 369.571 997.667, 368.832 997.667 C 365.259 997.667, 352.547 1007.747, 347.760 1014.377 L 345.683 1017.254 348.342 1015.512 C 349.804 1014.554, 351 1014.241, 351 1014.818 C 351 1015.394, 351.900 1016.151, 353 1016.500 C 354.100 1016.849, 355 1017.757, 355 1018.517 C 355 1020.087, 349.217 1028.990, 348.179 1029.018 C 347.806 1029.028, 345.965 1030.940, 344.088 1033.268 L 340.676 1037.500 345.588 1032.962 C 348.290 1030.466, 352.750 1026.903, 355.500 1025.044 C 360.874 1021.412, 372 1010.712, 372 1009.178 C 372 1008.664, 374.363 1005.670, 377.250 1002.523 C 383.806 995.380, 386.959 990.695, 384.603 991.599 C 383.722 991.937, 383 992.861, 383 993.652 C 383 994.768, 382.159 994.939, 379.250 994.413 C 377.188 994.040, 375.321 993.578, 375.103 993.387 C 374.884 993.195, 376.684 991.230, 379.102 989.019 C 384.723 983.881, 383.955 983.916, 377.191 989.107 M 422.543 986.931 C 421.860 988.036, 423.437 989.230, 424.361 988.306 C 425.311 987.355, 425.134 986, 424.059 986 C 423.541 986, 422.859 986.419, 422.543 986.931 M 254 988.893 C 254 989.384, 254.739 990.069, 255.641 990.416 C 257.014 990.943, 257.076 990.796, 256.019 989.523 C 254.579 987.788, 254 987.607, 254 988.893 M 440.100 995.900 C 436.458 999.542, 437.978 1005.206, 444.503 1012.306 C 446.426 1014.399, 448 1016.459, 448 1016.885 C 448 1017.311, 448.882 1017.623, 449.959 1017.579 C 451.037 1017.536, 451.907 1017.878, 451.892 1018.341 C 451.878 1018.804, 452.632 1019.742, 453.568 1020.426 C 454.504 1021.110, 455.384 1023.125, 455.524 1024.903 C 455.664 1026.680, 456.692 1029.117, 457.809 1030.317 C 458.926 1031.518, 460.600 1034.412, 461.529 1036.750 C 462.457 1039.088, 463.641 1041, 464.160 1041 C 464.678 1041, 465.721 1042.481, 466.477 1044.291 C 467.638 1047.068, 472.685 1053.305, 480.962 1062.190 C 482.103 1063.415, 483.774 1064.003, 485.558 1063.807 C 487.798 1063.562, 488.829 1064.185, 490.690 1066.912 C 494.905 1073.087, 496.282 1079.508, 496.606 1094.500 C 496.773 1102.200, 496.944 1109.850, 496.986 1111.500 C 497.052 1114.052, 497.246 1114.267, 498.282 1112.938 C 499.927 1110.829, 502.789 1109.850, 503.578 1111.126 C 503.931 1111.698, 502.821 1114.114, 501.110 1116.496 C 497.436 1121.613, 497.141 1123.458, 500.123 1122.678 C 506.003 1121.140, 497.346 1138.549, 489 1145.046 C 484.846 1148.279, 479.436 1149.912, 480.295 1147.673 C 480.597 1146.887, 480.366 1145.766, 479.782 1145.182 C 479.034 1144.434, 480.136 1142.706, 483.521 1139.322 C 488.904 1133.938, 491.991 1129.360, 491.996 1126.750 C 492.002 1124.118, 490.127 1124.647, 489.416 1127.478 C 489.068 1128.866, 487.452 1130.626, 485.743 1131.478 C 481.704 1133.493, 481.655 1133.473, 482.350 1130 C 482.989 1126.804, 482.228 1126.217, 480.078 1128.250 C 478.986 1129.282, 478.957 1129.107, 479.913 1127.250 C 480.670 1125.778, 480.712 1125, 480.035 1125 C 479.466 1125, 479 1124.362, 479 1123.583 C 479 1122.804, 478.469 1121.990, 477.820 1121.773 C 476.476 1121.325, 477.425 1118, 478.897 1118 C 479.425 1118, 480.521 1118.663, 481.331 1119.474 C 482.631 1120.773, 482.880 1120.756, 483.426 1119.331 C 484.158 1117.425, 484.231 1117.520, 480.608 1115.640 C 477.887 1114.229, 477.762 1113.844, 477.576 1106.334 C 477.331 1096.413, 473.132 1085.315, 466.098 1076 C 458.174 1065.505, 417.998 1020.669, 417.217 1021.449 C 416.829 1021.837, 422.629 1032.223, 428.002 1040.761 C 429.823 1043.654, 431.064 1046.269, 430.761 1046.572 C 430.123 1047.211, 422.581 1037.932, 419.181 1032.325 C 417.905 1030.221, 415.356 1026.725, 413.517 1024.555 C 410.856 1021.416, 409.890 1020.846, 408.785 1021.764 C 408.021 1022.398, 406.412 1022.659, 405.209 1022.345 C 402.692 1021.686, 401.451 1022.679, 383.252 1039.906 C 372.137 1050.428, 369.270 1054, 371.941 1054 C 372.459 1054, 373.160 1053.550, 373.500 1053 C 373.840 1052.450, 374.654 1052.001, 375.309 1052.001 C 375.964 1052.002, 375.277 1053.055, 373.782 1054.340 L 371.063 1056.678 374.282 1060.148 C 415.647 1104.749, 432.310 1123.689, 431.433 1125.108 C 431.144 1125.576, 431.374 1126.831, 431.945 1127.898 C 434.038 1131.809, 423.973 1137.214, 417.583 1135.610 C 416.247 1135.275, 412.242 1132.075, 408.685 1128.500 C 405.127 1124.925, 401.686 1122, 401.037 1122 C 400.336 1122, 400.549 1122.692, 401.563 1123.705 C 402.772 1124.915, 402.913 1125.529, 402.048 1125.817 C 401.061 1126.146, 376.428 1102.110, 376.871 1101.250 C 377.435 1100.155, 375.539 1097.877, 364.958 1086.944 L 352.916 1074.500 349.473 1078.500 C 347.579 1080.700, 346.023 1083.318, 346.015 1084.317 C 346.002 1085.851, 350.101 1092.370, 352.103 1094 C 352.441 1094.275, 354.641 1096.750, 356.993 1099.500 C 371.580 1116.558, 394.530 1140.415, 398.401 1142.547 C 399.447 1143.122, 400.122 1144.117, 399.901 1144.757 C 399.643 1145.505, 397.806 1144.864, 394.750 1142.958 C 392.137 1141.329, 390 1140.495, 390 1141.104 C 390 1143.212, 396.073 1149.871, 398.282 1150.185 C 399.710 1150.388, 400.402 1151.096, 400.223 1152.175 C 400.071 1153.096, 400.971 1154.614, 402.223 1155.548 C 404.783 1157.457, 404.608 1157.414, 395.500 1153.897 C 388.755 1151.292, 377.166 1139.854, 357.183 1116.081 C 354.725 1113.157, 354.332 1112.971, 354.466 1114.793 C 354.553 1115.965, 357.071 1119.538, 360.062 1122.734 C 363.053 1125.929, 369.775 1133.143, 375 1138.766 C 380.225 1144.389, 385.288 1149.247, 386.250 1149.562 C 387.212 1149.877, 388 1150.726, 388 1151.450 C 388 1152.173, 390.925 1155.397, 394.500 1158.614 C 398.075 1161.831, 401 1164.823, 401 1165.263 C 401 1165.703, 400.212 1166.361, 399.250 1166.725 C 398.288 1167.090, 396.929 1167.952, 396.231 1168.642 C 395.209 1169.651, 395.599 1170.091, 398.231 1170.897 C 400.029 1171.448, 404.200 1172.839, 407.500 1173.988 C 413.454 1176.061, 421 1176.019, 421 1173.912 C 421 1173.410, 421.408 1173, 421.906 1173 C 422.405 1173, 422.577 1173.900, 422.290 1175 C 421.801 1176.870, 422.259 1177, 429.324 1177 C 433.481 1177, 437.160 1176.550, 437.500 1176 C 437.840 1175.450, 437.212 1175, 436.105 1175 C 434.997 1175, 431.033 1173.848, 427.295 1172.440 C 423.558 1171.031, 419.086 1169.449, 417.358 1168.922 C 415.630 1168.396, 413.692 1167.334, 413.051 1166.562 C 412.084 1165.396, 412.808 1165.043, 417.323 1164.479 C 422.135 1163.878, 422.700 1163.568, 422.234 1161.786 C 421.793 1160.101, 422.058 1159.884, 423.854 1160.454 C 427.012 1161.456, 426.527 1159.369, 422.814 1155.977 C 421.061 1154.376, 419.516 1152.309, 419.380 1151.383 C 419.244 1150.458, 418.554 1149.342, 417.845 1148.904 C 414.116 1146.600, 422.437 1146.166, 429.250 1148.309 C 435.339 1150.226, 435.680 1148.341, 429.759 1145.500 C 424.562 1143.007, 424.205 1141.901, 427.895 1139.721 C 432.156 1137.204, 449.406 1137.225, 451.019 1139.750 C 451.958 1141.219, 452.027 1141.098, 451.451 1139 C 450.250 1134.630, 450.401 1130.480, 451.750 1130.750 C 452.438 1130.887, 453 1130.550, 453 1130 C 453 1128.324, 457.144 1124.743, 458.033 1125.650 C 458.820 1126.452, 459.762 1132.461, 459.969 1138 L 460.063 1140.500 462.282 1137.995 C 464.496 1135.495, 469.119 1134.652, 471.681 1136.282 C 472.330 1136.695, 473.144 1136.575, 473.490 1136.016 C 473.835 1135.457, 474.879 1135.014, 475.809 1135.032 C 477.286 1135.060, 477.253 1135.250, 475.552 1136.536 C 474.481 1137.347, 472.798 1137.753, 471.811 1137.440 C 469.315 1136.648, 468.094 1137.645, 468.704 1139.976 C 469.041 1141.266, 470.407 1142.173, 472.640 1142.592 C 475.304 1143.092, 475.938 1143.619, 475.508 1144.976 C 475.204 1145.934, 475.593 1147.247, 476.373 1147.894 C 477.153 1148.542, 478.074 1150.581, 478.420 1152.425 C 479.059 1155.834, 481.431 1157.415, 485.326 1157.029 C 486.847 1156.879, 486.975 1157.178, 486.093 1158.826 C 485.178 1160.537, 485.307 1160.733, 487.049 1160.277 C 490.255 1159.439, 491.858 1155.431, 488.816 1155.860 C 487.673 1156.021, 492.073 1146.701, 494.652 1143.500 C 495.981 1141.850, 498.672 1138.091, 500.631 1135.147 C 502.996 1131.593, 504.528 1130.128, 505.189 1130.789 C 506.327 1131.927, 504.552 1136.002, 502.354 1137.300 C 500.575 1138.350, 500.591 1141.094, 502.372 1140.411 C 503.992 1139.789, 510 1131.658, 510 1130.087 C 510 1129.489, 509.212 1128.985, 508.250 1128.967 C 506.795 1128.939, 506.906 1128.595, 508.914 1126.923 C 510.800 1125.353, 511.508 1125.196, 512.149 1126.207 C 513.108 1127.719, 513.094 1127.760, 513.498 1122.250 C 513.816 1117.927, 513.266 1117.134, 511.307 1119.093 C 510.517 1119.883, 509.607 1119.860, 508.020 1119.010 C 506.250 1118.064, 505.966 1117.318, 506.553 1115.168 C 507.865 1110.365, 507.597 1108.581, 505.500 1108.174 C 502.029 1107.499, 501 1105.891, 500.992 1101.128 C 500.988 1098.582, 500.527 1093.800, 499.967 1090.500 C 498.263 1080.458, 498.256 1080.534, 501 1080.166 C 505.282 1079.592, 505.392 1078.283, 501.450 1074.827 C 494.664 1068.879, 494.608 1068.799, 496.494 1067.743 C 498.362 1066.698, 502.008 1069.473, 504.911 1074.149 C 506.366 1076.493, 506.769 1076.642, 508.403 1075.447 C 509.785 1074.437, 510.084 1073.389, 509.587 1071.298 C 509.222 1069.759, 508.752 1067.465, 508.544 1066.201 C 507.950 1062.594, 505.639 1059.693, 497.910 1052.854 C 493.961 1049.359, 489.328 1044.949, 487.615 1043.053 C 485.902 1041.157, 481.849 1036.657, 478.608 1033.053 C 465.710 1018.707, 447.614 1000.996, 446.107 1001.243 C 445.002 1001.423, 444.511 1000.677, 444.468 998.754 C 444.375 994.546, 442.608 993.392, 440.100 995.900 M 266.004 1001.500 C 267.377 1003.150, 268.613 1004.688, 268.750 1004.917 C 268.887 1005.146, 269.220 1005.113, 269.490 1004.844 C 269.759 1004.575, 268.523 1003.037, 266.743 1001.427 L 263.507 998.500 266.004 1001.500 M 388.841 1013.985 C 381.902 1020.247, 376.226 1023.458, 377.372 1020.473 C 377.702 1019.613, 375.504 1021.040, 372.486 1023.645 C 366.527 1028.790, 365.591 1029.969, 369.500 1027.408 C 370.875 1026.507, 372 1026.204, 372 1026.735 C 372 1028.253, 366.650 1035.111, 362.042 1039.500 C 356.525 1044.754, 354.309 1048.689, 359.367 1044.250 C 361.403 1042.463, 364.152 1041, 365.476 1041 C 366.799 1041, 368.180 1040.518, 368.543 1039.930 C 369.381 1038.575, 373.243 1037.083, 374.299 1037.706 C 374.738 1037.966, 374.561 1038.824, 373.906 1039.613 C 373.251 1040.403, 372.953 1041.286, 373.243 1041.577 C 373.902 1042.235, 396.723 1020.385, 398.138 1017.742 C 399.038 1016.061, 398.902 1015.896, 397.086 1016.473 C 394.748 1017.215, 394.697 1017.010, 395.919 1011.750 C 396.398 1009.688, 396.493 1008, 396.131 1008 C 395.769 1008, 392.488 1010.693, 388.841 1013.985 M 1590 1038.538 L 1590 1063.194 1616.250 1062.843 L 1642.500 1062.491 1647.969 1059.495 C 1664.294 1050.554, 1664.109 1025.521, 1647.653 1016.721 C 1643.708 1014.611, 1642.159 1014.484, 1616.750 1014.190 L 1590 1013.881 1590 1038.538 M 369.946 1018.663 L 366.500 1022.325 370.750 1018.995 C 373.087 1017.164, 375 1015.516, 375 1015.333 C 375 1014.138, 372.904 1015.519, 369.946 1018.663 M 363.872 1024.750 C 362.629 1026.336, 362.664 1026.371, 364.250 1025.128 C 365.916 1023.821, 366.445 1023, 365.622 1023 C 365.415 1023, 364.627 1023.788, 363.872 1024.750 M 381 1047.345 C 381 1048.670, 384.064 1052, 385.282 1052 C 385.626 1052, 385.140 1050.653, 384.203 1049.006 C 382.400 1045.836, 381 1045.111, 381 1047.345 M 479 1049.155 C 479 1050.823, 487.890 1060.993, 487.955 1059.400 C 488.009 1058.090, 483.031 1051.075, 480.667 1049.128 C 479.251 1047.962, 479 1047.966, 479 1049.155 M 490.415 1053.300 C 491.967 1055.335, 493.638 1057, 494.127 1057 C 495.481 1057, 493.135 1053.744, 490.201 1051.550 L 487.593 1049.599 490.415 1053.300 M 317.500 1053 C 315.870 1053.701, 315.812 1053.872, 317.191 1053.930 C 318.121 1053.968, 319.160 1053.550, 319.500 1053 C 320.211 1051.850, 320.176 1051.850, 317.500 1053 M 310 1059 C 309.099 1059.582, 308.975 1059.975, 309.691 1059.985 C 310.346 1059.993, 311.160 1059.550, 311.500 1059 C 312.267 1057.758, 311.921 1057.758, 310 1059 M 484 1060.559 C 484 1061.416, 484.457 1061.835, 485.016 1061.490 C 485.575 1061.144, 485.774 1060.443, 485.457 1059.931 C 484.600 1058.544, 484 1058.802, 484 1060.559 M 495.500 1060 C 495.840 1060.550, 496.316 1061, 496.559 1061 C 496.802 1061, 497 1060.550, 497 1060 C 497 1059.450, 496.523 1059, 495.941 1059 C 495.359 1059, 495.160 1059.450, 495.500 1060 M 336.809 1062.984 C 334.737 1066.626, 335.946 1067.596, 339.965 1065.518 C 342.638 1064.136, 342.845 1063.725, 341.754 1061.977 C 340.050 1059.249, 338.788 1059.506, 336.809 1062.984 M 521.086 1079 C 521.055 1079.825, 521.467 1081.175, 522 1082 C 523.181 1083.828, 523.181 1082.249, 522 1079.500 C 521.433 1078.181, 521.122 1078.011, 521.086 1079 M 371.866 1091.750 C 377.333 1098.508, 396.953 1118.527, 396.977 1117.371 C 396.990 1116.751, 392.442 1111.351, 386.871 1105.371 C 381.300 1099.392, 376.300 1093.537, 375.761 1092.360 C 374.930 1090.549, 371.194 1088, 369.369 1088 C 369.074 1088, 370.197 1089.688, 371.866 1091.750 M 334.493 1093.011 C 333.888 1093.990, 336.358 1096.762, 342.537 1102.040 C 347.825 1106.556, 348.600 1106.474, 344.380 1101.846 C 342.115 1099.361, 339.475 1096.129, 338.515 1094.664 C 336.663 1091.837, 335.511 1091.364, 334.493 1093.011 M 471.250 1108.662 C 470.563 1108.940, 470 1109.696, 470 1110.343 C 470 1110.990, 469.100 1112.081, 468 1112.768 C 466.247 1113.863, 465.093 1118, 466.540 1118 C 467.603 1118, 474.875 1114.010, 475.421 1113.128 C 475.727 1112.633, 475.081 1111.993, 473.985 1111.706 C 472.657 1111.359, 472.196 1110.653, 472.603 1109.593 C 473.251 1107.905, 473.205 1107.873, 471.250 1108.662 M 474.500 1117 C 474.160 1117.550, 474.809 1118, 475.941 1118 C 477.073 1118, 478 1117.550, 478 1117 C 478 1116.450, 477.352 1116, 476.559 1116 C 475.766 1116, 474.840 1116.450, 474.500 1117 M 487 1117.335 C 487 1117.593, 488.452 1118.311, 490.227 1118.929 C 492.002 1119.548, 493.015 1119.643, 492.477 1119.140 C 491.338 1118.074, 487 1116.644, 487 1117.335 M 522.624 1120.539 C 522.281 1121.432, 522.029 1122.689, 522.063 1123.332 C 522.098 1123.974, 522.558 1123.422, 523.085 1122.105 C 523.612 1120.787, 523.864 1119.531, 523.645 1119.312 C 523.426 1119.093, 522.966 1119.645, 522.624 1120.539 M 530.079 1126.583 C 530.127 1127.748, 530.364 1127.985, 530.683 1127.188 C 530.972 1126.466, 530.936 1125.603, 530.604 1125.271 C 530.272 1124.939, 530.036 1125.529, 530.079 1126.583 M 517.040 1132.250 C 513.768 1137.973, 514.796 1140.373, 518.399 1135.426 C 520.315 1132.797, 521.812 1127, 520.576 1127 C 520.281 1127, 518.690 1129.362, 517.040 1132.250 M 454.492 1132.479 C 452.872 1134.184, 452.668 1135.115, 453.435 1137.296 C 454.858 1141.341, 456.728 1140.582, 457.245 1135.750 C 457.803 1130.545, 457.111 1129.722, 454.492 1132.479 M 473.543 1131.931 C 473.226 1132.443, 473.425 1133.144, 473.984 1133.490 C 475.177 1134.227, 477 1133.291, 477 1131.941 C 477 1130.724, 474.293 1130.716, 473.543 1131.931 M 523 1137 C 523 1138.289, 523.506 1138.998, 524.250 1138.750 C 524.938 1138.521, 525.500 1137.733, 525.500 1137 C 525.500 1136.267, 524.938 1135.479, 524.250 1135.250 C 523.506 1135.002, 523 1135.711, 523 1137 M 508.513 1147.271 C 506.870 1149.597, 503.951 1153.300, 502.027 1155.500 C 499.191 1158.743, 499.661 1158.475, 504.515 1154.081 C 511.608 1147.659, 513 1146.055, 513 1144.309 C 513 1141.997, 511.574 1142.938, 508.513 1147.271 M 493.325 1161.612 C 491.578 1162.473, 489.417 1163.987, 488.521 1164.977 C 486.981 1166.678, 487.073 1166.758, 490.196 1166.452 C 492.013 1166.274, 493.826 1166.099, 494.224 1166.064 C 495.221 1165.976, 498.242 1159.994, 497.276 1160.023 C 496.849 1160.035, 495.071 1160.750, 493.325 1161.612 M 388.250 1168.706 C 385.006 1169.331, 385.447 1170.474, 390.250 1173.894 C 394.592 1176.987, 404 1182.316, 404 1181.683 C 404 1181.490, 401.578 1179.665, 398.619 1177.626 C 395.659 1175.588, 392.415 1173.011, 391.409 1171.899 C 389.841 1170.166, 389.788 1169.746, 391.040 1168.954 C 392.546 1168.002, 392.107 1167.963, 388.250 1168.706 M 499.500 1169 C 499.160 1169.550, 499.332 1170, 499.882 1170 C 500.432 1170, 501.160 1169.550, 501.500 1169 C 501.840 1168.450, 501.668 1168, 501.118 1168 C 500.568 1168, 499.840 1168.450, 499.500 1169 M 481.500 1170 C 481.840 1170.550, 483.329 1170.993, 484.809 1170.985 C 486.914 1170.973, 487.173 1170.758, 486 1170 C 484.024 1168.723, 480.711 1168.723, 481.500 1170 M 439.813 1176.683 C 440.534 1176.972, 441.397 1176.936, 441.729 1176.604 C 442.061 1176.272, 441.471 1176.036, 440.417 1176.079 C 439.252 1176.127, 439.015 1176.364, 439.813 1176.683" stroke="none" fill="#f0efea" fill-rule="evenodd"/>
</svg>