<svg xmlns="http://www.w3.org/2000/svg" width="2000" height="1104" viewBox="0 0 2000 1104" version="1.1">
	<path d="M 260 387.877 C 222.937 396.064, 196.894 419.237, 185.125 454.500 C 177.230 478.155, 179.437 503.485, 191.489 527.538 C 197.965 540.463, 204.629 548.460, 260.500 610.361 C 269.300 620.110, 280.550 632.834, 285.500 638.636 C 295.081 649.865, 297.056 651.363, 303.750 652.472 L 308 653.176 308 658.394 C 308 664.483, 308.553 665.353, 321.148 679.077 C 325.905 684.260, 337.989 697.725, 348.003 709 C 390.882 757.283, 401.276 765.312, 431.500 773.504 C 434.946 774.438, 443.459 775.364, 451.500 775.679 C 463.504 776.149, 466.742 775.930, 474.207 774.142 C 495.345 769.082, 509.682 761.299, 523.858 747.190 C 529.212 741.860, 534.843 735.627, 536.372 733.338 C 541.079 726.286, 547.090 711.038, 549.711 699.500 C 551.909 689.825, 552.153 686.874, 551.734 675 C 551.187 659.492, 548.858 650.637, 541.473 636 C 535.248 623.659, 529.392 615.858, 509.898 593.933 C 500.329 583.172, 488.522 569.672, 483.659 563.933 C 478.796 558.195, 469.876 548.216, 463.835 541.759 C 454.516 531.796, 452.153 529.814, 448.232 528.670 C 443.776 527.371, 443.570 527.140, 442.457 522.200 C 441.227 516.738, 438.373 512.720, 427.018 500.467 C 418.226 490.979, 394.481 464.821, 388.408 457.933 C 366.007 432.525, 352.081 417.335, 346.487 412.210 C 335.259 401.921, 318.712 393.185, 302.408 388.940 C 290.768 385.909, 271.136 385.417, 260 387.877 M 696.500 453.833 C 655.789 462.998, 625.807 490.579, 614.631 529.146 C 603.293 568.270, 614.746 610.765, 644.090 638.446 C 662.567 655.876, 687.859 666.304, 715 667.683 C 764.051 670.175, 804.545 644.912, 818.316 603.226 C 822.619 590.203, 824 580.775, 824 564.428 L 824 552 772 552 L 720 552 720 570 L 720 588 751.485 588 L 782.971 588 780.936 593.250 C 774.716 609.295, 760.379 621.058, 741.500 625.605 C 730.632 628.223, 711.658 628.029, 701.163 625.194 C 676.856 618.626, 661.276 603.733, 653.861 579.975 C 650.854 570.339, 650.612 551.172, 653.371 541 C 657.549 525.592, 668.010 510.834, 680.748 502.379 C 688.061 497.525, 703.099 492.344, 712.328 491.500 C 735.871 489.345, 760.066 499.422, 773.043 516.788 L 775.500 520.075 790.500 511.428 C 798.750 506.673, 806.527 502.136, 807.783 501.346 L 810.065 499.911 805.876 493.938 C 793.439 476.209, 770.878 461.175, 747.175 454.823 C 736.038 451.838, 707.811 451.287, 696.500 453.833 M 1754.077 454.054 C 1734.450 459.193, 1719.464 470.978, 1711.548 487.500 C 1707.401 496.155, 1705.996 502.708, 1706.015 513.299 C 1706.058 537.027, 1717.278 553.927, 1740.454 565.174 C 1744.880 567.321, 1755.700 571.340, 1764.500 574.104 C 1793.315 583.156, 1799.909 585.828, 1806.168 590.987 C 1813.655 597.159, 1815.335 607.926, 1810.100 616.182 C 1805.994 622.655, 1799.199 625.807, 1786.330 627.205 C 1763.098 629.730, 1744.328 620.479, 1734.937 601.875 L 1731.991 596.039 1724.246 600.620 C 1710.136 608.964, 1703.155 613, 1702.826 613.002 C 1702.646 613.003, 1702.651 610.068, 1702.836 606.479 C 1703.806 587.669, 1695.726 570.310, 1680.955 559.467 L 1675.966 555.804 1681.509 549.816 C 1690.759 539.825, 1695 528.773, 1695 514.655 C 1695 498.038, 1689.832 485.591, 1678.103 473.960 C 1669.502 465.430, 1661.826 461.152, 1649.432 457.983 C 1642.256 456.147, 1638.273 456, 1595.840 456 L 1550 456 1550 560.059 L 1550 664.118 1600.250 663.756 C 1648.767 663.407, 1650.753 663.318, 1657.829 661.172 C 1672.399 656.753, 1683.426 649.330, 1691.505 638.500 C 1693.968 635.200, 1696.773 630.589, 1697.741 628.254 C 1698.708 625.918, 1699.725 624.007, 1700 624.006 C 1700.275 624.005, 1701.837 626.591, 1703.471 629.752 C 1705.271 633.236, 1709.800 638.865, 1714.971 644.043 C 1727.662 656.756, 1740.943 663.173, 1761.500 666.524 C 1777.627 669.154, 1796.785 667.763, 1811.335 662.906 C 1827.410 657.540, 1841.870 645.442, 1848.273 632 C 1852.998 622.081, 1854.385 614.404, 1853.739 601.746 C 1852.866 584.656, 1847.478 573.563, 1835.088 563.343 C 1826.196 556.008, 1815.339 550.988, 1790.671 542.804 C 1779.027 538.940, 1766.786 534.552, 1763.470 533.052 C 1756.203 529.765, 1750.186 524.690, 1748.351 520.298 C 1746.613 516.139, 1746.622 508.840, 1748.370 504.657 C 1750.258 500.137, 1757.143 494.510, 1762.792 492.868 C 1769.836 490.821, 1783.288 491.367, 1790.247 493.982 C 1797.344 496.649, 1805.675 504.052, 1810.650 512.113 L 1814.298 518.022 1817.399 516.220 C 1819.104 515.229, 1826.688 510.850, 1834.250 506.489 C 1841.813 502.128, 1848 498.201, 1848 497.762 C 1848 496.337, 1840.293 484.232, 1836.345 479.457 C 1826.446 467.484, 1810.639 457.766, 1795 454.040 C 1783.482 451.295, 1764.589 451.301, 1754.077 454.054 M 835 560.021 L 835 664.041 855.250 663.771 L 875.500 663.500 875.755 559.750 L 876.009 456 855.505 456 L 835 456 835 560.021 M 896 560.021 L 896 664.041 916.250 663.771 L 936.500 663.500 936.763 627.725 L 937.025 591.949 952.699 592.225 L 968.373 592.500 988.959 628 L 1009.546 663.500 1047.450 663.500 L 1085.353 663.500 1091.406 645.250 L 1097.459 627 1139.147 627 L 1180.834 627 1187 645.500 L 1193.166 664 1215.083 664 C 1231.615 664, 1237 663.701, 1237 662.785 C 1237 662.117, 1220.724 615.309, 1200.831 558.768 L 1164.663 455.967 1139.087 456.233 L 1113.510 456.500 1079.870 552.500 C 1061.367 605.300, 1045.947 648.500, 1045.603 648.500 C 1045.258 648.500, 1036.667 634.358, 1026.511 617.074 L 1008.046 585.647 1014.465 581.803 C 1028.549 573.368, 1038.982 560.546, 1044.289 545.149 C 1050.148 528.151, 1048.860 511.514, 1040.328 494 C 1031.743 476.377, 1015.057 463.002, 995.377 457.968 C 988.271 456.151, 984.162 456, 941.840 456 L 896 456 896 560.021 M 1239 560 L 1239 664 1317.417 664 L 1395.834 664 1402 645.500 L 1408.166 627 1449.853 627 L 1491.541 627 1497.593 645.250 L 1503.646 663.500 1525.823 663.769 C 1538.020 663.917, 1548.002 663.692, 1548.005 663.269 C 1548.007 662.846, 1531.695 616.045, 1511.755 559.267 L 1475.500 456.034 1449.945 456.017 L 1424.389 456 1392.445 547.229 L 1360.500 638.458 1360 631.479 L 1359.500 624.500 1319.750 624.239 L 1280 623.977 1280 539.989 L 1280 456 1259.500 456 L 1239 456 1239 560 M 937 524.437 L 937 555 961.304 555 C 985.449 555, 985.641 554.983, 990.805 552.410 C 996.533 549.555, 1000.825 544.945, 1004.192 538.031 C 1007.259 531.732, 1007.344 518.512, 1004.359 511.949 C 1001.621 505.930, 996.779 500.543, 991.113 497.212 L 986.500 494.500 961.750 494.187 L 937 493.873 937 524.437 M 1591 517.065 L 1591 540.131 1614.832 539.815 L 1638.664 539.500 1643.538 536.485 C 1658.453 527.257, 1657.325 503.716, 1641.617 496.402 C 1636.700 494.113, 1635.609 494.019, 1613.750 494.010 L 1591 494 1591 517.065 M 1138.520 505.107 C 1137.693 507.295, 1111 587.441, 1111 587.736 C 1111 587.881, 1123.794 588, 1139.432 588 L 1167.864 588 1153.933 546.334 C 1146.270 523.418, 1139.787 504.453, 1139.524 504.191 C 1139.262 503.928, 1138.810 504.341, 1138.520 505.107 M 1449.036 506.500 C 1447.095 511.350, 1422 586.204, 1422 587.143 C 1422 587.614, 1434.600 588, 1450 588 C 1465.400 588, 1478 587.658, 1478 587.241 C 1478 586.823, 1471.753 567.811, 1464.118 544.991 C 1451.031 505.873, 1450.168 503.672, 1449.036 506.500 M 1591 601 L 1591 625 1617.750 624.978 C 1648.078 624.953, 1649.471 624.672, 1656.183 617.227 C 1664.086 608.461, 1664.118 593.564, 1656.252 584.857 C 1649.286 577.147, 1648.571 577, 1618.040 577 L 1591 577 1591 601" stroke="none" fill="#000000" fill-rule="evenodd"/>
</svg>