<svg xmlns="http://www.w3.org/2000/svg" width="2000" height="1673" viewBox="0 0 2000 1673" version="1.1">
	<rect x="0" y="0" width="100%" height="100%" fill="#f0efea" />
	<path d="M 258 705.949 C 234.064 711.040, 210.741 726.238, 197.941 745.087 C 192.147 753.619, 185.365 768.188, 182.852 777.500 C 181.070 784.103, 180.705 788.119, 180.762 800.500 C 180.847 819.052, 183.420 830.352, 191.008 845.500 C 197.220 857.902, 199.841 861.140, 240 906.033 C 257.875 926.014, 275.650 945.984, 279.500 950.410 C 283.350 954.836, 289.015 961.054, 292.090 964.228 C 297.009 969.307, 298.149 970.002, 301.590 970.015 C 307.193 970.037, 308.394 971.085, 307.610 975.267 C 306.690 980.167, 308.174 983.283, 314.672 990.095 C 318.957 994.588, 320.802 995.880, 322.265 995.416 C 323.840 994.916, 324.082 995.168, 323.572 996.774 C 322.844 999.067, 323.502 999.902, 345.258 1024.303 C 383.536 1067.233, 390.844 1074.113, 407 1082.421 C 423.540 1090.927, 439.747 1094.529, 458.286 1093.820 C 467.813 1093.455, 470.311 1093.014, 473.498 1091.134 C 476.332 1089.462, 477.503 1089.196, 478.062 1090.100 C 479.168 1091.890, 495.638 1085.906, 505.430 1080.156 C 513.703 1075.299, 526.909 1063.789, 533.119 1056.025 C 537.101 1051.048, 543 1040.500, 543 1038.359 C 543 1037.612, 542.564 1037, 542.031 1037 C 540.533 1037, 542.054 1033.725, 544.585 1031.500 C 546.027 1030.233, 547.667 1026.569, 549.063 1021.500 C 556.713 993.720, 551.138 964.833, 533.236 939.500 C 530.516 935.650, 520.456 923.725, 510.882 913 C 501.307 902.275, 487.903 887.051, 481.094 879.169 C 474.285 871.287, 467.878 864.316, 466.857 863.679 C 465.836 863.041, 464.990 862.065, 464.977 861.509 C 464.938 859.773, 454.658 849.342, 451.300 847.631 C 449.539 846.734, 446.952 846, 445.550 846 C 443.048 846, 442.591 845.254, 442.948 841.750 C 443.046 840.788, 442.617 840, 441.995 840 C 441.312 840, 441.122 839.191, 441.515 837.953 C 442.385 835.210, 440.564 832.921, 416.023 805.916 C 404.735 793.495, 388.975 775.970, 381 766.970 C 346.670 728.230, 344.713 726.348, 329.772 717.726 C 312.809 707.937, 297.559 703.944, 277.619 704.070 C 270.964 704.112, 263.087 704.867, 258 705.949 M 262.500 710 C 262.840 710.550, 264.329 710.993, 265.809 710.985 C 267.914 710.973, 268.173 710.758, 267 710 C 265.024 708.723, 261.711 708.723, 262.500 710 M 310.813 717.683 C 311.534 717.972, 312.397 717.936, 312.729 717.604 C 313.061 717.272, 312.471 717.036, 311.417 717.079 C 310.252 717.127, 310.015 717.364, 310.813 717.683 M 260 720.721 C 258.625 720.968, 257.050 721.631, 256.500 722.195 C 255.283 723.443, 270.702 722.261, 273 720.930 C 274.563 720.025, 264.759 719.867, 260 720.721 M 269.026 726.140 C 266.015 726.639, 260.386 728.612, 256.517 730.524 C 252.648 732.436, 248.811 734.003, 247.991 734.007 C 245.933 734.016, 240.829 737.496, 241.659 738.325 C 242.030 738.696, 241.583 739.056, 240.667 739.125 C 239.750 739.194, 238.438 739.306, 237.750 739.375 C 237.048 739.445, 236.360 741.206, 236.181 743.390 C 235.869 747.202, 234.151 750, 232.122 750 C 231.055 750, 226 756.140, 226 757.437 C 226 757.848, 225.099 759.330, 223.998 760.730 C 222.305 762.881, 222.213 763.448, 223.402 764.388 C 224.902 765.574, 224.494 772, 222.918 772 C 222.448 772, 222.321 772.674, 222.637 773.497 C 222.970 774.364, 221.900 776.488, 220.098 778.541 C 217.633 781.349, 217.119 782.652, 217.633 784.794 C 218.485 788.348, 218.477 788.343, 220.857 786.857 C 223.305 785.328, 223.918 785.791, 224.501 789.614 C 224.744 791.201, 225.366 794.225, 225.885 796.334 C 226.689 799.605, 226.542 800.412, 224.881 801.834 C 223.811 802.750, 222.425 803.500, 221.801 803.500 C 221.177 803.500, 220.479 804.063, 220.250 804.750 C 220.021 805.438, 220.321 806, 220.917 806 C 222.288 806, 222.342 809.670, 220.984 810.510 C 220.425 810.856, 220.226 811.557, 220.543 812.069 C 220.859 812.581, 219.975 813, 218.578 813 C 216.683 813, 215.874 812.346, 215.392 810.427 C 215.027 808.973, 215.237 807.363, 215.873 806.727 C 217.472 805.128, 217.269 804, 215.383 804 C 213.780 804, 213.805 802.852, 215.498 798.739 C 216.054 797.387, 215.848 797.121, 214.611 797.596 C 213.365 798.074, 213 797.577, 213 795.407 C 213 791.072, 210.911 793.947, 210.430 798.945 C 210.209 801.243, 209.346 804.095, 208.514 805.284 C 207.681 806.472, 207 808.882, 207 810.639 C 207 812.396, 206.474 814.009, 205.831 814.223 C 205.188 814.437, 204.722 816.227, 204.796 818.200 C 204.964 822.666, 208.021 830.584, 208.979 829.034 C 209.742 827.800, 211.349 829.271, 212.189 831.971 C 212.441 832.780, 214.380 834.355, 216.498 835.471 C 219.163 836.875, 220.699 838.551, 221.485 840.913 C 222.824 844.940, 225.609 845.973, 225.452 842.386 C 225.395 841.082, 225.045 839.711, 224.674 839.341 C 224.303 838.970, 224 837.643, 224 836.392 C 224 835.141, 223.550 833.840, 223 833.500 C 221.424 832.526, 221.834 830.999, 223.500 831.638 C 225.478 832.398, 225.396 831.785, 222.962 827.661 L 220.925 824.207 223.418 824.353 C 225.479 824.475, 225.814 824.890, 225.347 826.750 C 224.870 828.652, 225.186 829, 227.392 829 C 228.826 829, 230 829.450, 230 830 C 230 830.550, 230.900 831, 232 831 C 233.100 831, 234 830.564, 234 830.031 C 234 829.499, 234.727 829.342, 235.615 829.683 C 236.934 830.189, 237.093 829.862, 236.481 827.901 C 236.068 826.581, 235.454 825.275, 235.115 825 C 234.777 824.725, 234.391 822.729, 234.258 820.564 C 234.125 818.400, 233.450 816.228, 232.758 815.738 C 231.754 815.027, 231.752 814.745, 232.750 814.341 C 235.093 813.390, 234.007 811.051, 230.350 809.175 C 224.433 806.140, 228.949 805.635, 235.758 808.571 C 235.899 808.632, 236.940 812.241, 238.070 816.591 C 240.608 826.357, 242.571 832.269, 244.540 836.078 C 246.158 839.207, 247.641 840.112, 246.568 837.315 C 245.591 834.771, 259.819 849.469, 266.568 857.977 C 274.116 867.492, 275.853 869.589, 279.340 873.398 C 280.902 875.104, 282.927 877.625, 283.840 879 C 284.753 880.375, 286.606 882.759, 287.959 884.299 C 293.175 890.236, 298.853 898.451, 299.278 900.675 C 300.045 904.687, 296.559 903.416, 291.565 897.861 C 289.024 895.035, 286.687 892.980, 286.371 893.295 C 285.820 893.847, 286.699 895.153, 290.077 898.798 C 293.588 902.587, 297 907.785, 297 909.344 C 297 910.255, 297.438 911, 297.974 911 C 298.510 911, 299.647 912.350, 300.500 914 C 301.376 915.695, 302.857 917, 303.903 917 C 306.415 917, 308.224 919.396, 307.826 922.195 C 307.566 924.021, 306.927 924.461, 304.749 924.312 C 301.775 924.108, 301.029 925.413, 303.563 926.386 C 304.540 926.761, 304.822 927.457, 304.313 928.243 C 303.180 929.995, 303.296 934.350, 304.500 935.235 C 305.065 935.650, 304.738 935.976, 303.750 935.985 C 302.788 935.993, 302 936.675, 302 937.500 C 302 939.773, 303.321 939.319, 306.563 935.931 C 310.647 931.664, 319.572 924.886, 321.474 924.607 C 322.344 924.479, 322.930 924.102, 322.777 923.768 C 322.625 923.434, 323.625 921.964, 325 920.500 C 326.375 919.036, 327.385 917.648, 327.244 917.416 C 326.716 916.544, 329.531 913, 330.750 913 C 331.448 913, 332.790 912.100, 333.732 911 C 334.674 909.900, 335.843 909, 336.330 909 C 336.817 909, 342.904 903.523, 349.858 896.829 C 356.811 890.134, 366.775 881.220, 372 877.019 C 384.750 866.768, 388.779 863.224, 392.966 858.581 C 394.910 856.426, 398.956 852.310, 401.957 849.434 C 406.524 845.058, 407.212 843.960, 406.170 842.705 C 404.977 841.267, 396.451 838, 393.891 838 C 391.545 838, 379.492 831.629, 377.468 829.319 C 376.351 828.044, 374.964 827, 374.386 827 C 372.601 827, 342.160 795.825, 339.763 791.541 C 339.289 790.693, 337.910 789.993, 336.700 789.985 C 334.913 789.972, 334.782 789.787, 336 789 C 337.270 788.179, 337.220 788.028, 335.679 788.015 C 334.677 788.007, 333.182 787.325, 332.357 786.500 C 331.452 785.595, 331.307 785, 331.992 785 C 332.617 785, 331.234 782.300, 328.919 779 C 326.604 775.700, 324.357 773, 323.926 773 C 323.495 773, 322.628 770.525, 322 767.500 C 321.004 762.702, 320.556 762, 318.488 762 C 317.185 762, 315.840 761.550, 315.500 761 C 315.160 760.450, 315.636 760, 316.558 760 C 317.797 760, 318.111 759.362, 317.765 757.549 C 317.495 756.136, 318.078 753.911, 319.141 752.299 C 321.567 748.620, 321.478 747.284, 318.750 746.432 C 316.146 745.619, 312.627 742.283, 311.702 739.750 C 311.350 738.788, 310.261 737.995, 309.281 737.988 C 308.302 737.982, 305.426 735.978, 302.891 733.536 C 300.355 731.094, 296.530 728.438, 294.391 727.632 C 289.402 725.755, 276.074 724.971, 269.026 726.140 M 702.500 770.474 C 690.090 772.453, 682.289 774.778, 672.377 779.451 C 660.698 784.958, 652.599 790.486, 643.374 799.249 C 629.974 811.978, 621.456 825.405, 615.619 843 C 610.965 857.030, 609.578 867.439, 610.299 882.939 C 611.064 899.370, 614.299 912.032, 621.429 926.500 C 635.333 954.712, 658.931 973.617, 691.520 982.655 C 700.909 985.258, 702.683 985.421, 721.500 985.399 C 740.179 985.377, 742.161 985.195, 751.500 982.629 C 787.673 972.695, 811.901 948.790, 821.059 914 C 823.171 905.979, 824.977 889.094, 824.991 877.250 L 825 870 771.977 870 L 718.955 870 719.227 888.250 L 719.500 906.500 750.750 906.764 C 767.938 906.910, 782 907.295, 782 907.621 C 782 907.947, 780.628 911.089, 778.951 914.603 C 773.069 926.927, 762.161 936.166, 746.988 941.674 C 740.009 944.207, 738.377 944.396, 723 944.446 C 704.053 944.508, 698.804 943.414, 685.500 936.628 C 669.561 928.499, 657.501 912.629, 653.460 894.466 C 650.890 882.913, 651.829 864.140, 655.501 853.647 C 666.655 821.780, 699.823 804.237, 735.185 811.503 C 749.205 814.384, 765.196 824.325, 772.089 834.446 C 773.415 836.393, 774.911 837.989, 775.413 837.993 C 777.184 838.006, 810 818.564, 810 817.501 C 810 815.608, 797.363 800.553, 791.744 795.753 C 767.177 774.764, 734.190 765.420, 702.500 770.474 M 1759.500 770.455 C 1738.107 774.349, 1720.043 787.100, 1711.776 804.142 C 1707.099 813.784, 1705.595 820.530, 1705.677 831.500 C 1705.826 851.458, 1712.897 865.403, 1728.519 876.551 C 1737.273 882.798, 1746.793 886.962, 1766 892.944 C 1794.548 901.836, 1802.787 905.576, 1808.725 912.339 C 1814.293 918.681, 1814.161 929.090, 1808.427 935.904 C 1807.042 937.551, 1803.386 940.132, 1800.303 941.640 C 1795.473 944.003, 1793.158 944.442, 1783.572 944.809 C 1777.251 945.051, 1770.055 944.738, 1766.908 944.085 C 1753.178 941.234, 1742.320 933.006, 1735.909 920.592 C 1733.471 915.870, 1732.073 914.150, 1731 914.551 C 1730.175 914.859, 1723.783 918.461, 1716.795 922.555 C 1709.807 926.650, 1703.845 930, 1703.545 930 C 1703.245 930, 1703 926.045, 1703 921.210 C 1703 906.923, 1699.193 895.966, 1690.899 886.384 C 1686.967 881.841, 1681.348 876.868, 1678 874.970 C 1676.782 874.279, 1677.280 873.310, 1680.655 869.809 C 1690.425 859.676, 1695.394 847.256, 1695.382 833 C 1695.374 822.619, 1693.819 815.676, 1689.446 806.500 C 1681.090 788.968, 1662.993 776.893, 1640.737 774.002 C 1636.757 773.485, 1614.713 773.048, 1591.750 773.031 L 1550 773 1550 877.550 L 1550 982.101 1601.250 981.778 C 1651.786 981.460, 1652.597 981.423, 1659.500 979.130 C 1670.905 975.341, 1677.953 971.063, 1686.059 963.010 C 1691.212 957.890, 1694.553 953.527, 1696.559 949.300 C 1698.176 945.890, 1699.725 943.084, 1700 943.065 C 1700.275 943.045, 1701.680 945.160, 1703.123 947.764 C 1712.268 964.278, 1730.341 977.481, 1751.500 983.107 C 1762.728 986.092, 1785.077 986.808, 1797.839 984.591 C 1819.847 980.769, 1837.617 969.747, 1846.666 954.307 C 1851.871 945.426, 1854.253 936.367, 1854.372 925 C 1854.606 902.656, 1846.994 888.108, 1829 876.508 C 1819.359 870.293, 1806.941 865.289, 1780.500 856.963 C 1766.956 852.698, 1757.246 848.030, 1752.796 843.644 C 1741.428 832.439, 1747.762 814.658, 1764.452 810.923 C 1772.815 809.052, 1785.404 810.117, 1792.309 813.281 C 1799.040 816.366, 1807.310 824.334, 1810.998 831.289 C 1812.372 833.880, 1813.901 836, 1814.396 836 C 1815.092 836, 1847.445 817.649, 1848.808 816.482 C 1848.977 816.337, 1847.177 812.907, 1844.808 808.859 C 1839.590 799.945, 1824.917 784.917, 1816.761 780.135 C 1800.747 770.744, 1778.538 766.989, 1759.500 770.455 M 834 877.500 L 834 982 855 982 L 876 982 876 877.500 L 876 773 855 773 L 834 773 834 877.500 M 895 877.500 L 895 982 916 982 L 937 982 937 946 L 937 910 952.335 910 L 967.670 910 988.528 946 L 1009.386 982 1047.463 982 L 1085.541 982 1091.594 963.750 L 1097.647 945.500 1139.090 945.239 L 1180.533 944.978 1186.590 963.239 L 1192.646 981.500 1215.323 981.769 C 1227.795 981.917, 1238 981.854, 1238 981.630 C 1238 981.406, 1221.575 934.532, 1201.500 877.466 C 1181.425 820.400, 1165 773.550, 1165 773.355 C 1165 773.160, 1153.541 773, 1139.535 773 C 1116.288 773, 1113.993 773.152, 1113.183 774.750 C 1112.694 775.712, 1097.308 819.339, 1078.990 871.698 L 1045.685 966.895 1027.347 935.698 C 1017.262 918.539, 1009.024 904.275, 1009.041 904 C 1009.057 903.725, 1012.015 901.700, 1015.613 899.500 C 1024.927 893.805, 1035.595 882.295, 1040.744 872.386 C 1045.927 862.410, 1047.971 854.096, 1047.968 843 C 1047.957 808.551, 1024.266 780.416, 990.279 774.489 C 983.598 773.324, 972.292 773, 938.369 773 L 895 773 895 877.500 M 1239 877.486 L 1239 982.012 1317.620 981.756 L 1396.240 981.500 1402.486 963.500 L 1408.733 945.500 1450.043 945.500 L 1491.353 945.500 1497.406 963.750 L 1503.459 982 1526.213 982 L 1548.966 982 1544.656 969.750 C 1542.285 963.013, 1525.756 915.989, 1507.923 865.254 L 1475.500 773.007 1449.904 773.004 L 1424.309 773 1392.404 864.115 L 1360.500 955.230 1360.204 948.615 L 1359.909 942 1320.460 942 L 1281.011 942 1280.756 857.750 L 1280.500 773.500 1259.750 773.230 L 1239 772.959 1239 877.486 M 307.800 786.200 C 308.460 786.860, 309 788.347, 309 789.504 C 309 790.661, 310.575 793.134, 312.500 795 C 314.425 796.866, 316 797.835, 316 797.153 C 316 795.739, 308.285 785, 307.268 785 C 306.901 785, 307.140 785.540, 307.800 786.200 M 190.556 788.188 C 190.165 789.460, 189.634 797.250, 189.375 805.500 C 189.100 814.269, 188.509 820.396, 187.952 820.250 C 186.217 819.794, 186.965 823.669, 189.276 827.110 C 190.528 828.975, 193.052 834.094, 194.885 838.486 C 200.285 851.427, 202.642 853.493, 199.564 842.588 C 196.052 830.143, 194.811 820.476, 195.065 807.534 C 195.287 796.190, 195.058 793.941, 193.293 790.188 C 191.416 786.198, 191.213 786.049, 190.556 788.188 M 300 802.893 C 300 804.017, 302.601 805.066, 303.402 804.264 C 304.606 803.061, 303.949 802, 302 802 C 300.900 802, 300 802.402, 300 802.893 M 305 808.500 C 305 810.187, 307.602 813.038, 311.433 815.548 C 314.190 817.354, 314.971 816.085, 312.750 813.410 C 307.590 807.193, 305 805.552, 305 808.500 M 937 842.397 L 937 873 960.750 872.990 C 983.525 872.981, 984.705 872.885, 989.500 870.647 C 1001.476 865.058, 1008.117 851.626, 1005.853 837.569 C 1004.147 826.975, 998.781 819.604, 989 814.419 C 985.936 812.794, 982.476 812.515, 961.250 812.179 L 937 811.795 937 842.397 M 1591 834.500 L 1591 857 1614.550 857 C 1634.254 857, 1638.622 856.736, 1641.300 855.383 C 1651.029 850.467, 1655.638 839.998, 1652.970 828.876 C 1651.286 821.857, 1644.531 814.875, 1637.779 813.175 C 1634.941 812.460, 1624.869 812, 1612.057 812 L 1591 812 1591 834.500 M 1139.061 823.066 C 1139.027 823.377, 1132.712 842.165, 1125.026 864.816 L 1111.052 906 1139.135 906 L 1167.217 906 1166.638 903.694 C 1165.802 900.363, 1139.133 822.391, 1139.061 823.066 M 1436.097 863.762 C 1428.726 885.618, 1422.490 904.063, 1422.240 904.750 C 1421.884 905.731, 1427.853 906, 1450 906 C 1472.137 906, 1478.120 905.731, 1477.778 904.750 C 1477.538 904.063, 1471.323 885.612, 1463.966 863.750 C 1456.609 841.888, 1450.345 824.006, 1450.045 824.012 C 1449.745 824.019, 1443.469 841.907, 1436.097 863.762 M 226.750 827.662 C 227.438 827.940, 228.563 827.940, 229.250 827.662 C 229.938 827.385, 229.375 827.158, 228 827.158 C 226.625 827.158, 226.063 827.385, 226.750 827.662 M 275.189 827.766 C 274.122 828.125, 274.135 828.514, 275.259 829.854 C 276.019 830.759, 277.136 833.206, 277.740 835.292 C 278.795 838.933, 278.753 839.056, 276.673 838.396 C 275.482 838.018, 273.958 836.987, 273.286 836.104 C 272.230 834.719, 272.059 834.878, 272.032 837.277 C 271.998 840.199, 274.200 843.082, 284.008 852.955 C 287.037 856.005, 290.962 860.275, 292.730 862.444 C 294.498 864.614, 296.184 866.149, 296.477 865.856 C 297.414 864.919, 294.853 859, 293.511 859 C 292.799 859, 291.938 857.891, 291.598 856.535 C 291.183 854.882, 290.489 854.259, 289.490 854.642 C 288.291 855.102, 288 854.227, 288 850.166 C 288 847.390, 287.589 844.864, 287.087 844.554 C 286.585 844.243, 285.877 842.231, 285.514 840.082 C 284.754 835.583, 280.384 828.332, 278.072 827.733 C 277.207 827.509, 275.910 827.524, 275.189 827.766 M 231 833 C 231 833.550, 231.450 834, 232 834 C 232.550 834, 233 833.550, 233 833 C 233 832.450, 232.550 832, 232 832 C 231.450 832, 231 832.450, 231 833 M 411.253 851.490 C 409.467 852.266, 406.317 854.249, 404.253 855.896 C 402.189 857.543, 399.240 859.538, 397.700 860.328 C 392.285 863.106, 351.685 901, 354.123 901 C 354.847 901, 356.672 899.556, 358.178 897.792 C 359.684 896.027, 361.237 894.904, 361.629 895.296 C 362.021 895.688, 358.920 899.269, 354.739 903.254 C 350.557 907.239, 345.478 912.525, 343.452 915 C 339.652 919.643, 336.929 921.391, 335.923 919.834 C 335.044 918.474, 330 922.885, 330 925.014 C 330 926.041, 329.641 927.104, 329.203 927.375 C 328.764 927.646, 328.427 929.135, 328.453 930.684 C 328.488 932.767, 329.049 933.578, 330.607 933.801 C 333.150 934.164, 340 930.315, 340 928.523 C 340 927.820, 341.012 926.493, 342.250 925.576 C 343.488 924.658, 343.938 924.180, 343.250 924.513 C 342.563 924.846, 342 924.731, 342 924.259 C 342 922.804, 344.307 921, 346.166 921 C 347.138 921, 349.635 919.482, 351.716 917.628 C 353.797 915.773, 359.550 910.644, 364.500 906.230 C 375.128 896.752, 384.026 887.771, 383.719 886.830 C 383.218 885.296, 390.643 878.613, 391.431 879.888 C 392.147 881.048, 389.291 886.662, 387.181 888.242 C 386.256 888.934, 384.830 890.400, 384.012 891.500 C 382.001 894.203, 392.557 884.703, 397.249 879.588 C 399.310 877.339, 400.998 875.163, 400.999 874.750 C 400.999 874.337, 401.534 874, 402.186 874 C 404.723 874, 419.982 856.652, 419.996 853.750 C 420.006 851.701, 417.865 853.550, 414.397 858.585 C 409.590 865.565, 407.840 866.597, 404.510 864.415 C 403.130 863.510, 402 862.452, 402 862.063 C 402 861.674, 405.375 859.366, 409.500 856.934 C 418.781 851.462, 419.996 847.689, 411.253 851.490 M 433.481 867.050 C 431.292 868.085, 428.987 868.947, 428.361 868.966 C 427.734 868.985, 422.334 873.103, 416.361 878.119 C 410.387 883.134, 404.534 887.605, 403.353 888.055 C 402.173 888.504, 399.473 891.005, 397.353 893.611 C 395.234 896.217, 384.950 907.082, 374.500 917.755 C 364.050 928.427, 355.335 937.617, 355.134 938.177 C 354.512 939.909, 358.144 937.448, 363.500 932.510 C 366.250 929.974, 370.525 926.235, 373 924.200 C 375.475 922.165, 377.908 919.825, 378.406 919 C 379.633 916.967, 388.263 909, 389.237 909 C 390.715 909, 385.499 915.975, 384 916.003 C 382.667 916.028, 382.667 916.138, 384 917 C 384.825 917.533, 385.031 917.976, 384.458 917.985 C 383.885 917.993, 381.786 919.538, 379.793 921.418 C 377.800 923.298, 375.906 924.573, 375.585 924.251 C 375.263 923.930, 375 924.154, 375 924.750 C 375 925.346, 375.563 926.023, 376.250 926.255 C 376.938 926.488, 375.925 927.492, 374 928.488 C 372.075 929.483, 369.912 931.131, 369.193 932.149 C 368.475 933.167, 367.510 934, 367.049 934 C 366.588 934, 364.766 935.350, 363 937 C 361.234 938.650, 359.162 940, 358.397 940 C 357.632 940, 355.221 941.612, 353.041 943.582 C 350.695 945.701, 348.588 946.864, 347.883 946.428 C 347.142 945.970, 346.954 946.117, 347.387 946.817 C 347.770 947.437, 347.365 949.040, 346.487 950.379 C 340.663 959.268, 362.341 948.304, 374.695 936.113 C 378.102 932.751, 381.589 930, 382.445 930 C 383.300 930, 383.887 929.438, 383.750 928.750 C 383.612 928.063, 384.046 927.607, 384.714 927.738 C 385.382 927.869, 385.689 927.353, 385.397 926.592 C 385.105 925.830, 385.896 924.486, 387.155 923.604 C 390.452 921.295, 391.622 921.631, 389.405 924.250 L 387.500 926.500 390 924.505 C 393.965 921.342, 411.056 905.897, 415.477 901.482 C 417.690 899.273, 420.762 896.659, 422.304 895.674 C 423.846 894.689, 425.373 893.122, 425.697 892.192 C 426.021 891.261, 427.926 888.475, 429.930 886 C 436.847 877.456, 440.143 871.417, 439.432 868.586 C 438.537 865.019, 438.045 864.892, 433.481 867.050 M 428.806 874.938 C 427.451 876.004, 425.104 877.187, 423.590 877.567 C 420.504 878.341, 419.177 880.577, 420.825 882.225 C 421.612 883.012, 422.319 882.980, 423.369 882.109 C 425.085 880.684, 426.298 882.060, 425.396 884.410 C 425.061 885.284, 425.021 886, 425.308 886 C 426.049 886, 432.558 876.849, 433.310 874.750 C 434.156 872.391, 431.926 872.484, 428.806 874.938 M 398.500 887.154 C 391.350 893.707, 383.925 900.694, 382 902.682 C 378.647 906.143, 378.626 906.209, 381.500 904.245 C 384.226 902.382, 391.711 896.087, 399.500 889.105 C 401.150 887.626, 403.413 885.309, 404.529 883.954 C 405.646 882.600, 407.825 880.496, 409.373 879.278 C 410.921 878.061, 412.033 876.654, 411.844 876.152 C 411.655 875.650, 405.650 880.601, 398.500 887.154 M 378.592 880.555 C 375.516 883.060, 373 885.535, 373 886.055 C 373 887.527, 374.113 887.175, 375.883 885.143 C 376.772 884.122, 378.400 882.974, 379.500 882.592 C 381.720 881.822, 386.725 876, 385.168 876 C 384.626 876, 381.667 878.050, 378.592 880.555 M 446.500 880 C 444.919 881.650, 443.209 883, 442.699 883 C 441.394 883, 431.262 891.705, 419.487 902.943 C 396.359 925.016, 390.127 930.857, 383.220 936.937 C 378.058 941.480, 376.312 943.581, 377.220 944.157 C 378.054 944.686, 377.527 944.975, 375.707 944.985 C 373.807 944.995, 371.410 946.397, 368.207 949.373 C 365.618 951.777, 361.617 954.696, 359.316 955.859 C 354.521 958.282, 351.373 961.994, 353.170 963.105 C 354.732 964.070, 350.491 969.155, 346.084 971.603 C 342.360 973.671, 337.437 980.534, 338.990 981.494 C 339.516 981.819, 340.734 981.166, 341.696 980.043 C 342.657 978.919, 343.941 978, 344.548 978 C 345.155 978, 346.708 976.875, 348 975.500 C 349.292 974.125, 350.945 973, 351.674 973 C 352.403 973, 353 972.352, 353 971.559 C 353 969.304, 354.941 968.671, 355.675 970.687 C 356.039 971.684, 357.560 973.625, 359.056 975 C 360.553 976.375, 362.460 979.075, 363.295 981 C 365.092 985.142, 370.299 990.815, 374.500 993.210 C 376.823 994.534, 377.432 995.513, 377.199 997.544 C 376.934 999.852, 377.175 1000.089, 379.199 999.518 C 380.706 999.093, 381.053 999.181, 380.203 999.772 C 378.038 1001.281, 389.029 1014.450, 394.793 1017.252 C 401.419 1020.475, 405 1023.019, 405 1024.504 C 405 1025.205, 405.770 1025.715, 406.712 1025.639 C 407.691 1025.559, 408.594 1026.356, 408.823 1027.500 C 409.043 1028.600, 409.848 1029.860, 410.611 1030.300 C 412.340 1031.295, 412.440 1033.989, 410.750 1034.030 C 410.063 1034.047, 410.328 1034.542, 411.339 1035.130 C 412.351 1035.718, 414.263 1035.992, 415.589 1035.738 C 416.915 1035.485, 418 1035.665, 418 1036.139 C 418 1036.612, 417.498 1037, 416.883 1037 C 416.269 1037, 415.989 1037.787, 416.261 1038.750 C 416.534 1039.713, 416.924 1041.164, 417.128 1041.976 C 417.727 1044.352, 419.543 1045.859, 425.703 1049.087 C 428.891 1050.758, 430.600 1051.866, 429.500 1051.549 C 426.604 1050.714, 438.885 1061.899, 442.714 1063.583 C 444.482 1064.361, 446.440 1065.954, 447.066 1067.124 C 448.092 1069.041, 448.763 1069.187, 453.852 1068.604 C 457.049 1068.237, 460.703 1067.078, 462.271 1065.932 C 465.110 1063.860, 467 1064.072, 467 1066.464 C 467 1068.612, 474.652 1067.157, 481.266 1063.750 C 485.999 1061.313, 487.301 1061.005, 488.540 1062.033 C 490.334 1063.522, 490.635 1063.304, 491.493 1059.884 C 492.027 1057.756, 491.747 1057.167, 489.985 1056.706 C 488.433 1056.300, 488.059 1055.730, 488.661 1054.686 C 489.756 1052.787, 497.543 1047.029, 502.382 1044.541 C 505.901 1042.731, 512 1035.489, 512 1033.120 C 512 1032.558, 512.625 1031.740, 513.389 1031.300 C 514.152 1030.860, 514.956 1029.600, 515.175 1028.500 C 515.419 1027.269, 516.232 1026.613, 517.286 1026.794 C 519.672 1027.203, 519.503 1023.200, 517 1020 C 514.183 1016.399, 514.502 1015, 518.140 1015 C 521.443 1015, 523.913 1012.775, 523.968 1009.750 C 523.986 1008.788, 524.654 1008, 525.453 1008 C 526.945 1008, 528.984 1002.366, 528.994 998.218 C 528.997 996.963, 529.685 994.296, 530.523 992.291 C 531.455 990.060, 531.671 988.414, 531.079 988.049 C 530.465 987.669, 530.450 985.943, 531.038 983.326 C 532.207 978.125, 530.403 971.652, 526.381 966.611 C 523.105 962.505, 521.660 961.943, 522.878 965.250 C 524.668 970.109, 525.042 973, 523.879 973 C 523.242 973, 522.149 972.218, 521.451 971.263 C 520.251 969.623, 520.065 969.631, 518.084 971.424 C 516.931 972.467, 515.686 973.019, 515.317 972.650 C 514.948 972.281, 515.420 971.413, 516.367 970.721 C 517.969 969.549, 517.902 969.120, 515.385 964.481 C 513.898 961.742, 511.621 957.475, 510.323 955 C 509.026 952.525, 505.714 947.350, 502.965 943.500 C 500.216 939.650, 497.197 935.375, 496.256 934 C 495.316 932.625, 494.281 931.275, 493.957 931 C 493.633 930.725, 491.941 928.402, 490.196 925.837 C 488.451 923.273, 486.681 921.023, 486.262 920.837 C 485.393 920.453, 479 912.363, 479 911.648 C 479 911.389, 476.509 908.776, 473.464 905.839 C 470.419 902.903, 466.993 899.014, 465.850 897.197 C 464.707 895.380, 461.577 891.330, 458.895 888.197 C 456.212 885.064, 454.014 881.803, 454.009 880.950 C 453.999 879.142, 452.089 877, 450.487 877 C 449.875 877, 448.081 878.350, 446.500 880 M 367 890 C 366.207 890.490, 365.890 891.223, 366.296 891.629 C 366.701 892.035, 367.558 891.842, 368.200 891.200 C 369.711 889.689, 368.868 888.846, 367 890 M 1591 919.059 L 1591 943.118 1618.250 942.809 C 1644.251 942.514, 1645.692 942.397, 1649.692 940.259 C 1656.583 936.576, 1662 927.463, 1662 919.556 C 1662 909.466, 1654.828 898.753, 1646.384 896.230 C 1643.592 895.396, 1634.019 895, 1616.634 895 L 1591 895 1591 919.059 M 397 902 C 395.718 902.828, 395.754 902.972, 397.250 902.985 C 398.212 902.993, 399 902.550, 399 902 C 399 900.780, 398.887 900.780, 397 902 M 302.148 905.888 C 302.342 907.199, 303.479 908.917, 304.675 909.708 C 306.684 911.035, 306.810 910.991, 306.326 909.137 C 306.037 908.033, 304.900 906.314, 303.798 905.318 C 301.846 903.551, 301.805 903.565, 302.148 905.888 M 345.924 907.636 C 343.761 909.988, 343.724 910.155, 345.582 909.190 C 348.069 907.899, 350.639 905, 349.297 905 C 348.775 905, 347.258 906.186, 345.924 907.636 M 403.405 908.250 L 401.500 910.500 403.750 908.595 C 404.988 907.547, 406 906.535, 406 906.345 C 406 905.545, 405.195 906.136, 403.405 908.250 M 367.500 915.518 C 364.750 917.960, 362.969 919.968, 363.542 919.979 C 364.115 919.991, 366.571 917.975, 369 915.500 C 374.608 909.786, 373.945 909.794, 367.500 915.518 M 339.515 914.719 L 337.759 917.500 340.074 915.278 C 341.347 914.056, 342.137 912.804, 341.830 912.497 C 341.522 912.189, 340.481 913.189, 339.515 914.719 M 394.154 917.154 C 390.164 921.423, 391.070 922.330, 395.154 918.154 C 396.876 916.393, 398.044 914.710, 397.749 914.416 C 397.454 914.121, 395.837 915.353, 394.154 917.154 M 354.650 927.603 C 352.812 930.124, 352.814 930.133, 354.880 928.843 C 356.025 928.128, 357.181 926.971, 357.449 926.272 C 358.272 924.127, 356.604 924.920, 354.650 927.603 M 349.872 927.750 C 348.629 929.336, 348.664 929.371, 350.250 928.128 C 351.916 926.821, 352.445 926, 351.622 926 C 351.415 926, 350.627 926.788, 349.872 927.750 M 339.602 935.651 C 333.988 939.398, 333.008 940.425, 334.339 941.170 C 336.601 942.436, 338.962 940.973, 343.404 935.552 C 345.455 933.048, 346.991 931.011, 346.817 931.024 C 346.643 931.037, 343.396 933.119, 339.602 935.651 M 316 952.500 C 314.980 953.729, 315.049 954, 316.378 954 C 317.270 954, 318 953.325, 318 952.500 C 318 951.675, 317.830 951, 317.622 951 C 317.415 951, 316.685 951.675, 316 952.500 M 352.577 954.940 C 349.566 956.925, 347.243 960, 348.754 960 C 349.224 960, 351.134 958.425, 353 956.500 C 356.852 952.525, 356.760 952.183, 352.577 954.940 M 331.278 959.250 C 329.074 962.100, 329.081 962.707, 331.316 962.280 C 332.726 962.010, 333.571 961.127, 333.571 959.924 C 333.571 957.711, 332.673 957.447, 331.278 959.250 M 538.429 959.500 C 538.679 960.600, 539.759 964.650, 540.829 968.500 C 543.118 976.733, 545.661 988.567, 546.575 995.240 C 547.323 1000.699, 549.001 1000.665, 548.999 995.191 C 548.996 989.137, 546.270 975.499, 544.028 970.328 C 540.730 962.722, 537.933 957.312, 538.429 959.500 M 509.861 973.033 C 512.392 975.142, 515 975.633, 515 974 C 515 973.450, 514.523 973, 513.941 973 C 513.359 973, 513.160 972.550, 513.500 972 C 513.866 971.408, 512.767 971.014, 510.809 971.033 L 507.500 971.067 509.861 973.033 M 313.500 980 C 313.160 980.550, 313.332 981, 313.882 981 C 314.432 981, 315.160 980.550, 315.500 980 C 315.840 979.450, 315.668 979, 315.118 979 C 314.568 979, 313.840 979.450, 313.500 980 M 533.158 989.866 C 531.729 994.638, 531.642 999.339, 533 998.500 C 533.550 998.160, 534 997.171, 534 996.301 C 534 995.432, 534.632 994.221, 535.404 993.610 C 536.320 992.886, 536.628 991.371, 536.291 989.250 C 535.605 984.943, 534.572 985.146, 533.158 989.866 M 535.642 1001.334 C 535.198 1004.543, 535.068 1007.401, 535.353 1007.686 C 536.146 1008.479, 537.209 1001.689, 536.806 998.408 C 536.549 996.320, 536.221 997.145, 535.642 1001.334 M 517.755 1005.500 C 518.225 1007.957, 519.073 1008.594, 520.274 1007.392 C 520.934 1006.733, 518.914 1003, 517.898 1003 C 517.557 1003, 517.492 1004.125, 517.755 1005.500 M 507.035 1045.934 C 505.442 1048.912, 505.799 1049.492, 508 1047.500 C 510.143 1045.561, 510.604 1044, 509.035 1044 C 508.505 1044, 507.605 1044.870, 507.035 1045.934 M 474 1063 C 473.175 1063.533, 472.950 1063.969, 473.500 1063.969 C 474.050 1063.969, 475.175 1063.533, 476 1063 C 476.825 1062.467, 477.050 1062.031, 476.500 1062.031 C 475.950 1062.031, 474.825 1062.467, 474 1063 M 469 1079 C 467.758 1079.803, 467.844 1079.969, 469.500 1079.969 C 470.600 1079.969, 472.175 1079.533, 473 1079 C 474.242 1078.197, 474.156 1078.031, 472.500 1078.031 C 471.400 1078.031, 469.825 1078.467, 469 1079 M 453.792 1085.925 C 447.607 1086.789, 446.947 1087.646, 451.833 1088.472 C 454.438 1088.912, 456.521 1088.692, 457.900 1087.830 C 459.930 1086.562, 460.782 1084.861, 459.250 1085.134 C 458.837 1085.207, 456.381 1085.563, 453.792 1085.925" stroke="none" fill="#000000" fill-rule="evenodd"/>
</svg>