<svg xmlns="http://www.w3.org/2000/svg" width="2000" height="2000" viewBox="0 0 2000 2000" version="1.1">
	<path d="M 672.500 335.531 C 610.883 342.154, 550.215 365.285, 500.140 401.247 C 468.568 423.920, 436.223 459.715, 416.327 494 C 396.631 527.939, 383.129 561.616, 375.031 597 C 366.678 633.499, 365.298 655.115, 369.032 691 C 371.477 714.494, 373.055 724.110, 377.484 742.500 C 385.141 774.294, 398.076 807.046, 413.029 832.500 C 414.972 835.809, 413.660 834.848, 405.439 826.947 C 390.250 812.347, 375.951 802.969, 357.500 795.507 C 323.365 781.701, 283.673 780.410, 248.895 791.975 C 225.030 799.911, 206.839 811.143, 188.955 828.983 C 152.193 865.654, 137.665 916.419, 148.610 969.954 C 157.380 1012.853, 188.140 1052.003, 228.384 1071.488 C 251.742 1082.797, 268.319 1086.818, 295.176 1087.691 C 331.238 1088.863, 357.811 1082.264, 385.164 1065.345 C 397.282 1057.849, 414.635 1040.855, 422.277 1029 C 438.765 1003.423, 445 980.210, 445 944.401 L 445 925 372 925 L 299 925 299 951 L 299 977 343.067 977 L 387.135 977 386.481 979.250 C 386.121 980.487, 383.975 985.325, 381.711 990 C 378.357 996.926, 375.914 1000.189, 368.515 1007.622 C 360.777 1015.396, 358.028 1017.428, 349.897 1021.384 C 344.650 1023.936, 335.889 1027.209, 330.429 1028.657 C 321.574 1031.005, 318.608 1031.296, 303 1031.348 C 288.548 1031.397, 283.922 1031.038, 276.441 1029.290 C 237.626 1020.217, 212.192 995.061, 204.364 958 C 201.530 944.588, 201.929 923.282, 205.246 910.881 C 209.953 893.281, 218.040 878.960, 230.060 866.940 C 249.406 847.594, 279.329 837.696, 308.634 840.950 C 335.957 843.983, 358.431 856.024, 372.656 875.250 C 374.589 877.862, 376.542 880, 376.995 880 C 377.449 880, 388.068 874.086, 400.594 866.858 C 413.119 859.631, 424.072 853.536, 424.933 853.315 C 425.800 853.094, 427.129 853.939, 427.908 855.207 C 430.696 859.748, 446.285 880.203, 453.065 888.218 L 459.990 896.403 460.245 989.451 L 460.500 1082.500 489 1082.500 L 517.500 1082.500 518 1022.147 L 518.500 961.793 521.627 965.685 C 523.347 967.825, 529.534 974.870, 535.377 981.340 L 546 993.104 546 1038.052 L 546 1083 574.500 1083 L 603 1083 603 1071.559 C 603 1065.266, 603.418 1059.860, 603.928 1059.544 C 604.439 1059.229, 609.885 1064.715, 616.031 1071.735 C 622.177 1078.756, 630.076 1087.711, 633.583 1091.635 C 637.090 1095.559, 643.192 1102.534, 647.143 1107.135 C 654.084 1115.219, 663.734 1125.661, 693.649 1157.460 C 701.431 1165.732, 711.027 1176.550, 714.973 1181.500 C 730.962 1201.558, 744.760 1217.434, 753.876 1226.265 C 765.726 1237.744, 770.036 1239.655, 786.801 1240.861 C 802.638 1242, 802.324 1241.495, 800.561 1263 C 799.867 1271.473, 800.018 1273.119, 801.956 1278.230 C 805.493 1287.558, 817.793 1302.494, 844.586 1330 C 852.355 1337.975, 864.684 1351.475, 871.985 1360 C 889.308 1380.228, 908.025 1401.431, 931.522 1427.442 C 941.984 1439.024, 958.156 1457.050, 967.461 1467.500 C 1051.604 1561.999, 1074.194 1583.130, 1126 1615.801 C 1132.860 1620.127, 1157.699 1632.216, 1167 1635.755 C 1198.647 1647.796, 1225.176 1654.848, 1256.500 1659.543 C 1271.285 1661.759, 1323.636 1662.731, 1336.419 1661.027 C 1379.403 1655.296, 1435.850 1635.588, 1473.500 1613.165 C 1492.909 1601.606, 1503.739 1593.455, 1524.500 1574.781 C 1543.990 1557.250, 1555.795 1544.633, 1568.824 1527.408 C 1583.844 1507.551, 1590.929 1494.375, 1604.367 1461.306 C 1615.996 1432.689, 1618.705 1423.672, 1625.036 1392.500 C 1630.594 1365.136, 1631.707 1348.035, 1630.209 1313 C 1629.586 1298.425, 1628.399 1282.815, 1627.571 1278.311 C 1622.113 1248.615, 1610.080 1213.736, 1595.204 1184.500 C 1587.468 1169.295, 1584.339 1164.023, 1571.468 1144.500 C 1555.104 1119.680, 1543.432 1104.492, 1527.278 1087 L 1524.046 1083.500 1563.273 1082.874 C 1587.896 1082.481, 1604.548 1081.798, 1608 1081.039 C 1640.312 1073.934, 1662.420 1057.422, 1673.830 1031.870 L 1676.574 1025.724 1679.787 1031.752 C 1694.078 1058.564, 1719.135 1076.677, 1753 1084.675 C 1765.922 1087.727, 1793.329 1088.944, 1807.289 1087.085 C 1852.837 1081.021, 1883.719 1056.335, 1891.348 1019.891 C 1893.769 1008.325, 1894.138 1002.250, 1893.049 991.862 C 1889.855 961.403, 1874.804 941.946, 1842.500 926.517 C 1834.214 922.560, 1814.892 915.709, 1786 906.483 C 1762.352 898.932, 1748.069 889.933, 1744.322 880.222 C 1738.687 865.618, 1745.920 849.566, 1760.635 844.019 C 1776.401 838.075, 1796.188 839.459, 1810.587 847.511 C 1817.931 851.619, 1828.154 862.239, 1833 870.797 C 1834.925 874.197, 1836.865 876.983, 1837.312 876.989 C 1838.219 877.001, 1883.012 851.323, 1884.353 850.021 C 1885.390 849.016, 1879.471 838.221, 1873.222 829.721 C 1855.202 805.209, 1829.487 789.721, 1799.800 785.501 C 1762.686 780.225, 1729.175 790.292, 1707.343 813.276 C 1691.916 829.516, 1685 847.190, 1685 870.370 C 1685 888.680, 1688.579 901.718, 1697.105 914.466 C 1708.976 932.214, 1727.335 943.709, 1761.180 954.583 C 1770.706 957.643, 1784.783 962.183, 1792.463 964.670 C 1822.253 974.318, 1833.848 983.347, 1835.601 998.263 C 1837.362 1013.246, 1827.864 1024.857, 1809.895 1029.686 C 1799.827 1032.391, 1776.863 1032.145, 1766.701 1029.222 C 1747.219 1023.619, 1734.370 1012.822, 1725.212 994.361 L 1721.671 987.221 1717.085 990.014 C 1714.563 991.550, 1705.194 997.097, 1696.265 1002.341 L 1680.031 1011.874 1680.626 1003.187 C 1681.696 987.558, 1677.673 969.808, 1670.317 957.698 C 1665.602 949.936, 1657.082 940.873, 1649.242 935.279 L 1642.843 930.712 1648.829 924.606 C 1667.743 905.312, 1674.154 879.474, 1666.984 851.439 C 1661.538 830.141, 1647.658 812.418, 1627.991 801.646 C 1620.438 797.510, 1615.401 795.555, 1605 792.724 C 1597.884 790.787, 1594.133 790.662, 1531.750 790.282 L 1466 789.883 1466 902.941 C 1466 969.198, 1465.628 1016, 1465.101 1016 C 1463.829 1016, 1427.961 975.578, 1425.308 971.155 C 1424.102 969.145, 1410.237 930.825, 1394.496 886 C 1378.755 841.175, 1364.721 801.237, 1363.309 797.250 L 1360.741 790 1325.006 790 L 1289.272 790 1284.332 804.250 L 1279.392 818.500 1273.446 818.758 C 1270.068 818.905, 1266.420 818.464, 1265 817.738 C 1262.357 816.386, 1261.788 814.557, 1258.703 797.481 C 1257.906 793.071, 1256.213 787.041, 1254.940 784.083 C 1251.569 776.247, 1236.774 757.655, 1216.875 736.248 C 1201.409 719.611, 1188.388 705.233, 1154.983 667.903 C 1149.767 662.074, 1133.800 644.545, 1119.500 628.949 C 1105.200 613.353, 1088.775 595.131, 1083 588.456 C 1069.678 573.057, 1051.466 552.633, 1038.454 538.500 C 1029.194 528.442, 1021.555 519.816, 1006.131 502 C 1003.036 498.425, 998.234 493.025, 995.460 490 C 992.686 486.975, 985.053 478.425, 978.497 471 C 964.043 454.630, 934.812 425.157, 922.500 414.539 C 894.170 390.105, 842.978 362.461, 802.384 349.674 C 763.286 337.358, 709.747 331.528, 672.500 335.531 M 1523 875.939 L 1523 908 1554.818 908 C 1592.040 908, 1593.946 907.685, 1601.781 900.243 C 1609.752 892.671, 1611.500 888.400, 1611.500 876.500 C 1611.500 864.700, 1609.686 859.686, 1603 853 C 1594.674 844.674, 1593.973 844.542, 1556.250 844.189 L 1523 843.878 1523 875.939 M 1523 994.455 L 1523 1029 1556.816 1029 C 1600.158 1029, 1603.319 1028.459, 1613.028 1019.377 C 1620.023 1012.834, 1623.383 1004.720, 1623.329 994.500 C 1623.254 980.149, 1616.768 968.980, 1605.214 963.306 L 1599.500 960.500 1561.250 960.205 L 1523 959.911 1523 994.455" stroke="none" fill="#000000" fill-rule="evenodd"/>
</svg>