<svg xmlns="http://www.w3.org/2000/svg" width="573" height="191" viewBox="0 0 573 191" version="1.1">
	<rect x="0" y="0" width="100%" height="100%" fill="#f3f1ee" />
	<path d="M 10.872 1.750 C 9.629 3.336, 9.664 3.371, 11.250 2.128 C 12.916 0.821, 13.445 0, 12.622 0 C 12.415 0, 11.627 0.788, 10.872 1.750 M 18 0.969 C 18 1.501, 18.675 1.678, 19.500 1.362 C 20.325 1.045, 21 0.609, 21 0.393 C 21 0.177, 20.325 0, 19.500 0 C 18.675 0, 18 0.436, 18 0.969 M 22.842 1.750 C 21.075 3.858, 17.828 9, 18.265 9 C 18.436 9, 20.269 6.975, 22.338 4.500 C 24.407 2.025, 25.697 -0, 25.205 -0 C 24.713 -0, 23.650 0.788, 22.842 1.750 M 25.088 5.594 C 20.052 11.105, 15.913 17.094, 5.355 34.152 C 0.324 42.280, 0.003 43.189, 0.044 49.152 L 0.088 55.500 2.148 51.500 C 5.486 45.016, 13.145 31.992, 17.732 25 C 20.077 21.425, 21.997 17.768, 21.998 16.872 C 22.001 14.826, 24.643 12.430, 25.166 13.999 C 25.365 14.595, 27.175 11.689, 29.189 7.541 C 33.662 -1.669, 32.312 -2.310, 25.088 5.594 M 68.794 3.418 C 70.445 5.298, 73.838 11.148, 76.334 16.418 C 78.831 21.688, 81.069 26, 81.307 26 C 81.875 26, 80.265 17.292, 79.037 13.716 C 77.626 9.609, 79.232 11.171, 81.888 16.490 C 84.482 21.684, 86.389 33.701, 85.452 38.945 C 85.113 40.839, 83.694 44.664, 82.299 47.445 C 78.125 55.761, 54.568 93.851, 53.867 93.418 C 53.510 93.197, 50.840 97.068, 47.934 102.019 L 42.651 111.020 40.296 108.808 C 39.001 107.591, 38.174 105.989, 38.459 105.246 C 38.744 104.504, 38.527 104.174, 37.977 104.514 C 37.428 104.854, 35.598 103.752, 33.912 102.066 C 32.226 100.380, 30.572 99, 30.238 99 C 29.903 99, 28.581 98.016, 27.301 96.813 C 25.749 95.355, 24.640 94.960, 23.974 95.626 C 23.307 96.293, 23.787 97.391, 25.415 98.920 C 26.887 100.303, 27.617 101.835, 27.254 102.780 C 26.821 103.910, 27.094 104.178, 28.232 103.741 C 29.141 103.392, 30.539 103.938, 31.525 105.027 C 33.145 106.817, 33.132 107.123, 31.300 110.653 C 30.235 112.707, 28.269 115.193, 26.931 116.179 C 24.683 117.836, 24.170 117.856, 20.130 116.449 C 14.732 114.569, 10.242 112.295, 7.115 109.859 C 4.383 107.729, 2.543 107.410, 3.601 109.250 C 4.019 109.976, 3.939 110.151, 3.410 109.667 C 2.910 109.208, 2.500 108.346, 2.500 107.750 C 2.500 107.154, 2.034 106.511, 1.464 106.321 C -0.189 105.770, -0.024 109.777, 1.632 110.412 C 2.454 110.728, 2.845 111.442, 2.500 112 C 2.155 112.558, 2.569 113.281, 3.418 113.607 C 4.632 114.073, 4.739 114.661, 3.915 116.350 C 2.976 118.274, 3.066 118.252, 4.770 116.140 C 6.631 113.834, 6.748 113.819, 9.947 115.473 C 11.747 116.404, 12.919 116.678, 12.551 116.083 C 11.626 114.586, 13.028 114.787, 16 116.577 C 18.309 117.968, 18.328 118.037, 16.250 117.474 C 12.204 116.379, 13.879 117.910, 20.250 121.131 C 24.756 123.408, 26.032 124.459, 24.824 124.895 C 23.053 125.534, 13.701 139.217, 12.545 142.859 C 11.372 146.555, 9.686 145.333, 10.323 141.250 C 10.932 137.351, 10.696 137.461, 7.302 142.663 C 6.324 144.162, 5.932 144.248, 5.171 143.134 C 4.465 142.099, 3.784 142.031, 2.369 142.853 C 1.341 143.451, 1.071 143.953, 1.769 143.970 C 3.177 144.003, 2.477 148.546, 0.720 150.774 C 0.167 151.475, -0.013 152.321, 0.320 152.653 C 0.653 152.986, 1.464 152.075, 2.123 150.629 C 2.782 149.183, 3.742 148, 4.256 148 C 4.770 148, 4.001 150.029, 2.548 152.509 C 0.318 156.314, -0.048 157.993, 0.203 163.259 L 0.500 169.500 4.322 163.250 C 8.201 156.908, 9.391 155.587, 8.376 158.750 C 8.008 159.896, 8.529 159.637, 9.885 158 C 12.220 155.181, 12.621 153.568, 10.750 154.515 C 10.062 154.863, 10.400 154.408, 11.500 153.504 C 12.600 152.599, 13.376 151.407, 13.225 150.855 C 13.074 150.303, 13.488 150.184, 14.145 150.590 C 14.945 151.084, 15.141 150.811, 14.740 149.764 C 14.200 148.357, 17.638 142.505, 19.853 141.062 C 20.328 140.753, 22.620 137.127, 24.946 133.004 C 27.273 128.882, 29.687 125.194, 30.310 124.809 C 30.932 124.424, 31.122 123.788, 30.730 123.396 C 30.338 123.005, 30.576 122.007, 31.259 121.179 C 32.247 119.981, 32.247 119.590, 31.258 119.257 C 30.408 118.971, 30.921 117.521, 32.884 114.669 C 34.461 112.376, 35.808 110.050, 35.876 109.500 C 36.057 108.043, 39.258 108.275, 39.760 109.781 C 39.995 110.486, 39.583 110.936, 38.844 110.781 C 37.951 110.594, 37.560 111.400, 37.679 113.181 C 37.789 114.826, 36.913 116.881, 35.412 118.500 C 34.068 119.951, 33.226 121.557, 33.543 122.069 C 33.859 122.581, 33.641 123, 33.059 123 C 32.477 123, 32.107 123.338, 32.238 123.750 C 32.513 124.618, 18.134 148, 17.325 148 C 17.029 148, 17.054 147.302, 17.382 146.448 C 17.744 145.504, 17.563 145.152, 16.920 145.549 C 16.339 145.908, 16.120 146.870, 16.433 147.687 C 16.753 148.519, 14.916 152.408, 12.251 156.541 C 1.694 172.918, -0.128 176.092, 0.179 177.581 C 0.356 178.436, 2.961 174.943, 5.970 169.818 C 13.196 157.509, 31.595 127.835, 32.984 126.250 C 33.586 125.562, 34.554 125, 35.135 125 C 36.501 125, 32.974 131.217, 14.866 160.724 C 6.690 174.048, 0 185.708, 0 186.636 C 0 187.564, 3.751 182.063, 8.336 174.412 C 23.373 149.316, 37.040 127.593, 38.281 126.816 C 38.952 126.397, 39.500 124.583, 39.500 122.786 C 39.500 120.254, 39.925 119.517, 41.388 119.509 C 42.426 119.504, 43.590 118.825, 43.974 118 C 48.957 107.310, 54.010 98.262, 67.989 75 C 77.078 59.875, 85.077 46.236, 85.763 44.691 C 86.449 43.147, 87.644 37.963, 88.419 33.172 C 90.440 20.676, 89.133 14.952, 81.811 4.250 L 78.904 0 72.348 0 L 65.793 0 68.794 3.418 M 504.228 1.162 C 505.378 1.892, 504.616 2.403, 502.786 2.130 C 502.393 2.072, 502.328 2.691, 502.641 3.506 C 502.954 4.321, 503.657 4.712, 504.205 4.374 C 504.758 4.031, 504.696 4.699, 504.065 5.879 C 503.440 7.046, 503.058 8.034, 503.215 8.077 C 503.372 8.119, 504.388 8.318, 505.473 8.521 C 506.558 8.723, 507.909 9.523, 508.476 10.298 C 509.357 11.503, 517.521 16.291, 519 16.470 C 520.488 16.650, 522.078 18.354, 521.693 19.356 C 521.042 21.055, 523.671 23.325, 524.432 21.721 C 524.751 21.049, 524.771 21.850, 524.476 23.500 C 524.101 25.596, 524.226 26.069, 524.890 25.070 C 525.975 23.438, 529 22.716, 529 24.088 C 529 24.590, 528.523 25, 527.941 25 C 527.359 25, 527.157 25.445, 527.493 25.989 C 527.864 26.590, 529.148 26.295, 530.763 25.239 C 532.226 24.282, 533.077 24.061, 532.655 24.746 C 531.889 25.988, 536.337 31, 538.205 31 C 538.707 31, 538.848 31.437, 538.518 31.971 C 538.188 32.505, 539.047 33.225, 540.426 33.571 C 541.805 33.917, 542.895 34.493, 542.848 34.850 C 542.557 37.076, 543.184 38.144, 544.488 37.643 C 545.348 37.313, 545.876 37.584, 545.738 38.286 C 545.607 38.954, 546.236 39.380, 547.136 39.232 C 548.036 39.085, 549.032 39.641, 549.349 40.467 C 549.732 41.466, 550.935 41.852, 552.939 41.619 C 554.596 41.426, 555.712 41.658, 555.417 42.134 C 554.947 42.895, 557.123 43.454, 559.250 43.118 C 559.663 43.053, 559.947 43.337, 559.882 43.750 C 559.587 45.617, 560.088 47, 561.059 47 C 561.641 47, 561.797 46.480, 561.405 45.845 C 560.962 45.130, 561.130 44.962, 561.845 45.405 C 562.480 45.797, 563 46.574, 563 47.130 C 563 48.286, 564.694 49.974, 567.542 51.657 C 568.619 52.293, 569.376 53.339, 569.225 53.981 C 569.074 54.623, 569.415 54.862, 569.982 54.511 C 570.550 54.160, 571.348 54.689, 571.757 55.687 C 572.653 57.874, 573.769 36.586, 572.945 33.030 C 572.609 31.580, 571.366 30.243, 569.936 29.794 C 568.071 29.207, 568.281 29.139, 570.830 29.505 C 576.967 30.384, 573.690 27.798, 566.205 25.854 C 551.815 22.117, 534.909 14.482, 520.143 5.053 C 513.607 0.880, 511.809 0.186, 507.728 0.264 C 504.893 0.318, 503.473 0.683, 504.228 1.162 M 538 0.671 C 538 1.040, 538.770 2.193, 539.710 3.232 C 541.063 4.727, 541.149 5.290, 540.126 5.922 C 539.176 6.509, 539.386 6.868, 540.915 7.268 C 542.062 7.567, 543 8.425, 543 9.172 C 543 12.247, 560.251 21.217, 568.790 22.582 C 572.561 23.185, 572.759 23.084, 573.121 20.357 C 573.329 18.786, 573.354 13.563, 573.177 8.750 L 572.853 -0 555.427 -0 C 545.842 -0, 538 0.302, 538 0.671 M 506 2.500 C 506 3.325, 506.177 4, 506.393 4 C 506.609 4, 507.045 3.325, 507.362 2.500 C 507.678 1.675, 507.501 1, 506.969 1 C 506.436 1, 506 1.675, 506 2.500 M 515.203 5.482 C 522.335 10.267, 540.058 20.010, 541.583 19.985 C 542.087 19.976, 537.847 17.491, 532.159 14.460 C 526.472 11.430, 519.184 7.162, 515.964 4.976 C 512.744 2.789, 509.752 1, 509.316 1 C 508.879 1, 511.528 3.017, 515.203 5.482 M 4.381 11.250 C 3.976 11.938, 3.002 13.625, 2.217 15 C 0.846 17.400, 0.856 17.420, 2.468 15.500 C 4.499 13.080, 6.250 10, 5.594 10 C 5.332 10, 4.786 10.563, 4.381 11.250 M 13.954 15.086 C 13.340 16.233, 13.026 17.360, 13.257 17.590 C 13.487 17.820, 14.189 16.882, 14.816 15.504 C 16.194 12.480, 15.523 12.154, 13.954 15.086 M 4.193 22.529 C 1.321 26.603, -0.365 30.895, 1.867 28.450 C 3.124 27.073, 8.264 18, 7.788 18 C 7.566 18, 5.948 20.038, 4.193 22.529 M 545 21.500 C 546.375 22.286, 547.950 22.929, 548.500 22.929 C 549.050 22.929, 548.375 22.286, 547 21.500 C 545.625 20.714, 544.050 20.071, 543.500 20.071 C 542.950 20.071, 543.625 20.714, 545 21.500 M 550.088 23.380 C 550.862 24.209, 565.041 29.021, 566.425 28.926 C 567.016 28.885, 564.500 27.802, 560.834 26.520 C 551.624 23.298, 549.405 22.650, 550.088 23.380 M 6.182 27.500 C 5.555 28.875, 5.206 30, 5.406 30 C 5.606 30, 6.507 28.875, 7.408 27.500 C 8.309 26.125, 8.658 25, 8.184 25 C 7.709 25, 6.808 26.125, 6.182 27.500 M 73.726 42.750 C 72.856 43.712, 71.267 46.525, 70.195 49 C 69.124 51.475, 66.617 55.908, 64.624 58.850 C 62.631 61.793, 61 64.694, 61 65.296 C 61 65.898, 63.034 63.490, 65.519 59.945 C 68.005 56.400, 70.603 53.050, 71.293 52.500 C 74.068 50.287, 77 45.595, 77 43.365 C 77 40.557, 75.898 40.350, 73.726 42.750 M 58.459 69.067 C 58.096 69.653, 58.014 70.348, 58.276 70.610 C 58.538 70.872, 59.019 70.392, 59.345 69.543 C 60.021 67.781, 59.445 67.471, 58.459 69.067 M 0.269 78.074 C 0.129 79.940, 3.191 82.476, 4.276 81.391 C 5.146 80.521, 13.532 87.081, 13.167 88.346 C 12.983 88.981, 13.155 89.178, 13.548 88.785 C 14.629 87.705, 18.157 89.936, 17.373 91.205 C 16.977 91.846, 17.146 92.028, 17.776 91.638 C 18.373 91.269, 19.144 91.425, 19.490 91.984 C 20.240 93.198, 22 93.339, 22 92.186 C 22 90.636, 5.089 79.029, 3.641 79.584 C 2.850 79.888, 1.908 79.661, 1.549 79.080 C 1.152 78.437, 1.504 78.256, 2.448 78.618 C 4.590 79.440, 4.405 78.287, 2.207 77.111 C 0.783 76.349, 0.384 76.547, 0.269 78.074 M 53.144 78.750 C 52.053 81.300, 52.078 81.359, 53.484 79.559 C 54.318 78.491, 55 77.254, 55 76.809 C 55 75.289, 54.322 75.999, 53.144 78.750 M 558.500 80.406 C 541.690 86.430, 537.336 88.269, 523.773 95.073 C 502.990 105.501, 485.552 116.855, 468 131.390 C 453.158 143.681, 430.816 167.150, 432.426 168.759 C 432.817 169.150, 433.944 168.400, 434.931 167.091 C 435.921 165.779, 437.230 165.024, 437.851 165.408 C 438.532 165.829, 438.775 165.577, 438.466 164.772 C 436.610 159.934, 471.665 128.202, 495.750 112.918 C 499.188 110.736, 502 109.181, 502 109.462 C 502 109.742, 500.087 111.204, 497.750 112.711 C 487.487 119.327, 472.183 131.463, 460.250 142.448 C 455.591 146.737, 456.233 147.792, 461.094 143.834 C 466.430 139.488, 475.351 133.352, 501.054 116.351 C 503.008 115.058, 504.940 114, 505.346 114 C 505.751 114, 507.077 113.063, 508.292 111.919 C 511.166 109.210, 517.384 106.206, 521.856 105.367 C 523.807 105.001, 526.285 103.881, 527.361 102.878 C 529.583 100.808, 537.195 98.938, 538.091 100.242 C 538.851 101.349, 544.110 98.988, 543.410 97.854 C 543.119 97.384, 543.246 96.966, 543.691 96.923 C 546.589 96.649, 548.414 95.936, 550.088 94.421 C 551.837 92.838, 552 92.831, 552 94.345 C 552 95.255, 552.675 96, 553.500 96 C 554.325 96, 555 95.270, 555 94.378 C 555 93.081, 555.288 92.994, 556.436 93.947 C 557.482 94.815, 558.416 94.848, 559.870 94.069 C 562.301 92.769, 564.320 92.673, 563.566 93.893 C 563.262 94.385, 564.228 95.091, 565.712 95.464 C 567.196 95.836, 569.019 97.009, 569.762 98.071 C 572.400 101.837, 573 99.972, 573 88 C 573 79.038, 572.684 76.014, 571.750 76.053 C 571.063 76.083, 565.100 78.042, 558.500 80.406 M 24 96.465 C 24 96.720, 25.012 97.469, 26.250 98.129 C 28.290 99.216, 28.372 99.172, 27.128 97.664 C 25.850 96.115, 24 95.406, 24 96.465 M 511.441 103.555 C 509.577 105.049, 509.589 105.067, 511.750 104.020 C 512.987 103.420, 514 102.720, 514 102.465 C 514 101.700, 513.481 101.921, 511.441 103.555 M 3 112.393 C 3 112.609, 3.698 113.054, 4.552 113.382 C 5.442 113.723, 5.843 113.555, 5.493 112.989 C 4.906 112.038, 3 111.583, 3 112.393 M 9.226 113.574 C 10.176 114.568, 11.227 115.107, 11.562 114.771 C 11.897 114.436, 11.120 113.623, 9.836 112.964 C 7.603 111.819, 7.576 111.846, 9.226 113.574 M 39.571 116.571 C 37.655 118.488, 37.480 119.677, 39.342 118.131 C 40.080 117.519, 40.980 117.313, 41.342 117.675 C 41.704 118.037, 42 117.583, 42 116.667 C 42 114.596, 41.564 114.579, 39.571 116.571 M -0 121.833 C -0 124.568, 0.199 124.522, 1.811 121.417 C 2.667 119.767, 2.591 119.333, 1.446 119.333 C 0.570 119.333, -0 120.319, -0 121.833 M 5.564 139.707 C 5.022 141.132, 5.136 141.247, 6.124 140.267 C 6.808 139.588, 7.115 138.781, 6.807 138.474 C 6.499 138.166, 5.940 138.721, 5.564 139.707 M 453.405 150.250 L 451.500 152.500 453.750 150.595 C 455.864 148.805, 456.455 148, 455.655 148 C 455.465 148, 454.453 149.012, 453.405 150.250 M 497.500 150.586 C 495.850 150.821, 491.007 151.486, 486.737 152.063 C 476.219 153.486, 461.476 157.411, 450.813 161.628 C 445.963 163.546, 441.476 164.794, 440.843 164.403 C 440.171 163.988, 439.961 164.129, 440.340 164.741 C 441.131 166.021, 438.272 167.265, 436.660 166.343 C 436.022 165.978, 435.835 166.049, 436.244 166.500 C 437.154 167.505, 433.347 170.333, 432.112 169.569 C 431.625 169.268, 430.645 169.722, 429.935 170.578 C 429.225 171.434, 424.786 174.797, 420.072 178.052 C 415.357 181.307, 409.700 185.564, 407.500 187.511 C 403.819 190.770, 403.699 191.028, 406 190.752 C 407.421 190.582, 408.381 189.891, 408.225 189.152 C 408.074 188.437, 408.419 188.141, 408.992 188.495 C 409.564 188.849, 409.774 189.557, 409.457 190.069 C 408.287 191.962, 410.300 190.887, 415.826 186.666 C 445.053 164.344, 485.564 152.543, 521.401 155.913 C 528.090 156.541, 534.899 157.494, 536.531 158.028 C 539.231 158.913, 539.137 158.953, 535.500 158.472 C 529.482 157.675, 517.359 156.923, 518.500 157.417 C 519.050 157.655, 522.511 158.142, 526.190 158.498 C 531.969 159.058, 532.922 159.432, 533.190 161.245 C 533.361 162.399, 534.074 163.457, 534.775 163.597 C 535.476 163.736, 535.589 163.621, 535.025 163.342 C 532.875 162.275, 534.124 160.988, 536.750 161.564 C 538.263 161.896, 540.278 162.271, 541.230 162.397 C 542.181 162.523, 543.265 162.931, 543.638 163.304 C 544.011 163.677, 544.891 163.505, 545.594 162.922 C 547.097 161.674, 551.413 163.523, 550.489 165.018 C 549.839 166.070, 543.137 166.030, 542.482 164.971 C 541.945 164.103, 537.065 164.574, 536.162 165.581 C 535.798 165.987, 536.216 166.064, 537.091 165.752 C 537.966 165.440, 539.316 165.587, 540.091 166.077 C 541.174 166.763, 541.197 166.973, 540.191 166.985 C 539.471 166.993, 539.160 167.450, 539.500 168 C 539.840 168.550, 539.679 169, 539.142 169 C 538.606 169, 537.940 168.438, 537.662 167.750 C 537.370 167.025, 537.125 167.260, 537.079 168.309 C 537.036 169.304, 536.601 169.871, 536.113 169.570 C 535.626 169.269, 534.671 169.692, 533.991 170.511 C 533.066 171.625, 533.052 172, 533.937 172 C 534.586 172, 534.840 172.450, 534.500 173 C 533.294 174.952, 531.773 173.967, 532.238 171.535 C 532.497 170.179, 532.212 168.865, 531.605 168.614 C 530.997 168.363, 531.755 168.122, 533.289 168.079 C 535.534 168.015, 535.841 167.746, 534.864 166.699 C 534.155 165.941, 532.365 165.590, 530.574 165.857 C 528.883 166.110, 528.059 166.506, 528.742 166.739 C 529.647 167.047, 529.705 167.683, 528.957 169.081 C 528.151 170.586, 528.261 171, 529.465 171 C 531.484 171, 531.408 171.951, 529.250 173.692 C 527.637 174.993, 527.676 175.055, 529.750 174.484 C 532.109 173.835, 532.386 174.353, 532.163 178.993 C 532.097 180.364, 531.564 181.645, 530.980 181.840 C 530.254 182.082, 530.286 182.640, 531.081 183.597 C 531.766 184.423, 531.834 185, 531.245 185 C 530.695 185, 529.669 184.306, 528.965 183.458 C 528.138 182.462, 527.341 182.259, 526.715 182.885 C 526.103 183.497, 524.840 183.510, 523.289 182.920 C 521.938 182.406, 520.420 182.240, 519.916 182.552 C 519.412 182.863, 519 182.491, 519 181.726 C 519 180.960, 518.325 180.333, 517.500 180.333 C 515.672 180.333, 515.390 186.990, 517.144 188.744 C 518.003 189.603, 517.739 189.745, 516.087 189.313 C 514.803 188.977, 514.097 188.189, 514.393 187.420 C 514.714 186.583, 514.370 186.305, 513.449 186.658 C 512.652 186.964, 512 187.706, 512 188.307 C 512 189.051, 511.624 189.024, 510.824 188.224 C 510.127 187.527, 509.210 187.405, 508.574 187.924 C 507.983 188.407, 505.475 189.248, 503 189.793 C 499.712 190.519, 508.531 190.815, 535.750 190.893 L 573 191 573 180.681 L 573 170.363 569.750 168.645 C 566.776 167.074, 567.696 167.070, 571.580 168.638 C 572.839 169.146, 573.092 168.689, 572.830 166.388 C 572.548 163.917, 571.699 163.183, 566.952 161.304 C 558.553 157.980, 544.988 154.233, 535.236 152.543 C 526.400 151.012, 503.019 149.799, 497.500 150.586 M 445.872 157.750 C 444.629 159.336, 444.664 159.371, 446.250 158.128 C 447.212 157.373, 448 156.585, 448 156.378 C 448 155.555, 447.179 156.084, 445.872 157.750 M 507.250 156.689 C 508.212 156.941, 509.788 156.941, 510.750 156.689 C 511.712 156.438, 510.925 156.232, 509 156.232 C 507.075 156.232, 506.288 156.438, 507.250 156.689 M 548 161.426 C 552.675 162.766, 558.483 164.574, 560.906 165.442 C 563.329 166.311, 565.508 166.826, 565.747 166.587 C 566.358 165.975, 548.336 160.300, 543.500 159.582 C 541.300 159.256, 543.325 160.085, 548 161.426 M 6.081 161.849 C 4.448 164.901, 4.786 165.751, 6.602 163.158 C 7.483 161.900, 7.970 160.636, 7.683 160.350 C 7.396 160.063, 6.676 160.738, 6.081 161.849 M 546 169.059 C 546 169.641, 546.450 169.840, 547 169.500 C 547.550 169.160, 548 168.684, 548 168.441 C 548 168.198, 547.550 168, 547 168 C 546.450 168, 546 168.477, 546 169.059 M 537 172 C 536.099 172.582, 535.975 172.975, 536.691 172.985 C 537.346 172.993, 538.160 172.550, 538.500 172 C 539.267 170.758, 538.921 170.758, 537 172 M 530.459 179.067 C 530.096 179.653, 530.014 180.348, 530.276 180.610 C 530.538 180.872, 531.019 180.392, 531.345 179.543 C 532.021 177.781, 531.445 177.471, 530.459 179.067 M 539 179 C 539 179.550, 539.450 180, 540 180 C 540.550 180, 541 179.550, 541 179 C 541 178.450, 540.550 178, 540 178 C 539.450 178, 539 178.450, 539 179 M 518 185 C 518 185.550, 518.450 186, 519 186 C 519.550 186, 520 185.550, 520 185 C 520 184.450, 519.550 184, 519 184 C 518.450 184, 518 184.450, 518 185 M 506 187 C 506 187.550, 506.450 188, 507 188 C 507.550 188, 508 187.550, 508 187 C 508 186.450, 507.550 186, 507 186 C 506.450 186, 506 186.450, 506 187" stroke="none" fill="#ece7e4" fill-rule="evenodd"/>
</svg>