<svg xmlns="http://www.w3.org/2000/svg" width="1200" height="400" viewBox="0 0 1200 400" version="1.1">
	<rect x="0" y="0" width="100%" height="100%" fill="#f3f0ee" />
	<path d="M 23.978 1.250 C 23.966 1.938, 23.047 3.625, 21.937 5 C 18.300 9.504, 0.703 36.458, 0.229 38.250 C -1.074 43.181, 3.481 36.790, 13.283 19.938 C 16.342 14.678, 20.455 8.448, 22.422 6.093 C 24.390 3.738, 26 1.403, 26 0.905 C 26 -0.501, 24.003 -0.161, 23.978 1.250 M 35.567 5.250 C 31.924 10.206, 31.884 10.335, 34.854 7.563 C 37.621 4.980, 39.286 4.971, 37.250 7.550 C 36.837 8.072, 38.142 6.700, 40.149 4.500 C 42.156 2.300, 43.624 0.319, 43.413 0.097 C 43.201 -0.124, 42.070 0.912, 40.900 2.400 C 39.730 3.888, 38.526 4.859, 38.225 4.559 C 37.925 4.258, 38.496 3.110, 39.494 2.006 C 40.493 0.903, 40.886 0, 40.368 0 C 39.851 0, 37.690 2.362, 35.567 5.250 M 48.194 4.311 C 42.749 11.209, 39 16.250, 39 16.673 C 39 17.728, 43.084 14.711, 44.019 12.965 C 44.605 11.870, 47.095 8.506, 49.553 5.488 C 52.012 2.469, 53.455 0.027, 52.762 0.061 C 52.068 0.094, 50.012 2.007, 48.194 4.311 M 57.410 5.773 C 42.692 22.332, 36.643 30.961, 13.838 67.934 L 0 90.368 0.004 103.434 L 0.007 116.500 2.094 113.077 C 3.242 111.194, 4.617 108.494, 5.150 107.077 C 7.507 100.809, 22.419 75.073, 33.685 57.829 C 40.175 47.895, 45 39.058, 45 37.105 C 45 36.497, 45.436 36, 45.969 36 C 46.501 36, 46.720 35.435, 46.455 34.744 C 46.190 34.053, 47.362 31.803, 49.059 29.744 C 52.580 25.474, 55.486 24.681, 54.536 28.250 C 53.654 31.561, 57.891 23.520, 61.016 15.952 C 62.503 12.350, 64.908 7.522, 66.360 5.222 C 67.812 2.922, 69 0.806, 69 0.520 C 69 0.234, 67.537 0.010, 65.750 0.023 C 63.067 0.042, 61.611 1.046, 57.410 5.773 M 143 6.392 C 149.423 12.709, 151.095 14.879, 153.678 20.250 C 154.405 21.762, 155.675 24.386, 156.500 26.081 C 157.325 27.776, 158 29.742, 158 30.451 C 158 31.544, 160.574 36.757, 167.652 50 C 168.386 51.375, 168.990 52.987, 168.994 53.583 C 168.997 54.179, 169.694 54.667, 170.543 54.667 C 171.561 54.667, 171.862 54.128, 171.428 53.083 C 171.066 52.212, 170.633 50.018, 170.465 48.207 C 170.166 44.988, 168.357 37.985, 165.513 29.036 C 164.005 24.293, 164.481 22.254, 166.367 25.374 C 166.990 26.405, 168.570 28.872, 169.878 30.857 C 172.352 34.612, 175.860 44.032, 176.075 47.500 C 176.178 49.149, 176.328 49.061, 176.934 47 C 178.009 43.344, 179.356 55.430, 178.632 62.233 C 178.290 65.437, 178.380 66.521, 178.860 65 C 179.445 63.147, 179.794 64.570, 180.209 70.500 C 181.264 85.572, 177.107 94.925, 149.320 140 C 139.996 155.125, 127.485 175.600, 121.518 185.500 C 110.621 203.581, 106.093 210.246, 111.667 200 C 113.313 196.975, 114.981 193.625, 115.373 192.556 C 117.448 186.900, 111.175 195.879, 100.461 213.899 L 88.689 233.697 81.468 225.099 C 73.330 215.408, 60.961 204.049, 62.918 208.064 C 63.700 209.669, 62.898 209.135, 60.568 206.500 C 58.622 204.300, 57.023 202.227, 57.015 201.893 C 56.990 200.862, 43.225 189.956, 27.500 178.507 C 19.250 172.500, 10.542 166.095, 8.148 164.273 C 2.928 160.301, -0.014 158.647, 0.038 159.715 C 0.059 160.147, 1.879 161.748, 4.083 163.273 C 6.327 164.825, 7.795 166.522, 7.420 167.129 C 6.964 167.867, 6.476 167.780, 5.890 166.857 C 5.417 166.111, 5.024 165.889, 5.015 166.365 C 5.007 166.841, 3.875 166.493, 2.500 165.592 C -1.258 163.130, -0.506 165.377, 3.433 168.381 C 7.499 171.483, 11.106 172.079, 8.872 169.281 C 7.848 167.998, 8.388 168.124, 11 169.776 C 12.925 170.994, 14.405 172.390, 14.289 172.878 C 14.173 173.366, 14.837 173.705, 15.765 173.632 C 16.693 173.560, 17.463 174.025, 17.476 174.667 C 17.489 175.308, 17.910 176.208, 18.410 176.667 C 18.939 177.151, 19.019 176.976, 18.601 176.250 C 17.470 174.283, 18.684 174.759, 23.259 178.072 C 25.591 179.762, 27.510 181.675, 27.522 182.322 C 27.535 182.970, 28.288 183.376, 29.197 183.223 C 30.106 183.071, 31.178 183.478, 31.579 184.128 C 32.068 184.919, 31.877 185.042, 31 184.500 C 30.127 183.961, 29.932 184.081, 30.415 184.862 C 30.813 185.506, 31.585 185.756, 32.132 185.418 C 33.314 184.688, 37.168 187.919, 36.467 189.054 C 35.936 189.912, 40.686 194, 42.214 194 C 43.618 194, 57.945 206.722, 57.284 207.382 C 56.972 207.694, 54.643 206.237, 52.109 204.145 C 45.288 198.513, 43.621 198.108, 50 203.631 C 57.398 210.037, 67.708 220.586, 69.084 223.156 C 69.697 224.303, 69.759 224.969, 69.222 224.637 C 68.684 224.304, 67.983 225.337, 67.664 226.931 C 66.934 230.582, 61.179 239.580, 57.116 243.425 C 54.325 246.067, 53.790 246.225, 51.611 245.059 C 50.283 244.349, 48.590 243.994, 47.849 244.270 C 46.960 244.600, 47.353 245.130, 49 245.823 C 50.375 246.400, 50.987 246.902, 50.359 246.937 C 49.732 246.971, 47.277 246.131, 44.903 245.068 C 42.530 244.006, 40.248 243.347, 39.831 243.604 C 39.415 243.862, 37.370 243.003, 35.287 241.696 C 33.204 240.389, 30.180 238.994, 28.566 238.595 C 26.952 238.196, 23.127 236.177, 20.066 234.109 C 7.028 225.300, -0 221.048, 0 221.969 C 0 222.511, 1.121 223.688, 2.491 224.586 C 3.862 225.484, 4.692 226.689, 4.337 227.264 C 3.982 227.839, 4.164 228.017, 4.742 227.659 C 5.321 227.302, 11.803 230.665, 19.147 235.132 C 26.491 239.600, 34.862 244.317, 37.750 245.615 C 40.638 246.913, 43 248.136, 43 248.333 C 43 249.461, 35.838 247.964, 32 246.033 C 23.703 241.860, 15.974 236.851, 16.506 235.990 C 16.796 235.522, 16.506 234.813, 15.862 234.415 C 15.122 233.958, 14.959 234.125, 15.419 234.868 C 15.819 235.516, 12.738 233.977, 8.573 231.448 C 1.009 226.856, -0.551 225.564, 2.750 226.626 C 4.177 227.085, 4.232 226.999, 3.048 226.160 C 1.489 225.056, 0 225.510, -0 227.089 C -0 228.558, 18.691 240.404, 35 249.271 C 42.975 253.608, 48.375 256.849, 47 256.474 C 44.570 255.812, 44.556 255.837, 46.500 257.365 C 47.600 258.229, 49.400 258.982, 50.500 259.038 C 51.600 259.095, 53.400 259.552, 54.500 260.054 L 56.500 260.967 54.500 260.754 C 51.869 260.474, 45.877 262.991, 46.557 264.092 C 47.202 265.135, 43.328 272.441, 40.319 275.856 C 39.119 277.217, 36.908 280.619, 35.405 283.416 C 33.902 286.212, 31.396 289.978, 29.836 291.785 C 27.049 295.013, 26.579 296.161, 26.948 298.850 C 27.050 299.593, 26.659 299.907, 26.078 299.548 C 25.448 299.159, 25.251 299.491, 25.589 300.371 C 25.925 301.247, 25.311 302.298, 24.078 302.958 C 22.695 303.699, 22 303.724, 22 303.035 C 22 302.466, 21.212 301.993, 20.250 301.985 C 18.904 301.973, 18.809 301.773, 19.840 301.120 C 20.584 300.649, 21.053 298.988, 20.896 297.386 C 20.740 295.799, 21.186 293.449, 21.887 292.164 C 23.215 289.732, 22.846 288.359, 21.148 289.409 C 20.606 289.744, 18.529 292.939, 16.532 296.509 C 14.536 300.079, 12.474 303, 11.951 303 C 10.311 303, 10.912 298.093, 13.070 293.863 C 14.208 291.632, 14.904 289.571, 14.617 289.283 C 14.329 288.996, 13.042 290.952, 11.756 293.630 C 10.367 296.522, 8.825 298.411, 7.959 298.281 C 7.156 298.161, 5.375 298.938, 4 300.009 L 1.500 301.956 4.250 301.978 C 7.395 302.003, 7.666 303.054, 5.414 306.491 C 4.541 307.823, 4.114 309.376, 4.464 309.942 C 4.814 310.509, 3.953 312.930, 2.550 315.324 C 1.148 317.717, 0.014 320.311, 0.030 321.088 C 0.047 321.865, 1.571 319.867, 3.417 316.649 C 5.262 313.432, 7.499 310.073, 8.386 309.185 C 12.440 305.132, 8.614 315.315, 2.364 325.216 C 0.187 328.664, 0 330.006, -0 342.166 L -0 355.372 4.500 348.662 C 6.975 344.972, 9 341.760, 9 341.524 C 9 341.101, 13.974 333.994, 23.281 321.115 C 25.911 317.477, 29.015 312.475, 30.179 310 C 32.165 305.777, 40.560 294, 41.584 294 C 42.831 294, 38.173 301.330, 21.566 325.500 C 13.663 337.001, 9.109 344.949, 10.078 345.548 C 10.612 345.878, 10.926 345.769, 10.775 345.305 C 10.624 344.840, 11.738 343.124, 13.250 341.490 C 14.763 339.857, 16 338.097, 16 337.580 C 16 336.538, 23.989 324, 24.653 324 C 24.882 324, 24.589 324.900, 24 326 C 22.456 328.884, 23.468 328.461, 25.489 325.377 C 26.466 323.886, 26.658 323.093, 25.934 323.541 C 23.708 324.917, 25.541 321.630, 33.313 310.309 C 40.002 300.568, 45 292.088, 45 290.481 C 45 290.151, 44.437 290.206, 43.750 290.601 C 43.024 291.019, 42.849 290.939, 43.333 290.410 C 43.792 289.910, 44.654 289.500, 45.250 289.500 C 45.846 289.500, 46.542 288.875, 46.796 288.111 C 47.111 287.166, 46.836 286.984, 45.933 287.541 C 45.204 287.992, 45.626 286.930, 46.871 285.181 C 49.630 281.306, 50.743 280.934, 48.273 284.711 C 47.298 286.203, 47.066 287.074, 47.757 286.648 C 49.102 285.819, 52.360 280.159, 52.447 278.500 C 52.487 277.751, 59.830 264.680, 61.644 262.130 C 61.788 261.926, 63.103 262.060, 64.566 262.427 C 66.982 263.033, 67.087 263.250, 65.719 264.797 C 64.892 265.734, 59.957 273.475, 54.755 282 C 43.803 299.944, 35.754 312.607, 29.011 322.500 C 24.653 328.895, 19.407 337.319, 9.708 353.500 C 7.730 356.800, 5.416 360.400, 4.566 361.500 L 3.022 363.500 3.670 361.500 C 4.363 359.364, 4.242 359.431, 1.967 362.442 C 1.050 363.656, 0.968 364.103, 1.750 363.633 C 3.422 362.628, 3.280 364.045, 1.468 366.441 C 0.661 367.509, 0 370.196, 0 372.413 C -0 376.832, 0.216 376.504, 24.906 334.725 C 29.529 326.901, 36.634 315.415, 40.693 309.200 C 44.753 302.985, 50.935 293.085, 54.431 287.200 C 57.927 281.315, 62.298 274.203, 64.144 271.396 C 65.990 268.588, 67.999 265.438, 68.609 264.396 C 69.348 263.133, 70.850 262.494, 73.109 262.483 C 75.986 262.468, 76.487 262.122, 76.417 260.200 C 76.359 258.603, 76.647 258.247, 77.395 258.995 C 78.142 259.742, 78.084 260.564, 77.199 261.778 C 75.649 263.903, 75.563 264.044, 58.937 291.832 C 51.477 304.299, 38.228 325.975, 29.496 340 C 4.536 380.087, -0 387.998, 0.003 391.427 C 0.006 394.058, 0.894 392.991, 6.181 384 C 21.275 358.332, 42.823 322.821, 55.026 303.500 C 62.321 291.950, 70.296 279.217, 72.748 275.204 C 75.200 271.191, 78.510 266.944, 80.103 265.766 C 83.250 263.439, 83.695 260.909, 81.998 254.994 C 81.355 252.751, 81.344 251.385, 81.967 251.178 C 82.500 251, 83.245 249.211, 83.622 247.202 C 83.999 245.194, 84.913 242.944, 85.653 242.204 C 86.394 241.463, 87 240.509, 87 240.084 C 87 238.734, 78.919 226.748, 78.376 227.291 C 78.090 227.577, 78.972 229.580, 80.338 231.743 C 81.704 233.908, 82.489 236.209, 82.083 236.865 C 81.594 237.656, 80.940 237.163, 80.136 235.399 C 78.451 231.702, 77.643 233.048, 78.873 237.503 C 79.807 240.885, 79.599 241.635, 76.378 246.485 C 73.562 250.727, 72.450 251.669, 70.776 251.231 C 69.414 250.875, 68.923 251.066, 69.365 251.781 C 69.737 252.384, 69.245 253.341, 68.271 253.908 C 66.831 254.747, 67.247 254.960, 70.500 255.051 L 74.500 255.162 71.500 256.536 C 69.850 257.292, 67.082 257.930, 65.349 257.955 L 62.198 258 65.236 254.750 C 67.950 251.848, 68.073 251.463, 66.388 251.153 C 63.111 250.551, 62.614 249.228, 64.601 246.402 C 68.284 241.165, 69.994 238.466, 71.688 235.220 C 72.788 233.111, 73.915 232.137, 74.841 232.493 C 75.941 232.915, 76.022 232.732, 75.183 231.721 C 74.579 230.992, 74.343 229.404, 74.660 228.193 C 74.977 226.981, 74.634 225.204, 73.898 224.245 C 73.163 223.285, 73.784 223.591, 75.280 224.924 C 76.776 226.258, 78 226.990, 78 226.552 C 78 226.114, 78.604 226.256, 79.342 226.869 C 80.080 227.481, 80.947 227.720, 81.269 227.398 C 82.178 226.489, 89.002 241.960, 88.985 244.891 C 88.973 246.943, 88.762 247.180, 88 246 C 87.138 244.667, 87.027 244.667, 87 246 C 86.973 247.333, 86.852 247.333, 85.909 246 C 84.966 244.667, 84.897 244.667, 85.294 246 C 85.539 246.825, 85.149 248.957, 84.426 250.739 L 83.111 253.977 85.806 252.199 C 87.288 251.220, 89.400 249.939, 90.500 249.351 C 91.655 248.734, 92.735 246.849, 93.056 244.891 C 93.750 240.662, 107.344 215.638, 116.828 201.135 C 118.197 199.041, 118.228 198.722, 117 199.375 C 116.175 199.814, 116.625 199.195, 118 198 C 119.375 196.805, 119.943 196.114, 119.261 196.465 C 118.445 196.886, 118.225 196.577, 118.616 195.558 C 118.943 194.707, 119.607 194.257, 120.093 194.558 C 120.579 194.858, 120.727 194.451, 120.420 193.653 C 120.114 192.855, 120.414 191.862, 121.086 191.447 C 121.920 190.932, 122.051 191.108, 121.500 192 C 120.976 192.848, 121.082 193.067, 121.802 192.622 C 122.413 192.245, 122.631 191.202, 122.286 190.304 C 121.834 189.125, 122.028 188.899, 122.985 189.490 C 123.850 190.025, 124.070 189.922, 123.618 189.191 C 122.842 187.935, 153.189 137.052, 170.419 110.721 C 176.331 101.687, 180.777 92.088, 181.587 86.615 C 183.810 71.581, 184.774 66.786, 185.230 68.500 C 185.522 69.600, 185.593 68.475, 185.387 66 C 185.123 62.816, 185.299 61.939, 185.991 63 C 188.075 66.196, 187.654 46.708, 185.440 37.500 C 183.513 29.482, 176.250 15.061, 169.954 6.750 L 164.841 0 159.217 0 L 153.594 0 157.546 4.250 L 161.498 8.500 156.961 4.250 L 152.424 -0 144.463 -0 L 136.501 0 143 6.392 M 1067.447 1.750 C 1067.595 2.712, 1067.218 3.880, 1066.608 4.344 C 1065.925 4.865, 1066.159 4.978, 1067.218 4.638 C 1068.163 4.335, 1069.202 4.518, 1069.527 5.044 C 1069.852 5.570, 1070.654 5.990, 1071.309 5.978 C 1071.964 5.966, 1071.375 5.076, 1070 4 C 1065.029 0.112, 1069.015 2.119, 1076.670 7.360 C 1102.136 24.792, 1141.933 44.558, 1168.727 53.080 C 1172.702 54.345, 1175.757 55.577, 1175.515 55.818 C 1174.814 56.519, 1156.454 50.136, 1145 45.208 C 1139.225 42.724, 1133.028 40.717, 1131.229 40.747 C 1128.985 40.786, 1128.043 40.376, 1128.229 39.444 C 1128.591 37.627, 1106.865 26.601, 1105.924 28.123 C 1105.439 28.907, 1105.058 28.903, 1104.566 28.107 C 1104.190 27.498, 1104.471 26.995, 1105.191 26.988 C 1105.911 26.981, 1104.543 25.857, 1102.151 24.490 C 1099.760 23.123, 1097.285 22.300, 1096.651 22.662 C 1096.018 23.024, 1095.835 22.951, 1096.245 22.499 C 1096.654 22.047, 1095.417 20.609, 1093.495 19.303 C 1090.816 17.483, 1089.566 17.162, 1088.134 17.928 C 1086.563 18.769, 1086.285 18.576, 1086.383 16.714 C 1086.464 15.186, 1085.961 14.542, 1084.761 14.637 C 1083.804 14.712, 1083.227 14.441, 1083.479 14.035 C 1083.730 13.628, 1081.588 11.766, 1078.718 9.898 C 1073.456 6.472, 1067.281 5.308, 1065.765 7.458 C 1065.288 8.135, 1065.025 8.062, 1065.015 7.250 C 1065.007 6.563, 1064.298 6, 1063.441 6 C 1062.584 6, 1062.160 6.450, 1062.500 7 C 1062.840 7.550, 1062.615 8, 1062 8 C 1061.385 8, 1061.160 8.450, 1061.500 9 C 1061.840 9.550, 1061.431 10, 1060.590 10 C 1059.750 10, 1059.284 9.425, 1059.553 8.721 C 1059.823 8.018, 1059.353 6.556, 1058.508 5.471 C 1057.550 4.243, 1057.071 4.043, 1057.236 4.941 C 1057.381 5.733, 1056.600 6.564, 1055.500 6.788 C 1051.994 7.500, 1051.206 9.163, 1054.661 8.557 C 1057.278 8.098, 1057.774 8.304, 1057.540 9.751 C 1057.221 11.723, 1058.835 14.220, 1059.973 13.517 C 1060.383 13.263, 1060.597 14.168, 1060.447 15.528 C 1060.253 17.300, 1060.661 18, 1061.888 18 C 1062.830 18, 1064.170 18.563, 1064.867 19.250 C 1065.883 20.252, 1066.419 20.115, 1067.567 18.559 C 1068.849 16.822, 1069 16.801, 1069 18.354 C 1069 19.309, 1070.036 21.126, 1071.301 22.392 C 1072.567 23.658, 1073.408 25.275, 1073.171 25.986 C 1072.917 26.748, 1073.204 26.992, 1073.870 26.580 C 1074.492 26.196, 1075 26.359, 1075 26.941 C 1075 27.523, 1075.675 28, 1076.500 28 C 1077.325 28, 1078 27.550, 1078 27 C 1078 26.450, 1078.477 26, 1079.059 26 C 1079.641 26, 1079.813 26.493, 1079.441 27.096 C 1079.017 27.782, 1079.462 28.041, 1080.632 27.787 C 1081.659 27.564, 1082.376 26.812, 1082.225 26.116 C 1082.074 25.421, 1082.419 25.141, 1082.992 25.495 C 1083.564 25.849, 1083.774 26.557, 1083.457 27.069 C 1083.141 27.581, 1083.359 28, 1083.941 28 C 1084.523 28, 1085 27.068, 1085 25.929 C 1085 24.046, 1085.143 24.001, 1086.570 25.427 C 1088.865 27.722, 1093.041 28.552, 1094.053 26.914 C 1094.514 26.168, 1095.220 25.887, 1095.623 26.289 C 1096.634 27.300, 1092.883 29.892, 1091.292 29.282 C 1090.579 29.008, 1090 29.480, 1090 30.334 C 1090 31.185, 1089.480 32.203, 1088.845 32.595 C 1088.130 33.038, 1087.962 32.870, 1088.405 32.155 C 1088.797 31.520, 1088.633 31, 1088.039 31 C 1086.908 31, 1087.375 35.767, 1088.615 36.873 C 1089.002 37.218, 1089.036 36.712, 1088.691 35.750 C 1088.345 34.788, 1088.446 34, 1088.915 34 C 1089.383 34, 1090.002 34.900, 1090.290 36 C 1090.577 37.100, 1091.273 38, 1091.837 38 C 1092.516 38, 1092.547 36.908, 1091.930 34.757 C 1090.788 30.775, 1090.781 31, 1092.059 31 C 1092.641 31, 1092.838 31.453, 1092.496 32.007 C 1092.153 32.561, 1092.614 33.299, 1093.520 33.646 C 1094.614 34.066, 1094.792 34.511, 1094.050 34.969 C 1092.298 36.052, 1093.978 38.998, 1096.357 39.015 C 1098.048 39.027, 1098.194 39.224, 1097.048 39.949 C 1096.249 40.455, 1095.276 40.671, 1094.886 40.429 C 1093.994 39.878, 1094.295 42.082, 1095.339 43.754 C 1095.799 44.490, 1097.084 44.766, 1098.452 44.423 C 1099.733 44.101, 1101.082 44.324, 1101.450 44.919 C 1102.684 46.916, 1104.124 46.101, 1103.017 44.032 C 1102.148 42.408, 1101.518 42.233, 1099.417 43.032 C 1096.244 44.238, 1096 44.236, 1096 43 C 1096 42.450, 1097.125 42, 1098.500 42 C 1099.875 42, 1101.007 41.438, 1101.015 40.750 C 1101.026 39.917, 1101.354 40, 1102 41 C 1102.704 42.090, 1102.974 42.142, 1102.985 41.191 C 1102.993 40.471, 1103.498 40.190, 1104.107 40.566 C 1104.878 41.043, 1104.803 41.510, 1103.857 42.110 C 1102.858 42.742, 1102.830 42.973, 1103.750 42.985 C 1104.438 42.993, 1104.888 43.526, 1104.750 44.168 C 1104.612 44.811, 1105.538 45.878, 1106.808 46.539 C 1108.678 47.514, 1108.820 47.855, 1107.558 48.340 C 1106.701 48.668, 1106 48.600, 1106 48.187 C 1106 47.043, 1101.184 46.893, 1100.491 48.015 C 1100.156 48.557, 1100.835 49, 1102 49 C 1103.165 49, 1103.864 49.410, 1103.554 49.912 C 1102.921 50.936, 1104.896 50.822, 1106.637 49.733 C 1107.262 49.342, 1108.329 49.692, 1109.009 50.511 C 1110.612 52.442, 1112.381 52.435, 1111.638 50.500 C 1111.322 49.675, 1111.499 49, 1112.031 49 C 1112.564 49, 1113 49.450, 1113 50 C 1113 50.550, 1113.477 51, 1114.059 51 C 1114.641 51, 1114.843 50.555, 1114.507 50.011 C 1114.157 49.445, 1114.558 49.277, 1115.448 49.618 C 1116.302 49.946, 1117 50.642, 1117 51.166 C 1117 51.690, 1117.563 51.794, 1118.250 51.399 C 1118.938 51.003, 1119.166 51.048, 1118.759 51.498 C 1118.351 51.948, 1118.576 53.006, 1119.259 53.850 C 1120.290 55.125, 1120.247 55.230, 1119 54.470 C 1116.654 53.041, 1115.333 53.100, 1115.333 54.633 C 1115.333 55.597, 1116.350 55.972, 1118.560 55.823 C 1120.758 55.675, 1121.625 55.187, 1121.282 54.291 C 1120.956 53.443, 1121.309 53.181, 1122.278 53.553 C 1123.187 53.902, 1123.578 54.899, 1123.269 56.079 C 1122.924 57.397, 1123.203 57.916, 1124.129 57.679 C 1124.883 57.486, 1125.160 57.517, 1124.744 57.749 C 1124.328 57.981, 1124.272 58.631, 1124.619 59.193 C 1125.013 59.830, 1124.483 59.971, 1123.209 59.566 C 1122.087 59.210, 1120.938 59.291, 1120.656 59.747 C 1119.613 61.436, 1125.310 60.960, 1126.601 59.250 C 1127.815 57.645, 1127.891 57.684, 1127.522 59.734 C 1127.280 61.082, 1127.791 62.401, 1128.810 63.060 C 1130.385 64.077, 1130.383 64.115, 1128.782 63.619 C 1127.837 63.327, 1126.798 63.518, 1126.473 64.044 C 1126.148 64.570, 1126.584 65, 1127.441 65 C 1129.310 65, 1129.449 66.151, 1127.781 67.819 C 1126.823 68.777, 1127.304 68.901, 1130.031 68.397 C 1133.353 67.784, 1133.415 67.825, 1131.500 69.381 C 1129.851 70.720, 1129.809 70.897, 1131.263 70.391 C 1132.232 70.053, 1133.781 70.389, 1134.705 71.138 C 1135.862 72.077, 1136.150 72.111, 1135.633 71.250 C 1135.220 70.563, 1135.359 70, 1135.941 70 C 1136.523 70, 1137 70.477, 1137 71.059 C 1137 71.641, 1137.495 71.812, 1138.100 71.438 C 1138.899 70.944, 1138.899 71.319, 1138.100 72.814 C 1136.648 75.525, 1136.707 77.059, 1138.250 76.750 C 1138.938 76.612, 1139.388 77.063, 1139.250 77.750 C 1138.935 79.325, 1140.698 79.406, 1141.220 77.840 C 1141.494 77.017, 1142.137 76.977, 1143.432 77.702 C 1144.653 78.386, 1144.884 78.954, 1144.128 79.421 C 1142.407 80.485, 1142.778 81.709, 1145 82.290 C 1146.328 82.637, 1147 82.320, 1147 81.347 C 1147 80.458, 1146.509 80.165, 1145.750 80.601 C 1145.063 80.997, 1144.851 80.935, 1145.279 80.465 C 1146.235 79.414, 1148.971 78.938, 1148.851 79.843 C 1148.516 82.355, 1149.176 83.870, 1150.400 83.400 C 1151.309 83.051, 1151.748 83.501, 1151.650 84.681 C 1151.549 85.905, 1152.301 86.612, 1153.952 86.846 C 1155.981 87.132, 1156.199 86.945, 1155.218 85.763 C 1154.280 84.633, 1154.343 84.333, 1155.516 84.333 C 1156.332 84.333, 1157 84.964, 1157 85.734 C 1157 86.680, 1157.650 86.929, 1159 86.500 C 1160.306 86.085, 1161.005 86.322, 1161.015 87.183 C 1161.027 88.227, 1161.211 88.215, 1161.904 87.122 C 1162.384 86.364, 1163.277 86.053, 1163.888 86.431 C 1164.500 86.809, 1165 86.551, 1165 85.859 C 1165 84.880, 1165.267 84.867, 1166.200 85.800 C 1166.860 86.460, 1167.873 86.993, 1168.450 86.985 C 1169.027 86.976, 1168.825 86.533, 1168 86 C 1167.175 85.467, 1167.007 85.024, 1167.628 85.015 C 1168.248 85.007, 1169.315 85.675, 1170 86.500 C 1171.057 87.774, 1170.812 88.002, 1168.372 88.015 C 1166.793 88.024, 1164.825 88.487, 1164 89.046 C 1162.887 89.799, 1163.210 89.896, 1165.250 89.422 C 1166.763 89.071, 1168 89.169, 1168 89.642 C 1167.999 90.114, 1169.745 90.435, 1171.878 90.356 C 1175.322 90.228, 1175.697 90.442, 1175.223 92.254 C 1174.710 94.216, 1174.637 94.224, 1173.345 92.457 C 1172.225 90.925, 1172 90.883, 1172 92.202 C 1172 93.073, 1172.704 94.056, 1173.563 94.386 C 1174.485 94.740, 1174.825 95.502, 1174.391 96.243 C 1173.987 96.934, 1174.623 96.652, 1175.805 95.616 C 1176.986 94.580, 1177.652 93.230, 1177.284 92.616 C 1176.917 92.002, 1177.351 92.095, 1178.249 92.823 C 1179.146 93.551, 1179.633 94.793, 1179.329 95.584 C 1178.943 96.590, 1179.262 96.837, 1180.389 96.404 C 1181.275 96.064, 1182 96.284, 1182 96.893 C 1182 97.502, 1181.550 98, 1181 98 C 1178.715 98, 1180.228 99.891, 1183 100.500 C 1184.650 100.862, 1186 101.628, 1186 102.202 C 1186 102.800, 1186.746 102.660, 1187.750 101.872 C 1189.298 100.658, 1189.357 100.683, 1188.259 102.092 C 1187.576 102.968, 1187.235 103.984, 1187.500 104.350 C 1187.766 104.717, 1187.447 104.563, 1186.792 104.008 C 1185.245 102.700, 1184 102.722, 1184 104.059 C 1184 104.641, 1184.403 104.869, 1184.895 104.565 C 1185.388 104.260, 1186.042 104.668, 1186.350 105.470 C 1186.802 106.647, 1187.504 106.720, 1190.006 105.848 C 1191.709 105.254, 1193.379 105.046, 1193.718 105.384 C 1194.056 105.723, 1193.610 106, 1192.726 106 C 1191.841 106, 1190.875 106.394, 1190.577 106.875 C 1190.280 107.356, 1191.153 107.750, 1192.518 107.750 C 1193.883 107.750, 1195 107.356, 1195 106.875 C 1195 106.394, 1195.424 106, 1195.943 106 C 1196.908 106, 1196.615 109.196, 1195.482 111.029 C 1195.135 111.590, 1195.447 111.926, 1196.176 111.775 C 1196.952 111.614, 1197.379 112.224, 1197.206 113.250 C 1197.038 114.254, 1197.537 115, 1198.378 115 C 1199.599 115, 1199.867 112.291, 1199.989 98.750 C 1200.069 89.813, 1200.281 81.349, 1200.458 79.943 C 1200.636 78.536, 1200.470 74.373, 1200.089 70.693 C 1199.708 67.012, 1199.739 64, 1200.158 64 C 1200.577 64, 1200.825 62.664, 1200.710 61.031 C 1200.518 58.323, 1200.061 57.969, 1195.500 57.003 C 1160.714 49.633, 1117.109 30.184, 1080.788 5.839 C 1071.950 -0.085, 1066.926 -1.625, 1067.447 1.750 M 1128 1.441 C 1128 2.234, 1128.520 3.203, 1129.155 3.595 C 1129.930 4.075, 1130.044 3.848, 1129.501 2.905 C 1129.056 2.132, 1129.595 2.400, 1130.697 3.500 C 1132.467 5.266, 1132.514 5.580, 1131.101 6.180 C 1129.755 6.751, 1129.741 6.871, 1131.009 6.930 C 1132.823 7.014, 1135.640 11, 1133.886 11 C 1133.053 11, 1133.049 11.354, 1133.869 12.342 C 1134.481 13.080, 1134.659 14.008, 1134.262 14.404 C 1133.866 14.800, 1134.799 14.647, 1136.336 14.062 C 1139.774 12.755, 1140 12.752, 1140 14 C 1140 14.550, 1139.456 14.888, 1138.791 14.750 C 1138.125 14.613, 1137.512 15.513, 1137.427 16.750 C 1137.338 18.058, 1137.844 19, 1138.637 19 C 1139.386 19, 1140 19.930, 1140 21.067 C 1140 22.663, 1140.446 22.993, 1141.953 22.515 C 1143.544 22.010, 1143.828 22.294, 1143.490 24.051 C 1143.200 25.559, 1143.662 26.360, 1145.026 26.717 C 1146.099 26.998, 1146.731 27.626, 1146.430 28.114 C 1145.731 29.245, 1146.268 29.229, 1149.435 28.025 C 1151.720 27.156, 1151.991 27.292, 1151.921 29.275 C 1151.878 30.499, 1151.615 30.938, 1151.338 30.250 C 1151.060 29.562, 1150.366 29, 1149.794 29 C 1149.180 29, 1149.280 29.633, 1150.038 30.546 C 1150.743 31.396, 1151.973 31.840, 1152.772 31.534 C 1153.731 31.166, 1154.039 31.457, 1153.679 32.393 C 1153.289 33.412, 1153.819 33.734, 1155.568 33.542 C 1156.906 33.395, 1158 33.663, 1158 34.138 C 1158 34.612, 1158.477 35, 1159.059 35 C 1159.641 35, 1159.840 34.550, 1159.500 34 C 1159.160 33.450, 1159.389 33, 1160.008 33 C 1160.706 33, 1160.875 33.819, 1160.452 35.151 C 1159.904 36.878, 1160.096 37.177, 1161.422 36.668 C 1162.392 36.296, 1163.294 36.602, 1163.603 37.407 C 1163.893 38.162, 1165.113 38.812, 1166.315 38.851 C 1170.593 38.989, 1171.886 39.347, 1171.694 40.337 C 1171.588 40.890, 1173.633 42.155, 1176.240 43.149 C 1180.993 44.962, 1183.065 45.514, 1190.500 46.948 C 1192.700 47.372, 1195.737 48.056, 1197.250 48.468 L 1200 49.217 1200 24.608 L 1200 0 1164 0 C 1133.322 0, 1128 0.213, 1128 1.441 M 1055.632 1.786 C 1055.365 2.218, 1056.014 2.571, 1057.073 2.571 C 1058.133 2.571, 1059 2.218, 1059 1.786 C 1059 0.764, 1056.264 0.764, 1055.632 1.786 M 1137.872 2.750 C 1136.629 4.336, 1136.664 4.371, 1138.250 3.128 C 1139.213 2.373, 1140 1.585, 1140 1.378 C 1140 0.555, 1139.179 1.084, 1137.872 2.750 M 1051.083 3.283 C 1051.313 3.439, 1052.400 4.226, 1053.500 5.033 C 1055.350 6.390, 1055.397 6.369, 1054.128 4.750 C 1053.373 3.788, 1052.285 3, 1051.711 3 C 1051.137 3, 1050.854 3.127, 1051.083 3.283 M 1135.226 8.579 C 1136.176 9.570, 1137.168 10.166, 1137.431 9.903 C 1137.694 9.640, 1136.917 8.829, 1135.705 8.100 C 1133.598 6.835, 1133.577 6.857, 1135.226 8.579 M 1055 11 C 1054 11.646, 1053.917 11.974, 1054.750 11.985 C 1055.438 11.993, 1056 12.730, 1056 13.622 C 1056 14.962, 1055.735 15.025, 1054.477 13.981 C 1053.199 12.920, 1053.059 12.990, 1053.606 14.416 C 1053.965 15.350, 1054.861 15.884, 1055.597 15.601 C 1056.333 15.319, 1057.202 15.518, 1057.527 16.044 C 1057.852 16.570, 1057.641 17, 1057.059 17 C 1056.477 17, 1056 17.505, 1056 18.122 C 1056 18.932, 1056.392 18.919, 1057.405 18.079 C 1059.013 16.744, 1058.946 14.844, 1057.215 12.759 C 1056.556 11.965, 1056.313 11.020, 1056.675 10.658 C 1057.636 9.697, 1056.730 9.882, 1055 11 M 28.951 18.250 C 26.145 22.238, 21.812 28.761, 19.323 32.746 C 16.834 36.732, 14.424 39.762, 13.968 39.480 C 13.512 39.198, 12.813 39.494, 12.415 40.138 C 11.937 40.912, 12.127 41.040, 12.975 40.515 C 13.831 39.986, 14.105 40.185, 13.796 41.111 C 13.542 41.875, 12.846 42.500, 12.250 42.500 C 11.654 42.500, 10.792 42.910, 10.333 43.410 C 9.841 43.948, 10.065 43.993, 10.880 43.521 C 11.823 42.974, 12.113 43.161, 11.796 44.111 C 11.542 44.875, 10.846 45.500, 10.250 45.500 C 9.654 45.500, 8.792 45.910, 8.333 46.410 C 7.849 46.939, 8.024 47.019, 8.750 46.601 C 10.548 45.566, 10.296 46.785, 7.915 50.638 C 6.768 52.494, 5.440 53.772, 4.965 53.478 C 3.786 52.750, 1.616 56.880, 1.405 60.250 C 1.311 61.763, 1.354 63, 1.501 63 C 1.648 63, 5.723 56.588, 10.557 48.750 C 15.390 40.912, 22.841 29.213, 27.114 22.750 C 31.386 16.287, 34.695 11, 34.467 11 C 34.239 11, 31.756 14.262, 28.951 18.250 M 159.068 15.500 C 159.070 16.050, 160.221 17.850, 161.625 19.500 C 163.029 21.150, 163.721 21.600, 163.162 20.500 C 161.644 17.511, 159.063 14.359, 159.068 15.500 M 37 20 C 36.411 21.100, 36.155 22, 36.430 22 C 36.705 22, 37.411 21.100, 38 20 C 38.589 18.900, 38.845 18, 38.570 18 C 38.295 18, 37.589 18.900, 37 20 M 1064.462 22.062 C 1063.873 23.015, 1066.912 24.172, 1068.090 23.444 C 1068.591 23.135, 1069 23.385, 1069 24 C 1069 24.615, 1069.453 24.838, 1070.008 24.495 C 1071.391 23.640, 1068.974 21.333, 1066.694 21.333 C 1065.714 21.333, 1064.709 21.661, 1064.462 22.062 M 1092.694 21.639 C 1091.895 22.438, 1092.798 24, 1094.059 24 C 1094.577 24, 1095 23.325, 1095 22.500 C 1095 20.954, 1093.820 20.513, 1092.694 21.639 M 1089.553 23.915 C 1089.231 24.436, 1089.394 25.125, 1089.915 25.447 C 1090.436 25.769, 1091.125 25.606, 1091.447 25.085 C 1091.769 24.564, 1091.606 23.875, 1091.085 23.553 C 1090.564 23.231, 1089.875 23.394, 1089.553 23.915 M 1148.510 26.016 C 1148.856 26.575, 1149.557 26.774, 1150.069 26.457 C 1151.456 25.600, 1151.198 25, 1149.441 25 C 1148.584 25, 1148.165 25.457, 1148.510 26.016 M 32.652 28.252 C 32.274 29.757, 31.410 30.878, 30.732 30.744 C 30.030 30.605, 29.636 31.295, 29.817 32.350 C 29.991 33.368, 29.750 33.964, 29.281 33.674 C 28.812 33.384, 28.429 34.014, 28.429 35.073 C 28.429 36.133, 28.538 37, 28.672 37 C 29.520 37, 34.097 27.791, 33.757 26.770 C 33.527 26.080, 33.029 26.747, 32.652 28.252 M 1084.750 28.893 C 1082.582 31.091, 1082.566 31.619, 1084.641 32.416 C 1086.024 32.946, 1086.080 32.802, 1085 31.500 C 1083.943 30.227, 1083.963 30.045, 1085.109 30.467 C 1086.985 31.158, 1089.425 29.497, 1088.569 28.112 C 1087.646 26.618, 1086.829 26.785, 1084.750 28.893 M 1078 29.969 C 1078 30.501, 1078.675 30.678, 1079.500 30.362 C 1080.325 30.045, 1081 29.609, 1081 29.393 C 1081 29.177, 1080.325 29, 1079.500 29 C 1078.675 29, 1078 29.436, 1078 29.969 M 17 32 C 16.411 33.100, 16.155 34, 16.430 34 C 16.705 34, 17.411 33.100, 18 32 C 18.589 30.900, 18.845 30, 18.570 30 C 18.295 30, 17.589 30.900, 17 32 M 1097.364 37.506 C 1100.990 39.397, 1102.084 39.378, 1099.559 37.468 C 1098.491 36.661, 1096.916 36.003, 1096.059 36.006 C 1095.201 36.010, 1095.789 36.685, 1097.364 37.506 M 34 40 C 33.411 41.100, 33.155 42, 33.430 42 C 33.705 42, 34.411 41.100, 35 40 C 35.589 38.900, 35.845 38, 35.570 38 C 35.295 38, 34.589 38.900, 34 40 M 1104.083 38.365 C 1104.313 38.565, 1105.625 39.265, 1107 39.920 C 1109.357 41.042, 1109.389 41.022, 1107.559 39.555 C 1105.966 38.279, 1102.711 37.164, 1104.083 38.365 M 1119.733 40.124 C 1120.412 40.808, 1121.219 41.115, 1121.526 40.807 C 1121.834 40.499, 1121.279 39.940, 1120.293 39.564 C 1118.868 39.022, 1118.753 39.136, 1119.733 40.124 M 1115.267 41.897 C 1115.377 43.355, 1115.993 43.688, 1117.932 43.336 C 1121.485 42.692, 1121.834 42, 1118.608 42 C 1117.045 42, 1116.146 41.573, 1116.500 41 C 1116.840 40.450, 1116.669 40, 1116.121 40 C 1115.573 40, 1115.189 40.853, 1115.267 41.897 M 1123 40.902 C 1123 41.940, 1124.902 43.443, 1125.466 42.850 C 1125.649 42.658, 1125.169 41.920, 1124.399 41.211 C 1123.630 40.501, 1123 40.362, 1123 40.902 M 1111 41.393 C 1111 41.609, 1111.675 42.045, 1112.500 42.362 C 1113.325 42.678, 1114 42.501, 1114 41.969 C 1114 41.436, 1113.325 41, 1112.500 41 C 1111.675 41, 1111 41.177, 1111 41.393 M 1107.005 44.405 C 1107.578 44.978, 1108.811 44.935, 1110.217 44.293 C 1112.345 43.322, 1112.282 43.259, 1109.288 43.364 C 1107.309 43.433, 1106.433 43.833, 1107.005 44.405 M 1120.657 47.250 C 1120.911 47.663, 1120.326 48, 1119.359 48 C 1117.958 48, 1117.853 48.253, 1118.842 49.242 C 1119.830 50.230, 1120.253 50.209, 1120.917 49.135 C 1121.439 48.289, 1122.543 48.038, 1123.875 48.460 C 1125.363 48.932, 1126 48.708, 1126 47.711 C 1126 46.782, 1124.992 46.324, 1123.098 46.394 C 1121.502 46.452, 1120.404 46.837, 1120.657 47.250 M 1126.813 50.683 C 1127.534 50.972, 1128.397 50.936, 1128.729 50.604 C 1129.061 50.272, 1128.471 50.036, 1127.417 50.079 C 1126.252 50.127, 1126.015 50.364, 1126.813 50.683 M 16.871 53.250 C 14.263 55.407, 11.780 60.001, 13.227 59.992 C 13.927 59.988, 15.526 58.188, 16.780 55.992 C 19.223 51.714, 19.237 51.293, 16.871 53.250 M 1108 54.500 C 1108 55.367, 1108.595 55.709, 1109.500 55.362 C 1110.325 55.045, 1111 54.657, 1111 54.500 C 1111 54.343, 1110.325 53.955, 1109.500 53.638 C 1108.595 53.291, 1108 53.633, 1108 54.500 M 3.564 55.707 C 3.022 57.132, 3.136 57.247, 4.124 56.267 C 4.808 55.588, 5.115 54.781, 4.807 54.474 C 4.499 54.166, 3.940 54.721, 3.564 55.707 M 1102.813 54.683 C 1103.534 54.972, 1104.397 54.936, 1104.729 54.604 C 1105.061 54.272, 1104.471 54.036, 1103.417 54.079 C 1102.252 54.127, 1102.015 54.364, 1102.813 54.683 M 23.381 56.250 C 22.976 56.938, 22.002 58.625, 21.217 60 C 19.846 62.400, 19.856 62.420, 21.468 60.500 C 23.499 58.080, 25.250 55, 24.594 55 C 24.332 55, 23.786 55.563, 23.381 56.250 M 1177.091 56.424 C 1177.874 57.208, 1199.385 62.948, 1199.839 62.495 C 1200.410 61.923, 1199.544 61.643, 1187.661 58.556 C 1177.569 55.934, 1176.356 55.690, 1177.091 56.424 M 1190.510 63.016 C 1190.856 63.575, 1191.557 63.774, 1192.069 63.457 C 1193.456 62.600, 1193.198 62, 1191.441 62 C 1190.584 62, 1190.165 62.457, 1190.510 63.016 M 17.511 65.623 C 16.566 67.066, 16.287 67.941, 16.891 67.567 C 18.045 66.854, 20.374 63, 19.650 63 C 19.419 63, 18.457 64.180, 17.511 65.623 M 2.615 72.465 C 1.727 73.820, 1 75.320, 1 75.798 C 1 77.215, 3.868 76.785, 4.446 75.281 C 4.738 74.519, 4.532 74.171, 3.989 74.507 C 2.716 75.294, 2.732 74.368, 4.035 71.934 C 5.512 69.174, 4.531 69.541, 2.615 72.465 M 181.079 71.583 C 181.127 72.748, 181.364 72.985, 181.683 72.188 C 181.972 71.466, 181.936 70.603, 181.604 70.271 C 181.272 69.939, 181.036 70.529, 181.079 71.583 M 1144 76.393 C 1144 76.609, 1144.698 77.054, 1145.552 77.382 C 1146.442 77.723, 1146.843 77.555, 1146.493 76.989 C 1145.906 76.038, 1144 75.583, 1144 76.393 M 155.292 88.760 C 152.972 91.210, 143.571 109.523, 142.804 113.088 C 142.637 113.865, 141.704 115.094, 140.732 115.820 C 139.759 116.545, 137.882 119.274, 136.560 121.882 C 135.238 124.491, 133.475 127.191, 132.643 127.881 C 130.649 129.536, 126.744 137.077, 127.493 137.826 C 127.816 138.149, 128.339 137.420, 128.656 136.206 C 128.974 134.993, 129.594 134, 130.035 134 C 130.476 134, 131.861 132.313, 133.113 130.250 C 134.365 128.188, 137.326 124.258, 139.694 121.517 C 142.062 118.777, 144 116.039, 144 115.434 C 144 114.828, 145.870 112.345, 148.155 109.916 C 150.666 107.247, 152.050 106.291, 151.653 107.500 C 150.555 110.844, 154.585 105.573, 158.468 98.587 C 160.847 94.307, 161.694 91.704, 161.322 89.817 C 160.563 85.970, 158.308 85.574, 155.292 88.760 M 5.500 93 C 4.647 94.650, 4.174 96, 4.449 96 C 4.724 96, 5.647 94.650, 6.500 93 C 7.353 91.350, 7.826 90, 7.551 90 C 7.276 90, 6.353 91.350, 5.500 93 M 1182.020 95.524 C 1182.716 96.362, 1183.491 96.842, 1183.743 96.591 C 1184.436 95.897, 1183.027 94, 1181.819 94 C 1181.155 94, 1181.231 94.574, 1182.020 95.524 M 1.459 100.067 C 1.096 100.653, 1.014 101.348, 1.276 101.610 C 1.538 101.872, 2.019 101.392, 2.345 100.543 C 3.021 98.781, 2.445 98.471, 1.459 100.067 M 1179 101.969 C 1179 102.501, 1179.675 102.678, 1180.500 102.362 C 1181.325 102.045, 1182 101.609, 1182 101.393 C 1182 101.177, 1181.325 101, 1180.500 101 C 1179.675 101, 1179 101.436, 1179 101.969 M 1187 109 C 1185.718 109.828, 1185.754 109.972, 1187.250 109.985 C 1188.213 109.993, 1189 109.550, 1189 109 C 1189 107.780, 1188.887 107.780, 1187 109 M 1198.564 117.707 C 1198.022 119.132, 1198.136 119.247, 1199.124 118.267 C 1199.808 117.588, 1200.115 116.781, 1199.807 116.474 C 1199.499 116.166, 1198.940 116.721, 1198.564 117.707 M 1188.161 162.624 C 1145.457 175.558, 1096.738 197.322, 1056.500 221.443 C 1012.472 247.835, 978.769 274.028, 943.949 308.913 C 926.978 325.917, 899.861 356.593, 898.372 360.474 C 898.096 361.192, 893.062 364.849, 887.185 368.601 C 874.931 376.424, 864.332 384.086, 855 391.868 C 844.714 400.446, 844.947 399.815, 852.085 399.765 C 858.277 399.721, 858.563 399.597, 865.954 393.741 C 886.734 377.276, 918.088 359.157, 944 348.638 C 969.603 338.244, 990.988 332.622, 1025 327.344 C 1040.608 324.921, 1081.801 324.420, 1099.597 326.436 C 1114.537 328.128, 1137.625 332.328, 1127.500 331.512 C 1122.532 331.111, 1122.524 331.115, 1126.250 332.154 C 1129.981 333.193, 1130.908 334.321, 1129 335.500 C 1127.838 336.218, 1127.645 338.056, 1128.750 337.882 C 1130.714 337.572, 1131.135 338.133, 1129.981 339.523 C 1128.924 340.796, 1128.986 340.943, 1130.359 340.416 C 1131.271 340.066, 1132 340.277, 1132 340.893 C 1132 341.502, 1132.450 342, 1133 342 C 1134.439 342, 1134.234 339.261, 1132.750 338.662 C 1131.750 338.259, 1131.750 338.142, 1132.750 338.079 C 1134.538 337.966, 1134.302 336, 1132.500 336 C 1129.749 336, 1130.956 334.001, 1133.750 333.930 C 1136.187 333.867, 1136.272 333.762, 1134.500 333 C 1131.378 331.659, 1133.479 331.857, 1141.303 333.643 C 1146.426 334.812, 1147.940 335.484, 1146.558 335.973 C 1145.145 336.474, 1146.471 337.126, 1151.433 338.373 C 1155.181 339.314, 1158.442 339.891, 1158.678 339.655 C 1158.915 339.419, 1156.809 338.674, 1154 338 C 1151.191 337.326, 1149.112 336.555, 1149.380 336.287 C 1149.648 336.019, 1153.336 336.829, 1157.575 338.087 C 1163.327 339.795, 1164.802 340.563, 1163.391 341.117 C 1160.582 342.220, 1159.290 342.115, 1161 340.924 C 1162.107 340.153, 1161.607 340.055, 1159.095 340.553 C 1154.774 341.408, 1148.957 343.909, 1151.167 343.961 C 1152.083 343.982, 1153.023 344.563, 1153.254 345.250 C 1153.847 347.013, 1152.948 350, 1151.824 350 C 1151.306 350, 1151.131 349.597, 1151.435 349.105 C 1152.101 348.028, 1149.999 347.121, 1148.250 347.731 C 1146.299 348.411, 1146.778 350.731, 1149.223 352.443 L 1151.445 354 1149.163 354 C 1147.621 354, 1147.115 354.405, 1147.601 355.250 C 1148.019 355.976, 1147.939 356.151, 1147.410 355.667 C 1146.910 355.208, 1146.444 353.971, 1146.375 352.917 C 1146.306 351.862, 1146.194 350.398, 1146.125 349.662 C 1145.944 347.725, 1138.999 347.691, 1136.870 349.617 C 1135.824 350.564, 1134.016 351.014, 1132.317 350.749 C 1130.768 350.508, 1130.063 350.498, 1130.750 350.728 C 1132.316 351.252, 1132.363 352.658, 1130.845 353.595 C 1130.086 354.065, 1129.941 353.828, 1130.420 352.905 C 1130.820 352.132, 1130.425 352.393, 1129.542 353.485 C 1127.948 355.455, 1127.931 355.454, 1127.369 353.305 C 1127.013 351.942, 1126.084 351.193, 1124.862 351.285 C 1123.045 351.422, 1123.067 351.552, 1125.210 353.309 C 1126.847 354.651, 1127.001 355.026, 1125.750 354.624 C 1124.787 354.316, 1124 354.499, 1124 355.031 C 1124 355.564, 1124.787 356.052, 1125.750 356.115 C 1128.295 356.283, 1129.290 356.519, 1131.265 357.420 C 1132.236 357.863, 1133.923 357.992, 1135.015 357.706 C 1136.107 357.421, 1137 357.595, 1137 358.094 C 1137 358.592, 1135.848 359, 1134.441 359 C 1133.034 359, 1132.148 359.430, 1132.473 359.956 C 1132.798 360.482, 1133.837 360.647, 1134.782 360.322 C 1136.200 359.834, 1136.166 359.991, 1134.591 361.218 C 1132.751 362.652, 1132.775 362.724, 1135.250 363.197 C 1137.118 363.554, 1137.677 363.322, 1137.302 362.344 C 1136.985 361.518, 1137.502 360.994, 1138.643 360.985 C 1139.677 360.976, 1140.057 360.644, 1139.500 360.235 C 1137.465 358.740, 1138.027 357, 1140.544 357 C 1141.999 357, 1143.018 356.465, 1142.925 355.750 C 1142.587 353.142, 1143.041 351.847, 1144.163 352.221 C 1145.921 352.807, 1146.010 355.782, 1144.289 356.443 C 1143.073 356.909, 1143.016 357.315, 1144.001 358.501 C 1144.675 359.313, 1145.595 359.751, 1146.044 359.473 C 1146.494 359.195, 1147.133 359.407, 1147.465 359.944 C 1147.825 360.526, 1146.541 360.836, 1144.285 360.710 C 1141.754 360.570, 1140.580 360.904, 1140.740 361.720 C 1141.031 363.197, 1137.352 365.335, 1135.979 364.487 C 1135.441 364.154, 1135 364.306, 1135 364.824 C 1135 365.343, 1135.945 366.014, 1137.101 366.316 C 1138.483 366.678, 1138.933 367.299, 1138.418 368.133 C 1137.824 369.094, 1137.537 369.110, 1137.234 368.201 C 1137.013 367.540, 1136.019 367, 1135.024 367 C 1134.028 367, 1132.955 366.325, 1132.638 365.500 C 1132.322 364.675, 1131.036 363.971, 1129.781 363.937 L 1127.500 363.873 1129.672 362.998 C 1132.652 361.797, 1131.731 357.576, 1128.664 358.378 C 1127.531 358.674, 1126.018 358.430, 1125.302 357.836 C 1124.464 357.140, 1124 357.117, 1124 357.771 C 1124 359.190, 1126.659 360.057, 1128.750 359.321 C 1130.217 358.805, 1130.175 359.012, 1128.487 360.603 C 1125.129 363.768, 1122.555 365.602, 1123.367 364.250 C 1124.240 362.798, 1121.612 362.663, 1118.500 364 C 1116.755 364.750, 1116.882 364.885, 1119.500 365.061 C 1122.478 365.262, 1122.475 365.268, 1119 365.903 C 1117.075 366.255, 1115.225 366.158, 1114.889 365.688 C 1114.553 365.217, 1113.967 365.644, 1113.586 366.636 C 1113.206 367.628, 1113.219 368.114, 1113.616 367.717 C 1114.013 367.320, 1115.239 367.784, 1116.341 368.748 C 1117.442 369.712, 1118.015 369.938, 1117.613 369.250 C 1117.211 368.562, 1117.359 368, 1117.941 368 C 1118.523 368, 1119 368.675, 1119 369.500 C 1119 370.325, 1119.498 371, 1120.107 371 C 1120.716 371, 1120.964 370.348, 1120.658 369.551 C 1120.279 368.564, 1120.582 368.286, 1121.608 368.680 C 1122.437 368.998, 1122.864 369.912, 1122.557 370.711 C 1122.251 371.510, 1122 372.577, 1122 373.082 C 1122 373.587, 1121.523 374, 1120.941 374 C 1120.359 374, 1120.160 373.550, 1120.500 373 C 1121.287 371.727, 1118.970 371.727, 1117 373 C 1115.343 374.071, 1115.412 374.124, 1119 374.557 C 1121.916 374.908, 1125.019 374.180, 1124.823 373.189 C 1124.749 372.810, 1125.179 371.375, 1125.780 370 C 1126.542 368.259, 1126.892 368.020, 1126.937 369.215 C 1126.971 370.158, 1127.900 371.411, 1129 372 C 1131.096 373.122, 1131.441 372.574, 1131.052 368.750 C 1130.954 367.788, 1131.353 367, 1131.937 367 C 1132.522 367, 1133 367.498, 1133 368.107 C 1133 368.716, 1133.692 368.948, 1134.538 368.624 C 1135.413 368.288, 1136.321 368.673, 1136.645 369.517 C 1137.003 370.450, 1138.102 370.839, 1139.607 370.566 C 1140.923 370.328, 1142 370.553, 1142 371.066 C 1142 371.580, 1141.498 372, 1140.883 372 C 1140.259 372, 1139.997 372.882, 1140.290 374 C 1140.970 376.599, 1140.195 376.531, 1137.811 373.782 C 1136.194 371.918, 1135.741 371.798, 1134.970 373.032 C 1134.331 374.055, 1134.499 374.598, 1135.526 374.823 C 1137.314 375.215, 1137.511 378.006, 1135.750 377.985 C 1135.063 377.976, 1133.840 377.552, 1133.034 377.042 C 1132.117 376.462, 1131.117 376.488, 1130.368 377.110 C 1129.511 377.821, 1128.944 377.447, 1128.383 375.803 C 1127.952 374.536, 1127.576 373.163, 1127.549 372.750 C 1127.426 370.869, 1125.495 372.252, 1125.455 374.250 C 1125.430 375.488, 1124.867 376.387, 1124.205 376.250 C 1123.542 376.112, 1123.112 376.562, 1123.250 377.250 C 1123.387 377.937, 1122.937 378.387, 1122.250 378.250 C 1121.562 378.112, 1121.053 378.337, 1121.118 378.750 C 1121.444 380.813, 1120.853 382, 1119.500 382 C 1118.675 382, 1117.993 382.788, 1117.985 383.750 C 1117.973 385.123, 1117.783 385.205, 1117.104 384.134 C 1116.448 383.098, 1115.786 383.030, 1114.369 383.853 C 1112.763 384.786, 1112.734 384.943, 1114.162 384.970 C 1115.146 384.988, 1115.722 385.691, 1115.574 386.696 C 1115.243 388.953, 1113.581 389.405, 1112.113 387.637 C 1110.867 386.135, 1106.623 386.581, 1107.570 388.114 C 1107.872 388.601, 1107.465 389, 1106.666 389 C 1105.867 389, 1104.936 389.725, 1104.596 390.611 C 1104.093 391.921, 1104.494 392.121, 1106.739 391.679 L 1109.500 391.136 1106.796 392.245 C 1105.309 392.854, 1103.959 394.282, 1103.796 395.417 C 1103.625 396.606, 1102.653 397.582, 1101.500 397.722 C 1100.400 397.856, 1100.063 397.710, 1100.750 397.399 C 1102.722 396.507, 1102.207 393.287, 1100 392.710 C 1098.900 392.423, 1098 392.526, 1098 392.941 C 1098 393.355, 1097.174 394.647, 1096.164 395.811 C 1094.768 397.421, 1094.049 397.649, 1093.164 396.764 C 1091.537 395.137, 1091.711 393.675, 1093.452 394.343 C 1094.380 394.699, 1095.437 393.830, 1096.383 391.933 C 1097.197 390.301, 1097.475 389.206, 1097.001 389.499 C 1096.526 389.793, 1095.839 389.549, 1095.474 388.958 C 1094.785 387.842, 1089.342 388.567, 1087.500 390.020 C 1086.950 390.453, 1085.375 391.015, 1084 391.268 C 1081.853 391.663, 1081.951 391.747, 1084.691 391.864 C 1086.446 391.939, 1088.134 391.592, 1088.442 391.094 C 1088.750 390.596, 1089.902 390.423, 1091.001 390.711 C 1092.118 391.003, 1093 390.741, 1093 390.117 C 1093 389.502, 1093.450 389, 1094 389 C 1095.272 389, 1095.310 391.690, 1094.049 392.470 C 1093.526 392.793, 1091.519 393.117, 1089.589 393.189 C 1087.659 393.262, 1086.333 393.729, 1086.641 394.229 C 1086.950 394.728, 1087.832 394.895, 1088.601 394.600 C 1089.371 394.304, 1090 394.461, 1090 394.948 C 1090 395.435, 1089.438 396.060, 1088.750 396.338 C 1088.063 396.615, 1088.457 396.878, 1089.628 396.921 C 1090.798 396.964, 1092.315 397.675, 1093 398.500 C 1094.078 399.799, 1101.340 400, 1147.122 400 L 1200 400 1200 375.550 C 1200 353.359, 1199.838 350.995, 1198.250 349.974 C 1196.583 348.903, 1196.583 348.875, 1198.250 349.393 C 1199.668 349.834, 1199.998 349.327, 1199.989 346.719 C 1199.979 343.718, 1199.546 343.316, 1193.593 340.774 C 1182.101 335.866, 1158.009 328.066, 1143.614 324.593 C 1119.842 318.857, 1103.055 316.617, 1075 315.436 C 1027.733 313.445, 967.669 326.376, 923.990 347.945 C 919.393 350.215, 915.016 351.836, 914.264 351.548 C 913.512 351.259, 913.150 351.434, 913.461 351.937 C 913.772 352.441, 911.026 354.446, 907.357 356.393 L 900.688 359.935 903.486 357.015 C 905.025 355.409, 906.557 354.162, 906.892 354.245 C 908.712 354.697, 911.837 352.738, 911.344 351.455 C 911.040 350.661, 910.275 350.306, 909.645 350.666 C 908.990 351.040, 908.857 350.931, 909.333 350.410 C 909.792 349.910, 910.579 349.444, 911.083 349.375 C 911.587 349.306, 912.450 349.194, 913 349.125 C 913.550 349.056, 914 348.377, 914 347.617 C 914 346.856, 914.902 345.997, 916.004 345.709 C 917.338 345.360, 917.804 344.654, 917.399 343.598 C 917.064 342.726, 916.388 342.260, 915.895 342.565 C 914.351 343.519, 914.921 342.309, 916.692 340.872 C 917.842 339.940, 918.143 339.901, 917.633 340.750 C 916.199 343.137, 918.152 341.981, 921.435 338.500 C 923.251 336.575, 924.529 335, 924.275 335 C 924.021 335, 925.590 332.863, 927.760 330.250 C 929.931 327.637, 931.511 324.940, 931.272 324.256 C 931.033 323.572, 931.999 322.571, 933.419 322.031 C 934.838 321.491, 936 320.530, 936 319.896 C 936 318.592, 952.937 300.979, 953.886 301.295 C 954.224 301.408, 954.645 301.050, 954.821 300.500 C 955.327 298.924, 958.213 296, 959.261 296 C 959.784 296, 961.116 294.851, 962.220 293.447 C 963.324 292.043, 964.470 291.137, 964.767 291.433 C 965.063 291.730, 968.499 289.151, 972.403 285.703 C 989.891 270.255, 1010.631 254.512, 1031.500 240.844 C 1045.875 231.429, 1048.961 229.628, 1049.608 230.275 C 1049.849 230.515, 1044.302 234.470, 1037.283 239.063 C 1030.264 243.656, 1023.616 248.383, 1022.510 249.567 C 1021.405 250.751, 1013.975 256.791, 1006 262.989 C 998.025 269.187, 987.677 277.463, 983.004 281.379 C 973.399 289.430, 944.772 317.105, 945.399 317.733 C 945.625 317.958, 948.337 315.656, 951.427 312.615 C 954.516 309.575, 958.384 306.296, 960.022 305.328 C 961.660 304.360, 963 303.216, 963 302.784 C 963 302.353, 963.563 301.990, 964.250 301.977 C 964.938 301.964, 968.748 299.118, 972.719 295.651 C 976.689 292.185, 981.639 288.483, 983.719 287.424 C 985.798 286.366, 987.725 285.216, 988 284.869 C 988.275 284.521, 991.650 282.090, 995.500 279.465 C 999.350 276.841, 1003.180 273.975, 1004.011 273.097 C 1004.842 272.219, 1006.529 270.938, 1007.761 270.250 C 1008.992 269.563, 1010.997 268.438, 1012.215 267.750 C 1013.433 267.063, 1015.679 265.301, 1017.205 263.836 C 1018.732 262.371, 1021.995 260.404, 1024.456 259.464 C 1026.917 258.524, 1029.624 256.697, 1030.471 255.405 C 1031.317 254.112, 1033.471 252.657, 1035.255 252.172 C 1037.040 251.686, 1038.387 250.774, 1038.250 250.144 C 1038.112 249.515, 1038.675 249, 1039.500 249 C 1040.325 249, 1041 248.550, 1041 248 C 1041 247.450, 1041.702 247, 1042.559 247 C 1043.483 247, 1043.827 246.530, 1043.405 245.845 C 1042.960 245.127, 1043.130 244.963, 1043.855 245.410 C 1044.495 245.806, 1046.927 244.863, 1049.259 243.315 C 1051.592 241.767, 1054.850 239.826, 1056.500 239.002 C 1058.150 238.177, 1059.831 237.052, 1060.235 236.502 C 1060.639 235.951, 1060.976 235.812, 1060.985 236.194 C 1060.993 236.575, 1062.450 235.563, 1064.223 233.944 C 1065.995 232.325, 1068.020 231, 1068.723 231 C 1069.425 231, 1070 230.590, 1070 230.089 C 1070 229.030, 1077.222 225.505, 1081.291 224.577 C 1082.826 224.228, 1083.841 223.552, 1083.547 223.075 C 1082.631 221.594, 1086.168 220.896, 1087.819 222.233 C 1088.680 222.930, 1089.088 223.005, 1088.726 222.401 C 1087.952 221.108, 1092.354 218.482, 1093.798 219.375 C 1095.111 220.187, 1102.228 217.178, 1101.558 216.095 C 1101.271 215.630, 1103.024 214.693, 1105.454 214.013 C 1107.884 213.333, 1110.124 212.120, 1110.431 211.319 C 1110.792 210.380, 1111.702 210.088, 1112.995 210.498 C 1114.225 210.889, 1115 210.681, 1115 209.960 C 1115 209.314, 1115.661 209.040, 1116.468 209.349 C 1117.275 209.659, 1118.202 209.482, 1118.527 208.956 C 1119.279 207.740, 1128.695 207.697, 1129.442 208.906 C 1129.750 209.404, 1130.891 209.580, 1131.977 209.296 C 1133.614 208.868, 1133.768 208.435, 1132.876 206.769 C 1132.194 205.493, 1132.173 204.989, 1132.820 205.389 C 1133.380 205.735, 1134.518 205.339, 1135.348 204.509 C 1136.178 203.679, 1137.984 203, 1139.361 203 C 1140.939 203, 1142.087 202.300, 1142.466 201.109 C 1142.884 199.792, 1144.390 199.019, 1147.428 198.563 C 1150.551 198.095, 1151.933 197.365, 1152.291 195.994 C 1152.724 194.340, 1153.238 194.208, 1156.080 195.023 C 1159.619 196.038, 1160.590 195.764, 1159.531 194.050 C 1159.163 193.455, 1158.373 193.269, 1157.776 193.638 C 1157.129 194.039, 1156.979 193.844, 1157.405 193.155 C 1158.415 191.519, 1161 191.720, 1161 193.433 C 1161 194.378, 1162.023 194.837, 1164 194.781 C 1165.650 194.734, 1167.007 194.202, 1167.015 193.598 C 1167.026 192.867, 1167.281 192.893, 1167.778 193.675 C 1168.718 195.153, 1174.563 195.866, 1174.324 194.473 C 1174.137 193.380, 1183.197 193.386, 1184.968 194.480 C 1185.600 194.871, 1185.333 196.114, 1184.256 197.802 C 1182.624 200.359, 1182.625 200.429, 1184.267 199.128 C 1185.864 197.863, 1186.454 198.249, 1186.094 200.324 C 1186.015 200.778, 1186.321 200.920, 1186.773 200.640 C 1187.225 200.361, 1188.234 200.527, 1189.014 201.009 C 1189.889 201.549, 1190.999 201.428, 1191.908 200.693 C 1193.065 199.758, 1193.222 199.770, 1192.633 200.750 C 1192.158 201.540, 1192.465 202, 1193.466 202 C 1194.337 202, 1195.441 203.031, 1195.921 204.291 C 1196.400 205.551, 1197.514 207.181, 1198.396 207.914 C 1199.810 209.087, 1200 208.875, 1200 206.122 C 1200 204.299, 1199.480 202.994, 1198.750 202.985 C 1197.766 202.973, 1197.771 202.798, 1198.770 202.163 C 1199.746 201.544, 1199.978 196.470, 1199.770 180.273 L 1199.500 159.190 1188.161 162.624 M 113.500 162 C 113.160 162.550, 113.359 163, 113.941 163 C 114.523 163, 115 162.550, 115 162 C 115 161.450, 114.802 161, 114.559 161 C 114.316 161, 113.840 161.450, 113.500 162 M 28.500 186.456 C 30.700 188.448, 33.400 190.534, 34.500 191.092 C 36.876 192.296, 31.786 187.769, 27.500 184.866 C 25.392 183.438, 25.690 183.911, 28.500 186.456 M 37.083 189.283 C 37.313 189.439, 38.400 190.226, 39.500 191.033 C 41.350 192.390, 41.397 192.369, 40.128 190.750 C 39.373 189.787, 38.285 189, 37.711 189 C 37.137 189, 36.854 189.127, 37.083 189.283 M 43 192.322 C 43 192.538, 46.487 195.508, 50.750 198.923 L 58.500 205.131 52.729 199.590 C 47.593 194.657, 43 191.227, 43 192.322 M 1180.238 196.604 C 1180.421 198.822, 1180.517 198.848, 1182.465 197.221 C 1183.584 196.286, 1184.631 195.460, 1184.792 195.385 C 1184.953 195.310, 1183.951 195.033, 1182.565 194.768 C 1180.423 194.358, 1180.075 194.633, 1180.238 196.604 M 1156.813 197.683 C 1157.534 197.972, 1158.397 197.936, 1158.729 197.604 C 1159.061 197.272, 1158.471 197.036, 1157.417 197.079 C 1156.252 197.127, 1156.015 197.364, 1156.813 197.683 M 1189.500 200 C 1189.840 200.550, 1190.316 201, 1190.559 201 C 1190.802 201, 1191 200.550, 1191 200 C 1191 199.450, 1190.523 199, 1189.941 199 C 1189.359 199, 1189.160 199.450, 1189.500 200 M 1145 201.059 C 1145 201.641, 1145.450 201.840, 1146 201.500 C 1146.550 201.160, 1147 200.684, 1147 200.441 C 1147 200.198, 1146.550 200, 1146 200 C 1145.450 200, 1145 200.477, 1145 201.059 M 1193 204.059 C 1193 204.641, 1193.450 204.840, 1194 204.500 C 1194.550 204.160, 1195 203.684, 1195 203.441 C 1195 203.198, 1194.550 203, 1194 203 C 1193.450 203, 1193 203.477, 1193 204.059 M 1134 206.383 C 1134 206.594, 1134.900 207.002, 1136 207.290 C 1137.100 207.577, 1138 207.405, 1138 206.906 C 1138 206.408, 1137.100 206, 1136 206 C 1134.900 206, 1134 206.173, 1134 206.383 M 1193.644 206.766 C 1193.384 207.188, 1194.257 208.046, 1195.585 208.672 C 1198.320 209.963, 1198.667 209.525, 1196.571 207.429 C 1194.952 205.810, 1194.324 205.667, 1193.644 206.766 M 1080.441 211.555 C 1078.577 213.049, 1078.589 213.067, 1080.750 212.020 C 1081.987 211.420, 1083 210.720, 1083 210.465 C 1083 209.700, 1082.481 209.921, 1080.441 211.555 M 1193.564 212.707 C 1193.022 214.132, 1193.136 214.247, 1194.124 213.267 C 1194.808 212.588, 1195.115 211.781, 1194.807 211.474 C 1194.499 211.166, 1193.940 211.721, 1193.564 212.707 M 58 212.859 C 58 213.397, 57.727 214.548, 57.393 215.418 C 56.995 216.456, 57.338 217, 58.393 217 C 60.159 217, 60.630 213.507, 59 212.500 C 58.450 212.160, 58 212.322, 58 212.859 M 1070.765 216.324 C 1067.612 218.071, 1065.024 219.880, 1065.015 220.345 C 1065.001 221.115, 1071.642 217.637, 1076.473 214.345 C 1080.073 211.890, 1076.587 213.099, 1070.765 216.324 M 64 215.401 C 64 215.525, 65.318 216.889, 66.929 218.432 C 68.993 220.409, 69.787 220.757, 69.619 219.609 C 69.319 217.568, 67.485 215.688, 65.510 215.399 C 64.680 215.277, 64 215.278, 64 215.401 M 66 216.378 C 66 216.585, 66.787 217.373, 67.750 218.128 C 69.336 219.371, 69.371 219.336, 68.128 217.750 C 66.821 216.084, 66 215.555, 66 216.378 M 78.543 218.931 C 78.226 219.443, 78.378 220.115, 78.879 220.425 C 79.380 220.735, 80.048 220.316, 80.364 219.494 C 80.986 217.874, 79.483 217.409, 78.543 218.931 M 75 221.711 C 75 222.285, 75.787 223.373, 76.750 224.128 C 78.369 225.397, 78.390 225.350, 77.033 223.500 C 76.226 222.400, 75.439 221.313, 75.283 221.083 C 75.127 220.854, 75 221.137, 75 221.711 M 1052.872 227.664 C 1051.628 229.172, 1051.710 229.216, 1053.750 228.129 C 1056.077 226.889, 1056.650 226, 1055.122 226 C 1054.640 226, 1053.627 226.749, 1052.872 227.664 M 6 235.755 C 6 236.171, 7.688 237.036, 9.750 237.677 L 13.500 238.844 11.139 236.922 C 8.759 234.984, 6 234.358, 6 235.755 M 10.667 240.667 C 10.300 241.033, 10 241.798, 10 242.367 C 10 242.993, 10.466 242.934, 11.183 242.217 C 11.834 241.566, 12.134 240.801, 11.850 240.517 C 11.566 240.232, 11.033 240.300, 10.667 240.667 M 81.625 244.142 C 80.804 245.989, 79.183 248.924, 78.022 250.664 C 76.680 252.677, 76.292 254.062, 76.956 254.473 C 77.530 254.828, 78 254.449, 78 253.630 C 78 252.812, 78.691 251.451, 79.536 250.606 C 81.362 248.781, 84.331 241.998, 83.617 241.284 C 83.342 241.009, 82.446 242.295, 81.625 244.142 M 4.278 250.496 C 2.643 251.350, 2.351 251.951, 3.172 252.772 C 3.993 253.593, 3.722 253.740, 2.144 253.327 C 0.205 252.820, -0 253.166, -0 256.942 C -0 259.472, 0.394 260.874, 1 260.500 C 1.550 260.160, 2 259.450, 2 258.921 C 2 258.393, 3.157 256.127, 4.572 253.886 C 5.987 251.645, 6.999 249.704, 6.822 249.573 C 6.645 249.443, 5.500 249.858, 4.278 250.496 M 47.863 250.894 C 49.014 251.623, 49.014 251.829, 47.863 252.216 C 47.113 252.467, 48.218 253.242, 50.317 253.936 C 52.416 254.631, 54.404 254.929, 54.734 254.600 C 55.063 254.270, 54.471 253.993, 53.417 253.985 C 51.800 253.972, 51.735 253.810, 53 252.954 C 54.105 252.206, 53.711 252.100, 51.500 252.551 C 49.487 252.961, 48.939 252.852, 49.834 252.220 C 50.910 251.460, 50.846 251.155, 49.502 250.639 C 47.145 249.735, 46.252 249.874, 47.863 250.894 M 66.500 259.907 C 62.991 260.453, 62.796 260.614, 64.910 261.213 C 66.342 261.619, 68.371 261.325, 69.910 260.488 C 72.688 258.978, 72.582 258.960, 66.500 259.907 M 35.500 261 C 35.840 261.550, 36.879 261.993, 37.809 261.985 C 39.266 261.971, 39.293 261.835, 38 261 C 36.042 259.734, 34.718 259.734, 35.500 261 M 79.564 261.707 C 79.022 263.132, 79.136 263.247, 80.124 262.267 C 80.808 261.588, 81.115 260.781, 80.807 260.474 C 80.499 260.166, 79.940 260.721, 79.564 261.707 M 974.405 282.250 L 972.500 284.500 974.750 282.595 C 976.864 280.805, 977.455 280, 976.655 280 C 976.465 280, 975.453 281.012, 974.405 282.250 M 22.583 285.866 C 22.152 286.563, 22.070 287.403, 22.400 287.733 C 23.295 288.628, 24.271 287.312, 23.787 285.862 C 23.449 284.846, 23.213 284.846, 22.583 285.866 M 966.405 289.250 L 964.500 291.500 966.750 289.595 C 968.864 287.805, 969.455 287, 968.655 287 C 968.465 287, 967.453 288.012, 966.405 289.250 M 941.872 320.750 C 940.629 322.336, 940.664 322.371, 942.250 321.128 C 943.916 319.821, 944.445 319, 943.622 319 C 943.415 319, 942.627 319.788, 941.872 320.750 M 1054.750 321.662 C 1055.438 321.940, 1056.563 321.940, 1057.250 321.662 C 1057.938 321.385, 1057.375 321.158, 1056 321.158 C 1054.625 321.158, 1054.063 321.385, 1054.750 321.662 M 1064.750 321.706 C 1065.987 321.944, 1068.013 321.944, 1069.250 321.706 C 1070.487 321.467, 1069.475 321.272, 1067 321.272 C 1064.525 321.272, 1063.513 321.467, 1064.750 321.706 M 1039.750 322.662 C 1040.438 322.940, 1041.563 322.940, 1042.250 322.662 C 1042.938 322.385, 1042.375 322.158, 1041 322.158 C 1039.625 322.158, 1039.063 322.385, 1039.750 322.662 M 1090.813 322.683 C 1091.534 322.972, 1092.397 322.936, 1092.729 322.604 C 1093.061 322.272, 1092.471 322.036, 1091.417 322.079 C 1090.252 322.127, 1090.015 322.364, 1090.813 322.683 M 1021.813 324.683 C 1022.534 324.972, 1023.397 324.936, 1023.729 324.604 C 1024.061 324.272, 1023.471 324.036, 1022.417 324.079 C 1021.252 324.127, 1021.015 324.364, 1021.813 324.683 M 1108.750 324.662 C 1109.438 324.940, 1110.563 324.940, 1111.250 324.662 C 1111.938 324.385, 1111.375 324.158, 1110 324.158 C 1108.625 324.158, 1108.063 324.385, 1108.750 324.662 M 926.939 328.750 C 919.760 336.514, 917.643 339, 918.210 339 C 918.531 339, 921.587 335.850, 925 332 C 931.496 324.673, 932.928 322.273, 926.939 328.750 M 1014.813 325.683 C 1015.534 325.972, 1016.397 325.936, 1016.729 325.604 C 1017.061 325.272, 1016.471 325.036, 1015.417 325.079 C 1014.252 325.127, 1014.015 325.364, 1014.813 325.683 M 1115.813 325.683 C 1116.534 325.972, 1117.397 325.936, 1117.729 325.604 C 1118.061 325.272, 1117.471 325.036, 1116.417 325.079 C 1115.252 325.127, 1115.015 325.364, 1115.813 325.683 M 933.946 329.621 C 932.051 331.612, 931.400 332.694, 932.500 332.025 C 934.306 330.927, 938.593 326, 937.743 326 C 937.550 326, 935.842 327.629, 933.946 329.621 M 1008.750 326.662 C 1009.438 326.940, 1010.563 326.940, 1011.250 326.662 C 1011.938 326.385, 1011.375 326.158, 1010 326.158 C 1008.625 326.158, 1008.063 326.385, 1008.750 326.662 M 1056.797 326.745 C 1061.361 326.930, 1068.561 326.929, 1072.797 326.742 C 1077.034 326.555, 1073.300 326.404, 1064.500 326.405 C 1055.700 326.406, 1052.234 326.559, 1056.797 326.745 M 1090.750 327.706 C 1091.987 327.944, 1094.013 327.944, 1095.250 327.706 C 1096.487 327.467, 1095.475 327.272, 1093 327.272 C 1090.525 327.272, 1089.513 327.467, 1090.750 327.706 M 1126.813 327.683 C 1127.534 327.972, 1128.397 327.936, 1128.729 327.604 C 1129.061 327.272, 1128.471 327.036, 1127.417 327.079 C 1126.252 327.127, 1126.015 327.364, 1126.813 327.683 M 1104 329 C 1105.375 329.440, 1108.525 329.794, 1111 329.785 L 1115.500 329.770 1111.500 328.943 C 1109.300 328.488, 1106.150 328.134, 1104.500 328.157 C 1101.571 328.198, 1101.559 328.218, 1104 329 M 993.750 329.662 C 994.438 329.940, 995.563 329.940, 996.250 329.662 C 996.938 329.385, 996.375 329.158, 995 329.158 C 993.625 329.158, 993.063 329.385, 993.750 329.662 M 989.813 330.683 C 990.534 330.972, 991.397 330.936, 991.729 330.604 C 992.061 330.272, 991.471 330.036, 990.417 330.079 C 989.252 330.127, 989.015 330.364, 989.813 330.683 M 985.813 331.683 C 986.534 331.972, 987.397 331.936, 987.729 331.604 C 988.061 331.272, 987.471 331.036, 986.417 331.079 C 985.252 331.127, 985.015 331.364, 985.813 331.683 M 979.500 333 C 978.239 333.542, 978.055 333.859, 979 333.859 C 979.825 333.859, 981.400 333.473, 982.500 333 C 983.761 332.458, 983.945 332.141, 983 332.141 C 982.175 332.141, 980.600 332.527, 979.500 333 M 1118.999 334.095 C 1119 335.001, 1122.533 338.002, 1123.579 337.985 C 1124.085 337.976, 1123.825 337.533, 1123 337 C 1121.678 336.146, 1121.684 336.029, 1123.050 336.015 C 1123.902 336.007, 1125.080 336.480, 1125.666 337.066 C 1126.421 337.821, 1126.890 337.529, 1127.272 336.066 C 1127.570 334.930, 1127.517 333.967, 1127.156 333.928 C 1123.519 333.527, 1118.999 333.620, 1118.999 334.095 M 972.500 335 C 971.239 335.542, 971.055 335.859, 972 335.859 C 972.825 335.859, 974.400 335.473, 975.500 335 C 976.761 334.458, 976.945 334.141, 976 334.141 C 975.175 334.141, 973.600 334.527, 972.500 335 M 1118 337 C 1118 337.550, 1118.450 338, 1119 338 C 1119.550 338, 1120 337.550, 1120 337 C 1120 336.450, 1119.550 336, 1119 336 C 1118.450 336, 1118 336.450, 1118 337 M 1135 337.917 C 1135 338.421, 1135.563 339.062, 1136.250 339.341 C 1137.191 339.722, 1137.129 340.110, 1136 340.909 C 1134.740 341.800, 1134.828 341.972, 1136.550 341.985 C 1137.678 341.993, 1139.231 342.563, 1140.002 343.250 C 1141.189 344.309, 1141.207 344.239, 1140.116 342.794 C 1139.407 341.855, 1139.104 340.640, 1139.442 340.094 C 1139.780 339.547, 1139.173 338.628, 1138.094 338.050 C 1135.684 336.760, 1135 336.731, 1135 337.917 M 1143.250 338.706 C 1142.013 338.944, 1141 339.516, 1141 339.976 C 1141 341.008, 1144.826 340.091, 1145.575 338.879 C 1145.873 338.396, 1145.979 338.061, 1145.809 338.136 C 1145.639 338.211, 1144.487 338.467, 1143.250 338.706 M 948.683 343.138 C 944.384 344.822, 941.033 346.366, 941.236 346.569 C 941.593 346.927, 957.072 341.198, 957.917 340.396 C 958.962 339.403, 955.887 340.316, 948.683 343.138 M 1126 341.969 C 1126 342.501, 1125.325 342.678, 1124.500 342.362 C 1123.675 342.045, 1123 342.284, 1123 342.893 C 1123 343.502, 1123.338 343.916, 1123.750 343.814 C 1124.162 343.712, 1126.235 344.384, 1128.356 345.308 C 1130.477 346.231, 1132.615 346.738, 1133.106 346.434 C 1133.598 346.131, 1134 346.310, 1134 346.834 C 1134 347.358, 1134.762 348.079, 1135.694 348.436 C 1137.192 349.011, 1137.177 348.853, 1135.560 347.067 C 1134.555 345.956, 1133.389 345.259, 1132.970 345.519 C 1132.550 345.778, 1130.813 345.404, 1129.110 344.688 C 1126.712 343.680, 1126.283 343.117, 1127.207 342.193 C 1128.131 341.269, 1128.130 341, 1127.200 341 C 1126.540 341, 1126 341.436, 1126 341.969 M 1186 345 C 1186.825 345.533, 1187.950 345.969, 1188.500 345.969 C 1189.050 345.969, 1188.825 345.533, 1188 345 C 1187.175 344.467, 1186.050 344.031, 1185.500 344.031 C 1184.950 344.031, 1185.175 344.467, 1186 345 M 931 346.500 C 929.625 347.286, 928.950 347.929, 929.500 347.929 C 930.050 347.929, 931.625 347.286, 933 346.500 C 934.375 345.714, 935.050 345.071, 934.500 345.071 C 933.950 345.071, 932.375 345.714, 931 346.500 M 1124.500 347 C 1124.160 347.550, 1124.332 348, 1124.882 348 C 1125.432 348, 1126.160 347.550, 1126.500 347 C 1126.840 346.450, 1126.668 346, 1126.118 346 C 1125.568 346, 1124.840 346.450, 1124.500 347 M 1177.783 347.235 C 1179.470 348.048, 1180.369 348.031, 1181.233 347.167 C 1182.122 346.278, 1181.580 346.016, 1178.950 346.068 C 1175.710 346.131, 1175.639 346.202, 1177.783 347.235 M 923.478 354.440 C 915.240 358.532, 907.600 362.620, 906.500 363.524 C 905.400 364.429, 907.644 363.474, 911.487 361.403 C 915.330 359.332, 923.430 355.269, 929.487 352.375 C 935.544 349.480, 940.040 347.087, 939.478 347.056 C 938.915 347.025, 931.715 350.348, 923.478 354.440 M 1111 349.068 C 1109.625 349.471, 1109.063 349.845, 1109.750 349.900 C 1110.438 349.955, 1111.014 350.788, 1111.032 351.750 C 1111.061 353.371, 1111.167 353.364, 1112.465 351.650 C 1113.236 350.632, 1114.347 350.096, 1114.933 350.459 C 1115.520 350.821, 1116 350.690, 1116 350.166 C 1116 348.730, 1113.801 348.247, 1111 349.068 M 1117.500 350 C 1117.840 350.550, 1118.316 351, 1118.559 351 C 1118.802 351, 1119 350.550, 1119 350 C 1119 349.450, 1118.523 349, 1117.941 349 C 1117.359 349, 1117.160 349.450, 1117.500 350 M 7.388 352.531 C 6.475 353.923, 5.926 355.260, 6.167 355.500 C 6.408 355.741, 7.394 354.602, 8.359 352.969 C 10.495 349.354, 9.703 348.997, 7.388 352.531 M 1120 351 C 1120 351.550, 1120.477 352, 1121.059 352 C 1121.641 352, 1121.840 351.550, 1121.500 351 C 1121.160 350.450, 1120.684 350, 1120.441 350 C 1120.198 350, 1120 350.450, 1120 351 M 1188.500 350.817 C 1189.050 351.390, 1190.850 352.144, 1192.500 352.492 C 1194.572 352.930, 1195.036 352.835, 1194 352.184 C 1191.568 350.656, 1187.336 349.604, 1188.500 350.817 M 1108.605 353.586 C 1108.235 354.552, 1108.455 355.663, 1109.094 356.058 C 1109.780 356.482, 1109.920 357.335, 1109.436 358.138 C 1108.776 359.235, 1108.908 359.264, 1110.112 358.290 C 1110.935 357.625, 1112.708 356.601, 1114.054 356.014 C 1116.303 355.033, 1116.234 354.988, 1113.200 355.458 C 1111.385 355.740, 1110.118 355.618, 1110.384 355.187 C 1110.650 354.757, 1110.510 353.826, 1110.073 353.118 C 1109.467 352.138, 1109.118 352.249, 1108.605 353.586 M 909.750 357.068 C 907.688 358.157, 906 359.271, 906 359.544 C 906 359.817, 907.800 359.122, 910 358 C 912.200 356.878, 914 355.743, 914 355.480 C 914 354.826, 913.993 354.828, 909.750 357.068 M 1119.271 358.092 C 1120.245 358.659, 1120.810 359.498, 1120.527 359.957 C 1120.243 360.415, 1120.664 361.041, 1121.462 361.347 C 1122.663 361.808, 1122.720 361.480, 1121.796 359.452 C 1121.182 358.103, 1119.964 357.014, 1119.089 357.030 C 1117.748 357.056, 1117.777 357.222, 1119.271 358.092 M 1112 359 C 1112 359.550, 1112.477 360, 1113.059 360 C 1113.641 360, 1113.840 359.550, 1113.500 359 C 1113.160 358.450, 1112.684 358, 1112.441 358 C 1112.198 358, 1112 358.450, 1112 359 M 1140.603 358.833 C 1140.320 359.292, 1140.743 359.667, 1141.544 359.667 C 1142.345 359.667, 1143 359.292, 1143 358.833 C 1143 358.375, 1142.577 358, 1142.059 358 C 1141.541 358, 1140.886 358.375, 1140.603 358.833 M 1116 360.059 C 1116 360.641, 1116.450 360.840, 1117 360.500 C 1117.550 360.160, 1118 359.684, 1118 359.441 C 1118 359.198, 1117.550 359, 1117 359 C 1116.450 359, 1116 359.477, 1116 360.059 M 899.250 363.105 C 896.362 364.788, 894 366.396, 894 366.678 C 894 367.233, 902.893 362.288, 904.450 360.867 C 906.145 359.320, 904.605 359.983, 899.250 363.105 M 1108 363.393 C 1108 363.609, 1108.675 364.045, 1109.500 364.362 C 1110.325 364.678, 1111 364.501, 1111 363.969 C 1111 363.436, 1110.325 363, 1109.500 363 C 1108.675 363, 1108 363.177, 1108 363.393 M 1144 363.544 C 1144 363.660, 1144.600 364.253, 1145.333 364.862 C 1146.330 365.689, 1146.667 365.635, 1146.667 364.651 C 1146.667 363.926, 1146.067 363.333, 1145.333 363.333 C 1144.600 363.333, 1144 363.428, 1144 363.544 M 899.250 367.566 C 896.913 368.967, 895 370.350, 895 370.638 C 895 371.177, 901.747 367.346, 903.450 365.840 C 905.169 364.320, 903.568 364.978, 899.250 367.566 M 1140.333 367.456 C 1140.333 368.257, 1140.716 368.676, 1141.183 368.387 C 1141.650 368.098, 1141.774 367.443, 1141.457 366.931 C 1140.649 365.623, 1140.333 365.770, 1140.333 367.456 M 880.802 374.838 C 868.614 383.074, 853.373 394.641, 851.097 397.383 C 849.099 399.790, 851.382 399.341, 853.595 396.891 C 856.419 393.764, 870.127 383.253, 881.500 375.493 C 891.782 368.477, 893.765 367, 892.901 367 C 892.626 367, 887.182 370.527, 880.802 374.838 M 1128.738 367.614 C 1128.101 368.646, 1129.580 371.784, 1130.320 370.971 C 1130.556 370.712, 1130.433 369.630, 1130.047 368.566 C 1129.661 367.503, 1129.072 367.074, 1128.738 367.614 M 884.991 376.675 C 874.382 383.765, 855.746 398.080, 856.345 398.679 C 856.591 398.925, 860.327 396.273, 864.646 392.786 C 868.966 389.299, 877 383.347, 882.500 379.559 C 892.708 372.528, 894.751 371, 893.941 371 C 893.689 371, 889.661 373.554, 884.991 376.675 M 1115.146 379.010 L 1114.097 382.020 1116.423 380.266 C 1117.703 379.300, 1118.533 377.946, 1118.268 377.255 C 1117.463 375.158, 1116.252 375.839, 1115.146 379.010 M 1083 378.455 C 1083 379.227, 1085.976 379.847, 1086.399 379.164 C 1086.653 378.752, 1085.993 378.350, 1084.931 378.270 C 1083.869 378.190, 1083 378.273, 1083 378.455 M 1127.079 379.583 C 1127.127 380.748, 1127.364 380.985, 1127.683 380.188 C 1127.972 379.466, 1127.936 378.603, 1127.604 378.271 C 1127.272 377.939, 1127.036 378.529, 1127.079 379.583 M 1130.566 379.953 C 1129.503 380.339, 1129.074 380.928, 1129.614 381.262 C 1130.646 381.899, 1133.784 380.420, 1132.971 379.680 C 1132.712 379.444, 1131.630 379.567, 1130.566 379.953 M 1080 381.393 C 1080 381.609, 1080.675 382.045, 1081.500 382.362 C 1082.325 382.678, 1083 382.501, 1083 381.969 C 1083 381.436, 1082.325 381, 1081.500 381 C 1080.675 381, 1080 381.177, 1080 381.393 M 1104 382.091 C 1102.871 382.890, 1102.809 383.278, 1103.750 383.659 C 1104.438 383.938, 1105 384.530, 1105 384.975 C 1105 385.945, 1100.091 387.429, 1098.054 387.074 C 1096.917 386.876, 1096.858 387.124, 1097.780 388.235 C 1098.510 389.115, 1098.599 390.001, 1098.014 390.586 C 1097.430 391.170, 1098.140 391.568, 1099.897 391.640 C 1102.176 391.733, 1102.698 391.346, 1102.610 389.627 C 1102.540 388.274, 1103.071 387.540, 1104.068 387.609 C 1105.213 387.688, 1105.621 386.810, 1105.580 384.359 C 1105.548 382.511, 1105.517 381.007, 1105.511 381.015 C 1105.505 381.024, 1104.825 381.508, 1104 382.091 M 1123.079 383.583 C 1123.127 384.748, 1123.364 384.985, 1123.683 384.188 C 1123.972 383.466, 1123.936 382.603, 1123.604 382.271 C 1123.272 381.939, 1123.036 382.529, 1123.079 383.583 M 883.807 384.750 C 882.980 385.712, 881.996 387.400, 881.619 388.500 C 881.143 389.891, 881.695 389.587, 883.431 387.500 C 885.692 384.784, 886.573 383, 885.655 383 C 885.465 383, 884.634 383.788, 883.807 384.750 M 1080 383.882 C 1080 384.432, 1080.450 385.160, 1081 385.500 C 1081.550 385.840, 1082 385.668, 1082 385.118 C 1082 384.568, 1081.550 383.840, 1081 383.500 C 1080.450 383.160, 1080 383.332, 1080 383.882 M 1090 384.559 C 1090 385.416, 1090.457 385.835, 1091.016 385.490 C 1091.575 385.144, 1091.774 384.443, 1091.457 383.931 C 1090.600 382.544, 1090 382.802, 1090 384.559 M 1095.015 385.750 C 1095.027 387.134, 1095.213 387.212, 1095.904 386.122 C 1096.412 385.319, 1097.305 385.070, 1098.043 385.526 C 1098.867 386.036, 1099.060 385.906, 1098.595 385.155 C 1097.495 383.374, 1094.998 383.789, 1095.015 385.750 M 1119.603 386.167 C 1119.886 386.625, 1120.541 387, 1121.059 387 C 1121.577 387, 1122 386.625, 1122 386.167 C 1122 385.708, 1121.345 385.333, 1120.544 385.333 C 1119.743 385.333, 1119.320 385.708, 1119.603 386.167 M 1081.800 388.200 C 1082.733 389.133, 1083.267 389.133, 1084.200 388.200 C 1085.133 387.267, 1084.867 387, 1083 387 C 1081.133 387, 1080.867 387.267, 1081.800 388.200 M 1099 395.059 C 1099 395.641, 1099.450 395.840, 1100 395.500 C 1100.550 395.160, 1101 394.684, 1101 394.441 C 1101 394.198, 1100.550 394, 1100 394 C 1099.450 394, 1099 394.477, 1099 395.059 M 1057.895 395.914 C 1059.016 396.624, 1058.918 396.893, 1057.395 397.283 C 1055.659 397.727, 1055.652 397.778, 1057.309 397.884 C 1058.304 397.948, 1058.840 398.450, 1058.500 399 C 1058.160 399.550, 1058.610 400, 1059.500 400 C 1060.390 400, 1060.840 399.550, 1060.500 399 C 1060.160 398.450, 1060.391 398, 1061.012 398 C 1061.689 398, 1061.540 397.397, 1060.643 396.500 C 1059.818 395.675, 1058.548 395.007, 1057.821 395.015 C 1056.780 395.027, 1056.796 395.218, 1057.895 395.914 M 1065.500 396 C 1065.840 396.550, 1066.316 397, 1066.559 397 C 1066.802 397, 1067 396.550, 1067 396 C 1067 395.450, 1066.523 395, 1065.941 395 C 1065.359 395, 1065.160 395.450, 1065.500 396 M 1070.333 396.456 C 1070.333 397.257, 1070.708 397.680, 1071.167 397.397 C 1071.625 397.114, 1072 396.459, 1072 395.941 C 1072 395.423, 1071.625 395, 1071.167 395 C 1070.708 395, 1070.333 395.655, 1070.333 396.456 M 1078 395.921 C 1078 396.427, 1076.650 397.138, 1075 397.500 C 1070.685 398.448, 1071.306 400, 1076 400 C 1078.200 400, 1080 399.564, 1080 399.031 C 1080 398.499, 1079.213 398.310, 1078.250 398.613 C 1076.583 399.137, 1076.583 399.095, 1078.250 397.721 C 1080.204 396.111, 1080.510 395, 1079 395 C 1078.450 395, 1078 395.414, 1078 395.921 M 1084.750 396.662 C 1085.438 396.940, 1086 397.539, 1086 397.995 C 1086 398.922, 1084.068 398.799, 1082.417 397.766 C 1081.821 397.393, 1081.333 397.743, 1081.333 398.544 C 1081.333 399.476, 1082.353 400, 1084.167 400 C 1086.333 400, 1087 399.529, 1087 398 C 1087 396.732, 1086.360 396.029, 1085.250 396.079 C 1084.205 396.126, 1084.003 396.361, 1084.750 396.662 M 1047 398.804 C 1047 399.247, 1048.839 399.718, 1051.087 399.850 C 1053.728 400.006, 1054.946 399.721, 1054.528 399.046 C 1053.776 397.828, 1047 397.611, 1047 398.804 M 1064.450 399.131 C 1062.870 399.778, 1063.014 399.880, 1065.212 399.669 C 1066.704 399.526, 1068.166 399.167, 1068.462 398.871 C 1069.276 398.058, 1066.660 398.227, 1064.450 399.131 M 1088 399 C 1088 399.550, 1088.900 400, 1090 400 C 1091.100 400, 1092 399.550, 1092 399 C 1092 398.450, 1091.100 398, 1090 398 C 1088.900 398, 1088 398.450, 1088 399" stroke="none" fill="#ece7e4" fill-rule="evenodd"/>
</svg>