<svg xmlns="http://www.w3.org/2000/svg" width="960" height="320" viewBox="0 0 960 320" version="1.1">
	<rect x="0" y="0" width="100%" height="100%" fill="#f3f0ee" />
	<path d="M 18.176 2.250 C 17.546 3.488, 16.265 5.625, 15.329 7 C 14.392 8.375, 15.285 7.700, 17.313 5.500 C 20.977 1.524, 21.766 0, 20.161 -0 C 19.699 -0, 18.806 1.012, 18.176 2.250 M 29.396 2.817 C 28.091 4.824, 28.033 5.187, 29.167 4.259 C 30.002 3.576, 30.908 3.241, 31.181 3.515 C 31.455 3.788, 32.410 3.204, 33.304 2.216 C 34.813 0.549, 34.794 0.410, 33.036 0.278 C 31.974 0.198, 30.374 1.314, 29.396 2.817 M 39.338 2.250 C 36.099 5.875, 32.816 10.965, 33.172 11.813 C 33.352 12.244, 35.648 9.763, 38.274 6.299 C 42.836 0.280, 43.559 -2.474, 39.338 2.250 M 42.494 8.750 C 33.956 18.386, 25.969 29.946, 10.398 55.212 L 0.099 71.923 0.087 81.962 C 0.080 87.483, 0.271 92, 0.512 92 C 0.752 92, 2.729 88.431, 4.906 84.068 C 11.493 70.867, 17.755 60.201, 30.192 41 C 32.152 37.975, 34.597 33.323, 35.627 30.663 C 37.543 25.716, 41.102 21, 42.921 21 C 43.480 21, 43.704 21.788, 43.420 22.750 C 43.136 23.712, 45.601 19.100, 48.899 12.500 C 52.197 5.900, 54.919 0.388, 54.948 0.250 C 54.976 0.112, 53.931 0, 52.624 0 C 50.895 0, 48.138 2.381, 42.494 8.750 M 115.706 6.345 C 119.663 10.575, 122.407 14.659, 123.938 18.595 C 127.384 27.458, 135.389 43.880, 136.295 43.944 C 137.521 44.030, 133.772 24.632, 131.813 20.750 C 131.245 19.625, 131.311 19, 131.996 19 C 132.583 19, 133.347 19.788, 133.694 20.750 C 134.041 21.712, 135.106 23.629, 136.059 25.009 C 137.013 26.389, 138.311 29.440, 138.943 31.789 C 139.576 34.138, 140.489 35.816, 140.973 35.517 C 141.457 35.218, 142.120 37.567, 142.448 40.736 C 142.775 43.906, 143.490 49.556, 144.038 53.292 C 145.879 65.862, 141.930 75.381, 120.291 110.529 C 113.190 122.063, 103.202 138.363, 98.096 146.750 C 92.990 155.137, 88.593 162, 88.325 162 C 88.056 162, 88.825 160.401, 90.033 158.447 C 91.240 156.493, 91.979 154.646, 91.675 154.342 C 91.059 153.725, 85.304 162.505, 76.622 177.303 L 70.872 187.107 68.766 184.303 C 67.608 182.762, 65.499 180.193, 64.080 178.595 C 62.661 176.998, 62.015 175.983, 62.645 176.340 C 63.275 176.696, 64.056 176.298, 64.380 175.453 C 64.845 174.239, 64.606 174.125, 63.234 174.905 C 61.831 175.704, 60.377 174.807, 55.609 170.196 C 52.073 166.777, 49.974 165.299, 50.358 166.500 C 50.848 168.031, 50.461 167.855, 48.711 165.750 C 47.454 164.237, 45.934 163, 45.335 163 C 44.735 163, 43.685 162.325, 43 161.500 C 41.715 159.952, 42.838 159.422, 44.590 160.750 C 45.134 161.162, 44.212 160.219, 42.540 158.652 C 39.646 155.942, 31.519 149.743, 11.500 134.976 C 0.920 127.172, -0 126.595, 0 127.772 C 0 128.262, 1.122 129.263, 2.493 129.996 C 3.865 130.730, 5.689 132.402, 6.547 133.712 L 8.107 136.092 4.053 133.534 C 1.824 132.126, -0 131.400, 0 131.919 C 0 133.605, 5.756 137.015, 8.160 136.754 C 9.665 136.591, 10.402 136.972, 10.225 137.824 C 10.074 138.553, 10.425 138.855, 11.005 138.497 C 11.586 138.138, 15.534 140.353, 19.780 143.419 C 26.306 148.131, 35.348 155.360, 31.273 152.607 C 30.546 152.117, 29.699 151.968, 29.390 152.276 C 28.419 153.248, 33.077 155.184, 34.798 154.524 C 35.700 154.178, 36.109 154.224, 35.706 154.628 C 35.302 155.031, 36.187 156.630, 37.673 158.181 C 40.096 160.709, 39.913 162.147, 37.410 160.250 C 36.866 159.838, 38.688 161.600, 41.460 164.166 C 45.411 167.824, 46.431 169.390, 46.178 171.416 C 46.002 172.837, 46.339 174, 46.928 174 C 47.518 174, 48.018 173.213, 48.041 172.250 C 48.070 170.997, 49.181 171.714, 51.946 174.772 L 55.811 179.044 53.422 183.272 C 52.108 185.597, 50.619 188.428, 50.113 189.562 C 48.857 192.376, 42.049 198.230, 40.641 197.706 C 40.013 197.473, 37.700 196.715, 35.500 196.021 C 28.687 193.872, 19.220 189.081, 9.697 182.964 C 4.675 179.739, 0.357 177.310, 0.100 177.567 C -0.157 177.823, 0.053 178.435, 0.567 178.927 C 2.042 180.340, 19.797 191.054, 27.500 195.180 C 33.403 198.342, 33.983 198.867, 31.198 198.531 C 27.357 198.067, 19.992 194.071, 8.898 186.430 C 0.677 180.768, -0 180.422, 0 181.896 C 0 182.388, 2.250 184.235, 5 186 C 10.018 189.220, 11.816 191.042, 7.914 188.954 C 6.767 188.340, 5.604 188.063, 5.329 188.338 C 4.536 189.131, 8.935 191.158, 10.008 190.495 C 10.540 190.166, 14.018 191.670, 17.738 193.837 C 21.457 196.003, 28.100 199.661, 32.500 201.964 C 36.900 204.268, 39.487 205.863, 38.250 205.509 C 37.013 205.155, 36 205.114, 36 205.418 C 36 205.722, 38.137 206.518, 40.750 207.186 L 45.500 208.400 41.230 209.263 C 38.881 209.738, 37.197 210.510, 37.487 210.979 C 37.777 211.448, 35.833 215.132, 33.167 219.166 C 30.501 223.200, 27.742 227.625, 27.035 229 C 26.328 230.375, 24.935 232.400, 23.938 233.500 C 22.942 234.600, 21.904 236.730, 21.633 238.234 C 20.993 241.769, 20.196 243, 18.546 243 C 16.387 243, 16.177 235.504, 18.218 231.307 C 21.518 224.522, 19.181 226.765, 14.985 234.409 C 12.694 238.584, 10.436 242, 9.969 242 C 8.172 242, 8.207 240.254, 10.086 236.057 C 11.158 233.662, 11.798 231.464, 11.507 231.174 C 11.216 230.883, 10.258 232.479, 9.378 234.720 C 8.143 237.863, 7.117 238.927, 4.889 239.372 C 1.603 240.029, 0.956 242, 4.026 242 C 5.955 242, 5.977 242.143, 4.500 245 C 3.647 246.650, 3.194 248, 3.495 248 C 3.795 248, 3.105 249.834, 1.962 252.075 C 0.819 254.316, 0.029 256.588, 0.208 257.124 C 0.386 257.659, 1.797 255.601, 3.342 252.549 C 5.999 247.301, 8 245.462, 8 248.266 C 8 248.962, 6.185 252.638, 3.967 256.433 L -0.066 263.335 0.217 273.418 L 0.500 283.500 3.244 279.279 C 4.753 276.958, 6.553 275.196, 7.244 275.365 C 7.935 275.534, 8.163 275.483, 7.750 275.253 C 6.345 274.467, 6.997 272.919, 11.032 267.457 C 15.665 261.186, 17.133 260.236, 13.670 265.750 C 10.378 270.992, 8.839 274, 9.449 274 C 9.735 274, 11.816 271.075, 14.074 267.500 C 16.332 263.925, 18.493 261, 18.877 261 C 19.260 261, 19.648 259.988, 19.738 258.750 C 19.902 256.511, 19.892 256.513, 17.833 259 L 15.763 261.500 17.587 258.500 C 24.191 247.639, 25.861 244.997, 28.804 240.750 C 30.615 238.137, 32.311 236, 32.574 236 C 33.473 236, 29.828 242.234, 24.846 249.216 C 22.106 253.056, 20.050 256.384, 20.278 256.611 C 21.436 257.769, 38.420 230.488, 37.484 228.973 C 37.200 228.514, 37.494 227.813, 38.138 227.415 C 38.929 226.926, 39.049 227.147, 38.508 228.095 C 37.901 229.160, 38.001 229.229, 38.923 228.381 C 39.591 227.765, 40.235 226.605, 40.353 225.804 C 40.470 225.002, 42.484 221.118, 44.828 217.173 C 47.798 212.174, 49.682 210, 51.045 210 C 52.120 210, 53 210.196, 53 210.435 C 53 211.041, 34.044 241.504, 26.513 253 C 18.981 264.497, 14.933 270.831, 13.411 273.500 C 9.946 279.576, 4.913 287.757, 3.566 289.500 L 2.022 291.500 2.605 289.500 C 3.064 287.928, 2.969 287.811, 2.160 288.952 C 1.595 289.751, 1.366 290.783, 1.652 291.246 C 1.938 291.709, 1.651 292.716, 1.014 293.483 C 0.377 294.251, 0.001 296.144, 0.178 297.690 C 0.505 300.540, 0.989 299.796, 21.674 264.705 C 23.228 262.068, 27.176 255.768, 30.447 250.705 C 36.672 241.068, 53.142 214.184, 54.671 211.163 C 54.765 210.977, 56.426 210.468, 58.363 210.031 L 61.885 209.237 60.071 211.868 C 59.074 213.316, 54.973 220.125, 50.958 227 C 46.943 233.875, 36.391 251.200, 27.509 265.500 C 4.002 303.348, -0.197 310.620, 0.171 312.844 C 0.392 314.180, 3.597 309.508, 9.897 298.668 C 18.133 284.498, 41.046 246.908, 47.487 237 C 55.846 224.141, 59 218.994, 59 218.214 C 59 217.723, 60.757 215.696, 62.904 213.709 C 66.696 210.200, 66.782 209.975, 65.864 205.889 C 65.231 203.074, 65.263 201.337, 65.959 200.641 C 66.532 200.068, 66.986 198.678, 66.970 197.550 C 66.939 195.519, 66.929 195.518, 65.787 197.488 C 65.153 198.582, 63.769 200.382, 62.712 201.488 C 61.395 202.866, 61.686 201.874, 63.639 198.336 C 65.340 195.252, 66.771 193.629, 67.190 194.308 C 67.656 195.061, 68.127 194.833, 68.588 193.631 C 69.281 191.825, 67.593 187.653, 64.379 183.229 C 62.889 181.179, 62.884 181.018, 64.335 181.575 C 67.677 182.858, 73.052 198.468, 69.904 197.750 C 69.301 197.613, 68.424 198.490, 67.955 199.699 C 67.288 201.418, 67.417 201.777, 68.545 201.344 C 69.339 201.040, 69.765 200.430, 69.493 199.988 C 69.220 199.547, 69.847 199.409, 70.886 199.680 C 72.984 200.229, 74.183 198.840, 74.558 195.425 C 74.695 194.179, 78.291 186.935, 82.550 179.329 C 86.809 171.723, 92.099 162.125, 94.307 158 C 96.514 153.875, 102.006 144.425, 106.512 137 C 124.485 107.381, 134.396 91.301, 137.145 87.298 C 142.605 79.345, 146.025 68.818, 147.554 55.250 C 147.941 51.812, 148.650 49, 149.129 49 C 150.555 49, 150.118 36.878, 148.461 30.460 C 146.312 22.134, 142.107 13.580, 136.560 6.250 L 131.830 0 120.801 0 L 109.771 0 115.706 6.345 M 853.083 0.383 C 856.786 3.789, 879.617 17.560, 893.500 24.763 C 903.400 29.899, 910.375 33.772, 909 33.369 C 907.625 32.966, 905.746 32.621, 904.823 32.604 C 903.901 32.586, 903.342 32.255, 903.581 31.869 C 904.285 30.730, 886.048 22.055, 884.194 22.647 C 882.749 23.109, 882.720 23.030, 884 22.110 C 884.825 21.516, 885.024 21.024, 884.441 21.015 C 883.859 21.007, 880.802 19.446, 877.649 17.548 C 874.496 15.649, 871.372 14.225, 870.708 14.384 C 870.044 14.542, 869.872 14.472, 870.327 14.227 C 870.782 13.982, 868.251 11.835, 864.703 9.455 C 859.488 5.956, 857.557 5.192, 854.626 5.464 C 852.632 5.649, 851 5.396, 851 4.900 C 851 4.405, 850.550 4, 850 4 C 849.450 4, 849.053 4.337, 849.118 4.750 C 849.408 6.583, 848.920 8, 848 8 C 847.450 8, 847.053 7.662, 847.118 7.250 C 847.184 6.838, 847.184 5.626, 847.118 4.559 C 847.013 2.829, 846.864 2.789, 845.750 4.194 C 845.063 5.061, 843.825 6.011, 843 6.306 C 842.070 6.638, 842.401 6.872, 843.872 6.921 C 845.904 6.989, 846.059 7.224, 844.953 8.556 C 843.888 9.839, 843.904 10.059, 845.044 9.806 C 845.805 9.638, 846.887 10.512, 847.451 11.750 C 848.405 13.848, 848.779 14.096, 850.750 13.941 C 851.163 13.909, 851.725 14.835, 852 16 C 852.547 18.317, 854.212 18.863, 854.855 16.936 C 855.085 16.245, 854.777 16.020, 854.141 16.413 C 853.429 16.853, 853.239 16.540, 853.618 15.552 C 854.467 13.341, 855.671 13.633, 856.346 16.214 C 856.668 17.448, 856.388 18.805, 855.712 19.280 C 854.997 19.782, 855.485 19.852, 856.901 19.450 C 858.870 18.892, 859.187 19.069, 858.663 20.437 C 858.311 21.354, 858.437 21.848, 858.943 21.535 C 859.449 21.222, 860.565 21.968, 861.422 23.193 C 862.686 24.997, 863.220 25.176, 864.241 24.138 C 865.254 23.107, 865.232 22.920, 864.125 23.179 C 863.369 23.355, 862.520 22.866, 862.239 22.091 C 861.870 21.074, 862.230 20.874, 863.534 21.375 C 864.597 21.782, 865.694 21.539, 866.200 20.784 C 866.728 19.996, 866.824 20.521, 866.449 22.141 C 866.072 23.772, 866.316 25.077, 867.089 25.555 C 867.967 26.098, 868.150 25.833, 867.702 24.665 C 867.351 23.751, 867.509 21.989, 868.053 20.751 C 868.985 18.632, 869.021 18.660, 868.665 21.225 C 868.421 22.981, 868.947 24.547, 870.143 25.630 C 871.165 26.554, 872 27.879, 872 28.576 C 872 29.272, 873.354 30.138, 875.009 30.502 C 876.664 30.865, 877.757 31.583, 877.440 32.098 C 877.122 32.612, 876.518 32.820, 876.098 32.560 C 875.677 32.301, 875.333 32.724, 875.333 33.501 C 875.333 34.278, 875.928 35.142, 876.655 35.421 C 877.381 35.700, 877.869 35.408, 877.738 34.773 C 877.607 34.138, 878.341 33.436, 879.368 33.213 C 880.420 32.985, 880.971 33.238, 880.629 33.791 C 880.295 34.331, 880.720 35.353, 881.574 36.061 C 882.929 37.186, 883.041 37.011, 882.454 34.675 C 882.014 32.919, 882.184 32, 882.951 32 C 883.593 32, 883.865 32.409, 883.556 32.910 C 882.701 34.293, 884.038 37, 885.576 37 C 886.358 37, 886.699 37.621, 886.378 38.458 C 885.844 39.848, 889.244 41.450, 891.564 40.903 C 892.867 40.596, 896 42.054, 896 42.968 C 896 43.383, 894.808 43.495, 893.351 43.216 C 891.523 42.867, 890.922 43.065, 891.410 43.855 C 891.800 44.485, 893.018 45, 894.118 45 C 895.375 45, 895.853 45.429, 895.405 46.155 C 894.988 46.829, 895.128 47.039, 895.741 46.660 C 896.318 46.303, 897.048 46.684, 897.364 47.506 C 898.015 49.201, 901 49.559, 901 47.941 C 901 47.359, 900.610 47.123, 900.134 47.417 C 899.657 47.712, 898.503 47.108, 897.569 46.076 C 894.654 42.855, 897.626 42.780, 900.839 45.993 C 902.493 47.647, 903.356 49, 902.756 49 C 902.157 49, 901.960 49.293, 902.318 49.651 C 902.676 50.009, 902.188 50.910, 901.234 51.654 C 899.622 52.910, 899.636 52.957, 901.424 52.329 C 903.006 51.773, 903.218 51.989, 902.621 53.546 C 902.221 54.587, 902.202 55.131, 902.579 54.755 C 902.955 54.379, 904.155 54.696, 905.246 55.460 C 906.337 56.224, 907.915 56.586, 908.752 56.265 C 909.965 55.799, 910.181 56.311, 909.818 58.788 C 909.567 60.496, 909.730 61.667, 910.181 61.388 C 910.631 61.110, 911 61.374, 911 61.976 C 911 62.748, 911.570 62.765, 912.934 62.035 C 913.998 61.466, 915.673 61, 916.657 61 C 918.183 61, 918.117 61.230, 916.206 62.568 C 914.974 63.431, 914.239 64.578, 914.572 65.117 C 914.954 65.735, 915.694 65.669, 916.577 64.936 C 917.668 64.031, 918.112 64.129, 918.593 65.382 C 918.932 66.265, 919.561 66.771, 919.991 66.505 C 920.422 66.239, 921.387 66.778, 922.137 67.703 C 923.309 69.148, 923.290 69.266, 922 68.545 C 920.875 67.916, 920.773 68.003, 921.591 68.894 C 922.359 69.731, 923.850 69.819, 926.637 69.193 C 931.899 68.010, 935.300 68.340, 935.769 70.079 C 936.001 70.938, 935.826 71.105, 935.326 70.500 C 934.119 69.039, 931.333 69.069, 931.333 70.544 C 931.333 71.240, 931.933 71.579, 932.667 71.298 C 933.400 71.016, 934 71.206, 934 71.720 C 934 72.233, 935.287 72.465, 936.859 72.234 C 939.189 71.892, 939.831 72.246, 940.327 74.142 C 940.927 76.436, 940.957 76.441, 942.430 74.485 C 943.895 72.539, 943.916 72.544, 943.519 74.750 C 943.247 76.264, 943.606 77, 944.616 77 C 945.497 77, 945.823 76.522, 945.405 75.845 C 944.949 75.108, 945.132 74.963, 945.911 75.445 C 946.834 76.015, 946.738 76.632, 945.515 77.984 C 944.005 79.652, 944.094 79.837, 946.864 80.803 C 948.495 81.371, 950.154 81.536, 950.550 81.168 C 950.947 80.801, 950.771 81.463, 950.159 82.640 C 949.228 84.433, 949.354 84.859, 950.940 85.274 C 951.980 85.546, 953.385 85.258, 954.062 84.634 C 955.004 83.766, 955.103 83.833, 954.483 84.920 C 953.892 85.955, 954.096 86.177, 955.238 85.739 C 957.446 84.892, 958.112 85.922, 956.865 88.252 C 956.037 89.799, 956.083 90.067, 957.070 89.457 C 957.970 88.901, 958.154 89.157, 957.701 90.336 C 957.296 91.391, 957.566 92, 958.439 92 C 959.528 92, 959.866 89.135, 960.060 78.250 C 960.279 65.997, 960.287 50.483, 960.077 47.361 C 960.035 46.735, 958.313 45.923, 956.250 45.556 C 954.188 45.190, 948.675 43.761, 944 42.382 C 917.627 34.600, 890.269 21.658, 866.793 5.859 C 861.500 2.297, 857.023 -0, 855.376 -0 C 853.886 -0, 852.854 0.172, 853.083 0.383 M 902 1.607 C 902 2.599, 902.554 3.001, 903.449 2.658 C 904.449 2.274, 904.714 2.582, 904.303 3.652 C 903.976 4.504, 904.337 5.600, 905.104 6.086 C 906.984 7.276, 908.260 7.230, 907.500 6 C 907.160 5.450, 907.310 5, 907.834 5 C 908.358 5, 909.054 5.698, 909.382 6.552 C 909.709 7.406, 909.571 7.853, 909.074 7.546 C 907.989 6.875, 907.111 9, 907.752 10.744 C 908.004 11.429, 908.682 11.697, 909.259 11.340 C 909.844 10.978, 910.015 11.167, 909.645 11.765 C 909.280 12.356, 909.661 13.518, 910.491 14.348 C 911.321 15.178, 912 16.612, 912 17.536 C 912 18.617, 912.534 19.009, 913.500 18.638 C 914.479 18.263, 915 18.667, 915 19.804 C 915 20.800, 916.606 22.388, 918.750 23.513 C 920.813 24.595, 922.750 25.820, 923.056 26.236 C 923.362 26.651, 924.774 27.086, 926.194 27.204 C 928.006 27.354, 928.609 27.855, 928.215 28.882 C 927.812 29.932, 928.127 30.165, 929.326 29.705 C 930.247 29.352, 931 29.518, 931 30.075 C 931 30.632, 931.563 30.960, 932.250 30.804 C 932.938 30.648, 935.092 31.505, 937.038 32.710 C 940.043 34.571, 958.752 39.622, 959.531 38.782 C 960.063 38.209, 960.324 28.106, 960.164 14.250 L 960 0 931 0 C 905.031 0, 902 0.168, 902 1.607 M 853 2.465 C 853 2.720, 854.013 3.469, 855.250 4.129 C 857.290 5.216, 857.372 5.172, 856.128 3.664 C 854.850 2.115, 853 1.406, 853 2.465 M 126 4.378 C 126 4.585, 126.787 5.373, 127.750 6.128 C 129.336 7.371, 129.371 7.336, 128.128 5.750 C 126.821 4.084, 126 3.555, 126 4.378 M 7.132 19.300 C 3.759 24.414, 1.009 29.252, 1.021 30.050 C 1.041 31.457, 5.784 24.434, 11.353 14.750 C 15.745 7.112, 13.752 9.260, 7.132 19.300 M 844.250 10.720 C 843.563 10.966, 843 11.539, 843 11.995 C 843 13.035, 845.383 12.741, 845.833 11.645 C 846.294 10.523, 845.728 10.192, 844.250 10.720 M 16.833 23.984 C 12.941 30.025, 9.366 34.726, 8.889 34.432 C 8.413 34.137, 8.298 34.613, 8.634 35.489 C 9.013 36.477, 8.770 36.971, 7.994 36.791 C 7.296 36.629, 6.646 37.569, 6.526 38.915 C 6.407 40.244, 5.263 42.178, 3.985 43.214 C 2.706 44.249, 1.535 46.266, 1.382 47.696 C 1.230 49.125, 1.469 49.891, 1.913 49.398 C 3.376 47.772, 24.821 13, 24.360 13 C 24.112 13, 20.725 17.943, 16.833 23.984 M 129.564 16.293 C 129.940 17.279, 130.499 17.834, 130.807 17.526 C 131.115 17.219, 130.808 16.412, 130.124 15.733 C 129.136 14.753, 129.022 14.868, 129.564 16.293 M 873.500 18 C 873.840 18.550, 873.341 19, 872.392 19 C 871.443 19, 870.933 19.266, 871.258 19.591 C 872.092 20.426, 876 19.059, 876 17.933 C 876 17.420, 875.298 17, 874.441 17 C 873.584 17, 873.160 17.450, 873.500 18 M 919.015 20.750 C 919.024 21.163, 919.467 22.175, 920 23 C 920.784 24.213, 920.972 24.069, 920.985 22.250 C 920.993 21.012, 920.550 20, 920 20 C 919.450 20, 919.007 20.337, 919.015 20.750 M 873.352 21.993 C 870.944 22.965, 869.312 25, 870.941 25 C 871.523 25, 872.041 24.438, 872.090 23.750 C 872.140 23.063, 872.607 23.979, 873.128 25.786 C 873.735 27.891, 874.494 28.813, 875.239 28.353 C 876.114 27.811, 876.105 27.535, 875.201 27.234 C 873.526 26.675, 873.703 24.439, 875.571 22.571 C 877.299 20.843, 876.633 20.670, 873.352 21.993 M 24.750 24.167 C 23.788 25.175, 23.241 26, 23.535 26 C 23.830 26, 23.589 26.900, 23 28 C 21.141 31.474, 22.706 30.163, 24.942 26.374 C 27.372 22.256, 27.305 21.490, 24.750 24.167 M 877 23.941 C 877 24.459, 877.445 25.157, 877.989 25.493 C 878.555 25.843, 878.723 25.442, 878.382 24.552 C 877.717 22.820, 877 22.503, 877 23.941 M 891 33 C 890.099 33.582, 889.975 33.975, 890.691 33.985 C 891.346 33.993, 892.160 33.550, 892.500 33 C 893.267 31.758, 892.921 31.758, 891 33 M 895.409 33.325 C 894.613 34.237, 894.681 34.912, 895.659 35.827 C 897.212 37.277, 897.484 39.417, 896 38.500 C 894.372 37.494, 894.860 38.642, 896.692 40.128 C 897.656 40.909, 898.079 40.992, 897.676 40.319 C 896.594 38.515, 898.604 37.819, 900.009 39.511 C 900.689 40.330, 901.635 41, 902.113 41 C 902.590 41, 902.210 40.100, 901.268 39 C 900.326 37.900, 898.981 37, 898.278 37 C 897.033 37, 896.596 35.788, 896.925 33.250 C 897.126 31.707, 896.809 31.722, 895.409 33.325 M 898.638 33.500 C 898.955 34.325, 899.671 35, 900.229 35 C 900.815 35, 900.718 34.365, 900 33.500 C 899.315 32.675, 898.599 32, 898.409 32 C 898.219 32, 898.322 32.675, 898.638 33.500 M 915 35.917 C 916.925 36.923, 919.625 38.023, 921 38.362 C 922.375 38.700, 921.250 37.885, 918.500 36.550 C 912.691 33.730, 909.821 33.211, 915 35.917 M 879 37.600 C 879 37.739, 880.350 38.527, 882 39.350 C 884.378 40.536, 885 40.575, 885 39.537 C 885 38.816, 883.650 38.029, 882 37.787 C 880.350 37.545, 879 37.460, 879 37.600 M 924.088 39.380 C 924.862 40.209, 939.041 45.021, 940.425 44.926 C 941.016 44.885, 938.500 43.802, 934.834 42.520 C 925.624 39.298, 923.405 38.650, 924.088 39.380 M 13.905 41.750 C 11.672 44.532, 9.914 48.001, 10.742 47.992 C 11.159 47.988, 12.526 46.188, 13.780 43.992 C 16.190 39.772, 16.242 38.839, 13.905 41.750 M 949 47.593 C 953.125 48.911, 957.400 49.958, 958.500 49.920 C 959.600 49.882, 956.675 48.781, 952 47.472 C 941.087 44.418, 939.285 44.491, 949 47.593 M 15 51 C 14.411 52.100, 14.155 53, 14.430 53 C 14.705 53, 15.411 52.100, 16 51 C 16.589 49.900, 16.845 49, 16.570 49 C 16.295 49, 15.589 49.900, 15 51 M 1.816 58.504 C 0.754 60.836, 1.275 63.058, 2.578 61.755 C 3.244 61.089, 3.919 56, 3.341 56 C 3.130 56, 2.444 57.127, 1.816 58.504 M 920.500 64 C 920.840 64.550, 921.316 65, 921.559 65 C 921.802 65, 922 64.550, 922 64 C 922 63.450, 921.523 63, 920.941 63 C 920.359 63, 920.160 63.450, 920.500 64 M 924 68.059 C 924 68.641, 924.450 68.840, 925 68.500 C 925.550 68.160, 926 67.684, 926 67.441 C 926 67.198, 925.550 67, 925 67 C 924.450 67, 924 67.477, 924 68.059 M 123.190 72.199 C 119.623 77.982, 114.049 90.270, 114.593 91.151 C 114.882 91.618, 114.488 92, 113.718 92 C 112.948 92, 111.094 94.138, 109.599 96.750 C 108.103 99.362, 105.782 103.029, 104.440 104.898 C 103.098 106.767, 102.024 108.792, 102.052 109.398 C 102.081 110.004, 102.869 109.388, 103.802 108.029 C 104.736 106.670, 107.850 102.445, 110.723 98.640 C 113.596 94.835, 115.800 91.447, 115.622 91.111 C 115.444 90.775, 116.896 89.150, 118.848 87.500 C 120.800 85.850, 122.049 85.175, 121.624 86 C 120.174 88.815, 124.145 83.512, 126.646 79.292 C 131.068 71.834, 127.691 64.902, 123.190 72.199 M 4.144 74.750 C 3.053 77.300, 3.078 77.359, 4.484 75.559 C 5.318 74.491, 6 73.254, 6 72.809 C 6 71.289, 5.322 71.999, 4.144 74.750 M 942 132.895 C 876.507 154.722, 819.490 187.929, 768.426 233.987 C 755.241 245.880, 735.388 267.094, 724.476 280.951 C 719.163 287.697, 716.009 290.574, 708.839 295.210 C 699.883 301.002, 688.027 309.841, 680.567 316.286 L 676.633 319.685 679.974 319.780 C 682.366 319.848, 684.621 318.867, 687.908 316.327 L 692.500 312.779 688.583 316.390 C 682.806 321.715, 685.344 320.778, 693.431 314.599 C 730.419 286.340, 768.279 270.263, 816.500 262.336 C 838.386 258.739, 887.687 260.214, 903.526 264.940 C 906.227 265.747, 906.278 265.836, 904.083 265.914 C 900.747 266.033, 901.737 266.619, 906.500 267.344 C 909.511 267.802, 910.005 267.709, 908.500 266.966 C 905.603 265.536, 912.372 266.606, 918.072 268.479 C 922.170 269.826, 922.239 269.902, 919 269.505 C 915.889 269.125, 916.010 269.241, 920.083 270.550 C 922.631 271.368, 924.667 272.641, 924.667 273.416 C 924.667 274.182, 924.062 274.577, 923.322 274.293 C 922.429 273.951, 922.177 274.298, 922.572 275.328 C 922.900 276.181, 922.646 277.693, 922.008 278.689 C 920.963 280.322, 920.903 280.328, 921.393 278.750 C 922.040 276.669, 919.216 276.273, 918.426 278.333 C 917.877 279.763, 915 280.204, 915 278.858 C 915 278.414, 913.650 278.320, 912 278.650 C 910.089 279.032, 909 278.842, 909 278.125 C 909 277.506, 908.460 277, 907.800 277 C 906.867 277, 906.867 277.267, 907.800 278.200 C 909.808 280.208, 909.150 281.248, 906.250 280.648 C 904.737 280.335, 904.063 280.324, 904.750 280.623 C 906.488 281.379, 906.328 283.340, 904.583 282.670 C 903.803 282.371, 902.917 282.773, 902.614 283.563 C 902.311 284.353, 902.469 285, 902.965 285 C 903.461 285, 903.664 286.125, 903.414 287.500 C 903.090 289.289, 903.403 290, 904.516 290 C 905.760 290, 905.857 289.601, 905 288 C 904.060 286.244, 904.240 286, 906.465 286 C 908.218 286, 908.995 286.539, 908.985 287.750 C 908.972 289.246, 908.828 289.282, 908 288 C 907.216 286.787, 907.028 286.931, 907.015 288.750 C 907 290.977, 908.017 291.650, 909.362 290.304 C 910.437 289.230, 913.083 289.057, 912.436 290.104 C 912.120 290.615, 911.443 290.774, 910.931 290.457 C 910.419 290.141, 910 290.310, 910 290.834 C 910 292.659, 906.878 292.966, 904.455 291.379 C 902.949 290.392, 901.343 290.074, 900.258 290.548 C 899.291 290.970, 897.892 291.214, 897.150 291.091 C 896.407 290.967, 896.096 291.346, 896.459 291.933 C 896.847 292.562, 896.239 293, 894.976 293 C 893.701 293, 893.006 293.506, 893.260 294.250 C 893.494 294.938, 894.716 295.349, 895.976 295.165 C 897.991 294.869, 898.202 295.162, 897.735 297.605 L 897.205 300.380 899.024 297.968 C 900.025 296.641, 900.615 295.093, 900.335 294.528 C 900.055 293.963, 900.735 294.618, 901.845 295.985 C 902.955 297.352, 904.194 298.139, 904.598 297.735 C 905.003 297.331, 904.808 297, 904.167 297 C 903.525 297, 903.007 296.212, 903.015 295.250 C 903.027 293.880, 903.218 293.796, 903.894 294.863 C 904.369 295.613, 904.925 295.780, 905.129 295.235 C 905.361 294.614, 906.385 294.576, 907.864 295.132 C 909.838 295.873, 910.021 296.270, 908.972 297.534 C 907.274 299.580, 908.518 300.625, 910.405 298.738 C 911.230 297.913, 911.814 297.072, 911.702 296.869 C 911.591 296.666, 911.684 296.609, 911.908 296.741 C 912.132 296.874, 913.032 296.432, 913.908 295.759 C 914.855 295.031, 914.690 295.541, 913.500 297.017 C 910.754 300.427, 908.976 301.443, 905.706 301.474 C 903.632 301.493, 902.767 300.921, 902.348 299.250 C 901.681 296.592, 900.003 296.235, 899.993 298.750 C 899.984 301.370, 896.358 306.513, 895.695 304.848 C 895.385 304.069, 895.125 304.419, 895.079 305.677 C 895.036 306.874, 895.563 308.047, 896.250 308.283 C 896.938 308.520, 896.712 308.553, 895.750 308.356 C 894.788 308.160, 893.212 307.840, 892.250 307.644 C 891.288 307.447, 891.096 307.487, 891.823 307.731 C 892.551 307.975, 892.889 308.847, 892.573 309.669 C 892.258 310.491, 892 311.422, 892 311.737 C 892 312.052, 891.053 311.453, 889.895 310.405 C 888.737 309.357, 887.596 308.596, 887.359 308.714 C 885.749 309.515, 884.141 312.083, 883.542 314.807 C 883.093 316.854, 882.242 317.995, 881.171 317.985 C 880.173 317.976, 879.922 317.674, 880.548 317.235 C 882.017 316.205, 882.128 312.008, 880.688 311.960 C 880.035 311.938, 880.737 311.249, 882.250 310.428 C 885.109 308.877, 885.704 307.553, 884.011 306.507 C 883.444 306.156, 883.277 306.559, 883.620 307.451 C 884.053 308.580, 883.410 309.168, 881.275 309.595 C 878.407 310.169, 877.043 313, 879.635 313 C 880.412 313, 880.692 313.639, 880.329 314.584 C 879.840 315.859, 879.557 315.908, 878.876 314.834 C 878.217 313.793, 878.027 313.861, 878.015 315.143 C 877.999 316.849, 875.644 318.311, 874.598 317.264 C 873.638 316.304, 873.910 314.827, 874.931 315.457 C 875.443 315.774, 876.144 315.575, 876.490 315.016 C 876.835 314.457, 876.218 314, 875.118 314 C 874.018 314, 872.816 314.489, 872.446 315.087 C 871.998 315.812, 871.441 315.841, 870.774 315.174 C 869.445 313.845, 870.744 311.875, 872.722 312.223 C 873.586 312.376, 874.489 311.938, 874.729 311.252 C 875.060 310.305, 874.602 310.248, 872.833 311.018 C 871.550 311.576, 869.724 312.300, 868.775 312.626 C 867.225 313.160, 867.276 313.409, 869.275 315.077 C 871.245 316.721, 871.293 316.937, 869.691 316.967 C 868.580 316.987, 868.158 317.447, 868.597 318.158 C 869.088 318.951, 868.634 319.138, 867.156 318.751 C 865.970 318.441, 865 318.595, 865 319.094 C 865 320.559, 869.011 320.132, 870.652 318.491 C 871.482 317.661, 872.658 317.288, 873.264 317.663 C 873.959 318.093, 873.651 318.618, 872.434 319.082 C 871.370 319.487, 890.638 319.867, 915.250 319.927 L 960 320.035 960 297.543 L 960 275.051 957.250 273.646 C 951.666 270.792, 934.418 264.786, 922.167 261.428 C 860.557 244.543, 793.737 251.195, 735.692 279.994 C 728.098 283.761, 722.375 286.253, 722.975 285.530 C 723.575 284.807, 725.396 283.665, 727.020 282.992 C 728.645 282.319, 729.724 281.363, 729.418 280.868 C 729.112 280.372, 728.330 280.272, 727.681 280.644 C 727.002 281.033, 726.854 280.934, 727.333 280.410 C 727.792 279.910, 728.478 279.500, 728.858 279.500 C 729.238 279.500, 730.752 278.554, 732.222 277.397 C 734.306 275.758, 734.631 275.026, 733.697 274.076 C 733.039 273.406, 732.950 272.994, 733.500 273.162 C 734.574 273.490, 740 268.437, 740 267.110 C 740 266.670, 740.889 265.505, 741.976 264.521 C 743.063 263.538, 743.719 262.354, 743.432 261.890 C 742.853 260.953, 773.642 230, 775.154 230 C 775.679 230, 779.197 227.342, 782.972 224.093 C 793.066 215.405, 811.829 201.489, 825.500 192.550 C 832.100 188.234, 839.196 183.578, 841.268 182.203 C 843.341 180.828, 845.248 179.915, 845.507 180.174 C 845.766 180.433, 840.245 184.437, 833.239 189.072 C 826.233 193.708, 819.196 198.738, 817.602 200.250 C 816.008 201.762, 814.095 203, 813.352 203 C 812.608 203, 812 203.375, 812 203.832 C 812 204.290, 807.181 208.453, 801.291 213.082 C 789.544 222.316, 783.594 227.392, 774.500 235.935 C 766.567 243.388, 744.527 266, 745.195 266 C 745.483 266, 749.945 261.688, 755.110 256.419 C 760.274 251.149, 766.750 245.188, 769.500 243.171 C 774.930 239.189, 776.614 237.842, 781.044 233.931 C 782.645 232.518, 785.202 230.722, 786.727 229.939 C 789.733 228.396, 800.569 220.941, 803 218.744 C 803.825 217.998, 806.862 215.904, 809.750 214.090 C 812.638 212.276, 815 210.437, 815 210.004 C 815 209.571, 816.688 208.541, 818.750 207.716 C 820.813 206.890, 823.357 205.266, 824.405 204.107 C 825.453 202.948, 826.854 202, 827.519 202 C 828.185 202, 830.237 200.683, 832.080 199.074 C 833.923 197.465, 835.784 196.367, 836.216 196.633 C 836.647 196.900, 837 196.694, 837 196.176 C 837 195.657, 837.788 194.969, 838.750 194.646 C 840.848 193.941, 844.270 191.811, 845.090 190.700 C 845.414 190.260, 846.621 189.829, 847.771 189.742 C 848.921 189.656, 849.780 189.217, 849.681 188.767 C 849.581 188.317, 850.831 187.173, 852.458 186.225 C 854.084 185.276, 856.266 183.750, 857.306 182.834 C 858.347 181.917, 860.391 180.889, 861.849 180.549 C 864.578 179.913, 871.112 176.941, 872 175.932 C 872.275 175.619, 874.166 175.430, 876.203 175.510 C 878.445 175.599, 879.663 175.263, 879.289 174.659 C 878.927 174.072, 879.338 173.916, 880.285 174.279 C 881.402 174.708, 881.732 174.465, 881.358 173.491 C 881.008 172.579, 881.730 171.855, 883.409 171.433 C 884.834 171.076, 886 170.355, 886 169.833 C 886 169.310, 886.419 169.141, 886.931 169.457 C 887.443 169.774, 888.149 169.568, 888.500 169 C 888.851 168.432, 889.607 168.257, 890.181 168.612 C 890.754 168.966, 891.511 168.793, 891.862 168.226 C 892.213 167.660, 894.912 166.891, 897.859 166.517 C 901.406 166.067, 903.006 166.182, 902.589 166.856 C 902.196 167.492, 902.976 167.691, 904.663 167.385 C 907.735 166.828, 911.169 165.077, 909.281 165.030 C 907.303 164.981, 909.041 162, 911.048 162 C 912.057 162, 913.179 161.519, 913.542 160.932 C 913.905 160.344, 914.799 160.093, 915.528 160.372 C 916.257 160.652, 917.392 160.233, 918.049 159.441 C 918.707 158.648, 919.865 158, 920.622 158 C 921.380 158, 921.947 157.662, 921.882 157.250 C 921.594 155.429, 922.185 155.193, 925 156 C 927.875 156.824, 929.337 155.706, 926.750 154.662 C 926.003 154.361, 926.205 154.126, 927.250 154.079 C 928.212 154.036, 929 154.362, 929 154.804 C 929 155.246, 930.688 155.651, 932.750 155.705 C 934.813 155.758, 937.175 155.959, 938 156.151 C 938.825 156.343, 939.410 156.004, 939.299 155.398 C 939.180 154.742, 940.089 154.486, 941.549 154.765 C 943.831 155.201, 944.491 156.162, 944.062 158.419 C 943.966 158.925, 944.588 158.757, 945.444 158.047 C 946.758 156.956, 947.002 157.047, 947.015 158.628 C 947.028 160.202, 947.185 160.262, 948 159 C 948.533 158.175, 948.976 158.014, 948.985 158.643 C 948.993 159.272, 949.698 160.054, 950.552 160.382 C 951.540 160.761, 951.853 160.571, 951.413 159.859 C 950.997 159.186, 951.275 158.925, 952.111 159.204 C 952.875 159.458, 953.510 160.304, 953.522 161.083 C 953.535 161.867, 954.317 162.369, 955.272 162.206 C 957.034 161.907, 957.771 164.548, 956.099 165.167 C 955.603 165.350, 955.913 166.160, 956.789 166.967 C 958.206 168.274, 958.303 168.231, 957.667 166.576 C 957.076 165.034, 957.202 164.923, 958.410 165.925 C 959.676 166.976, 959.878 164.513, 959.956 147.067 C 960.006 136.030, 959.924 127.014, 959.773 127.031 C 959.623 127.048, 951.625 129.687, 942 132.895 M 90.500 130 C 90.160 130.550, 90.359 131, 90.941 131 C 91.523 131, 92 130.550, 92 130 C 92 129.450, 91.802 129, 91.559 129 C 91.316 129, 90.840 129.450, 90.500 130 M 21.611 146.820 C 21.287 147.344, 21.656 148.299, 22.431 148.943 C 23.542 149.865, 23.792 149.789, 23.615 148.585 C 23.312 146.520, 22.331 145.656, 21.611 146.820 M 37.045 156.555 C 37.755 157.410, 39.273 158.596, 40.418 159.190 C 42.276 160.155, 42.239 159.988, 40.076 157.636 C 37.515 154.852, 34.840 153.897, 37.045 156.555 M 40 161.432 C 40 161.669, 41.462 162.874, 43.250 164.109 L 46.500 166.355 44.076 163.678 C 41.914 161.290, 40 160.235, 40 161.432 M 863.750 169.068 C 861.688 170.157, 860 171.271, 860 171.544 C 860 171.817, 861.800 171.122, 864 170 C 866.200 168.878, 868 167.743, 868 167.480 C 868 166.826, 867.993 166.828, 863.750 169.068 M 53 172.819 C 53 174.027, 54.897 175.436, 55.591 174.743 C 55.842 174.491, 55.362 173.716, 54.524 173.020 C 53.574 172.231, 53 172.155, 53 172.819 M 855.750 173.572 C 852.012 175.600, 852.239 176.445, 856 174.500 C 857.650 173.647, 859 172.735, 859 172.474 C 859 171.831, 858.893 171.867, 855.750 173.572 M 849.441 177.555 C 847.577 179.049, 847.589 179.067, 849.750 178.020 C 850.987 177.420, 852 176.720, 852 176.465 C 852 175.700, 851.481 175.921, 849.441 177.555 M 59.592 181.989 C 59.701 183.564, 60.086 185.330, 60.447 185.915 C 60.821 186.520, 60.543 186.764, 59.802 186.481 C 59.022 186.184, 57.391 187.891, 55.732 190.742 C 54.210 193.359, 52.242 196.512, 51.360 197.750 C 49.841 199.880, 49.869 200, 51.878 200 C 54.419 200, 54.527 200.802, 52.398 203.842 C 50.288 206.854, 50.827 207.182, 55.556 205.761 C 59.271 204.646, 59.340 204.556, 56.750 204.222 C 54.395 203.918, 54.146 203.595, 55.016 201.971 C 55.574 200.928, 56.586 200.267, 57.265 200.503 C 57.944 200.739, 59.714 199.174, 61.198 197.026 C 63.499 193.694, 63.759 192.645, 62.965 189.877 C 61.838 185.949, 62.389 185.049, 64.171 187.903 C 64.892 189.056, 65.819 190, 66.231 190 C 67.023 190, 61.358 180.339, 60.117 179.572 C 59.719 179.327, 59.483 180.414, 59.592 181.989 M 39 196 C 39.825 196.533, 40.950 196.969, 41.500 196.969 C 42.050 196.969, 41.825 196.533, 41 196 C 40.175 195.467, 39.050 195.031, 38.500 195.031 C 37.950 195.031, 38.175 195.467, 39 196 M 2.250 201.277 C 0.510 202.072, 0.009 203.122, 0.040 205.903 L 0.080 209.500 1.584 206.726 C 2.412 205.201, 2.774 203.444, 2.390 202.822 C 1.978 202.155, 2.137 201.966, 2.776 202.362 C 3.373 202.731, 4.163 202.545, 4.531 201.950 C 5.524 200.344, 4.775 200.123, 2.250 201.277 M 39.669 201.727 C 38.934 202.916, 42.696 204.638, 43.742 203.591 C 44.067 203.266, 43.621 203, 42.750 203 C 41.879 203, 40.987 202.460, 40.766 201.799 C 40.475 200.925, 40.177 200.905, 39.669 201.727 M 52.269 208.693 C 53.242 208.947, 54.592 208.930, 55.269 208.656 C 55.946 208.382, 55.150 208.175, 53.500 208.195 C 51.850 208.215, 51.296 208.439, 52.269 208.693 M 809.813 260.683 C 810.534 260.972, 811.397 260.936, 811.729 260.604 C 812.061 260.272, 811.471 260.036, 810.417 260.079 C 809.252 260.127, 809.015 260.364, 809.813 260.683 M 846.797 261.745 C 851.361 261.930, 858.561 261.929, 862.797 261.742 C 867.034 261.555, 863.300 261.404, 854.500 261.405 C 845.700 261.406, 842.234 261.559, 846.797 261.745 M 739.924 264.750 L 737.500 267.500 740.250 265.076 C 741.763 263.742, 743 262.505, 743 262.326 C 743 261.541, 742.190 262.180, 739.924 264.750 M 874.250 262.689 C 875.212 262.941, 876.788 262.941, 877.750 262.689 C 878.712 262.438, 877.925 262.232, 876 262.232 C 874.075 262.232, 873.288 262.438, 874.250 262.689 M 795.813 263.683 C 796.534 263.972, 797.397 263.936, 797.729 263.604 C 798.061 263.272, 797.471 263.036, 796.417 263.079 C 795.252 263.127, 795.015 263.364, 795.813 263.683 M 882.380 263.806 C 882.859 264.581, 890 264.191, 890 263.391 C 890 263.176, 888.173 263, 885.941 263 C 883.709 263, 882.106 263.363, 882.380 263.806 M 898.750 265.662 C 899.438 265.940, 900.563 265.940, 901.250 265.662 C 901.938 265.385, 901.375 265.158, 900 265.158 C 898.625 265.158, 898.063 265.385, 898.750 265.662 M 779.813 267.683 C 780.534 267.972, 781.397 267.936, 781.729 267.604 C 782.061 267.272, 781.471 267.036, 780.417 267.079 C 779.252 267.127, 779.015 267.364, 779.813 267.683 M 895.447 267.915 C 895.758 268.418, 895.447 269.024, 894.756 269.263 C 894.065 269.501, 895.282 269.594, 897.460 269.469 C 902.559 269.176, 903.497 267, 898.524 267 C 896.521 267, 895.136 267.412, 895.447 267.915 M 902.667 268.667 C 901.674 269.659, 901.860 271.204, 902.895 270.565 C 903.388 270.260, 904.048 270.684, 904.364 271.506 C 905.001 273.166, 908 273.574, 908 272 C 908 270.203, 909.670 270.949, 910.796 273.250 C 911.893 275.491, 911.896 275.490, 911.599 273 C 911.398 271.315, 910.681 270.500, 909.400 270.500 C 908.355 270.500, 906.905 269.938, 906.179 269.250 C 904.700 267.851, 903.656 267.678, 902.667 268.667 M 734.872 270.750 C 733.629 272.336, 733.664 272.371, 735.250 271.128 C 736.916 269.821, 737.445 269, 736.622 269 C 736.415 269, 735.627 269.788, 734.872 270.750 M 926 271.500 C 927.925 272.241, 930.175 272.848, 931 272.848 C 931.825 272.848, 930.925 272.241, 929 271.500 C 927.075 270.759, 924.825 270.152, 924 270.152 C 923.175 270.152, 924.075 270.759, 926 271.500 M 913.813 271.683 C 914.534 271.972, 915.397 271.936, 915.729 271.604 C 916.061 271.272, 915.471 271.036, 914.417 271.079 C 913.252 271.127, 913.015 271.364, 913.813 271.683 M 755 276 C 754.175 276.533, 753.950 276.969, 754.500 276.969 C 755.050 276.969, 756.175 276.533, 757 276 C 757.825 275.467, 758.050 275.031, 757.500 275.031 C 756.950 275.031, 755.825 275.467, 755 276 M 902 275.430 C 902 275.705, 902.900 276.411, 904 277 C 905.100 277.589, 906 277.845, 906 277.570 C 906 277.295, 905.100 276.589, 904 276 C 902.900 275.411, 902 275.155, 902 275.430 M 736 277 C 736 277.550, 736.477 278, 737.059 278 C 737.641 278, 737.840 277.550, 737.500 277 C 737.160 276.450, 736.684 276, 736.441 276 C 736.198 276, 736 276.450, 736 277 M 942 277.094 C 942 277.592, 942.900 278, 944 278 C 945.100 278, 946 277.827, 946 277.617 C 946 277.406, 945.100 276.998, 944 276.710 C 942.900 276.423, 942 276.595, 942 277.094 M 748 279 C 747.175 279.533, 746.950 279.969, 747.500 279.969 C 748.050 279.969, 749.175 279.533, 750 279 C 750.825 278.467, 751.050 278.031, 750.500 278.031 C 749.950 278.031, 748.825 278.467, 748 279 M 888.039 280.547 C 888.977 281.677, 889.519 281.778, 890.050 280.919 C 890.449 280.273, 891.277 280.053, 891.888 280.431 C 892.500 280.809, 893 280.641, 893 280.059 C 893 279.477, 891.595 279, 889.878 279 C 887.173 279, 886.927 279.207, 888.039 280.547 M 895.226 280.579 C 896.176 281.570, 897.168 282.166, 897.431 281.903 C 897.694 281.640, 896.917 280.829, 895.705 280.100 C 893.598 278.835, 893.577 278.857, 895.226 280.579 M 950.500 281 C 950.840 281.550, 952.104 281.993, 953.309 281.985 C 955.090 281.972, 955.219 281.788, 954 281 C 952.030 279.727, 949.713 279.727, 950.500 281 M 5.564 282.707 C 5.022 284.132, 5.136 284.247, 6.124 283.267 C 6.808 282.588, 7.115 281.781, 6.807 281.474 C 6.499 281.166, 5.940 281.721, 5.564 282.707 M 900.500 282 C 900.840 282.550, 901.316 283, 901.559 283 C 901.802 283, 902 282.550, 902 282 C 902 281.450, 901.523 281, 900.941 281 C 900.359 281, 900.160 281.450, 900.500 282 M 915.909 282.055 C 915.134 282.533, 914.448 283.864, 914.384 285.011 C 914.270 287.065, 914.308 287.062, 916.884 284.798 C 918.323 283.534, 919.632 282.443, 919.793 282.374 C 919.954 282.304, 919.464 282.008, 918.702 281.716 C 917.941 281.424, 916.684 281.577, 915.909 282.055 M 886.100 283.379 C 885.079 284.610, 885.253 284.748, 887.193 284.248 C 889.327 283.698, 889.388 283.791, 888 285.490 C 886.590 287.218, 886.639 287.253, 888.828 286.087 C 891.278 284.781, 894.526 285.339, 893.562 286.900 C 893.251 287.402, 893.898 287.578, 894.999 287.290 C 896.099 287.002, 897 286.321, 897 285.776 C 897 285.232, 896.325 285.045, 895.500 285.362 C 894.675 285.678, 894 285.501, 894 284.969 C 894 284.436, 892.965 284, 891.700 284 C 890.435 284, 888.931 283.531, 888.358 282.958 C 887.634 282.234, 886.943 282.363, 886.100 283.379 M 899.733 287.124 C 900.412 287.808, 901.219 288.115, 901.526 287.807 C 901.834 287.499, 901.279 286.940, 900.293 286.564 C 898.868 286.022, 898.753 286.136, 899.733 287.124 M 910 287 C 910 287.550, 910.423 288, 910.941 288 C 911.459 288, 912.160 287.550, 912.500 287 C 912.840 286.450, 912.416 286, 911.559 286 C 910.702 286, 910 286.450, 910 287 M 727.441 289.555 C 725.577 291.049, 725.589 291.067, 727.750 290.020 C 728.987 289.420, 730 288.720, 730 288.465 C 730 287.700, 729.481 287.921, 727.441 289.555 M 887.500 291 C 887.840 291.550, 888.316 292, 888.559 292 C 888.802 292, 889 291.550, 889 291 C 889 290.450, 888.523 290, 887.941 290 C 887.359 290, 887.160 290.450, 887.500 291 M 908 293.393 C 908 293.609, 908.675 294.045, 909.500 294.362 C 910.325 294.678, 911 294.501, 911 293.969 C 911 293.436, 910.325 293, 909.500 293 C 908.675 293, 908 293.177, 908 293.393 M 697.465 304.794 C 687.298 312.277, 679.992 318.325, 680.504 318.838 C 680.793 319.127, 682.486 317.994, 684.265 316.320 C 686.044 314.645, 690.987 310.684, 695.250 307.517 C 701.884 302.587, 703.911 300.838, 702.750 301.044 C 702.612 301.069, 700.234 302.756, 697.465 304.794 M 892.369 302.480 C 891.525 304.680, 892.453 305.364, 893.906 303.613 C 894.724 302.628, 894.766 301.974, 894.041 301.526 C 893.461 301.167, 892.708 301.596, 892.369 302.480 M 904.667 303.667 C 904.300 304.033, 904 304.798, 904 305.367 C 904 305.993, 904.466 305.934, 905.183 305.217 C 905.834 304.566, 906.134 303.801, 905.850 303.517 C 905.566 303.233, 905.033 303.300, 904.667 303.667 M 698.250 308.062 C 695.362 310.278, 693 312.310, 693 312.578 C 693 312.846, 695.475 311.196, 698.500 308.912 C 703.276 305.307, 704.728 303.952, 703.750 304.016 C 703.612 304.025, 701.138 305.846, 698.250 308.062 M 872.624 305.539 C 871.659 308.053, 871.943 308.702, 873.122 306.675 C 873.706 305.671, 873.973 304.639, 873.715 304.382 C 873.458 304.124, 872.966 304.645, 872.624 305.539 M 866 306 C 866.825 306.533, 868.400 306.945, 869.500 306.914 L 871.500 306.859 869.500 306 C 868.400 305.527, 866.825 305.116, 866 305.086 C 864.667 305.037, 864.667 305.138, 866 306 M 706.494 309.006 C 705.496 310.110, 704.864 311.190, 705.089 311.408 C 705.315 311.626, 706.309 310.723, 707.297 309.402 C 709.479 306.484, 708.994 306.245, 706.494 309.006 M 875.500 308 C 875.160 308.550, 875.332 309, 875.882 309 C 876.432 309, 877.160 308.550, 877.500 308 C 877.840 307.450, 877.668 307, 877.118 307 C 876.568 307, 875.840 307.450, 875.500 308 M 845.345 317.543 C 845.019 318.392, 845.034 319.367, 845.376 319.710 C 845.719 320.053, 846.007 319.696, 846.015 318.917 C 846.028 317.732, 846.183 317.741, 846.961 318.971 C 847.473 319.780, 848.196 320.137, 848.569 319.764 C 849.496 318.838, 848.313 316, 847 316 C 846.415 316, 845.671 316.694, 845.345 317.543 M 863 317.361 C 863 318.256, 862.184 318.567, 860.617 318.267 C 859.307 318.017, 857.930 318.304, 857.558 318.906 C 857.117 319.620, 858.119 320, 860.441 320 C 863.333 320, 864 319.625, 864 318 C 864 316.900, 863.775 316, 863.500 316 C 863.225 316, 863 316.613, 863 317.361 M 839 319 C 836.631 319.759, 836.671 319.806, 839.750 319.900 C 841.538 319.955, 843 319.550, 843 319 C 843 317.870, 842.529 317.870, 839 319 M 853.500 319 C 853.160 319.550, 853.332 320, 853.882 320 C 854.432 320, 855.160 319.550, 855.500 319 C 855.840 318.450, 855.668 318, 855.118 318 C 854.568 318, 853.840 318.450, 853.500 319" stroke="none" fill="#ece7e4" fill-rule="evenodd"/>
</svg>