<svg xmlns="http://www.w3.org/2000/svg" width="2000" height="2000" viewBox="0 0 2000 2000" version="1.1">
	<rect x="0" y="0" width="100%" height="100%" fill="#ffffff" />
	<path d="M 995.500 529.728 C 989.699 531.166, 979.112 542.172, 958.100 568.612 C 950.620 578.024, 943.600 586.995, 942.500 588.548 C 941.400 590.101, 939.581 592.526, 938.457 593.936 C 937.334 595.346, 935.660 597.625, 934.739 599 C 933.818 600.375, 931.008 604.425, 928.494 608 C 925.981 611.575, 920.950 619, 917.314 624.500 C 910.988 634.070, 908.714 637.603, 903.153 646.500 C 901.778 648.700, 899.645 652.075, 898.413 654 C 890.614 666.179, 858 728.631, 858 731.384 C 858 731.690, 856.925 734.317, 855.610 737.220 C 852.253 744.640, 849.648 751.027, 845.507 762 C 843.535 767.225, 841.489 772.400, 840.961 773.500 C 837.733 780.224, 825.512 819.411, 820.066 840.500 C 813.651 865.343, 810.461 881.606, 807.513 904.504 C 806.186 914.804, 804.885 923.448, 804.622 923.712 C 804.358 923.976, 798.148 921.514, 790.821 918.241 C 758.447 903.781, 738.718 896.308, 707.282 886.599 C 697.667 883.629, 669.155 876.608, 660.500 875.079 C 634.509 870.487, 618.576 868.661, 585.413 866.473 C 574 865.720, 535.653 867.551, 529.356 869.149 C 523.598 870.610, 518.727 874.959, 515.709 881.333 C 513.534 885.927, 512.803 890.117, 510.859 909.121 C 504.567 970.659, 512.170 1045.285, 531.172 1108.500 C 532.826 1114, 534.982 1121.200, 535.964 1124.500 C 541.800 1144.102, 555.022 1177.031, 566.682 1201 C 574.533 1217.141, 589.029 1244.086, 593.042 1250 C 593.975 1251.375, 596.890 1255.875, 599.519 1260 C 603.650 1266.479, 614.807 1282.506, 617.272 1285.500 C 617.724 1286.050, 619.819 1288.835, 621.926 1291.689 C 647.690 1326.582, 688.693 1367.089, 722.961 1391.500 C 725.938 1393.621, 750.092 1409.746, 756 1413.556 C 763.313 1418.273, 785.453 1430.216, 799.198 1436.859 C 845.514 1459.244, 898.931 1474.619, 951 1480.554 C 973.658 1483.137, 1011.623 1483.581, 1036.048 1481.549 C 1071.003 1478.641, 1110.793 1470.889, 1137.500 1461.783 C 1182.498 1446.441, 1195.256 1440.666, 1238.347 1416.136 C 1241.759 1414.194, 1265.203 1398.716, 1273.392 1393 C 1279.070 1389.036, 1287.854 1382.231, 1296.249 1375.292 C 1325.794 1350.872, 1363.922 1310.324, 1381.522 1284.609 C 1382.610 1283.020, 1384.400 1280.489, 1385.500 1278.985 C 1386.600 1277.482, 1391.366 1270.458, 1396.092 1263.376 C 1438.299 1200.125, 1470.941 1114.534, 1482.045 1038 C 1482.643 1033.875, 1483.758 1026.450, 1484.522 1021.500 C 1489.791 987.359, 1489.752 902.372, 1484.459 883.411 C 1482.118 875.027, 1476.178 868.820, 1467.976 866.189 C 1461.210 864.019, 1424.624 862.780, 1401.309 863.932 C 1337.324 867.093, 1265.058 886.422, 1205.456 916.316 C 1198.330 919.890, 1192.401 922.719, 1192.279 922.603 C 1192.158 922.487, 1191.374 916.341, 1190.539 908.946 C 1184.879 858.854, 1164.731 786.650, 1142.912 738.261 C 1141.860 735.929, 1141 733.759, 1141 733.438 C 1141 732.526, 1123.378 696.265, 1118.970 688.108 C 1116.345 683.249, 1100.776 655.270, 1099.990 654 C 1095.531 646.787, 1086.483 631.938, 1085.155 629.652 C 1083.159 626.216, 1066.216 601.410, 1058.815 591.087 C 1049.827 578.550, 1021.463 542.804, 1016.041 537.181 C 1009.009 529.887, 1003.265 527.803, 995.500 529.728 M 992.690 690.675 C 953.798 750.329, 926.913 814.805, 910.617 887.500 C 905.701 909.432, 902 943.954, 902 967.882 L 902 982.654 912.750 991.518 C 926.058 1002.491, 959.960 1036.231, 970.496 1048.988 C 974.806 1054.206, 978.820 1058.972, 979.416 1059.579 C 980.012 1060.186, 981.625 1062.185, 983 1064.020 C 984.375 1065.855, 988.560 1071.338, 992.301 1076.204 L 999.102 1085.050 1002.808 1080.275 C 1004.847 1077.649, 1007.852 1073.700, 1009.486 1071.500 C 1026.117 1049.117, 1059.686 1013.772, 1082.047 995.102 C 1088.896 989.384, 1094.900 984.025, 1095.388 983.194 C 1095.883 982.353, 1096.020 971.450, 1095.697 958.592 C 1094.036 892.472, 1076.069 824.405, 1041.692 754 C 1036.436 743.234, 1019.658 712.460, 1015.387 705.750 C 1014.074 703.688, 1011.797 700.087, 1010.327 697.750 C 1004.586 688.623, 1002.493 685.412, 1000.827 683.175 L 999.095 680.851 992.690 690.675 M 1366.500 969.079 C 1348.559 971.453, 1319.357 977.682, 1308.500 981.451 C 1306.300 982.215, 1302.025 983.591, 1299 984.510 C 1295.975 985.428, 1289.225 987.762, 1284 989.695 C 1238.921 1006.376, 1197.561 1029.904, 1155.079 1063.032 C 1129.146 1083.255, 1096.045 1117.963, 1076.905 1145 C 1066.082 1160.288, 1061.001 1168.218, 1055.238 1178.822 L 1051.258 1186.143 1053.775 1193.822 C 1058.826 1209.228, 1065.140 1231.837, 1068.485 1246.500 C 1069.740 1252, 1071.055 1257.190, 1071.407 1258.033 C 1072.177 1259.875, 1075.248 1276.174, 1078.561 1296 C 1080.887 1309.921, 1082.733 1325.347, 1085.024 1350 C 1085.612 1356.325, 1086.361 1363.679, 1086.688 1366.342 L 1087.282 1371.185 1091.724 1370.519 C 1096.165 1369.853, 1108.322 1366.231, 1121.500 1361.648 C 1135.363 1356.826, 1160.466 1345.413, 1172.806 1338.321 C 1206.972 1318.685, 1231.762 1300.018, 1257.696 1274.397 C 1289.762 1242.719, 1319.341 1201.456, 1340.775 1158.500 C 1347.412 1145.198, 1354 1130.808, 1354 1129.612 C 1354 1129.308, 1355.064 1126.683, 1356.364 1123.780 C 1359.394 1117.015, 1366.255 1097.679, 1369.061 1088 C 1380.313 1049.179, 1386.717 1013.654, 1388.573 979.750 L 1389.271 967 1384.885 967.113 C 1382.473 967.175, 1374.200 968.060, 1366.500 969.079 M 609 972.950 C 609 979.518, 611.831 1012.041, 613.009 1019 C 613.521 1022.025, 614.608 1028.444, 615.424 1033.265 C 619.391 1056.687, 628.393 1089.108, 637.703 1113.500 C 646.165 1135.672, 649.696 1143.730, 659.175 1162.500 C 667.671 1179.324, 674.769 1191.222, 689.300 1213 C 716.622 1253.946, 756.303 1293.863, 796.142 1320.475 C 803.157 1325.161, 822.625 1337, 823.316 1337 C 823.540 1337, 827.027 1338.816, 831.066 1341.036 C 835.105 1343.256, 842.029 1346.666, 846.454 1348.613 C 850.880 1350.560, 855.850 1352.782, 857.500 1353.551 C 863.872 1356.520, 885.477 1364.097, 894.500 1366.526 C 914.039 1371.786, 924.942 1374.267, 936.500 1376.085 C 953.748 1378.798, 972.921 1380.881, 981.250 1380.947 L 988 1381 988 1375.445 C 988 1365.545, 983.038 1320.973, 979.935 1303 C 976.357 1282.280, 969.501 1252.268, 967.027 1246.500 C 966.555 1245.400, 964.537 1239.325, 962.541 1233 C 957.415 1216.753, 947.982 1192.955, 943.119 1184 C 942.671 1183.175, 940.577 1179.125, 938.465 1175 C 920.952 1140.785, 884.286 1096.556, 849 1067.081 C 831.597 1052.545, 805.652 1033.959, 792.500 1026.609 C 790.850 1025.687, 787.250 1023.536, 784.500 1021.830 C 770.803 1013.334, 741.010 999.223, 720 991.282 C 709.815 987.432, 688.228 980.874, 675.500 977.763 C 657.190 973.287, 624.152 968.026, 614.250 968.009 L 609 968 609 972.950" stroke="none" fill="#31363b" fill-rule="evenodd"/>
</svg>