<svg xmlns="http://www.w3.org/2000/svg" width="2000" height="2000" viewBox="0 0 2000 2000" version="1.1">
	<rect x="0" y="0" width="100%" height="100%" fill="#2f343a" />
	<path d="M 1004.500 494.804 C 1002.300 495.690, 1000.350 496.771, 1000.167 497.207 C 999.983 497.643, 999.260 498, 998.560 498 C 996.959 498, 982.323 512.833, 977.345 519.500 C 975.292 522.250, 973.356 524.725, 973.043 525 C 972.729 525.275, 970.456 527.975, 967.991 531 C 965.526 534.025, 963.057 537.007, 962.504 537.627 C 961.952 538.248, 960.825 539.752, 960 540.971 C 958.563 543.094, 957.635 544.275, 953.750 548.927 C 952.788 550.080, 952 551.468, 952 552.011 C 952 552.555, 951.605 553, 951.122 553 C 950.640 553, 947.606 556.938, 944.381 561.750 C 941.155 566.563, 936.869 572.750, 934.855 575.500 C 930.831 580.994, 927.562 586.277, 926.037 589.750 C 925.494 590.987, 924.588 592, 924.025 592 C 923.461 592, 923 592.638, 923 593.417 C 923 594.196, 922.645 594.983, 922.211 595.167 C 920.990 595.683, 913 608.325, 913 609.742 C 913 610.434, 912.594 611, 912.098 611 C 911.602 611, 910.688 612.237, 910.067 613.750 C 909.446 615.263, 908.380 617.400, 907.699 618.500 C 907.017 619.600, 905.331 622.300, 903.951 624.500 C 902.572 626.700, 900.182 630.975, 898.641 634 C 897.100 637.025, 894.708 641.525, 893.326 644 C 889.661 650.561, 886.251 657.342, 876.478 677.500 C 867.181 696.678, 866.137 698.968, 863.490 706 C 862.559 708.475, 861.389 711.175, 860.892 712 C 860.394 712.825, 859.736 714.175, 859.430 715 C 859.123 715.825, 858.254 717.850, 857.497 719.500 C 853.477 728.267, 851.997 732.067, 851.968 733.695 C 851.951 734.688, 851.276 736.374, 850.468 737.441 C 849.661 738.509, 849 740.591, 849 742.069 C 849 743.546, 848.325 745.315, 847.500 746 C 846.675 746.685, 846 748.454, 846 749.931 C 846 751.409, 845.339 753.491, 844.532 754.559 C 843.724 755.626, 843.034 757.400, 842.998 758.500 C 842.962 759.600, 842.063 762.300, 841 764.500 C 839.937 766.700, 839.053 769.486, 839.034 770.691 C 839.015 771.896, 838.576 773.144, 838.058 773.464 C 837.540 773.785, 836.803 776.174, 836.420 778.773 C 836.037 781.373, 835.111 784.388, 834.362 785.473 C 833.613 786.557, 832.984 788.807, 832.965 790.473 C 832.945 792.138, 832.286 794.625, 831.500 796 C 830.714 797.375, 830.055 799.992, 830.035 801.816 C 830.016 803.639, 829.469 806.114, 828.820 807.316 C 827.577 809.615, 825.592 816.799, 823.657 826 C 823.021 829.025, 822.174 832.002, 821.775 832.615 C 821.376 833.228, 820.767 836.378, 820.421 839.615 C 820.075 842.852, 819.164 847.719, 818.396 850.432 C 817.628 853.144, 817 857.052, 817 859.116 C 817 861.181, 816.506 864.137, 815.902 865.685 C 815.298 867.233, 814.422 873.132, 813.956 878.793 C 813.003 890.353, 812.393 893, 810.683 893 C 809.623 893.001, 798.813 888.079, 795 885.860 C 794.175 885.380, 792.825 884.699, 792 884.346 C 791.175 883.994, 788.475 882.844, 786 881.792 C 783.525 880.740, 780.150 879.281, 778.500 878.550 C 770.488 875.002, 767.795 873.997, 766.216 873.968 C 765.272 873.951, 763.626 873.276, 762.559 872.468 C 761.491 871.661, 759.761 871, 758.713 871 C 757.666 871, 755.614 870.359, 754.154 869.575 C 752.694 868.791, 748.800 867.149, 745.500 865.926 C 742.200 864.702, 738.082 863.094, 736.349 862.351 C 734.616 861.608, 732.280 861, 731.158 861 C 730.036 861, 728.861 860.585, 728.548 860.077 C 728.234 859.569, 726.520 858.853, 724.739 858.484 C 722.957 858.116, 719.475 857.209, 717 856.468 C 714.525 855.728, 709.350 854.240, 705.500 853.162 C 701.650 852.084, 696.086 850.482, 693.135 849.601 C 690.185 848.721, 687.035 847.993, 686.135 847.985 C 685.236 847.977, 682.700 847.321, 680.500 846.529 C 678.300 845.736, 674.867 845.068, 672.872 845.044 C 670.877 845.020, 667.629 844.325, 665.654 843.500 C 663.680 842.675, 659.684 842, 656.776 842 C 653.867 842, 649.915 841.534, 647.993 840.964 C 646.072 840.395, 638.875 839.520, 632 839.020 C 625.125 838.521, 614.550 837.589, 608.500 836.951 C 596.925 835.730, 568.425 836.134, 543.774 837.870 C 531.178 838.756, 529.699 839.070, 525.818 841.676 C 519.076 846.204, 515.392 851.794, 514.636 858.642 C 511.936 883.083, 511.040 943.405, 513.101 962 C 513.619 966.675, 514.462 976.083, 514.974 982.906 C 515.486 989.729, 516.189 996.029, 516.535 996.906 C 516.881 997.783, 517.809 1003.675, 518.597 1010 C 520.720 1027.053, 525.355 1051.926, 526.971 1054.947 C 527.537 1056.004, 528 1058.068, 528 1059.533 C 528 1060.999, 528.617 1063.616, 529.372 1065.349 C 530.126 1067.082, 531.213 1071.200, 531.787 1074.500 C 533.786 1085.998, 538.709 1103.380, 542.631 1112.784 C 543.384 1114.590, 544 1116.772, 544 1117.633 C 544 1118.494, 544.622 1120.616, 545.383 1122.349 C 546.143 1124.082, 547.746 1128.650, 548.944 1132.500 C 550.142 1136.350, 551.521 1140.400, 552.008 1141.500 C 552.495 1142.600, 553.851 1145.975, 555.022 1149 C 557.327 1154.953, 558.806 1158.548, 561.193 1164 C 562.036 1165.925, 563.759 1169.975, 565.022 1173 C 568.583 1181.531, 574.248 1193.446, 575.007 1194 C 575.384 1194.275, 575.995 1195.737, 576.365 1197.250 C 576.735 1198.763, 577.480 1200, 578.019 1200 C 578.559 1200, 579.002 1200.563, 579.005 1201.250 C 579.010 1202.549, 585.498 1215.668, 587.094 1217.605 C 587.595 1218.213, 589.174 1220.913, 590.604 1223.605 C 592.035 1226.297, 593.496 1228.725, 593.852 1229 C 594.209 1229.275, 595.824 1231.975, 597.441 1235 C 599.889 1239.577, 603.895 1245.948, 610.019 1255 C 610.577 1255.825, 612.931 1259.425, 615.251 1263 C 619.411 1269.414, 621.824 1272.592, 625.250 1276.171 C 626.212 1277.177, 627 1278.235, 627 1278.521 C 627 1279.211, 636.896 1292.002, 639.199 1294.289 C 640.189 1295.273, 641 1296.398, 641.001 1296.789 C 641.001 1297.180, 642.464 1299.145, 644.251 1301.155 C 646.038 1303.165, 649.750 1307.440, 652.500 1310.655 C 665.965 1326.396, 694.667 1354.862, 704.773 1362.500 C 705.501 1363.050, 706.862 1364.189, 707.798 1365.032 C 708.734 1365.875, 711.750 1368.342, 714.500 1370.516 C 717.250 1372.689, 720.625 1375.512, 722 1376.788 C 723.375 1378.065, 727.576 1381.170, 731.336 1383.688 C 735.095 1386.207, 738.920 1389.044, 739.836 1389.993 C 741.565 1391.787, 756.744 1402, 757.680 1402 C 757.972 1402, 759.917 1403.350, 762 1405 C 764.083 1406.650, 766.038 1408, 766.344 1408 C 766.650 1408, 768.877 1409.334, 771.293 1410.965 C 773.710 1412.596, 776.770 1414.407, 778.094 1414.990 C 779.417 1415.573, 783.200 1417.625, 786.500 1419.549 C 793.829 1423.824, 808.568 1431.024, 831.686 1441.622 C 834.538 1442.930, 837.463 1444.014, 838.186 1444.032 C 838.909 1444.049, 840.374 1444.724, 841.441 1445.532 C 842.509 1446.339, 844.331 1447, 845.491 1447 C 846.651 1447, 848.027 1447.424, 848.550 1447.943 C 849.072 1448.461, 851.300 1449.322, 853.500 1449.856 C 855.700 1450.390, 859.975 1451.817, 863 1453.028 C 866.025 1454.239, 870.300 1455.777, 872.500 1456.446 C 874.700 1457.114, 877.175 1457.951, 878 1458.304 C 879.608 1458.993, 884.463 1460.242, 892.500 1462.034 C 895.250 1462.647, 899.975 1463.751, 903 1464.487 C 906.025 1465.224, 910.975 1466.332, 914 1466.949 C 917.025 1467.567, 922.650 1468.763, 926.500 1469.608 C 933.366 1471.114, 943.585 1472.846, 957.500 1474.862 C 967.391 1476.296, 996.301 1478.023, 1010.500 1478.029 C 1034.592 1478.038, 1072.381 1474.319, 1091.500 1470.056 C 1096.450 1468.952, 1102.638 1467.588, 1105.250 1467.024 C 1107.862 1466.461, 1112.138 1465.525, 1114.750 1464.945 C 1117.362 1464.364, 1121.647 1463.490, 1124.272 1463.001 C 1129.144 1462.095, 1129.960 1461.858, 1143 1457.562 C 1152.826 1454.324, 1157.181 1452.687, 1158.923 1451.576 C 1159.706 1451.077, 1161.956 1450.328, 1163.923 1449.913 C 1167.532 1449.151, 1174.390 1446.856, 1179 1444.868 C 1185.111 1442.232, 1187.965 1440.949, 1195 1437.673 C 1199.125 1435.753, 1203.513 1433.885, 1204.750 1433.523 C 1205.987 1433.161, 1207 1432.446, 1207 1431.933 C 1207 1431.420, 1207.640 1431, 1208.422 1431 C 1209.829 1431, 1222.701 1424.560, 1228.500 1420.956 C 1230.150 1419.930, 1234.088 1417.852, 1237.250 1416.337 C 1240.412 1414.823, 1243 1413.227, 1243 1412.792 C 1243 1412.356, 1243.522 1412, 1244.161 1412 C 1244.799 1412, 1248.511 1409.839, 1252.411 1407.197 C 1256.310 1404.556, 1260.175 1402.076, 1261 1401.686 C 1264.932 1399.830, 1278 1390.717, 1278 1389.832 C 1278 1389.374, 1278.477 1389, 1279.060 1389 C 1279.929 1389, 1284.334 1386.018, 1290.500 1381.257 C 1302.144 1372.267, 1305.669 1369.453, 1306.500 1368.487 C 1307.050 1367.848, 1308.054 1367.139, 1308.732 1366.912 C 1311.772 1365.895, 1357.536 1321.729, 1362.446 1315.073 C 1363.607 1313.500, 1366.871 1309.703, 1369.700 1306.636 C 1372.529 1303.569, 1377.314 1297.777, 1380.334 1293.764 C 1383.353 1289.752, 1386.763 1285.619, 1387.912 1284.580 C 1389.060 1283.540, 1390 1282.328, 1390 1281.886 C 1390 1281.444, 1393.519 1276.451, 1397.820 1270.791 C 1402.120 1265.131, 1407.388 1257.575, 1409.525 1254 C 1411.663 1250.425, 1413.994 1246.905, 1414.706 1246.179 C 1415.418 1245.452, 1416 1244.486, 1416 1244.031 C 1416 1243.577, 1417.110 1241.922, 1418.467 1240.353 C 1420.743 1237.720, 1424.882 1230.807, 1428.555 1223.500 C 1429.385 1221.850, 1430.920 1219.150, 1431.968 1217.500 C 1435.207 1212.396, 1456.970 1168, 1457.034 1166.366 C 1457.053 1165.890, 1457.937 1163.700, 1459 1161.500 C 1460.063 1159.300, 1460.947 1156.543, 1460.966 1155.372 C 1460.985 1154.202, 1461.675 1152.685, 1462.500 1152 C 1463.325 1151.315, 1464 1150.172, 1464 1149.459 C 1464 1148.746, 1464.620 1146.888, 1465.378 1145.331 C 1469.362 1137.144, 1474 1124.384, 1474 1121.610 C 1474 1120.850, 1474.672 1118.940, 1475.494 1117.364 C 1476.315 1115.789, 1476.990 1113.524, 1476.994 1112.331 C 1476.997 1111.138, 1477.625 1108.888, 1478.389 1107.331 C 1480.182 1103.677, 1481.937 1098.531, 1483.106 1093.500 C 1483.617 1091.300, 1484.451 1088.600, 1484.960 1087.500 C 1485.906 1085.451, 1487.230 1080.097, 1489.412 1069.500 C 1490.092 1066.200, 1490.947 1062.825, 1491.312 1062 C 1491.678 1061.175, 1492.423 1057.575, 1492.967 1054 C 1493.511 1050.425, 1494.396 1045.700, 1494.933 1043.500 C 1499.079 1026.504, 1502.551 1002.487, 1505.124 973 C 1506.351 958.929, 1506.661 890.224, 1505.597 867.828 C 1504.874 852.601, 1503.244 847.973, 1496.720 842.626 C 1492.646 839.289, 1491.394 838.855, 1482.871 837.828 C 1468.899 836.146, 1416.719 835.660, 1403 837.085 C 1396.675 837.741, 1387.675 838.597, 1383 838.987 C 1378.325 839.376, 1372.928 840.213, 1371.007 840.847 C 1369.085 841.481, 1365.133 842, 1362.224 842 C 1359.316 842, 1355.320 842.675, 1353.346 843.500 C 1351.371 844.325, 1348.020 845, 1345.898 845 C 1343.776 845, 1340.344 845.639, 1338.270 846.420 C 1336.197 847.202, 1332.700 848.136, 1330.500 848.498 C 1328.300 848.859, 1324.250 849.822, 1321.500 850.638 C 1318.750 851.453, 1314.025 852.802, 1311 853.634 C 1307.975 854.467, 1303.415 855.790, 1300.866 856.574 C 1298.317 857.358, 1295.685 858, 1295.017 858 C 1294.349 858, 1292.384 858.634, 1290.651 859.409 C 1288.918 860.184, 1286.375 861.047, 1285 861.327 C 1281.992 861.940, 1274.688 864.541, 1270.349 866.545 C 1268.616 867.345, 1266.591 868.014, 1265.849 868.032 C 1265.107 868.049, 1263.626 868.724, 1262.559 869.532 C 1261.491 870.339, 1259.665 871, 1258.500 871 C 1257.335 871, 1255.509 871.661, 1254.441 872.468 C 1253.374 873.276, 1251.600 873.966, 1250.500 874.002 C 1249.400 874.038, 1246.700 874.937, 1244.500 876 C 1242.300 877.063, 1239.938 877.947, 1239.250 877.966 C 1238.563 877.985, 1238 878.450, 1238 879 C 1238 879.550, 1237.479 880, 1236.841 880 C 1236.204 880, 1232.267 881.639, 1228.091 883.642 C 1223.916 885.646, 1218.925 887.951, 1217 888.765 C 1215.075 889.579, 1212.192 890.884, 1210.593 891.666 C 1208.995 892.447, 1207.314 892.714, 1206.858 892.258 C 1206.402 891.802, 1205.553 886.720, 1204.971 880.965 C 1204.389 875.209, 1203.442 867.800, 1202.865 864.500 C 1202.288 861.200, 1201.214 854.675, 1200.479 850 C 1198.888 839.890, 1196.224 828.136, 1192.413 814.412 C 1191.636 811.614, 1191 808.628, 1191 807.777 C 1191 806.319, 1189.686 801.369, 1186.547 791 C 1185.798 788.525, 1184.867 784.925, 1184.477 783 C 1184.088 781.075, 1183.423 779.050, 1183 778.500 C 1182.577 777.950, 1181.912 776.007, 1181.521 774.183 C 1181.131 772.358, 1180.182 769.658, 1179.412 768.183 C 1178.642 766.707, 1178.010 764.683, 1178.006 763.684 C 1178.003 762.686, 1177.480 760.896, 1176.844 759.708 C 1176.208 758.519, 1175.338 756.186, 1174.912 754.524 C 1173.806 750.209, 1171.158 742.801, 1169.993 740.764 C 1169.447 739.809, 1168.985 738.459, 1168.966 737.764 C 1168.947 737.069, 1168.063 734.700, 1167 732.500 C 1165.937 730.300, 1165.053 728.164, 1165.034 727.753 C 1165.015 727.342, 1163.720 724.192, 1162.156 720.753 C 1160.592 717.314, 1158.525 712.475, 1157.564 710 C 1155.322 704.230, 1154.263 701.846, 1148.011 688.500 C 1145.176 682.450, 1142.175 675.925, 1141.342 674 C 1139.283 669.246, 1137.749 666.207, 1133.129 657.729 C 1130.962 653.753, 1127.192 646.675, 1124.751 642 C 1120.536 633.928, 1115.119 624.265, 1112.979 621 C 1112.438 620.175, 1111.518 618.384, 1110.935 617.020 C 1110.352 615.657, 1109.566 614.305, 1109.187 614.018 C 1108.809 613.730, 1107.419 611.471, 1106.098 608.997 C 1104.777 606.524, 1101.827 601.575, 1099.543 598 C 1097.259 594.425, 1093.192 587.928, 1090.506 583.561 C 1087.820 579.195, 1084.808 574.808, 1083.811 573.811 C 1082.815 572.815, 1082 571.773, 1082 571.496 C 1082 570.620, 1068.780 551.580, 1066.921 549.778 C 1065.944 548.832, 1063.564 545.682, 1061.633 542.778 C 1059.702 539.875, 1056.004 535.025, 1053.416 532 C 1050.828 528.975, 1046.342 523.350, 1043.448 519.500 C 1040.553 515.650, 1037.131 511.287, 1035.842 509.805 C 1034.554 508.323, 1032.395 505.683, 1031.044 503.938 C 1028.188 500.249, 1023.365 497.082, 1016.967 494.693 C 1011.551 492.671, 1009.761 492.687, 1004.500 494.804 M 1007.596 660.250 C 1007.256 660.938, 1006.084 662.850, 1004.992 664.500 C 1003.900 666.150, 1002.511 668.737, 1001.905 670.250 C 1001.300 671.763, 1000.451 673, 1000.019 673 C 999.587 673, 998.975 673.788, 998.659 674.750 C 998.344 675.712, 996.946 678.300, 995.553 680.500 C 994.161 682.700, 992.554 685.400, 991.982 686.500 C 991.410 687.600, 987.847 694.350, 984.065 701.500 C 975.431 717.819, 970.775 727.109, 968.028 733.500 C 965.351 739.727, 963.964 742.783, 960.077 751.016 C 958.384 754.601, 956.985 757.976, 956.966 758.516 C 956.947 759.057, 956.063 761.300, 955 763.500 C 953.937 765.700, 953.053 768.197, 953.034 769.050 C 953.015 769.902, 952.592 771.027, 952.093 771.550 C 951.594 772.072, 950.730 774.075, 950.172 776 C 949.615 777.925, 948.201 781.975, 947.031 785 C 942.512 796.681, 941.833 798.624, 940.913 802.500 C 940.391 804.700, 939.560 807.400, 939.066 808.500 C 938.231 810.357, 933.694 827.552, 930.358 841.500 C 926.392 858.084, 923.336 873.814, 921.907 885 C 921.380 889.125, 920.491 895.098, 919.930 898.274 C 918.303 907.496, 916.966 923.235, 916.318 940.798 L 915.717 957.095 918.608 960.164 C 920.199 961.852, 924.425 965.615, 928 968.525 C 937.427 976.200, 970 1008.590, 970 1010.290 C 970 1010.589, 972.813 1013.746, 976.250 1017.306 C 984.540 1025.890, 990.629 1033.089, 995.500 1040.064 C 1007.252 1056.891, 1010.832 1060.074, 1012.479 1055.158 C 1012.785 1054.246, 1014.489 1051.864, 1016.267 1049.864 C 1018.045 1047.864, 1020.175 1045.214, 1021 1043.975 C 1023.235 1040.619, 1029.393 1032.852, 1032.112 1029.961 C 1033.425 1028.564, 1036.958 1024.289, 1039.963 1020.461 C 1049.594 1008.188, 1080.781 976.828, 1090.869 969.274 C 1092.172 968.298, 1094.084 966.712, 1095.119 965.750 C 1096.153 964.788, 1097.247 964, 1097.548 964 C 1097.849 964, 1099.185 962.763, 1100.516 961.250 C 1102.817 958.636, 1102.935 957.856, 1102.899 945.500 C 1102.809 915.029, 1098.492 878.916, 1091.482 850 C 1090.749 846.975, 1089.651 842.250, 1089.042 839.500 C 1088.433 836.750, 1087.309 832.025, 1086.544 829 C 1085.779 825.975, 1084.635 821.250, 1084.002 818.500 C 1083.369 815.750, 1082.209 812.082, 1081.425 810.349 C 1080.641 808.616, 1080 806.343, 1080 805.299 C 1080 804.254, 1079.592 802.973, 1079.093 802.450 C 1078.594 801.928, 1077.719 799.925, 1077.148 798 C 1075.059 790.957, 1069.972 776.453, 1069 774.764 C 1068.450 773.809, 1068 772.508, 1068 771.873 C 1068 771.238, 1067.036 768.645, 1065.858 766.110 C 1064.680 763.574, 1063.105 760.038, 1062.358 758.250 C 1058.855 749.866, 1057.955 747.748, 1056.614 744.735 C 1053.550 737.849, 1037.765 705.320, 1035.876 702 C 1034.781 700.075, 1033.222 697.150, 1032.411 695.500 C 1031.600 693.850, 1030.077 691.150, 1029.026 689.500 C 1027.975 687.850, 1025.731 683.800, 1024.038 680.500 C 1022.345 677.200, 1020.074 673.150, 1018.991 671.500 C 1017.908 669.850, 1016.494 667.487, 1015.850 666.250 C 1015.206 665.013, 1014.301 664, 1013.839 664 C 1013.378 664, 1013 663.341, 1013 662.535 C 1013 661.730, 1012.130 660.605, 1011.066 660.035 C 1008.605 658.718, 1008.345 658.734, 1007.596 660.250 M 1392.843 947.491 C 1392.573 947.761, 1386.985 948.633, 1380.426 949.430 C 1366.448 951.128, 1358.231 952.619, 1352 954.588 C 1349.525 955.370, 1346.443 956.008, 1345.151 956.005 C 1343.859 956.002, 1341.384 956.634, 1339.651 957.409 C 1337.918 958.184, 1335.375 959.032, 1334 959.293 C 1328.729 960.295, 1318.428 963.104, 1316.873 963.964 C 1315.978 964.459, 1313.545 965.182, 1311.466 965.572 C 1309.387 965.962, 1306.519 966.890, 1305.093 967.635 C 1303.667 968.379, 1301.825 969.005, 1301 969.026 C 1300.175 969.047, 1298.626 969.724, 1297.559 970.532 C 1296.491 971.339, 1294.691 972.014, 1293.559 972.032 C 1292.426 972.049, 1290.626 972.724, 1289.559 973.532 C 1288.491 974.339, 1287.004 975, 1286.254 975 C 1285.006 975, 1281.485 976.410, 1272 980.707 C 1270.075 981.579, 1267.825 982.680, 1267 983.153 C 1266.175 983.626, 1264.825 984.286, 1264 984.620 C 1263.175 984.954, 1257.942 987.426, 1252.372 990.113 C 1246.801 992.801, 1241.739 995, 1241.122 995 C 1240.505 995, 1240 995.406, 1240 995.902 C 1240 996.398, 1238.763 997.300, 1237.250 997.905 C 1235.737 998.511, 1233.150 999.898, 1231.500 1000.988 C 1229.850 1002.078, 1227.600 1003.430, 1226.500 1003.992 C 1222.039 1006.272, 1213.468 1011.270, 1213 1011.865 C 1212.013 1013.120, 1206.061 1017, 1205.124 1017 C 1204.597 1017, 1204.017 1017.337, 1203.833 1017.750 C 1203.501 1018.497, 1199.117 1021.531, 1191.500 1026.285 C 1189.300 1027.658, 1185.982 1030.159, 1184.126 1031.841 C 1182.270 1033.523, 1178.901 1036.160, 1176.639 1037.700 C 1173.055 1040.141, 1169.578 1042.916, 1165.611 1046.504 C 1165 1047.057, 1162.025 1049.527, 1159 1051.994 C 1151.830 1057.841, 1126.129 1083.543, 1118.495 1092.500 C 1115.214 1096.350, 1112.256 1099.725, 1111.922 1100 C 1111.588 1100.275, 1109.598 1102.975, 1107.499 1106 C 1105.401 1109.025, 1102.501 1112.725, 1101.055 1114.221 C 1099.610 1115.718, 1096.869 1119.465, 1094.964 1122.548 C 1093.059 1125.630, 1089.362 1131.023, 1086.750 1134.532 C 1084.138 1138.041, 1082 1141.349, 1082 1141.884 C 1082 1142.419, 1081.438 1143.473, 1080.750 1144.227 C 1079.457 1145.643, 1078.168 1147.935, 1071.032 1161.500 C 1067.398 1168.408, 1066.954 1169.909, 1067.775 1172.500 C 1068.298 1174.150, 1069.520 1178.200, 1070.491 1181.500 C 1071.462 1184.800, 1072.849 1189.300, 1073.574 1191.500 C 1074.298 1193.700, 1075.199 1197.300, 1075.576 1199.500 C 1075.953 1201.700, 1076.652 1203.995, 1077.129 1204.601 C 1077.607 1205.206, 1078.297 1207.884, 1078.662 1210.552 C 1079.028 1213.219, 1079.926 1216.549, 1080.657 1217.951 C 1081.389 1219.353, 1081.990 1221.767, 1081.994 1223.316 C 1081.997 1224.864, 1082.533 1227.114, 1083.184 1228.316 C 1083.836 1229.517, 1084.697 1232.300, 1085.098 1234.500 C 1085.500 1236.700, 1086.793 1242.775, 1087.972 1248 C 1089.151 1253.225, 1090.748 1261.480, 1091.520 1266.344 C 1092.293 1271.208, 1093.195 1276.038, 1093.524 1277.077 C 1093.854 1278.116, 1094.512 1282.911, 1094.985 1287.733 C 1095.459 1292.555, 1096.312 1298.525, 1096.880 1301 C 1097.448 1303.475, 1097.932 1309.381, 1097.956 1314.124 C 1097.982 1319.122, 1098.631 1324.536, 1099.500 1327 C 1100.356 1329.426, 1101.005 1334.739, 1101.011 1339.376 C 1101.017 1343.844, 1101.301 1349.188, 1101.642 1351.250 C 1102.243 1354.885, 1102.390 1355, 1106.431 1355 C 1108.724 1355, 1111.028 1354.607, 1111.550 1354.126 C 1112.073 1353.646, 1116.550 1352.006, 1121.500 1350.482 C 1126.450 1348.957, 1130.927 1347.325, 1131.450 1346.855 C 1131.972 1346.385, 1133.097 1345.997, 1133.950 1345.994 C 1134.802 1345.990, 1136.789 1345.315, 1138.364 1344.494 C 1139.940 1343.672, 1141.699 1343, 1142.273 1343 C 1142.847 1343, 1146.508 1341.475, 1150.409 1339.610 C 1173.706 1328.474, 1185.543 1322.507, 1185.855 1321.742 C 1186.050 1321.263, 1187.175 1320.443, 1188.355 1319.921 C 1189.535 1319.398, 1191.850 1318.084, 1193.500 1317 C 1195.150 1315.916, 1197.583 1314.557, 1198.906 1313.980 C 1200.230 1313.403, 1203.290 1311.596, 1205.707 1309.965 C 1208.123 1308.334, 1210.528 1307, 1211.050 1307 C 1211.573 1307, 1212 1306.587, 1212 1306.082 C 1212 1305.576, 1213.688 1304.146, 1215.750 1302.903 C 1220.111 1300.274, 1236.024 1288.264, 1237.516 1286.475 C 1238.075 1285.805, 1240.108 1284.187, 1242.033 1282.878 C 1250.307 1277.256, 1279.024 1248.500, 1291.231 1233.612 C 1293.545 1230.790, 1293.675 1230.626, 1300.374 1222 C 1303.578 1217.875, 1306.604 1214.350, 1307.100 1214.167 C 1307.595 1213.983, 1308 1213.355, 1308 1212.770 C 1308 1212.185, 1309.505 1209.860, 1311.344 1207.603 C 1314.233 1204.059, 1317.658 1199.069, 1321.480 1192.836 C 1322.041 1191.920, 1323.977 1188.770, 1325.783 1185.836 C 1327.589 1182.901, 1329.614 1179.600, 1330.283 1178.500 C 1330.952 1177.400, 1331.779 1176.275, 1332.119 1176 C 1332.677 1175.549, 1336.314 1168.784, 1348.243 1146 C 1350.403 1141.875, 1353.277 1135.800, 1354.630 1132.500 C 1355.983 1129.200, 1357.490 1125.600, 1357.980 1124.500 C 1361.117 1117.455, 1363 1112.578, 1363 1111.495 C 1363 1110.808, 1363.626 1109.725, 1364.391 1109.090 C 1365.156 1108.455, 1366.005 1106.713, 1366.277 1105.218 C 1366.549 1103.723, 1367.337 1100.925, 1368.027 1099 C 1370.977 1090.781, 1371.937 1087.883, 1375.481 1076.500 C 1377.535 1069.900, 1379.842 1063.226, 1380.608 1061.669 C 1381.374 1060.112, 1382.003 1057.637, 1382.006 1056.169 C 1382.010 1054.701, 1382.685 1052.211, 1383.506 1050.636 C 1384.328 1049.060, 1385.011 1046.360, 1385.024 1044.636 C 1385.037 1042.911, 1385.504 1039.700, 1386.061 1037.500 C 1387.058 1033.562, 1388.746 1024.778, 1390.962 1012 C 1391.582 1008.425, 1392.577 1003.475, 1393.175 1001 C 1393.772 998.525, 1394.628 992.675, 1395.076 988 C 1395.524 983.325, 1396.346 977.475, 1396.902 975 C 1397.458 972.525, 1397.932 965.212, 1397.956 958.750 C 1398 947.095, 1397.981 947, 1395.667 947 C 1394.383 947, 1393.112 947.221, 1392.843 947.491 M 621.750 948.670 C 620.300 949.065, 620 950.321, 620 956.008 C 620 959.782, 620.433 964.008, 620.961 965.398 C 621.490 966.789, 622.227 973.906, 622.598 981.213 C 623 989.128, 623.824 995.592, 624.637 997.200 C 625.386 998.686, 626 1001.891, 626 1004.325 C 626 1006.758, 626.675 1010.662, 627.500 1013 C 628.325 1015.338, 629 1018.393, 629 1019.788 C 629 1021.183, 629.653 1024.614, 630.451 1027.412 C 631.250 1030.210, 632.859 1037, 634.027 1042.500 C 635.195 1048, 636.794 1054.525, 637.580 1057 C 638.367 1059.475, 639.008 1062.647, 639.005 1064.050 C 639.002 1065.452, 639.485 1067.085, 640.078 1067.678 C 640.670 1068.270, 641.540 1070.273, 642.009 1072.128 C 643.109 1076.473, 645.769 1084.064, 646.880 1086.033 C 647.356 1086.876, 648.070 1089.044, 648.467 1090.850 C 648.864 1092.657, 649.818 1095.342, 650.588 1096.817 C 651.358 1098.293, 651.990 1100.476, 651.994 1101.669 C 651.997 1102.862, 652.620 1105.112, 653.378 1106.669 C 654.135 1108.226, 655.421 1111.075, 656.235 1113 C 657.049 1114.925, 659.396 1120.100, 661.450 1124.500 C 663.505 1128.900, 665.792 1133.850, 666.532 1135.500 C 670.239 1143.756, 676.580 1156.439, 681.031 1164.500 C 683.764 1169.450, 686.494 1174.737, 687.098 1176.250 C 687.702 1177.763, 688.602 1179, 689.098 1179 C 689.594 1179, 690 1179.414, 690 1179.921 C 690 1181.302, 705.495 1205.547, 709.506 1210.442 C 711.428 1212.787, 713 1215.222, 713 1215.853 C 713 1216.484, 713.371 1217, 713.825 1217 C 714.279 1217, 716.416 1219.491, 718.575 1222.535 C 720.734 1225.579, 723.400 1229.104, 724.500 1230.367 C 725.600 1231.631, 728.300 1234.878, 730.499 1237.582 C 737.993 1246.798, 755.252 1264.716, 762.069 1270.357 C 763.956 1271.919, 767.525 1275.080, 770 1277.382 C 772.475 1279.684, 778.550 1284.690, 783.500 1288.508 C 788.450 1292.325, 792.950 1295.805, 793.500 1296.241 C 797.948 1299.769, 808.027 1307, 808.496 1307 C 809.342 1307, 815.439 1311.363, 815.833 1312.250 C 816.017 1312.662, 816.702 1313, 817.356 1313 C 818.375 1313, 822.313 1315.306, 830.595 1320.752 C 831.643 1321.441, 833.616 1322.482, 834.980 1323.065 C 836.343 1323.648, 837.693 1324.434, 837.980 1324.813 C 838.266 1325.191, 840.075 1326.252, 842 1327.171 C 843.925 1328.089, 852.087 1332.027, 860.138 1335.921 C 868.188 1339.814, 875.411 1343, 876.188 1343 C 876.964 1343, 878.028 1343.386, 878.550 1343.857 C 879.073 1344.328, 882.875 1345.730, 887 1346.973 C 891.125 1348.215, 895.625 1349.678, 897 1350.223 C 899.821 1351.343, 907.518 1353.599, 913.500 1355.059 C 915.700 1355.596, 918.400 1356.462, 919.500 1356.983 C 921.382 1357.875, 923.341 1358.327, 937 1361.025 C 940.025 1361.623, 945.274 1362.761, 948.664 1363.556 C 952.054 1364.350, 956.554 1365.008, 958.664 1365.017 C 960.774 1365.027, 966.550 1365.700, 971.500 1366.514 C 983.782 1368.532, 992.874 1368.493, 993.669 1366.419 C 994.825 1363.407, 990.359 1309.822, 988.745 1307.337 C 988.329 1306.697, 987.705 1302.647, 987.357 1298.337 C 987.010 1294.027, 986.334 1289.736, 985.856 1288.803 C 985.378 1287.870, 984.589 1284.495, 984.102 1281.303 C 983.615 1278.111, 982.219 1271.225, 980.999 1266 C 979.779 1260.775, 978.166 1253.800, 977.416 1250.500 C 973.558 1233.533, 971.351 1225.766, 966.477 1212 C 965.795 1210.075, 964.237 1205.125, 963.015 1201 C 961.792 1196.875, 960.163 1192.082, 959.396 1190.349 C 958.628 1188.616, 958 1186.515, 958 1185.680 C 958 1184.845, 957.362 1182.888, 956.582 1181.331 C 949.647 1167.485, 945 1157.660, 945 1156.841 C 945 1156.300, 944.325 1155.182, 943.500 1154.357 C 942.675 1153.532, 942 1151.989, 942 1150.929 C 942 1149.868, 941.539 1149, 940.975 1149 C 940.412 1149, 939.505 1147.987, 938.960 1146.750 C 938.414 1145.513, 935.508 1140.675, 932.500 1136 C 929.492 1131.325, 926.586 1126.487, 926.040 1125.250 C 925.495 1124.013, 924.588 1123, 924.025 1123 C 923.461 1123, 923 1122.425, 923 1121.722 C 923 1121.019, 922.162 1119.727, 921.139 1118.851 C 920.115 1117.974, 917.656 1114.837, 915.675 1111.879 C 913.693 1108.920, 910.881 1105.150, 909.426 1103.500 C 907.971 1101.850, 905.142 1098.505, 903.140 1096.068 C 892.643 1083.286, 868.558 1059.208, 856.028 1048.971 C 853.019 1046.512, 849.863 1043.825, 849.014 1043 C 848.166 1042.175, 843.541 1038.595, 838.736 1035.044 C 833.931 1031.494, 830 1028.231, 830 1027.794 C 830 1027.357, 829.578 1027, 829.063 1027 C 828.547 1027, 821.905 1022.786, 814.302 1017.635 C 806.700 1012.484, 798.234 1007.053, 795.490 1005.565 C 792.745 1004.077, 789.150 1002.018, 787.500 1000.990 C 784.775 999.291, 750.261 982.016, 745.500 979.968 C 743.085 978.929, 735.646 976.005, 727.500 972.893 C 724.200 971.632, 721.072 970.240, 720.550 969.800 C 720.027 969.360, 718.902 968.997, 718.050 968.994 C 717.197 968.990, 715.293 968.358, 713.817 967.588 C 712.342 966.818, 709.657 965.864, 707.850 965.467 C 706.044 965.070, 703.876 964.371, 703.033 963.913 C 701.556 963.111, 697.093 962.003, 686.500 959.806 C 683.750 959.236, 679.925 958.198, 678 957.500 C 673.318 955.801, 665.129 954.107, 656 952.947 C 651.875 952.423, 647.375 951.581, 646 951.075 C 644.625 950.570, 639.900 949.872, 635.500 949.524 C 631.100 949.176, 626.600 948.735, 625.500 948.543 C 624.400 948.351, 622.712 948.408, 621.750 948.670" stroke="none" fill="#93deae" fill-rule="evenodd"/>
</svg>