<svg xmlns="http://www.w3.org/2000/svg" width="2000" height="2000" viewBox="0 0 2000 2000" version="1.1">
	<path d="M 590.500 157.538 C 538.270 161.915, 520.447 165.368, 478.500 179.237 C 461.827 184.750, 443.509 192.532, 416.500 205.574 C 408.916 209.236, 397.188 215.710, 385 222.961 C 370.733 231.449, 348.667 247.949, 334.500 260.721 C 297.394 294.174, 255.017 349.182, 237.216 387 C 227.739 407.135, 224.534 414.242, 221.882 421 C 220.264 425.125, 218.549 429.400, 218.071 430.500 C 216.925 433.137, 215.514 437.470, 214 443 C 213.322 445.475, 212.418 448.625, 211.991 450 C 211.564 451.375, 210.668 455.200, 210 458.500 C 209.332 461.800, 208.397 465.625, 207.922 467 C 207.447 468.375, 205.457 477.825, 203.499 488 C 201.542 498.175, 199.523 508.525, 199.013 511 C 198.131 515.277, 197.255 522.157, 195.002 542.500 C 193.493 556.127, 193.789 602.401, 195.475 616.500 C 197.754 635.562, 198.873 642.580, 201.435 653.897 C 202.756 659.729, 204.353 667.200, 204.985 670.500 C 208.724 690.034, 219.396 723.725, 227.949 743 C 235.689 760.443, 257.440 800.996, 262.008 806.500 C 262.921 807.600, 264.883 810.525, 266.368 813 C 267.854 815.475, 271.759 821.100, 275.047 825.500 C 278.335 829.900, 283.436 836.875, 286.383 841 C 293.845 851.443, 329.894 894.523, 342.866 908.500 C 344.908 910.700, 353.867 920.825, 362.775 931 C 371.684 941.175, 382.466 953.381, 386.736 958.125 C 391.006 962.869, 397.650 970.284, 401.500 974.604 C 405.350 978.924, 411.688 985.843, 415.584 989.979 C 428.118 1003.287, 463.255 1042.134, 473.942 1054.500 C 479.645 1061.100, 488.273 1070.810, 493.114 1076.077 C 497.954 1081.344, 504.691 1088.994, 508.083 1093.077 C 511.476 1097.160, 517.949 1104.550, 522.467 1109.500 C 526.986 1114.450, 536.042 1124.603, 542.592 1132.062 C 549.141 1139.521, 559.955 1151.671, 566.622 1159.062 C 573.289 1166.453, 580.939 1175.052, 583.622 1178.171 C 604.602 1202.559, 613.547 1212.703, 620.953 1220.502 C 633.165 1233.364, 648.704 1250.354, 655.707 1258.500 C 668.750 1273.673, 684.731 1288.902, 690.204 1291.376 C 701.462 1296.463, 703.961 1296.981, 719.445 1297.434 C 728.699 1297.704, 731.557 1298.128, 732.853 1299.423 C 734.234 1300.802, 734.596 1304.417, 735.096 1321.784 C 735.624 1340.111, 735.943 1343.063, 737.868 1347.383 C 740.015 1352.202, 752.863 1368.183, 766.500 1382.995 C 778.533 1396.065, 789.756 1408.513, 794.213 1413.733 C 796.571 1416.495, 803.294 1424.097, 809.154 1430.627 C 815.013 1437.157, 824.688 1447.993, 830.654 1454.707 C 847.695 1473.886, 874.734 1503.958, 880.370 1510 C 883.191 1513.025, 888.646 1519.100, 892.491 1523.500 C 896.336 1527.900, 899.711 1531.725, 899.991 1532 C 900.271 1532.275, 904.098 1536.550, 908.495 1541.500 C 912.893 1546.450, 916.741 1550.725, 917.047 1551 C 917.352 1551.275, 921.798 1556.450, 926.927 1562.500 C 932.055 1568.550, 939.682 1577.279, 943.876 1581.898 C 948.069 1586.517, 952.322 1591.242, 953.326 1592.398 C 954.330 1593.554, 956.362 1595.850, 957.842 1597.500 C 959.322 1599.150, 963.403 1603.875, 966.909 1608 C 973.161 1615.353, 986.055 1629.602, 999.033 1643.500 C 1002.628 1647.350, 1008.704 1654.096, 1012.535 1658.491 C 1024.899 1672.677, 1063.120 1709.999, 1076.497 1720.949 C 1094.998 1736.093, 1126.024 1756.752, 1149 1769.226 C 1157.647 1773.920, 1179.696 1785, 1180.390 1785 C 1180.693 1785, 1183.317 1786.076, 1186.220 1787.390 C 1215.122 1800.476, 1251.085 1812.139, 1282.500 1818.614 C 1306.885 1823.641, 1342.496 1826.968, 1372 1826.977 C 1393.214 1826.984, 1403.596 1825.902, 1428.689 1821.071 C 1462.394 1814.582, 1499.608 1802.907, 1534 1788.032 C 1541.975 1784.583, 1551.200 1780.406, 1554.500 1778.750 C 1563.828 1774.068, 1589.838 1758.234, 1596.500 1753.180 C 1599.800 1750.677, 1607.222 1745.051, 1612.993 1740.676 C 1629.286 1728.327, 1639.165 1719.522, 1656.573 1701.833 C 1674.154 1683.968, 1680.919 1676.393, 1692.142 1662 C 1703.092 1647.958, 1726 1614.537, 1726 1612.603 C 1726 1612.358, 1728.296 1608.185, 1731.103 1603.329 C 1739.573 1588.674, 1748.509 1570.940, 1751.427 1562.997 C 1759.965 1539.754, 1766.171 1518.416, 1771.493 1494 C 1772.392 1489.875, 1773.964 1483.125, 1774.986 1479 C 1776.008 1474.875, 1777.313 1468.350, 1777.887 1464.500 C 1778.461 1460.650, 1779.509 1453.900, 1780.215 1449.500 C 1781.838 1439.392, 1781.853 1381.603, 1780.234 1371.500 C 1779.618 1367.650, 1778.591 1360.675, 1777.953 1356 C 1773.582 1323.977, 1760.596 1277.594, 1748.276 1250 C 1744.594 1241.753, 1731.858 1216.090, 1729.170 1211.500 C 1718.060 1192.533, 1705.708 1173.529, 1696.995 1162 C 1695.540 1160.075, 1691.189 1154.225, 1687.324 1149 C 1681.077 1140.553, 1661.980 1117.479, 1652.116 1106.460 C 1650.127 1104.238, 1646.250 1099.753, 1643.500 1096.493 C 1637.504 1089.386, 1618.778 1067.707, 1618.024 1067 C 1617.731 1066.725, 1613.897 1062.450, 1609.504 1057.500 C 1601.622 1048.619, 1586.428 1031.798, 1578.352 1023.012 C 1576.071 1020.531, 1572.538 1016.475, 1570.501 1014 C 1568.465 1011.525, 1564.481 1007.025, 1561.649 1003.999 C 1554.404 996.260, 1540.566 980.774, 1533.500 972.500 C 1530.213 968.650, 1525.657 963.475, 1523.377 961 C 1521.097 958.525, 1515.227 951.748, 1510.333 945.941 C 1501.604 935.583, 1486.866 918.683, 1462 890.518 C 1455.125 882.731, 1443.425 869.429, 1436 860.957 C 1428.575 852.486, 1420.446 843.292, 1417.934 840.527 C 1415.423 837.762, 1409.366 830.775, 1404.474 825 C 1379.724 795.781, 1364.717 779.645, 1357.464 774.452 C 1349.669 768.871, 1339.008 765.346, 1327.500 764.547 C 1313.795 763.596, 1312.210 763.219, 1311.366 760.715 C 1310.955 759.497, 1310.566 752.200, 1310.501 744.500 C 1310.289 719.200, 1309.318 717.695, 1249.632 650.142 C 1246.404 646.489, 1241.004 640.574, 1237.632 636.998 C 1229.508 628.383, 1223.577 621.769, 1217.500 614.544 C 1214.750 611.275, 1209.350 605.023, 1205.500 600.651 C 1201.650 596.279, 1196.766 590.632, 1194.647 588.101 C 1189.195 581.591, 1178.569 569.627, 1171.464 562 C 1159.165 548.798, 1154.122 543.270, 1145.461 533.500 C 1140.585 528, 1135.450 522.354, 1134.048 520.953 C 1132.647 519.552, 1127.900 514.377, 1123.500 509.453 C 1119.100 504.529, 1115.259 500.275, 1114.966 500 C 1114.672 499.725, 1113.398 498.150, 1112.135 496.500 C 1110.873 494.850, 1107.508 491.025, 1104.657 488 C 1096.296 479.127, 1066.248 445.200, 1055.500 432.498 C 1047.410 422.937, 1035.088 409.022, 1028.049 401.500 C 1024.447 397.650, 1018.308 390.675, 1014.407 386 C 1010.505 381.325, 1003.363 373.225, 998.534 368 C 993.706 362.775, 986.323 354.415, 982.128 349.422 C 963.426 327.165, 940.962 303.327, 919.500 282.966 C 910.368 274.302, 905.810 270.138, 895.956 261.455 C 882.414 249.524, 848.174 225.525, 829 214.525 C 773.529 182.702, 722.304 166.290, 656 159.099 C 624.433 155.675, 615.331 155.458, 590.500 157.538" stroke="none" fill="#000000" fill-rule="evenodd"/>
</svg>