<svg xmlns="http://www.w3.org/2000/svg" width="2000" height="2000" viewBox="0 0 2000 2000" version="1.1">
	<rect x="0" y="0" width="100%" height="100%" fill="#2f343a" />
	<path d="M 1006 493.979 C 1005.175 494.453, 1002.475 495.819, 1000 497.013 C 995.131 499.364, 984.682 509.658, 975.801 520.854 C 969.298 529.051, 964.634 534.854, 963.224 536.500 C 958.892 541.556, 945 560.217, 945 560.980 C 945 561.449, 944.654 561.983, 944.230 562.167 C 943.807 562.350, 941.719 565.200, 939.590 568.500 C 937.462 571.800, 935.198 574.950, 934.561 575.500 C 933.312 576.576, 926 588.389, 926 589.329 C 926 589.642, 924.909 591.074, 923.576 592.513 C 920.871 595.432, 913 608.310, 913 609.818 C 913 610.350, 912.325 611.045, 911.500 611.362 C 910.675 611.678, 910 612.594, 910 613.397 C 910 614.200, 909.438 615.452, 908.750 616.179 C 908.063 616.905, 906.386 619.525, 905.025 622 C 899.943 631.237, 895.019 640.578, 893.964 642.980 C 893.365 644.343, 892.562 645.693, 892.179 645.980 C 891.796 646.266, 889.063 651.450, 886.104 657.500 C 883.146 663.550, 880.335 669.175, 879.857 670 C 879.378 670.825, 878.733 672.175, 878.421 673 C 878.110 673.825, 877.457 675.175, 876.969 676 C 876.482 676.825, 874.884 679.975, 873.419 683 C 871.954 686.025, 869.461 691.134, 867.878 694.353 C 866.295 697.572, 865 700.798, 865 701.522 C 865 702.246, 864.380 704.112, 863.622 705.669 C 862.865 707.226, 861.554 710.075, 860.710 712 C 856.347 721.951, 854.627 725.741, 853.376 728.154 C 852.619 729.614, 851.986 731.639, 851.968 732.654 C 851.951 733.669, 851.276 735.374, 850.468 736.441 C 849.661 737.509, 848.986 739.534, 848.968 740.941 C 848.951 742.349, 848.276 744.374, 847.468 745.441 C 846.661 746.509, 846 748.335, 846 749.500 C 846 750.665, 845.339 752.491, 844.532 753.559 C 843.724 754.626, 843.047 756.400, 843.026 757.500 C 843.005 758.600, 842.332 760.757, 841.531 762.292 C 840.730 763.828, 839.782 766.645, 839.424 768.553 C 839.066 770.461, 838.400 772.253, 837.944 772.534 C 837.489 772.816, 836.804 775.127, 836.422 777.670 C 836.041 780.213, 835.118 783.465, 834.371 784.897 C 833.624 786.329, 833.012 788.400, 833.011 789.500 C 833.010 790.600, 832.369 793.525, 831.585 796 C 830.801 798.475, 829.205 803.875, 828.037 808 C 826.869 812.125, 825.500 816.850, 824.996 818.500 C 824.491 820.150, 823.775 823.525, 823.403 826 C 823.031 828.475, 822.352 830.980, 821.894 831.566 C 821.436 832.152, 820.775 835.302, 820.427 838.566 C 820.078 841.830, 819.164 846.719, 818.396 849.432 C 817.628 852.144, 816.995 855.969, 816.989 857.932 C 816.983 859.894, 816.308 863.709, 815.489 866.409 C 814.670 869.109, 813.980 873.834, 813.956 876.909 C 813.906 883.431, 812.632 890.768, 811.324 892.076 C 810.772 892.628, 808.054 891.865, 804.455 890.145 C 801.180 888.580, 796.250 886.301, 793.500 885.081 C 790.750 883.861, 787.306 882.219, 785.846 881.431 C 784.386 880.644, 782.473 880, 781.596 880 C 780.718 880, 780 879.586, 780 879.079 C 780 878.573, 778.537 877.841, 776.750 877.452 C 774.962 877.063, 772.612 876.127, 771.527 875.372 C 770.443 874.618, 768.643 873.986, 767.527 873.968 C 766.412 873.951, 764.626 873.276, 763.559 872.468 C 762.491 871.661, 760.861 871, 759.936 871 C 758.410 871, 754.022 869.321, 745.349 865.418 C 743.616 864.638, 741.253 864, 740.099 864 C 738.944 864, 738 863.570, 738 863.045 C 738 862.520, 736.313 861.787, 734.250 861.415 C 732.188 861.043, 730.002 860.346, 729.393 859.866 C 728.785 859.386, 726.310 858.588, 723.893 858.092 C 721.477 857.597, 718.150 856.737, 716.500 856.182 C 714.850 855.627, 711.025 854.480, 708 853.634 C 704.975 852.788, 699.387 851.174, 695.582 850.048 C 691.776 848.922, 687.669 848, 686.454 848 C 685.239 848, 682.629 847.325, 680.654 846.500 C 678.680 845.675, 675.530 845, 673.654 845 C 671.779 845, 668.629 844.325, 666.654 843.500 C 664.680 842.675, 660.684 842, 657.776 842 C 654.867 842, 650.915 841.523, 648.993 840.940 C 647.072 840.358, 640.325 839.490, 634 839.013 C 627.675 838.536, 617.325 837.612, 611 836.958 C 603.443 836.178, 590.414 835.967, 573 836.344 C 544.508 836.960, 529.441 838.350, 526.921 840.594 C 526.053 841.367, 524.980 842, 524.536 842 C 523.406 842, 519.685 846.151, 517.239 850.140 C 516.028 852.116, 514.691 857.001, 513.992 862 C 511.213 881.896, 510.711 963.565, 513.337 968.500 C 513.923 969.600, 514.706 976.125, 515.078 983 C 515.450 989.875, 516.259 998.200, 516.875 1001.500 C 517.492 1004.800, 518.426 1010.875, 518.952 1015 C 520.651 1028.337, 525.512 1053.221, 526.941 1055.889 C 527.523 1056.978, 528.003 1059.136, 528.006 1060.684 C 528.010 1062.233, 528.685 1064.789, 529.506 1066.364 C 530.328 1067.940, 531 1070.736, 531 1072.579 C 531 1074.422, 531.644 1077.858, 532.430 1080.215 C 533.217 1082.572, 534.176 1086.300, 534.561 1088.500 C 534.946 1090.700, 535.612 1092.950, 536.041 1093.500 C 536.470 1094.050, 537.145 1096.300, 537.541 1098.500 C 537.937 1100.700, 538.629 1102.968, 539.078 1103.539 C 539.528 1104.111, 540.329 1106.361, 540.859 1108.539 C 541.981 1113.147, 543.701 1118.256, 545.559 1122.500 C 546.281 1124.150, 547.178 1127.075, 547.552 1129 C 547.925 1130.925, 548.567 1132.950, 548.978 1133.500 C 549.388 1134.050, 550.027 1135.850, 550.397 1137.500 C 551.031 1140.330, 552.445 1143.803, 555.622 1150.331 C 556.380 1151.888, 557 1153.971, 557 1154.959 C 557 1155.947, 557.675 1157.315, 558.500 1158 C 559.325 1158.685, 560 1160.004, 560 1160.931 C 560 1161.859, 560.661 1163.491, 561.468 1164.559 C 562.276 1165.626, 562.951 1167.087, 562.968 1167.805 C 562.986 1168.523, 563.933 1171.223, 565.072 1173.805 C 566.212 1176.387, 567.823 1180.075, 568.653 1182 C 569.483 1183.925, 571.205 1187.525, 572.481 1190 C 573.756 1192.475, 577.575 1199.900, 580.968 1206.500 C 584.360 1213.100, 587.984 1219.850, 589.020 1221.500 C 592.333 1226.776, 593.439 1228.691, 596.329 1234.153 C 597.885 1237.094, 599.797 1240.210, 600.579 1241.079 C 601.361 1241.947, 602 1243.007, 602 1243.435 C 602 1243.862, 603.350 1245.917, 605 1248 C 606.650 1250.083, 608 1252.022, 608 1252.309 C 608 1253.287, 619.191 1269.499, 620.097 1269.833 C 620.594 1270.017, 621 1270.704, 621 1271.361 C 621 1272.018, 621.883 1273.311, 622.961 1274.235 C 624.040 1275.158, 626.579 1278.408, 628.603 1281.457 C 630.627 1284.506, 632.669 1287, 633.142 1287 C 633.614 1287, 634 1287.675, 634 1288.500 C 634 1289.325, 634.362 1290, 634.804 1290 C 635.246 1290, 638.059 1293.232, 641.054 1297.182 C 644.049 1301.132, 647.861 1305.744, 649.524 1307.432 C 651.187 1309.119, 654.322 1312.719, 656.490 1315.432 C 663.690 1324.439, 697.153 1357.068, 707.489 1365.160 C 709.134 1366.447, 711.211 1368.175, 712.106 1369 C 713 1369.825, 716.605 1372.743, 720.116 1375.485 C 723.627 1378.226, 726.725 1380.701, 727 1380.985 C 728.200 1382.221, 733.991 1386.002, 734.710 1386.017 C 735.144 1386.027, 736.474 1387.063, 737.665 1388.320 C 740.281 1391.081, 751.674 1399, 753.031 1399 C 753.564 1399, 754 1399.441, 754 1399.981 C 754 1400.520, 755.125 1401.244, 756.500 1401.589 C 757.875 1401.934, 759 1402.629, 759 1403.133 C 759 1403.637, 760.013 1404.493, 761.250 1405.035 C 762.487 1405.578, 766.200 1407.802, 769.500 1409.979 C 772.800 1412.156, 777.750 1415.102, 780.500 1416.526 C 783.250 1417.951, 786.850 1419.953, 788.500 1420.976 C 791.764 1422.999, 806.673 1430.514, 811.500 1432.569 C 813.150 1433.272, 817.425 1435.198, 821 1436.849 C 824.575 1438.500, 829.750 1440.809, 832.500 1441.980 C 835.250 1443.151, 838.400 1444.522, 839.500 1445.028 C 842.810 1446.547, 850.246 1449.075, 854.500 1450.126 C 856.700 1450.670, 858.928 1451.539, 859.450 1452.057 C 859.973 1452.576, 861.029 1453, 861.799 1453 C 862.568 1453, 864.616 1453.628, 866.349 1454.396 C 868.082 1455.163, 872.875 1456.808, 877 1458.051 C 881.125 1459.294, 886.428 1460.916, 888.785 1461.655 C 891.142 1462.395, 894.027 1463, 895.197 1463 C 896.367 1463, 899.614 1463.640, 902.412 1464.423 C 905.210 1465.205, 909.975 1466.352, 913 1466.971 C 916.025 1467.590, 921.650 1468.744, 925.500 1469.534 C 929.350 1470.324, 935.425 1471.449, 939 1472.035 C 942.575 1472.620, 947.525 1473.556, 950 1474.115 C 958.590 1476.054, 984.645 1477.427, 1011.500 1477.356 C 1037.106 1477.289, 1064.435 1475.873, 1067.907 1474.433 C 1068.783 1474.069, 1072.650 1473.405, 1076.500 1472.956 C 1080.350 1472.506, 1087.550 1471.229, 1092.500 1470.116 C 1097.450 1469.004, 1103.638 1467.622, 1106.250 1467.047 C 1108.862 1466.471, 1113.138 1465.522, 1115.750 1464.938 C 1118.362 1464.354, 1122.922 1463.484, 1125.882 1463.006 C 1128.841 1462.528, 1131.744 1461.656, 1132.332 1461.068 C 1132.919 1460.481, 1134.548 1459.997, 1135.950 1459.994 C 1137.353 1459.990, 1139.707 1459.358, 1141.183 1458.588 C 1142.658 1457.818, 1145.276 1456.879, 1147 1456.500 C 1148.724 1456.121, 1151.342 1455.182, 1152.817 1454.412 C 1154.293 1453.642, 1156.175 1452.995, 1157 1452.974 C 1157.825 1452.953, 1159.374 1452.276, 1160.441 1451.468 C 1161.509 1450.661, 1163.560 1450, 1165 1450 C 1166.440 1450, 1168.491 1449.339, 1169.559 1448.532 C 1170.626 1447.724, 1172.426 1447.049, 1173.559 1447.032 C 1174.691 1447.014, 1176.491 1446.339, 1177.559 1445.532 C 1178.626 1444.724, 1180.163 1444.049, 1180.973 1444.032 C 1182.297 1444.003, 1195.255 1438.153, 1199 1435.893 C 1199.825 1435.395, 1201.175 1434.729, 1202 1434.413 C 1202.825 1434.097, 1205.349 1432.975, 1207.610 1431.919 C 1209.870 1430.864, 1212.232 1430, 1212.860 1430 C 1213.487 1430, 1214 1429.586, 1214 1429.079 C 1214 1428.573, 1215.350 1427.862, 1217 1427.500 C 1218.650 1427.138, 1220 1426.526, 1220 1426.140 C 1220 1425.754, 1221.237 1424.919, 1222.750 1424.284 C 1224.263 1423.649, 1228.200 1421.559, 1231.500 1419.641 C 1234.800 1417.722, 1239.300 1415.228, 1241.500 1414.100 C 1243.700 1412.971, 1247.902 1410.462, 1250.837 1408.524 C 1253.773 1406.586, 1256.585 1405, 1257.087 1405 C 1257.589 1405, 1258 1404.527, 1258 1403.948 C 1258 1403.369, 1259.350 1402.425, 1261 1401.850 C 1262.650 1401.275, 1264 1400.398, 1264 1399.902 C 1264 1399.406, 1264.455 1399, 1265.010 1399 C 1266.139 1399, 1280.393 1389.193, 1286.500 1384.214 C 1287.050 1383.766, 1288.287 1383.098, 1289.250 1382.731 C 1290.213 1382.363, 1291 1381.599, 1291 1381.031 C 1291 1380.464, 1291.563 1379.998, 1292.250 1379.995 C 1292.938 1379.993, 1295.090 1378.530, 1297.034 1376.745 C 1298.978 1374.960, 1304.378 1370.506, 1309.034 1366.846 C 1313.690 1363.186, 1322 1355.878, 1327.500 1350.607 C 1333 1345.336, 1337.838 1341.018, 1338.250 1341.011 C 1338.662 1341.005, 1339 1340.325, 1339 1339.500 C 1339 1338.675, 1339.462 1338, 1340.026 1338 C 1341.941 1338, 1373.823 1303.618, 1379 1295.971 C 1379.825 1294.752, 1380.981 1293.248, 1381.570 1292.627 C 1383.787 1290.291, 1394.001 1276.766, 1394.016 1276.147 C 1394.025 1275.791, 1395.262 1274.083, 1396.766 1272.352 C 1398.270 1270.621, 1400.175 1268.207, 1401 1266.987 C 1401.825 1265.768, 1403.878 1262.910, 1405.562 1260.635 C 1407.247 1258.361, 1410.363 1253.575, 1412.486 1250 C 1414.610 1246.425, 1417.563 1241.925, 1419.049 1240 C 1421.653 1236.626, 1425.255 1230.469, 1430.165 1221 C 1431.448 1218.525, 1432.767 1216.275, 1433.095 1216 C 1433.786 1215.421, 1435.728 1211.754, 1439.450 1204 C 1440.902 1200.975, 1442.745 1197.306, 1443.545 1195.846 C 1444.345 1194.386, 1445 1192.666, 1445 1192.024 C 1445 1191.382, 1445.675 1190.182, 1446.500 1189.357 C 1447.325 1188.532, 1448 1187.016, 1448 1185.988 C 1448 1184.959, 1448.411 1183.864, 1448.913 1183.553 C 1450.304 1182.694, 1457.976 1166.078, 1458.032 1163.805 C 1458.049 1163.087, 1458.724 1161.626, 1459.532 1160.559 C 1460.339 1159.491, 1461 1157.924, 1461 1157.075 C 1461 1156.227, 1462.302 1152.826, 1463.893 1149.516 C 1465.485 1146.207, 1467.787 1140.800, 1469.011 1137.500 C 1470.234 1134.200, 1471.601 1130.768, 1472.049 1129.873 C 1472.497 1128.978, 1473.182 1126.545, 1473.572 1124.466 C 1473.962 1122.387, 1474.890 1119.519, 1475.635 1118.093 C 1476.379 1116.667, 1476.990 1114.524, 1476.994 1113.331 C 1476.997 1112.138, 1477.625 1109.888, 1478.389 1108.331 C 1480.182 1104.677, 1481.937 1099.531, 1483.106 1094.500 C 1483.617 1092.300, 1484.451 1089.600, 1484.960 1088.500 C 1485.941 1086.375, 1487.347 1080.598, 1489.462 1070 C 1490.175 1066.425, 1491.263 1062.233, 1491.880 1060.685 C 1492.496 1059.137, 1493 1056.353, 1493 1054.500 C 1493 1052.647, 1493.482 1049.863, 1494.072 1048.315 C 1495.424 1044.765, 1497.783 1032.771, 1499.052 1023 C 1499.588 1018.875, 1500.456 1014.150, 1500.980 1012.500 C 1501.504 1010.850, 1502.409 1004.550, 1502.992 998.500 C 1503.574 992.450, 1504.443 984.350, 1504.924 980.500 C 1506.439 968.360, 1507.058 922.779, 1506.181 888 C 1505.436 858.490, 1505.117 854.083, 1503.502 851 C 1498.688 841.812, 1494.570 839.102, 1483.532 837.862 C 1456.543 834.828, 1412.514 834.687, 1394.750 837.577 C 1389.937 838.359, 1383.495 839, 1380.434 839 C 1377.373 839, 1374.001 839.465, 1372.940 840.032 C 1371.879 840.600, 1367.062 841.429, 1362.235 841.874 C 1357.408 842.320, 1352.485 843.205, 1351.295 843.842 C 1350.105 844.479, 1347.287 845, 1345.034 845 C 1342.780 845, 1339.320 845.675, 1337.346 846.500 C 1335.371 847.325, 1332.761 848, 1331.546 848 C 1330.331 848, 1326.224 848.922, 1322.418 850.048 C 1318.613 851.174, 1313.025 852.783, 1310 853.622 C 1306.975 854.461, 1302.475 855.748, 1300 856.482 C 1297.525 857.215, 1294.043 858.116, 1292.261 858.484 C 1290.480 858.853, 1288.766 859.569, 1288.452 860.077 C 1288.139 860.585, 1286.645 861, 1285.132 861 C 1283.620 861, 1281.509 861.661, 1280.441 862.468 C 1279.374 863.276, 1277.770 863.951, 1276.877 863.968 C 1275.401 863.997, 1270.862 865.751, 1262.349 869.582 C 1260.616 870.362, 1258.339 871, 1257.290 871 C 1256.241 871, 1254.509 871.661, 1253.441 872.468 C 1252.374 873.276, 1250.669 873.951, 1249.654 873.968 C 1248.639 873.986, 1246.614 874.611, 1245.154 875.357 C 1240.711 877.630, 1220.695 887.121, 1217.500 888.471 C 1214.275 889.834, 1208.892 892.232, 1207.879 892.758 C 1206.791 893.323, 1205.166 884.812, 1204.488 875 C 1204.127 869.775, 1203.219 862.800, 1202.471 859.500 C 1201.722 856.200, 1200.816 850.687, 1200.457 847.248 C 1200.097 843.810, 1199.450 840.778, 1199.018 840.511 C 1198.587 840.245, 1197.913 837.433, 1197.521 834.263 C 1197.128 831.093, 1196.455 828.050, 1196.024 827.500 C 1195.594 826.950, 1194.763 824.025, 1194.179 821 C 1192.023 809.839, 1189.800 800.816, 1186.541 790 C 1185.795 787.525, 1184.867 783.925, 1184.477 782 C 1184.088 780.075, 1183.423 778.050, 1183 777.500 C 1182.577 776.950, 1181.912 775.007, 1181.521 773.183 C 1181.131 771.358, 1180.182 768.658, 1179.412 767.183 C 1178.642 765.707, 1178.010 763.764, 1178.006 762.864 C 1178.003 761.965, 1177.328 759.940, 1176.506 758.364 C 1175.685 756.789, 1175.010 754.574, 1175.006 753.441 C 1175.003 752.309, 1174.339 750.509, 1173.532 749.441 C 1172.724 748.374, 1172.049 746.668, 1172.032 745.651 C 1172 743.811, 1170.180 739.063, 1167.439 733.669 C 1166.647 732.112, 1166 730.361, 1166 729.778 C 1166 729.196, 1165.036 726.645, 1163.858 724.110 C 1162.680 721.574, 1161.050 717.925, 1160.235 716 C 1159.421 714.075, 1158.135 711.226, 1157.378 709.669 C 1156.620 708.112, 1156 706.359, 1156 705.774 C 1156 705.189, 1154.425 701.435, 1152.500 697.433 C 1150.575 693.431, 1149 689.671, 1149 689.078 C 1149 688.485, 1148.550 688, 1148 688 C 1147.450 688, 1147 687.487, 1147 686.860 C 1147 684.869, 1136.917 663.783, 1131.527 654.500 C 1129.610 651.200, 1127.772 647.825, 1127.441 647 C 1126.296 644.148, 1122.865 637.485, 1120.488 633.500 C 1119.176 631.300, 1117.623 628.600, 1117.037 627.500 C 1116.450 626.400, 1115.113 624.150, 1114.064 622.500 C 1113.016 620.850, 1110.885 617.025, 1109.329 614 C 1107.773 610.975, 1106.162 608.350, 1105.750 608.167 C 1105.338 607.983, 1105 607.416, 1105 606.906 C 1105 606.397, 1103.510 603.847, 1101.688 601.240 C 1099.866 598.633, 1098.061 595.825, 1097.677 595 C 1097.293 594.175, 1096.195 592.302, 1095.239 590.838 C 1094.283 589.374, 1092.189 585.999, 1090.586 583.338 C 1088.984 580.677, 1085.721 575.947, 1083.336 572.826 C 1080.951 569.705, 1079 566.907, 1079 566.607 C 1079 565.751, 1070.941 554.229, 1068.499 551.594 C 1067.288 550.287, 1066.020 548.494, 1065.680 547.609 C 1065.341 546.724, 1064.599 546, 1064.031 546 C 1063.464 546, 1063 545.552, 1063 545.005 C 1063 544.069, 1053.811 531.680, 1048.787 525.843 C 1047.529 524.382, 1045.825 522.182, 1045 520.954 C 1042.612 517.400, 1036.562 510.001, 1030.813 503.603 C 1027.618 500.047, 1025.200 498.480, 1015.764 493.852 C 1013.568 492.775, 1007.969 492.848, 1006 493.979 M 1006.390 663.244 C 1004.801 665.585, 1003.163 667.650, 1002.750 667.833 C 1002.337 668.017, 1002 668.614, 1002 669.160 C 1002 670.429, 990.774 689.389, 989.760 689.833 C 989.342 690.017, 989 690.974, 989 691.961 C 989 692.948, 988.369 694.279, 987.598 694.919 C 986.827 695.558, 985.946 697.076, 985.641 698.291 C 985.335 699.506, 983.055 704.265, 980.573 708.868 C 978.091 713.470, 975.791 718.082, 975.463 719.118 C 975.134 720.153, 974.446 721, 973.933 721 C 973.420 721, 973 721.718, 973 722.596 C 973 723.473, 972.343 725.386, 971.539 726.846 C 969.974 729.690, 964.515 741.765, 958.465 755.765 C 957.689 757.560, 956.383 760.485, 955.562 762.265 C 954.741 764.044, 953.759 766.820, 953.380 768.433 C 953.001 770.047, 952.088 772.522, 951.352 773.933 C 950.615 775.345, 950.010 777.011, 950.006 777.636 C 950.003 778.260, 949.328 780.060, 948.506 781.636 C 947.685 783.211, 947.010 785.201, 947.006 786.059 C 947.003 786.916, 946.339 788.491, 945.532 789.559 C 944.724 790.626, 944.049 792.331, 944.032 793.346 C 944.014 794.361, 943.380 796.386, 942.622 797.846 C 941.865 799.306, 940.731 802.525, 940.104 805 C 939.477 807.475, 937.356 815.575, 935.390 823 C 926.467 856.703, 922.956 874.924, 919.106 907.500 C 917.140 924.129, 916 938.927, 916 947.804 L 916 956.990 920.901 961.995 C 923.596 964.748, 926.077 967, 926.413 967 C 926.749 967, 930.108 969.936, 933.879 973.524 C 937.649 977.112, 942.454 981.500, 944.556 983.274 C 946.659 985.048, 950.206 988.454, 952.439 990.842 C 954.673 993.229, 958.525 997.312, 961 999.915 C 966.268 1005.454, 973 1013.042, 973 1013.441 C 973 1013.593, 975.615 1016.369, 978.810 1019.609 C 984.863 1025.746, 991.970 1034.540, 998.609 1044.107 C 1004.580 1052.711, 1008.236 1057, 1009.600 1057 C 1010.282 1057, 1012.988 1054.075, 1015.613 1050.500 C 1018.238 1046.925, 1020.749 1044, 1021.193 1044 C 1021.637 1044, 1022 1043.484, 1022 1042.853 C 1022 1041.514, 1028.095 1033.700, 1032.176 1029.806 C 1033.729 1028.325, 1035 1026.849, 1035 1026.527 C 1035 1025.536, 1042.185 1016.801, 1048.500 1010.116 C 1058.214 999.833, 1077.950 980, 1078.469 980 C 1078.732 980, 1080.893 978.054, 1083.272 975.675 C 1085.651 973.297, 1090.623 968.972, 1094.322 966.066 C 1098.021 963.159, 1101.487 959.959, 1102.024 958.956 C 1103.196 956.765, 1103.177 938.870, 1101.984 923 C 1100.835 907.708, 1098.343 884.873, 1097.619 883 C 1097.300 882.175, 1096.596 878.350, 1096.053 874.500 C 1095.511 870.650, 1094.429 864.350, 1093.649 860.500 C 1092.323 853.954, 1091.781 851.595, 1088.945 840 C 1088.339 837.525, 1087.375 833.025, 1086.801 830 C 1086.228 826.975, 1085.405 824.050, 1084.973 823.500 C 1084.541 822.950, 1083.858 820.250, 1083.456 817.500 C 1083.054 814.750, 1082.111 811.612, 1081.362 810.527 C 1080.613 809.443, 1080 807.749, 1080 806.764 C 1080 805.779, 1079.553 804.191, 1079.007 803.236 C 1078.461 802.281, 1077.330 799.475, 1076.492 797 C 1075.655 794.525, 1073.069 786.875, 1070.747 780 C 1068.424 773.125, 1066.195 767.355, 1065.794 767.177 C 1065.392 767, 1064.777 765.328, 1064.427 763.463 C 1064.077 761.597, 1063.163 759.550, 1062.395 758.913 C 1061.628 758.276, 1061 757.192, 1061 756.505 C 1061 755.371, 1059.869 752.484, 1055.316 742 C 1053.784 738.471, 1048.784 728.310, 1044.490 720 C 1043.212 717.525, 1040.295 711.675, 1038.009 707 C 1035.724 702.325, 1033.023 697.150, 1032.009 695.500 C 1030.994 693.850, 1028.645 689.575, 1026.788 686 C 1022.098 676.972, 1018.592 670.592, 1017.997 670 C 1017.721 669.725, 1016.204 667.598, 1014.627 665.273 C 1010.065 658.547, 1009.649 658.445, 1006.390 663.244 M 1394.860 947.473 C 1394.577 947.757, 1388.755 948.670, 1381.922 949.503 C 1365.497 951.506, 1357.312 952.940, 1352.730 954.619 C 1350.656 955.378, 1347.956 955.998, 1346.730 955.995 C 1345.503 955.992, 1342.475 956.652, 1340 957.461 C 1337.525 958.270, 1332.800 959.664, 1329.500 960.559 C 1319.346 963.312, 1309.598 966.210, 1307.500 967.099 C 1304.832 968.229, 1297.273 970.888, 1293.286 972.098 C 1291.519 972.635, 1289.804 973.507, 1289.477 974.037 C 1289.150 974.567, 1287.884 975, 1286.663 975 C 1285.443 975, 1283.557 975.614, 1282.473 976.365 C 1281.388 977.116, 1279.375 978.054, 1278 978.448 C 1273.571 979.720, 1231.552 1000.371, 1230.001 1002.038 C 1229.725 1002.334, 1224.775 1005.403, 1219 1008.857 C 1213.225 1012.311, 1205.575 1017.132, 1202 1019.570 C 1198.425 1022.008, 1194.660 1024.565, 1193.634 1025.251 C 1192.608 1025.938, 1190.737 1027.287, 1189.477 1028.250 C 1188.216 1029.213, 1186.731 1030, 1186.176 1030 C 1185.621 1030, 1185.017 1030.405, 1184.833 1030.900 C 1184.650 1031.396, 1181.125 1034.412, 1177 1037.603 C 1172.875 1040.794, 1169.140 1043.989, 1168.700 1044.702 C 1168.260 1045.416, 1167.248 1046, 1166.450 1046 C 1165.653 1046, 1165 1046.346, 1165 1046.770 C 1165 1047.193, 1162.692 1049.331, 1159.872 1051.520 C 1153.873 1056.176, 1129.171 1080.662, 1120.500 1090.547 C 1107.473 1105.398, 1108 1104.766, 1108 1105.539 C 1108 1106.425, 1100.752 1115.339, 1099.250 1116.300 C 1098.563 1116.740, 1098 1117.752, 1098 1118.550 C 1098 1119.347, 1097.601 1120, 1097.114 1120 C 1096.627 1120, 1094.303 1123.263, 1091.951 1127.250 C 1089.598 1131.237, 1087.072 1134.860, 1086.337 1135.300 C 1085.601 1135.740, 1085 1136.752, 1085 1137.550 C 1085 1138.347, 1084.594 1139, 1084.098 1139 C 1083.602 1139, 1082.700 1140.237, 1082.095 1141.750 C 1081.489 1143.263, 1080.126 1145.850, 1079.064 1147.500 C 1078.003 1149.150, 1075.028 1154.657, 1072.453 1159.737 C 1067.392 1169.725, 1067.290 1170.841, 1070.515 1181 C 1071.300 1183.475, 1072.869 1188.875, 1074 1193 C 1075.131 1197.125, 1076.721 1202.525, 1077.533 1205 C 1078.345 1207.475, 1079.008 1210.461, 1079.005 1211.636 C 1079.002 1212.810, 1079.672 1215.060, 1080.494 1216.636 C 1081.315 1218.211, 1082.005 1221.075, 1082.026 1223 C 1082.047 1224.925, 1082.724 1227.374, 1083.532 1228.441 C 1084.339 1229.509, 1085 1231.617, 1085 1233.126 C 1085 1234.635, 1085.487 1237.137, 1086.083 1238.685 C 1087.124 1241.390, 1088.534 1248.121, 1090.965 1262 C 1091.591 1265.575, 1092.578 1270.661, 1093.157 1273.302 C 1093.737 1275.943, 1094.539 1282.052, 1094.938 1286.877 C 1095.338 1291.701, 1096.056 1296.282, 1096.534 1297.055 C 1097.012 1297.829, 1097.676 1304.662, 1098.011 1312.240 C 1098.388 1320.792, 1099.070 1326.470, 1099.809 1327.209 C 1100.531 1327.931, 1101.003 1331.567, 1101.009 1336.450 C 1101.013 1340.878, 1101.301 1346.862, 1101.648 1349.750 L 1102.279 1355 1105.939 1355 C 1107.953 1355, 1110.028 1354.576, 1110.550 1354.057 C 1111.073 1353.539, 1113.300 1352.679, 1115.500 1352.146 C 1119.752 1351.115, 1121.362 1350.563, 1135.500 1345.278 C 1144.300 1341.989, 1149.988 1339.574, 1153 1337.847 C 1153.825 1337.374, 1155.175 1336.712, 1156 1336.375 C 1165.393 1332.541, 1184.971 1322.740, 1186.205 1321.253 C 1186.777 1320.564, 1187.601 1320, 1188.035 1320 C 1188.470 1320, 1191.217 1318.425, 1194.140 1316.500 C 1197.063 1314.575, 1200.027 1313, 1200.727 1313 C 1201.427 1313, 1202 1312.580, 1202 1312.067 C 1202 1311.554, 1203.003 1310.816, 1204.230 1310.427 C 1205.456 1310.038, 1209.257 1307.645, 1212.677 1305.110 C 1216.097 1302.574, 1221.446 1298.700, 1224.563 1296.500 C 1227.680 1294.300, 1231.309 1291.504, 1232.627 1290.287 C 1233.945 1289.069, 1237.027 1286.544, 1239.475 1284.675 C 1247.657 1278.427, 1279 1248.911, 1279 1247.454 C 1279 1247.252, 1280.822 1245.155, 1283.049 1242.793 C 1285.275 1240.432, 1288.502 1236.588, 1290.218 1234.250 C 1291.935 1231.912, 1293.713 1230, 1294.170 1230 C 1294.626 1230, 1295 1229.325, 1295 1228.500 C 1295 1227.675, 1295.349 1227, 1295.776 1227 C 1296.203 1227, 1298.761 1224.075, 1301.462 1220.500 C 1304.162 1216.925, 1306.738 1214, 1307.186 1214 C 1307.634 1214, 1308 1213.508, 1308 1212.908 C 1308 1212.307, 1308.787 1210.784, 1309.750 1209.523 C 1310.713 1208.263, 1312.175 1206.237, 1313 1205.022 C 1313.825 1203.808, 1315.274 1201.902, 1316.220 1200.788 C 1317.166 1199.674, 1318.209 1197.916, 1318.538 1196.881 C 1318.866 1195.847, 1319.502 1195, 1319.951 1195 C 1320.400 1195, 1321.039 1194.213, 1321.372 1193.250 C 1321.704 1192.287, 1322.877 1190.150, 1323.977 1188.500 C 1325.078 1186.850, 1326.293 1184.825, 1326.677 1184 C 1327.061 1183.175, 1328.754 1180.453, 1330.438 1177.950 C 1334.833 1171.420, 1335.212 1170.750, 1342 1157.500 C 1348.879 1144.073, 1349.577 1142.735, 1351.006 1140.250 C 1351.560 1139.287, 1352.258 1137.825, 1352.557 1137 C 1352.857 1136.175, 1353.754 1134.226, 1354.551 1132.669 C 1355.348 1131.112, 1356 1129.400, 1356 1128.864 C 1356 1128.328, 1356.933 1125.777, 1358.072 1123.195 C 1359.212 1120.613, 1360.812 1116.925, 1361.627 1115 C 1362.442 1113.075, 1363.759 1110.306, 1364.554 1108.846 C 1365.349 1107.386, 1366 1105.334, 1366 1104.287 C 1366 1103.239, 1366.661 1101.509, 1367.468 1100.441 C 1368.276 1099.374, 1368.967 1097.375, 1369.004 1096 C 1369.041 1094.625, 1369.714 1092.375, 1370.500 1091 C 1371.286 1089.625, 1371.945 1087.668, 1371.965 1086.651 C 1371.984 1085.634, 1372.628 1083.384, 1373.396 1081.651 C 1374.163 1079.918, 1375.788 1075.125, 1377.005 1071 C 1378.223 1066.875, 1379.702 1062.600, 1380.293 1061.500 C 1380.883 1060.400, 1381.685 1057.700, 1382.076 1055.500 C 1382.466 1053.300, 1383.256 1050.150, 1383.830 1048.500 C 1384.404 1046.850, 1385.364 1042.575, 1385.963 1039 C 1386.561 1035.425, 1387.727 1028.900, 1388.554 1024.500 C 1389.381 1020.100, 1390.687 1012.675, 1391.456 1008 C 1392.225 1003.325, 1393.337 997.928, 1393.927 996.007 C 1394.517 994.085, 1395 990.176, 1395 987.319 C 1395 984.462, 1395.690 979.149, 1396.533 975.513 C 1399.094 964.472, 1397.898 944.435, 1394.860 947.473 M 620.343 950.549 C 619.962 951.541, 620.241 956.211, 620.963 960.927 C 621.684 965.642, 622.455 974.450, 622.675 980.500 C 622.894 986.550, 623.691 993.300, 624.445 995.500 C 625.199 997.700, 626.045 1002.365, 626.324 1005.866 C 626.603 1009.367, 627.319 1012.719, 627.916 1013.316 C 628.512 1013.912, 629 1015.775, 629 1017.457 C 629 1019.138, 629.489 1022.085, 630.086 1024.007 C 631.113 1027.313, 632.185 1032.118, 635.380 1047.750 C 636.138 1051.463, 637.263 1055.767, 637.880 1057.315 C 638.496 1058.863, 639.014 1061.338, 639.032 1062.815 C 639.049 1064.292, 639.724 1066.374, 640.532 1067.441 C 641.339 1068.509, 642 1070.241, 642 1071.290 C 642 1072.339, 642.632 1074.616, 643.404 1076.349 C 644.176 1078.082, 645.819 1082.650, 647.053 1086.500 C 648.288 1090.350, 649.906 1094.694, 650.649 1096.154 C 651.392 1097.614, 652.014 1099.864, 652.032 1101.154 C 652.049 1102.444, 652.724 1104.374, 653.532 1105.441 C 654.339 1106.509, 655 1108.182, 655 1109.160 C 655 1110.877, 655.872 1112.854, 662.105 1125.265 C 663.697 1128.435, 665 1131.698, 665 1132.515 C 665 1133.332, 665.450 1134, 666 1134 C 666.550 1134, 667 1134.513, 667 1135.140 C 667 1136.316, 669.579 1142.129, 673.592 1150 C 674.854 1152.475, 677.819 1158.325, 680.182 1163 C 682.544 1167.675, 684.728 1171.725, 685.036 1172 C 685.344 1172.275, 687.824 1176.252, 690.548 1180.838 C 693.272 1185.424, 696.283 1190.374, 697.239 1191.838 C 698.195 1193.302, 699.290 1195.175, 699.671 1196 C 700.424 1197.627, 703.890 1202.741, 705.500 1204.600 C 706.050 1205.235, 707.175 1206.752, 708 1207.971 C 708.825 1209.189, 710.288 1211.113, 711.250 1212.246 C 712.212 1213.379, 713 1214.912, 713 1215.653 C 713 1216.394, 713.342 1217, 713.760 1217 C 714.178 1217, 716.986 1220.232, 719.999 1224.183 C 723.012 1228.134, 726.171 1232.071, 727.020 1232.933 C 727.869 1233.795, 730.339 1236.750, 732.509 1239.500 C 736.057 1243.997, 741.623 1250.073, 752.051 1260.835 C 755.144 1264.027, 758.824 1267.316, 772.379 1279 C 773.974 1280.375, 775.779 1281.976, 776.389 1282.558 C 777 1283.140, 782.675 1287.506, 789 1292.261 C 795.325 1297.016, 801.288 1301.603, 802.250 1302.453 C 803.212 1303.304, 804.243 1304, 804.540 1304 C 805.123 1304, 810.742 1307.860, 812.547 1309.500 C 813.152 1310.050, 815.407 1311.400, 817.558 1312.500 C 819.709 1313.600, 822.071 1315.063, 822.806 1315.750 C 823.541 1316.438, 824.638 1317, 825.243 1317 C 825.848 1317, 827.080 1317.667, 827.980 1318.482 C 829.947 1320.262, 835.573 1323.385, 847 1329.039 C 851.675 1331.352, 856.175 1333.642, 857 1334.129 C 857.825 1334.615, 859.175 1335.267, 860 1335.579 C 860.825 1335.890, 862.175 1336.565, 863 1337.079 C 863.825 1337.592, 865.175 1338.271, 866 1338.587 C 866.825 1338.903, 869.349 1340.025, 871.610 1341.081 C 873.870 1342.136, 876.367 1343, 877.160 1343 C 877.952 1343, 879.028 1343.386, 879.550 1343.857 C 880.073 1344.328, 883.875 1345.730, 888 1346.973 C 892.125 1348.215, 896.625 1349.678, 898 1350.223 C 900.788 1351.330, 908.411 1353.568, 914.500 1355.068 C 916.700 1355.610, 919.175 1356.349, 920 1356.710 C 921.611 1357.415, 929.122 1359.216, 938 1361.026 C 941.025 1361.643, 946.489 1362.790, 950.143 1363.574 C 953.797 1364.358, 958.573 1365, 960.757 1365 C 962.940 1365, 966.926 1365.412, 969.614 1365.916 C 972.301 1366.420, 978.604 1367.148, 983.620 1367.535 L 992.740 1368.238 993.330 1362.869 C 994.159 1355.323, 990.384 1310.865, 988.692 1308.252 C 988.248 1307.565, 987.636 1303.740, 987.333 1299.752 C 987.030 1295.763, 986.157 1290.572, 985.391 1288.215 C 984.626 1285.858, 984 1282.648, 984 1281.080 C 984 1279.512, 983.366 1276.040, 982.591 1273.365 C 981.817 1270.689, 980.212 1264, 979.026 1258.500 C 977.841 1253, 976.224 1246.311, 975.435 1243.635 C 974.646 1240.960, 974 1237.748, 974 1236.499 C 974 1235.251, 973.328 1232.940, 972.506 1231.364 C 971.685 1229.789, 970.995 1227.375, 970.974 1226 C 970.953 1224.625, 970.276 1222.626, 969.468 1221.559 C 968.661 1220.491, 968 1218.759, 968 1217.710 C 968 1216.661, 967.388 1214.384, 966.641 1212.651 C 965.894 1210.918, 964.272 1206.125, 963.037 1202 C 961.802 1197.875, 960.163 1193.082, 959.396 1191.349 C 958.628 1189.616, 958 1187.028, 958 1185.599 C 958 1184.169, 957.559 1183, 957.019 1183 C 956.480 1183, 955.730 1181.763, 955.354 1180.250 C 954.977 1178.737, 952.752 1173.675, 950.408 1169 C 948.064 1164.325, 944.970 1158.025, 943.532 1155 C 940.591 1148.815, 939.073 1146.210, 937.250 1144.221 C 936.563 1143.471, 936 1142.471, 936 1142 C 936 1141.529, 935.432 1140.548, 934.738 1139.821 C 934.044 1139.095, 932.923 1137.375, 932.246 1136 C 930.902 1133.272, 928.791 1129.791, 928 1129 C 926.560 1127.560, 923 1121.952, 923 1121.124 C 923 1120.597, 922.599 1120.017, 922.109 1119.833 C 921.129 1119.467, 913 1109.379, 913 1108.529 C 913 1108.238, 912.212 1107.169, 911.250 1106.153 C 910.288 1105.137, 906.800 1100.994, 903.500 1096.945 C 895.412 1087.023, 866.628 1058.273, 855.500 1049.002 C 850.550 1044.878, 846.275 1041.254, 846 1040.949 C 845.725 1040.644, 843.700 1039.068, 841.501 1037.447 C 839.301 1035.826, 836.601 1033.684, 835.501 1032.687 C 834.400 1031.690, 828.325 1027.415, 822 1023.187 C 815.675 1018.959, 810.350 1015.163, 810.167 1014.750 C 809.983 1014.337, 809.403 1014, 808.876 1014 C 807.755 1014, 801.653 1009.845, 801.167 1008.750 C 800.983 1008.337, 800.387 1008, 799.841 1008 C 798.839 1008, 784.927 1000.171, 784 999.085 C 783.725 998.763, 780.575 997.075, 777 995.334 C 769.255 991.563, 747.335 981.203, 744.500 979.975 C 743.400 979.499, 740.387 978.185, 737.805 977.055 C 735.223 975.925, 732.672 975, 732.136 975 C 731.600 975, 729.776 974.325, 728.081 973.500 C 726.386 972.675, 723.614 971.325, 721.919 970.500 C 720.224 969.675, 718.155 969, 717.320 969 C 716.485 969, 714.384 968.380, 712.651 967.622 C 707.315 965.288, 700.712 963.076, 696 962.044 C 682.504 959.087, 677.565 957.837, 675.938 956.967 C 674.944 956.435, 672.761 956, 671.086 956 C 669.411 956, 666.344 955.363, 664.270 954.584 C 662.197 953.804, 657.397 952.885, 653.604 952.541 C 649.812 952.196, 645.987 951.529, 645.104 951.057 C 644.222 950.585, 638.445 949.872, 632.268 949.472 C 621.979 948.806, 620.977 948.897, 620.343 950.549" stroke="none" fill="#c0ebd0" fill-rule="evenodd"/>
</svg>